<?xml version="1.0" encoding="UTF-8"?>
<svg id="Layer_1" xmlns="http://www.w3.org/2000/svg" version="1.1" viewBox="0 0 60 60">
  <!-- Generator: Adobe Illustrator 29.5.1, SVG Export Plug-In . SVG Version: 2.1.0 Build 141)  -->
  <defs>
    <style>
      .st0 {
        fill: #fff;
      }

      .st1 {
        fill: #00af6b;
      }
    </style>
  </defs>
  <path class="st0" d="M58.5,13.3c-.5-.1-.9-.2-1.4-.2-1.8,0-2.8.8-3.5,1.3-.5.4-.6.5-1,.5s-.5,0-1-.5c-.7-.5-1.7-1.3-3.5-1.3s-2.8.8-3.5,1.3c-.5.4-.6.5-1,.5s-.5,0-1-.5c-.7-.5-1.7-1.3-3.5-1.3s-2.8.8-3.5,1.3c-.5.4-.6.5-1,.5s-.5,0-1-.5c-.7-.5-1.7-1.3-3.5-1.3s-2.8.8-3.5,1.3c-.5.4-.6.5-1,.5s-.5,0-1-.5c-.8-.5-1.8-1.3-3.6-1.3s-2.8.8-3.5,1.3c-.5.4-.6.5-1,.5s-.5,0-1-.5c-.7-.5-1.7-1.3-3.5-1.3s-2.8.8-3.5,1.3c-.5.4-.6.5-1,.5s-.5,0-1-.5c-.8-.5-1.8-1.3-3.6-1.3s-.9,0-1.4.2c-.8.2-1.4.9-1.5,1.8v1.8c0,16.5,13.5,30,30,30s30-13.5,30-30,0-1.1,0-1.8-.6-1.6-1.5-1.8Z"/>
  <path class="st1" d="M58,16.9v-1.7c-.2,0-.5-.1-.9-.1-2.3,0-2.3,1.8-4.5,1.8s-2.3-1.8-4.5-1.8-2.3,1.8-4.5,1.8-2.3-1.8-4.5-1.8-2.3,1.8-4.5,1.8-2.3-1.8-4.5-1.8-2.3,1.8-4.5,1.8-2.3-1.8-4.5-1.8-2.3,1.8-4.5,1.8-2.3-1.8-4.5-1.8-2.3,1.8-4.5,1.8-2.3-1.8-4.5-1.8-.6,0-.8,0v1.7c0,15.5,12.5,28,28,28s28-12.5,28-28h-.3Z"/>
</svg>