<?xml version="1.0" encoding="UTF-8"?>
<svg id="Layer_1" xmlns="http://www.w3.org/2000/svg" version="1.1" viewBox="0 0 60 60">
  <!-- Generator: Adobe Illustrator 29.5.1, SVG Export Plug-In . SVG Version: 2.1.0 Build 141)  -->
  <defs>
    <style>
      .st0 {
        fill: #0071bb;
        stroke-width: 4px;
      }

      .st0, .st1 {
        stroke: #000;
        stroke-miterlimit: 10;
      }

      .st2 {
        fill: #fff;
      }

      .st1 {
        fill: #404040;
        stroke-width: 2px;
      }

      .st3 {
        fill: #00af6b;
      }
    </style>
  </defs>
  <path class="st2" d="M33.2,48.1c-12.3,0-21.5-5.5-21.5-12.7s.5-3.2,1.4-4.6c-4.9-1.9-7.8-5-7.8-8.5,0-5.8,8.3-10.4,18.9-10.4s18.9,4.6,18.9,10.4,0,1.1-.2,1.7c7.3,2.1,11.8,6.4,11.8,11.4,0,7.2-9.2,12.7-21.5,12.7Z"/>
  <path class="st0" d="M34.5,36.4"/>
  <g>
    <ellipse class="st1" cx="33.2" cy="35.4" rx="18.5" ry="9.7"/>
    <g>
      <path class="st2" d="M24.2,30.3c-8.8,0-16-3.6-16-8s7.2-8,16-8,16,3.6,16,8-7.2,8-16,8Z"/>
      <ellipse class="st3" cx="24.2" cy="22.3" rx="3.4" ry="1.7"/>
      <path class="st3" d="M24.2,30.7c-9.3,0-16.9-3.8-16.9-8.4s7.6-8.4,16.9-8.4,16.9,3.8,16.9,8.4-7.6,8.4-16.9,8.4ZM24.2,15.1c-7.9,0-14.3,3.2-14.3,7.2s6.4,7.2,14.3,7.2,14.3-3.2,14.3-7.2-6.4-7.2-14.3-7.2Z"/>
      <g>
        <path class="st3" d="M34.2,22.9c-.2.9-1,1.8-2,2.5l1.8.9c1.5-.9,2.5-2.1,2.8-3.4,0,0-2.6,0-2.6,0Z"/>
        <path class="st3" d="M14.2,22.9h-2.6c.3,1.3,1.3,2.4,2.8,3.4l1.8-.9c-1.1-.7-1.8-1.5-2-2.5Z"/>
        <path class="st3" d="M18,26.3l-1.8.9c1.9.8,4.2,1.3,6.7,1.4v-1.3c-1.8,0-3.5-.5-4.9-1Z"/>
        <path class="st3" d="M34.2,21.7h2.6c-.3-1.3-1.3-2.4-2.8-3.4l-1.8.9c1.1.7,1.8,1.5,2,2.5Z"/>
        <path class="st3" d="M25.5,27.3v1.3c2.5,0,4.9-.6,6.7-1.4l-1.8-.9c-1.4.5-3.1.9-4.9,1Z"/>
        <path class="st3" d="M22.9,17.3v-1.3c-2.5,0-4.9.6-6.7,1.4l1.8.9c1.4-.5,3.1-.9,4.9-1Z"/>
        <path class="st3" d="M16.2,19.2l-1.8-.9c-1.5.9-2.5,2.1-2.8,3.4h2.6c.2-.9,1-1.8,2-2.5Z"/>
        <path class="st3" d="M30.4,18.3l1.8-.9c-1.9-.8-4.2-1.3-6.7-1.4v1.3c1.8,0,3.5.5,4.9,1Z"/>
        <path class="st3" d="M21.3,24.6l-1.8.9c1,.4,2.2.6,3.4.7v-1.3c-.6,0-1.1-.2-1.6-.3Z"/>
        <path class="st3" d="M27.1,20l1.8-.9c-1-.4-2.2-.6-3.4-.7v1.3c.6,0,1.1.2,1.6.3Z"/>
        <path class="st3" d="M22.9,19.6v-1.3c-1.3,0-2.4.3-3.4.7l1.8.9c.5-.2,1-.3,1.6-.3Z"/>
        <path class="st3" d="M28.8,20.9c.3.2.5.5.7.8h2.6c-.2-.6-.7-1.2-1.4-1.7l-1.8.9h-.1Z"/>
        <path class="st3" d="M25.5,25v1.3c1.3,0,2.4-.3,3.4-.7l-1.8-.9c-.5.2-1,.3-1.6.3Z"/>
        <path class="st3" d="M19.5,20.9l-1.8-.9c-.7.5-1.2,1.1-1.4,1.7h2.6c.1-.3.4-.6.7-.8h-.1Z"/>
        <path class="st3" d="M28.8,23.7l1.8.9c.7-.5,1.2-1.1,1.4-1.7h-2.6c0,.3-.4.6-.7.8h.1Z"/>
        <path class="st3" d="M18.9,22.9h-2.6c.2.6.7,1.2,1.4,1.7l1.8-.9c-.3-.2-.5-.5-.7-.8h.1Z"/>
      </g>
    </g>
  </g>
</svg>