<?xml version="1.0" encoding="UTF-8"?>
<svg id="Layer_1" xmlns="http://www.w3.org/2000/svg" version="1.1" viewBox="0 0 60 60">
  <!-- Generator: Adobe Illustrator 29.5.1, SVG Export Plug-In . SVG Version: 2.1.0 Build 141)  -->
  <defs>
    <style>
      .st0 {
        fill: #fff;
      }

      .st1 {
        fill: #00af6b;
      }
    </style>
  </defs>
  <path class="st0" d="M48,30c0-9.9-8.1-18-18-18s-3.4.2-5,.7v-.2c0-1.9-1.6-3.5-3.5-3.5h-7c-1.9,0-3.5,1.6-3.5,3.5s.4,1.8,1,2.4v15.1c0,9.9,8.1,18,18,18s3.4-.2,5-.7v.2c0,1.9,1.6,3.5,3.5,3.5h7c1.9,0,3.5-1.6,3.5-3.5s-.4-1.8-1-2.4c0,0,0-15.1,0-15.1Z"/>
  <g>
    <path class="st1" d="M46,46.1v-16.1c0-8.8-7.2-16-16-16s-5.6.8-8,2.2v-2.2c.6-.2,1-.8,1-1.4s-.7-1.5-1.5-1.5h-7c-.8,0-1.5.7-1.5,1.5s.4,1.2,1,1.4v16.1c0,8.8,7.2,16,16,16s5.6-.8,8-2.2v2.2c-.6.2-1,.8-1,1.4s.7,1.5,1.5,1.5h7c.8,0,1.5-.7,1.5-1.5s-.4-1.2-1-1.4ZM30,38c-4.4,0-8-3.6-8-8s3.6-8,8-8,8,3.6,8,8-3.6,8-8,8ZM45,35.5v10.5h-6v-2.8c2.7-1.9,4.8-4.6,6-7.7ZM45.5,48h-7c-.3,0-.5-.2-.5-.5s.2-.5.5-.5h7c.3,0,.5.2.5.5s-.2.5-.5.5Z"/>
    <polygon class="st1" points="33.9 26.8 33.2 26.1 30.5 28.8 30.5 25 29.5 25 29.5 28.8 26.8 26.1 26.1 26.8 28.8 29.5 25 29.5 25 30.5 28.8 30.5 26.1 33.2 26.8 33.9 29.5 31.2 29.5 35 30.5 35 30.5 31.2 33.2 33.9 33.9 33.2 31.2 30.5 35 30.5 35 29.5 31.2 29.5 33.9 26.8"/>
  </g>
</svg>