<?xml version="1.0" encoding="UTF-8"?>
<svg id="Layer_1" xmlns="http://www.w3.org/2000/svg" version="1.1" viewBox="0 0 60 60">
  <!-- Generator: Adobe Illustrator 29.5.1, SVG Export Plug-In . SVG Version: 2.1.0 Build 141)  -->
  <defs>
    <style>
      .st0 {
        fill: #00af6b;
        fill-rule: evenodd;
      }

      .st1 {
        fill: #fff;
      }
    </style>
  </defs>
  <path class="st1" d="M46.1,19.3l-2.4-1.4-1-.6c.4-.9,0-2.1-.8-2.6l-.6-.4h0l.6.3c.3.2.7.3,1,.3h.5c.5-.1,1-.5,1.2-.9l.7-1.2c.6-1,.2-2.2-.7-2.7l-2.8-1.6-2-1.1-2.4-1.4c-.3-.2-.7-.3-1-.3h-.5c-.5,0-1,.5-1.2.9l-.7,1.2c-.6,1-.2,2.2.7,2.7l.6.4h0l-.6-.3c-.3-.2-.7-.3-1-.3h-.5c-.5,0-1,.5-1.2.9l-2.1,3.6-2.1-3.6c-.3-.5-.7-.8-1.2-.9h-.5c-.3,0-.7,0-1,.3l-.6.4h0l.6-.5c1-.6,1.3-1.8.7-2.7l-.7-1.2c-.3-.5-.7-.8-1.2-.9h-.5c-.3,0-.7,0-1,.3l-2.4,1.4-1.2.7-3.6,2.1c-1,.6-1.3,1.8-.7,2.7l.7,1.2c.3.5.7.8,1.2.9h.5c.3,0,.7,0,1-.3l.6-.4h0l-.6.5c-.9.5-1.2,1.6-.8,2.6l-1,.6-2.4,1.4c-1,.6-1.3,1.8-.7,2.7l1.4,2.4c.3.4.7.8,1.2.9,0,.5,0,1,.2,1.5l1.4,2.4c.3.5.7.8,1.2.9h.5c.3,0,.7,0,1-.3l3.4-2,.5.9v11.9c-5.6,1-8.7,3.4-8.7,6.5,0,4.9,7.5,7.1,14.8,7.1s14.8-2.2,14.8-7.1-3.2-5.5-8.7-6.5v-11.9l.5-.9,3.4,2c.3.2.7.3,1,.3h.5c.5-.1,1-.5,1.2-.9l1.4-2.4c.3-.5.3-1,.2-1.5.5-.1.9-.5,1.2-.9l1.4-2.4c.5-1,.2-2.2-.7-2.7h0Z"/>
  <path class="st0" d="M43.8,23.4l1.4-2.4-2.4-1.4-1.2-.7-1.4,2.4-1.5-.9,2.3-4-2.4-1.4,2.1-3.6,2.4,1.4.7-1.2-2.8-1.6-2-1.1h0l-2.4-1.4-.7,1.2,2.4,1.4-2.1,3.6-2.4-1.4-3.8,6.6-3.8-6.6-2.4,1.4-2.1-3.6,2.4-1.4-.7-1.2-2.4,1.4-1.2.7-3.6,2.1.7,1.2,2.4-1.4,2.1,3.6-2.4,1.4,2.3,4-1.5.9-1.4-2.4-1.2.7-2.4,1.4,1.4,2.4,2.4-1.4,1.4,2.4-2.4,1.4,1.4,2.4,3.6-2.1-1.4-2.4,1.5-.9,3.2,5.5v14.2c-4.7.6-8.7,2.3-8.7,4.8s6.6,5.1,12.8,5.1,12.8-1.8,12.8-5.1-4-4.2-8.7-4.8v-14.2l3.2-5.5,1.5.9-1.4,2.4,3.6,2.1,1.4-2.4-2.4-1.4,1.4-2.4,2.4,1.4h0ZM41.2,47.3c0,1.4-4.3,3.4-11.2,3.4s-11.2-2-11.2-3.4,2.7-2.6,7-3.1v3.1c0,.8,1.8,1.5,4.1,1.5s4.1-.7,4.1-1.5v-3.1c4.4.6,7,2.1,7,3.1h.2Z"/>
</svg>