<?xml version="1.0" encoding="UTF-8"?>
<svg id="Layer_1" xmlns="http://www.w3.org/2000/svg" version="1.1" viewBox="0 0 60 60">
  <!-- Generator: Adobe Illustrator 29.5.1, SVG Export Plug-In . SVG Version: 2.1.0 Build 141)  -->
  <defs>
    <style>
      .st0 {
        fill: #fff;
      }

      .st1 {
        fill: #00af6b;
      }
    </style>
  </defs>
  <path class="st0" d="M30,13c-7.3,0-14.8,2.2-14.8,7.1v19.8c0,4.9,7.5,7.1,14.8,7.1s14.8-2.2,14.8-7.1v-19.8c0-4.9-7.5-7.1-14.8-7.1Z"/>
  <path class="st1" d="M30,15c-6.2,0-12.8,1.8-12.8,5.1v19.8c0,3.3,6.6,5.1,12.8,5.1s12.8-1.8,12.8-5.1v-19.8c0-3.3-6.6-5.1-12.8-5.1ZM30,16.7c6.8,0,11.2,2,11.2,3.4s-4.3,3.4-11.2,3.4-11.1-2-11.1-3.4,4.3-3.4,11.2-3.4h0Z"/>
</svg>