<?xml version="1.0" encoding="UTF-8"?>
<svg id="Layer_1" xmlns="http://www.w3.org/2000/svg" version="1.1" viewBox="0 0 60 60">
  <!-- Generator: Adobe Illustrator 29.5.1, SVG Export Plug-In . SVG Version: 2.1.0 Build 141)  -->
  <defs>
    <style>
      .st0 {
        fill: #fff;
      }

      .st1 {
        fill: #00af6b;
      }
    </style>
  </defs>
  <path class="st0" d="M45,19.5h-6c-.4,0-.7.1-1,.3-.3-.2-.6-.3-1-.3h-3v-.4c.6.3,1.3.4,2,.4,2.8,0,5-2.2,5-5s-2.2-5-5-5-2,.3-2.9.9h-6.2c-.8-.6-1.8-.9-2.9-.9-2.8,0-5,2.2-5,5s2.2,5,5,5,1.4-.1,2-.4v1.4c-4.8,2-8,6.7-8,12v8.8c-3.3.9-5,2.3-5,4.2,0,4.8,10,5,12,5s12-.2,12-5-1.7-3.3-5-4.2v-7.8h5c.4,0,.7-.1,1-.3.3.2.6.3,1,.3h6c1.1,0,2-.9,2-2v-3c0-1.1-.9-2-2-2,1.1,0,2-.9,2-2v-3c0-1.1-.9-2-2-2Z"/>
  <g>
    <path class="st1" d="M42,28.5v-4h-5v-3h-5v-5h1.8c.5.6,1.3,1,2.2,1,1.7,0,3-1.3,3-3s-1.3-3-3-3-1.6.4-2.2.9h-7.7c-.5-.6-1.3-.9-2.2-.9-1.7,0-3,1.3-3,3s1.3,3,3,3,1.7-.4,2.2-1h1.8v5.4c-4.6,1.3-8,5.5-8,10.6v12c2.1.9,3.9,1,5,1,2.2,0,4-.6,5-1v-12c0-.6.4-1,1-1h6v-3h5.1Z"/>
    <rect class="st1" x="39" y="21.5" width="6" height="3"/>
    <rect class="st1" x="39" y="28.5" width="6" height="3"/>
    <path class="st1" d="M31,43.1v2.1l-.6.3c-1.7.7-3.5,1.1-5.4,1.1s-3.7-.4-5.4-1.1l-.6-.3v-2.1c-2.4.5-4,1.4-4,2.4,0,1.7,4.5,3,10,3s10-1.3,10-3-1.6-1.8-4-2.4Z"/>
  </g>
</svg>