<?xml version="1.0" encoding="UTF-8"?>
<svg id="Layer_1" xmlns="http://www.w3.org/2000/svg" version="1.1" viewBox="0 0 60 60">
  <!-- Generator: Adobe Illustrator 29.5.1, SVG Export Plug-In . SVG Version: 2.1.0 Build 141)  -->
  <defs>
    <style>
      .st0 {
        fill: #fff;
      }

      .st1 {
        fill: #e4151c;
      }

      .st2 {
        fill: #00af6b;
      }
    </style>
  </defs>
  <path class="st0" d="M58.5,23.3c-.5-.1-.9-.2-1.4-.2-1.8,0-2.8.8-3.5,1.3-.5.4-.6.5-1,.5s-.5,0-1-.5c-.7-.5-1.7-1.3-3.5-1.3s-2.8.8-3.5,1.3c-.5.4-.6.5-1,.5s-.5,0-1-.5c-.4-.4-1-.8-1.9-1.1l12.6-12.6c.7-.7.8-1.9,0-2.7-1.3-1.7-2.9-3.2-4.5-4.5-.4-.3-.8-.4-1.3-.4s-1,.2-1.4.6l-16.1,16.1L13.9,3.7c-.4-.4-.9-.6-1.5-.6s-.9.1-1.3.4c-1.7,1.3-3.2,2.9-4.5,4.5-.6.8-.6,1.9,0,2.7l12.6,12.6c-.9.3-1.5.8-1.9,1.1-.5.4-.6.5-1,.5s-.5,0-1-.5c-.7-.5-1.7-1.3-3.5-1.3s-2.8.8-3.5,1.3c-.5.4-.6.5-1,.5s-.5,0-1-.5c-.7-.5-1.7-1.3-3.5-1.3s-.9,0-1.4.2C.7,23.5.1,24.3,0,25.1v1.8C0,33.7,2.4,40.4,6.6,45.7c1.3,1.7,2.9,3.2,4.5,4.5,5.3,4.3,12,6.6,18.8,6.6s13.5-2.4,18.8-6.6c1.7-1.3,3.2-2.9,4.5-4.5,4.3-5.3,6.6-12,6.6-18.8s0-1.1,0-1.8-.6-1.6-1.5-1.8h.2Z"/>
  <g>
    <path class="st2" d="M30,31.1l-17.6,17.6c4.8,3.9,10.9,6.2,17.6,6.2s12.8-2.3,17.6-6.2c0,0-17.6-17.6-17.6-17.6Z"/>
    <path class="st2" d="M25.7,26.9h-.3c-2.3,0-2.3-1.8-4.5-1.8s-2.3,1.8-4.5,1.8-2.3-1.8-4.5-1.8-2.3,1.8-4.5,1.8-2.3-1.8-4.5-1.8-.6,0-.8.1v1.7c0,6.7,2.3,12.8,6.2,17.6l17.6-17.6h-.2Z"/>
    <path class="st2" d="M51.8,44.5c3.9-4.8,6.2-10.9,6.2-17.6s0-1.1,0-1.7c-.2,0-.5-.1-.9-.1-2.3,0-2.3,1.8-4.5,1.8s-2.3-1.8-4.5-1.8-2.3,1.8-4.5,1.8-2.3-1.8-4.5-1.8-2.3,1.8-4.5,1.8-.2,0-.2,0h0l17.6,17.6h-.2Z"/>
    <path class="st1" d="M47.6,48.7c1.6-1.3,3-2.7,4.2-4.2l-17.6-17.6h0l17.6-17.6c-1.3-1.6-2.7-3-4.2-4.2l-17.6,17.6L12.4,5.1c-1.6,1.3-3,2.7-4.2,4.2l17.5,17.5h0l-17.6,17.6c1.3,1.6,2.7,3,4.2,4.2l17.6-17.6,17.6,17.6h0Z"/>
  </g>
</svg>