<?xml version="1.0" encoding="UTF-8"?>
<svg id="Layer_1" xmlns="http://www.w3.org/2000/svg" version="1.1" viewBox="0 0 60 60">
  <!-- Generator: Adobe Illustrator 29.5.1, SVG Export Plug-In . SVG Version: 2.1.0 Build 141)  -->
  <defs>
    <style>
      .st0 {
        fill-rule: evenodd;
      }

      .st0, .st1 {
        fill: #00af6b;
      }

      .st2 {
        fill: #fff;
      }
    </style>
  </defs>
  <path class="st2" d="M38.8,17.5h-4.6v-4.6c0-.5-.2-1-.6-1.4s-.9-.6-1.4-.6h-2.4v-.4h2.4c1.1,0,2-.9,2-2v-2.2c0-1.1-.9-2-2-2h-11c-.5,0-1,.2-1.4.6-.4.4-.6.9-.6,1.4v2.2c0,1.1.9,2,2,2h2v.4h-2c-1.1,0-2,.9-2,2v11h0l1.2,28.3c0,.8.4,2.1,2.6,2.9,1,.4,2.3.6,3.7.6,3.8,0,6.3-1.4,6.3-3.5l.9-22h4.9c1.1,0,2-.9,2-2v-2.2c0-1.1-.9-2-2-2h-.2v-.4h.2c1.1,0,2-.9,2-2v-2.2c0-1.1-.9-2-2-2h0Z"/>
  <g>
    <path class="st0" d="M36.6,21.7h-4.4v-8.8h-4.4v-4.4h4.4v-2.2h-11v2.2h4v4.4h-4v11l1.2,28.3h0c0,.8,1.9,1.5,4.3,1.5s4.3-.7,4.3-1.5l1.1-26.1h2.3v2.2h4.4v-2.2h-2.2v-4.4Z"/>
    <rect class="st1" x="34.4" y="19.5" width="4.4" height="2.2"/>
  </g>
</svg>