<?xml version="1.0" encoding="UTF-8"?>
<svg id="Layer_1" xmlns="http://www.w3.org/2000/svg" version="1.1" viewBox="0 0 60 60">
  <!-- Generator: Adobe Illustrator 29.5.1, SVG Export Plug-In . SVG Version: 2.1.0 Build 141)  -->
  <defs>
    <style>
      .st0 {
        fill: none;
      }

      .st1 {
        fill: #fff;
      }

      .st2 {
        fill: #00af6b;
      }
    </style>
  </defs>
  <path class="st1" d="M0,25C0,41.6,13.4,55,30,55s30-13.4,30-30-2.9-14.6-7.6-19.9H7.6C2.9,10.4,0,17.4,0,25Z"/>
  <g>
    <path class="st0" d="M19.4,12.7c-3.1,0-5.6,2.5-5.6,5.6v.8c2,0,2,1.6,4,1.6s2-1.6,4.1-1.6,2,1.6,4.1,1.6,2-1.6,4.1-1.6,2,1.6,4.1,1.6,2-1.6,4.1-1.6,2,1.6,4.1,1.6,2-1.6,4.1-1.6v-.8c0-3.1-2.5-5.6-5.6-5.6h-21.5Z"/>
    <path d="M56.9,19.6c0,.3.3.6.6.6s0,0,0,0c0-.4,0-.8-.2-1.2-.3,0-.5.3-.5.6h.1Z"/>
    <path d="M56.2,16.5c-.3,0-.6.3-.6.6s.3.6.6.6.6-.3.6-.6,0-.3,0-.4c0-.2-.3-.3-.5-.3h0Z"/>
    <path d="M57.5,25.2c.2,0,.4-.1.5-.3v-.7c0-.1-.3-.2-.5-.2-.3,0-.6.3-.6.6s.3.6.6.6Z"/>
    <circle cx="56.2" cy="22.1" r=".6"/>
    <path d="M57.5,29c-.3,0-.6.3-.6.6s.3.6.6.6,0,0,0,0c0-.4,0-.8.2-1.2h-.2Z"/>
    <circle cx="56.2" cy="27.1" r=".6"/>
    <circle cx="56.2" cy="32.1" r=".6"/>
    <circle cx="55" cy="14.6" r=".6"/>
    <circle cx="52.5" cy="14.6" r=".6"/>
    <circle cx="53.8" cy="12.1" r=".6"/>
    <circle cx="51.2" cy="12.1" r=".6"/>
    <circle cx="55" cy="19.6" r=".6"/>
    <circle cx="52.5" cy="19.6" r=".6"/>
    <circle cx="53.8" cy="17.1" r=".6"/>
    <circle cx="51.2" cy="17.1" r=".6"/>
    <circle cx="55" cy="24.6" r=".6"/>
    <circle cx="52.5" cy="24.6" r=".6"/>
    <circle cx="53.8" cy="22.1" r=".6"/>
    <circle cx="51.2" cy="22.1" r=".6"/>
    <circle cx="55" cy="29.6" r=".6"/>
    <circle cx="52.5" cy="29.6" r=".6"/>
    <circle cx="53.8" cy="27.1" r=".6"/>
    <circle cx="51.2" cy="27.1" r=".6"/>
    <circle cx="55" cy="34.6" r=".6"/>
    <circle cx="52.5" cy="34.6" r=".6"/>
    <circle cx="53.8" cy="32.1" r=".6"/>
    <circle cx="51.2" cy="32.1" r=".6"/>
    <circle cx="52.5" cy="39.6" r=".6"/>
    <circle cx="53.8" cy="37.1" r=".6"/>
    <circle cx="51.2" cy="37.1" r=".6"/>
    <circle cx="51.2" cy="42.1" r=".6"/>
    <circle cx="50" cy="14.6" r=".6"/>
    <circle cx="47.5" cy="14.6" r=".6"/>
    <circle cx="48.8" cy="12.1" r=".6"/>
    <circle cx="46.2" cy="12.1" r=".6"/>
    <circle cx="50" cy="19.6" r=".6"/>
    <circle cx="48.8" cy="17.1" r=".6"/>
    <circle cx="50" cy="24.6" r=".6"/>
    <circle cx="48.8" cy="22.1" r=".6"/>
    <circle cx="50" cy="29.6" r=".6"/>
    <circle cx="48.8" cy="27.1" r=".6"/>
    <circle cx="50" cy="34.6" r=".6"/>
    <circle cx="48.8" cy="32.1" r=".6"/>
    <circle cx="50" cy="39.6" r=".6"/>
    <circle cx="48.8" cy="37.1" r=".6"/>
    <path d="M50,44c-.3,0-.6.3-.6.6s0,.3.2.5l.9-.9c0,0-.3-.2-.4-.2h-.1Z"/>
    <circle cx="47.5" cy="44.6" r=".6"/>
    <circle cx="48.8" cy="42.1" r=".6"/>
    <path d="M46.9,47.1c0-.3-.3-.6-.6-.6s-.6.3-.6.6.3.6.6.6.2,0,.2,0c0,0,.2,0,.2-.2,0,0,.2-.3.2-.4Z"/>
    <circle cx="45" cy="44.6" r=".6"/>
    <circle cx="42.5" cy="44.6" r=".6"/>
    <path d="M43.1,49.6c0-.3-.3-.6-.6-.6s-.6.3-.6.6.2.5.5.6c.3,0,.5-.3.8-.4v-.2h-.1Z"/>
    <circle cx="43.8" cy="47.1" r=".6"/>
    <circle cx="41.2" cy="47.1" r=".6"/>
    <circle cx="40" cy="44.6" r=".6"/>
    <circle cx="37.5" cy="44.6" r=".6"/>
    <circle cx="40" cy="49.6" r=".6"/>
    <circle cx="37.5" cy="49.6" r=".6"/>
    <circle cx="38.8" cy="47.1" r=".6"/>
    <circle cx="36.2" cy="47.1" r=".6"/>
    <path d="M38.8,51.5c-.2,0-.5,0-.6.4.3,0,.6-.2.8-.3h-.3,0Z"/>
    <path d="M36.9,52.1c0-.3-.3-.6-.6-.6s-.6.3-.6.6,0,.3,0,.4c.4,0,.7-.2,1.1-.3h0Z"/>
    <circle cx="35" cy="44.6" r=".6"/>
    <circle cx="32.5" cy="44.6" r=".6"/>
    <circle cx="35" cy="49.6" r=".6"/>
    <circle cx="32.5" cy="49.6" r=".6"/>
    <circle cx="33.8" cy="47.1" r=".6"/>
    <circle cx="31.2" cy="47.1" r=".6"/>
    <circle cx="33.8" cy="52.1" r=".6"/>
    <circle cx="31.2" cy="52.1" r=".6"/>
    <circle cx="30" cy="44.6" r=".6"/>
    <circle cx="27.5" cy="44.6" r=".6"/>
    <circle cx="30" cy="49.6" r=".6"/>
    <circle cx="27.5" cy="49.6" r=".6"/>
    <circle cx="28.8" cy="47.1" r=".6"/>
    <circle cx="26.2" cy="47.1" r=".6"/>
    <circle cx="28.8" cy="52.1" r=".6"/>
    <circle cx="26.2" cy="52.1" r=".6"/>
    <circle cx="25" cy="44.6" r=".6"/>
    <circle cx="22.5" cy="44.6" r=".6"/>
    <circle cx="25" cy="49.6" r=".6"/>
    <circle cx="22.5" cy="49.6" r=".6"/>
    <circle cx="23.8" cy="47.1" r=".6"/>
    <circle cx="21.2" cy="47.1" r=".6"/>
    <path d="M24.4,52.1c0-.3-.3-.6-.6-.6s-.6.3-.6.6,0,0,0,0c.4,0,.7.2,1.1.3,0,0,.1-.2.1-.4h0Z"/>
    <path d="M21.2,51.5h-.3c.3,0,.6.2.8.3-.1-.2-.3-.4-.6-.4h.1Z"/>
    <circle cx="20" cy="44.6" r=".6"/>
    <circle cx="17.5" cy="44.6" r=".6"/>
    <circle cx="20" cy="49.6" r=".6"/>
    <path d="M18.1,49.6c0-.3-.3-.6-.6-.6s-.6.3-.6.6,0,0,0,.2c.2,0,.5.3.8.4.3,0,.5-.3.5-.6h0Z"/>
    <circle cx="18.8" cy="47.1" r=".6"/>
    <circle cx="16.2" cy="47.1" r=".6"/>
    <circle cx="12.5" cy="14.6" r=".6"/>
    <circle cx="13.8" cy="12.1" r=".6"/>
    <circle cx="11.2" cy="12.1" r=".6"/>
    <circle cx="11.2" cy="17.1" r=".6"/>
    <circle cx="11.2" cy="22.1" r=".6"/>
    <circle cx="11.2" cy="27.1" r=".6"/>
    <circle cx="11.2" cy="32.1" r=".6"/>
    <circle cx="11.2" cy="37.1" r=".6"/>
    <circle cx="15" cy="44.6" r=".6"/>
    <circle cx="12.5" cy="44.6" r=".6"/>
    <circle cx="11.2" cy="42.1" r=".6"/>
    <path d="M13.8,47.7c.3,0,.6-.3.6-.6s-.3-.6-.6-.6-.6.3-.6.6,0,.3.2.4c0,0,.2,0,.2.2,0,0,.1,0,.2,0Z"/>
    <circle cx="10" cy="14.6" r=".6"/>
    <circle cx="7.5" cy="14.6" r=".6"/>
    <circle cx="8.8" cy="12.1" r=".6"/>
    <circle cx="6.2" cy="12.1" r=".6"/>
    <circle cx="10" cy="19.6" r=".6"/>
    <circle cx="7.5" cy="19.6" r=".6"/>
    <circle cx="8.8" cy="17.1" r=".6"/>
    <circle cx="6.2" cy="17.1" r=".6"/>
    <circle cx="10" cy="24.6" r=".6"/>
    <circle cx="7.5" cy="24.6" r=".6"/>
    <circle cx="8.8" cy="22.1" r=".6"/>
    <circle cx="6.2" cy="22.1" r=".6"/>
    <circle cx="10" cy="29.6" r=".6"/>
    <circle cx="7.5" cy="29.6" r=".6"/>
    <circle cx="8.8" cy="27.1" r=".6"/>
    <circle cx="6.2" cy="27.1" r=".6"/>
    <circle cx="10" cy="34.6" r=".6"/>
    <circle cx="7.5" cy="34.6" r=".6"/>
    <circle cx="8.8" cy="32.1" r=".6"/>
    <circle cx="6.2" cy="32.1" r=".6"/>
    <circle cx="10" cy="39.6" r=".6"/>
    <circle cx="7.5" cy="39.6" r=".6"/>
    <circle cx="8.8" cy="37.1" r=".6"/>
    <circle cx="6.2" cy="37.1" r=".6"/>
    <path d="M10.6,44.6c0-.3-.3-.6-.6-.6s-.3,0-.4.2c.3.3.6.6.9.9.1,0,.2-.3.2-.5h0Z"/>
    <circle cx="8.8" cy="42.1" r=".6"/>
    <circle cx="5" cy="14.6" r=".6"/>
    <circle cx="5" cy="19.6" r=".6"/>
    <path d="M2.5,20.2c.3,0,.6-.3.6-.6s-.2-.5-.5-.6c0,.4-.2.8-.2,1.2h.1Z"/>
    <path d="M3.8,17.7c.3,0,.6-.3.6-.6s-.3-.6-.6-.6-.4.1-.5.3c0,.1,0,.3,0,.4,0,.3.3.6.6.6h0Z"/>
    <circle cx="5" cy="24.6" r=".6"/>
    <path d="M3.1,24.6c0-.3-.3-.6-.6-.6s-.4,0-.5.2v.7c0,.2.3.3.5.3.3,0,.6-.3.6-.6Z"/>
    <circle cx="3.8" cy="22.1" r=".6"/>
    <circle cx="5" cy="29.6" r=".6"/>
    <path d="M3.1,29.6c0-.3-.3-.6-.6-.6s0,0-.2,0c0,.4,0,.8.2,1.2h0c.3,0,.6-.3.6-.6Z"/>
    <circle cx="3.8" cy="27.1" r=".6"/>
    <circle cx="5" cy="34.6" r=".6"/>
    <circle cx="3.8" cy="32.1" r=".6"/>
    <path class="st2" d="M38.1,19.1c-2,0-2,1.6-4.1,1.6s-2-1.6-4.1-1.6-2,1.6-4.1,1.6-2-1.6-4.1-1.6-2,1.6-4.1,1.6-2-1.6-4-1.6h0v23.6h32.5v-23.6h0c-2,0-2,1.6-4.1,1.6s-2-1.6-4.1-1.6h.2Z"/>
    <path d="M6.6,9.6h.2c0,.3.3.6.6.6s.6-.3.6-.6h1.2c0,.3.3.6.6.6s.6-.3.6-.6h1.2c0,.3.3.6.6.6s.6-.3.6-.6h1.2c0,.3.3.6.6.6s.6-.3.6-.6h1.2c0,.3.3.6.6.6s.6-.3.6-.6h.6v1.9c-.7,0-1.3.2-1.9.5,0-.3-.3-.5-.6-.5s-.6.3-.6.6,0,.3.2.4c-2,1.2-3.3,3.4-3.3,5.8v.6c-.3,0-.6.3-.6.6s.3.6.6.6v3.8c-.3,0-.6.3-.6.6s.3.6.6.6v3.8c-.3,0-.6.3-.6.6s.3.6.6.6v3.8c-.3,0-.6.3-.6.6s.3.6.6.6v3.8c-.3,0-.6.3-.6.6s.3.6.6.6v3.7h35v-3.7h0c.3,0,.6-.3.6-.6s-.3-.6-.6-.6h0v-3.8h0c.3,0,.6-.3.6-.6s-.3-.6-.6-.6h0v-3.8h0c.3,0,.6-.3.6-.6s-.3-.6-.6-.6h0v-3.8h0c.3,0,.6-.3.6-.6s-.3-.6-.6-.6h0v-3.8h0c.3,0,.6-.3.6-.6s-.3-.6-.6-.6h0v-.6c0-2.5-1.3-4.6-3.3-5.8,0,0,.2-.2.2-.4,0-.3-.3-.6-.6-.6s-.5.2-.6.5c-.6-.2-1.2-.4-1.9-.5v-1.9h.6c0,.3.3.6.6.6s.6-.3.6-.6h1.2c0,.3.3.6.6.6s.6-.3.6-.6h1.2c0,.3.3.6.6.6s.6-.3.6-.6h1.2c0,.3.3.6.6.6s.6-.3.6-.6h1.2c0,.3.3.6.6.6s.6-.3.6-.6h.2c-.6-.9-1.2-1.7-1.9-2.5H8.5c-.7.8-1.3,1.6-1.9,2.5ZM46.2,18.3v.8h0v23.6H13.7v-23.6h0v-.8c0-3.1,2.5-5.6,5.6-5.6h21.2c3.1,0,5.6,2.5,5.6,5.6h.1Z"/>
  </g>
</svg>