<?xml version="1.0" encoding="UTF-8"?>
<svg id="Layer_1" xmlns="http://www.w3.org/2000/svg" version="1.1" viewBox="0 0 60 60">
  <!-- Generator: Adobe Illustrator 29.5.1, SVG Export Plug-In . SVG Version: 2.1.0 Build 141)  -->
  <defs>
    <style>
      .st0 {
        fill: #0056a4;
      }

      .st1 {
        fill: #fff;
      }
    </style>
  </defs>
  <path class="st1" d="M49.1,23.6h-1.5c-.8,0-1.5.3-2.1.9-.6.6-.9,1.3-.9,2.1h0v1.8c-2.5-1.7-6.5-2.5-10.6-2.5s-8.2.9-10.7,2.6c-.5-.7-1-1.5-1.8-2.2-1.7-1.6-3.7-2.5-5.4-2.5h-.6v-5.9c0-1.6-1.3-3-3-3h-1.6v1h0v-1c-1.5,0-2.9,1.3-2.9,2.9v25.2c0,1.1.9,2,2,2h3.5c1.1,0,2-.9,2-2v-1.7h29v1.7c0,1.1.9,2,2,2h3.5c1.1,0,2-.9,2-2v-16.3c0-.8-.3-1.5-.8-2.1-.5-.6-1.3-.9-2.1-.9h0Z"/>
  <g>
    <path class="st0" d="M49,25.6h-1.5c-.5,0-1,.4-1,1h0v7.7h-28.1c-2.6,0-4.8-2.1-4.9-4.7v-11.7c0-.5-.4-1-1-1h-1.6c-.5,0-1,.4-1,1h0v25.2h3.5v-3.7h33v3.7h3.5v-16.5c0-.5-.4-1-.9-1h0Z"/>
    <path class="st0" d="M20.1,27.8c2,1.8,2.8,4.2,1.8,5.3s-3.4.4-5.4-1.4-2.8-4.2-1.8-5.3,3.4-.4,5.4,1.4h0Z"/>
    <path class="st0" d="M44.8,33.4c.2-.3.3-.7.3-1,0-2.5-5-4.5-11.1-4.5s-11.1,2-11.1,4.5.1.7.3,1h21.6Z"/>
  </g>
  <g>
    <path class="st0" d="M49,25.6h-1.5c-.5,0-1,.4-1,1h0v7.7h-28.1c-2.6,0-4.8-2.1-4.9-4.7v-11.7c0-.5-.4-1-1-1h-1.6c-.5,0-1,.4-1,1h0v25.2h3.5v-3.7h33v3.7h3.5v-16.5c0-.5-.4-1-.9-1h0Z"/>
    <path class="st0" d="M20.1,27.8c2,1.8,2.8,4.2,1.8,5.3s-3.4.4-5.4-1.4-2.8-4.2-1.8-5.3,3.4-.4,5.4,1.4h0Z"/>
    <path class="st0" d="M44.8,33.4c.2-.3.3-.7.3-1,0-2.5-5-4.5-11.1-4.5s-11.1,2-11.1,4.5.1.7.3,1h21.6Z"/>
  </g>
</svg>