<?xml version="1.0" encoding="UTF-8"?>
<svg id="Layer_1" xmlns="http://www.w3.org/2000/svg" version="1.1" viewBox="0 0 60 60">
  <!-- Generator: Adobe Illustrator 29.5.1, SVG Export Plug-In . SVG Version: 2.1.0 Build 141)  -->
  <defs>
    <style>
      .st0 {
        fill: none;
      }

      .st1 {
        fill: #0056a4;
      }

      .st2 {
        fill: #fff;
      }
    </style>
  </defs>
  <path class="st2" d="M35,15.5h0c-.5,0-1,0-1.5.3.6-.8,1-1.8,1-2.8,0-2.5-2-4.5-4.5-4.5s-4.5,2-4.5,4.5.8,2.2,2,2.4l-.9.4c-.5-.2-1-.4-1.5-.4-7,0-12.8,5.3-13.6,12.1-.1,1.3.3,2.6,1.1,3.5.8.9,2,1.5,3.3,1.5v14.5c0,2.5,2,4.5,4.5,4.5h19.1c2.5,0,4.5-2,4.5-4.5v-14.5c1.3,0,2.5-.6,3.3-1.5.9-1,1.3-2.2,1.1-3.5-.8-6.8-6.5-12-13.5-12h.1Z"/>
  <g>
    <path class="st0" d="M30,22c1.7,0,3.1-1.2,3.4-2.8l-3.4-1.6-3.4,1.6c.3,1.6,1.7,2.8,3.4,2.8Z"/>
    <path class="st0" d="M36.2,20.6c-.9,2.6-3.3,4.4-6.2,4.4s-5.3-1.8-6.2-4.4c-3.7.5-6.6,3.3-7.3,6.9h1.9c1.4,0,2.5,1.1,2.5,2.5v16.5h18.1v-16.5c0-1.4,1.1-2.5,2.5-2.5h1.9c-.7-3.7-3.6-6.4-7.3-6.9h.1Z"/>
    <path class="st1" d="M46.5,27.7c-.7-5.8-5.6-10.2-11.5-10.2h0c-.5,0-1,.3-1.2.7l-3.2-1.5v-1.2c1.1-.2,2-1.2,2-2.5s-1.1-2.5-2.5-2.5-2.5,1.1-2.5,2.5.2.5.5.5.5-.2.5-.5c0-.8.7-1.5,1.5-1.5s1.5.7,1.5,1.5-.7,1.5-1.5,1.5-.5.2-.5.5v1.7l-3.2,1.5c-.3-.4-.8-.7-1.3-.7-5.9,0-10.8,4.4-11.5,10.2,0,.7,0,1.4.6,2,.5.5,1.2.8,1.9.8h2v16.5c0,1.4,1.1,2.5,2.5,2.5h19.1c1.4,0,2.5-1.1,2.5-2.5v-16.5h2c.7,0,1.4-.3,1.9-.8s.7-1.2.6-2h-.2ZM30,17.6l3.4,1.6c-.3,1.6-1.7,2.8-3.4,2.8s-3.1-1.2-3.4-2.8l3.4-1.6ZM41.5,27.5c-1.4,0-2.5,1.1-2.5,2.5v16.5h-18v-16.5c0-1.4-1.1-2.5-2.5-2.5h-1.9c.6-3.6,3.6-6.4,7.3-6.9.9,2.6,3.3,4.4,6.2,4.4s5.3-1.8,6.2-4.4c3.7.5,6.6,3.3,7.3,6.9h-2.1Z"/>
  </g>
  <g>
    <polyline class="st0" points="25.1 19.3 30 17 35.1 19.4"/>
    <path class="st0" d="M28,13c0-1.1.9-2,2-2s2,.9,2,2-.9,2-2,2v2"/>
    <path class="st0" d="M35,19h0c-.3,2.5-2.4,4.5-5,4.5s-4.7-2-5-4.5h0c-5.2,0-9.4,3.9-10,8.9,0,.6.4,1.1,1,1.1h2.4c.6,0,1,.4,1,1v17c0,.6.4,1,1,1h19.1c.6,0,1-.4,1-1v-17c0-.6.4-1,1-1h2.4c.6,0,1.1-.5,1-1.1-.6-5-4.8-8.9-10-8.9h0Z"/>
  </g>
</svg>