<?xml version="1.0" encoding="UTF-8"?>
<svg id="Layer_1" xmlns="http://www.w3.org/2000/svg" version="1.1" viewBox="0 0 60 60">
  <!-- Generator: Adobe Illustrator 29.5.1, SVG Export Plug-In . SVG Version: 2.1.0 Build 141)  -->
  <defs>
    <style>
      .st0 {
        fill: #004682;
      }

      .st1 {
        fill: #fff;
      }
    </style>
  </defs>
  <path class="st1" d="M45.8,31.3c0-.7-.3-1.3-.9-1.7l-7.3-4.8c.3-1.1.3-2.1,0-3.2-.2-.8-.6-2-1.9-3.2h0c-.7-.6-1.3-.9-1.7-1.1,0-.6,0-1.3-.2-2.1-.4-2.2-1.7-3.3-2.6-4-1.3-1-2.5-1.1-3-1.1h-.2c-.7,0-1.4.5-1.7,1.2-.3.7-.2,1.4.2,2s.3.5.4,1c0,.6,0,1-.1,1.5-.2.4-.9,1.1-1.5,1.6-.3.3-.6.5-.8.8-1,1-2.1,2.2-2.9,3.9-.7,1.4-.9,2.6-.9,3.8,0,0-.3.1-.4.2l-5.1,3.5c-.5.4-.9,1-.9,1.7v5.2c0,.6.3,1.1.7,1.5l13.7,11.6c.4.3.8.5,1.3.5s.9-.2,1.3-.5l13.8-11.6c.5-.4.7-.9.7-1.5v-1.8c0-.3,0-.6-.2-.9.1-.3.2-.6.2-.9,0,0,0-1.6,0-1.6Z"/>
  <path class="st0" d="M29.5,36c-.3-.9-.4-1.2-.4-2.3,0-2.2,2.3-3.9,2.3-3.9,1.6-1.4,2.6-2.6,2.8-3.9.2-1.2-.3-2.7-.3-2.7.6.2.9.4,1.1.7.3.3.5.7.5.7.3-1,.3-1.8,0-2.6-.2-.8-.5-1.5-1.3-2.2-.9-.8-1.6-1-1.6-1,.2.4.3,1,.3,2.2-.1,1.2-.4,1.9-1.2,2.9-.7,1-2.3,2.2-3.1,3.5-.9,1.1-1.2,2.2-1.2,3.1,0,1.4.5,2.8.5,2.8-.5-.3-1.2-.9-1.6-1.6-.5-.9-.7-1.6-.7-3.1s.5-3.1,1.4-4.3c.7-.9,2.4-2.6,3.1-3.9.7-1.3.5-2,.5-2.6s-.3-1.3-.3-1.3c.4,0,.9.3,1,.5.3.3.5.5.5.5,0-.4.1-1.1,0-2-.3-1.4-.9-2.2-1.8-2.8-1-.8-1.8-.7-1.8-.7.4.5.7,1,.8,1.8s.1,1.6-.3,2.6c-.5,1.1-1.8,2.1-2.7,3.1s-1.8,2-2.5,3.3c-.8,1.6-.9,2.9-.6,4.5.3,1.9,1.4,3.1,1.4,3.1-.8-.3-1.4-.8-1.9-1.2-.5-.5-.7-1-.9-1.5l-5.1,3.5v5.2l13.7,11.6,13.8-11.6v-1.8l-13.7,11.5v-1.8l13.7-11.5v-1.6l-7.5-5c.1.5.3,1.8-.5,3.3-.9,1.9-3.1,3.5-3.9,3.9-.9.5-1.3,1-1.4,1.6,0,.3-.2.7,0,1.1h0c.9.2,1.6,1,1.6,2s-.9,2.1-2.1,2.1-2.1-.9-2.1-2.1.7-2,1.6-2.2h-.1Z"/>
</svg>