<?xml version="1.0" encoding="UTF-8"?>
<svg id="Layer_1" xmlns="http://www.w3.org/2000/svg" version="1.1" viewBox="0 0 60 60">
  <!-- Generator: Adobe Illustrator 29.5.1, SVG Export Plug-In . SVG Version: 2.1.0 Build 141)  -->
  <defs>
    <style>
      .st0 {
        fill: #fff;
      }
    </style>
  </defs>
  <path class="st0" d="M30,6c-13.2,0-24,10.8-24,24s10.8,24,24,24,24-10.8,24-24S43.2,6,30,6Z"/>
  <circle cx="30" cy="30" r="22"/>
  <circle class="st0" cx="30" cy="30" r="17.1"/>
  <polygon points="35.4 18 35.4 27.2 24.6 27.2 24.6 18 19 18 19 27.2 19 32.8 19 42 24.6 42 24.6 32.8 35.4 32.8 35.4 42 41 42 41 18 35.4 18"/>
  <circle cx="30" cy="30" r="22"/>
  <circle class="st0" cx="30" cy="30" r="17.1"/>
  <polygon points="35.4 18 35.4 27.2 24.6 27.2 24.6 18 19 18 19 27.2 19 32.8 19 42 24.6 42 24.6 32.8 35.4 32.8 35.4 42 41 42 41 18 35.4 18"/>
</svg>