<?xml version="1.0" encoding="UTF-8"?>
<svg id="Layer_1" xmlns="http://www.w3.org/2000/svg" version="1.1" viewBox="0 0 60 60">
  <!-- Generator: Adobe Illustrator 29.5.1, SVG Export Plug-In . SVG Version: 2.1.0 Build 141)  -->
  <defs>
    <style>
      .st0 {
        fill: none;
      }

      .st1 {
        fill: #fff;
      }

      .st2 {
        fill: red;
      }
    </style>
  </defs>
  <path class="st1" d="M30,6c-13.2,0-24,10.8-24,24s10.8,24,24,24,24-10.8,24-24S43.2,6,30,6Z"/>
  <g>
    <path class="st0" d="M35.4,13.8l-5.4,6.5-5.4-6.5c-6.8,2.3-11.7,8.7-11.7,16.2s4.9,14,11.7,16.2l5.4-6.5,5.4,6.5c6.8-2.3,11.7-8.7,11.7-16.2s-4.9-14-11.7-16.2Z"/>
    <path d="M35.4,13.8c-1.7-.6-3.5-.9-5.4-.9s-3.7.3-5.4.9l5.4,6.5,5.4-6.5Z"/>
    <path d="M24.6,46.2c1.7.6,3.5.9,5.4.9s3.7-.3,5.4-.9l-5.4-6.5-5.4,6.5Z"/>
    <path class="st2" d="M30,8c-12.1,0-22,9.9-22,22s9.9,22,22,22,22-9.9,22-22-9.8-22-22-22ZM35.4,46.2c-1.7.6-3.5.9-5.4.9s-3.7-.3-5.4-.9c-6.8-2.3-11.7-8.7-11.7-16.2s4.9-14,11.7-16.2c1.7-.6,3.5-.9,5.4-.9s3.7.3,5.4.9c6.8,2.3,11.7,8.7,11.7,16.2s-4.9,14-11.7,16.2Z"/>
  </g>
</svg>