<?xml version="1.0" encoding="UTF-8"?>
<svg id="Layer_1" xmlns="http://www.w3.org/2000/svg" version="1.1" viewBox="0 0 60 60">
  <!-- Generator: Adobe Illustrator 29.5.1, SVG Export Plug-In . SVG Version: 2.1.0 Build 141)  -->
  <defs>
    <style>
      .st0 {
        fill: #fff;
      }

      .st1 {
        fill: #bd5639;
      }
    </style>
  </defs>
  <path class="st0" d="M46.5,11.5H13.5c-1.1,0-2,.9-2,2v33c0,1.1.9,2,2,2h33c1.1,0,2-.9,2-2V13.5c0-1.1-.9-2-2-2Z"/>
  <path class="st1" d="M40.4,19.6v20.8h-20.8v-20.8h20.8M46.5,13.5H13.5v33h33V13.5h0Z"/>
  <rect class="st1" x="25.7" y="25.7" width="8.7" height="8.7"/>
  <path class="st1" d="M40.4,19.6v20.8h-20.8v-20.8h20.8M46.5,13.5H13.5v33h33V13.5h0Z"/>
  <rect class="st1" x="25.7" y="25.7" width="8.7" height="8.7"/>
</svg>