<?xml version="1.0" encoding="UTF-8"?>
<svg id="Layer_1" xmlns="http://www.w3.org/2000/svg" version="1.1" viewBox="0 0 60 60">
  <!-- Generator: Adobe Illustrator 29.5.1, SVG Export Plug-In . SVG Version: 2.1.0 Build 141)  -->
  <defs>
    <style>
      .st0 {
        fill: none;
      }

      .st1 {
        fill: #fff;
      }

      .st2 {
        fill: #00af6b;
      }
    </style>
  </defs>
  <path class="st1" d="M30,7.6c-12.4,0-22.4,10-22.4,22.4s10,22.4,22.4,22.4,22.4-10,22.4-22.4S42.4,7.6,30,7.6Z"/>
  <g>
    <circle cx="30" cy="30" r="3.6"/>
    <path class="st2" d="M30,42c-6.6,0-12-5.4-12-12s5.4-12,12-12,12,5.4,12,12-5.4,12-12,12ZM30,22.8c-4,0-7.2,3.2-7.2,7.2s3.2,7.2,7.2,7.2,7.2-3.2,7.2-7.2-3.2-7.2-7.2-7.2Z"/>
    <path class="st2" d="M30,50.4c-11.2,0-20.4-9.2-20.4-20.4S18.8,9.6,30,9.6s20.4,9.2,20.4,20.4-9.2,20.4-20.4,20.4ZM30,14.4c-8.6,0-15.6,7-15.6,15.6s7,15.6,15.6,15.6,15.6-7,15.6-15.6-7-15.6-15.6-15.6Z"/>
  </g>
  <g>
    <circle cx="30" cy="30" r="3.6"/>
    <circle class="st0" cx="30" cy="30" r="9.6"/>
    <circle class="st0" cx="30" cy="30" r="18"/>
  </g>
</svg>