<?xml version="1.0" encoding="UTF-8"?>
<svg id="Layer_1" xmlns="http://www.w3.org/2000/svg" version="1.1" viewBox="0 0 60 60">
  <!-- Generator: Adobe Illustrator 29.5.1, SVG Export Plug-In . SVG Version: 2.1.0 Build 141)  -->
  <defs>
    <style>
      .st0 {
        fill: #fff;
      }

      .st1 {
        fill: #91562b;
      }
    </style>
  </defs>
  <path class="st0" d="M52,24.9h-8.1c-1.1,0-2,.9-2,2v1.1h-1.8l-1.7-6.7h4.2c1.1,0,2-.9,2-2v-3c0-1.1-.9-2-2-2h-24.6c-1.1,0-2,.9-2,2v3c0,1.1.9,2,2,2h3.6l-1.7,6.7h-1.8v-1.1c0-1.1-.9-2-2-2h-8.1c-1.1,0-2,.9-2,2v1.7c0,1.1.9,2,2,2h1.5v2.4c0,1.1.9,2,2,2h6.6l-2.1,8.2c-.2.6,0,1.2.4,1.7s1,.8,1.6.8h3c.9,0,1.7-.6,1.9-1.5l2.4-9.2h9.5l2.4,9.2c.2.9,1,1.5,1.9,1.5h3c.6,0,1.2-.3,1.6-.8.4-.5.5-1.1.4-1.7l-2.1-8.2h6.6c1.1,0,2-.9,2-2v-2.4h1.5c1.1,0,2-.9,2-2v-1.7c0-1.1-.9-2-2-2h0Z"/>
  <path class="st1" d="M52,26.9h-8.1v1.7h3.5v1.4h-8.8l-2.8-10.7h6.8v-3h-24.6v3h6.2l-2.8,10.7h-8.7v-1.4h3.5v-1.7h-8.2v1.7h3.5v4.4h9.2l-2.8,10.7h3l2.8-10.7h12.6l2.8,10.7h3l-2.8-10.7h9.2v-4.4h3.5v-1.7h0ZM24.4,30l2.8-10.7h5.5l2.8,10.7s-11.1,0-11.1,0Z"/>
  <path class="st1" d="M52,26.9h-8.1v1.7h3.5v1.4h-8.8l-2.8-10.7h6.8v-3h-24.6v3h6.2l-2.8,10.7h-8.7v-1.4h3.5v-1.7h-8.2v1.7h3.5v4.4h9.2l-2.8,10.7h3l2.8-10.7h12.6l2.8,10.7h3l-2.8-10.7h9.2v-4.4h3.5v-1.7h0ZM24.4,30l2.8-10.7h5.5l2.8,10.7s-11.1,0-11.1,0Z"/>
</svg>