<?xml version="1.0" encoding="UTF-8"?>
<svg id="Layer_1" xmlns="http://www.w3.org/2000/svg" version="1.1" viewBox="0 0 60 60">
  <!-- Generator: Adobe Illustrator 29.5.1, SVG Export Plug-In . SVG Version: 2.1.0 Build 141)  -->
  <defs>
    <style>
      .st0 {
        fill: none;
      }

      .st1 {
        fill: #fff;
      }

      .st2 {
        fill: red;
      }
    </style>
  </defs>
  <path class="st1" d="M48.5,26l-19.3-10.1h-.3c-1.1-.5-2.2-.7-3.4-.7h0c-.6,0-1.1,0-1.6.1l-14.2,1.6h-.9s-.2,0-.3.1h-.2s-.2.1-.2.2h-.1q0,0-.1.2h0c0,0-.1.3-.2.3,0,0-.1.2-.1.3h0v1h0c0,.2,0,0,0,0v22c0,1.7,1.3,3,3,3s3-1.3,3-3v-14.6l4.5,4.6c1.2,1.5,2.7,2.6,4.6,3.2h.3l21.5,4.2c.7.2,1.4.3,2.1.3,3,0,5.7-1.9,6.7-4.7,1.2-3.6-.6-7.5-4.1-8.9l-.7.8Z"/>
  <g>
    <path class="st0" d="M17.7,22.7c.4-1.1,1-2,1.7-2.9l-7.2.8,5.1,5.2c0-1,0-2.1.4-3.1Z"/>
    <path class="st2" d="M23.3,24.7c.9-2.5,3.1-4.1,5.5-4.4l-1.5-.8c-1.5-.5-3.2-.4-4.7.3-1.5.7-2.6,2-3.2,3.5-1.1,3.2.6,6.7,3.7,7.9l1.7.3c-1.8-1.7-2.5-4.4-1.6-6.9h0Z"/>
    <path class="st1" d="M28,26.3c.8-2.2,2.7-3.6,4.8-3.9l-4-2.1c-2.5.2-4.7,1.9-5.5,4.4-.9,2.5-.1,5.1,1.6,6.9l4.4.9c-1.5-1.6-2.1-3.9-1.4-6.1h.1Z"/>
    <path class="st2" d="M32.7,27.9c.7-1.9,2.3-3.2,4.2-3.5l-4-2.1c-2.2.3-4.1,1.7-4.8,3.9-.8,2.2-.2,4.5,1.4,6.1l4.4.9c-1.3-1.4-1.7-3.4-1.1-5.3h-.1Z"/>
    <path class="st1" d="M37.4,29.6c.6-1.6,1.9-2.7,3.5-3l-4-2.1c-1.9.3-3.5,1.6-4.2,3.5s-.2,3.9,1.1,5.3l4.5.9c-1-1.2-1.4-2.9-.9-4.6Z"/>
    <path class="st2" d="M42.1,31.2c.5-1.3,1.5-2.3,2.8-2.6l-4-2.1c-1.6.3-2.9,1.4-3.5,3s-.2,3.3.9,4.6l4.4.9c-.8-1-1.1-2.5-.6-3.8Z"/>
    <path class="st1" d="M47,29.7h0l-1.9-1c-1.3.3-2.3,1.3-2.8,2.6-.5,1.3-.2,2.7.6,3.8l2.2.4c1.6.6,3.3-.3,3.9-1.9.6-1.6-.3-3.3-1.9-3.9Z"/>
    <path d="M47.7,27.8l-19.5-10.1h-.1c-1.4-.5-2.8-.6-4.2-.4l-14,1.6h-.2s0,0-.2,0h0s0,0,0,.2h0v.3h0v22.1c0,.6.4,1,1,1s1-.4,1-1v-19.3l8,8.2c.9,1.2,2.2,2.1,3.7,2.7l21.6,4.2c.5.2,1.1.3,1.6.3,2.1,0,4-1.3,4.8-3.4.9-2.6-.4-5.5-3-6.4h-.4ZM44.9,35.4l-2.2-.4-4.4-.9-4.5-.9-4.4-.9-4.4-.9-1.7-.3c-3.2-1.1-4.9-4.7-3.7-7.9.5-1.6,1.7-2.8,3.2-3.5,1.5-.7,3.1-.8,4.7-.3l1.5.8,4,2.1,4,2.1,4,2.1,4,2.1,1.9,1h0c1.6.6,2.4,2.4,1.9,3.9-.6,1.6-2.3,2.4-3.9,1.9h0ZM12.2,20.6l7.2-.8c-.8.8-1.3,1.8-1.7,2.9-.4,1-.5,2.1-.4,3.1,0,0-5.1-5.2-5.1-5.2Z"/>
  </g>
</svg>