<?xml version="1.0" encoding="UTF-8"?>
<svg id="Layer_1" xmlns="http://www.w3.org/2000/svg" version="1.1" viewBox="0 0 60 60">
  <!-- Generator: Adobe Illustrator 29.5.1, SVG Export Plug-In . SVG Version: 2.1.0 Build 141)  -->
  <defs>
    <style>
      .st0 {
        fill: none;
      }

      .st1 {
        fill: #0056a4;
      }

      .st2 {
        fill: #fff;
      }
    </style>
  </defs>
  <path class="st2" d="M48.7,23.1l-13.3-7.4h.6c1.1,0,2-.9,2-2v-3c0-1.1-.9-2-2-2h-7.5c-1.1,0-2,.9-2,2v3.9l-15.2,8.5c-1.7,1-2.8,2.8-2.8,4.8v17.8c0,3,2.5,5.5,5.5,5.5h32c3,0,5.5-2.5,5.5-5.5v-17.8c0-2-1.1-3.8-2.8-4.8Z"/>
  <g>
    <path class="st0" d="M34,37.3h-8c-.3,0-.5.2-.5.5v8.5h9v-8.5c0-.3-.2-.5-.5-.5Z"/>
    <path class="st0" d="M18.1,28c.4.2.6.3,1.1.3s.7,0,1.1-.3c.5-.3,1.2-.7,2.5-.7s2,.4,2.5.7c.4.2.6.3,1.1.3s.7,0,1.1-.3c.5-.3,1.2-.7,2.5-.7s2,.4,2.5.7c.4.2.6.3,1.1.3s.7,0,1.1-.3c.5-.3,1.2-.7,2.5-.7s2,.4,2.5.7c.4.2.6.3,1.1.3s.7,0,1.1-.3c.5-.3,1.2-.7,2.5-.7s1.6.2,2,.4c0,0,0-.1-.2-.2l-16.2-9-16.2,9-.2.2c.5-.2,1.1-.4,2-.4s2,.4,2.5.7Z"/>
    <path class="st0" d="M45.5,30.5c-.4-.2-.6-.3-1.1-.3s-.7,0-1.1.3c-.5.3-1.2.7-2.5.7s-2-.4-2.5-.7c-.4-.2-.6-.3-1.1-.3s-.7,0-1.1.3c-.5.3-1.2.7-2.5.7s-2-.4-2.5-.7c-.4-.2-.6-.3-1.1-.3s-.7,0-1.1.3c-.5.3-1.2.7-2.5.7s-2-.4-2.5-.7c-.4-.2-.6-.3-1.1-.3s-.7,0-1.1.3c-.5.3-1.2.7-2.5.7s-2-.4-2.5-.7c-.4-.2-.6-.3-1.1-.3s-.7,0-1.1.3c-.3.2-.6.3-1,.5v14.7c0,.3.2.5.5.5h8.5v-8.5c0-1.9,1.6-3.5,3.5-3.5h8c1.9,0,3.5,1.6,3.5,3.5v8.5h8.5c.3,0,.5-.2.5-.5v-14.7c-.4-.1-.8-.3-1-.5Z"/>
    <path class="st1" d="M47.7,24.9l-16.2-9v-2.1h4.5v-3h-7.5v5.1l-16.2,9c-1.1.6-1.8,1.8-1.8,3.1v17.8c0,1.9,1.6,3.5,3.5,3.5h32c1.9,0,3.5-1.6,3.5-3.5v-17.8c0-1.3-.7-2.4-1.8-3.1ZM13.8,27.5l16.2-9,16.2,9s0,.1.2.2c-.5-.2-1.1-.4-2-.4s-2,.4-2.5.7c-.4.2-.6.3-1.1.3s-.7,0-1.1-.3c-.5-.3-1.2-.7-2.5-.7s-2,.4-2.5.7c-.4.2-.6.3-1.1.3s-.7,0-1.1-.3c-.5-.3-1.2-.7-2.5-.7s-2,.4-2.5.7c-.4.2-.6.3-1.1.3s-.7,0-1.1-.3c-.5-.3-1.2-.7-2.5-.7s-2,.4-2.5.7c-.4.2-.6.3-1.1.3s-.7,0-1.1-.3c-.5-.3-1.2-.7-2.5-.7s-1.6.2-2,.4l.2-.2ZM25.5,46.3v-8.5c0-.3.2-.5.5-.5h8c.3,0,.5.2.5.5v8.5h-9ZM46,46.3h-8.5v-8.5c0-1.9-1.6-3.5-3.5-3.5h-8c-1.9,0-3.5,1.6-3.5,3.5v8.5h-8.5c-.3,0-.5-.2-.5-.5v-14.7c.4-.1.8-.3,1-.5.4-.2.6-.3,1.1-.3s.7,0,1.1.3c.5.3,1.2.7,2.5.7s2-.4,2.5-.7c.4-.2.6-.3,1.1-.3s.7,0,1.1.3c.5.3,1.2.7,2.5.7s2-.4,2.5-.7c.4-.2.6-.3,1.1-.3s.7,0,1.1.3c.5.3,1.2.7,2.5.7s2-.4,2.5-.7c.4-.2.6-.3,1.1-.3s.7,0,1.1.3c.5.3,1.2.7,2.5.7s2-.4,2.5-.7c.4-.2.6-.3,1.1-.3s.7,0,1.1.3c.3.2.6.3,1,.5v14.7c0,.3-.2.5-.5.5Z"/>
  </g>
  <g>
    <path class="st0" d="M48,29.8v16c0,1.1-.9,2-2,2H14c-1.1,0-2-.9-2-2v-16"/>
    <path class="st0" d="M48,29.8c-1.8,0-1.8-1-3.6-1s-1.8,1-3.6,1-1.8-1-3.6-1-1.8,1-3.6,1-1.8-1-3.6-1-1.8,1-3.6,1-1.8-1-3.6-1-1.8,1-3.6,1-1.8-1-3.6-1-1.8,1-3.6,1v-1.8c0-.7.4-1.4,1-1.7l17-9.4,17,9.4c.6.4,1,1,1,1.7v1.8Z"/>
    <path class="st0" d="M36,47.8h-12v-10c0-1.1.9-2,2-2h8c1.1,0,2,.9,2,2v10Z"/>
    <line class="st0" x1="30" y1="16.8" x2="30" y2="10.8"/>
  </g>
</svg>