<?xml version="1.0" encoding="UTF-8"?>
<svg id="Layer_1" xmlns="http://www.w3.org/2000/svg" version="1.1" viewBox="0 0 60 60">
  <!-- Generator: Adobe Illustrator 29.5.1, SVG Export Plug-In . SVG Version: 2.1.0 Build 141)  -->
  <defs>
    <style>
      .st0 {
        fill: #607c33;
      }

      .st1 {
        fill: #fff;
      }
    </style>
  </defs>
  <path class="st1" d="M30,14c-14,0-25,7-25,16s11,16,25,16,25-7,25-16-11-16-25-16Z"/>
  <g>
    <path class="st0" d="M30,19c-10.8,0-20,5-20,11s9.2,11,20,11,20-5,20-11-9.2-11-20-11Z"/>
    <path d="M30,16c-12.7,0-23,6.3-23,14s10.3,14,23,14,23-6.3,23-14-10.3-14-23-14ZM30,41c-10.8,0-20-5-20-11s9.2-11,20-11,20,5,20,11-9.2,11-20,11Z"/>
  </g>
</svg>