<?xml version="1.0" encoding="UTF-8" standalone="no"?>
<svg
   id="Layer_1"
   version="1.1"
   viewBox="0 0 62 62"
   sodipodi:docname="poi009_b.svg"
   width="62"
   height="62"
   inkscape:version="1.3.2 (091e20e, 2023-11-25, custom)"
   xmlns:inkscape="http://www.inkscape.org/namespaces/inkscape"
   xmlns:sodipodi="http://sodipodi.sourceforge.net/DTD/sodipodi-0.dtd"
   xmlns="http://www.w3.org/2000/svg"
   xmlns:svg="http://www.w3.org/2000/svg">
  <sodipodi:namedview
     id="namedview3"
     pagecolor="#ffffff"
     bordercolor="#000000"
     borderopacity="0.25"
     inkscape:showpageshadow="2"
     inkscape:pageopacity="0.0"
     inkscape:pagecheckerboard="0"
     inkscape:deskcolor="#d1d1d1"
     inkscape:zoom="29.33871"
     inkscape:cx="30.982958"
     inkscape:cy="31"
     inkscape:window-width="3840"
     inkscape:window-height="2054"
     inkscape:window-x="2869"
     inkscape:window-y="-11"
     inkscape:window-maximized="1"
     inkscape:current-layer="Layer_1" />
  <!-- Generator: Adobe Illustrator 29.3.1, SVG Export Plug-In . SVG Version: 2.1.0 Build 151)  -->
  <defs
     id="defs1">
    <style
       id="style1">
      .st0 {
        fill: none;
        stroke: #e4151c;
        stroke-linecap: square;
        stroke-miterlimit: 10;
        stroke-width: 1.6px;
      }

      .st1 {
        fill: #e4151c;
      }
    </style>
  </defs>
  <path
     d="M 13,3 H 49.1 L 58.6,37.4 31,58.3 3.4,37.3 13,3 M 10.7,0 0,38.5 31,62 62,38.5 51.3,0 Z"
     id="path1" />
  <g
     id="g2">
    <polygon
       class="st1"
       points="5.7,37.3 20.4,37.3 20.4,22.6 14.7,22.6 "
       id="polygon1" />
    <polygon
       class="st1"
       points="56.3,37.3 41.6,37.3 41.6,22.6 47.3,22.6 "
       id="polygon2" />
  </g>
  <rect
     class="st1"
     x="-1.6203347"
     y="30.40943"
     width="21.200001"
     height="4.1999998"
     transform="rotate(-45.2)"
     id="rect2" />
  <g
     id="g3">
    <path
       class="st0"
       d="m 20.4,33.6 c 1.8,0 1.8,-1 3.5,-1 1.7,0 1.8,1 3.5,1 1.7,0 1.8,-1 3.5,-1 1.7,0 1.8,1 3.5,1 1.7,0 1.8,-1 3.5,-1 1.7,0 1.8,1 3.5,1"
       id="path2" />
    <path
       class="st0"
       d="m 20.4,36.5 c 1.8,0 1.8,-1 3.5,-1 1.7,0 1.8,1 3.5,1 1.7,0 1.8,-1 3.5,-1 1.7,0 1.8,1 3.5,1 1.7,0 1.8,-1 3.5,-1 1.7,0 1.8,1 3.5,1"
       id="path3" />
  </g>
</svg>
