<?xml version="1.0" encoding="UTF-8" standalone="no"?>
<svg
   id="Layer_1"
   version="1.1"
   viewBox="0 0 62 62"
   sodipodi:docname="poi034_b.svg"
   width="62"
   height="62"
   inkscape:version="1.3.2 (091e20e, 2023-11-25, custom)"
   xmlns:inkscape="http://www.inkscape.org/namespaces/inkscape"
   xmlns:sodipodi="http://sodipodi.sourceforge.net/DTD/sodipodi-0.dtd"
   xmlns="http://www.w3.org/2000/svg"
   xmlns:svg="http://www.w3.org/2000/svg">
  <sodipodi:namedview
     id="namedview9"
     pagecolor="#ffffff"
     bordercolor="#000000"
     borderopacity="0.25"
     inkscape:showpageshadow="2"
     inkscape:pageopacity="0.0"
     inkscape:pagecheckerboard="0"
     inkscape:deskcolor="#d1d1d1"
     inkscape:zoom="29.33871"
     inkscape:cx="30.982958"
     inkscape:cy="31"
     inkscape:window-width="3840"
     inkscape:window-height="2054"
     inkscape:window-x="2869"
     inkscape:window-y="-11"
     inkscape:window-maximized="1"
     inkscape:current-layer="Layer_1" />
  <!-- Generator: Adobe Illustrator 29.3.1, SVG Export Plug-In . SVG Version: 2.1.0 Build 151)  -->
  <defs
     id="defs1">
    <style
       id="style1">
      .st0 {
        fill: #e4151c;
      }

      .st1, .st2 {
        fill: #fff;
      }

      .st2 {
        stroke: #e4151c;
        stroke-miterlimit: 10;
        stroke-width: 2px;
      }
    </style>
  </defs>
  <path
     d="M 13,3 H 49.1 L 58.6,37.4 31,58.3 3.4,37.3 13,3 M 10.7,0 0,38.5 31,62 62,38.5 51.3,0 Z"
     id="path1" />
  <path
     d="m 40.5,39.5 c 0,0 0,0 0,0 l 2,-2.4 c 0,0 0.2,-0.2 0.2,-0.4 V 22.2 c 3.3,-1.5 4.7,-5.3 3.3,-8.6 -1.5,-3.3 -5.3,-4.8 -8.6,-3.3 -3.3,1.5 -4.7,5.3 -3.3,8.6 0.8,1.7 2.2,3 4,3.6 v 0.8 c 0,0 -1.6,0.4 -1.6,0.4 v 0.7 l 1.1,0.8 c 0,0 0,0 0,0.1 0,0 0,0 0,0 L 36.5,26 c 0,0 0,0 0,0.1 0,0 0,0 0,0 l 1.1,0.6 c 0,0 0,0 0,0.1 0,0 0,0 0,0 l -1.1,0.7 c 0,0 0,0 0,0.1 0,0 0,0 0,0 l 1.1,0.7 c 0,0 0,0 0,0.1 0,0 0,0 0,0 l -1,1 c 0,0 0,0 0,0.1 0,0 0,0 0,0 l 1.7,1.6 v 1.1 l -1.2,1 c 0,0 0,0.2 0,0.2 0,0 0,0 0,0 l 0.5,0.9 c 0,0 0,0.1 0,0.2 l -1,1 c 0,0.1 0,0.3 0,0.4 0,0 0,0 0,0 l 3.4,3.2 c 0.1,0.1 0.4,0.2 0.5,0 z M 38.6,14 c 0,-0.8 0.6,-1.4 1.4,-1.4 0.8,0 1.4,0.6 1.4,1.4 0,0.8 -0.6,1.4 -1.4,1.4 -0.8,0 -1.4,-0.6 -1.4,-1.4 z"
     id="path2" />
  <g
     id="g9">
    <ellipse
       class="st2"
       cx="27.4"
       cy="44.599998"
       rx="9.8000002"
       ry="2.7"
       id="ellipse2" />
    <g
       id="g8">
      <rect
         class="st1"
         x="23.299999"
         y="11.3"
         width="8.3000002"
         height="5.5"
         id="rect2" />
      <rect
         class="st0"
         x="23.299999"
         y="16.799999"
         width="8.3000002"
         height="5.5"
         id="rect3" />
      <rect
         class="st0"
         x="23.299999"
         y="5.9000001"
         width="8.3000002"
         height="5.5"
         id="rect4" />
      <rect
         class="st1"
         x="23.299999"
         y="22.299999"
         width="8.3000002"
         height="5.5"
         id="rect5" />
      <rect
         class="st0"
         x="23.299999"
         y="27.799999"
         width="8.3000002"
         height="5.5"
         id="rect6" />
      <rect
         class="st1"
         x="23.299999"
         y="33.200001"
         width="8.3000002"
         height="5.5"
         id="rect7" />
      <rect
         class="st0"
         x="23.299999"
         y="38.700001"
         width="8.3000002"
         height="5.5"
         id="rect8" />
    </g>
    <ellipse
       class="st0"
       cx="27.4"
       cy="5.9000001"
       rx="4.0999999"
       ry="1.4"
       id="ellipse8" />
    <ellipse
       class="st0"
       cx="27.4"
       cy="44.200001"
       rx="4.0999999"
       ry="1.4"
       id="ellipse9" />
  </g>
</svg>
