<?xml version="1.0" encoding="UTF-8" standalone="no"?>
<svg
   id="Layer_1"
   version="1.1"
   viewBox="0 0 62 62"
   sodipodi:docname="poi048_b.svg"
   width="62"
   height="62"
   inkscape:version="1.3.2 (091e20e, 2023-11-25, custom)"
   xmlns:inkscape="http://www.inkscape.org/namespaces/inkscape"
   xmlns:sodipodi="http://sodipodi.sourceforge.net/DTD/sodipodi-0.dtd"
   xmlns="http://www.w3.org/2000/svg"
   xmlns:svg="http://www.w3.org/2000/svg">
  <sodipodi:namedview
     id="namedview9"
     pagecolor="#ffffff"
     bordercolor="#000000"
     borderopacity="0.25"
     inkscape:showpageshadow="2"
     inkscape:pageopacity="0.0"
     inkscape:pagecheckerboard="0"
     inkscape:deskcolor="#d1d1d1"
     inkscape:zoom="29.33871"
     inkscape:cx="30.982958"
     inkscape:cy="31"
     inkscape:window-width="3840"
     inkscape:window-height="2054"
     inkscape:window-x="2869"
     inkscape:window-y="-11"
     inkscape:window-maximized="1"
     inkscape:current-layer="Layer_1" />
  <!-- Generator: Adobe Illustrator 29.3.1, SVG Export Plug-In . SVG Version: 2.1.0 Build 151)  -->
  <defs
     id="defs1">
    <style
       id="style1">
      .st0 {
        fill: none;
        stroke: #000;
        stroke-linecap: round;
        stroke-miterlimit: 10;
        stroke-width: 2px;
      }

      .st1 {
        fill: #fff;
      }

      .st2 {
        fill: red;
      }
    </style>
  </defs>
  <path
     d="M 13,3 H 49.1 L 58.6,37.4 31,58.3 3.4,37.3 13,3 M 10.7,0 0,38.5 31,62 62,38.5 51.3,0 Z"
     id="path1" />
  <g
     id="g9">
    <line
       class="st0"
       x1="12"
       y1="16.9"
       x2="12"
       y2="38.900002"
       id="line1" />
    <line
       class="st0"
       x1="12"
       y1="16.9"
       x2="22.4"
       y2="27.5"
       id="line2" />
    <line
       class="st0"
       x1="12"
       y1="16.9"
       x2="27.1"
       y2="15.3"
       id="line3" />
    <g
       id="g8">
      <circle
         class="st2"
         cx="27.4"
         cy="22.5"
         r="7.1999998"
         id="circle3" />
      <circle
         class="st1"
         cx="31.5"
         cy="23.9"
         r="6.5999999"
         id="circle4" />
      <circle
         class="st2"
         cx="35.599998"
         cy="25.299999"
         r="5.9000001"
         id="circle5" />
      <circle
         class="st1"
         cx="39.700001"
         cy="26.799999"
         r="5.3000002"
         id="circle6" />
      <circle
         class="st2"
         cx="43.799999"
         cy="28.200001"
         r="4.6999998"
         id="circle7" />
      <circle
         class="st1"
         cx="47.900002"
         cy="29.6"
         r="4.0999999"
         id="circle8" />
      <path
         class="st0"
         d="M 25,29.2 C 21.3,27.9 19.3,23.8 20.6,20 21.9,16.3 26,14.3 29.8,15.6 l 19.5,10.1 c 2.1,0.7 3.2,3 2.5,5.2 -0.7,2.1 -3,3.2 -5.2,2.5 z"
         id="path8" />
    </g>
  </g>
</svg>
