<?xml version="1.0" encoding="UTF-8" standalone="no"?>
<svg
   id="Layer_1"
   version="1.1"
   viewBox="0 0 62 62"
   sodipodi:docname="poi040_b.svg"
   width="62"
   height="62"
   inkscape:version="1.3.2 (091e20e, 2023-11-25, custom)"
   xmlns:inkscape="http://www.inkscape.org/namespaces/inkscape"
   xmlns:sodipodi="http://sodipodi.sourceforge.net/DTD/sodipodi-0.dtd"
   xmlns="http://www.w3.org/2000/svg"
   xmlns:svg="http://www.w3.org/2000/svg">
  <sodipodi:namedview
     id="namedview3"
     pagecolor="#ffffff"
     bordercolor="#000000"
     borderopacity="0.25"
     inkscape:showpageshadow="2"
     inkscape:pageopacity="0.0"
     inkscape:pagecheckerboard="0"
     inkscape:deskcolor="#d1d1d1"
     inkscape:zoom="29.33871"
     inkscape:cx="30.982958"
     inkscape:cy="31"
     inkscape:window-width="3840"
     inkscape:window-height="2054"
     inkscape:window-x="2869"
     inkscape:window-y="-11"
     inkscape:window-maximized="1"
     inkscape:current-layer="Layer_1" />
  <!-- Generator: Adobe Illustrator 29.3.1, SVG Export Plug-In . SVG Version: 2.1.0 Build 151)  -->
  <defs
     id="defs1">
    <style
       id="style1">
      .st0 {
        fill: none;
        stroke: #000;
        stroke-linecap: round;
        stroke-miterlimit: 10;
        stroke-width: 2px;
      }
    </style>
  </defs>
  <path
     d="M 13,3 H 49.1 L 58.6,37.4 31,58.3 3.4,37.3 13,3 M 10.7,0 0,38.5 31,62 62,38.5 51.3,0 Z"
     id="path1" />
  <path
     d="m 32,11.5 3.4,1.4 c 0.3,0 0.6,0 0.7,-0.4 0,-0.2 0,-0.3 0,-0.5 L 31.7,5.5 C 31.5,5.2 31.1,5.1 30.8,5.3 c 0,0 -0.1,0 -0.2,0.2 L 26.1,12 c -0.2,0.3 -0.1,0.6 0.1,0.8 0.1,0 0.3,0.1 0.5,0 v 0 l 3.4,-1.4 H 32 Z"
     id="path2" />
  <path
     class="st0"
     d="m 31,49.7 c 0,-0.8 0,-1.9 -0.7,-3 -0.7,-1.2 -1.7,-1.6 -3.1,-2.6 -1.8,-1.3 -3.9,-2.7 -3.9,-4.3 -0.1,-2.3 4.2,-5 8.3,-5.2 3.1,-0.2 6.6,1 6.6,2.1 0,1.2 -3.5,2.5 -6.5,2.5 -0.8,0 -4.9,0 -7.5,-3.2 -0.6,-0.7 -1.8,-2.2 -1.7,-4.1 0.2,-3.7 5.1,-6.4 9.1,-6.8 4.1,-0.5 8.7,1.3 8.7,2.7 0,1.4 -4.7,2.6 -8.9,2.5 -1.7,0 -9.6,-0.8 -9.6,-6.8 0,-6 3.6,-4.2 6.7,-5.4 3.3,-1.3 2.6,-6.2 2.5,-8.8"
     id="path3" />
</svg>
