<?xml version="1.0" encoding="UTF-8" standalone="no"?>
<svg
   id="Layer_1"
   version="1.1"
   viewBox="0 0 62 62"
   sodipodi:docname="poi021_b.svg"
   width="62"
   height="62"
   inkscape:version="1.3.2 (091e20e, 2023-11-25, custom)"
   xmlns:inkscape="http://www.inkscape.org/namespaces/inkscape"
   xmlns:sodipodi="http://sodipodi.sourceforge.net/DTD/sodipodi-0.dtd"
   xmlns="http://www.w3.org/2000/svg"
   xmlns:svg="http://www.w3.org/2000/svg">
  <sodipodi:namedview
     id="namedview3"
     pagecolor="#ffffff"
     bordercolor="#000000"
     borderopacity="0.25"
     inkscape:showpageshadow="2"
     inkscape:pageopacity="0.0"
     inkscape:pagecheckerboard="0"
     inkscape:deskcolor="#d1d1d1"
     inkscape:zoom="29.33871"
     inkscape:cx="30.982958"
     inkscape:cy="31"
     inkscape:window-width="3840"
     inkscape:window-height="2054"
     inkscape:window-x="2869"
     inkscape:window-y="-11"
     inkscape:window-maximized="1"
     inkscape:current-layer="Layer_1" />
  <!-- Generator: Adobe Illustrator 29.3.1, SVG Export Plug-In . SVG Version: 2.1.0 Build 151)  -->
  <defs
     id="defs1">
    <style
       id="style1">
      .st0 {
        fill: #ff0;
      }
    </style>
  </defs>
  <path
     d="M 13,3 H 49.1 L 58.6,37.4 31,58.3 3.4,37.3 13,3 M 10.7,0 0,38.5 31,62 62,38.5 51.3,0 Z"
     id="path1" />
  <path
     d="m 16.1,33.3 c -0.2,0 -0.4,0 -0.5,0 -0.4,0 -0.5,-0.2 -0.6,-0.6 0,-0.6 0,-1.2 0,-1.8 0,-0.4 0.2,-0.6 0.6,-0.6 0.1,0 0.3,0 0.5,0 v -0.4 c 0,-3.4 0,-6.8 0,-10.2 0,-0.2 0,-0.4 -0.2,-0.5 -0.6,-0.5 -0.9,-1.2 -0.9,-2 0,-0.9 0,-1.7 0,-2.6 0,-0.2 0,-0.5 0.2,-0.6 0.8,-1.2 1.7,-2.3 2.5,-3.5 0.2,-0.3 0.4,-0.4 0.7,-0.4 8.1,0 16.7,0 24.9,0 0.3,0 0.6,0.1 0.8,0.4 0.8,1.1 1.5,2.1 2.3,3.2 0,0 0.1,0.2 0.2,0.2 0.5,0.2 0.4,0.6 0.4,1 0,0.7 0,1.5 0,2.2 0,0.7 -0.4,1.7 -1.1,2.3 0,0 -0.2,0.2 -0.2,0.3 0,3.5 0,6.9 0,10.4 0,3.5 0,0 0,0.2 0.1,0 0.3,0 0.4,0 0.4,0 0.6,0.2 0.6,0.6 0,0.6 0,1.1 0,1.7 0,0.5 -0.2,0.7 -0.7,0.7 -0.1,0 -0.2,0 -0.4,0 v 8 c 0,0.6 -0.2,0.8 -0.8,0.8 h -28 c -0.6,0 -0.8,-0.2 -0.8,-0.8 0,-2.5 0,-5 0,-7.5 0,-0.1 0,-0.3 0,-0.4 z M 37.3,18.9 c -1.4,1.4 -2.7,1.4 -4.4,0 -0.6,0.7 -1.3,1.1 -2.2,1.1 -0.9,0 -1.6,-0.4 -2.2,-1.1 -0.6,0.7 -1.3,1.1 -2.2,1.1 -0.9,0 -1.6,-0.4 -2.2,-1.1 -1.1,1.3 -2.9,1.6 -4.3,0 -0.4,0.3 -0.5,0.6 -0.5,1.1 0,3.3 0,6.6 0,9.9 v 0.4 h 23.1 v -0.4 c 0,-3.4 0,-6.9 0,-10.3 0,-0.3 -0.1,-0.5 -0.4,-0.7 -1.1,1.3 -3.5,1.5 -4.8,0 z m 7.3,14.4 c -0.1,0 -0.2,0 -0.3,0 -8.8,0 -18,0 -26.8,0 -0.3,0 -0.4,0 -0.4,0.4 0,2.3 0,4.7 0,7 0,0 0,0.2 0,0.3 h 27.4 v -7.7 z m 0.6,-19.4 c 0,0 0,-0.1 0,-0.1 -0.6,-0.8 -1.2,-1.7 -1.8,-2.5 0,0 -0.2,-0.1 -0.4,-0.1 -7.9,0 -16.3,0 -24.1,0 -0.1,0 -0.3,0 -0.4,0.2 -0.6,0.8 -1.1,1.5 -1.7,2.3 0,0 0,0.1 -0.1,0.2 9.4,0 19.2,0 28.6,0 z m -1.7,6 v 10.4 h 1.1 V 20 c -0.4,0 -0.7,0 -1.1,0 z m -26.3,0 v 10.4 h 1.1 V 19.9 Z M 33.5,15 c 0,0 0,0 0,0.1 0,0.7 0,1.4 0,2.2 0,0.8 0.7,1.5 1.5,1.6 0.8,0 1.6,-0.5 1.7,-1.3 0,-0.7 0,-1.4 0,-2.2 0,-0.1 0,-0.3 0,-0.4 -1.1,0 -2.2,0 -3.2,0 z m -8.7,0 c 0,0.8 0,1.6 0,2.3 0,0.8 0.7,1.4 1.5,1.5 0.8,0 1.6,-0.5 1.7,-1.2 0,-0.9 0,-1.8 0,-2.7 -1,0 -2.1,0 -3.2,0 z m 17.8,0 c 0,0.8 0,1.5 0,2.2 0,0.9 0.6,1.6 1.5,1.6 0.8,0 1.6,-0.5 1.7,-1.4 0,-0.8 0,-1.7 0,-2.5 h -3.2 z m -23.3,0 h -3.2 c 0,0.8 0,1.5 0,2.2 0,0.9 0.7,1.5 1.6,1.6 0.8,0 1.6,-0.5 1.7,-1.4 0,-0.8 0,-1.6 0,-2.5 z"
     id="path2" />
  <g
     id="g3">
    <polygon
       class="st0"
       points="31.5,7.5 39.9,7.5 33.7,18 38.7,18 20.7,43.1 29.4,22.8 25,22.8 "
       id="polygon2" />
    <path
       d="m 39.1,8 -6.2,10.6 h 4.9 L 23,39.2 30.2,22.5 H 25.8 L 31.9,8.1 h 7.2 M 40.8,7 H 31.2 L 30.9,7.6 24.8,22 24.2,23.4 h 4.4 l -6.6,15.3 -3.6,8.4 5.3,-7.4 14.8,-20.6 1.1,-1.6 h -5.1 l 5.3,-9 0.9,-1.5 v 0 z"
       id="path3" />
  </g>
</svg>
