<?xml version="1.0" encoding="UTF-8" standalone="no"?>
<svg
   id="Layer_1"
   version="1.1"
   viewBox="0 0 62 62"
   sodipodi:docname="poi045_b.svg"
   width="62"
   height="62"
   inkscape:version="1.3.2 (091e20e, 2023-11-25, custom)"
   xmlns:inkscape="http://www.inkscape.org/namespaces/inkscape"
   xmlns:sodipodi="http://sodipodi.sourceforge.net/DTD/sodipodi-0.dtd"
   xmlns="http://www.w3.org/2000/svg"
   xmlns:svg="http://www.w3.org/2000/svg">
  <sodipodi:namedview
     id="namedview2"
     pagecolor="#ffffff"
     bordercolor="#000000"
     borderopacity="0.25"
     inkscape:showpageshadow="2"
     inkscape:pageopacity="0.0"
     inkscape:pagecheckerboard="0"
     inkscape:deskcolor="#d1d1d1"
     inkscape:zoom="29.33871"
     inkscape:cx="30.982958"
     inkscape:cy="31"
     inkscape:window-width="3840"
     inkscape:window-height="2054"
     inkscape:window-x="2869"
     inkscape:window-y="-11"
     inkscape:window-maximized="1"
     inkscape:current-layer="Layer_1" />
  <!-- Generator: Adobe Illustrator 29.3.1, SVG Export Plug-In . SVG Version: 2.1.0 Build 151)  -->
  <defs
     id="defs1">
    <style
       id="style1">
      .st0 {
        fill: #e4151c;
      }

      .st1 {
        fill: #fff;
      }
    </style>
  </defs>
  <path
     d="M 13,3 H 49.1 L 58.6,37.4 31,58.3 3.4,37.3 13,3 M 10.7,0 0,38.5 31,62 62,38.5 51.3,0 Z"
     id="path1" />
  <circle
     class="st0"
     cx="31"
     cy="27"
     id="ellipse1"
     r="22" />
  <circle
     class="st1"
     cx="31"
     cy="27"
     id="ellipse2"
     r="17.1" />
  <path
     d="m 44.4,26.4 c 0,0 0,0 0,0 l -2.1,-1.8 c 0,0 -0.2,-0.1 -0.3,-0.1 H 29.2 c -1.3,-2.9 -4.7,-4.2 -7.6,-2.9 -2.9,1.3 -4.2,4.7 -2.9,7.6 1.3,2.9 4.7,4.2 7.6,2.9 1.5,-0.7 2.6,-1.9 3.1,-3.5 h 0.7 c 0,0 0.4,1.4 0.4,1.4 h 0.6 l 0.7,-1 c 0,0 0,0 0.1,0 0,0 0,0 0,0 l 0.7,1 c 0,0 0,0 0.1,0 0,0 0,0 0,0 l 0.5,-1 c 0,0 0,0 0.1,0 0,0 0,0 0,0 l 0.6,1 c 0,0 0,0 0.1,0 0,0 0,0 0,0 l 0.6,-1 c 0,0 0,0 0.1,0 0,0 0,0 0,0 l 0.9,0.9 c 0,0 0,0 0.1,0 0,0 0,0 0,0 l 1.4,-1.5 h 1 l 0.9,1.1 c 0,0 0.1,0 0.2,0 0,0 0,0 0,0 L 40,29 c 0,0 0.1,0 0.2,0 l 0.9,0.9 c 0,0 0.2,0 0.3,0 v 0 c 0,0 2.8,-3 2.8,-3 0.1,-0.1 0.1,-0.3 0,-0.4 z M 22,28.1 c -0.7,0 -1.2,-0.5 -1.2,-1.2 0,-0.7 0.5,-1.2 1.2,-1.2 0.7,0 1.2,0.5 1.2,1.2 0,0.7 -0.5,1.2 -1.2,1.2 z"
     id="path2" />
</svg>
