<?xml version="1.0" encoding="UTF-8" standalone="no"?>
<svg
   id="Layer_1"
   version="1.1"
   viewBox="0 0 62 62"
   sodipodi:docname="poi043_b.svg"
   width="62"
   height="62"
   inkscape:version="1.3.2 (091e20e, 2023-11-25, custom)"
   xmlns:inkscape="http://www.inkscape.org/namespaces/inkscape"
   xmlns:sodipodi="http://sodipodi.sourceforge.net/DTD/sodipodi-0.dtd"
   xmlns="http://www.w3.org/2000/svg"
   xmlns:svg="http://www.w3.org/2000/svg">
  <sodipodi:namedview
     id="namedview21"
     pagecolor="#ffffff"
     bordercolor="#000000"
     borderopacity="0.25"
     inkscape:showpageshadow="2"
     inkscape:pageopacity="0.0"
     inkscape:pagecheckerboard="0"
     inkscape:deskcolor="#d1d1d1"
     inkscape:zoom="29.33871"
     inkscape:cx="30.982958"
     inkscape:cy="31"
     inkscape:window-width="3840"
     inkscape:window-height="2054"
     inkscape:window-x="2869"
     inkscape:window-y="-11"
     inkscape:window-maximized="1"
     inkscape:current-layer="Layer_1" />
  <!-- Generator: Adobe Illustrator 29.3.1, SVG Export Plug-In . SVG Version: 2.1.0 Build 151)  -->
  <defs
     id="defs1">
    <style
       id="style1">
      .st0 {
        fill: #fbe943;
      }

      .st1 {
        fill: #fff;
      }

      .st2 {
        fill: #f6bd16;
      }

      .st3 {
        fill: #f7931e;
      }

      .st4 {
        fill: #fefefe;
      }

      .st5 {
        fill: #ff0;
      }
    </style>
  </defs>
  <path
     d="M 13,3 H 49.1 L 58.6,37.4 31,58.3 3.4,37.3 13,3 M 10.7,0 0,38.5 31,62 62,38.5 51.3,0 Z"
     id="path1" />
  <g
     id="g21">
    <g
       id="g6">
      <g
         id="g3">
        <path
           d="m 41.4,41.6 c -0.5,0 -1.1,-0.1 -1.5,-0.4 l -20.8,-12 c -1.5,-0.9 -2,-2.8 -1.1,-4.2 0.6,-1 1.6,-1.6 2.7,-1.6 1.1,0 1.1,0.1 1.5,0.4 l 20.8,12 c 1.5,0.9 2,2.8 1.1,4.2 -0.6,1 -1.6,1.6 -2.7,1.6 z"
           id="path2" />
        <path
           d="m 20.7,23.8 v 0 c 0.5,0 0.9,0.1 1.3,0.4 l 20.8,12 c 1.3,0.7 1.7,2.4 1,3.6 -0.5,0.8 -1.4,1.3 -2.3,1.3 -0.9,0 -0.9,-0.1 -1.3,-0.4 l -20.8,-12 c -1.3,-0.7 -1.7,-2.4 -1,-3.6 0.5,-0.8 1.4,-1.3 2.3,-1.3 m 0,-0.9 c -1.2,0 -2.4,0.6 -3.1,1.8 v 0 c -1,1.7 -0.4,3.9 1.3,4.9 l 20.8,12 c 0.6,0.3 1.2,0.5 1.8,0.5 1.2,0 2.4,-0.6 3.1,-1.8 v 0 c 1,-1.7 0.4,-3.9 -1.3,-4.9 l -20.8,-12 c -0.6,-0.3 -1.2,-0.5 -1.8,-0.5 z"
           id="path3" />
      </g>
      <g
         id="g5">
        <path
           class="st1"
           d="m 41.4,41.6 c -0.5,0 -1.1,-0.1 -1.5,-0.4 -0.7,-0.4 -1.2,-1.1 -1.4,-1.9 -0.2,-0.8 -0.1,-1.6 0.3,-2.4 0.6,-1 1.6,-1.6 2.7,-1.6 1.1,0 1.1,0.1 1.5,0.4 1.5,0.9 2,2.8 1.1,4.2 -0.6,1 -1.6,1.6 -2.7,1.6 z"
           id="path4" />
        <path
           d="m 41.4,35.8 v 0 c 0.5,0 0.9,0.1 1.3,0.4 1.3,0.7 1.7,2.4 1,3.6 -0.5,0.8 -1.4,1.3 -2.3,1.3 -0.9,0 -0.9,-0.1 -1.3,-0.4 -1.3,-0.7 -1.7,-2.4 -1,-3.6 0.5,-0.8 1.4,-1.3 2.3,-1.3 m 0,-0.9 c -1.2,0 -2.4,0.6 -3.1,1.8 -1,1.7 -0.4,3.9 1.3,4.9 0.6,0.3 1.2,0.5 1.8,0.5 1.2,0 2.4,-0.6 3.1,-1.8 1,-1.7 0.4,-3.9 -1.3,-4.9 -0.6,-0.3 -1.2,-0.5 -1.8,-0.5 z"
           id="path5" />
      </g>
    </g>
    <g
       id="g10">
      <g
         id="g7">
        <path
           d="M 20.7,41.6 C 19.6,41.6 18.6,41 18,40 17.1,38.5 17.7,36.6 19.1,35.8 l 20.8,-12 c 0.5,-0.3 1,-0.4 1.5,-0.4 1.1,0 2.1,0.6 2.7,1.6 0.9,1.5 0.3,3.4 -1.1,4.2 l -20.8,12 c -0.5,0.3 -1,0.4 -1.5,0.4 z"
           id="path6" />
        <path
           d="m 41.4,23.8 c 0.9,0 1.8,0.5 2.3,1.3 0.7,1.3 0.3,2.9 -1,3.6 l -20.8,12 c -0.4,0.2 -0.9,0.4 -1.3,0.4 -0.9,0 -1.8,-0.5 -2.3,-1.3 -0.7,-1.3 -0.3,-2.9 1,-3.6 l 20.8,-12 C 40.5,24 41,23.8 41.4,23.8 m 0,-0.9 c -0.6,0 -1.2,0.2 -1.8,0.5 l -20.8,12 c -1.7,1 -2.3,3.2 -1.3,4.9 v 0 c 0.7,1.1 1.9,1.8 3.1,1.8 1.2,0 1.2,-0.2 1.8,-0.5 l 20.8,-12 c 1.7,-1 2.3,-3.2 1.3,-4.9 v 0 c -0.7,-1.1 -1.9,-1.8 -3.1,-1.8 z"
           id="path7" />
      </g>
      <g
         id="g9">
        <path
           class="st1"
           d="M 20.7,41.6 C 19.6,41.6 18.6,41 18,40 c -0.9,-1.5 -0.3,-3.4 1.1,-4.2 0.5,-0.3 1,-0.4 1.5,-0.4 1.1,0 2.1,0.6 2.7,1.6 0.4,0.7 0.5,1.6 0.3,2.4 -0.2,0.8 -0.7,1.5 -1.4,1.9 -0.5,0.3 -1,0.4 -1.5,0.4 v 0 z"
           id="path8" />
        <path
           d="m 20.7,35.8 c 0.9,0 1.8,0.5 2.3,1.3 0.7,1.3 0.3,2.9 -1,3.6 -0.4,0.2 -0.9,0.4 -1.3,0.4 -0.9,0 -1.8,-0.5 -2.3,-1.3 -0.7,-1.3 -0.3,-2.9 1,-3.6 0.4,-0.2 0.9,-0.4 1.3,-0.4 m 0,-0.9 c -0.6,0 -1.2,0.2 -1.8,0.5 -1.7,1 -2.3,3.2 -1.3,4.9 0.7,1.1 1.9,1.8 3.1,1.8 1.2,0 1.2,-0.2 1.8,-0.5 1.7,-1 2.3,-3.2 1.3,-4.9 -0.7,-1.1 -1.9,-1.8 -3.1,-1.8 z"
           id="path9" />
      </g>
    </g>
    <g
       id="g14">
      <g
         id="g11">
        <path
           d="m 31,47.6 c -1.7,0 -3.1,-1.4 -3.1,-3.1 v -24 c 0,-1.7 1.4,-3.1 3.1,-3.1 1.7,0 3.1,1.4 3.1,3.1 v 24 c 0,1.7 -1.4,3.1 -3.1,3.1 z"
           id="path10" />
        <path
           d="m 31,17.8 c 1.5,0 2.7,1.2 2.7,2.7 v 24 c 0,1.5 -1.2,2.7 -2.7,2.7 -1.5,0 -2.7,-1.2 -2.7,-2.7 v -24 c 0,-1.5 1.2,-2.7 2.7,-2.7 m 0,-0.9 c -2,0 -3.6,1.6 -3.6,3.6 v 24 c 0,2 1.6,3.6 3.6,3.6 2,0 3.6,-1.6 3.6,-3.6 v -24 c 0,-2 -1.6,-3.6 -3.6,-3.6 z"
           id="path11" />
      </g>
      <g
         id="g13">
        <path
           class="st1"
           d="m 31,47.6 c -1.7,0 -3.1,-1.4 -3.1,-3.1 0,-1.7 1.4,-3.1 3.1,-3.1 1.7,0 3.1,1.4 3.1,3.1 0,1.7 -1.4,3.1 -3.1,3.1 z"
           id="path12" />
        <path
           d="m 31,41.8 c 1.5,0 2.7,1.2 2.7,2.7 0,1.5 -1.2,2.7 -2.7,2.7 -1.5,0 -2.7,-1.2 -2.7,-2.7 0,-1.5 1.2,-2.7 2.7,-2.7 m 0,-0.9 v 0 c -2,0 -3.6,1.6 -3.6,3.6 0,2 1.6,3.6 3.6,3.6 2,0 3.6,-1.6 3.6,-3.6 0,-2 -1.6,-3.6 -3.6,-3.6 z"
           id="path13" />
      </g>
    </g>
    <g
       id="g20">
      <g
         id="g15">
        <path
           class="st5"
           d="M 40.8,11.4 C 40.2,10.9 40,10.3 40.1,9.6 c 0,-0.2 0.1,-0.4 0.2,-0.7 0,0 -0.1,0.1 -0.1,0.2 -0.4,0.6 -0.9,1.2 -1.3,1.8 -0.5,0.7 -0.4,1.4 0.2,2 0.4,0.4 0.6,0.8 0.5,1.3 0,0.2 -0.1,0.3 -0.1,0.6 0.5,-0.5 1.1,-0.8 1.5,-1.3 0.5,-0.6 0.4,-1.5 -0.2,-2 z"
           id="path14" />
        <path
           class="st5"
           d="m 25.2,11.1 c -0.4,-0.3 -0.9,-0.6 -1.4,-1 0,0.2 0,0.2 0.1,0.3 0.3,0.7 0,1.2 -0.5,1.7 -0.6,0.4 -0.6,1.3 0,1.7 0.4,0.3 0.9,0.6 1.3,0.9 0,0 0,0 0.1,0 0,0 0,0 0,-0.1 -0.3,-0.7 0,-1.3 0.6,-1.8 0.6,-0.4 0.5,-1.2 0,-1.7 z"
           id="path15" />
      </g>
      <path
         class="st0"
         d="m 35.4,8 c 0,0 0,0 0,0 z"
         id="path16" />
      <path
         class="st2"
         d="m 40.3,34.8 c 1.6,0 3.1,-1.3 3.6,-2.9 0.4,-1.3 0,-2.7 0.2,-4 -0.5,0.7 -1,1.3 -1.5,1.8 -0.6,0.6 -1.7,1.2 -2,1.2 0,0 0,-0.1 0.1,-0.2 1.8,-2.8 2,-5.7 0.8,-8.7 -0.6,-1.3 -1.2,-2.6 -1.8,-4 -0.2,-0.5 -0.4,-0.9 -0.6,-1.4 -0.1,0.7 -0.2,1.3 -0.2,2 -0.1,1.8 -0.9,3.2 -2.5,4.2 -0.5,0.3 -0.9,0.6 -1.5,0.6 0.1,-0.4 0.4,-0.8 0.6,-1.2 0.4,-0.8 0.7,-1.7 0.7,-2.6 0,-1.5 -0.4,-2.9 -1.1,-4.2 -1,-1.8 -1.2,-3.7 -0.5,-5.6 0.2,-0.7 0.6,-1.3 1,-1.9 0,0 0,0 0,0 0,0 -0.2,0.1 -0.3,0.2 -0.9,0.6 -1.8,1.3 -2.7,1.9 -1.3,0.9 -2.5,1.9 -3.4,3.2 -1.7,2.4 -2.4,5.1 -2,8.1 0,0.4 0.1,0.8 0.2,1.3 0,0 0,0 0,0 0,0 0,0 0,0 0,0 0,0 -0.1,0 -1.4,-0.5 -2.4,-2.1 -2.1,-3.6 0,-0.5 0.2,-0.9 0.2,-1.4 0,-0.3 0.1,-0.5 0.1,-0.9 0,0 -0.1,0.1 -0.1,0.1 -0.8,1.3 -1.7,2.5 -2.5,3.8 -0.7,1.1 -1.1,2.3 -1.3,3.6 0,0.5 0,1 0,1.6 -1.1,-1.8 -1.4,-3.6 -1.1,-5.6 -0.3,0.3 -0.6,0.6 -1,0.9 -1,1 -1.7,2.1 -2.1,3.5 -0.3,1.2 -0.3,2.4 0,3.6 0.5,3.4 3.5,6.2 7,6.4 1.5,0 14.1,0 16.2,0 z"
         id="path17" />
      <path
         class="st4"
         d="m 27.2,22.7 c 0,0 0,0 0,0 z"
         id="path18" />
      <path
         class="st4"
         d="m 34.8,23.6 c 0,0 0,0 0,0 z"
         id="path19" />
      <path
         class="st3"
         d="m 37.7,30.1 c -0.7,-0.9 -0.7,-1.7 0,-2.7 0.1,-0.1 0.2,-0.3 0.3,-0.5 -0.9,0.1 -1.6,0.6 -2.1,1.3 -0.5,0.7 -0.7,1.5 -0.6,2.4 -0.7,-0.4 -1.3,-0.7 -1.7,-1.4 -0.3,-0.6 -0.3,-1.3 -0.2,-2 0.2,-1 -0.6,-2.2 -1.5,-2.5 -0.8,-0.3 -1.5,-0.3 -2.3,-0.5 0,0 -0.2,0 -0.3,0 0.3,0.4 0.5,0.9 0.7,1.3 0.3,1.3 0,2.4 -0.8,3.4 -0.3,0.4 -0.7,0.8 -1,1.3 0,0.2 -0.2,0 -0.2,0 -0.4,-0.5 -0.7,-1.1 -0.9,-1.7 0,-0.3 -0.1,-0.6 -0.2,-0.9 -0.2,0.1 -0.2,0.3 -0.3,0.5 -0.4,0.6 -0.8,1.2 -0.9,1.9 -0.3,1.3 0,2.5 0.8,3.5 0.6,0.7 1.4,1.2 2.3,1.4 1.8,0.1 3.5,0 5.3,0 2.1,-0.3 3.4,-1.8 3.7,-2.5 0.3,-0.7 0.4,-1.6 0,-2.3 z"
         id="path20" />
    </g>
  </g>
</svg>
