<?xml version="1.0" encoding="UTF-8"?>
<svg xmlns="http://www.w3.org/2000/svg" version="1.1" viewBox="0 0 60 60">
  <defs>
    <style>
      .cls-1 {
        fill: #fff;
      }

      .cls-2 {
        fill: #29abe2;
      }
    </style>
  </defs>
  <!-- Generator: Adobe Illustrator 28.7.7, SVG Export Plug-In . SVG Version: 1.2.0 Build 194)  -->
  <g>
    <g id="Layer_1">
      <path class="cls-1" d="M51.4,6.8h-17.6c-13.2,0-23.8,10.6-23.8,23.7v5.3h-.7c-1.8,0-2.8.8-3.5,1.3-.4.3-.6.5-.9.5h-.3c-.7,0-1.4.4-1.7,1-.4.7-.3,1.5,0,2.1,5.6,7.9,14.8,12.6,24.4,12.6s18.8-4.7,24.4-12.6c.4-.6.5-1.5,0-2.1s-1-1-1.7-1,0,0,0,0h-.2c-.4,0-.5-.1-.9-.5-.7-.5-1.7-1.3-3.5-1.3s-2.8.8-3.5,1.3c-.5.4-.6.5-1,.5s-.5,0-1-.5c-.7-.5-1.7-1.3-3.5-1.3s-1.8.3-2.4.6v-5.6h20.9c1,0,1.8-.7,2-1.6.4-1.9.6-3.9.6-5.9,0-5.5-1.5-10.9-4.3-15.6-.4-.6-1-1-1.7-1h-.2Z"/>
      <g>
        <path class="cls-2" d="M13.8,37.6c.4,0,.5,0,1-.5.7-.5,1.7-1.3,3.5-1.3s2.8.8,3.5,1.3c.5.4.6.5,1,.5s.5,0,1-.5c.7-.5,1.7-1.3,3.5-1.3s2.8.8,3.5,1.3c.5.4.6.5,1,.5s0,0,0,0v-7c0-1,.8-1.7,1.7-1.7h21.1c.4-1.8.5-3.6.5-5.5,0-5.3-1.5-10.3-4.1-14.5h-17.6c-12,0-21.7,9.8-21.7,21.7v6c.3.2.6.4.9.6.5.4.6.5,1,.5h.2ZM19,30.5c0-7.6,5.8-13.9,13.2-14.7v-1.5c0-.4.4-.7.8-.5l7.7,4.4c.4.2.4.7,0,.9l-7.7,4.5c-.4.2-.8,0-.8-.5v-1.4c-4.1.7-7.2,4.3-7.2,8.6v4.5h-6v-4.5h0v.2Z"/>
        <path class="cls-2" d="M45.5,37.8c-2.3,0-2.3,1.8-4.5,1.8s-2.3-1.8-4.5-1.8-2.3,1.8-4.5,1.8-2.3-1.8-4.5-1.8-2.3,1.8-4.5,1.8-2.3-1.8-4.5-1.8-2.3,1.8-4.5,1.8-2.3-1.8-4.5-1.8-2.3,1.8-4.5,1.8,0,0-.2,0c5.1,7.1,13.4,11.8,22.8,11.8s17.7-4.6,22.8-11.8h-.2c-2.3,0-2.3-1.8-4.5-1.8h-.2Z"/>
      </g>
    </g>
  </g>
</svg>