<?xml version="1.0" encoding="UTF-8"?>
<svg xmlns="http://www.w3.org/2000/svg" version="1.1" viewBox="0 0 60 60">
  <defs>
    <style>
      .cls-1 {
        fill: #0071bb;
        stroke-width: 4px;
      }

      .cls-1, .cls-2 {
        stroke: #000;
        stroke-miterlimit: 10;
      }

      .cls-3 {
        fill: #fff;
      }

      .cls-2 {
        fill: #404040;
        stroke-width: 2px;
      }

      .cls-4 {
        fill: #29abe2;
      }
    </style>
  </defs>
  <!-- Generator: Adobe Illustrator 28.7.7, SVG Export Plug-In . SVG Version: 1.2.0 Build 194)  -->
  <g>
    <g id="Layer_1">
      <path class="cls-3" d="M43,24c.2-.6.2-1.1.2-1.7,0-5.8-8.3-10.4-18.9-10.4S5.4,16.5,5.4,22.3s2.9,6.6,7.7,8.5c-.9,1.5-1.4,3-1.4,4.7,0,7.2,9.3,12.7,21.5,12.7s21.5-5.5,21.5-12.7-4.6-9.4-11.9-11.4h.2,0Z"/>
      <g>
        <path class="cls-1" d="M34.3,36.2"/>
        <g>
          <ellipse class="cls-2" cx="33" cy="35.2" rx="18.5" ry="9.7"/>
          <g>
            <path class="cls-3" d="M24,30.1c-8.8,0-16-3.6-16-8s7.2-8,16-8,16,3.6,16,8-7.2,8-16,8Z"/>
            <ellipse class="cls-4" cx="24" cy="22.1" rx="3.4" ry="1.7"/>
            <path class="cls-4" d="M24,30.5c-9.3,0-16.9-3.8-16.9-8.4s7.6-8.4,16.9-8.4,16.9,3.8,16.9,8.4-7.6,8.4-16.9,8.4ZM24,14.9c-7.9,0-14.3,3.2-14.3,7.2s6.4,7.2,14.3,7.2,14.3-3.2,14.3-7.2-6.4-7.2-14.3-7.2Z"/>
            <g>
              <path class="cls-4" d="M34,22.7c-.2.9-1,1.8-2,2.5l1.8.9c1.5-.9,2.5-2.1,2.8-3.4,0,0-2.6,0-2.6,0Z"/>
              <path class="cls-4" d="M13.9,22.7h-2.6c.3,1.3,1.3,2.4,2.8,3.4l1.8-.9c-1.1-.7-1.8-1.5-2-2.5Z"/>
              <path class="cls-4" d="M17.8,26.1l-1.8.9c1.9.8,4.2,1.3,6.7,1.4v-1.3c-1.8-.1-3.5-.5-4.9-1Z"/>
              <path class="cls-4" d="M34,21.5h2.6c-.3-1.3-1.3-2.4-2.8-3.4l-1.8.9c1.1.7,1.8,1.5,2,2.5Z"/>
              <path class="cls-4" d="M25.2,27.1v1.3c2.5,0,4.9-.6,6.7-1.4l-1.8-.9c-1.4.5-3.1.9-4.9,1Z"/>
              <path class="cls-4" d="M22.7,17.1v-1.3c-2.5,0-4.9.6-6.7,1.4l1.8.9c1.4-.5,3.1-.9,4.9-1Z"/>
              <path class="cls-4" d="M16,19l-1.8-.9c-1.5.9-2.5,2.1-2.8,3.4h2.6c.2-.9,1-1.8,2-2.5Z"/>
              <path class="cls-4" d="M30.2,18.1l1.8-.9c-1.9-.8-4.2-1.3-6.7-1.4v1.3c1.8,0,3.5.5,4.9,1Z"/>
              <path class="cls-4" d="M21.1,24.4l-1.8.9c1,.4,2.2.6,3.4.7v-1.3c-.6,0-1.1-.2-1.6-.3Z"/>
              <path class="cls-4" d="M26.8,19.8l1.8-.9c-1-.4-2.2-.6-3.4-.7v1.3c.6,0,1.1.2,1.6.3Z"/>
              <path class="cls-4" d="M22.7,19.4v-1.3c-1.3,0-2.4.3-3.4.7l1.8.9c.5-.2,1-.3,1.6-.3Z"/>
              <path class="cls-4" d="M28.6,20.7c.3.2.5.5.7.8h2.6c-.2-.6-.7-1.2-1.4-1.7l-1.8.9h-.1Z"/>
              <path class="cls-4" d="M25.2,24.8v1.3c1.3-.1,2.4-.3,3.4-.7l-1.8-.9c-.5.2-1,.3-1.6.3Z"/>
              <path class="cls-4" d="M19.3,20.7l-1.8-.9c-.7.5-1.2,1.1-1.4,1.7h2.6c.1-.3.4-.6.7-.8,0,0-.1,0,0,0Z"/>
              <path class="cls-4" d="M28.6,23.5l1.8.9c.7-.5,1.2-1.1,1.4-1.7h-2.6c0,.3-.4.6-.7.8h.1Z"/>
              <path class="cls-4" d="M18.6,22.7h-2.6c.2.6.7,1.2,1.4,1.7l1.8-.9c-.3-.2-.5-.5-.7-.8,0,0,.1,0,0,0Z"/>
            </g>
          </g>
        </g>
      </g>
    </g>
  </g>
</svg>