<?xml version="1.0" encoding="UTF-8" standalone="no"?>
<!-- Generator: Adobe Illustrator 29.4.0, SVG Export Plug-In . SVG Version: 9.03 Build 0)  -->

<svg
   version="1.1"
   id="Layer_1"
   x="0px"
   y="0px"
   viewBox="0 0 62 62"
   xml:space="preserve"
   sodipodi:docname="wwn020_b.svg"
   width="62"
   height="62"
   inkscape:version="1.3.2 (091e20e, 2023-11-25, custom)"
   xmlns:inkscape="http://www.inkscape.org/namespaces/inkscape"
   xmlns:sodipodi="http://sodipodi.sourceforge.net/DTD/sodipodi-0.dtd"
   xmlns="http://www.w3.org/2000/svg"
   xmlns:svg="http://www.w3.org/2000/svg"><defs
   id="defs151" /><sodipodi:namedview
   id="namedview151"
   pagecolor="#ffffff"
   bordercolor="#000000"
   borderopacity="0.25"
   inkscape:showpageshadow="2"
   inkscape:pageopacity="0.0"
   inkscape:pagecheckerboard="0"
   inkscape:deskcolor="#d1d1d1"
   inkscape:zoom="29.33871"
   inkscape:cx="30.982958"
   inkscape:cy="31"
   inkscape:window-width="3840"
   inkscape:window-height="2054"
   inkscape:window-x="2869"
   inkscape:window-y="-11"
   inkscape:window-maximized="1"
   inkscape:current-layer="Layer_1" />
<path
   d="M 31,3 C 46.4,3 59,15.6 59,31 59,46.4 46.4,59 31,59 15.6,59 3,46.4 3,31 3,15.6 15.6,3 31,3 M 31,0 C 13.9,0 0,13.9 0,31 0,48.1 13.9,62 31,62 48.1,62 62,48.1 62,31 62,13.9 48.1,0 31,0 Z"
   id="path1" />
<g
   id="g151">
	<circle
   cx="57.25"
   cy="39.799999"
   r="0.60000002"
   id="circle1" />
	<circle
   cx="58.549999"
   cy="37.299999"
   r="0.60000002"
   id="circle2" />
	<circle
   cx="59.75"
   cy="34.799999"
   r="0.60000002"
   id="circle3" />
	<circle
   cx="58.549999"
   cy="32.299999"
   r="0.60000002"
   id="circle4" />
	<circle
   cx="59.75"
   cy="29.799999"
   r="0.60000002"
   id="circle5" />
	<circle
   cx="58.549999"
   cy="27.299999"
   r="0.60000002"
   id="circle6" />
	<circle
   cx="59.75"
   cy="24.799999"
   r="0.60000002"
   id="circle7" />
	<circle
   cx="58.549999"
   cy="22.299999"
   r="0.60000002"
   id="circle8" />
	<circle
   cx="57.25"
   cy="19.799999"
   r="0.60000002"
   id="circle9" />
	<circle
   cx="53.549999"
   cy="47.299999"
   r="0.60000002"
   id="circle10" />
	<circle
   cx="54.75"
   cy="44.799999"
   r="0.60000002"
   id="circle11" />
	<circle
   cx="56.049999"
   cy="42.299999"
   r="0.60000002"
   id="circle12" />
	<circle
   cx="53.549999"
   cy="42.299999"
   r="0.60000002"
   id="circle13" />
	<circle
   cx="54.75"
   cy="39.799999"
   r="0.60000002"
   id="circle14" />
	<circle
   cx="56.049999"
   cy="37.299999"
   r="0.60000002"
   id="circle15" />
	<circle
   cx="53.549999"
   cy="37.299999"
   r="0.60000002"
   id="circle16" />
	<circle
   cx="57.25"
   cy="34.799999"
   r="0.60000002"
   id="circle17" />
	<circle
   cx="54.75"
   cy="34.799999"
   r="0.60000002"
   id="circle18" />
	<circle
   cx="56.049999"
   cy="32.299999"
   r="0.60000002"
   id="circle19" />
	<circle
   cx="53.549999"
   cy="32.299999"
   r="0.60000002"
   id="circle20" />
	<circle
   cx="57.25"
   cy="29.799999"
   r="0.60000002"
   id="circle21" />
	<circle
   cx="54.75"
   cy="29.799999"
   r="0.60000002"
   id="circle22" />
	<circle
   cx="56.049999"
   cy="27.299999"
   r="0.60000002"
   id="circle23" />
	<circle
   cx="53.549999"
   cy="27.299999"
   r="0.60000002"
   id="circle24" />
	<circle
   cx="57.25"
   cy="24.799999"
   r="0.60000002"
   id="circle25" />
	<circle
   cx="54.75"
   cy="24.799999"
   r="0.60000002"
   id="circle26" />
	<circle
   cx="56.049999"
   cy="22.299999"
   r="0.60000002"
   id="circle27" />
	<circle
   cx="53.549999"
   cy="22.299999"
   r="0.60000002"
   id="circle28" />
	<circle
   cx="54.75"
   cy="19.799999"
   r="0.60000002"
   id="circle29" />
	<circle
   cx="52.25"
   cy="19.799999"
   r="0.60000002"
   id="circle30" />
	<circle
   cx="56.049999"
   cy="17.299999"
   r="0.60000002"
   id="circle31" />
	<circle
   cx="53.549999"
   cy="17.299999"
   r="0.60000002"
   id="circle32" />
	<circle
   cx="47.25"
   cy="54.799999"
   r="0.60000002"
   id="circle33" />
	<circle
   cx="51.049999"
   cy="52.299999"
   r="0.60000002"
   id="circle34" />
	<circle
   cx="48.549999"
   cy="52.299999"
   r="0.60000002"
   id="circle35" />
	<circle
   cx="52.25"
   cy="49.799999"
   r="0.60000002"
   id="circle36" />
	<circle
   cx="49.75"
   cy="49.799999"
   r="0.60000002"
   id="circle37" />
	<circle
   cx="51.049999"
   cy="47.299999"
   r="0.60000002"
   id="circle38" />
	<circle
   cx="52.25"
   cy="44.799999"
   r="0.60000002"
   id="circle39" />
	<circle
   cx="49.75"
   cy="44.799999"
   r="0.60000002"
   id="circle40" />
	<circle
   cx="51.049999"
   cy="42.299999"
   r="0.60000002"
   id="circle41" />
	<circle
   cx="52.25"
   cy="39.799999"
   r="0.60000002"
   id="circle42" />
	<circle
   cx="49.75"
   cy="39.799999"
   r="0.60000002"
   id="circle43" />
	<circle
   cx="51.049999"
   cy="37.299999"
   r="0.60000002"
   id="circle44" />
	<circle
   cx="52.25"
   cy="34.799999"
   r="0.60000002"
   id="circle45" />
	<circle
   cx="49.75"
   cy="34.799999"
   r="0.60000002"
   id="circle46" />
	<circle
   cx="51.049999"
   cy="32.299999"
   r="0.60000002"
   id="circle47" />
	<circle
   cx="52.25"
   cy="29.799999"
   r="0.60000002"
   id="circle48" />
	<circle
   cx="49.75"
   cy="29.799999"
   r="0.60000002"
   id="circle49" />
	<circle
   cx="51.049999"
   cy="27.299999"
   r="0.60000002"
   id="circle50" />
	<circle
   cx="52.25"
   cy="24.799999"
   r="0.60000002"
   id="circle51" />
	<circle
   cx="49.75"
   cy="24.799999"
   r="0.60000002"
   id="circle52" />
	<circle
   cx="51.049999"
   cy="22.299999"
   r="0.60000002"
   id="circle53" />
	<circle
   cx="49.75"
   cy="19.799999"
   r="0.60000002"
   id="circle54" />
	<circle
   cx="51.049999"
   cy="17.299999"
   r="0.60000002"
   id="circle55" />
	<circle
   cx="48.549999"
   cy="17.299999"
   r="0.60000002"
   id="circle56" />
	<circle
   cx="43.549999"
   cy="57.299999"
   r="0.60000002"
   id="circle57" />
	<circle
   cx="44.75"
   cy="54.799999"
   r="0.60000002"
   id="circle58" />
	<circle
   cx="46.049999"
   cy="52.299999"
   r="0.60000002"
   id="circle59" />
	<circle
   cx="43.549999"
   cy="52.299999"
   r="0.60000002"
   id="circle60" />
	<circle
   cx="46.049999"
   cy="17.299999"
   r="0.60000002"
   id="circle61" />
	<circle
   cx="41.049999"
   cy="57.299999"
   r="0.60000002"
   id="circle62" />
	<circle
   cx="38.549999"
   cy="57.299999"
   r="0.60000002"
   id="circle63" />
	<circle
   cx="42.25"
   cy="54.799999"
   r="0.60000002"
   id="circle64" />
	<circle
   cx="39.75"
   cy="54.799999"
   r="0.60000002"
   id="circle65" />
	<circle
   cx="37.25"
   cy="54.799999"
   r="0.60000002"
   id="circle66" />
	<circle
   cx="41.049999"
   cy="52.299999"
   r="0.60000002"
   id="circle67" />
	<circle
   cx="38.549999"
   cy="52.299999"
   r="0.60000002"
   id="circle68" />
	<circle
   cx="36.049999"
   cy="57.299999"
   r="0.60000002"
   id="circle69" />
	<circle
   cx="33.549999"
   cy="57.299999"
   r="0.60000002"
   id="circle70" />
	<circle
   cx="34.75"
   cy="54.799999"
   r="0.60000002"
   id="circle71" />
	<circle
   cx="32.25"
   cy="54.799999"
   r="0.60000002"
   id="circle72" />
	<circle
   cx="36.049999"
   cy="52.299999"
   r="0.60000002"
   id="circle73" />
	<circle
   cx="33.549999"
   cy="52.299999"
   r="0.60000002"
   id="circle74" />
	<circle
   cx="31.049999"
   cy="57.299999"
   r="0.60000002"
   id="circle75" />
	<circle
   cx="28.549999"
   cy="57.299999"
   r="0.60000002"
   id="circle76" />
	<circle
   cx="29.75"
   cy="54.799999"
   r="0.60000002"
   id="circle77" />
	<circle
   cx="27.25"
   cy="54.799999"
   r="0.60000002"
   id="circle78" />
	<circle
   cx="31.049999"
   cy="52.299999"
   r="0.60000002"
   id="circle79" />
	<circle
   cx="28.549999"
   cy="52.299999"
   r="0.60000002"
   id="circle80" />
	<circle
   cx="26.049999"
   cy="57.299999"
   r="0.60000002"
   id="circle81" />
	<circle
   cx="23.549999"
   cy="57.299999"
   r="0.60000002"
   id="circle82" />
	<circle
   cx="24.75"
   cy="54.799999"
   r="0.60000002"
   id="circle83" />
	<circle
   cx="22.25"
   cy="54.799999"
   r="0.60000002"
   id="circle84" />
	<circle
   cx="26.049999"
   cy="52.299999"
   r="0.60000002"
   id="circle85" />
	<circle
   cx="23.549999"
   cy="52.299999"
   r="0.60000002"
   id="circle86" />
	<circle
   cx="21.049999"
   cy="57.299999"
   r="0.60000002"
   id="circle87" />
	<circle
   cx="18.549999"
   cy="57.299999"
   r="0.60000002"
   id="circle88" />
	<circle
   cx="19.75"
   cy="54.799999"
   r="0.60000002"
   id="circle89" />
	<circle
   cx="21.049999"
   cy="52.299999"
   r="0.60000002"
   id="circle90" />
	<circle
   cx="18.549999"
   cy="52.299999"
   r="0.60000002"
   id="circle91" />
	<path
   d="m 18.55,16.7 c -0.3,0 -0.6,0.3 -0.6,0.6 0,0.3 0,0.3 0.2,0.5 -1.1,0.4 -2,1 -2.8,1.8 -0.1,-0.2 -0.3,-0.4 -0.6,-0.4 -0.3,0 -0.6,0.3 -0.6,0.6 0,0.3 0.2,0.5 0.5,0.6 -0.3,0.4 -0.5,0.9 -0.7,1.4 -0.1,0 -0.2,-0.1 -0.4,-0.1 -0.3,0 -0.6,0.3 -0.6,0.6 0,0.3 0.3,0.6 0.6,0.6 0.3,0 0,0 0,0 0,0.4 -0.1,0.9 -0.1,1.3 v 2.4 c -0.3,0 -0.5,0.3 -0.5,0.6 0,0.3 0.2,0.6 0.5,0.6 v 3.8 c -0.3,0 -0.5,0.3 -0.5,0.6 0,0.3 0.2,0.6 0.5,0.6 v 3.8 c -0.3,0 -0.5,0.3 -0.5,0.6 0,0.3 0.2,0.6 0.5,0.6 v 3.8 c -0.3,0 -0.5,0.3 -0.5,0.6 0,0.3 0.2,0.6 0.5,0.6 v 3.8 c -0.3,0 -0.5,0.3 -0.5,0.6 0,0.3 0.2,0.6 0.5,0.6 v 1.9 h 0.7 c 0,0.3 0.3,0.6 0.6,0.6 0.3,0 0.6,-0.3 0.6,-0.6 h 1.3 c 0,0.3 0.3,0.6 0.6,0.6 0.3,0 0.6,-0.3 0.6,-0.6 h 1.3 c 0,0.3 0.3,0.6 0.6,0.6 0.3,0 0.6,-0.3 0.6,-0.6 h 1.3 c 0,0.3 0.3,0.6 0.6,0.6 0.3,0 0.6,-0.3 0.6,-0.6 h 1.3 c 0,0.3 0.3,0.6 0.6,0.6 0.3,0 0.6,-0.3 0.6,-0.6 h 1.3 c 0,0.3 0.3,0.6 0.6,0.6 0.3,0 0.6,-0.3 0.6,-0.6 h 1.3 c 0,0.3 0.3,0.6 0.6,0.6 0.3,0 0.6,-0.3 0.6,-0.6 h 1.3 c 0,0.3 0.3,0.6 0.6,0.6 0.3,0 0.6,-0.3 0.6,-0.6 h 1.3 c 0,0.3 0.3,0.6 0.6,0.6 0.3,0 0.6,-0.3 0.6,-0.6 h 1.3 c 0,0.3 0.3,0.6 0.6,0.6 0.3,0 0.6,-0.3 0.6,-0.6 h 1.3 c 0,0.3 0.3,0.6 0.6,0.6 0.3,0 0.6,-0.3 0.6,-0.6 h 1.3 c 0,0.3 0.3,0.6 0.6,0.6 0.3,0 0.6,-0.3 0.6,-0.6 h 1.3 c 0,0.3 0.3,0.6 0.6,0.6 0.3,0 0.6,-0.3 0.6,-0.6 h 1.3 c 0,0.3 0.3,0.6 0.6,0.6 0.3,0 0.6,-0.3 0.6,-0.6 h 0.5 v -1.9 0 c 0.3,0 0.6,-0.3 0.6,-0.6 0,-0.3 -0.3,-0.6 -0.6,-0.6 -0.3,0 0,0 0,0 v -3.8 0 c 0.3,0 0.6,-0.3 0.6,-0.6 0,-0.3 -0.3,-0.6 -0.6,-0.6 -0.3,0 0,0 0,0 v -3.8 0 c 0.3,0 0.6,-0.3 0.6,-0.6 0,-0.3 -0.3,-0.6 -0.6,-0.6 -0.3,0 0,0 0,0 v -3.8 0 c 0.3,0 0.6,-0.3 0.6,-0.6 0,-0.3 -0.3,-0.6 -0.6,-0.6 -0.3,0 0,0 0,0 v -3.8 0 c 0.3,0 0.6,-0.3 0.6,-0.6 0,-0.3 -0.3,-0.6 -0.6,-0.6 -0.3,0 0,0 0,0 v -2.4 c 0,-0.5 0,-0.9 -0.1,-1.4 0,0 0.1,0 0.2,0 0.3,0 0.6,-0.3 0.6,-0.6 0,-0.3 -0.3,-0.6 -0.6,-0.6 -0.3,0 -0.4,0.1 -0.5,0.3 -0.2,-0.5 -0.4,-1.1 -0.8,-1.5 v 0 c 0.3,0 0.6,-0.3 0.6,-0.6 0,-0.3 -0.3,-0.6 -0.6,-0.6 -0.3,0 -0.5,0.2 -0.6,0.5 -0.8,-0.8 -1.7,-1.5 -2.8,-1.9 0.2,-0.1 0.3,-0.3 0.3,-0.5 0,-0.3 -0.3,-0.6 -0.6,-0.6 -0.3,0 -0.6,0.3 -0.6,0.6 0,0.3 0,0.2 0,0.2 -0.2,0 -0.5,0 -0.8,-0.1 v -1.9 h -22.5 v 1.9 c -0.2,0 -0.4,0 -0.6,0 0,0 0,-0.1 0,-0.2 0,-0.3 -0.3,-0.6 -0.6,-0.6 z m 28.5,32 h -32.4 v -23.6 0 -0.8 c 0,-3.1 2.5,-5.6 5.6,-5.6 h 21.2 c 3.1,0 5.6,2.5 5.6,5.6 z"
   id="path91" />
	<circle
   cx="17.25"
   cy="54.799999"
   r="0.60000002"
   id="circle92" />
	<circle
   cx="14.75"
   cy="54.799999"
   r="0.60000002"
   id="circle93" />
	<circle
   cx="13.55"
   cy="52.299999"
   r="0.60000002"
   id="circle94" />
	<circle
   cx="16.049999"
   cy="52.299999"
   r="0.60000002"
   id="circle95" />
	<circle
   cx="12.25"
   cy="49.799999"
   r="0.60000002"
   id="circle96" />
	<circle
   cx="12.25"
   cy="44.799999"
   r="0.60000002"
   id="circle97" />
	<circle
   cx="12.25"
   cy="39.799999"
   r="0.60000002"
   id="circle98" />
	<circle
   cx="12.25"
   cy="34.799999"
   r="0.60000002"
   id="circle99" />
	<circle
   cx="12.25"
   cy="29.799999"
   r="0.60000002"
   id="circle100" />
	<circle
   cx="12.25"
   cy="24.799999"
   r="0.60000002"
   id="circle101" />
	<circle
   cx="12.25"
   cy="19.799999"
   r="0.60000002"
   id="circle102" />
	<circle
   cx="16.049999"
   cy="17.299999"
   r="0.60000002"
   id="circle103" />
	<circle
   cx="13.55"
   cy="17.299999"
   r="0.60000002"
   id="circle104" />
	<circle
   cx="11.05"
   cy="52.299999"
   r="0.60000002"
   id="circle105" />
	<circle
   cx="9.75"
   cy="49.799999"
   r="0.60000002"
   id="circle106" />
	<circle
   cx="11.05"
   cy="47.299999"
   r="0.60000002"
   id="circle107" />
	<circle
   cx="8.5500002"
   cy="47.299999"
   r="0.60000002"
   id="circle108" />
	<circle
   cx="9.75"
   cy="44.799999"
   r="0.60000002"
   id="circle109" />
	<circle
   cx="7.25"
   cy="44.799999"
   r="0.60000002"
   id="circle110" />
	<circle
   cx="11.05"
   cy="42.299999"
   r="0.60000002"
   id="circle111" />
	<circle
   cx="8.5500002"
   cy="42.299999"
   r="0.60000002"
   id="circle112" />
	<circle
   cx="9.75"
   cy="39.799999"
   r="0.60000002"
   id="circle113" />
	<circle
   cx="7.25"
   cy="39.799999"
   r="0.60000002"
   id="circle114" />
	<circle
   cx="11.05"
   cy="37.299999"
   r="0.60000002"
   id="circle115" />
	<circle
   cx="8.5500002"
   cy="37.299999"
   r="0.60000002"
   id="circle116" />
	<circle
   cx="9.75"
   cy="34.799999"
   r="0.60000002"
   id="circle117" />
	<circle
   cx="11.05"
   cy="32.299999"
   r="0.60000002"
   id="circle118" />
	<circle
   cx="8.5500002"
   cy="32.299999"
   r="0.60000002"
   id="circle119" />
	<circle
   cx="9.75"
   cy="29.799999"
   r="0.60000002"
   id="circle120" />
	<circle
   cx="11.05"
   cy="27.299999"
   r="0.60000002"
   id="circle121" />
	<circle
   cx="8.5500002"
   cy="27.299999"
   r="0.60000002"
   id="circle122" />
	<circle
   cx="9.75"
   cy="24.799999"
   r="0.60000002"
   id="circle123" />
	<circle
   cx="11.05"
   cy="22.299999"
   r="0.60000002"
   id="circle124" />
	<circle
   cx="8.5500002"
   cy="22.299999"
   r="0.60000002"
   id="circle125" />
	<circle
   cx="9.75"
   cy="19.799999"
   r="0.60000002"
   id="circle126" />
	<circle
   cx="7.25"
   cy="19.799999"
   r="0.60000002"
   id="circle127" />
	<circle
   cx="11.05"
   cy="17.299999"
   r="0.60000002"
   id="circle128" />
	<circle
   cx="8.5500002"
   cy="17.299999"
   r="0.60000002"
   id="circle129" />
	<circle
   cx="6.0500002"
   cy="42.299999"
   r="0.60000002"
   id="circle130" />
	<circle
   cx="4.75"
   cy="39.799999"
   r="0.60000002"
   id="circle131" />
	<circle
   cx="6.0500002"
   cy="37.299999"
   r="0.60000002"
   id="circle132" />
	<circle
   cx="3.55"
   cy="37.299999"
   r="0.60000002"
   id="circle133" />
	<circle
   cx="7.25"
   cy="34.799999"
   r="0.60000002"
   id="circle134" />
	<circle
   cx="4.75"
   cy="34.799999"
   r="0.60000002"
   id="circle135" />
	<circle
   cx="2.25"
   cy="34.799999"
   r="0.60000002"
   id="circle136" />
	<circle
   cx="6.0500002"
   cy="32.299999"
   r="0.60000002"
   id="circle137" />
	<circle
   cx="3.55"
   cy="32.299999"
   r="0.60000002"
   id="circle138" />
	<circle
   cx="7.25"
   cy="29.799999"
   r="0.60000002"
   id="circle139" />
	<circle
   cx="4.75"
   cy="29.799999"
   r="0.60000002"
   id="circle140" />
	<circle
   cx="2.25"
   cy="29.799999"
   r="0.60000002"
   id="circle141" />
	<circle
   cx="6.0500002"
   cy="27.299999"
   r="0.60000002"
   id="circle142" />
	<circle
   cx="3.55"
   cy="27.299999"
   r="0.60000002"
   id="circle143" />
	<circle
   cx="7.25"
   cy="24.799999"
   r="0.60000002"
   id="circle144" />
	<circle
   cx="4.75"
   cy="24.799999"
   r="0.60000002"
   id="circle145" />
	<circle
   cx="2.25"
   cy="24.799999"
   r="0.60000002"
   id="circle146" />
	<circle
   cx="6.0500002"
   cy="22.299999"
   r="0.60000002"
   id="circle147" />
	<circle
   cx="3.55"
   cy="22.299999"
   r="0.60000002"
   id="circle148" />
	<circle
   cx="4.75"
   cy="19.799999"
   r="0.60000002"
   id="circle149" />
	<circle
   cx="6.0500002"
   cy="17.299999"
   r="0.60000002"
   id="circle150" />
	<path
   style="fill:#00af6b"
   d="m 43.15,26.7 c -2,0 -2,-1.6 -4.1,-1.6 -2.1,0 -2,1.6 -4.1,1.6 -2.1,0 -2,-1.6 -4.1,-1.6 -2.1,0 -2,1.6 -4.1,1.6 -2.1,0 -2,-1.6 -4.1,-1.6 -2.1,0 -2,1.6 -4.1,1.6 -2.1,0 -2,-1.6 -4,-1.6 v 0 23.6 h 32.5 v -23.6 0 0 c -2,0 -2,1.6 -4.1,1.6 z"
   id="path150" />
	<path
   d="m 6.985,15.6 h 48.031 c -0.5,-0.9 -1,-1.7 -1.6,-2.5 H 8.585 c -0.6,0.8 -1.1,1.6 -1.6,2.5 z"
   id="path151" />
</g>
</svg>
