<?xml version="1.0" encoding="UTF-8" standalone="no"?>
<svg
   id="Layer_1"
   version="1.1"
   viewBox="0 0 62 62"
   sodipodi:docname="wwn013_b.svg"
   width="62"
   height="62"
   inkscape:version="1.3.2 (091e20e, 2023-11-25, custom)"
   xmlns:inkscape="http://www.inkscape.org/namespaces/inkscape"
   xmlns:sodipodi="http://sodipodi.sourceforge.net/DTD/sodipodi-0.dtd"
   xmlns="http://www.w3.org/2000/svg"
   xmlns:svg="http://www.w3.org/2000/svg">
  <sodipodi:namedview
     id="namedview3"
     pagecolor="#ffffff"
     bordercolor="#000000"
     borderopacity="0.25"
     inkscape:showpageshadow="2"
     inkscape:pageopacity="0.0"
     inkscape:pagecheckerboard="0"
     inkscape:deskcolor="#d1d1d1"
     inkscape:zoom="29.33871"
     inkscape:cx="30.982958"
     inkscape:cy="31"
     inkscape:window-width="3840"
     inkscape:window-height="2054"
     inkscape:window-x="2869"
     inkscape:window-y="-11"
     inkscape:window-maximized="1"
     inkscape:current-layer="Layer_1" />
  <!-- Generator: Adobe Illustrator 29.3.1, SVG Export Plug-In . SVG Version: 2.1.0 Build 151)  -->
  <defs
     id="defs1">
    <style
       id="style1">
      .st0 {
        fill: #00af6b;
      }
    </style>
  </defs>
  <path
     d="M 31,3 C 46.4,3 59,15.6 59,31 59,46.4 46.4,59 31,59 15.6,59 3,46.4 3,31 3,15.6 15.6,3 31,3 M 31,0 C 13.9,0 0,13.9 0,31 0,48.1 13.9,62 31,62 48.1,62 62,48.1 62,31 62,13.9 48.1,0 31,0 Z"
     id="path1" />
  <g
     id="g3">
    <path
       class="st0"
       d="m 43,29.5 v -4 h -5 v -3 h -5 v -5 c 0,0 1.8,0 1.8,0 0.5,0.6 1.3,1 2.2,1 1.7,0 3,-1.3 3,-3 0,-1.7 -1.3,-3 -3,-3 -1.7,0 -1.6,0.4 -2.2,0.9 h -7.7 c -0.5,-0.6 -1.3,-0.9 -2.2,-0.9 -1.7,0 -3,1.3 -3,3 0,1.7 1.3,3 3,3 1.7,0 1.7,-0.4 2.2,-1 h 1.8 c 0,0 0,5.4 0,5.4 -4.6,1.3 -8,5.5 -8,10.6 v 12 c 2.1,0.9 3.9,1 5,1 2.2,0 4,-0.6 5,-1 v -12 c 0,-0.6 0.4,-1 1,-1 h 6 v -3 h 5 z"
       id="path2" />
    <rect
       class="st0"
       x="40"
       y="22.5"
       width="6"
       height="3"
       id="rect2" />
    <rect
       class="st0"
       x="40"
       y="29.5"
       width="6"
       height="3"
       id="rect3" />
    <path
       class="st0"
       d="m 32,44.1 v 2.1 l -0.6,0.3 c -1.7,0.7 -3.5,1.1 -5.4,1.1 -1.9,0 -3.7,-0.4 -5.4,-1.1 L 20,46.2 v -2.1 c -2.4,0.5 -4,1.4 -4,2.4 0,1.7 4.5,3 10,3 5.5,0 10,-1.3 10,-3 0,-1.7 -1.6,-1.8 -4,-2.4 z"
       id="path3" />
  </g>
</svg>
