<?xml version="1.0" encoding="UTF-8" standalone="no"?>
<!-- Generator: Adobe Illustrator 29.4.0, SVG Export Plug-In . SVG Version: 9.03 Build 0)  -->

<svg
   version="1.1"
   id="Layer_1"
   x="0px"
   y="0px"
   viewBox="0 0 66 66"
   xml:space="preserve"
   sodipodi:docname="wwn010_a.svg"
   width="66"
   height="66"
   inkscape:version="1.3.2 (091e20e, 2023-11-25, custom)"
   xmlns:inkscape="http://www.inkscape.org/namespaces/inkscape"
   xmlns:sodipodi="http://sodipodi.sourceforge.net/DTD/sodipodi-0.dtd"
   xmlns="http://www.w3.org/2000/svg"
   xmlns:svg="http://www.w3.org/2000/svg"><defs
   id="defs153" /><sodipodi:namedview
   id="namedview153"
   pagecolor="#ffffff"
   bordercolor="#000000"
   borderopacity="0.25"
   inkscape:showpageshadow="2"
   inkscape:pageopacity="0.0"
   inkscape:pagecheckerboard="0"
   inkscape:deskcolor="#d1d1d1"
   inkscape:zoom="27.560606"
   inkscape:cx="32.981858"
   inkscape:cy="33"
   inkscape:window-width="3840"
   inkscape:window-height="2054"
   inkscape:window-x="2869"
   inkscape:window-y="-11"
   inkscape:window-maximized="1"
   inkscape:current-layer="Layer_1" />
<g
   id="g153">
	<path
   style="fill:#ffffff"
   d="M 33,0 C 14.8,0 0,14.8 0,33 0,51.2 14.8,66 33,66 51.2,66 66,51.2 66,33 66,14.8 51.2,0 33,0 Z"
   id="path1" />
	<path
   d="M 33,5 C 48.4,5 61,17.6 61,33 61,48.4 48.4,61 33,61 17.6,61 5,48.4 5,33 5,17.6 17.6,5 33,5 M 33,2 C 15.9,2 2,15.9 2,33 2,50.1 15.9,64 33,64 50.1,64 64,50.1 64,33 64,15.9 50.1,2 33,2 Z"
   id="path2" />
	<g
   id="g152">
		<circle
   cx="59.299999"
   cy="41.799999"
   r="0.60000002"
   id="circle2" />
		<circle
   cx="60.599998"
   cy="39.299999"
   r="0.60000002"
   id="circle3" />
		<circle
   cx="61.799999"
   cy="36.799999"
   r="0.60000002"
   id="circle4" />
		<circle
   cx="60.599998"
   cy="34.299999"
   r="0.60000002"
   id="circle5" />
		<circle
   cx="61.799999"
   cy="31.799999"
   r="0.60000002"
   id="circle6" />
		<circle
   cx="60.599998"
   cy="29.299999"
   r="0.60000002"
   id="circle7" />
		<circle
   cx="61.799999"
   cy="26.799999"
   r="0.60000002"
   id="circle8" />
		<circle
   cx="60.599998"
   cy="24.299999"
   r="0.60000002"
   id="circle9" />
		<circle
   cx="59.299999"
   cy="21.799999"
   r="0.60000002"
   id="circle10" />
		<circle
   cx="55.599998"
   cy="49.299999"
   r="0.60000002"
   id="circle11" />
		<circle
   cx="56.799999"
   cy="46.799999"
   r="0.60000002"
   id="circle12" />
		<circle
   cx="58.099998"
   cy="44.299999"
   r="0.60000002"
   id="circle13" />
		<circle
   cx="55.599998"
   cy="44.299999"
   r="0.60000002"
   id="circle14" />
		<circle
   cx="56.799999"
   cy="41.799999"
   r="0.60000002"
   id="circle15" />
		<circle
   cx="58.099998"
   cy="39.299999"
   r="0.60000002"
   id="circle16" />
		<circle
   cx="55.599998"
   cy="39.299999"
   r="0.60000002"
   id="circle17" />
		<circle
   cx="59.299999"
   cy="36.799999"
   r="0.60000002"
   id="circle18" />
		<circle
   cx="56.799999"
   cy="36.799999"
   r="0.60000002"
   id="circle19" />
		<circle
   cx="58.099998"
   cy="34.299999"
   r="0.60000002"
   id="circle20" />
		<circle
   cx="55.599998"
   cy="34.299999"
   r="0.60000002"
   id="circle21" />
		<circle
   cx="59.299999"
   cy="31.799999"
   r="0.60000002"
   id="circle22" />
		<circle
   cx="56.799999"
   cy="31.799999"
   r="0.60000002"
   id="circle23" />
		<circle
   cx="58.099998"
   cy="29.299999"
   r="0.60000002"
   id="circle24" />
		<circle
   cx="55.599998"
   cy="29.299999"
   r="0.60000002"
   id="circle25" />
		<circle
   cx="59.299999"
   cy="26.799999"
   r="0.60000002"
   id="circle26" />
		<circle
   cx="56.799999"
   cy="26.799999"
   r="0.60000002"
   id="circle27" />
		<circle
   cx="58.099998"
   cy="24.299999"
   r="0.60000002"
   id="circle28" />
		<circle
   cx="55.599998"
   cy="24.299999"
   r="0.60000002"
   id="circle29" />
		<circle
   cx="56.799999"
   cy="21.799999"
   r="0.60000002"
   id="circle30" />
		<circle
   cx="54.299999"
   cy="21.799999"
   r="0.60000002"
   id="circle31" />
		<circle
   cx="58.099998"
   cy="19.299999"
   r="0.60000002"
   id="circle32" />
		<circle
   cx="55.599998"
   cy="19.299999"
   r="0.60000002"
   id="circle33" />
		<circle
   cx="49.299999"
   cy="56.799999"
   r="0.60000002"
   id="circle34" />
		<circle
   cx="53.099998"
   cy="54.299999"
   r="0.60000002"
   id="circle35" />
		<circle
   cx="50.599998"
   cy="54.299999"
   r="0.60000002"
   id="circle36" />
		<circle
   cx="54.299999"
   cy="51.799999"
   r="0.60000002"
   id="circle37" />
		<circle
   cx="51.799999"
   cy="51.799999"
   r="0.60000002"
   id="circle38" />
		<circle
   cx="53.099998"
   cy="49.299999"
   r="0.60000002"
   id="circle39" />
		<circle
   cx="54.299999"
   cy="46.799999"
   r="0.60000002"
   id="circle40" />
		<circle
   cx="51.799999"
   cy="46.799999"
   r="0.60000002"
   id="circle41" />
		<circle
   cx="53.099998"
   cy="44.299999"
   r="0.60000002"
   id="circle42" />
		<circle
   cx="54.299999"
   cy="41.799999"
   r="0.60000002"
   id="circle43" />
		<circle
   cx="51.799999"
   cy="41.799999"
   r="0.60000002"
   id="circle44" />
		<circle
   cx="53.099998"
   cy="39.299999"
   r="0.60000002"
   id="circle45" />
		<circle
   cx="54.299999"
   cy="36.799999"
   r="0.60000002"
   id="circle46" />
		<circle
   cx="51.799999"
   cy="36.799999"
   r="0.60000002"
   id="circle47" />
		<circle
   cx="53.099998"
   cy="34.299999"
   r="0.60000002"
   id="circle48" />
		<circle
   cx="54.299999"
   cy="31.799999"
   r="0.60000002"
   id="circle49" />
		<circle
   cx="51.799999"
   cy="31.799999"
   r="0.60000002"
   id="circle50" />
		<circle
   cx="53.099998"
   cy="29.299999"
   r="0.60000002"
   id="circle51" />
		<circle
   cx="54.299999"
   cy="26.799999"
   r="0.60000002"
   id="circle52" />
		<circle
   cx="51.799999"
   cy="26.799999"
   r="0.60000002"
   id="circle53" />
		<circle
   cx="53.099998"
   cy="24.299999"
   r="0.60000002"
   id="circle54" />
		<circle
   cx="51.799999"
   cy="21.799999"
   r="0.60000002"
   id="circle55" />
		<circle
   cx="53.099998"
   cy="19.299999"
   r="0.60000002"
   id="circle56" />
		<circle
   cx="50.599998"
   cy="19.299999"
   r="0.60000002"
   id="circle57" />
		<circle
   cx="45.599998"
   cy="59.299999"
   r="0.60000002"
   id="circle58" />
		<circle
   cx="46.799999"
   cy="56.799999"
   r="0.60000002"
   id="circle59" />
		<circle
   cx="48.099998"
   cy="54.299999"
   r="0.60000002"
   id="circle60" />
		<circle
   cx="45.599998"
   cy="54.299999"
   r="0.60000002"
   id="circle61" />
		<circle
   cx="48.099998"
   cy="19.299999"
   r="0.60000002"
   id="circle62" />
		<circle
   cx="43.099998"
   cy="59.299999"
   r="0.60000002"
   id="circle63" />
		<circle
   cx="40.599998"
   cy="59.299999"
   r="0.60000002"
   id="circle64" />
		<circle
   cx="44.299999"
   cy="56.799999"
   r="0.60000002"
   id="circle65" />
		<circle
   cx="41.799999"
   cy="56.799999"
   r="0.60000002"
   id="circle66" />
		<circle
   cx="39.299999"
   cy="56.799999"
   r="0.60000002"
   id="circle67" />
		<circle
   cx="43.099998"
   cy="54.299999"
   r="0.60000002"
   id="circle68" />
		<circle
   cx="40.599998"
   cy="54.299999"
   r="0.60000002"
   id="circle69" />
		<circle
   cx="38.099998"
   cy="59.299999"
   r="0.60000002"
   id="circle70" />
		<circle
   cx="35.599998"
   cy="59.299999"
   r="0.60000002"
   id="circle71" />
		<circle
   cx="36.799999"
   cy="56.799999"
   r="0.60000002"
   id="circle72" />
		<circle
   cx="34.299999"
   cy="56.799999"
   r="0.60000002"
   id="circle73" />
		<circle
   cx="38.099998"
   cy="54.299999"
   r="0.60000002"
   id="circle74" />
		<circle
   cx="35.599998"
   cy="54.299999"
   r="0.60000002"
   id="circle75" />
		<circle
   cx="33.099998"
   cy="59.299999"
   r="0.60000002"
   id="circle76" />
		<circle
   cx="30.6"
   cy="59.299999"
   r="0.60000002"
   id="circle77" />
		<circle
   cx="31.799999"
   cy="56.799999"
   r="0.60000002"
   id="circle78" />
		<circle
   cx="29.299999"
   cy="56.799999"
   r="0.60000002"
   id="circle79" />
		<circle
   cx="33.099998"
   cy="54.299999"
   r="0.60000002"
   id="circle80" />
		<circle
   cx="30.6"
   cy="54.299999"
   r="0.60000002"
   id="circle81" />
		<circle
   cx="28.1"
   cy="59.299999"
   r="0.60000002"
   id="circle82" />
		<circle
   cx="25.6"
   cy="59.299999"
   r="0.60000002"
   id="circle83" />
		<circle
   cx="26.799999"
   cy="56.799999"
   r="0.60000002"
   id="circle84" />
		<circle
   cx="24.299999"
   cy="56.799999"
   r="0.60000002"
   id="circle85" />
		<circle
   cx="28.1"
   cy="54.299999"
   r="0.60000002"
   id="circle86" />
		<circle
   cx="25.6"
   cy="54.299999"
   r="0.60000002"
   id="circle87" />
		<circle
   cx="23.1"
   cy="59.299999"
   r="0.60000002"
   id="circle88" />
		<circle
   cx="20.6"
   cy="59.299999"
   r="0.60000002"
   id="circle89" />
		<circle
   cx="21.799999"
   cy="56.799999"
   r="0.60000002"
   id="circle90" />
		<circle
   cx="23.1"
   cy="54.299999"
   r="0.60000002"
   id="circle91" />
		<circle
   cx="20.6"
   cy="54.299999"
   r="0.60000002"
   id="circle92" />
		<path
   d="m 20.6,18.7 c -0.3,0 -0.6,0.3 -0.6,0.6 0,0.3 0,0.3 0.2,0.5 -1.1,0.4 -2,1 -2.8,1.8 -0.1,-0.2 -0.3,-0.4 -0.6,-0.4 -0.3,0 -0.6,0.3 -0.6,0.6 0,0.3 0.2,0.5 0.5,0.6 -0.3,0.4 -0.5,0.9 -0.7,1.4 -0.1,0 -0.2,-0.1 -0.4,-0.1 -0.3,0 -0.6,0.3 -0.6,0.6 0,0.3 0.3,0.6 0.6,0.6 0.3,0 0,0 0,0 0,0.4 -0.1,0.9 -0.1,1.3 v 2.4 c -0.3,0 -0.5,0.3 -0.5,0.6 0,0.3 0.2,0.6 0.5,0.6 v 3.8 c -0.3,0 -0.5,0.3 -0.5,0.6 0,0.3 0.2,0.6 0.5,0.6 v 3.8 c -0.3,0 -0.5,0.3 -0.5,0.6 0,0.3 0.2,0.6 0.5,0.6 v 3.8 c -0.3,0 -0.5,0.3 -0.5,0.6 0,0.3 0.2,0.6 0.5,0.6 v 3.8 c -0.3,0 -0.5,0.3 -0.5,0.6 0,0.3 0.2,0.6 0.5,0.6 v 1.9 h 0.7 c 0,0.3 0.3,0.6 0.6,0.6 0.3,0 0.6,-0.3 0.6,-0.6 h 1.3 c 0,0.3 0.3,0.6 0.6,0.6 0.3,0 0.6,-0.3 0.6,-0.6 h 1.3 c 0,0.3 0.3,0.6 0.6,0.6 0.3,0 0.6,-0.3 0.6,-0.6 h 1.3 c 0,0.3 0.3,0.6 0.6,0.6 0.3,0 0.6,-0.3 0.6,-0.6 h 1.3 c 0,0.3 0.3,0.6 0.6,0.6 0.3,0 0.6,-0.3 0.6,-0.6 h 1.3 c 0,0.3 0.3,0.6 0.6,0.6 0.3,0 0.6,-0.3 0.6,-0.6 h 1.3 c 0,0.3 0.3,0.6 0.6,0.6 0.3,0 0.6,-0.3 0.6,-0.6 h 1.3 c 0,0.3 0.3,0.6 0.6,0.6 0.3,0 0.6,-0.3 0.6,-0.6 h 1.3 c 0,0.3 0.3,0.6 0.6,0.6 0.3,0 0.6,-0.3 0.6,-0.6 h 1.3 c 0,0.3 0.3,0.6 0.6,0.6 0.3,0 0.6,-0.3 0.6,-0.6 h 1.3 c 0,0.3 0.3,0.6 0.6,0.6 0.3,0 0.6,-0.3 0.6,-0.6 h 1.3 c 0,0.3 0.3,0.6 0.6,0.6 0.3,0 0.6,-0.3 0.6,-0.6 h 1.3 c 0,0.3 0.3,0.6 0.6,0.6 0.3,0 0.6,-0.3 0.6,-0.6 h 1.3 c 0,0.3 0.3,0.6 0.6,0.6 0.3,0 0.6,-0.3 0.6,-0.6 h 0.5 v -1.9 0 c 0.3,0 0.6,-0.3 0.6,-0.6 0,-0.3 -0.3,-0.6 -0.6,-0.6 -0.3,0 0,0 0,0 v -3.8 0 c 0.3,0 0.6,-0.3 0.6,-0.6 0,-0.3 -0.3,-0.6 -0.6,-0.6 -0.3,0 0,0 0,0 v -3.8 0 c 0.3,0 0.6,-0.3 0.6,-0.6 0,-0.3 -0.3,-0.6 -0.6,-0.6 -0.3,0 0,0 0,0 v -3.8 0 c 0.3,0 0.6,-0.3 0.6,-0.6 0,-0.3 -0.3,-0.6 -0.6,-0.6 -0.3,0 0,0 0,0 v -3.8 0 c 0.3,0 0.6,-0.3 0.6,-0.6 0,-0.3 -0.3,-0.6 -0.6,-0.6 -0.3,0 0,0 0,0 v -2.4 c 0,-0.5 0,-0.9 -0.1,-1.4 0,0 0.1,0 0.2,0 0.3,0 0.6,-0.3 0.6,-0.6 0,-0.3 -0.3,-0.6 -0.6,-0.6 -0.3,0 -0.4,0.1 -0.5,0.3 -0.2,-0.5 -0.4,-1.1 -0.8,-1.5 v 0 c 0.3,0 0.6,-0.3 0.6,-0.6 0,-0.3 -0.3,-0.6 -0.6,-0.6 -0.3,0 -0.5,0.2 -0.6,0.5 -0.8,-0.8 -1.7,-1.5 -2.8,-1.9 0.2,-0.1 0.3,-0.3 0.3,-0.5 0,-0.3 -0.3,-0.6 -0.6,-0.6 -0.3,0 -0.6,0.3 -0.6,0.6 0,0.3 0,0.2 0,0.2 -0.2,0 -0.5,0 -0.8,-0.1 V 17.5 H 21.6 v 1.9 c -0.2,0 -0.4,0 -0.6,0 0,0 0,-0.1 0,-0.2 0,-0.3 -0.3,-0.6 -0.6,-0.6 z m 28.5,32 H 16.7 v -23.6 0 -0.8 c 0,-3.1 2.5,-5.6 5.6,-5.6 h 21.2 c 3.1,0 5.6,2.5 5.6,5.6 z"
   id="path92" />
		<circle
   cx="19.299999"
   cy="56.799999"
   r="0.60000002"
   id="circle93" />
		<circle
   cx="16.799999"
   cy="56.799999"
   r="0.60000002"
   id="circle94" />
		<circle
   cx="15.6"
   cy="54.299999"
   r="0.60000002"
   id="circle95" />
		<circle
   cx="18.1"
   cy="54.299999"
   r="0.60000002"
   id="circle96" />
		<circle
   cx="14.3"
   cy="51.799999"
   r="0.60000002"
   id="circle97" />
		<circle
   cx="14.3"
   cy="46.799999"
   r="0.60000002"
   id="circle98" />
		<circle
   cx="14.3"
   cy="41.799999"
   r="0.60000002"
   id="circle99" />
		<circle
   cx="14.3"
   cy="36.799999"
   r="0.60000002"
   id="circle100" />
		<circle
   cx="14.3"
   cy="31.799999"
   r="0.60000002"
   id="circle101" />
		<circle
   cx="14.3"
   cy="26.799999"
   r="0.60000002"
   id="circle102" />
		<circle
   cx="14.3"
   cy="21.799999"
   r="0.60000002"
   id="circle103" />
		<circle
   cx="18.1"
   cy="19.299999"
   r="0.60000002"
   id="circle104" />
		<circle
   cx="15.6"
   cy="19.299999"
   r="0.60000002"
   id="circle105" />
		<circle
   cx="13.1"
   cy="54.299999"
   r="0.60000002"
   id="circle106" />
		<circle
   cx="11.8"
   cy="51.799999"
   r="0.60000002"
   id="circle107" />
		<circle
   cx="13.1"
   cy="49.299999"
   r="0.60000002"
   id="circle108" />
		<circle
   cx="10.6"
   cy="49.299999"
   r="0.60000002"
   id="circle109" />
		<circle
   cx="11.8"
   cy="46.799999"
   r="0.60000002"
   id="circle110" />
		<circle
   cx="9.3000002"
   cy="46.799999"
   r="0.60000002"
   id="circle111" />
		<circle
   cx="13.1"
   cy="44.299999"
   r="0.60000002"
   id="circle112" />
		<circle
   cx="10.6"
   cy="44.299999"
   r="0.60000002"
   id="circle113" />
		<circle
   cx="11.8"
   cy="41.799999"
   r="0.60000002"
   id="circle114" />
		<circle
   cx="9.3000002"
   cy="41.799999"
   r="0.60000002"
   id="circle115" />
		<circle
   cx="13.1"
   cy="39.299999"
   r="0.60000002"
   id="circle116" />
		<circle
   cx="10.6"
   cy="39.299999"
   r="0.60000002"
   id="circle117" />
		<circle
   cx="11.8"
   cy="36.799999"
   r="0.60000002"
   id="circle118" />
		<circle
   cx="13.1"
   cy="34.299999"
   r="0.60000002"
   id="circle119" />
		<circle
   cx="10.6"
   cy="34.299999"
   r="0.60000002"
   id="circle120" />
		<circle
   cx="11.8"
   cy="31.799999"
   r="0.60000002"
   id="circle121" />
		<circle
   cx="13.1"
   cy="29.299999"
   r="0.60000002"
   id="circle122" />
		<circle
   cx="10.6"
   cy="29.299999"
   r="0.60000002"
   id="circle123" />
		<circle
   cx="11.8"
   cy="26.799999"
   r="0.60000002"
   id="circle124" />
		<circle
   cx="13.1"
   cy="24.299999"
   r="0.60000002"
   id="circle125" />
		<circle
   cx="10.6"
   cy="24.299999"
   r="0.60000002"
   id="circle126" />
		<circle
   cx="11.8"
   cy="21.799999"
   r="0.60000002"
   id="circle127" />
		<circle
   cx="9.3000002"
   cy="21.799999"
   r="0.60000002"
   id="circle128" />
		<circle
   cx="13.1"
   cy="19.299999"
   r="0.60000002"
   id="circle129" />
		<circle
   cx="10.6"
   cy="19.299999"
   r="0.60000002"
   id="circle130" />
		<circle
   cx="8.1000004"
   cy="44.299999"
   r="0.60000002"
   id="circle131" />
		<circle
   cx="6.8000002"
   cy="41.799999"
   r="0.60000002"
   id="circle132" />
		<circle
   cx="8.1000004"
   cy="39.299999"
   r="0.60000002"
   id="circle133" />
		<circle
   cx="5.5999999"
   cy="39.299999"
   r="0.60000002"
   id="circle134" />
		<circle
   cx="9.3000002"
   cy="36.799999"
   r="0.60000002"
   id="circle135" />
		<circle
   cx="6.8000002"
   cy="36.799999"
   r="0.60000002"
   id="circle136" />
		<circle
   cx="4.3000002"
   cy="36.799999"
   r="0.60000002"
   id="circle137" />
		<circle
   cx="8.1000004"
   cy="34.299999"
   r="0.60000002"
   id="circle138" />
		<circle
   cx="5.5999999"
   cy="34.299999"
   r="0.60000002"
   id="circle139" />
		<circle
   cx="9.3000002"
   cy="31.799999"
   r="0.60000002"
   id="circle140" />
		<circle
   cx="6.8000002"
   cy="31.799999"
   r="0.60000002"
   id="circle141" />
		<circle
   cx="4.3000002"
   cy="31.799999"
   r="0.60000002"
   id="circle142" />
		<circle
   cx="8.1000004"
   cy="29.299999"
   r="0.60000002"
   id="circle143" />
		<circle
   cx="5.5999999"
   cy="29.299999"
   r="0.60000002"
   id="circle144" />
		<circle
   cx="9.3000002"
   cy="26.799999"
   r="0.60000002"
   id="circle145" />
		<circle
   cx="6.8000002"
   cy="26.799999"
   r="0.60000002"
   id="circle146" />
		<circle
   cx="4.3000002"
   cy="26.799999"
   r="0.60000002"
   id="circle147" />
		<circle
   cx="8.1000004"
   cy="24.299999"
   r="0.60000002"
   id="circle148" />
		<circle
   cx="5.5999999"
   cy="24.299999"
   r="0.60000002"
   id="circle149" />
		<circle
   cx="6.8000002"
   cy="21.799999"
   r="0.60000002"
   id="circle150" />
		<circle
   cx="8.1000004"
   cy="19.299999"
   r="0.60000002"
   id="circle151" />
		<path
   style="fill:#29abe2"
   d="m 45.2,28.7 c -2,0 -2,-1.6 -4.1,-1.6 -2.1,0 -2,1.6 -4.1,1.6 -2.1,0 -2,-1.6 -4.1,-1.6 -2.1,0 -2,1.6 -4.1,1.6 -2.1,0 -2,-1.6 -4.1,-1.6 -2.1,0 -2,1.6 -4.1,1.6 -2.1,0 -2,-1.6 -4,-1.6 v 0 23.6 h 32.5 v -23.6 0 0 c -2,0 -2,1.6 -4.1,1.6 z"
   id="path151" />
		<path
   d="m 6.1,17.6 h 53.7 c -0.5,-0.9 -1,-1.7 -1.6,-2.5 H 7.7 c -0.6,0.8 -1.1,1.6 -1.6,2.5 z"
   id="path152" />
	</g>
</g>
</svg>
