<?xml version="1.0" encoding="UTF-8" standalone="no"?>
<!-- Generator: Adobe Illustrator 29.4.0, SVG Export Plug-In . SVG Version: 9.03 Build 0)  -->

<svg
   version="1.1"
   id="Layer_1"
   x="0px"
   y="0px"
   viewBox="0 0 60.005187 53.800179"
   xml:space="preserve"
   sodipodi:docname="wwn016_c.svg"
   width="60.005188"
   height="53.800179"
   inkscape:version="1.3.2 (091e20e, 2023-11-25, custom)"
   xmlns:inkscape="http://www.inkscape.org/namespaces/inkscape"
   xmlns:sodipodi="http://sodipodi.sourceforge.net/DTD/sodipodi-0.dtd"
   xmlns="http://www.w3.org/2000/svg"
   xmlns:svg="http://www.w3.org/2000/svg"><defs
   id="defs3" /><sodipodi:namedview
   id="namedview3"
   pagecolor="#ffffff"
   bordercolor="#000000"
   borderopacity="0.25"
   inkscape:showpageshadow="2"
   inkscape:pageopacity="0.0"
   inkscape:pagecheckerboard="0"
   inkscape:deskcolor="#d1d1d1"
   inkscape:zoom="33.810409"
   inkscape:cx="29.990764"
   inkscape:cy="26.9"
   inkscape:window-width="3840"
   inkscape:window-height="2054"
   inkscape:window-x="2869"
   inkscape:window-y="-11"
   inkscape:window-maximized="1"
   inkscape:current-layer="Layer_1" />
<path
   style="fill:#ffffff"
   d="m 59.937,21.904177 c -0.118,-0.962 -0.908,-1.695 -1.864,-1.753 l -0.165,-0.028 c -0.295,-0.052 -0.698,-0.123 -1.108,-0.123 -1.864,0 -2.882,0.814 -3.556,1.353 -0.478,0.383 -0.568,0.447 -0.944,0.447 -0.396,0 -0.516,-0.083 -1.017,-0.475 -0.675,-0.528 -1.693,-1.325 -3.483,-1.325 -1.789,0 -2.808,0.797 -3.481,1.325 -0.503,0.392 -0.623,0.475 -1.019,0.475 -0.396,0 -0.516,-0.083 -1.017,-0.475 -0.398,-0.311 -0.921,-0.713 -1.646,-0.993 L 53.354,7.6141769 c 0.725,-0.725 0.784,-1.88 0.139,-2.675 -1.384,-1.702 -2.898,-3.216 -4.504,-4.50000002 -0.797,-0.637 -1.945,-0.571 -2.663,0.148 L 30.141,16.771177 13.955,0.58617688 c -0.724,-0.725 -1.88,-0.785 -2.675,-0.138 C 9.577,1.8311769 8.063,3.3461769 6.78,4.9511769 c -0.637,0.795 -0.574,1.943 0.147,2.663 L 19.48,20.167177 c -1.005,0.261 -1.676,0.778 -2.162,1.158 -0.502,0.392 -0.621,0.475 -1.018,0.475 -0.397,0 -0.517,-0.083 -1.018,-0.475 -0.674,-0.528 -1.693,-1.325 -3.482,-1.325 -1.79,0 -2.809,0.797 -3.483,1.325 -0.501,0.392 -0.62,0.475 -1.017,0.475 -0.397,0 -0.517,-0.083 -1.018,-0.475 -0.674,-0.528 -1.693,-1.325 -3.482,-1.325 -0.68,0 -1.232,0.096 -1.64,0.284 -0.707,0.328 -1.16,1.036 -1.16,1.816 v 1.7 c 0,6.982 2.404,13.409 6.419,18.513 0.057,0.105 0.123,0.207 0.2,0.303 1.295,1.611 2.811,3.124 4.504,4.496 0.023,0.019 0.051,0.024 0.075,0.042 5.148,4.152 11.688,6.646 18.802,6.646 7.128,0 13.681,-2.504 18.833,-6.667 0.03,-0.022 0.062,-0.038 0.091,-0.061 1.692,-1.378 3.205,-2.893 4.495,-4.502 0.066,-0.082 0.12,-0.171 0.171,-0.26 4.009,-5.093 6.409,-11.502 6.408,-18.455 0.005,-0.12 0.031,-1.194 -0.061,-1.951 z"
   id="path1" />
<path
   style="fill:#00af6b"
   d="m 57.951,22.148177 c -0.2,0 -0.751,-0.148 -1.151,-0.148 -2.3,0 -2.3,1.8 -4.5,1.8 -2.2,0 -2.3,-1.8 -4.5,-1.8 -2.2,0 -2.3,1.8 -4.5,1.8 -2.2,0 -2.3,-1.8 -4.5,-1.8 -2.2,0 -2.3,1.8 -4.5,1.8 -2.2,0 -2.3,-1.8 -4.5,-1.8 -2.2,0 -2.3,1.8 -4.5,1.8 -2.2,0 -2.3,-1.8 -4.5,-1.8 -2.2,0 -2.3,1.8 -4.5,1.8 -2.2,0 -2.3,-1.8 -4.5,-1.8 -2.2,0 -2.3,1.8 -4.5,1.8 -2.2,0 -2.3,-1.8 -4.5,-1.8 -0.585,0 -0.8,0.1 -0.8,0.1 0,0.6 0,1.1 0,1.7 0,15.5 12.5,28 28,28 15.5,0 28,-12.5 28,-28 0,0 0.028,-1.023 -0.049,-1.652 z"
   id="path2" />
<path
   style="fill:#e4151c"
   d="m 12.383,45.558177 17.658,-17.658 17.621,17.621 c 1.54,-1.253 2.956,-2.653 4.197,-4.203 l -17.518,-17.518 17.6,-17.6000001 c -1.3,-1.6 -2.7,-3 -4.2,-4.2 L 30.141,19.600177 12.541,2.0001769 c -1.6,1.3 -3,2.7 -4.2,4.2 l 17.5,17.5000001 -17.663,17.662 c 1.245,1.548 2.662,2.946 4.205,4.196 z"
   id="path3" />
</svg>
