<?xml version="1.0" encoding="UTF-8"?>
<svg id="Layer_1" xmlns="http://www.w3.org/2000/svg" version="1.1" viewBox="0 0 24.9 39.6">
  <!-- Generator: Adobe Illustrator 29.5.1, SVG Export Plug-In . SVG Version: 2.1.0 Build 141)  -->
  <defs>
    <style>
      .st0 {
        fill: #fff;
      }
    </style>
  </defs>
  <path class="st0" d="M24.9,30c0-.6-.3-1.2-.8-1.6l-2.1-1.5-5-13.3c.3-.5.6-1.1.7-1.9,0-.8,0-2-1.2-3.3,0,0,0,0,0,0,.5-.6.7-1.3.7-2.1s-.2-1.5-.7-2.1c.1-.3.2-.6.2-1,0-1.2-.7-2.3-1.9-2.8C14.3,0,13.9,0,13.5,0s-.5,0-.6,0c-.2,0-.3,0-.5.1-1.1.5-1.9,1.6-1.9,2.8s0,.7.2,1c-.4.6-.7,1.3-.7,2.1s.3,1.7.9,2.4c0,0-.1.1-.2.2h0c-.7.7-1.3,2-1,3.5,0,.3.2.6.3.9-1.5,2.7-3.7,6.6-4.6,8.2l-4.1,1.5c-.8.3-1.3,1-1.3,1.9v5.6c0,.7.4,1.4,1,1.8l1.7.9c.2.2.4.4.6.6l.5.3c0,0,.2,0,.2.1.1.2.3.3.5.4l.5.3c.4.2.8.3,1.2.3l3.2,1.8c.2.4.6.8,1.1,1l.5.2s0,0,.1,0c.3.2.6.5,1.1.7.3.1.6.2.9.2h0c.1,0,.3.2.4.3.4.3.6.4.9.5.2,0,.3,0,.5,0,.5,0,1.5-.3,4.7-1.4l4-1.4c.8-.3,1.3-1,1.3-1.9v-4.8Z"/>
  <g>
    <path d="M22.9,32.4v-2.4s-2.6-1.9-2.6-1.9h0s0,5.5,0,5.5l-7.8,2.7c0,.1.3.3.6.4.1,0,.5,0,.6,0,.6.3,1.3.8,1.3.8,0,0,1.8-.5,3.9-1.3l4-1.4v-2.4Z"/>
    <path d="M19.7,27.8l-5.9-4.1v5.9c-2.8.9-5.5,1.9-8.2,3l.5.3h.5c0-.1,4.7,2.5,4.7,2.5v.4l.5.2,7.8-2.7v-5.5Z"/>
    <path d="M14.6,13.1c.2-.1.9-.7,1-1.6,0-.9-.5-1.6-.7-1.8-.4-.5-.8-.6-.8-1.1,0-.1,0-.5,0-1.1.6-.2,1-.8,1-1.4s-.4-1.2-1-1.4c0-.4,0-.7,0-.8.3-.2.5-.5.5-.9s-.3-.8-.6-1c-.1,0-.3,0-.4,0h0s0,0,0,0c0,0-.1,0-.2,0,0,0-.1,0-.2,0-.4.2-.6.5-.6,1s.2.7.5.8v.8c-.6.2-1,.8-1,1.4s.4,1.2,1,1.4v1.3c0,.9,1.2,1.2.9,2.1-.2.8-1.3.5-1.6-.4,0,0-.1-.5-.2-.5,0,0,0,0,0,0,0,0-.7.7-.4,1.7.1.6.6,1,.8,1.1-1.7,3-5,8.9-5.6,10l-4.8,1.7v5.6l2.3,1.2v.3c.1,0,.6.3.6.3l8.1-3v-6c0,0-2.3-1.6-2.3-1.6l-2.8,1c.9-1.6,5.1-9.4,5.1-9.4s.1,9.9.1,9.9l.7.6v-10.5c.1,0,5.9,14.7,5.9,14.7l.6.3-5.7-15.1Z"/>
  </g>
</svg>