<?xml version="1.0" encoding="UTF-8"?>
<svg id="Layer_1" xmlns="http://www.w3.org/2000/svg" version="1.1" viewBox="0 0 33.5 41.1">
  <!-- Generator: Adobe Illustrator 29.5.1, SVG Export Plug-In . SVG Version: 2.1.0 Build 141)  -->
  <defs>
    <style>
      .st0 {
        fill: #fff;
      }
    </style>
  </defs>
  <path class="st0" d="M31.9,23.9c-1.2-.9-2.4-1.9-3.6-2.8l-1.6-1.2-1.5-1.2c-.9-.7-1.8-1.4-2.7-2.1,0-.1.2-.3.2-.4l.6-1.9v-.3c.3,0,.5,0,.8-.2.8-.2,1.4-.6,1.9-1.1.4-.5.7-1,1-1.6.2-.7.3-1.4.3-2.1s-.3-1.2-.6-1.8c-.3-.5-.7-.9-1.2-1.2-.4-.3-.9-.5-1.3-.7-.5-.2-1.1-.3-1.7-.3s-.7,0-1,0c-.3,0-.6.2-.9.3v-.8c0-.9-.3-1.7-.7-2.3-.4-.7-.9-1.2-1.5-1.6C17.8.3,17.2,0,16.5,0,16.1,0,15.7-.1,15.3-.1h-.6C13.6,0,12.6.4,11.7,1c-.9.7-1.5,1.6-1.9,2.6-.3.9,0,1.9.9,2.3l1.1.6c-.2.3-.3.6-.4.9-.1.4-.2.8-.2,1.2v.9c0,.3.1.6.3.8v1.4c-.4-.3-.9-.4-1.4-.4-.9,0-1.8.4-2.4,1.2,0,.1-.4.6-.5,1.2-.4-.1-.8-.2-1.3-.2h-.2c-.7,0-1.3.2-1.7.4-1.4.6-2.1,2-1.8,3.5.2.9.8,1.9,2.2,2.1-.3.5-.4,1.2-.4,1.7,0,1.3,1.1,2.2,2.4,2.2s.6,0,.8-.1l1.8-.4h.3c.1,1.4.7,2.7,1.5,3.7-.6.2-1.1.4-1.6.8-1.9,1.4-3.8,2.9-5.7,4.3l-1.6,1.2c-2,1.5-2.3,3.7-.8,5.6l.4.6.7.9c.4.5,1,.8,1.6.8h4.3c.4,0,.8,0,1.1-.3.3.2.7.3,1.1.3h11.7c.5,0,1-.2,1.4-.6s.6-.9.6-1.4v-6.1c1.3-.4,2.6-.9,3.9-1.3,1-.4,2-.7,3-1.1,2-.7,2.6-2.2,2.7-3s0-2.4-1.6-3.7v.3Z"/>
  <g>
    <rect x="13.5" y="11" width="2.5" height="2.6" transform="translate(-1.1 1.5) rotate(-5.5)"/>
    <circle cx="16" cy="22.6" r="4.9"/>
    <path d="M11.6,16.9c.3-1.1-.1-2.7-1.1-3.2-.5-.3-1-.2-1.4.2-.4.5,0,.7.3,1,.7.7,1.4,1.3,2.1,2h.1Z"/>
    <rect x="19.2" y="13.3" width="2" height="1.8" transform="translate(.1 28.6) rotate(-70.8)"/>
    <path d="M10.1,39.1h11.7v-6.9c0-.5.1-.7.6-.9,2.6-.9,5.1-1.8,7.7-2.7.7-.2,1.2-.7,1.4-1.4.1-.8-.2-1.3-.8-1.8-1.7-1.3-3.5-2.7-5.2-4-2-1.5-3.9-3.1-5.9-4.6-.9-.7-1.9-.6-2.6.4,2.7.8,4.2,2.4,4.4,5.2,0,.2.2.4.3.5.9.7,1.9,1.5,2.8,2.2.5.4,1.1.8,1.7,1.3-.2,0-.4.2-.6.2-1.8.6-3.5,1.2-5.3,1.8-.3.1-.6.2-1,.2h-7.1c-.7,0-1.4.2-1.9.6-2.4,1.9-4.9,3.7-7.3,5.5-1.1.8-1.2,1.7-.4,2.8.4.5.7,1,1.1,1.5h4.3c-.6-.8-1.2-1.6-1.8-2.4,1.3-1,2.6-2,4-3v5.4h0Z"/>
    <path d="M9,17.8c-.8-1.4-1.9-2-3.4-2.1-.3,0-.7,0-1,.2-.6.3-.7.8-.6,1.4,0,.6.6.5,1,.5h4Z"/>
    <path d="M22,12.3c.1,0,.3-.1.5-.1h.6c.2,0,.4,0,.6-.1.4-.1.7-.3,1-.5.2-.3.4-.6.5-.9.1-.4.2-.8.2-1.2s-.2-.6-.3-.9c-.2-.3-.4-.5-.7-.7-.3-.2-.5-.3-.8-.4-.5-.2-1.1-.2-1.6,0s-.9.4-1.3.8l1,1.4s.1,0,.2-.1c0,0,.2-.1.3-.2,0,0,.2,0,.3-.1h.4c.2,0,.3.2.4.3,0,.1.1.3,0,.5,0,.2-.2.3-.3.4-.2,0-.3.2-.5.2s-.4,0-.6.1h-.4c-.2,0-.4,0-.6.2-.2,0-.3.2-.4.3s-.2.3-.3.4c0,.1-.1.3-.2.5l1.7.6c0-.1.1-.2.2-.3h0Z"/>
    <path d="M6.7,21.6c.8-.2,1.7-.4,2.7-.6-.3-.3-.6-.5-.8-.6-.7-.4-1.5-.6-2.3-.1-.2.2-.4.7-.4,1,0,.5.4.4.8.3Z"/>
    <path d="M14.9,2c-.8,0-1.4.3-2,.7s-.9,1-1.1,1.6l2,1.2s.1-.2.2-.3c0,0,.1-.2.2-.4,0,0,.2-.2.3-.3.1,0,.3,0,.5-.2.3,0,.5,0,.7,0s.3.3.3.6,0,.4-.2.6c-.1.2-.3.4-.5.6s-.4.3-.6.4c-.2,0-.4.2-.5.3-.3.2-.5.4-.6.6s-.3.4-.3.6v1.3l2.4-.2c0-.2,0-.3.2-.5s.3-.3.5-.4.4-.3.6-.4.5-.3.7-.5c.4-.4.7-.8.9-1.2.1-.4.2-.9.1-1.4,0-.6-.2-1.1-.5-1.5-.2-.4-.5-.7-.9-.9s-.7-.4-1.2-.4-.8,0-1.2,0Z"/>
  </g>
</svg>