<?xml version="1.0" encoding="UTF-8"?>
<svg id="Layer_1" xmlns="http://www.w3.org/2000/svg" version="1.1" viewBox="0 0 60 60">
  <!-- Generator: Adobe Illustrator 29.5.1, SVG Export Plug-In . SVG Version: 2.1.0 Build 141)  -->
  <defs>
    <style>
      .st0 {
        fill: #fff;
      }
    </style>
  </defs>
  <path class="st0" d="M51.4,19l-20.6-9.2c-.3-.1-.5-.2-.8-.2s-.6,0-.8.2l-20.6,9.2c-.5.2-.9.6-1.1,1.1-.2.5-.2,1,0,1.5l.9,1.9c.3.7,1.1,1.2,1.8,1.2s.5,0,.8-.2v23.7c0,1.1.9,2,2,2h34c1.1,0,2-.9,2-2v-23.6c.2.1.5.2.8.2.8,0,1.5-.4,1.8-1.2l.9-1.9c.2-.5.2-1,0-1.5s-.6-.9-1.1-1.1h0Z"/>
  <polygon points="50.6 20.8 30 11.6 9.4 20.8 10.3 22.8 13 21.5 13 48.4 47 48.4 47 21.5 49.7 22.8 50.6 20.8"/>
</svg>