<?xml version="1.0" encoding="UTF-8"?>
<svg id="Layer_1" xmlns="http://www.w3.org/2000/svg" version="1.1" viewBox="0 0 60 60">
  <!-- Generator: Adobe Illustrator 29.5.1, SVG Export Plug-In . SVG Version: 2.1.0 Build 141)  -->
  <defs>
    <style>
      .st0 {
        fill: none;
      }

      .st1 {
        fill: #f6bd16;
      }

      .st2 {
        fill: #fff;
      }
    </style>
  </defs>
  <path class="st2" d="M46.9,17l-.5-.7c-.6-.8-1.1-1.5-1.7-2.3-.6-.8-1.4-1.2-2.4-1.2h-10.6v-.4c0-.4-.4-.8-.8-.9-.4,0-.9,0-1.1.5l-.2.3c-.3.1-.5.3-.7.5h-11.4c-1,0-1.8.4-2.4,1.2-.4.5-.7,1-1.1,1.6-.5.7-.9,1.3-1.4,2-.4.4-.6,1-.6,1.6v2.5c0,.8.2,2,1.1,3.1v8.5c-.7.5-1.1,1.3-1.1,2.2v1.8c0,.9.4,1.7,1.1,2.1v6.4c0,1.7,1,2.8,2.8,2.8h28c1.7,0,2.8-1,2.8-2.8v-6.4c.7-.5,1.1-1.2,1.1-2.2v-1.7c0-1-.4-1.7-1.1-2.2v-8.3c.8-.9,1.3-2,1.3-3.3v-2.2h0c0-1.2-.3-2-1.1-2.6h0Z"/>
  <g>
    <path class="st0" d="M34.4,24.5c0,.3.2.6.2.9,0-.3.1-.6.2-1h-.4Z"/>
    <path class="st0" d="M26.9,22.6c0-.1.1-.2.1-.4v-2.7h-3.2v1.4h.6c1.3,0,2,.8,2.5,1.6h0Z"/>
    <path class="st0" d="M33.6,22.5c.2.3.3.7.4,1,.3,0,.6,0,.9-.2,0-.3,0-.6.1-.9l.3-2.5.4.5v-.8h-3.2v.5c.2.4.4.8.5,1.1.2.4.4.9.6,1.3Z"/>
    <path class="st0" d="M16.2,34.9h1.1v-.7c0-.3,0-.7-.2-1.1l-.6-3.2.8.8v-6.2h-1.1s0,10.4,0,10.4Z"/>
    <path class="st0" d="M27.3,23.7c.1.4.2.9.3,1.2h0c.1-.4.2-.8.3-1.2l-.3-.3c0,.1-.2.2-.3.3Z"/>
    <path class="st0" d="M18.8,32.3c.9,1,1.5,1.6,2.1,2-.7-2.1-.7-4.1-.7-5.7v-1.8l-.5-2.5,2,1.5c.6.4,1,.9,1.3,1.3,0-.7.2-1.5.3-2.1,0-.2,0-.5.1-.7h0v-.4l-.2-.2c-1.1,1.3-2.9,1.6-4.3,0-.4.3-.5.6-.5,1.1v7.3l.4.4v-.2Z"/>
    <path class="st0" d="M31.8,18.5h12.4c-.6-.9-1.2-1.8-1.8-2.6,0,0-.2,0-.4,0h-11c0,.9.4,1.8.8,2.8h0Z"/>
    <path class="st0" d="M38.1,24.5c.4,1.5.4,2.9.3,3.2v.9s.1-.2.2-.3c.3-.5.5-.8.8-1.1l1-.8.6,1.1c.2.5.4,1,.5,1.5v-5c0-.3-.1-.5-.4-.7-.7.8-1.9,1.2-3,1v.2Z"/>
    <path class="st0" d="M42.7,37.9c-.4,2.6-1.3,4.6-2.8,6.1-.6.6-1.3,1.2-2.1,1.6h5.9v-7.7h-1Z"/>
    <path class="st0" d="M18.1,37.9h-1.6c-.3,0-.4,0-.4.4v7.3h7.4c-2.7-1-4.2-2.9-5.5-7.7h0Z"/>
    <path class="st0" d="M41.6,19.6v2.2c0,.9.6,1.6,1.5,1.6s1.6-.5,1.7-1.4v-2.5h-3.2,0Z"/>
    <path class="st0" d="M43.6,34.9v-10.3h-1.1v4.8l.3-1v6.6h.8Z"/>
    <path class="st0" d="M18.3,22.1v-2.5h-3.2v2.2c0,.9.7,1.5,1.6,1.6.8,0,1.6-.5,1.7-1.4h-.1Z"/>
    <path class="st0" d="M28.9,15.8h-11.1c0,0-.3,0-.4.2-.6.8-1.1,1.5-1.7,2.3,0,0,0,0,0,.2h12.5c0-.9.3-1.8.8-2.8h0Z"/>
    <path d="M45.6,18.5s0-.2-.2-.2c-.8-1.1-1.5-2.1-2.3-3.2-.2-.3-.4-.4-.8-.4h-11.4l-.2-2.4-1.2,2.4h-11.9c-.3,0-.6,0-.8.4-.8,1.2-1.7,2.3-2.5,3.5,0,.2-.2.4-.2.6v2.6c0,.8.3,1.5.9,2,.2.2.2.3.2.5v10.6h-.5c-.4,0-.6.2-.6.6v1.8c0,.4.2.5.6.6h.5v8c0,.6.2.8.8.8h28c.6,0,.8-.2.8-.8v-8h.4c.5,0,.7-.2.7-.7v-1.7c0-.4-.2-.6-.6-.6h-.4v-10.6c0-.1,0-.3.2-.3.7-.6,1.1-1.3,1.1-2.3v-2.2c0-.4,0-.8-.4-1h-.2ZM42.3,15.9c.6.8,1.2,1.7,1.8,2.5h0c0,0-12.4,0-12.4,0-.4-1-.7-1.9-.8-2.8h11c.1,0,.3,0,.4,0h0ZM18.4,24.6c0-.5,0-.8.5-1.1,1.4,1.6,3.3,1.2,4.3,0l.2.2v.4h0c0,.2,0,.5-.1.7-.1.7-.3,1.4-.3,2.1-.3-.4-.7-.9-1.3-1.3l-2-1.5.5,2.5v1.8c0,1.6,0,3.6.7,5.7-.5-.4-1.1-1-2.1-2l-.4-.4v-7.3.2ZM23.8,19.6h3.2v2.7c0,.1,0,.2-.1.4-.5-.9-1.2-1.5-2.5-1.6h-.6v-1.4h0ZM32.5,19.7h0c0-.1,3.2-.1,3.2-.1v.8l-.4-.5-.3,2.5c0,.3,0,.6-.1.9-.3.1-.6.2-.9.2-.1-.3-.3-.6-.4-1-.2-.4-.4-.8-.6-1.3-.2-.4-.4-.8-.5-1.1,0-.1,0-.3,0-.4ZM34.4,24.5h.4c0,.4-.1.7-.2,1,0-.3-.1-.6-.2-.9h0ZM32.7,23c1.1,2.3,1,3.4.7,5.3,2.2-.5,2.2-2.3,2.6-5.8,1.7,2.3,1.4,5.2,1.4,5.2,0,0,.2,2.1-.7,3.7,1.9-.6,2.7-2.9,3.3-3.4,1.5,3,.5,6.9-1.4,8.7,3-.3,3.1-1.7,3.3-2.4.1,7.7-3.4,11.3-8.8,11.3s-.2,0-.3,0h-2.8c-8.1-.7-9.8-1-11.9-12.7,2,2.1,2.7,2.8,4.7,3-2.2-3.7-1.4-7.5-1.7-9.4,1.6,1.2,1.7,2.9,3.6,3.8-1.3-2.4-.7-4.1-.3-6,.1-.5.3-.9,0-2.3,2.7.1,1.9,4.4,3.4,5.6,2.6-5.7.2-7.9,2.3-11.8.2,2.3,1.6,4.8,2.7,7.2h-.1ZM27.6,24.9h0c0-.4-.2-.8-.3-1.2l.3-.3.3.3c0,.4-.1.8-.3,1.2ZM17.3,30.7l-.8-.8.6,3.2c0,.4,0,.7.2,1.1v.7h-1.1v-10.4h1.1s0,6.2,0,6.2ZM42.9,28.3l-.3,1v-4.8h1.1v10.3h-.7v-6.6h-.1ZM41.4,29.2c-.1-.5-.3-1-.5-1.5l-.6-1.1-1,.8c-.3.2-.5.6-.8,1.1,0,0-.1.2-.2.3v-.9c0-.4,0-1.7-.3-3.2,1.1.2,2.3-.2,3-1,.2.2.4.4.4.7v5-.2ZM15.8,18.3c.6-.8,1.1-1.6,1.7-2.3,0,0,.3-.2.4-.2h11.1c-.5,1-.7,1.9-.8,2.8h-12.6s0-.2,0-.2h.1ZM15.1,21.9v-2.2h3.2v2.5c0,.8-.9,1.4-1.7,1.4s-1.5-.7-1.6-1.6h0ZM16.2,45.3v-7c0-.3,0-.4.4-.4h1.6c1.3,4.7,2.8,6.7,5.5,7.7h-7.4v-.3h0ZM43.6,45.6h-5.9c.8-.4,1.5-.9,2.1-1.6,1.5-1.5,2.4-3.5,2.8-6.1h.9v7.7h.1ZM44.9,22.1c0,.8-.9,1.4-1.7,1.4s-1.5-.8-1.5-1.6v-2.2h3.2v2.5h0Z"/>
    <path class="st1" d="M27.7,27.6c-1.5-1.2-.7-5.5-3.4-5.6.3,1.4.1,1.9,0,2.3-.3,2-.9,3.6.3,6-1.9-.9-2-2.7-3.6-3.8.3,1.9-.5,5.7,1.7,9.4-1.9-.2-2.6-.9-4.7-3,2.2,11.6,3.9,12,11.9,12.7-.7,0-4.8-.8-6.3-5.6,0-1.2-.1,1,3.9,1.2-2.5-4.1-1.8-3.3-1.6-5.6,1.1,1.5.2,1.7,3.1,2.9-.9-3,1.5-5,.9-8.5.7,1.5,3,1.3,2.8,8.5,1.9-2.2,2-.7,3-3,.1,1.3.7,2.9-1.9,5.7.7.2,1.8.3,3.5-.9-1.7,2.1-.1,2.1-4.5,5.3h.3c5.4,0,9-3.6,8.8-11.3-.2.7-.3,2.1-3.3,2.4,1.8-1.9,2.8-5.7,1.4-8.7-.6.5-1.4,2.8-3.3,3.4.9-1.6.7-3.7.7-3.7,0,0,.3-2.9-1.4-5.2-.5,3.5-.5,5.3-2.6,5.8.3-2,.5-3-.7-5.3-1.1-2.4-2.5-4.9-2.7-7.2-2,3.9.3,6.2-2.3,11.8Z"/>
    <path class="st2" d="M37.4,40.3c-1.7,1.3-2.8,1.2-3.5.9,2.6-2.8,2-4.4,1.9-5.7-.9,2.3-1,.8-3,3,.1-7.2-2.2-7-2.8-8.5.6,3.5-1.8,5.5-.9,8.5-2.8-1.2-1.9-1.4-3.1-2.9-.2,2.3-.9,1.5,1.6,5.6-4-.1-3.9-2.3-3.9-1.2,1.5,4.8,5.6,5.5,6.3,5.6h2.8c4.4-3.3,2.8-3.3,4.5-5.3h.1Z"/>
  </g>
</svg>