<?xml version="1.0" encoding="UTF-8"?>
<svg id="Layer_1" xmlns="http://www.w3.org/2000/svg" version="1.1" viewBox="0 0 60 60">
  <!-- Generator: Adobe Illustrator 29.5.1, SVG Export Plug-In . SVG Version: 2.1.0 Build 141)  -->
  <defs>
    <style>
      .st0 {
        fill: #93572b;
      }

      .st1 {
        fill: #fff;
      }
    </style>
  </defs>
  <path class="st1" d="M50,38.2h-2.9l-13.1-16.5,2.6-3.2c.7-.9.5-2.1-.3-2.8l-1.8-1.4c-.4-.3-.8-.5-1.3-.5s-.2,0-.2,0c-.5,0-1,.3-1.3.7l-1.7,2.1-1.7-2.1c-.3-.4-.8-.7-1.3-.7h-.2c-.5,0-.9.2-1.2.4l-1.8,1.4c-.9.7-1,1.9-.3,2.8l2.6,3.2-13.2,16.6h-2.9c-1.1,0-2,.9-2,2v4c0,1.1.9,2,2,2h40c1.1,0,2-.9,2-2v-4c0-1.1-.9-2-2-2Z"/>
  <g>
    <rect class="st0" x="10" y="40.2" width="40" height="4"/>
    <polygon class="st0" points="30 30.8 38.4 41.4 46.6 41.4 46.9 41.2 31.4 21.7 35 17.2 33.2 15.8 30 19.9 30 19.9 30 19.9 26.8 15.8 25 17.2 28.6 21.7 13.1 41.2 13.4 41.4 21.6 41.4 30 30.8"/>
  </g>
  <path class="st0" d="M46.2,40.2l-14.8-18.5,3.6-4.5-1.8-1.4-3.2,4.1h0l-3.2-4.1-1.8,1.4,3.6,4.5-14.8,18.5h-3.8v4h40v-4h-3.8ZM30,30.8l7.5,9.4h-14.9l7.5-9.4h-.1Z"/>
</svg>