<?xml version="1.0" encoding="UTF-8"?>
<svg id="Layer_1" xmlns="http://www.w3.org/2000/svg" version="1.1" viewBox="0 0 60 60">
  <!-- Generator: Adobe Illustrator 29.5.1, SVG Export Plug-In . SVG Version: 2.1.0 Build 141)  -->
  <defs>
    <style>
      .st0 {
        fill: none;
      }

      .st1 {
        fill: #fff;
      }

      .st2 {
        fill: #e4151c;
      }
    </style>
  </defs>
  <path class="st1" d="M49.6,9.1h-.3l-15,2.3c-.7,0-1.4.6-1.6,1.4s0,1.5.5,2l.7.7-2.8,2.8-1.4,1.4h0l-4.9,4.9h0l-2.1,2.1h0l-2.8,2.8h0l-.4.4h-.5l.3-2.1c.2-1.1-.6-2.1-1.7-2.3l-2-.3h-.3c-.4,0-.8.1-1.2.4-.4.3-.7.8-.8,1.3l-.3,2-2-.3h-.3c-1,0-1.8.7-2,1.7l-.3,2c0,.5,0,1.1.4,1.5.3.4.8.7,1.3.8l2.4.4c.3,1.9,1.1,3.7,2.5,5,1.4,1.3,3.7,2.5,5.9,2.6l-3.3,3.3c-.8.8-.8,2,0,2.8l1.4,1.4c.4.4.9.6,1.4.6s1-.2,1.4-.6l9.2-9.2h0l2.8-2.8h0l2.1-2.1h0l5.7-5.7,1.3-1.3h0l1.4-1.4h0l.4-.4.3-.3.7.7c.4.4.9.6,1.4.6h.6c.7-.2,1.2-.9,1.4-1.6l.7-4.3.2-.2c.5-.5.7-1.2.5-1.8,0-.3-.2-.5-.3-.7l1.2-7.8v-.4c0-1.1-.9-2-2-2l.2-.3Z"/>
  <g>
    <polygon class="st0" points="39.7 26.8 41.1 25.4 33.1 22 31.7 23.4 39.7 26.8"/>
    <polygon class="st0" points="35.2 19.8 43.2 23.1 43.8 22.6 41.8 20.6 36.6 18.4 35.2 19.8"/>
    <polygon class="st0" points="34 32.4 26 29 24.6 30.4 32.6 33.8 34 32.4"/>
    <polygon class="st0" points="28.1 26.9 36.2 30.3 37.6 28.9 29.6 25.5 28.1 26.9"/>
    <polygon class="st0" points="30.5 35.9 27.7 34.8 29.7 36.8 30.5 35.9"/>
    <path d="M24.9,37.3c-.9.9-2.2,1.5-3.5,1.5s-2.6-.5-3.5-1.5-1.7-2.9-1.4-4.5l-2-.4c-.5,2.3.2,4.7,1.9,6.3,1.3,1.3,3.1,2,4.9,2s3.6-.7,5-2l1.2-1.2-1.4-1.4-1.2,1.2Z"/>
    <path class="st2" d="M43.8,22.6l-.6.6-8-3.3,1.4-1.4,5.2,2.1-5.1-5.1-15.6,15.6,1.7,1.7h0l3.3,3.3,1.4,1.4,2.1,2.1,15.6-15.6-1.4-1.4ZM41.1,25.4l-1.4,1.4-8-3.3,1.4-1.4,8,3.3ZM26,29l8,3.3-1.4,1.4-8-3.3,1.4-1.4ZM36.2,30.3l-8-3.3,1.4-1.4,8,3.3-1.4,1.4ZM30.5,35.9l-.8.8-2-2,2.8,1.2Z"/>
    <rect x="17.8" y="42.4" width="13.1" height="2" transform="translate(-23.6 29.9) rotate(-45)"/>
    <rect x="18" y="31.5" width="2" height="3" transform="translate(-16.5 46.8) rotate(-81.3)"/>
    <rect x="11" y="30.4" width="2" height="3" transform="translate(-21.4 39) rotate(-81.3)"/>
    <rect x="14.5" y="28" width="3" height="2" transform="translate(-15.1 40.5) rotate(-81.3)"/>
    <polygon points="49.6 11.1 34.6 13.4 36.7 15.5 41.8 20.6 43.8 22.6 45.2 24 47.3 26.1 49.6 11.1"/>
  </g>
</svg>