<?xml version="1.0" encoding="UTF-8"?>
<svg id="Layer_1" xmlns="http://www.w3.org/2000/svg" version="1.1" viewBox="0 0 60 60">
  <!-- Generator: Adobe Illustrator 29.5.1, SVG Export Plug-In . SVG Version: 2.1.0 Build 141)  -->
  <defs>
    <style>
      .st0 {
        fill: #0056a4;
      }

      .st1 {
        fill: #fff;
      }
    </style>
  </defs>
  <path class="st1" d="M50.8,24.7l-23.7-14.3c-.4-.2-.9-.4-1.3-.4-.9,0-1.7.5-2.2,1.2-.2.4-.4.8-.4,1.3v5.8c-.7-3.6-3.8-6.3-7.6-6.3s-7.6,3.5-7.6,7.7,3.5,7.7,7.7,7.7,6.9-2.7,7.6-6.3v14.5c-.7-3.6-3.8-6.3-7.6-6.3s-7.7,3.5-7.7,7.7,3.5,7.7,7.7,7.7,6.9-2.7,7.6-6.3v9.1c0,.7.3,1.3.7,1.8.5.5,1.1.8,1.8.8h0c.7,0,1.3-.2,1.7-.7l23.6-20.6c1.1-.9,1.2-2.5.2-3.6-.2-.2-.4-.4-.6-.5h0Z"/>
  <g>
    <path class="st0" d="M21.4,19.7c0,3.2-2.6,5.7-5.7,5.7s-5.7-2.5-5.7-5.7,2.6-5.7,5.7-5.7,5.7,2.6,5.7,5.7h0Z"/>
    <path class="st0" d="M21.4,37c0,3.2-2.6,5.7-5.7,5.7s-5.7-2.6-5.7-5.7,2.6-5.7,5.7-5.7,5.7,2.6,5.7,5.7h0Z"/>
    <path class="st0" d="M25.3,12.5v35c0,.3.2.5.5.6.1,0,.3,0,.4,0l23.6-20.7c.2-.2.3-.5,0-.8h0c0-.1-23.6-14.4-23.6-14.4-.3-.2-.6,0-.7.2v.3h-.1Z"/>
  </g>
  <g>
    <path class="st0" d="M21.4,19.7c0,3.2-2.6,5.7-5.7,5.7s-5.7-2.5-5.7-5.7,2.6-5.7,5.7-5.7,5.7,2.6,5.7,5.7h0Z"/>
    <path class="st0" d="M21.4,37c0,3.2-2.6,5.7-5.7,5.7s-5.7-2.6-5.7-5.7,2.6-5.7,5.7-5.7,5.7,2.6,5.7,5.7h0Z"/>
    <path class="st0" d="M25.3,12.5v35c0,.3.2.5.5.6.1,0,.3,0,.4,0l23.6-20.7c.2-.2.3-.5,0-.8h0c0-.1-23.6-14.4-23.6-14.4-.3-.2-.6,0-.7.2v.3h-.1Z"/>
  </g>
</svg>