<?xml version="1.0" encoding="UTF-8"?>
<svg id="Layer_1" xmlns="http://www.w3.org/2000/svg" version="1.1" viewBox="0 0 60 60">
  <!-- Generator: Adobe Illustrator 29.5.1, SVG Export Plug-In . SVG Version: 2.1.0 Build 141)  -->
  <defs>
    <style>
      .st0 {
        fill: none;
      }

      .st1 {
        fill: #fff;
      }
    </style>
  </defs>
  <path class="st1" d="M48,15.4c1.5,0,2.8-1.2,2.8-2.8s-1.2-2.8-2.8-2.8H12c-1.6,0-2.8,1.3-2.8,2.9s1.2,2.8,2.8,2.8h0v6.1h0c-1.5,0-2.8,1.2-2.8,2.8s1.2,2.8,2.8,2.8h0v6.1h0c-1.5,0-2.8,1.2-2.8,2.8s1.2,2.8,2.8,2.8h0v6.1h0c-1.5,0-2.8,1.2-2.8,2.8s1.2,2.8,2.8,2.8h36c1.5,0,2.8-1.2,2.8-2.8s-1.2-2.8-2.8-2.8h0v-6.1h0c1.5,0,2.8-1.2,2.8-2.8s-1.2-2.8-2.8-2.8h0v-6.1h0c1.5,0,2.8-1.2,2.8-2.8s-1.2-2.8-2.8-2.8h0v-6.1h0Z"/>
  <path d="M48,25c.4,0,.8-.3.8-.8s-.3-.8-.8-.8h-2.1v-10h2.1c.4,0,.8-.3.8-.8s-.3-.8-.8-.8H12c-.4,0-.8.3-.8.8s.3.8.8.8h2.1v10.1h-2.1c-.4,0-.8.3-.8.8s.3.8.8.8h2.1v10.1h-2.1c-.4,0-.8.3-.8.8s.3.8.8.8h2.1v10.1h-2.1c-.4,0-.8.3-.8.8s.3.8.8.8h36c.4,0,.8-.3.8-.8s-.3-.8-.8-.8h-2.1v-10.1h2.1c.4,0,.8-.3.8-.8s-.3-.8-.8-.8h-2.1v-10.1h2.1ZM44.3,23.5h-3.5v-10.1h3.5v10.1ZM30.8,25h3.5v10.1h-3.5v-10.1ZM29.2,35.1h-3.5v-10.1h3.5v10.1ZM30.8,23.5v-10.1h3.5v10.1h-3.5ZM29.2,23.5h-3.5v-10.1h3.5v10.1ZM24.2,23.5h-3.5v-10.1h3.5v10.1ZM24.2,25v10.1h-3.5v-10.1h3.5ZM24.2,36.6v10.1h-3.5v-10.1s3.5,0,3.5,0ZM25.8,36.6h3.5v10.1h-3.5v-10.1ZM30.8,36.6h3.5v10.1h-3.5v-10.1ZM35.9,36.6h3.5v10.1h-3.5v-10.1ZM35.9,35.1v-10.1h3.5v10.1h-3.5ZM35.9,23.5v-10.1h3.5v10.1h-3.5ZM15.7,13.4h3.5v10.1h-3.5s0-10.1,0-10.1ZM15.7,25h3.5v10.1h-3.5s0-10.1,0-10.1ZM15.7,36.6h3.5v10.1h-3.5s0-10.1,0-10.1ZM44.3,46.6h-3.5v-10.1h3.5v10.1ZM44.3,35.1h-3.5v-10.1h3.5v10.1Z"/>
  <g>
    <line class="st0" x1="12" y1="12.7" x2="48" y2="12.7"/>
    <line class="st0" x1="12" y1="24.2" x2="48" y2="24.2"/>
    <line class="st0" x1="12" y1="35.8" x2="48" y2="35.8"/>
    <line class="st0" x1="12" y1="47.4" x2="48" y2="47.4"/>
    <line class="st0" x1="14.8" y1="12.8" x2="14.8" y2="47.3"/>
    <line class="st0" x1="19.9" y1="12.8" x2="19.9" y2="47.3"/>
    <line class="st0" x1="24.9" y1="12.8" x2="24.9" y2="47.3"/>
    <line class="st0" x1="30" y1="12.8" x2="30" y2="47.3"/>
    <line class="st0" x1="35" y1="12.8" x2="35" y2="47.3"/>
    <line class="st0" x1="40.1" y1="12.8" x2="40.1" y2="47.3"/>
    <line class="st0" x1="45.2" y1="12.8" x2="45.2" y2="47.3"/>
  </g>
</svg>