<?xml version="1.0" encoding="UTF-8"?>
<svg id="Layer_1" xmlns="http://www.w3.org/2000/svg" version="1.1" viewBox="0 0 60 60">
  <!-- Generator: Adobe Illustrator 29.5.1, SVG Export Plug-In . SVG Version: 2.1.0 Build 141)  -->
  <defs>
    <style>
      .st0 {
        fill: none;
      }

      .st1 {
        fill: #0056a4;
      }

      .st2 {
        fill: #fff;
      }
    </style>
  </defs>
  <path class="st2" d="M49,23.8h-3c-.7-2.8-2.1-5.3-4-7.3.6-.3,1-1,1-1.7v-4c0-1.1-.9-2-2-2h-4c-1.1,0-2,.9-2,2v1.3c-1.6-.5-3.3-.8-5-.8s-3.4.3-5,.8v-1.3c0-1.1-.9-2-2-2h-4c-1.1,0-2,.9-2,2v4c0,.7.4,1.4,1,1.7-1.9,2-3.3,4.5-4,7.3h-3c-1.1,0-2,.9-2,2v4c0,1.1.9,2,2,2h3c.7,2.8,2.1,5.3,4,7.3-.6.3-1,1-1,1.7v2.5l-.6,1h-5.4c-1.1,0-2,.9-2,2v3c0,1.1.9,2,2,2h38c1.1,0,2-.9,2-2v-3c0-1.1-.9-2-2-2h-5.4l-.6-1v-2.5c0-.7-.4-1.4-1-1.7,1.9-2,3.3-4.5,4-7.3h3c1.1,0,2-.9,2-2v-4c0-1.1-.9-2-2-2Z"/>
  <g>
    <path class="st1" d="M30,42.3c-8,0-14.5-6.5-14.5-14.5s6.5-14.5,14.5-14.5,14.5,6.5,14.5,14.5-6.5,14.5-14.5,14.5ZM30,16.3c-6.3,0-11.5,5.2-11.5,11.5s5.2,11.5,11.5,11.5,11.5-5.2,11.5-11.5-5.2-11.5-11.5-11.5Z"/>
    <rect class="st1" x="11" y="46.3" width="38" height="3"/>
    <g>
      <rect class="st1" x="18" y="26.8" width="24" height="2"/>
      <rect class="st1" x="18" y="26.3" width="24" height="3" transform="translate(-9.1 39.8) rotate(-60)"/>
      <rect class="st1" x="28.5" y="15.7" width="3" height="24" transform="translate(-9.8 18.7) rotate(-30)"/>
    </g>
    <rect class="st1" x="11" y="25.8" width="4" height="4"/>
    <rect class="st1" x="45" y="25.8" width="4" height="4"/>
    <rect class="st1" x="19" y="10.8" width="4" height="4"/>
    <rect class="st1" x="37" y="40.8" width="4" height="4"/>
    <rect class="st1" x="37" y="10.8" width="4" height="4"/>
    <rect class="st1" x="19" y="40.8" width="4" height="4"/>
    <path class="st1" d="M44.1,49.3H15.9l14.1-24.5,14.1,24.5ZM21.1,46.3h17.9l-8.9-15.5-8.9,15.5h-.1Z"/>
  </g>
  <g>
    <circle class="st0" cx="30" cy="27.8" r="13"/>
    <line class="st0" x1="49" y1="47.8" x2="11" y2="47.8"/>
    <g>
      <line class="st0" x1="18" y1="27.8" x2="42" y2="27.8"/>
      <line class="st0" x1="36" y1="17.4" x2="24" y2="38.1"/>
      <line class="st0" x1="24" y1="17.4" x2="36" y2="38.1"/>
    </g>
    <rect class="st1" x="11" y="25.8" width="4" height="4"/>
    <rect class="st1" x="45" y="25.8" width="4" height="4"/>
    <rect class="st1" x="19" y="10.8" width="4" height="4"/>
    <rect class="st1" x="37" y="40.8" width="4" height="4"/>
    <rect class="st1" x="37" y="10.8" width="4" height="4"/>
    <rect class="st1" x="19" y="40.8" width="4" height="4"/>
    <polygon class="st0" points="18.5 47.8 41.5 47.8 30 27.8 18.5 47.8"/>
  </g>
</svg>