<?xml version="1.0" encoding="UTF-8"?>
<svg id="Layer_1" xmlns="http://www.w3.org/2000/svg" version="1.1" viewBox="0 0 60 60">
  <!-- Generator: Adobe Illustrator 29.5.1, SVG Export Plug-In . SVG Version: 2.1.0 Build 141)  -->
  <defs>
    <style>
      .st0 {
        fill: #fff;
      }

      .st1 {
        fill: #ff0;
      }
    </style>
  </defs>
  <path class="st0" d="M51.4,19l-20.6-9.2c-.3-.1-.5-.2-.8-.2s-.6,0-.8.2l-20.6,9.2c-.5.2-.9.6-1.1,1.1-.2.5-.2,1,0,1.5l.9,1.9c.3.7,1.1,1.2,1.8,1.2s.5,0,.8-.2v23.7c0,1.1.9,2,2,2h34c1.1,0,2-.9,2-2v-23.6c.2.1.5.2.8.2.8,0,1.5-.4,1.8-1.2l.9-1.9c.2-.5.2-1,0-1.5s-.6-.9-1.1-1.1h0Z"/>
  <g>
    <polygon class="st1" points="30 13.9 15.1 20.6 15.1 46.2 44.9 46.2 44.9 20.6 30 13.9"/>
    <path d="M50.6,20.8l-20.6-9.2-20.6,9.2.9,1.9,2.8-1.2v26.8h34v-26.8l2.8,1.2.9-1.9h-.2ZM15.1,46.2v-25.6l14.9-6.6,14.9,6.6v25.6H15.1Z"/>
  </g>
  <g>
    <path d="M26.4,41.4l-5.6-14.6h2.1l4.6,12.3,4.6-12.3h2.1l-5.6,14.6s-2.2,0-2.2,0Z"/>
    <path d="M35.4,26.8h2v14.6h-2v-14.6Z"/>
  </g>
</svg>