<?xml version="1.0" encoding="UTF-8"?>
<svg id="Layer_1" xmlns="http://www.w3.org/2000/svg" version="1.1" viewBox="0 0 60 60">
  <!-- Generator: Adobe Illustrator 29.5.1, SVG Export Plug-In . SVG Version: 2.1.0 Build 141)  -->
  <defs>
    <style>
      .st0 {
        fill: #0056a4;
      }

      .st1 {
        fill: #fff;
      }
    </style>
  </defs>
  <path class="st1" d="M39.2,14.3c-2.3-2-5.6-3.1-9.8-3.1h-10.3c-1.1,0-2,.9-2,2v33.5c0,1.1.9,2,2,2h4.5c1.1,0,2-.9,2-2v-11.5h3.7c4.2,0,7.6-1,9.8-3,2.4-2.1,3.6-5.1,3.6-9s-1.2-6.9-3.6-9h.1Z"/>
  <path class="st0" d="M19.1,13.3h10.2c3.8,0,6.6.9,8.5,2.5,1.9,1.7,2.9,4.2,2.9,7.5s-1,5.8-2.9,7.5-4.8,2.5-8.5,2.5h-5.7v13.5h-4.5V13.3ZM23.6,16.9v12.6h5.7c2.1,0,3.7-.5,4.9-1.6s1.7-2.6,1.7-4.7-.6-3.6-1.7-4.6-2.8-1.6-4.9-1.6h-5.7Z"/>
  <path class="st0" d="M19.1,13.3h10.2c3.8,0,6.6.9,8.5,2.5,1.9,1.7,2.9,4.2,2.9,7.5s-1,5.8-2.9,7.5-4.8,2.5-8.5,2.5h-5.7v13.5h-4.5V13.3ZM23.6,16.9v12.6h5.7c2.1,0,3.7-.5,4.9-1.6s1.7-2.6,1.7-4.7-.6-3.6-1.7-4.6-2.8-1.6-4.9-1.6h-5.7Z"/>
</svg>