<?xml version="1.0" encoding="UTF-8"?>
<svg id="Layer_1" xmlns="http://www.w3.org/2000/svg" version="1.1" viewBox="0 0 60 60">
  <!-- Generator: Adobe Illustrator 29.5.1, SVG Export Plug-In . SVG Version: 2.1.0 Build 141)  -->
  <defs>
    <style>
      .st0 {
        fill: #fff;
      }

      .st1 {
        fill: #e4151c;
      }
    </style>
  </defs>
  <path class="st0" d="M30,6c-13.2,0-24,10.7-24,24s10.8,24,24,24,24-10.7,24-24S43.2,6,30,6Z"/>
  <circle class="st1" cx="30" cy="30" r="22"/>
  <circle class="st0" cx="30" cy="30" r="17.1"/>
  <path d="M43.4,29.6h0l-2.1-1.8s-.2-.1-.3-.1h-12.8c-1.3-2.9-4.7-4.2-7.6-2.9-2.9,1.3-4.2,4.7-2.9,7.6s4.7,4.2,7.6,2.9c1.5-.7,2.6-1.9,3.1-3.5h.7l.4,1.4h.6l.7-1h.1l.7,1h.1l.5-1h.1l.6,1h.1l.6-1h.1l.9.9h.1l1.4-1.5h1l.9,1.1h.2l.8-.5h.2l.9.9h.3l2.8-3c0-.1,0-.3,0-.4h.2ZM21,31.3c-.7,0-1.2-.5-1.2-1.2s.5-1.2,1.2-1.2,1.2.5,1.2,1.2-.5,1.2-1.2,1.2Z"/>
  <circle class="st1" cx="30" cy="30" r="22"/>
  <circle class="st0" cx="30" cy="30" r="17.1"/>
  <path d="M43.4,29.6h0l-2.1-1.8s-.2-.1-.3-.1h-12.8c-1.3-2.9-4.7-4.2-7.6-2.9-2.9,1.3-4.2,4.7-2.9,7.6s4.7,4.2,7.6,2.9c1.5-.7,2.6-1.9,3.1-3.5h.7l.4,1.4h.6l.7-1h.1l.7,1h.1l.5-1h.1l.6,1h.1l.6-1h.1l.9.9h.1l1.4-1.5h1l.9,1.1h.2l.8-.5h.2l.9.9h.3l2.8-3c0-.1,0-.3,0-.4h.2ZM21,31.3c-.7,0-1.2-.5-1.2-1.2s.5-1.2,1.2-1.2,1.2.5,1.2,1.2-.5,1.2-1.2,1.2Z"/>
</svg>