<?xml version="1.0" encoding="UTF-8"?>
<svg id="Layer_1" xmlns="http://www.w3.org/2000/svg" version="1.1" viewBox="0 0 60 60">
  <!-- Generator: Adobe Illustrator 29.5.1, SVG Export Plug-In . SVG Version: 2.1.0 Build 141)  -->
  <defs>
    <style>
      .st0 {
        fill: #93572b;
      }

      .st1 {
        fill: #fff;
      }
    </style>
  </defs>
  <path class="st1" d="M51.6,30.2l-3.4-2.3v-4.3c.3-.2.6-.4.9-.7l1.3-2c.6-.9.4-2.2-.6-2.8l-9.8-6.5c-.3-.2-.7-.3-1.1-.3h-.5l-21.3,6.1c-1.1.3-1.7,1.4-1.4,2.5l.7,2.3c0,.3.3.6.5.8l-7.9,2.3c-1.1.3-1.7,1.4-1.4,2.5l.7,2.3c.2.8.8,1.3,1.6,1.4v11.1c0,1.1.9,2,2,2h8v2.2c0,1.1.9,2,2,2h26.2c1.1,0,2-.9,2-2v-11c.3-.2.6-.4.9-.7l1.3-2c.6-.9.4-2.2-.6-2.8h-.1Z"/>
  <g>
    <polygon class="st0" points="21.8 31.3 24.2 31.3 24.2 44.3 45.6 44.3 45.6 30.8 48 31.3 48 46.7 21.8 46.7 21.8 31.3"/>
    <polygon class="st0" points="20.1 33.7 19.5 31.4 40.7 25.4 50.5 31.9 49.2 33.9 40.3 28 20.1 33.7"/>
    <polygon class="st0" points="38.9 13.3 17.7 19.3 18.3 21.6 20 21.2 20 22.8 22.4 22.1 22.4 20.5 38.5 15.9 43.8 19.5 43.8 26.1 46.2 27.6 46.2 21 47.4 21.8 48.7 19.8 38.9 13.3"/>
    <polygon class="st0" points="11.8 29 11.8 42.5 20.1 42.5 20.1 40.1 14.2 40.1 14.2 28.3 30.3 23.8 33.9 26.1 36.9 25.2 30.7 21.1 9.5 27.2 10.2 29.5 11.8 29"/>
    <polygon class="st0" points="27.3 34.3 32.5 34.3 32.5 39.5 27.3 39.5 27.3 34.3"/>
    <polygon class="st0" points="36.6 34.3 41.8 34.3 41.8 45.1 36.6 45.1 36.6 34.3"/>
  </g>
  <g>
    <path class="st0" d="M50.5,31.9l-9.8-6.5-21.2,6,.7,2.3,1.6-.5v13.5h26.2v-13.6l1.2.8,1.3-2ZM45.6,44.3h-3.8v-10h-5.2v10h-12.4v-11.8l16.1-4.6,5.3,3.5v12.8h0Z"/>
    <polygon class="st0" points="20 21.2 20 22.8 22.4 22.1 22.4 20.5 38.5 15.9 43.8 19.5 43.8 26.1 46.2 27.6 46.2 21 47.4 21.8 48.7 19.8 38.9 13.3 17.7 19.3 18.3 21.6 20 21.2"/>
    <polygon class="st0" points="14.2 28.3 30.3 23.8 33.9 26.1 36.9 25.2 30.7 21.1 9.5 27.2 10.2 29.5 11.8 29 11.8 42.5 20.1 42.5 20.1 40.1 14.2 40.1 14.2 28.3"/>
    <rect class="st0" x="27.3" y="34.3" width="5.2" height="5.2"/>
  </g>
</svg>