<?xml version="1.0" encoding="UTF-8"?>
<svg id="Layer_1" xmlns="http://www.w3.org/2000/svg" version="1.1" viewBox="0 0 60 60">
  <!-- Generator: Adobe Illustrator 29.5.1, SVG Export Plug-In . SVG Version: 2.1.0 Build 141)  -->
  <defs>
    <style>
      .st0 {
        fill: none;
      }

      .st1 {
        fill: #fff;
      }

      .st2 {
        fill: #ff0;
      }
    </style>
  </defs>
  <path class="st1" d="M46.9,13.1l-.5-.7c-.6-.8-1.1-1.5-1.7-2.3-.6-.8-1.4-1.2-2.4-1.2h-24.8c-1,0-1.8.4-2.4,1.2-.4.5-.7,1-1.1,1.6-.5.7-.9,1.3-1.4,2-.4.3-.6,1-.6,1.6v2.5c0,.8.2,2,1.1,3.1v8.5c-.7.5-1.1,1.2-1.1,2.2v1.8c0,.9.4,1.7,1.1,2.1v6.4c0,1.7,1,2.8,2.8,2.8h2.3l-.3.8c-.2.5-.2,1,0,1.4l-1.3,3c-.2.5,0,1,.4,1.3.2,0,.3,0,.5,0,.3,0,.6,0,.8-.4l1.9-2.6c.5,0,.9-.4,1.2-.8l2-2.7h20.7c1.7,0,2.8-1,2.8-2.8v-6.4c.7-.5,1.1-1.2,1.1-2.2v-1.7c0-1-.4-1.7-1.1-2.2v-8.3c.8-.9,1.3-2,1.3-3.3v-2.2h0c0-1.2-.3-2-1.1-2.6h-.2Z"/>
  <g>
    <path class="st0" d="M35.7,18.2v-1.1l-1.4,2.4c.7,0,1.3-.6,1.4-1.3Z"/>
    <path class="st0" d="M29.5,11.8h-11.7c0,0-.3,0-.4.2-.6.8-1.1,1.5-1.7,2.3,0,0,0,0,0,.2h12.7l1.2-2.8h0Z"/>
    <path class="st0" d="M23.8,15.7v2.3c0,.8.7,1.4,1.5,1.5.4,0,.7,0,1.1-.3l.7-1.6v-2h-3.3Z"/>
    <path class="st0" d="M18.4,30.9h7.4l1.9-4.4h-4.4l.6-1.4,2-4.6h-.4c-.9,0-1.6-.4-2.2-1.1-1.1,1.3-2.9,1.6-4.3,0-.4.3-.5.6-.5,1.1v10.3h0Z"/>
    <path class="st0" d="M18.3,18.2v-2.5h-3.2v2.2c0,.9.7,1.5,1.6,1.6.8,0,1.6-.5,1.7-1.4h-.1Z"/>
    <path class="st0" d="M37.2,14.6h7c-.6-.9-1.2-1.8-1.8-2.6,0,0-.2,0-.4,0h-3.1l-1.6,2.8h-.1Z"/>
    <path class="st0" d="M41.4,30.6v-10.3c0-.3-.1-.5-.4-.7-1.1,1.3-3.5,1.5-4.8,0-.9.9-1.7,1.2-2.6,1v.2c-.1,0,3,0,3,0h2l-1.1,1.6-6.2,8.6h10.1v-.4Z"/>
    <path class="st0" d="M43.6,20.6h-1.1v10.4h1.1v-10.3h0Z"/>
    <path class="st0" d="M16.2,31h1.1v-10.4h-1.1v10.4Z"/>
    <path class="st0" d="M29.2,34l-5.5,7.7h20v-7.7h-14.5Z"/>
    <path class="st0" d="M41.6,15.7v2.2c0,.9.6,1.6,1.5,1.6s1.6-.5,1.7-1.4v-2.5h-3.2,0Z"/>
    <path class="st0" d="M24.4,34h-7.9c-.3,0-.4,0-.4.4v7.3h4.9l3.3-7.7h0Z"/>
    <path d="M45.6,14.6s0-.2-.2-.2c-.8-1.1-1.5-2.1-2.3-3.2-.2-.3-.4-.4-.8-.4h-2.9l.3-.6h-9.6l-.2.6h-12.5c-.3,0-.6,0-.8.4-.8,1.2-1.7,2.3-2.5,3.5-.1.2-.2.4-.2.6v2.6c0,.8.3,1.5.9,2,.2.2.2.3.2.5v10.6h-.5c-.4,0-.6.2-.6.6v1.8c0,.4.2.5.6.6h.5v8c0,.6.2.8.8.8h4.8l-3.3,7.6,5.3-7.4h.1c7,0,14.2,0,21.1,0s.8-.2.8-.8v-8h.4c.5,0,.7-.2.7-.7v-1.7c0-.4-.2-.6-.6-.6h-.4v-10.6c0-.1,0-.3.2-.3.7-.6,1.1-1.3,1.1-2.3v-2.2c0-.4,0-.8-.4-1h0ZM42.4,12c.6.8,1.2,1.7,1.8,2.5h0c0,0-7,0-7,0l1.6-2.8h3.1c.1,0,.3,0,.4,0h0ZM18.4,20.6c0-.5,0-.8.5-1.1,1.4,1.6,3.3,1.2,4.3,0,.6.7,1.3,1.1,2.2,1.1h.4l-2,4.6-.6,1.4h4.4l-1.9,4.4h-7.4v-10.3h0ZM27,17.7l-.7,1.6c-.3.2-.7.3-1.1.3-.8,0-1.5-.7-1.5-1.5v-2.3h3.2v2h.1ZM29.2,25.6h-4.4l6.1-14.4h7.2l-6.2,10.6h4.9l-14.8,20.6,7.2-16.7h0ZM35.8,17.1v1.1c0,.7-.7,1.2-1.4,1.3l1.4-2.4ZM37.6,22.3l1.1-1.6h-5.1v-.2c1,.2,1.8-.1,2.7-1,1.3,1.5,3.7,1.3,4.8,0,.2.2.4.4.4.7v10.7h-10.1s6.2-8.6,6.2-8.6ZM15.8,14.4c.6-.8,1.1-1.6,1.7-2.3,0,0,.3-.2.4-.2h11.7l-1.2,2.8h-12.8s0-.2,0-.2h.1ZM15.1,17.9v-2.2h3.2v2.5c0,.8-.9,1.4-1.7,1.4s-1.5-.7-1.6-1.6h0ZM17.3,20.6v10.4h-1.1v-10.4h1.1ZM16.2,41.4v-7c0-.3,0-.4.4-.4h7.9l-3.3,7.7h-4.9v-.3h0ZM43.6,41.7h-20l5.5-7.7h14.1c4.6,0,.2,0,.3,0v7.7h.1ZM42.5,31v-10.4h1.1v10.3h-1.1ZM44.9,18.2c0,.8-.9,1.4-1.7,1.4s-1.5-.8-1.5-1.6v-2.2h3.2v2.5h0Z"/>
    <polygon class="st2" points="36.8 21.8 31.9 21.8 38.1 11.2 30.9 11.2 24.7 25.6 29.2 25.6 21.9 42.3 36.8 21.8"/>
  </g>
</svg>