<?xml version="1.0" encoding="UTF-8"?>
<svg id="Layer_1" xmlns="http://www.w3.org/2000/svg" version="1.1" viewBox="0 0 60 60">
  <!-- Generator: Adobe Illustrator 29.5.1, SVG Export Plug-In . SVG Version: 2.1.0 Build 141)  -->
  <defs>
    <style>
      .st0 {
        fill: none;
      }

      .st1 {
        fill: #0056a4;
      }

      .st2 {
        fill: #fff;
      }
    </style>
  </defs>
  <path class="st2" d="M51.9,16.9c-.6-.6-1.7-1.2-3.3-1.2s-.7,0-1,0c-1.1.2-2.1.3-3.1.3-3.4,0-6.6-.9-9.9-2.9-.2-.1-.4-.2-.5-.4l-.3-.2c-.9-.6-1.9-1-2.9-1s-.9,0-1.4.2c-1.4.4-2.6,1.6-3.2,3.1-.1.4-.3.8-.4,1.2h-.2c-.2.3-.3.4-.5.5-3.4,2.3-6.9,3.4-10.6,3.4s-1.5,0-2.3-.1h-.7c-1.8,0-2.9.7-3.5,1.4-1.2,1.1-1.7,2.6-1.6,4.3.5,4.8,1.9,9.3,4.2,13.3,2,3.4,4.3,5.9,7,7.6,2.1,1.3,4.2,1.9,6.3,1.9s2-.2,3-.4c2.2-.7,4.1-2,5.6-4,.5.2,1,.4,1.5.5.8.2,1.7.3,2.5.3,2.2,0,4.5-.7,6.6-2.2,2.7-1.8,4.9-4.4,6.7-7.9,2.1-4.1,3.4-8.7,3.6-13.5,0-1.7-.5-3.2-1.6-4.2Z"/>
  <path class="st1" d="M31.2,33.4c.1-.3.2-.4.2-.5,1.2-2,3.7-3.1,5.9-2.5,2.3.6,3.9,2.8,4,5.2,0,.2,0,.3,0,.5,0,0-.3-.2-.4-.3-2.2-2.3-4.9-3.2-8-2.8-.5,0-.9.2-1.5.3h-.1Z"/>
  <path class="st1" d="M32,24.1s-.2,0-.3-.1c-.2,0-.5-.4-.7,0s0,.6.1.8c1.4,2.5,4.7,2.4,6.2,0,.1-.2.2-.5.1-.6-.1-.3-.4-.1-.7,0-1.6.7-3.2.7-4.8,0h.1Z"/>
  <path class="st1" d="M46.4,27.3v-.4c0-.1-.3-.2-.4-.2-2,0-3.6-.8-4.9-2.2,0-.1-.4-.2-.5-.2s-.2.3-.2.5c0,1.5.7,2.6,2,3.2s2.6.4,3.9-.5l.2-.2h0Z"/>
  <path class="st1" d="M50.6,18.4c-.5-.4-1.3-.9-2.7-.6-5,.8-9.7,0-14.3-2.9-.2,0-.5-.3-.7-.5l-.3-.2c-.8-.6-1.7-.7-2.6-.5-.9.3-1.5.9-1.9,1.9-.2.6-.4,1.2-.6,1.8-.1,0-.3,0-.4.2l-.3.2c-.2.2-.4.3-.7.5-4.5,3-9.1,4.1-14.2,3.5-1.4-.2-2.2.3-2.6.8-.4.4-.9,1.2-.8,2.6.5,4.5,1.8,8.8,4,12.5,1.8,3.1,3.9,5.4,6.3,6.9,1.8,1.1,3.5,1.6,5.2,1.6s1.6,0,2.4-.4c2.3-.7,4.1-2.2,5.5-4.7.8.5,1.7.9,2.6,1.2.7.2,1.4.3,2,.3,1.8,0,3.7-.6,5.5-1.9,2.4-1.6,4.4-4,6-7.2,2-3.9,3.2-8.1,3.4-12.7,0-1.4-.5-2.2-.9-2.6v.2ZM29.5,39.5c-1,2-2.3,3.1-3.9,3.6-1.7.5-3.3.2-5.2-.9-2-1.3-3.8-3.2-5.3-5.8-2-3.4-3.2-7.2-3.6-11.3h0q0-.1,0-.1c5.7.7,11.2-.7,16.2-4,.3-.2.6-.4.9-.6l.2-.2c1,2.3,1.7,4.7,2,7,.1,1,.2,2,.3,2.9v.7c0,4-.5,6.6-1.7,8.9v-.2ZM48.5,20.8c-.2,4.1-1.3,8-3.1,11.5-1.4,2.7-3.1,4.7-5.1,6.1-1.8,1.2-3.4,1.6-5.1,1.2-.8-.2-1.5-.6-2.1-1.1.7-2.2,1.1-4.6,1.1-7.9h0v-.9c0-.8-.2-1.9-.3-3-.4-2.6-1.1-5.2-2.2-7.8-.2-.6-.6-1-1-1.3,0-.3.2-.6.3-.9h.2c.3.3.6.6.9.7,5.2,3.1,10.7,4.2,16.4,3.3h0c0,.1,0,0,0,0Z"/>
  <path class="st1" d="M28.7,28.5h.3c.3,0,.7.1.7-.3s-.2-.5-.4-.7c-2.3-1.7-5.3-.4-5.7,2.5,0,.2,0,.5.2.6.3.2.4,0,.6-.2,1.2-1.2,2.7-1.9,4.4-1.9h-.1Z"/>
  <path class="st1" d="M14.5,32.4s0,.3.2.3h.5c1.7-1.1,3.5-1.3,5.4-.8.1,0,.4,0,.5-.1v-.5c-.9-1.2-2-1.8-3.4-1.6-1.5.2-2.4,1.1-3,2.5v.3h-.2Z"/>
  <path class="st0" d="M31.5,42.5c.9.9,2,1.6,3.4,2,2.3.6,4.4,0,6.3-1.4,2.4-1.7,4.2-4,5.5-6.6,2-3.8,3-7.8,3.2-12.1,0-1.3-.6-1.9-1.9-1.7-5.5.9-10.6-.2-15.4-3.1-.4-.2-.7-.5-1.1-.7-.9-.6-1.8-.3-2.2.7-.4,1-.7,1.9-.9,2.9"/>
  <path class="st0" d="M32.7,30.5c0,3.8-.5,6.8-2,9.6-1.1,2.1-2.6,3.7-4.8,4.3-2.3.7-4.4,0-6.4-1.1-2.5-1.5-4.3-3.8-5.8-6.4-2.1-3.7-3.4-7.7-3.8-11.9,0-1.3.5-1.9,1.8-1.7,5.5.6,10.6-.7,15.2-3.8.4-.2.7-.5,1-.8.9-.7,1.8-.4,2.2.6,1,2.4,1.8,4.8,2.1,7.4.2,1.4.3,2.9.4,3.7h0Z"/>
  <path class="st1" d="M18.5,36.5c.1.3.1.4.2.5,1.2,2.1,3.6,3.1,5.9,2.5,2.3-.6,4-2.7,4.1-5.2,0-.2,0-.3-.1-.5-.1,0-.3.2-.4.3-2.3,2.3-5,3.1-8.1,2.7-.5,0-.9-.2-1.5-.3h-.1Z"/>
</svg>