<?xml version="1.0" encoding="UTF-8"?>
<svg id="Layer_1" xmlns="http://www.w3.org/2000/svg" version="1.1" viewBox="0 0 60 60">
  <!-- Generator: Adobe Illustrator 29.5.1, SVG Export Plug-In . SVG Version: 2.1.0 Build 141)  -->
  <defs>
    <style>
      .st0 {
        fill: #fbe943;
      }

      .st1 {
        fill: #f6bd16;
      }

      .st2 {
        fill: #fff;
      }

      .st3 {
        fill: #ff0;
      }

      .st4 {
        fill: #f7931e;
      }

      .st5 {
        fill: #fefefe;
      }
    </style>
  </defs>
  <path class="st2" d="M44,36.2c.4-.5.6-1.1.8-1.7.3-1.1.3-2.1.2-3,1.1-1.7,1.2-3.9.2-5.8-.7-1.2-1.8-2-3-2.5-.4-.9-.8-1.8-1.2-2.7-.2-.4-.4-.8-.6-1.2l-.4-.9v-.2s.1-.2.2-.3c.4-.3.9-.7,1.3-1.3,1.1-1.4.9-3.6-.5-4.8,0-.2.1-.5.1-.7v-.3c0-1.1-.9-2-2-2h-.1c-.4,0-.8.2-1.1.4-.1,0-.2.2-.3.3h0c0,.1-.1.2-.2.3l-.3.5c-.3.5-.7.9-1,1.4-1,1.5-.9,3.2.3,4.4v1.2c-.1.1-.2.2-.3.4-.2-.4-.4-.8-.6-1.2-.7-1.2-.8-2.5-.4-3.9.2-.5.4-.9.8-1.4.5-.7.5-1.6,0-2.3h0c-.4-.5-1-.8-1.6-.8s-.7,0-1,.3h0c-.1,0-.2.2-.3.3-.3.2-.6.4-.9.7-.6.4-1.2.8-1.7,1.3-1.2.9-2.6,2-3.7,3.5,0-.9-.4-1.8-1.2-2.4-.4-.3-.7-.5-1.1-.8-.1,0-.3-.2-.5-.3-.3-.2-.7-.3-1.1-.3s-.9,0-1.2.4c-.7.5-.9,1.4-.7,2.2-.6.6-.9,1.3-1,2.1,0,1,.4,1.9,1.1,2.5.4.3.8.6,1.1.8,0,0,.1,0,.2.1-.2.2-.3.5-.5.7-.4.6-.9,1.3-1.3,1.9-.3-.3-.8-.5-1.3-.5h0c-.5,0-.9.2-1.3.5-.3.3-.6.6-.9.8l-.2.2c-1.3,1.3-2.1,2.7-2.6,4.4-.4,1.6-.3,3.2-.1,4.4.3,1.9,1.2,3.7,2.5,5.1-.6.4-1.2,1-1.6,1.6-1,1.6-1.3,3.6-.5,5.4,0,.2.2.3.3.5,1,1.7,2.8,2.8,4.8,2.8s1.9-.3,2.8-.7l2.1-1.2v2.4c0,3.1,2.5,5.6,5.6,5.6s5.6-2.5,5.6-5.6v-2.4l2.1,1.2c.8.5,1.8.7,2.8.7s1.5-.2,2.1-.4c1.1-.5,2.1-1.3,2.7-2.3.5-.8.7-1.7.7-2.6s0-1.1-.2-1.6c-.3-1.1-.9-2-1.8-2.8v-.4Z"/>
  <g>
    <g>
      <g>
        <path d="M40.4,43.6c-.5,0-1.1,0-1.5-.4l-20.8-12c-1.5-.9-2-2.8-1.1-4.2.6-1,1.6-1.6,2.7-1.6s1.1.1,1.5.4l20.8,12c1.5.9,2,2.8,1.1,4.2-.6,1-1.6,1.6-2.7,1.6Z"/>
        <path d="M19.6,25.8h0c.5,0,.9.1,1.3.4l20.8,12c1.3.7,1.7,2.4,1,3.6-.5.8-1.4,1.3-2.3,1.3s-.9,0-1.3-.4l-20.8-11.9c-1.3-.7-1.7-2.4-1-3.6.5-.8,1.4-1.3,2.3-1.3M19.6,24.9c-1.2,0-2.4.6-3.1,1.8h0c-1,1.7-.4,3.9,1.3,4.9l20.8,12c.6.3,1.2.5,1.8.5,1.2,0,2.4-.6,3.1-1.8h0c1-1.7.4-3.9-1.3-4.9l-20.8-12c-.6-.3-1.2-.5-1.8-.5h0Z"/>
      </g>
      <g>
        <path class="st2" d="M40.4,43.6c-.5,0-1.1,0-1.5-.4-.7-.4-1.2-1.1-1.4-1.9-.2-.8-.1-1.6.3-2.4.6-1,1.6-1.6,2.7-1.6s1.1.1,1.5.4c1.5.9,2,2.8,1.1,4.2-.6,1-1.6,1.6-2.7,1.6h0Z"/>
        <path d="M40.4,37.8h0c.5,0,.9.1,1.3.4,1.3.7,1.7,2.4,1,3.6-.5.8-1.4,1.3-2.3,1.3s-.9,0-1.3-.4c-1.3-.7-1.7-2.4-1-3.6.5-.8,1.4-1.3,2.3-1.3M40.4,36.9c-1.2,0-2.4.6-3.1,1.8-1,1.7-.4,3.9,1.3,4.9.6.3,1.2.5,1.8.5,1.2,0,2.4-.6,3.1-1.8,1-1.7.4-3.9-1.3-4.9-.6-.3-1.2-.5-1.8-.5h0Z"/>
      </g>
    </g>
    <g>
      <g>
        <path d="M19.6,43.6c-1.1,0-2.1-.6-2.7-1.6-.9-1.5-.3-3.4,1.1-4.2l20.8-12c.5-.3,1-.4,1.5-.4,1.1,0,2.1.6,2.7,1.6.9,1.5.3,3.4-1.1,4.2l-20.8,12c-.5.3-1,.4-1.5.4h0Z"/>
        <path d="M40.4,25.8c.9,0,1.8.5,2.3,1.3.7,1.3.3,2.9-1,3.6l-20.8,12c-.4.2-.9.4-1.3.4-.9,0-1.8-.5-2.3-1.3-.7-1.3-.3-2.9,1-3.6l20.8-12c.4-.2.9-.4,1.3-.4M40.4,24.9c-.6,0-1.2.2-1.8.5l-20.7,12c-1.7,1-2.3,3.2-1.3,4.9h0c.7,1.1,1.9,1.8,3.1,1.8s1.2-.2,1.8-.5l20.8-12c1.7-1,2.3-3.2,1.3-4.9h0c-.7-1.1-1.9-1.8-3.1-1.8h0Z"/>
      </g>
      <g>
        <path class="st2" d="M19.6,43.6c-1.1,0-2.1-.6-2.7-1.6-.9-1.5-.3-3.4,1.1-4.2.5-.3,1-.4,1.5-.4,1.1,0,2.1.6,2.7,1.6.4.7.5,1.6.3,2.4-.2.8-.7,1.5-1.4,1.9-.5.3-1,.4-1.5.4h0Z"/>
        <path d="M19.6,37.8c.9,0,1.8.5,2.3,1.3.7,1.3.3,2.9-1,3.6-.4.2-.9.4-1.3.4-.9,0-1.8-.5-2.3-1.3-.7-1.3-.3-2.9,1-3.6.4-.2.9-.4,1.3-.4M19.6,36.9c-.6,0-1.2.2-1.8.5-1.7,1-2.3,3.2-1.3,4.9.7,1.1,1.9,1.8,3.1,1.8s1.2-.2,1.8-.5c1.7-1,2.3-3.2,1.3-4.9-.7-1.1-1.9-1.8-3.1-1.8h0Z"/>
      </g>
    </g>
    <g>
      <g>
        <path d="M30,49.6c-1.7,0-3.1-1.4-3.1-3.1v-24c0-1.7,1.4-3.1,3.1-3.1s3.1,1.4,3.1,3.1v24c0,1.7-1.4,3.1-3.1,3.1Z"/>
        <path d="M30,19.8c1.5,0,2.7,1.2,2.7,2.7v24c0,1.5-1.2,2.7-2.7,2.7s-2.7-1.2-2.7-2.7v-24c0-1.5,1.2-2.7,2.7-2.7M30,18.9c-2,0-3.6,1.6-3.6,3.6v24c0,2,1.6,3.6,3.6,3.6s3.6-1.6,3.6-3.6v-24c0-2-1.6-3.6-3.6-3.6h0Z"/>
      </g>
      <g>
        <path class="st2" d="M30,49.6c-1.7,0-3.1-1.4-3.1-3.1s1.4-3.1,3.1-3.1,3.1,1.4,3.1,3.1-1.4,3.1-3.1,3.1Z"/>
        <path d="M30,43.8c1.5,0,2.7,1.2,2.7,2.7s-1.2,2.7-2.7,2.7-2.7-1.2-2.7-2.7,1.2-2.7,2.7-2.7M30,42.9h0c-2,0-3.6,1.6-3.6,3.6s1.6,3.6,3.6,3.6,3.6-1.6,3.6-3.6-1.6-3.6-3.6-3.6h0Z"/>
      </g>
    </g>
    <g>
      <g>
        <path class="st3" d="M39.8,13.4c-.6-.5-.8-1.1-.7-1.8,0-.2.1-.4.2-.7,0,0-.1,0-.1.2-.4.6-.9,1.2-1.3,1.8-.5.7-.4,1.4.2,2,.4.4.6.8.5,1.3,0,.2-.1.3-.1.6.5-.5,1.1-.8,1.5-1.3.5-.6.4-1.5-.2-2h0Z"/>
        <path class="st3" d="M24.2,13.1c-.4-.3-.9-.6-1.4-1q0,.2.1.3c.3.7,0,1.2-.5,1.7-.6.4-.6,1.3,0,1.7.4.3.9.6,1.3.9h.1c-.3-.8,0-1.4.6-1.9.6-.4.5-1.2,0-1.7h-.2Z"/>
      </g>
      <path class="st0" d="M34.4,10h0Z"/>
      <path class="st1" d="M39.3,36.8c1.6,0,3.1-1.3,3.6-2.9.4-1.3,0-2.7.2-4-.5.7-1,1.3-1.5,1.8s-1.7,1.2-2,1.2c0,0,0-.1.1-.2,1.8-2.8,2-5.7.8-8.7-.6-1.3-1.2-2.6-1.8-4-.2-.5-.4-.9-.6-1.4-.1.7-.2,1.3-.2,2-.1,1.8-.9,3.2-2.5,4.2-.5.3-.9.6-1.5.6.1-.4.4-.8.6-1.2.4-.8.7-1.7.7-2.6,0-1.5-.4-2.9-1.1-4.2-1-1.8-1.2-3.7-.5-5.6.2-.7.6-1.3,1-1.9h0s-.2.1-.3.2c-.9.6-1.8,1.3-2.7,1.9-1.3.9-2.5,1.9-3.4,3.2-1.7,2.4-2.4,5.1-2,8.1,0,.4.1.8.2,1.3h-.1c-1.4-.5-2.4-2.1-2.1-3.6,0-.5.2-.9.2-1.4s.1-.5.1-.9h-.1c-.8,1.4-1.7,2.6-2.5,3.9-.7,1.1-1.1,2.3-1.3,3.6v1.6c-1.1-1.8-1.4-3.6-1.1-5.6-.3.3-.6.6-1,.9-1,1-1.7,2.1-2.1,3.5-.3,1.2-.3,2.4,0,3.6.5,3.4,3.5,6.2,7,6.4h16.2l-.3.2Z"/>
      <path class="st5" d="M26.2,24.7h0Z"/>
      <path class="st5" d="M33.8,25.6h0Z"/>
      <path class="st4" d="M36.6,32.1c-.7-.9-.7-1.7,0-2.7.1-.1.2-.3.3-.5-.9.1-1.6.6-2.1,1.3-.5.7-.7,1.5-.6,2.4-.7-.4-1.3-.7-1.7-1.4-.3-.6-.3-1.3-.2-2,.2-1-.6-2.2-1.5-2.5-.8-.3-1.5-.3-2.3-.5h-.3c.3.4.5.9.7,1.3.3,1.3,0,2.4-.8,3.4-.3.4-.7.8-1,1.3,0,.2-.2,0-.2,0-.4-.5-.7-1.1-.9-1.7,0-.3-.1-.6-.2-.9-.2.1-.2.3-.3.5-.4.6-.8,1.2-.9,1.9-.3,1.3,0,2.5.8,3.5.6.7,1.4,1.2,2.3,1.4,1.8.1,3.5,0,5.3,0,2.1-.3,3.4-1.8,3.7-2.5.3-.7.4-1.6,0-2.3h0Z"/>
    </g>
  </g>
  <g>
    <path d="M42.2,37.4l-1.5-.9c-.4.2-.9.3-1.3.3h-16.2c-1,0-2-.3-2.9-.8l-2.3,1.3c-1.7,1-2.3,3.2-1.3,4.9s3.2,2.3,4.9,1.3l5.1-2.9v5.8c0,2,1.6,3.6,3.6,3.6s3.6-1.6,3.6-3.6v-5.8l5.1,2.9c1.7,1,3.9.4,4.9-1.3s.4-3.9-1.3-4.9h-.4ZM20.6,42.2c-1,.6-2.2.2-2.7-.7s-.2-2.2.7-2.7c1-.6,2.2-.2,2.7.7.6,1,.2,2.2-.7,2.7ZM30,48.4c-1.1,0-2-.9-2-2s.9-2,2-2,2,.9,2,2-.9,2-2,2ZM42.1,41.5c-.6,1-1.8,1.3-2.7.7-1-.6-1.3-1.8-.7-2.7.6-1,1.8-1.3,2.7-.7,1,.6,1.3,1.8.7,2.7Z"/>
    <path d="M20.4,26.4c0-.5.2-.9.3-1.4-.5-.1-1-.2-1.5-.1,0,1,.5,2.1,1.1,3.1v-1.6h0Z"/>
    <path class="st2" d="M41.4,38.7c-1-.6-2.2-.2-2.7.7-.6,1-.2,2.2.7,2.7,1,.6,2.2.2,2.7-.7s.2-2.2-.7-2.7Z"/>
    <path d="M39.6,32.8v.2c.2,0,1.3-.6,1.9-1.2.6-.5,1.1-1.1,1.5-1.8v.9c1-1.1,1.2-2.8.5-4.1-.6-1.1-1.7-1.7-2.8-1.8.9,2.7.5,5.4-1.1,7.9h0Z"/>
    <path class="st2" d="M18.6,38.7c-1,.6-1.3,1.8-.7,2.7.6.9,1.8,1.3,2.7.7,1-.6,1.3-1.8.7-2.7-.6-1-1.8-1.3-2.7-.7Z"/>
    <circle class="st2" cx="30" cy="46.4" r="2"/>
    <path class="st3" d="M38.6,16.2c0,.2-.1.3-.1.6.5-.5,1.1-.8,1.5-1.3.5-.6.4-1.5-.2-2s-.8-1.1-.7-1.8c0-.2.1-.4.2-.7,0,0-.1,0-.1.2-.4.6-.9,1.2-1.3,1.8-.5.7-.4,1.4.2,2,.4.4.6.8.5,1.3h0Z"/>
    <path class="st3" d="M23.5,16.7h.1c-.3-.8,0-1.4.6-1.9.6-.4.5-1.2,0-1.7-.4-.3-.9-.6-1.4-1q0,.2.1.3c.3.7,0,1.2-.5,1.7-.6.4-.6,1.3,0,1.7.4.3.9.6,1.3.9h-.2Z"/>
    <path class="st0" d="M34.5,10h0Z"/>
    <path class="st1" d="M28.2,36.9h-.6c-.9-.2-1.7-.7-2.3-1.4-.8-1-1.1-2.2-.8-3.5.2-.7.6-1.3.9-1.9.1-.2.2-.4.3-.5,0,.3,0,.6.2.9.2.6.4,1.2.9,1.7,0,0,.2.2.2,0,.2-.5.6-.9,1-1.3.8-1,1.1-2.1.8-3.4-.1-.5-.4-.9-.7-1.3h.3c.8.2,1.6.3,2.3.5.9.3,1.7,1.5,1.5,2.5-.1.7-.1,1.3.2,2,.4.7,1,1,1.7,1.4-.1-.9,0-1.7.6-2.4.5-.7,1.2-1.1,2.1-1.3,0,.2-.2.3-.3.5-.7.9-.7,1.8,0,2.7.5.6.4,1.6,0,2.3-.3.7-1.6,2.2-3.7,2.5h-1.1,7.5c.5,0,.9-.1,1.3-.3,1-.5,1.9-1.4,2.2-2.5.3-1,.2-2.1.2-3.1v-.9c-.5.7-1,1.3-1.5,1.8s-1.7,1.2-2,1.2c0,0,0-.1.1-.2,1.6-2.5,2-5.1,1.1-7.9,0-.3-.2-.6-.3-.8-.6-1.3-1.2-2.6-1.8-4-.2-.5-.4-.9-.6-1.4-.1.7-.2,1.3-.2,2-.1,1.8-.9,3.2-2.5,4.2-.5.3-.9.6-1.5.6.1-.4.4-.8.6-1.2.4-.8.7-1.7.7-2.6,0-1.5-.4-2.9-1.1-4.2-1-1.8-1.2-3.7-.5-5.6.2-.7.6-1.3,1-1.9h0s-.2,0-.3.2c-.9.6-1.8,1.3-2.7,1.9-1.3.9-2.5,1.9-3.4,3.2-1.7,2.4-2.4,5.1-2,8.1,0,.4.1.8.2,1.3h-.1c-1.4-.5-2.4-2.1-2.1-3.6,0-.5.2-.9.2-1.4s.1-.5.1-.9h-.1c-.8,1.4-1.7,2.6-2.5,3.9-.5.7-.8,1.5-1,2.3,0,.4-.2.9-.3,1.4v1.6c-.6-1-1-2-1.1-3.1,0-.8,0-1.6,0-2.5-.3.3-.6.6-1,.9-1,1-1.7,2.1-2.1,3.5-.3,1.2-.3,2.4,0,3.6.3,2.4,1.9,4.5,4,5.6.9.5,1.9.7,2.9.8.6,0,2.6,0,5.1,0ZM33.8,25.6h0Z"/>
    <path class="st5" d="M26.2,24.7h0Z"/>
    <path class="st5" d="M33.8,25.6h0Z"/>
    <path class="st4" d="M36.7,34.4c.3-.7.4-1.6,0-2.3-.7-.9-.7-1.7,0-2.7.1-.1.2-.3.3-.5-.9.1-1.6.6-2.1,1.3-.5.7-.7,1.5-.6,2.4-.7-.4-1.4-.7-1.7-1.4-.3-.6-.3-1.3-.2-2,.2-1-.6-2.2-1.5-2.5-.8-.3-1.5-.3-2.3-.5h-.3c.3.4.5.9.7,1.3.3,1.3,0,2.4-.8,3.4-.3.4-.7.8-1,1.3,0,.2-.2,0-.2,0-.4-.5-.7-1.1-.9-1.7,0-.3-.1-.6-.2-.9-.2.1-.2.3-.3.5-.4.6-.8,1.2-.9,1.9-.3,1.3,0,2.5.8,3.5.6.7,1.4,1.2,2.3,1.4h5.3c2.1-.3,3.4-1.8,3.7-2.5h0Z"/>
  </g>
</svg>