<?xml version="1.0" encoding="UTF-8"?>
<svg id="Layer_1" xmlns="http://www.w3.org/2000/svg" version="1.1" viewBox="0 0 60 60">
  <!-- Generator: Adobe Illustrator 29.5.1, SVG Export Plug-In . SVG Version: 2.1.0 Build 141)  -->
  <defs>
    <style>
      .st0 {
        fill: #fff;
      }
    </style>
  </defs>
  <path class="st0" d="M38.2,30.9c-.5-.7-4-2-7.5-1.6-1.9.2-4,1-5.5,2,2.2,1,4.7,1.1,5.2,1.1,3.9.1,7.3-.9,7.9-1.6h-.1Z"/>
  <path class="st0" d="M30.6,41.3c2.4,0,4.8-.9,5.4-1.4-.6-.5-2.9-1.3-5.4-1.1-1.7,0-3.4.7-4.8,1.4,1.3.8,3,1.2,4.8,1.2h0Z"/>
  <path class="st0" d="M42.2,31c0-.8-.2-2-1.5-3.1-1.8-1.6-5.4-2.7-8.8-2.7s-1.2,0-1.8.1c-2.2.3-4.5,1-6.4,2.1v-.7c0-.6.8-1.1,3.6-2.1h0c.4-.2.8-.3,1.2-.5,3.9-1.5,4.5-5.4,4.6-8.5l-2-.8c0,2.8-.2,6.3-3.3,7.5-.4.2-.8.3-1.2.4-3,1.1-4.9,1.9-4.9,4s.6,2.7,1.6,3.5c1.9-1.5,4.6-2.6,7.1-2.9,3.7-.4,7.5.7,9,2.1.6.5.8,1,.8,1.6s-.1.9-.7,1.4c-1.5,1.5-5.9,2.2-9.3,2.1-.6,0-4-.2-6.8-1.7-.6.7-1,1.6-1.1,2.4,0,1.5.9,2.7,1.5,3.4,0,0,.2.2.2.3,1.8-1.1,4.1-1.9,6.3-2.1,2.7-.2,5.7.6,7,1.7.6.5.7,1,.7,1.4s0,.8-.6,1.4c-1.2,1.2-4.2,2.1-6.9,2.1h0c-2.5,0-4.8-.7-6.6-1.9-.5.5-.8,1-.8,1.5,0,1.1,2.1,2.5,3.5,3.5.3.2.7.5,1,.6.9.6,1.7,1.1,2.4,2.2.6,1,.9,2.2.9,3.6s-.5,1-1,1h0c-.6,0-1-.5-1-1,0-1-.2-1.8-.6-2.5-.4-.7-.9-1-1.8-1.6-.3-.2-.7-.4-1-.7-2-1.4-4.3-3-4.4-5,0-1,.5-2,1.3-2.9,0,0,0-.2-.2-.3-.7-.8-2-2.5-1.9-4.7,0-1.3.6-2.5,1.5-3.5-1.2-1.1-2.1-2.7-2.1-4.9,0-3.6,3.3-4.8,6.2-5.9.4-.1.8-.3,1.2-.4,1.8-.7,2-3,2-5.7l-2,.8c0,1.3-.1,2.8-.7,3-.4.1-.7.3-1.1.4-3,1.1-7.5,2.7-7.5,7.7s.5,3.6,1.6,5.1c-.6,1-.9,2.1-.9,3.2-.1,2.2.8,4,1.6,5.1-.6,1-.9,2-.8,3,.2,3,3,5,5.2,6.6.4.3.8.5,1.1.7.8.5,1,.6,1.1.9.2.4.3.8.3,1.4s.3,1.6.8,2.1c.6.6,1.3.9,2.1.9,1.7,0,3-1.3,3-3s-.4-3.3-1.2-4.6c-.9-1.5-2-2.2-3-2.9,0,0-.1,0-.2,0,.7,0,1.3,0,2,0,2.8,0,6.6-.9,8.3-2.7.8-.8,1.2-1.8,1.2-2.8s-.5-2-1.3-2.8c-.5-.4-1-.8-1.7-1.1v-.3c1.5-.4,3-1,3.9-1.9s1.3-1.8,1.3-2.8v.2Z"/>
  <path class="st0" d="M29.1,13.6v-1l-3.4,1.4h-.5c-.3-.2-.3-.5,0-.8l4.5-6.5s0,0,.2-.2c.1,0,.3,0,.4,0,.2,0,.4,0,.5.3l4.4,6.5c0,.1.1.3,0,.5,0,.2-.3.4-.5.4h-.2l-3.3-1.4v2.2l2,.8.5.2h.2c.2,0,.5.1.8.1,1.1,0,2.1-.7,2.4-1.8.2-.8.1-1.6-.3-2.2l-4.4-6.5h0c-.5-.7-1.3-1.1-2.2-1.1h0c-.6,0-1.1.2-1.5.5-.2.2-.4.4-.6.6l-4.5,6.6c-.8,1.2-.5,2.8.7,3.6.4.3.9.4,1.4.4h.9l.7-.3,2-.8v-1.4Z"/>
  <path d="M31.1,13.4v-.9l3.3,1.4h.2c.2,0,.5-.2.5-.4v-.5l-4.4-6.5c-.1-.2-.3-.3-.5-.3s-.3,0-.4,0c0,0-.1,0-.2.2l-4.5,6.5c-.2.3,0,.6,0,.8h.5l3.4-1.4v2.1c0,2.7-.2,5-2,5.7-.4.1-.8.3-1.2.4-2.9,1.1-6.2,2.3-6.2,5.9s.9,3.8,2.1,4.9c-.9,1-1.4,2.2-1.5,3.5,0,2.3,1.3,3.9,1.9,4.7,0,0,0,.2.2.3-.9.9-1.4,1.9-1.3,2.9,0,2,2.4,3.6,4.4,5,.4.3.7.5,1,.7.8.5,1.3.9,1.8,1.6.4.7.6,1.5.6,2.5s.4,1,1,1h0c.5,0,1-.4,1-1,0-1.3-.3-2.5-.9-3.6-.7-1.1-1.5-1.6-2.4-2.2s-.6-.4-1-.6c-1.5-1-3.5-2.4-3.5-3.5s.3-1,.8-1.5c1.8,1.3,4,1.9,6.6,1.9h0c2.7,0,5.8-.9,6.9-2.1.5-.5.6-1,.6-1.4s-.1-.8-.7-1.4c-1.2-1.1-4.3-1.9-7-1.7-2.2,0-4.5.9-6.3,2.1,0,0-.2-.2-.2-.3-.5-.7-1.6-1.9-1.5-3.4,0-.9.4-1.7,1.1-2.4,2.8,1.5,6.2,1.7,6.8,1.7,3.4.1,7.8-.6,9.3-2.1s.7-1,.7-1.4c0-.6-.3-1.1-.8-1.6-1.5-1.3-5.3-2.5-9-2.1-2.5.3-5.2,1.3-7.1,2.9-.9-.8-1.6-2-1.6-3.5s1.8-2.9,4.9-4c.4-.1.8-.3,1.2-.4,3.1-1.2,3.3-4.7,3.3-7.5v-1.3.2ZM30.6,38.8c2.5-.2,4.8.7,5.4,1.1-.6.6-3,1.4-5.4,1.4h0c-1.8,0-3.5-.4-4.8-1.2,1.3-.7,3.1-1.3,4.8-1.4h0ZM30.6,29.3c3.6-.4,7.1,1,7.5,1.6-.6.7-4,1.7-7.9,1.6-.5,0-3-.1-5.2-1.1,1.6-1.1,3.6-1.8,5.5-2h0Z"/>
</svg>