<?xml version="1.0" encoding="UTF-8"?>
<svg id="Layer_1" xmlns="http://www.w3.org/2000/svg" version="1.1" viewBox="0 0 60 60">
  <!-- Generator: Adobe Illustrator 29.5.1, SVG Export Plug-In . SVG Version: 2.1.0 Build 141)  -->
  <defs>
    <style>
      .st0 {
        fill: #fff;
      }

      .st1 {
        fill: #e4151c;
      }
    </style>
  </defs>
  <path class="st0" d="M36.2,43V8.9c-.4-1.8-2.6-2.9-6.1-2.9s-5.7,1.1-6.1,2.9v34.1c-3.4.7-6.7,2.1-6.7,5.2,0,5.2,9,5.7,12.8,5.7s12.8-.6,12.8-5.7-3.3-4.5-6.7-5.2Z"/>
  <g>
    <g>
      <ellipse class="st0" cx="30" cy="48.3" rx="9.8" ry="2.7"/>
      <path class="st1" d="M30,52c-4,0-10.8-.8-10.8-3.7s6.8-3.7,10.8-3.7,10.8.8,10.8,3.7-6.8,3.7-10.8,3.7ZM21.2,48.3c.5.6,3.3,1.7,8.8,1.7s8.3-1.2,8.8-1.7c-.5-.6-3.3-1.7-8.8-1.7s-8.3,1.2-8.8,1.7Z"/>
    </g>
    <g>
      <rect class="st0" x="25.9" y="14.9" width="8.3" height="5.5"/>
      <rect class="st1" x="25.9" y="20.4" width="8.3" height="5.5"/>
      <rect class="st1" x="25.9" y="9.4" width="8.3" height="5.5"/>
      <rect class="st0" x="25.9" y="25.8" width="8.3" height="5.5"/>
      <rect class="st1" x="25.9" y="31.3" width="8.3" height="5.5"/>
      <rect class="st0" x="25.9" y="36.8" width="8.3" height="5.5"/>
      <rect class="st1" x="25.9" y="42.3" width="8.3" height="5.5"/>
    </g>
    <ellipse class="st1" cx="30" cy="9.4" rx="4.1" ry="1.4"/>
    <ellipse class="st1" cx="30" cy="47.8" rx="4.1" ry="1.4"/>
  </g>
  <g>
    <path class="st0" d="M34.2,45.8v2h0c0,.8-1.9,1.4-4.1,1.4s-4.1-.6-4.1-1.4h0v-2c-3.4.4-5.7,1.4-5.7,2.5s4.4,2.7,9.8,2.7,9.8-1.2,9.8-2.7-2.3-2-5.7-2.5Z"/>
    <rect class="st0" x="25.9" y="14.9" width="8.3" height="5.5"/>
    <rect class="st1" x="25.9" y="20.4" width="8.3" height="5.5"/>
    <path class="st1" d="M34.2,9.4c0-.8-1.9-1.4-4.1-1.4s-4.1.6-4.1,1.4v5.5h8.3v-5.5h0Z"/>
    <rect class="st0" x="25.9" y="25.8" width="8.3" height="5.5"/>
    <rect class="st1" x="25.9" y="31.3" width="8.3" height="5.5"/>
    <rect class="st0" x="25.9" y="36.8" width="8.3" height="5.5"/>
    <path class="st1" d="M25.9,47.8h0c0,.8,1.9,1.4,4.1,1.4s4.1-.6,4.1-1.4h0v-5.5h-8.3v5.5h.1Z"/>
  </g>
</svg>