<?xml version="1.0" encoding="UTF-8"?>
<svg id="Layer_1" xmlns="http://www.w3.org/2000/svg" version="1.1" viewBox="0 0 60 60">
  <!-- Generator: Adobe Illustrator 29.5.1, SVG Export Plug-In . SVG Version: 2.1.0 Build 141)  -->
  <defs>
    <style>
      .st0 {
        fill: #fff;
      }

      .st1 {
        fill: #ff0;
      }
    </style>
  </defs>
  <path class="st0" d="M45.3,15.2h0c-.4-1-1.4-2-2.8-2.4-.4,0-.8-.2-1.2-.2-.9,0-1.8.3-2.7.9-1.6,1-2.2,2.3-2.3,3.2v.6c-.4-.3-1-.5-1.7-.7-1.4-.3-3-.4-4-.4s-2.9,0-4.1.4c-1.3.5-1.9,1.2-2.7,2.2-.2,0-.4,0-.5,0,.2-.6.3-1.3.1-2.1-.2-.9-.7-2.2-2.3-3.2-.9-.6-1.8-.9-2.7-.9s-.8,0-1.1.2c-1.8.5-2.6,1.9-2.8,2.3h0c-2.3,5.1-5,10.7-5.7,11.9-1.7,3.2-.3,4.7,1.1,5.9,0,0,.2.2.3.3.9.8,2.1,1.7,3.6,1.7s.4,0,.5,0h.2c-.2,1.3,0,2.8.8,3.8.2.2.3.4.5.5v.4c.2,1.1,1,2.1,2.1,2.7.2,0,.3.2.5.2.3.9,1,1.7,1.8,2.3.7.5,1.5.7,2.3.7h0c.2.2.3.3.4.3.7.6,1.6.9,2.6.9s1.6-.2,2.4-.6c.5.3,1,.7,1.7,1,.7.4,1.5.6,2.2.6s1.3,0,1.9-.4c1-.5,1.7-1.3,2.2-2.1.5,0,.9-.2,1.4-.4,1-.5,1.7-1.3,2.1-2.3.5-.2,1-.4,1.4-.8.6-.5,1.1-1.3,1.3-2.2.6-.2,1.2-.6,1.6-1.1,1-1.2,1-2.7.7-4h0c.5.3,1,.5,1.4.5h.5c1.5,0,2.7-.9,3.6-1.7l.3-.3c1.4-1.2,2.7-2.7,1.1-5.9-.8-1.6-4.9-10.1-5.7-11.9,0,0-.3.2-.3.2Z"/>
  <g>
    <path class="st0" d="M49.3,28c-.9-1.7-5.7-11.9-5.8-12,0,0-.5-1-1.5-1.3-.7-.2-1.5,0-2.3.5s-1.3,1.2-1.4,1.9c-.2.9.2,1.6.4,1.8,0,0,.2.5.5,1.1-.8.2-1.7.2-2.5,0-.3,0-.5-.3-.8-.5-.4-.3-.9-.7-1.7-.8-2.6-.6-6.2-.3-7,0-.9.3-1.3.8-2.3,2.2,0,.1-.2.3-.3.4-.6-.2-1.8-.5-2.3-.6-.2,0-.9-.6-1.5-1.2.1-.3.2-.4.2-.5.1-.2.5-.9.4-1.8-.1-.7-.6-1.4-1.4-1.9s-1.6-.7-2.3-.5c-1,.3-1.5,1.2-1.5,1.3s-4.8,10.2-5.8,12c-1,1.9-.5,2.5.6,3.4,0,0,.2.2.3.3.6.6,1.4,1.2,2.3,1.2s.2,0,.2,0c.5,0,.9-.4,1.3-.9,0,0,.2-.3.3-.6,0,.3.2.5.3.8,0,.8.6,1.3,1,1.7-.5,1.1-.7,2.7,0,3.5.3.3.7.6,1.1.7-.1.3-.2.7-.1,1.2,0,.4.3,1,1.1,1.4.4.2.7.3,1.1.3s0,0,.1,0c0,.8.3,1.7,1.2,2.3.4.3.8.4,1.2.4s.6,0,.9-.2c.2.5.6.9.8,1,.3.3.8.4,1.3.4.8,0,1.7-.3,2.5-1.1.5.4,1.3,1.1,2.5,1.7.5.2.9.3,1.3.3s.7,0,1-.2c1-.5,1.5-1.6,1.8-2.3h.5c.6,0,1,0,1.3-.3,1.1-.5,1.3-1.6,1.3-2.3h.5c.5,0,.9,0,1.2-.4.7-.6.8-1.7.9-2.4h0c.7,0,1.3-.2,1.7-.6.8-.9.3-2.5-.3-3.5.7-.3,1.7-1,2.6-2.2,0,.3.2.5.3.6.3.5.8.9,1.3.9h.2c.8,0,1.6-.6,2.3-1.2l.3-.3c1.1-.9,1.6-1.5.6-3.4v-.3h.1Z"/>
    <path d="M49.3,28c-.9-1.7-5.7-11.9-5.8-12,0,0-.5-1-1.5-1.3-.7-.2-1.5,0-2.3.5s-1.3,1.2-1.4,1.9c-.2.9.2,1.6.4,1.8,0,0,.2.5.5,1.1-.8.2-1.7.2-2.5,0-.3,0-.5-.3-.8-.5-.4-.3-.9-.7-1.7-.8-2.6-.6-6.2-.3-7,0-.9.3-1.3.8-2.3,2.2,0,.1-.2.3-.3.4-.6-.2-1.8-.5-2.3-.6-.2,0-.9-.6-1.5-1.2.1-.3.2-.4.2-.5.1-.2.5-.9.4-1.8-.1-.7-.6-1.4-1.4-1.9s-1.6-.7-2.3-.5c-1,.3-1.5,1.2-1.5,1.3s-4.8,10.2-5.8,12c-1,1.9-.5,2.5.6,3.4,0,0,.2.2.3.3.6.6,1.4,1.2,2.3,1.2s.2,0,.2,0c.5,0,.9-.4,1.3-.9,0,0,.2-.3.3-.6,0,.3.2.5.3.8,0,.8.6,1.3,1,1.7-.5,1.1-.7,2.7,0,3.5.3.3.7.6,1.1.7-.1.3-.2.7-.1,1.2,0,.4.3,1,1.1,1.4.4.2.7.3,1.1.3s0,0,.1,0c0,.8.3,1.7,1.2,2.3.4.3.8.4,1.2.4s.6,0,.9-.2c.2.5.6.9.8,1,.3.3.8.4,1.3.4.8,0,1.7-.3,2.5-1.1.5.4,1.3,1.1,2.5,1.7.5.2.9.3,1.3.3s.7,0,1-.2c1-.5,1.5-1.6,1.8-2.3h.5c.6,0,1,0,1.3-.3,1.1-.5,1.3-1.6,1.3-2.3h.5c.5,0,.9,0,1.2-.4.7-.6.8-1.7.9-2.4h0c.7,0,1.3-.2,1.7-.6.8-.9.3-2.5-.3-3.5.7-.3,1.7-1,2.6-2.2,0,.3.2.5.3.6.3.5.8.9,1.3.9h.2c.8,0,1.6-.6,2.3-1.2l.3-.3c1.1-.9,1.6-1.5.6-3.4v-.3h.1ZM14,31.3c-.2.4-.4.4-.5.4-.3,0-.9-.3-1.6-.9,0,0-.2-.2-.3-.3-.6-.5-.7-1.2-.3-2,.9-1.8,5.6-11.6,5.8-12,0,0,.3-.5.8-.7h.3c.3,0,.7,0,1,.4.5.3.8.7.9,1.1,0,.5-.2.9-.2.9h0c-.1.3-.2.6-.4.9,0,0,0,0-.1.2-1.7,3.8-4.9,11.1-5.5,12,0,0,0,0,0,0ZM17.8,33.9c.8-1.1,1.3-1.1,1.9-.8s.3,1.2.2,1.4c-.6.8-1.1,1.6-1.5,2.1h-.4c-.2,0-.4,0-.6-.3-.3-.3-.3-1.7.4-2.6h0v.2ZM19.3,39.5c-.3-.2-.5-.4-.5-.6,0-.4.2-.8.3-.9h0s2.2-3.3,3.2-4.4c.3-.3.6-.5.9-.5h0c.4,0,.8.3,1,.5.2.3.1,2-1.4,3.5s-.6.7-.9,1c-1.3,1.4-1.8,1.9-2.6,1.5h0ZM21.7,42.1c-.8-.5-.7-1.3-.6-1.7.6-.4,1.1-1,1.6-1.6.3-.3.6-.6.9-.9.7-.8,1.2-1.6,1.5-2.5.6.2,1.6.6,1.5,1.6-.2,1.3-.7,1.8-1.3,2.4l-.6.6c-.2.2-.4.5-.6.8-1,1.4-1.6,1.9-2.3,1.4h-.1,0ZM24.7,43.3c-.6-.5-.6-.7-.4-1.1.3-.3.5-.6.7-.9s.4-.5.5-.7l.5-.5.6-.6c.2-.2.5-.3.8-.3,0,0,.2,0,.4.3.8,1.1,0,2.4-.6,3-1,1-2.1,1.1-2.5.8ZM41,36.3c-.4.4-1.9.2-2.2,0-.5-.4-.9-.7-1.3-1-1.7-1.3-2.9-2.3-3.9-3.5-.2-.2-.6-.3-.8,0-.2.2-.3.6,0,.8,1.1,1.3,2.4,2.3,4.1,3.6.4.3.8.7,1.3,1,.2.2.5.3.9.4,0,.6,0,1.4-.5,1.7-.6.5-2.2-.4-3.4-1.1-1.7-1-3.3-2.8-3.3-2.8-.2-.2-.6-.3-.8,0-.2.2-.2.6,0,.8,0,0,1.7,1.9,3.5,3,.6.4,1.3.7,1.9,1,0,.5,0,1.3-.6,1.7-.6.3-2.5.6-5.2-2.9-.2-.3-.6-.3-.8,0-.3.2-.3.6,0,.8,1.4,1.8,2.6,2.8,3.7,3.2-.2.5-.6,1.3-1.2,1.5-.4.2-.8,0-1.3,0-1.1-.5-1.8-1.2-2.2-1.5.9-1.3,1-2.7,0-3.8-.3-.4-.7-.7-1.2-.7h0c0-.3.2-.7.2-1.1.2-1.7-1.3-2.6-2.4-2.8,0-.6,0-1.2-.4-1.5-.5-.6-1.2-.9-1.9-.9h0c-.5,0-1.1.2-1.8.9,0,0-.1.2-.2.3-.1-.3-.4-.7-.8-.9-1.1-.6-2.1-.4-3.1.7-.2-.2-.5-.5-.5-.8,0-.8-.5-1.5-.8-1.9,1.2-2.6,3.2-7.1,4.3-9.6.5.5,1.2,1.2,1.8,1.2s1.2.3,1.8.4c-.9,1.4-1.7,2.9-1.8,3.4-.1.7-.3,2,.4,2.6,1.1.9,3.2-.4,3.8-.8,1-.7,1.5-1.4,1.8-1.9.3-.4.4-.6.7-.7.7-.3,1.7.5,5.7,3.4,3.2,2.4,4.2,3.6,5.3,5,0,.2.3.4.5.5.6.7,1.1,2.2.7,2.6v-.3ZM40.9,32.6l-.2-.2c-1.1-1.4-2.2-2.6-5.5-5.1-4.4-3.3-5.5-4.1-6.8-3.6-.7.3-1,.7-1.3,1.2s-.7,1-1.5,1.6c-1.2.8-2.2,1.1-2.4.9-.1-.1-.3-.6,0-1.5,0-.4,1-2.1,2.1-3.7h0c.2-.2.3-.5.5-.7,1-1.4,1.2-1.6,1.8-1.8.5-.2,3.9-.5,6.3,0,.5,0,.8.4,1.2.6.3.2.6.5,1.1.6,1.1.4,2.4.4,3.4,0,1.1,2.6,3,6.8,4.1,9.2-1,1.4-2.2,2.1-2.8,2.4h0ZM47.9,30.5l-.3.3c-.7.6-1.2.9-1.6.9,0,0-.2,0-.5-.4-.6-.9-4.5-9.7-5.9-13h0c0,0-.3-.5-.2-1,0-.4.4-.8.9-1.1.4-.2.7-.4,1-.4h.3c.5,0,.8.7.8.7h0c.2.4,4.8,10.3,5.8,12,.4.8.3,1.5-.3,2Z"/>
  </g>
  <g>
    <path class="st1" d="M49.3,28c-.9-1.7-5.7-11.9-5.8-12,0,0-.5-1-1.5-1.3-.7-.2-1.5,0-2.3.5s-1.3,1.2-1.4,1.9c-.2.9.2,1.6.4,1.8,0,0,.2.5.5,1.1-.8.2-1.7.2-2.5,0-.3,0-.5-.3-.8-.5-.4-.3-.9-.7-1.7-.8-2.6-.6-6.2-.3-7,0-.9.3-1.3.8-2.3,2.2,0,.1-.2.3-.3.4-.6-.2-1.8-.5-2.3-.6-.2,0-.9-.6-1.5-1.2.1-.3.2-.4.2-.5.1-.2.5-.9.4-1.8-.1-.7-.6-1.4-1.4-1.9s-1.6-.7-2.3-.5c-1,.3-1.5,1.2-1.5,1.3s-4.8,10.2-5.8,12c-1,1.9-.5,2.5.6,3.4,0,0,.2.2.3.3.6.6,1.4,1.2,2.3,1.2s.2,0,.2,0c.5,0,.9-.4,1.3-.9,0,0,.2-.3.3-.6,0,.3.2.5.3.8,0,.8.6,1.3,1,1.7-.5,1.1-.7,2.7,0,3.5.3.3.7.6,1.1.7-.1.3-.2.7-.1,1.2,0,.4.3,1,1.1,1.4.4.2.7.3,1.1.3s0,0,.1,0c0,.8.3,1.7,1.2,2.3.4.3.8.4,1.2.4s.6,0,.9-.2c.2.5.6.9.8,1,.3.3.8.4,1.3.4.8,0,1.7-.3,2.5-1.1.5.4,1.3,1.1,2.5,1.7.5.2.9.3,1.3.3s.7,0,1-.2c1-.5,1.5-1.6,1.8-2.3h.5c.6,0,1,0,1.3-.3,1.1-.5,1.3-1.6,1.3-2.3h.5c.5,0,.9,0,1.2-.4.7-.6.8-1.7.9-2.4h0c.7,0,1.3-.2,1.7-.6.8-.9.3-2.5-.3-3.5.7-.3,1.7-1,2.6-2.2,0,.3.2.5.3.6.3.5.8.9,1.3.9h.2c.8,0,1.6-.6,2.3-1.2l.3-.3c1.1-.9,1.6-1.5.6-3.4v-.3h.1Z"/>
    <path d="M49.3,28c-.9-1.7-5.7-11.9-5.8-12,0,0-.5-1-1.5-1.3-.7-.2-1.5,0-2.3.5s-1.3,1.2-1.4,1.9c-.2.9.2,1.6.4,1.8,0,0,.2.5.5,1.1-.8.2-1.7.2-2.5,0-.3,0-.5-.3-.8-.5-.4-.3-.9-.7-1.7-.8-2.6-.6-6.2-.3-7,0-.9.3-1.3.8-2.3,2.2,0,.1-.2.3-.3.4-.6-.2-1.8-.5-2.3-.6-.2,0-.9-.6-1.5-1.2.1-.3.2-.4.2-.5.1-.2.5-.9.4-1.8-.1-.7-.6-1.4-1.4-1.9s-1.6-.7-2.3-.5c-1,.3-1.5,1.2-1.5,1.3s-4.8,10.2-5.8,12c-1,1.9-.5,2.5.6,3.4,0,0,.2.2.3.3.6.6,1.4,1.2,2.3,1.2s.2,0,.2,0c.5,0,.9-.4,1.3-.9,0,0,.2-.3.3-.6,0,.3.2.5.3.8,0,.8.6,1.3,1,1.7-.5,1.1-.7,2.7,0,3.5.3.3.7.6,1.1.7-.1.3-.2.7-.1,1.2,0,.4.3,1,1.1,1.4.4.2.7.3,1.1.3s0,0,.1,0c0,.8.3,1.7,1.2,2.3.4.3.8.4,1.2.4s.6,0,.9-.2c.2.5.6.9.8,1,.3.3.8.4,1.3.4.8,0,1.7-.3,2.5-1.1.5.4,1.3,1.1,2.5,1.7.5.2.9.3,1.3.3s.7,0,1-.2c1-.5,1.5-1.6,1.8-2.3h.5c.6,0,1,0,1.3-.3,1.1-.5,1.3-1.6,1.3-2.3h.5c.5,0,.9,0,1.2-.4.7-.6.8-1.7.9-2.4h0c.7,0,1.3-.2,1.7-.6.8-.9.3-2.5-.3-3.5.7-.3,1.7-1,2.6-2.2,0,.3.2.5.3.6.3.5.8.9,1.3.9h.2c.8,0,1.6-.6,2.3-1.2l.3-.3c1.1-.9,1.6-1.5.6-3.4v-.3h.1ZM14,31.3c-.2.4-.4.4-.5.4-.3,0-.9-.3-1.6-.9,0,0-.2-.2-.3-.3-.6-.5-.7-1.2-.3-2,.9-1.8,5.6-11.6,5.8-12,0,0,.3-.5.8-.7h.3c.3,0,.7,0,1,.4.5.3.8.7.9,1.1,0,.5-.2.9-.2.9h0c-.1.3-.2.6-.4.9,0,0,0,0-.1.2-1.7,3.8-4.9,11.1-5.5,12,0,0,0,0,0,0ZM17.8,33.9c.8-1.1,1.3-1.1,1.9-.8s.3,1.2.2,1.4c-.6.8-1.1,1.6-1.5,2.1h-.4c-.2,0-.4,0-.6-.3-.3-.3-.3-1.7.4-2.6h0v.2ZM19.3,39.5c-.3-.2-.5-.4-.5-.6,0-.4.2-.8.3-.9h0s2.2-3.3,3.2-4.4c.3-.3.6-.5.9-.5h0c.4,0,.8.3,1,.5.2.3.1,2-1.4,3.5s-.6.7-.9,1c-1.3,1.4-1.8,1.9-2.6,1.5h0ZM21.7,42.1c-.8-.5-.7-1.3-.6-1.7.6-.4,1.1-1,1.6-1.6.3-.3.6-.6.9-.9.7-.8,1.2-1.6,1.5-2.5.6.2,1.6.6,1.5,1.6-.2,1.3-.7,1.8-1.3,2.4l-.6.6c-.2.2-.4.5-.6.8-1,1.4-1.6,1.9-2.3,1.4h-.1,0ZM24.7,43.3c-.6-.5-.6-.7-.4-1.1.3-.3.5-.6.7-.9s.4-.5.5-.7l.5-.5.6-.6c.2-.2.5-.3.8-.3,0,0,.2,0,.4.3.8,1.1,0,2.4-.6,3-1,1-2.1,1.1-2.5.8ZM41,36.3c-.4.4-1.9.2-2.2,0-.5-.4-.9-.7-1.3-1-1.7-1.3-2.9-2.3-3.9-3.5-.2-.2-.6-.3-.8,0-.2.2-.3.6,0,.8,1.1,1.3,2.4,2.3,4.1,3.6.4.3.8.7,1.3,1,.2.2.5.3.9.4,0,.6,0,1.4-.5,1.7-.6.5-2.2-.4-3.4-1.1-1.7-1-3.3-2.8-3.3-2.8-.2-.2-.6-.3-.8,0-.2.2-.2.6,0,.8,0,0,1.7,1.9,3.5,3,.6.4,1.3.7,1.9,1,0,.5,0,1.3-.6,1.7-.6.3-2.5.6-5.2-2.9-.2-.3-.6-.3-.8,0-.3.2-.3.6,0,.8,1.4,1.8,2.6,2.8,3.7,3.2-.2.5-.6,1.3-1.2,1.5-.4.2-.8,0-1.3,0-1.1-.5-1.8-1.2-2.2-1.5.9-1.3,1-2.7,0-3.8-.3-.4-.7-.7-1.2-.7h0c0-.3.2-.7.2-1.1.2-1.7-1.3-2.6-2.4-2.8,0-.6,0-1.2-.4-1.5-.5-.6-1.2-.9-1.9-.9h0c-.5,0-1.1.2-1.8.9,0,0-.1.2-.2.3-.1-.3-.4-.7-.8-.9-1.1-.6-2.1-.4-3.1.7-.2-.2-.5-.5-.5-.8,0-.8-.5-1.5-.8-1.9,1.2-2.6,3.2-7.1,4.3-9.6.5.5,1.2,1.2,1.8,1.2s1.2.3,1.8.4c-.9,1.4-1.7,2.9-1.8,3.4-.1.7-.3,2,.4,2.6,1.1.9,3.2-.4,3.8-.8,1-.7,1.5-1.4,1.8-1.9.3-.4.4-.6.7-.7.7-.3,1.7.5,5.7,3.4,3.2,2.4,4.2,3.6,5.3,5,0,.2.3.4.5.5.6.7,1.1,2.2.7,2.6v-.3ZM40.9,32.6l-.2-.2c-1.1-1.4-2.2-2.6-5.5-5.1-4.4-3.3-5.5-4.1-6.8-3.6-.7.3-1,.7-1.3,1.2s-.7,1-1.5,1.6c-1.2.8-2.2,1.1-2.4.9-.1-.1-.3-.6,0-1.5,0-.4,1-2.1,2.1-3.7h0c.2-.2.3-.5.5-.7,1-1.4,1.2-1.6,1.8-1.8.5-.2,3.9-.5,6.3,0,.5,0,.8.4,1.2.6.3.2.6.5,1.1.6,1.1.4,2.4.4,3.4,0,1.1,2.6,3,6.8,4.1,9.2-1,1.4-2.2,2.1-2.8,2.4h0ZM47.9,30.5l-.3.3c-.7.6-1.2.9-1.6.9,0,0-.2,0-.5-.4-.6-.9-4.5-9.7-5.9-13h0c0,0-.3-.5-.2-1,0-.4.4-.8.9-1.1.4-.2.7-.4,1-.4h.3c.5,0,.8.7.8.7h0c.2.4,4.8,10.3,5.8,12,.4.8.3,1.5-.3,2Z"/>
  </g>
</svg>