<?xml version="1.0" encoding="UTF-8"?>
<svg id="Layer_1" xmlns="http://www.w3.org/2000/svg" version="1.1" viewBox="0 0 60 60">
  <!-- Generator: Adobe Illustrator 29.5.1, SVG Export Plug-In . SVG Version: 2.1.0 Build 141)  -->
  <defs>
    <style>
      .st0 {
        fill: #0056a4;
      }

      .st1 {
        fill: #fff;
      }
    </style>
  </defs>
  <path class="st1" d="M47.1,15.7l-.4-.3c-.4-.3-.8-.5-1.2-.5,0-.4-.4-.8-.7-1.1l-.5-.4c-.3-.3-.8-.5-1.2-.5-.1-.4-.4-.8-.7-1.1h0l-.5-.4c-.4-.3-1-.5-1.5-.5h0c-.7,0-1.4.3-1.9.9l-8.1,9.6s0,.1-.1.2c-.7,1.1-.8,2.5-.3,3.7l.4.9-.4.4-.9-1c1.2-3,.3-6.9-2.2-9.9-2.3-2.6-5.3-4.2-8.1-4.2s-3.2.5-4.4,1.5c-3.3,2.8-3.2,8.3.3,12.5,2.1,2.5,5.1,4.1,7.9,4.1s1,0,1.5-.2l1.3,1.7-10.7,11.5c-1.1,1.2-1,3.1.2,4.2h0l1.9,1.7c.5.5,1.2.7,1.9.7s1.7-.4,2.2-1h.1c0,0,8.7-11.4,8.7-11.4l8.7,11.3c.6.7,1.4,1.2,2.3,1.2s1.3-.2,1.8-.6h.1c0,0,1.9-1.8,1.9-1.8,1.2-1,1.4-2.9.3-4.1h0c0,0-10.7-11.6-10.7-11.6l.9-1.1.9.2c.3,0,.6.1,1,.1,1.1,0,2.1-.4,2.7-1.2l7.9-10c.8-1,.7-2.6-.4-3.4h0Z"/>
  <path class="st0" d="M36.4,28.3c.6.1,1.3,0,1.7-.4l7.8-10c.2-.2,0-.5,0-.6h0l-.4-.4c-.2-.2-.5,0-.7,0l-5.7,6.9c-.2.2-.6.3-.8,0l-.4-.3c-.2-.2-.3-.6,0-.8h0l5.7-6.9c.2-.2.1-.5,0-.7h0l-.4-.4c-.2-.2-.5,0-.6,0l-5.7,6.9c-.2.2-.6.3-.8,0l-.4-.3c-.2-.2-.3-.6,0-.8h0l5.7-6.9c.2-.2.1-.5,0-.7h0l-.6-.5c-.2-.2-.5-.1-.7,0l-8.1,9.6c-.4.5-.4,1.2-.1,1.8l1,2.1-2.7,3-2.5-2.7c-.5-.5-.6-1.2-.3-1.9.9-2.2.3-5.4-1.8-7.9-3.2-2.8-7.4-3.9-9.9-1.8-2.5,2.1-2.2,6.4.5,9.7,2.1,2.6,5.1,3.8,7.5,3.2.7-.2,1.4,0,1.8.6l2.4,3.2-11.9,12.7c-.4.4-.3,1,0,1.4h0l1.9,1.7c.4.3,1,.3,1.3,0h0l10.3-13.4,10.2,13.4c.3.4.9.5,1.3.2h0l1.9-1.7c.4-.3.4-.9.1-1.3h0l-11.9-12.7,2.7-3.5,2.1.5h0l.5-.3Z"/>
  <path class="st0" d="M36.4,28.3c.6.1,1.3,0,1.7-.4l7.8-10c.2-.2,0-.5,0-.6h0l-.4-.4c-.2-.2-.5,0-.7,0l-5.7,6.9c-.2.2-.6.3-.8,0l-.4-.3c-.2-.2-.3-.6,0-.8h0l5.7-6.9c.2-.2.1-.5,0-.7h0l-.4-.4c-.2-.2-.5,0-.6,0l-5.7,6.9c-.2.2-.6.3-.8,0l-.4-.3c-.2-.2-.3-.6,0-.8h0l5.7-6.9c.2-.2.1-.5,0-.7h0l-.6-.5c-.2-.2-.5-.1-.7,0l-8.1,9.6c-.4.5-.4,1.2-.1,1.8l1,2.1-2.7,3-2.5-2.7c-.5-.5-.6-1.2-.3-1.9.9-2.2.3-5.4-1.8-7.9-3.2-2.8-7.4-3.9-9.9-1.8-2.5,2.1-2.2,6.4.5,9.7,2.1,2.6,5.1,3.8,7.5,3.2.7-.2,1.4,0,1.8.6l2.4,3.2-11.9,12.7c-.4.4-.3,1,0,1.4h0l1.9,1.7c.4.3,1,.3,1.3,0h0l10.3-13.4,10.2,13.4c.3.4.9.5,1.3.2h0l1.9-1.7c.4-.3.4-.9.1-1.3h0l-11.9-12.7,2.7-3.5,2.1.5h0l.5-.3Z"/>
</svg>