<?xml version="1.0" encoding="UTF-8"?>
<svg id="Layer_1" xmlns="http://www.w3.org/2000/svg" version="1.1" viewBox="0 0 60 60">
  <!-- Generator: Adobe Illustrator 29.5.1, SVG Export Plug-In . SVG Version: 2.1.0 Build 141)  -->
  <defs>
    <style>
      .st0 {
        fill: #fff;
      }

      .st1 {
        fill: #e4151c;
      }
    </style>
  </defs>
  <path class="st0" d="M48.9,32.4c-.3-.7-.7-1.2-1-1.7,0-.1.2-.2.3-.3.7-.9,1-2.1,1-3.4,0-2.5-1.1-3.9-1.9-4.7-1.2-1-2.9-1.5-5-1.5h-4.5c-.7,0-1.4.4-1.7,1-.6-.3-1.2-.6-1.9-.8-1-.3-2-.4-3-.4-2.7,0-4.9.9-6.5,2.5-.1-.3-.4-.6-.7-.8-.8-.6-1.8-1-2.7-1.3-1-.3-2-.4-3-.4-2.8,0-5,.9-6.7,2.7-1.8,1.5-2.6,3.8-2.6,6.7s.8,5.2,2.4,6.9c1.7,1.8,3.9,2.7,6.7,2.7s2.1-.1,3-.4c1-.3,1.9-.7,2.7-1.3.3-.2.5-.5.7-.8,1.6,1.7,3.8,2.5,6.5,2.5s2.1-.1,3-.4c.7-.2,1.3-.5,1.9-.9.3.6,1,1,1.7,1h2c1.1,0,2-.9,2-2v-4.2h0c.4,0,.6,0,.7.1,0,0,.3.2.8,1.2l1.9,3.7c.3.7,1,1.1,1.8,1.1h2.1c.7,0,1.3-.4,1.7-1s.4-1.3,0-1.9l-2-4h.2Z"/>
  <g>
    <path class="st1" d="M22.8,23.8v2.1c-.7-.6-1.4-1.1-2.1-1.4s-1.6-.5-2.4-.5c-1.7,0-2.9.5-3.8,1.5s-1.3,2.5-1.3,4.4.4,3.4,1.3,4.4,2.2,1.5,3.8,1.5,1.6-.2,2.4-.5,1.5-.8,2.1-1.4v2.1c-.7.5-1.4.8-2.2,1.1s-1.6.4-2.4.4c-2.2,0-3.9-.7-5.2-2s-1.9-3.2-1.9-5.5.6-4.2,1.9-5.5c1.3-1.4,3-2,5.2-2s1.7,0,2.5.3,1.5.6,2.2,1h-.1Z"/>
    <path class="st1" d="M35.7,23.8v2.1c-.7-.6-1.4-1.1-2.1-1.4s-1.6-.5-2.4-.5c-1.7,0-2.9.5-3.8,1.5s-1.3,2.5-1.3,4.4.4,3.4,1.3,4.4,2.2,1.5,3.8,1.5,1.6-.2,2.4-.5,1.5-.8,2.1-1.4v2.1c-.7.5-1.4.8-2.2,1.1s-1.6.4-2.4.4c-2.2,0-3.9-.7-5.2-2s-1.9-3.2-1.9-5.5.6-4.2,1.9-5.5,3-2,5.2-2,1.7,0,2.5.3,1.5.6,2.2,1h-.1Z"/>
    <path class="st1" d="M44.7,30.4c.4.1.8.4,1.2.9s.8,1.1,1.2,1.9l2,4h-2.1l-1.9-3.7c-.5-1-.9-1.6-1.4-1.9s-1.1-.5-1.9-.5h-2.1v6.2h-2v-14.6h4.5c1.7,0,2.9.3,3.7,1s1.2,1.7,1.2,3.2-.2,1.7-.6,2.3-1,1-1.9,1.3h.1ZM39.7,24.3v5.2h2.5c1,0,1.7-.2,2.2-.7s.7-1.1.7-1.9-.2-1.5-.7-1.9-1.2-.6-2.2-.6h-2.5Z"/>
  </g>
  <g>
    <path class="st1" d="M22.8,23.8v2.1c-.7-.6-1.4-1.1-2.1-1.4s-1.6-.5-2.4-.5c-1.7,0-2.9.5-3.8,1.5s-1.3,2.5-1.3,4.4.4,3.4,1.3,4.4,2.2,1.5,3.8,1.5,1.6-.2,2.4-.5,1.5-.8,2.1-1.4v2.1c-.7.5-1.4.8-2.2,1.1s-1.6.4-2.4.4c-2.2,0-3.9-.7-5.2-2s-1.9-3.2-1.9-5.5.6-4.2,1.9-5.5c1.3-1.4,3-2,5.2-2s1.7,0,2.5.3,1.5.6,2.2,1h-.1Z"/>
    <path class="st1" d="M35.7,23.8v2.1c-.7-.6-1.4-1.1-2.1-1.4s-1.6-.5-2.4-.5c-1.7,0-2.9.5-3.8,1.5s-1.3,2.5-1.3,4.4.4,3.4,1.3,4.4,2.2,1.5,3.8,1.5,1.6-.2,2.4-.5,1.5-.8,2.1-1.4v2.1c-.7.5-1.4.8-2.2,1.1s-1.6.4-2.4.4c-2.2,0-3.9-.7-5.2-2s-1.9-3.2-1.9-5.5.6-4.2,1.9-5.5,3-2,5.2-2,1.7,0,2.5.3,1.5.6,2.2,1h-.1Z"/>
    <path class="st1" d="M44.7,30.4c.4.1.8.4,1.2.9s.8,1.1,1.2,1.9l2,4h-2.1l-1.9-3.7c-.5-1-.9-1.6-1.4-1.9s-1.1-.5-1.9-.5h-2.1v6.2h-2v-14.6h4.5c1.7,0,2.9.3,3.7,1s1.2,1.7,1.2,3.2-.2,1.7-.6,2.3-1,1-1.9,1.3h.1ZM39.7,24.3v5.2h2.5c1,0,1.7-.2,2.2-.7s.7-1.1.7-1.9-.2-1.5-.7-1.9-1.2-.6-2.2-.6h-2.5Z"/>
  </g>
</svg>