<?xml version="1.0" encoding="UTF-8"?>
<svg id="Layer_1" xmlns="http://www.w3.org/2000/svg" version="1.1" viewBox="0 0 60 60">
  <!-- Generator: Adobe Illustrator 29.5.1, SVG Export Plug-In . SVG Version: 2.1.0 Build 141)  -->
  <defs>
    <style>
      .st0 {
        fill: #fff;
      }

      .st1 {
        fill: #e4151c;
      }
    </style>
  </defs>
  <path class="st0" d="M38.4,12.5c-1.2,0-2.4.3-3.5.7-1.2.5-2.2,1.3-3,2.3v-6.6c-.4-1.8-2.6-2.9-6.1-2.9s-5.7,1.1-6.1,2.9v34.1c-3.4.7-6.7,2.1-6.7,5.2,0,5.2,9,5.7,12.8,5.7s12.8-.6,12.8-5.7-.2-1.3-.4-1.8h.4c.6,0,1.1-.2,1.6-.6h.1q0,0,.1-.2l2-2.4c.4-.5.7-1.1.7-1.7v-13.4c3.4-2.3,4.8-6.7,3.1-10.6-1.4-3.1-4.4-5-7.8-5Z"/>
  <path d="M38.9,44.3h0l2-2.4s.2-.2.2-.4v-14.5c3.3-1.5,4.7-5.3,3.3-8.6s-5.3-4.8-8.6-3.3-4.7,5.3-3.3,8.6c.8,1.7,2.2,3,4,3.6v.8l-1.6.4v.7l1.1.8h0c0,.1-1.1.8-1.1.8h0c0,.1,1.1.7,1.1.7h0c0,.1-1.1.8-1.1.8h0c0,.1,1.1.8,1.1.8h0c0,.1-1,1.1-1,1.1h0c0,.1,1.7,1.7,1.7,1.7v1.1l-1.2,1v.2h0l.5.9v.2l-1,1v.4h0l3.4,3.2c.1,0,.4.2.5,0v.4ZM37,18.8c0-.8.6-1.4,1.4-1.4s1.4.6,1.4,1.4-.6,1.4-1.4,1.4-1.4-.6-1.4-1.4Z"/>
  <g>
    <path class="st0" d="M30,46.8v1h0c0,.8-1.9,1.4-4.1,1.4s-4.1-.6-4.1-1.4h0v-1c-2.8.4-4.3,1.1-4.7,1.5.5.6,3.3,1.7,8.8,1.7s8.3-1.2,8.8-1.7c-.3-.4-1.9-1.1-4.7-1.5Z"/>
    <path class="st1" d="M30,44.8v-2.5h-8.3v2.5c-3.4.4-6.7,1.4-6.7,3.5s6.8,3.7,10.8,3.7,10.8-.8,10.8-3.7-3.3-3.1-6.7-3.5h0ZM17,48.3c.3-.4,1.9-1.1,4.7-1.5v1h0c0,.8,1.9,1.4,4.1,1.4s4.1-.6,4.1-1.4h0v-1c2.8.4,4.3,1.1,4.7,1.5-.5.6-3.3,1.7-8.8,1.7s-8.3-1.2-8.8-1.7Z"/>
    <rect class="st0" x="21.7" y="14.9" width="8.3" height="5.5"/>
    <rect class="st1" x="21.7" y="20.4" width="8.3" height="5.5"/>
    <path class="st1" d="M30,9.4c0-.8-1.9-1.4-4.1-1.4s-4.1.6-4.1,1.4v5.5h8.3v-5.5h0Z"/>
    <rect class="st0" x="21.7" y="25.8" width="8.3" height="5.5"/>
    <rect class="st1" x="21.7" y="31.3" width="8.3" height="5.5"/>
    <rect class="st0" x="21.7" y="36.8" width="8.3" height="5.5"/>
  </g>
</svg>