<?xml version="1.0" encoding="UTF-8"?>
<svg id="Layer_1" xmlns="http://www.w3.org/2000/svg" version="1.1" viewBox="0 0 60 60">
  <!-- Generator: Adobe Illustrator 29.5.1, SVG Export Plug-In . SVG Version: 2.1.0 Build 141)  -->
  <defs>
    <style>
      .st0 {
        fill: #fff;
      }

      .st1 {
        fill: red;
      }
    </style>
  </defs>
  <path class="st0" d="M38.7,24.4c-.5-.3-1-.5-1.6-.5s-.5,0-.8.1l-2.2.7V7c0-1.1-.9-2-2-2h-4.3c-1.1,0-2,.9-2,2v17.6l-2.1-.7c-.3,0-.6-.1-.8-.1-.6,0-1.1.2-1.6.5-1.3.9-1.7,2.7-.8,4l7,10.3c.2.2.3.4.5.6-3.5.9-6.1,4-6.1,7.8s3.6,8,8,8,8-3.6,8-8-2.6-6.9-6.1-7.8c.2-.2.3-.3.5-.5l7.1-10.3c.9-1.3.6-3.1-.8-4h0Z"/>
  <g>
    <path class="st1" d="M37.6,26c-.2-.1-.5-.2-.7-.1l-4.7,1.4V7h-4.3v20.3l-4.7-1.4c-.3,0-.5,0-.7.1-.4.3-.5.8-.2,1.2l7,10.3s.1.2.2.2c.2,0,.4.2.6.2s.4,0,.6-.2c0,0,.2,0,.2-.2l7-10.3c.3-.4.2-1-.2-1.2h0Z"/>
    <circle class="st1" cx="30" cy="47" r="6"/>
  </g>
</svg>