<?xml version="1.0" encoding="UTF-8"?>
<svg id="Layer_1" xmlns="http://www.w3.org/2000/svg" version="1.1" viewBox="0 0 60 60">
  <!-- Generator: Adobe Illustrator 29.5.1, SVG Export Plug-In . SVG Version: 2.1.0 Build 141)  -->
  <defs>
    <style>
      .st0 {
        fill: #fff;
      }

      .st1 {
        fill: red;
      }
    </style>
  </defs>
  <path class="st0" d="M46.3,20.2c0-.7-.4-1.3-1.1-1.6l-.3-.2c-4.8-2.6-9.9-3.9-14.9-3.9s-10,1.3-15,3.9l-.3.2c-.6.3-1.1,1-1.1,1.7v.4c-.3,11.4,4.8,19.6,15.3,24.6h.2c.3.2.6.3.9.3s.5,0,.8-.2h.3c10.8-4.8,16-13.4,15.3-24.8v-.3h0Z"/>
  <g>
    <path class="st1" d="M44.4,20.7v-.3l-.3-.2c-9.3-4.9-18.8-4.9-28.1,0l-.3.2v.4c-.3,10.5,4.4,18.2,14.1,22.7h.2c0,.1.3,0,.3,0,10.1-4.4,14.8-12.1,14.1-22.8ZM30,42.2c-8.9-4.3-13.4-11.4-13.2-21.1,8.8-4.5,17.7-4.5,26.4,0,.5,9.8-3.9,17-13.2,21.1Z"/>
    <path class="st1" d="M30,30.6c-2.6,0-4.7,2.1-4.7,4.6s2.1,4.7,4.7,4.7,4.7-2.1,4.7-4.7-2.1-4.6-4.7-4.6Z"/>
    <path class="st1" d="M36.8,20.7c-2.6,0-4.6,2.1-4.6,4.7s2.1,4.6,4.6,4.6,4.7-2.1,4.7-4.6-2.1-4.7-4.7-4.7Z"/>
    <path class="st1" d="M27.7,25.2c0-2.6-2.1-4.7-4.7-4.7s-4.6,2.1-4.6,4.7,2.1,4.6,4.6,4.6,4.7-2.1,4.7-4.6Z"/>
  </g>
</svg>