<?xml version="1.0" encoding="UTF-8"?>
<svg id="Layer_1" xmlns="http://www.w3.org/2000/svg" version="1.1" viewBox="0 0 60 60">
  <!-- Generator: Adobe Illustrator 29.5.1, SVG Export Plug-In . SVG Version: 2.1.0 Build 141)  -->
  <defs>
    <style>
      .st0 {
        fill: #93572b;
      }

      .st1 {
        fill: #fff;
      }
    </style>
  </defs>
  <path class="st1" d="M47.5,43.8h-2.2l-2-3.8c-.4-.8-1.2-1.4-2.1-1.5h-.4c-.8,0-1.5.3-2,.8l-1.6,1.6-1.7-2.1c-.3-.4-.7-.7-1.1-.9v-.8c0-2.3-1.7-4.1-4-4.3,1-1.1,1.5-2.5,1.4-4.1,0-.6-.2-1.1-.4-1.7,1.4-1.9,1.5-4.5.1-6.5-.3-.4-.6-.8-1-1.1.6-2,0-4.2-1.5-5.7-1-.9-2.4-1.5-3.7-1.5s-.4,0-.5,0c-1-1.1-2.4-1.8-4-1.8s-1.3.1-1.9.4c-.9.4-1.7.9-2.3,1.7h-.2c-1.9,0-3.6,1.1-4.4,2.8-.6,1.3-.6,2.8,0,4-1.4,1.3-2.2,3.2-2,5.1.1.8.4,1.6.8,2.3-1.2,1.9-1.2,4.4.2,6.3.8,1.1,1.9,1.9,3.2,2.2.8,1.1,2,1.8,3.3,2.1l-.4,9.9c0,.6.2,1.2.6,1.6.4.5,1,.7,1.6.8h3.5c.9,0,1.6-.5,2-1.2.2.3.5.6.9.8s.9.4,1.4.4h3c.8,0,1.6-.3,2.1-.9.5.6,1.2.9,1.9.9h13c1.6,0,2.9-1.3,2.9-2.9s-1.1-2.7-2.5-2.9Z"/>
  <g>
    <path class="st0" d="M28.9,26.8c1.7-1.1,2.1-3.4,1-5.1-.5-.7-1.2-1.2-2-1.5,1.3-1.4,1.2-3.6-.2-4.9-1-1-2.5-1.2-3.8-.6-.7-1.7-2.6-2.5-4.3-1.9-.9.4-1.7,1.1-2,2.1-1.4-.7-3.2,0-3.8,1.4-.7,1.4,0,3.2,1.4,3.8-2,.3-3.4,2.1-3.2,4.1,0,1,.7,1.9,1.5,2.5-1.7,1.2-2,3.5-.9,5.1.6.9,1.7,1.5,2.8,1.5.6,1.3,1.9,2,3.3,2s.6,0,.9-.1l-.5,11.9c0,.2.1.3.3.3h3.4c.2,0,.3,0,.3-.3h0l-.5-12.4c.4.2.8.2,1.2.2,1.5,0,2.7-1,3-2.5,1.9-.2,3.3-1.8,3.1-3.7,0-.8-.4-1.5-1-2.1h0v.2Z"/>
    <path class="st0" d="M32.4,37.1c0,1.3-1,2.3-2.3,2.3s-2.3-1-2.3-2.3,1-2.3,2.3-2.3,2.3,1,2.3,2.3h0Z"/>
    <path class="st0" d="M47.1,45.8h-3l-2.5-4.9c-.1-.3-.4-.4-.7-.5-.3,0-.6,0-.8.2l-3.2,3.1-3.1-3.9c-.4-.5-1-.7-1.6-.4,0,0-2.2.9-2.3.9-.4.1-.7.4-.9.8l-2.8,4.9c-.2.4,0,1,.3,1.2.1,0,.3,0,.4,0h3c.5,0,.9-.4.9-.9s-.4-.9-.9-.9h-1.5l1.7-3,3.4,4.6c.1.2.4.3.6.3h12.9c.5,0,.9-.4.9-.9s-.4-.9-.9-.9h0v.2ZM40.5,42.8l1.5,2.9h-4.5l3-2.9h0Z"/>
  </g>
  <g>
    <path class="st0" d="M28.9,26.8c1.7-1.1,2.1-3.4,1-5.1-.5-.7-1.2-1.2-2-1.5,1.3-1.4,1.2-3.6-.2-4.9-1-1-2.5-1.2-3.8-.6-.7-1.7-2.6-2.5-4.3-1.9-.9.4-1.7,1.1-2,2.1-1.4-.7-3.2,0-3.8,1.4-.7,1.4,0,3.2,1.4,3.8-2,.3-3.4,2.1-3.2,4.1,0,1,.7,1.9,1.5,2.5-1.7,1.2-2,3.5-.9,5.1.6.9,1.7,1.5,2.8,1.5.6,1.3,1.9,2,3.3,2s.6,0,.9-.1l-.5,11.9c0,.2.1.3.3.3h3.4c.2,0,.3,0,.3-.3h0l-.5-12.4c.4.2.8.2,1.2.2,1.5,0,2.7-1,3-2.5,1.9-.2,3.3-1.8,3.1-3.7,0-.8-.4-1.5-1-2.1h0v.2Z"/>
    <path class="st0" d="M32.4,37.1c0,1.3-1,2.3-2.3,2.3s-2.3-1-2.3-2.3,1-2.3,2.3-2.3,2.3,1,2.3,2.3h0Z"/>
    <path class="st0" d="M47.1,45.8h-3l-2.5-4.9c-.1-.3-.4-.4-.7-.5-.3,0-.6,0-.8.2l-3.2,3.1-3.1-3.9c-.4-.5-1-.7-1.6-.4,0,0-2.2.9-2.3.9-.4.1-.7.4-.9.8l-2.8,4.9c-.2.4,0,1,.3,1.2.1,0,.3,0,.4,0h3c.5,0,.9-.4.9-.9s-.4-.9-.9-.9h-1.5l1.7-3,3.4,4.6c.1.2.4.3.6.3h12.9c.5,0,.9-.4.9-.9s-.4-.9-.9-.9h0v.2ZM40.5,42.8l1.5,2.9h-4.5l3-2.9h0Z"/>
  </g>
</svg>