<?xml version="1.0" encoding="UTF-8"?>
<svg id="Layer_1" xmlns="http://www.w3.org/2000/svg" version="1.1" viewBox="0 0 60 60">
  <!-- Generator: Adobe Illustrator 29.5.1, SVG Export Plug-In . SVG Version: 2.1.0 Build 141)  -->
  <defs>
    <style>
      .st0 {
        fill: #fff;
      }

      .st1 {
        fill: red;
      }
    </style>
  </defs>
  <path class="st0" d="M46,36.1c-.4,0-.8,0-1.1.1,1.1-3.2,1.6-6.7,1.3-10.5v-.3c0-.7-.5-1.3-1.1-1.6l-.3-.2c-3.3-1.7-6.6-2.9-9.9-3.5.9-1.1,1.5-2.6,1.5-4.1,0-3.6-3-6.6-6.7-6.6s-6.7,3-6.7,6.6.6,3,1.5,4.2c-3.2.6-6.4,1.7-9.6,3.4l-.3.2c-.6.3-1.1,1-1.1,1.7v.4c0,3.7.4,7.1,1.4,10.1h-.9c-3.7,0-6.7,3-6.7,6.7s3,6.6,6.7,6.6,5.4-1.9,6.3-4.5c2.3,2.3,5.1,4.2,8.4,5.8h.2c.3.2.6.3.9.3s.5,0,.8-.2h.3c3.5-1.7,6.4-3.6,8.8-6,.8,2.8,3.3,4.9,6.4,4.9s6.7-3,6.7-6.7-3-6.6-6.7-6.6v-.2Z"/>
  <g>
    <path class="st1" d="M44.2,25.9v-.3l-.3-.2c-9.3-4.9-18.8-4.9-28.1,0l-.3.2v.4c-.3,10.5,4.4,18.2,14.1,22.7h.2c0,0,.3,0,.3,0,10.1-4.4,14.8-12.1,14.1-22.8ZM29.9,47.4c-8.9-4.3-13.4-11.4-13.2-21.1,8.8-4.5,17.7-4.5,26.4,0,.5,9.8-3.9,17-13.2,21.1Z"/>
    <path class="st1" d="M29.8,35.8c-2.6,0-4.7,2.1-4.7,4.6s2.1,4.7,4.7,4.7,4.7-2.1,4.7-4.7-2.1-4.6-4.7-4.6Z"/>
    <path class="st1" d="M36.6,25.8c-2.6,0-4.6,2.1-4.6,4.7s2.1,4.6,4.6,4.6,4.7-2.1,4.7-4.6-2.1-4.7-4.7-4.7Z"/>
    <path class="st1" d="M27.5,30.4c0-2.6-2.1-4.7-4.7-4.7s-4.6,2.1-4.6,4.7,2.1,4.6,4.6,4.6,4.7-2.1,4.7-4.6Z"/>
    <path class="st1" d="M29.6,20.7c2.6,0,4.7-2.1,4.7-4.7s-2.1-4.6-4.7-4.6-4.7,2.1-4.7,4.6,2.1,4.7,4.7,4.7Z"/>
    <path class="st1" d="M13.9,37.9c-2.6,0-4.7,2.1-4.7,4.7s2.1,4.6,4.7,4.6,4.6-2.1,4.6-4.6-2.1-4.7-4.6-4.7Z"/>
    <path class="st1" d="M46,38.1c-2.6,0-4.6,2.1-4.6,4.6s2.1,4.7,4.6,4.7,4.7-2.1,4.7-4.7-2.1-4.6-4.7-4.6Z"/>
  </g>
</svg>