<?xml version="1.0" encoding="UTF-8" standalone="no"?>
<svg
   id="Layer_1"
   version="1.1"
   viewBox="0 0 62 62"
   sodipodi:docname="poi014_b.svg"
   width="62"
   height="62"
   inkscape:version="1.3.2 (091e20e, 2023-11-25, custom)"
   xmlns:inkscape="http://www.inkscape.org/namespaces/inkscape"
   xmlns:sodipodi="http://sodipodi.sourceforge.net/DTD/sodipodi-0.dtd"
   xmlns="http://www.w3.org/2000/svg"
   xmlns:svg="http://www.w3.org/2000/svg">
  <sodipodi:namedview
     id="namedview3"
     pagecolor="#ffffff"
     bordercolor="#000000"
     borderopacity="0.25"
     inkscape:showpageshadow="2"
     inkscape:pageopacity="0.0"
     inkscape:pagecheckerboard="0"
     inkscape:deskcolor="#d1d1d1"
     inkscape:zoom="29.33871"
     inkscape:cx="30.982958"
     inkscape:cy="31"
     inkscape:window-width="3840"
     inkscape:window-height="2054"
     inkscape:window-x="2869"
     inkscape:window-y="-11"
     inkscape:window-maximized="1"
     inkscape:current-layer="Layer_1" />
  <!-- Generator: Adobe Illustrator 29.3.1, SVG Export Plug-In . SVG Version: 2.1.0 Build 151)  -->
  <defs
     id="defs1">
    <style
       id="style1">
      .st0 {
        fill: #e4151c;
      }

      .st1 {
        fill: #fff;
      }

      .st2 {
        fill: red;
      }
    </style>
  </defs>
  <circle
     class="st0"
     cx="31"
     cy="27"
     id="ellipse1"
     r="22" />
  <circle
     class="st1"
     cx="-26.893105"
     cy="31.001047"
     transform="rotate(-89.9)"
     id="ellipse2"
     r="17.1" />
  <path
     d="M 13,3 H 49.1 L 58.6,37.4 31,58.3 3.4,37.3 13,3 M 10.7,0 0,38.5 31,62 62,38.5 51.3,0 Z"
     id="path2" />
  <g
     id="g3">
    <polygon
       points="24.9,9.9 37.1,9.9 31,17.2 "
       id="polygon2" />
    <polygon
       points="37.1,44.1 24.9,44.1 31,36.8 "
       id="polygon3" />
  </g>
  <path
     class="st2"
     d="M 31,5 C 18.9,5 9,14.9 9,27 9,39.1 18.9,49 31,49 43.1,49 53,39.1 53,27 53,14.9 43.2,5 31,5 Z m 0,39.1 C 21.6,44.1 13.9,36.4 13.9,27 13.9,17.6 21.5,9.9 31,9.9 c 9.5,0 17.1,7.7 17.1,17.1 0,9.4 -7.7,17.1 -17.1,17.1 z"
     id="path3" />
</svg>
