<?xml version="1.0" encoding="UTF-8" standalone="no"?>
<svg
   id="Layer_1"
   version="1.1"
   viewBox="0 0 66.6 66.5"
   sodipodi:docname="poi051_a.svg"
   width="66.599998"
   height="66.5"
   inkscape:version="1.3.2 (091e20e, 2023-11-25, custom)"
   xmlns:inkscape="http://www.inkscape.org/namespaces/inkscape"
   xmlns:sodipodi="http://sodipodi.sourceforge.net/DTD/sodipodi-0.dtd"
   xmlns="http://www.w3.org/2000/svg"
   xmlns:svg="http://www.w3.org/2000/svg">
  <sodipodi:namedview
     id="namedview3"
     pagecolor="#ffffff"
     bordercolor="#000000"
     borderopacity="0.25"
     inkscape:showpageshadow="2"
     inkscape:pageopacity="0.0"
     inkscape:pagecheckerboard="0"
     inkscape:deskcolor="#d1d1d1"
     inkscape:zoom="27.353383"
     inkscape:cx="33.304838"
     inkscape:cy="33.25"
     inkscape:window-width="3840"
     inkscape:window-height="2054"
     inkscape:window-x="2869"
     inkscape:window-y="-11"
     inkscape:window-maximized="1"
     inkscape:current-layer="Layer_1" />
  <!-- Generator: Adobe Illustrator 29.3.1, SVG Export Plug-In . SVG Version: 2.1.0 Build 151)  -->
  <defs
     id="defs1">
    <style
       id="style1">
      .st0 {
        fill: #fff;
      }

      .st1 {
        fill: red;
      }
    </style>
  </defs>
  <g
     id="g2">
    <g
       id="g1">
      <polygon
         class="st1"
         points="53.8,1.8 64.6,40.6 33.3,64.3 2,40.6 12.8,1.8 "
         id="polygon1" />
      <path
         class="st0"
         d="M 52.5,3.5 62.6,40 33.3,62.2 4,39.9 14.1,3.5 H 52.4 M 55.1,0 H 11.5 L 10.8,2.6 0.6,39 0,41.3 1.9,42.7 31.2,64.9 33.3,66.5 35.4,64.9 64.7,42.7 66.6,41.3 66,39 55.8,2.6 Z"
         id="path1" />
    </g>
    <path
       d="M 51.3,5 60.8,39.4 33.2,60.3 5.7,39.3 15.3,5 H 51.4 M 53.6,2 H 13 L 2.3,40.5 33.3,64 64.3,40.5 Z"
       id="path2" />
  </g>
  <g
     id="g3">
    <path
       class="st0"
       d="m 40.9,28 c -0.2,-0.1 -0.5,-0.2 -0.7,-0.1 l -4.7,1.4 V 9 h -4.3 v 20.3 l -4.7,-1.4 c -0.3,0 -0.5,0 -0.7,0.1 -0.4,0.3 -0.5,0.8 -0.2,1.2 l 7,10.3 c 0,0 0.1,0.2 0.2,0.2 0.2,0.1 0.4,0.2 0.6,0.2 0.2,0 0.4,0 0.6,-0.2 0,0 0.2,-0.1 0.2,-0.2 l 7,-10.3 c 0.3,-0.4 0.2,-1 -0.2,-1.2 z"
       id="path3" />
    <circle
       class="st0"
       cx="33.299999"
       cy="49"
       r="6"
       id="circle3" />
  </g>
</svg>
