<?xml version="1.0" encoding="UTF-8" standalone="no"?>
<svg
   id="Layer_1"
   version="1.1"
   viewBox="0 0 66.6 66.400002"
   sodipodi:docname="poi032_a.svg"
   width="66.599998"
   height="66.400002"
   inkscape:version="1.3.2 (091e20e, 2023-11-25, custom)"
   xmlns:inkscape="http://www.inkscape.org/namespaces/inkscape"
   xmlns:sodipodi="http://sodipodi.sourceforge.net/DTD/sodipodi-0.dtd"
   xmlns="http://www.w3.org/2000/svg"
   xmlns:svg="http://www.w3.org/2000/svg">
  <sodipodi:namedview
     id="namedview3"
     pagecolor="#ffffff"
     bordercolor="#000000"
     borderopacity="0.25"
     inkscape:showpageshadow="2"
     inkscape:pageopacity="0.0"
     inkscape:pagecheckerboard="0"
     inkscape:deskcolor="#d1d1d1"
     inkscape:zoom="27.353383"
     inkscape:cx="33.304838"
     inkscape:cy="33.25"
     inkscape:window-width="3840"
     inkscape:window-height="2054"
     inkscape:window-x="2869"
     inkscape:window-y="-11"
     inkscape:window-maximized="1"
     inkscape:current-layer="Layer_1" />
  <!-- Generator: Adobe Illustrator 29.3.1, SVG Export Plug-In . SVG Version: 2.1.0 Build 151)  -->
  <defs
     id="defs1">
    <style
       id="style1">
      .st0 {
        fill: #fff;
      }

      .st1 {
        fill: #0056a4;
      }
    </style>
  </defs>
  <g
     id="g2">
    <polygon
       class="st0"
       points="52.5,3.5 62.6,40 33.3,62.1 4,39.9 14.1,3.5 "
       id="polygon1" />
    <path
       d="M 51.3,5 60.8,39.4 33.2,60.3 5.7,39.3 15.3,5 H 51.4 M 53.6,2 H 13 L 2.3,40.5 33.3,64 64.3,40.5 Z"
       id="path1" />
    <path
       class="st0"
       d="M 53.6,2 64.3,40.5 33.3,64 2.3,40.5 13,2 H 53.6 M 55.1,0 H 11.5 L 11.1,1.5 0.4,39.9 0,41.2 1.1,42 l 31,23.5 1.2,0.9 1.2,-0.9 L 65.5,42 66.6,41.2 66.2,39.9 55.5,1.5 Z"
       id="path2" />
  </g>
  <path
     class="st1"
     d="m 39.6,25.6 c 0.6,0.1 1.3,0 1.7,-0.4 l 7.8,-10 c 0.2,-0.2 0.1,-0.5 0,-0.6 0,0 0,0 0,0 L 48.7,14.2 C 48.5,14 48.2,14.1 48,14.2 l -5.7,6.9 c -0.2,0.2 -0.6,0.3 -0.8,0 l -0.4,-0.3 c -0.2,-0.2 -0.3,-0.6 0,-0.8 0,0 0,0 0,0 l 5.7,-6.9 c 0.2,-0.2 0.1,-0.5 0,-0.7 0,0 0,0 0,0 L 46.4,12 c -0.2,-0.2 -0.5,-0.1 -0.6,0 l -5.7,6.9 c -0.2,0.2 -0.6,0.3 -0.8,0 l -0.4,-0.3 c -0.2,-0.2 -0.3,-0.6 0,-0.8 0,0 0,0 0,0 l 5.7,-6.9 c 0.2,-0.2 0.1,-0.5 0,-0.7 0,0 0,0 0,0 L 44,9.8 c -0.2,-0.2 -0.5,-0.1 -0.7,0 l -8.1,9.6 c -0.4,0.5 -0.4,1.2 -0.1,1.8 l 1,2.1 -2.7,3 -2.5,-2.7 c -0.5,-0.5 -0.6,-1.2 -0.3,-1.9 0.9,-2.2 0.3,-5.4 -1.8,-7.9 -2.8,-3.3 -7,-4.3 -9.4,-2.3 -2.4,2 -2.2,6.4 0.5,9.7 2.1,2.6 5.1,3.8 7.5,3.2 0.7,-0.2 1.4,0 1.8,0.6 l 2.4,3.2 -11.9,12.7 c -0.4,0.4 -0.3,1 0,1.4 0,0 0,0 0,0 l 1.9,1.7 c 0.4,0.3 1,0.3 1.3,0 0,0 0,0 0,0 L 33.2,30.6 43.4,44 c 0.3,0.4 0.9,0.5 1.3,0.2 0,0 0,0 0,0 l 1.9,-1.7 c 0.4,-0.3 0.4,-0.9 0.1,-1.3 0,0 0,0 0,0 L 34.8,28.5 37.5,25 l 2.1,0.5 v 0 z"
     id="path3" />
</svg>
