<?xml version="1.0" encoding="UTF-8" standalone="no"?>
<!-- Generator: Adobe Illustrator 29.4.0, SVG Export Plug-In . SVG Version: 9.03 Build 0)  -->

<svg
   version="1.1"
   id="Layer_1"
   x="0px"
   y="0px"
   viewBox="0 0 41.6 40.8"
   xml:space="preserve"
   sodipodi:docname="poi047_c.svg"
   width="41.599998"
   height="40.799999"
   inkscape:version="1.3.2 (091e20e, 2023-11-25, custom)"
   xmlns:inkscape="http://www.inkscape.org/namespaces/inkscape"
   xmlns:sodipodi="http://sodipodi.sourceforge.net/DTD/sodipodi-0.dtd"
   xmlns="http://www.w3.org/2000/svg"
   xmlns:svg="http://www.w3.org/2000/svg"><defs
   id="defs12" /><sodipodi:namedview
   id="namedview12"
   pagecolor="#ffffff"
   bordercolor="#000000"
   borderopacity="0.25"
   inkscape:showpageshadow="2"
   inkscape:pageopacity="0.0"
   inkscape:pagecheckerboard="0"
   inkscape:deskcolor="#d1d1d1"
   inkscape:zoom="44.583334"
   inkscape:cx="20.792523"
   inkscape:cy="20.4"
   inkscape:window-width="3840"
   inkscape:window-height="2054"
   inkscape:window-x="2869"
   inkscape:window-y="-11"
   inkscape:window-maximized="1"
   inkscape:current-layer="Layer_1" />
<path
   style="fill:#ffffff"
   d="m 38.8,5.6 c 1.5,0 2.8,-1.2 2.8,-2.8 C 41.6,1.2 40.4,0 38.8,0 H 2.8 C 1.2,0.1 0,1.3 0,2.9 0,4.5 1.2,5.7 2.8,5.7 h 0.1 v 6.1 H 2.8 C 1.3,11.8 0,13 0,14.6 c 0,1.6 1.2,2.8 2.8,2.8 h 0.1 v 6.1 H 2.8 c -1.5,0 -2.8,1.2 -2.8,2.8 0,1.6 1.2,2.8 2.8,2.8 h 0.1 v 6.1 H 2.8 C 1.3,35.2 0,36.4 0,38 c 0,1.6 1.2,2.8 2.8,2.8 h 36 c 1.5,0 2.8,-1.2 2.8,-2.8 0,-1.6 -1.2,-2.8 -2.8,-2.8 h -0.1 v -6.1 h 0.1 c 1.5,0 2.8,-1.2 2.8,-2.8 0,-1.6 -1.2,-2.8 -2.8,-2.8 h -0.1 v -6.1 h 0.1 c 1.5,0 2.8,-1.2 2.8,-2.8 0,-1.6 -1.2,-2.8 -2.8,-2.8 H 38.7 V 5.7 h 0.1 z"
   id="path1" />
<path
   d="m 38.8,15.2 c 0.4,0 0.8,-0.3 0.8,-0.8 0,-0.5 -0.3,-0.8 -0.8,-0.8 h -2.1 v -10 h 2.1 c 0.4,0 0.8,-0.3 0.8,-0.8 C 39.6,2.3 39.3,2 38.8,2 H 2.8 C 2.4,2 2,2.3 2,2.8 2,3.3 2.3,3.6 2.8,3.6 H 4.9 V 13.7 H 2.8 C 2.4,13.7 2,14 2,14.5 2,15 2.3,15.3 2.8,15.3 H 4.9 V 25.4 H 2.8 C 2.4,25.4 2,25.7 2,26.2 2,26.7 2.3,27 2.8,27 H 4.9 V 37.1 H 2.8 c -0.4,0 -0.8,0.3 -0.8,0.8 0,0.5 0.3,0.8 0.8,0.8 h 36 c 0.4,0 0.8,-0.3 0.8,-0.8 0,-0.5 -0.3,-0.8 -0.8,-0.8 H 36.7 V 27 h 2.1 c 0.4,0 0.8,-0.3 0.8,-0.8 0,-0.5 -0.3,-0.8 -0.8,-0.8 H 36.7 V 15.3 h 2.1 z M 35.1,13.7 H 31.6 V 3.6 h 3.5 z M 21.5,15.2 H 25 V 25.3 H 21.5 Z M 20,25.3 H 16.5 V 15.2 H 20 Z M 21.5,13.7 V 3.6 H 25 v 10.1 z m -1.5,0 H 16.5 V 3.6 H 20 Z m -5,0 H 11.5 V 3.6 H 15 Z m 0,1.5 V 25.3 H 11.5 V 15.2 Z m 0,11.6 V 36.9 H 11.5 V 26.8 Z m 1.5,0 H 20 v 10.1 h -3.5 z m 5,0 H 25 v 10.1 h -3.5 z m 5.1,0 h 3.5 v 10.1 h -3.5 z m 0,-1.5 V 15.2 h 3.5 v 10.1 z m 0,-11.6 V 3.6 h 3.5 V 13.7 Z M 6.4,3.6 H 9.9 V 13.7 H 6.4 Z m 0,11.6 H 9.9 V 25.3 H 6.4 c 0,0 0,-10.1 0,-10.1 z m 0,11.6 H 9.9 V 36.9 H 6.4 Z M 35.1,36.9 H 31.6 V 26.8 h 3.5 z m 0,-11.6 H 31.6 V 15.2 h 3.5 z"
   id="path2" />
<g
   id="g12">
	<line
   style="fill:none"
   x1="2.8"
   y1="2.9000001"
   x2="38.799999"
   y2="2.9000001"
   id="line2" />
	<line
   style="fill:none"
   x1="2.8"
   y1="14.4"
   x2="38.799999"
   y2="14.4"
   id="line3" />
	<line
   style="fill:none"
   x1="2.8"
   y1="26"
   x2="38.799999"
   y2="26"
   id="line4" />
	<line
   style="fill:none"
   x1="2.8"
   y1="37.599998"
   x2="38.799999"
   y2="37.599998"
   id="line5" />
	<line
   style="fill:none"
   x1="5.5999999"
   y1="3"
   x2="5.5999999"
   y2="37.5"
   id="line6" />
	<line
   style="fill:none"
   x1="10.7"
   y1="3"
   x2="10.7"
   y2="37.5"
   id="line7" />
	<line
   style="fill:none"
   x1="15.7"
   y1="3"
   x2="15.7"
   y2="37.5"
   id="line8" />
	<line
   style="fill:none"
   x1="20.799999"
   y1="3"
   x2="20.799999"
   y2="37.5"
   id="line9" />
	<line
   style="fill:none"
   x1="25.799999"
   y1="3"
   x2="25.799999"
   y2="37.5"
   id="line10" />
	<line
   style="fill:none"
   x1="30.9"
   y1="3"
   x2="30.9"
   y2="37.5"
   id="line11" />
	<line
   style="fill:none"
   x1="35.900002"
   y1="3"
   x2="35.900002"
   y2="37.5"
   id="line12" />
</g>
</svg>
