<?xml version="1.0" encoding="UTF-8" standalone="no"?>
<svg
   id="Layer_1"
   version="1.1"
   viewBox="0 0 62 62"
   sodipodi:docname="poi041_b.svg"
   width="62"
   height="62"
   inkscape:version="1.3.2 (091e20e, 2023-11-25, custom)"
   xmlns:inkscape="http://www.inkscape.org/namespaces/inkscape"
   xmlns:sodipodi="http://sodipodi.sourceforge.net/DTD/sodipodi-0.dtd"
   xmlns="http://www.w3.org/2000/svg"
   xmlns:svg="http://www.w3.org/2000/svg">
  <defs
     id="defs6" />
  <sodipodi:namedview
     id="namedview6"
     pagecolor="#ffffff"
     bordercolor="#000000"
     borderopacity="0.25"
     inkscape:showpageshadow="2"
     inkscape:pageopacity="0.0"
     inkscape:pagecheckerboard="0"
     inkscape:deskcolor="#d1d1d1"
     inkscape:zoom="29.33871"
     inkscape:cx="30.982958"
     inkscape:cy="31"
     inkscape:window-width="3840"
     inkscape:window-height="2054"
     inkscape:window-x="2869"
     inkscape:window-y="-11"
     inkscape:window-maximized="1"
     inkscape:current-layer="Layer_1" />
  <!-- Generator: Adobe Illustrator 29.3.1, SVG Export Plug-In . SVG Version: 2.1.0 Build 151)  -->
  <path
     d="M 13,3 H 49.1 L 58.6,37.4 31,58.3 3.4,37.3 13,3 M 10.7,0 0,38.5 31,62 62,38.5 51.3,0 Z"
     id="path1" />
  <g
     id="g6">
    <circle
       cx="47"
       cy="26.9"
       r="3.8"
       id="circle1" />
    <path
       d="m 40.6,26.9 c 0,0 -24.6,3 -26.3,3 -1.7,0 -3,-1.4 -3,-3 0,-1.6 1.4,-3 3,-3 1.6,0 26.3,3 26.3,3 z"
       id="path2" />
    <path
       d="m 41,24.8 c 0,0 -21.9,-5 -23.3,-5.5 -1.4,-0.5 -2.2,-2.1 -1.6,-3.5 0.6,-1.4 2.1,-2.2 3.5,-1.6 C 21,14.8 41,24.9 41,24.9 Z"
       id="path3" />
    <path
       d="M 42.1,22.9 C 42.1,22.9 26.8,13 25.8,12.3 24.8,11.6 24.7,10.1 25.5,9.2 26.3,8.3 27.7,8.1 28.6,8.9 29.5,9.7 42,23 42,23 Z"
       id="path4" />
    <path
       d="m 41,29.1 c 0,0 -21.9,5 -23.3,5.5 -1.4,0.5 -2.2,2.1 -1.6,3.5 0.5,1.4 2.1,2.2 3.5,1.6 C 21,39.2 41,29 41,29 Z"
       id="path5" />
    <path
       d="m 42.1,31 c 0,0 -15.3,9.9 -16.3,10.6 -1,0.7 -1.1,2.2 -0.3,3.1 0.8,0.9 2.2,1.1 3.1,0.3 C 29.5,44.2 42,30.9 42,30.9 Z"
       id="path6" />
  </g>
</svg>
