<?xml version="1.0" encoding="UTF-8" standalone="no"?>
<svg
   id="Layer_1"
   version="1.1"
   viewBox="0 0 66.6 66.400002"
   sodipodi:docname="poi043_a.svg"
   width="66.599998"
   height="66.400002"
   inkscape:version="1.3.2 (091e20e, 2023-11-25, custom)"
   xmlns:inkscape="http://www.inkscape.org/namespaces/inkscape"
   xmlns:sodipodi="http://sodipodi.sourceforge.net/DTD/sodipodi-0.dtd"
   xmlns="http://www.w3.org/2000/svg"
   xmlns:svg="http://www.w3.org/2000/svg">
  <sodipodi:namedview
     id="namedview22"
     pagecolor="#ffffff"
     bordercolor="#000000"
     borderopacity="0.25"
     inkscape:showpageshadow="2"
     inkscape:pageopacity="0.0"
     inkscape:pagecheckerboard="0"
     inkscape:deskcolor="#d1d1d1"
     inkscape:zoom="27.353383"
     inkscape:cx="33.304838"
     inkscape:cy="33.25"
     inkscape:window-width="3840"
     inkscape:window-height="2054"
     inkscape:window-x="2869"
     inkscape:window-y="-11"
     inkscape:window-maximized="1"
     inkscape:current-layer="Layer_1" />
  <!-- Generator: Adobe Illustrator 29.3.1, SVG Export Plug-In . SVG Version: 2.1.0 Build 151)  -->
  <defs
     id="defs1">
    <style
       id="style1">
      .st0 {
        fill: #fbe943;
      }

      .st1 {
        fill: #fff;
      }

      .st2 {
        fill: #f6bd16;
      }

      .st3 {
        fill: #f7931e;
      }

      .st4 {
        fill: #fefefe;
      }

      .st5 {
        fill: #ff0;
      }
    </style>
  </defs>
  <g
     id="g2">
    <polygon
       class="st1"
       points="52.5,3.5 62.6,40 33.3,62.1 4,39.9 14.1,3.5 "
       id="polygon1" />
    <path
       d="M 51.3,5 60.8,39.4 33.2,60.3 5.7,39.3 15.3,5 H 51.4 M 53.6,2 H 13 L 2.3,40.5 33.3,64 64.3,40.5 Z"
       id="path1" />
    <path
       class="st1"
       d="M 53.6,2 64.3,40.5 33.3,64 2.3,40.5 13,2 H 53.6 M 55.1,0 H 11.5 L 11.1,1.5 0.4,39.9 0,41.2 1.1,42 l 31,23.5 1.2,0.9 1.2,-0.9 L 65.5,42 66.6,41.2 66.2,39.9 55.5,1.5 Z"
       id="path2" />
  </g>
  <g
     id="g22">
    <g
       id="g7">
      <g
         id="g4">
        <path
           d="m 43.7,43.6 c -0.5,0 -1.1,-0.1 -1.5,-0.4 l -20.8,-12 c -1.5,-0.9 -2,-2.8 -1.1,-4.2 0.6,-1 1.6,-1.6 2.7,-1.6 1.1,0 1.1,0.1 1.5,0.4 l 20.8,12 c 1.5,0.9 2,2.8 1.1,4.2 -0.6,1 -1.6,1.6 -2.7,1.6 z"
           id="path3" />
        <path
           d="m 22.9,25.8 v 0 c 0.5,0 0.9,0.1 1.3,0.4 l 20.8,12 c 1.3,0.7 1.7,2.4 1,3.6 -0.5,0.8 -1.4,1.3 -2.3,1.3 -0.9,0 -0.9,-0.1 -1.3,-0.4 l -20.8,-12 c -1.3,-0.7 -1.7,-2.4 -1,-3.6 0.5,-0.8 1.4,-1.3 2.3,-1.3 m 0,-0.9 c -1.2,0 -2.4,0.6 -3.1,1.8 v 0 c -1,1.7 -0.4,3.9 1.3,4.9 l 20.8,12 c 0.6,0.3 1.2,0.5 1.8,0.5 1.2,0 2.4,-0.6 3.1,-1.8 v 0 c 1,-1.7 0.4,-3.9 -1.3,-4.9 l -20.8,-12 c -0.6,-0.3 -1.2,-0.5 -1.8,-0.5 z"
           id="path4" />
      </g>
      <g
         id="g6">
        <path
           class="st1"
           d="m 43.7,43.6 c -0.5,0 -1.1,-0.1 -1.5,-0.4 -0.7,-0.4 -1.2,-1.1 -1.4,-1.9 -0.2,-0.8 -0.1,-1.6 0.3,-2.4 0.6,-1 1.6,-1.6 2.7,-1.6 1.1,0 1.1,0.1 1.5,0.4 1.5,0.9 2,2.8 1.1,4.2 -0.6,1 -1.6,1.6 -2.7,1.6 z"
           id="path5" />
        <path
           d="m 43.7,37.8 v 0 c 0.5,0 0.9,0.1 1.3,0.4 1.3,0.7 1.7,2.4 1,3.6 -0.5,0.8 -1.4,1.3 -2.3,1.3 -0.9,0 -0.9,-0.1 -1.3,-0.4 -1.3,-0.7 -1.7,-2.4 -1,-3.6 0.5,-0.8 1.4,-1.3 2.3,-1.3 m 0,-0.9 c -1.2,0 -2.4,0.6 -3.1,1.8 -1,1.7 -0.4,3.9 1.3,4.9 0.6,0.3 1.2,0.5 1.8,0.5 1.2,0 2.4,-0.6 3.1,-1.8 1,-1.7 0.4,-3.9 -1.3,-4.9 -0.6,-0.3 -1.2,-0.5 -1.8,-0.5 z"
           id="path6" />
      </g>
    </g>
    <g
       id="g11">
      <g
         id="g8">
        <path
           d="m 22.9,43.6 c -1.1,0 -2.1,-0.6 -2.7,-1.6 -0.9,-1.5 -0.3,-3.4 1.1,-4.2 l 20.8,-12 c 0.5,-0.3 1,-0.4 1.5,-0.4 1.1,0 2.1,0.6 2.7,1.6 0.9,1.5 0.3,3.4 -1.1,4.2 l -20.8,12 c -0.5,0.3 -1,0.4 -1.5,0.4 z"
           id="path7" />
        <path
           d="m 43.7,25.8 c 0.9,0 1.8,0.5 2.3,1.3 0.7,1.3 0.3,2.9 -1,3.6 l -20.8,12 c -0.4,0.2 -0.9,0.4 -1.3,0.4 -0.9,0 -1.8,-0.5 -2.3,-1.3 -0.7,-1.3 -0.3,-2.9 1,-3.6 l 20.8,-12 c 0.4,-0.2 0.9,-0.4 1.3,-0.4 m 0,-0.9 c -0.6,0 -1.2,0.2 -1.8,0.5 l -20.8,12 c -1.7,1 -2.3,3.2 -1.3,4.9 v 0 c 0.7,1.1 1.9,1.8 3.1,1.8 1.2,0 1.2,-0.2 1.8,-0.5 l 20.8,-12 c 1.7,-1 2.3,-3.2 1.3,-4.9 v 0 c -0.7,-1.1 -1.9,-1.8 -3.1,-1.8 z"
           id="path8" />
      </g>
      <g
         id="g10">
        <path
           class="st1"
           d="m 23,43.6 c -1.1,0 -2.1,-0.6 -2.7,-1.6 -0.9,-1.5 -0.3,-3.4 1.1,-4.2 0.5,-0.3 1,-0.4 1.5,-0.4 1.1,0 2.1,0.6 2.7,1.6 0.4,0.7 0.5,1.6 0.3,2.4 -0.2,0.8 -0.7,1.5 -1.4,1.9 -0.5,0.3 -1,0.4 -1.5,0.4 v 0 z"
           id="path9" />
        <path
           d="m 22.9,37.8 c 0.9,0 1.8,0.5 2.3,1.3 0.7,1.3 0.3,2.9 -1,3.6 -0.4,0.2 -0.9,0.4 -1.3,0.4 -0.9,0 -1.8,-0.5 -2.3,-1.3 -0.7,-1.3 -0.3,-2.9 1,-3.6 0.4,-0.2 0.9,-0.4 1.3,-0.4 m 0,-0.9 c -0.6,0 -1.2,0.2 -1.8,0.5 -1.7,1 -2.3,3.2 -1.3,4.9 0.7,1.1 1.9,1.8 3.1,1.8 1.2,0 1.2,-0.2 1.8,-0.5 1.7,-1 2.3,-3.2 1.3,-4.9 -0.7,-1.1 -1.9,-1.8 -3.1,-1.8 z"
           id="path10" />
      </g>
    </g>
    <g
       id="g15">
      <g
         id="g12">
        <path
           d="m 33.3,49.6 c -1.7,0 -3.1,-1.4 -3.1,-3.1 v -24 c 0,-1.7 1.4,-3.1 3.1,-3.1 1.7,0 3.1,1.4 3.1,3.1 v 24 c 0,1.7 -1.4,3.1 -3.1,3.1 z"
           id="path11" />
        <path
           d="m 33.3,19.8 c 1.5,0 2.7,1.2 2.7,2.7 v 24 c 0,1.5 -1.2,2.7 -2.7,2.7 -1.5,0 -2.7,-1.2 -2.7,-2.7 v -24 c 0,-1.5 1.2,-2.7 2.7,-2.7 m 0,-0.9 c -2,0 -3.6,1.6 -3.6,3.6 v 24 c 0,2 1.6,3.6 3.6,3.6 2,0 3.6,-1.6 3.6,-3.6 v -24 c 0,-2 -1.6,-3.6 -3.6,-3.6 z"
           id="path12" />
      </g>
      <g
         id="g14">
        <path
           class="st1"
           d="m 33.3,49.6 c -1.7,0 -3.1,-1.4 -3.1,-3.1 0,-1.7 1.4,-3.1 3.1,-3.1 1.7,0 3.1,1.4 3.1,3.1 0,1.7 -1.4,3.1 -3.1,3.1 z"
           id="path13" />
        <path
           d="m 33.3,43.8 c 1.5,0 2.7,1.2 2.7,2.7 0,1.5 -1.2,2.7 -2.7,2.7 -1.5,0 -2.7,-1.2 -2.7,-2.7 0,-1.5 1.2,-2.7 2.7,-2.7 m 0,-0.9 v 0 c -2,0 -3.6,1.6 -3.6,3.6 0,2 1.6,3.6 3.6,3.6 2,0 3.6,-1.6 3.6,-3.6 0,-2 -1.6,-3.6 -3.6,-3.6 z"
           id="path14" />
      </g>
    </g>
    <g
       id="g21">
      <g
         id="g16">
        <path
           class="st5"
           d="m 43.1,13.4 c -0.6,-0.5 -0.8,-1.1 -0.7,-1.8 0,-0.2 0.1,-0.4 0.2,-0.7 0,0 -0.1,0.1 -0.1,0.2 -0.4,0.6 -0.9,1.2 -1.3,1.8 -0.5,0.7 -0.4,1.4 0.2,2 0.4,0.4 0.6,0.8 0.5,1.3 0,0.2 -0.1,0.3 -0.1,0.6 0.5,-0.5 1.1,-0.8 1.5,-1.3 0.5,-0.6 0.4,-1.5 -0.2,-2 z"
           id="path15" />
        <path
           class="st5"
           d="m 27.5,13.1 c -0.4,-0.3 -0.9,-0.6 -1.4,-1 0,0.2 0,0.2 0.1,0.3 0.3,0.7 0,1.2 -0.5,1.7 -0.6,0.4 -0.6,1.3 0,1.7 0.4,0.3 0.9,0.6 1.3,0.9 0,0 0,0 0.1,0 0,0 0,0 0,-0.1 -0.3,-0.7 0,-1.3 0.6,-1.8 0.6,-0.4 0.5,-1.2 0,-1.7 z"
           id="path16" />
      </g>
      <path
         class="st0"
         d="m 37.7,10 c 0,0 0,0 0,0 z"
         id="path17" />
      <path
         class="st2"
         d="m 42.6,36.8 c 1.6,0 3.1,-1.3 3.6,-2.9 0.4,-1.3 0,-2.7 0.2,-4 -0.5,0.7 -1,1.3 -1.5,1.8 -0.6,0.6 -1.7,1.2 -2,1.2 0,0 0,-0.1 0.1,-0.2 1.8,-2.8 2,-5.7 0.8,-8.7 -0.6,-1.3 -1.2,-2.6 -1.8,-4 -0.2,-0.5 -0.4,-0.9 -0.6,-1.4 -0.1,0.7 -0.2,1.3 -0.2,2 -0.1,1.8 -0.9,3.2 -2.5,4.2 -0.5,0.3 -0.9,0.6 -1.5,0.6 0.1,-0.4 0.4,-0.8 0.6,-1.2 0.4,-0.8 0.7,-1.7 0.7,-2.6 0,-1.5 -0.4,-2.9 -1.1,-4.2 -1,-1.8 -1.2,-3.7 -0.5,-5.6 0.2,-0.7 0.6,-1.3 1,-1.9 0,0 0,0 0,0 0,0 -0.2,0.1 -0.3,0.2 -0.9,0.6 -1.8,1.3 -2.7,1.9 -1.3,0.9 -2.5,1.9 -3.4,3.2 -1.7,2.4 -2.4,5.1 -2,8.1 0,0.4 0.1,0.8 0.2,1.3 0,0 0,0 0,0 0,0 0,0 0,0 0,0 0,0 -0.1,0 -1.4,-0.5 -2.4,-2.1 -2.1,-3.6 0,-0.5 0.2,-0.9 0.2,-1.4 0,-0.3 0.1,-0.5 0.1,-0.9 0,0 -0.1,0.1 -0.1,0.1 -0.8,1.3 -1.7,2.5 -2.5,3.8 -0.7,1.1 -1.1,2.3 -1.3,3.6 0,0.5 0,1 0,1.6 -1.1,-1.8 -1.4,-3.6 -1.1,-5.6 -0.3,0.3 -0.6,0.6 -1,0.9 -1,1 -1.7,2.1 -2.1,3.5 -0.3,1.2 -0.3,2.4 0,3.6 0.5,3.4 3.5,6.2 7,6.4 1.5,0 14.1,0 16.2,0 z"
         id="path18" />
      <path
         class="st4"
         d="m 29.5,24.7 c 0,0 0,0 0,0 z"
         id="path19" />
      <path
         class="st4"
         d="m 37.1,25.6 c 0,0 0,0 0,0 z"
         id="path20" />
      <path
         class="st3"
         d="m 39.9,32.1 c -0.7,-0.9 -0.7,-1.7 0,-2.7 0.1,-0.1 0.2,-0.3 0.3,-0.5 -0.9,0.1 -1.6,0.6 -2.1,1.3 -0.5,0.7 -0.7,1.5 -0.6,2.4 -0.7,-0.4 -1.3,-0.7 -1.7,-1.4 -0.3,-0.6 -0.3,-1.3 -0.2,-2 0.2,-1 -0.6,-2.2 -1.5,-2.5 -0.8,-0.3 -1.5,-0.3 -2.3,-0.5 0,0 -0.2,0 -0.3,0 0.3,0.4 0.5,0.9 0.7,1.3 0.3,1.3 0,2.4 -0.8,3.4 -0.3,0.4 -0.7,0.8 -1,1.3 0,0.2 -0.2,0 -0.2,0 -0.4,-0.5 -0.7,-1.1 -0.9,-1.7 0,-0.3 -0.1,-0.6 -0.2,-0.9 -0.2,0.1 -0.2,0.3 -0.3,0.5 -0.4,0.6 -0.8,1.2 -0.9,1.9 -0.3,1.3 0,2.5 0.8,3.5 0.6,0.7 1.4,1.2 2.3,1.4 1.8,0.1 3.5,0 5.3,0 2.1,-0.3 3.4,-1.8 3.7,-2.5 0.3,-0.7 0.4,-1.6 0,-2.3 z"
         id="path21" />
    </g>
  </g>
</svg>
