<?xml version="1.0" encoding="UTF-8" standalone="no"?>
<!-- Generator: Adobe Illustrator 29.4.0, SVG Export Plug-In . SVG Version: 9.03 Build 0)  -->

<svg
   version="1.1"
   id="Layer_1"
   x="0px"
   y="0px"
   viewBox="0 0 43.7 41.2"
   xml:space="preserve"
   sodipodi:docname="poi041_c.svg"
   width="43.700001"
   height="41.200001"
   inkscape:version="1.3.2 (091e20e, 2023-11-25, custom)"
   xmlns:inkscape="http://www.inkscape.org/namespaces/inkscape"
   xmlns:sodipodi="http://sodipodi.sourceforge.net/DTD/sodipodi-0.dtd"
   xmlns="http://www.w3.org/2000/svg"
   xmlns:svg="http://www.w3.org/2000/svg"><defs
   id="defs11" /><sodipodi:namedview
   id="namedview11"
   pagecolor="#ffffff"
   bordercolor="#000000"
   borderopacity="0.25"
   inkscape:showpageshadow="2"
   inkscape:pageopacity="0.0"
   inkscape:pagecheckerboard="0"
   inkscape:deskcolor="#d1d1d1"
   inkscape:zoom="44.150485"
   inkscape:cx="21.857065"
   inkscape:cy="20.6"
   inkscape:window-width="3840"
   inkscape:window-height="2054"
   inkscape:window-x="2869"
   inkscape:window-y="-11"
   inkscape:window-maximized="1"
   inkscape:current-layer="Layer_1" />
<path
   style="fill:#ffffff"
   d="m 37.9,14.8 c -1.1,0 -2.2,0.3 -3.1,0.9 0,-0.2 -0.2,-0.4 -0.4,-0.5 C 31.5,12.1 21.8,1.8 20.8,1 20,0.4 19.1,0 18.1,0 v 0 c -1.3,0 -2.4,0.6 -3.3,1.5 -0.7,0.9 -1.1,2 -1,3.1 0.1,1.1 0.6,2.1 1.5,2.9 0.2,0.2 1.2,0.9 2.5,1.7 C 14.3,7.5 11.5,6.1 10.9,5.9 10.4,5.7 9.8,5.6 9.3,5.6 v 0 c -2,0 -3.8,1.3 -4.5,3.1 -0.4,1.2 -0.4,2.5 0.2,3.6 0.5,1.1 1.5,2 2.7,2.5 0.6,0.2 3.6,1 7.4,1.9 -5,-0.6 -9.4,-1.1 -10.1,-1.1 -2.8,0 -5,2.3 -5,5 0,2.7 2.3,5 5,5 2.7,0 5.1,-0.5 10.1,-1.1 -3.8,0.9 -6.9,1.6 -7.4,1.9 -1.2,0.4 -2.1,1.3 -2.7,2.5 -0.6,1.2 -0.6,2.4 -0.2,3.6 0.7,1.9 2.5,3.1 4.5,3.1 2,0 1.1,0 1.6,-0.3 0.6,-0.2 3.4,-1.6 6.9,-3.3 -1.3,0.9 -2.3,1.5 -2.5,1.7 -0.9,0.7 -1.4,1.7 -1.5,2.9 -0.1,1.2 0.2,2.2 1,3.1 0.8,1 2,1.5 3.3,1.5 1.3,0 1.9,-0.3 2.7,-1 1,-0.8 10.6,-11 13.6,-14.2 0.2,-0.2 0.3,-0.4 0.4,-0.6 0.9,0.6 1.9,0.9 3.1,0.9 3.2,0 5.8,-2.6 5.8,-5.8 0,-3.2 -2.6,-5.8 -5.8,-5.8 z"
   id="path1" />
<g
   id="g6">
	<circle
   cx="37.900002"
   cy="20.6"
   r="3.8"
   id="circle1" />
	<path
   d="m 31.6,20.6 c 0,0 -24.6,3 -26.3,3 -1.7,0 -3,-1.4 -3,-3 0,-1.6 1.4,-3 3,-3 1.6,0 26.3,3 26.3,3 z"
   id="path2" />
	<path
   d="m 31.9,18.4 c 0,0 -21.9,-5 -23.3,-5.5 C 7.2,12.4 6.4,10.8 7,9.4 7.6,8 9.1,7.2 10.5,7.8 11.9,8.3 31.9,18.5 31.9,18.5 Z"
   id="path3" />
	<path
   d="M 33,16.5 C 33,16.5 17.7,6.6 16.8,5.8 15.9,5 15.7,3.6 16.5,2.7 17.3,1.8 18.7,1.6 19.6,2.4 20.5,3.2 33,16.5 33,16.5 Z"
   id="path4" />
	<path
   d="m 31.9,22.7 c 0,0 -21.9,5 -23.3,5.5 -1.4,0.5 -2.2,2.1 -1.6,3.5 0.5,1.4 2.1,2.2 3.5,1.6 1.4,-0.5 21.4,-10.7 21.4,-10.7 z"
   id="path5" />
	<path
   d="m 33,24.6 c 0,0 -15.3,9.9 -16.3,10.6 -1,0.7 -1.1,2.2 -0.3,3.1 0.8,0.9 2.2,1.1 3.1,0.3 0.9,-0.8 13.4,-14.1 13.4,-14.1 z"
   id="path6" />
</g>
<g
   id="g11">
	<circle
   cx="37.900002"
   cy="20.6"
   r="3.8"
   id="circle6" />
	<path
   d="m 31.6,20.6 c 0,0 -24.6,3 -26.3,3 -1.7,0 -3,-1.4 -3,-3 0,-1.6 1.4,-3 3,-3 1.6,0 26.3,3 26.3,3 z"
   id="path7" />
	<path
   d="m 31.9,18.4 c 0,0 -21.9,-5 -23.3,-5.5 C 7.2,12.4 6.4,10.8 7,9.4 7.6,8 9.1,7.2 10.5,7.8 11.9,8.3 31.9,18.5 31.9,18.5 Z"
   id="path8" />
	<path
   d="M 33,16.5 C 33,16.5 17.7,6.6 16.8,5.8 15.9,5 15.7,3.6 16.5,2.7 17.3,1.8 18.7,1.6 19.6,2.4 20.5,3.2 33,16.5 33,16.5 Z"
   id="path9" />
	<path
   d="m 31.9,22.7 c 0,0 -21.9,5 -23.3,5.5 -1.4,0.5 -2.2,2.1 -1.6,3.5 0.5,1.4 2.1,2.2 3.5,1.6 1.4,-0.5 21.4,-10.7 21.4,-10.7 z"
   id="path10" />
	<path
   d="m 33,24.6 c 0,0 -15.3,9.9 -16.3,10.6 -1,0.7 -1.1,2.2 -0.3,3.1 0.8,0.9 2.2,1.1 3.1,0.3 0.9,-0.8 13.4,-14.1 13.4,-14.1 z"
   id="path11" />
</g>
</svg>
