<?xml version="1.0" encoding="UTF-8" standalone="no"?>
<svg
   id="Layer_1"
   version="1.1"
   viewBox="0 0 62 62"
   sodipodi:docname="poi029_b.svg"
   width="62"
   height="62"
   inkscape:version="1.3.2 (091e20e, 2023-11-25, custom)"
   xmlns:inkscape="http://www.inkscape.org/namespaces/inkscape"
   xmlns:sodipodi="http://sodipodi.sourceforge.net/DTD/sodipodi-0.dtd"
   xmlns="http://www.w3.org/2000/svg"
   xmlns:svg="http://www.w3.org/2000/svg">
  <sodipodi:namedview
     id="namedview2"
     pagecolor="#ffffff"
     bordercolor="#000000"
     borderopacity="0.25"
     inkscape:showpageshadow="2"
     inkscape:pageopacity="0.0"
     inkscape:pagecheckerboard="0"
     inkscape:deskcolor="#d1d1d1"
     inkscape:zoom="29.33871"
     inkscape:cx="30.982958"
     inkscape:cy="31"
     inkscape:window-width="3840"
     inkscape:window-height="2054"
     inkscape:window-x="2869"
     inkscape:window-y="-11"
     inkscape:window-maximized="1"
     inkscape:current-layer="Layer_1" />
  <!-- Generator: Adobe Illustrator 29.3.1, SVG Export Plug-In . SVG Version: 2.1.0 Build 151)  -->
  <defs
     id="defs1">
    <style
       id="style1">
      .st0 {
        fill: #0056a4;
      }
    </style>
  </defs>
  <path
     d="M 13,3 H 49.1 L 58.6,37.4 31,58.3 3.4,37.3 13,3 M 10.7,0 0,38.5 31,62 62,38.5 51.3,0 Z"
     id="path1" />
  <path
     class="st0"
     d="m 21.6,8.6 h 10.2 c 3.8,0 6.6,0.9 8.5,2.5 1.9,1.7 2.9,4.2 2.9,7.5 0,3.3 -1,5.8 -2.9,7.5 -1.9,1.7 -4.8,2.5 -8.5,2.5 h -5.7 v 13.5 h -4.5 c 0,0 0,-33.5 0,-33.5 z m 4.5,3.7 v 12.6 h 5.7 c 2.1,0 3.7,-0.5 4.9,-1.6 1.2,-1.1 1.7,-2.6 1.7,-4.7 0,-2.1 -0.6,-3.6 -1.7,-4.6 -1.1,-1 -2.8,-1.6 -4.9,-1.6 0,0 -5.7,0 -5.7,0 z"
     id="path2" />
</svg>
