<?xml version="1.0" encoding="UTF-8" standalone="no"?>
<svg
   id="Layer_1"
   version="1.1"
   viewBox="0 0 62 62"
   sodipodi:docname="poi010_b.svg"
   width="62"
   height="62"
   inkscape:version="1.3.2 (091e20e, 2023-11-25, custom)"
   xmlns:inkscape="http://www.inkscape.org/namespaces/inkscape"
   xmlns:sodipodi="http://sodipodi.sourceforge.net/DTD/sodipodi-0.dtd"
   xmlns="http://www.w3.org/2000/svg"
   xmlns:svg="http://www.w3.org/2000/svg">
  <sodipodi:namedview
     id="namedview6"
     pagecolor="#ffffff"
     bordercolor="#000000"
     borderopacity="0.25"
     inkscape:showpageshadow="2"
     inkscape:pageopacity="0.0"
     inkscape:pagecheckerboard="0"
     inkscape:deskcolor="#d1d1d1"
     inkscape:zoom="29.33871"
     inkscape:cx="30.982958"
     inkscape:cy="31"
     inkscape:window-width="3840"
     inkscape:window-height="2054"
     inkscape:window-x="2869"
     inkscape:window-y="-11"
     inkscape:window-maximized="1"
     inkscape:current-layer="Layer_1" />
  <!-- Generator: Adobe Illustrator 29.3.1, SVG Export Plug-In . SVG Version: 2.1.0 Build 151)  -->
  <defs
     id="defs1">
    <style
       id="style1">
      .st0 {
        fill: #93572b;
      }
    </style>
  </defs>
  <path
     d="M 13,3 H 49.1 L 58.6,37.4 31,58.3 3.4,37.3 13,3 M 10.7,0 0,38.5 31,62 62,38.5 51.3,0 Z"
     id="path1" />
  <g
     id="g6">
    <polygon
       class="st0"
       points="25.2,39.6 46.6,39.6 46.6,26.1 49,26.6 49,42 22.8,42 22.8,26.6 25.2,26.6 "
       id="polygon1" />
    <polygon
       class="st0"
       points="41.7,20.7 51.5,27.2 50.2,29.2 41.2,23.3 21.1,29 20.5,26.7 "
       id="polygon2" />
    <polygon
       class="st0"
       points="19.3,16.9 21,16.5 21,18.1 23.4,17.4 23.4,15.8 39.5,11.2 44.8,14.7 44.8,21.4 47.2,22.9 47.2,16.3 48.4,17.1 49.7,15.1 39.9,8.6 18.7,14.6 "
       id="polygon3" />
    <polygon
       class="st0"
       points="21.1,37.8 21.1,35.4 15.2,35.4 15.2,23.6 31.3,19.1 34.9,21.4 37.9,20.5 31.7,16.4 10.5,22.5 11.2,24.8 12.8,24.3 12.8,37.8 "
       id="polygon4" />
    <polygon
       class="st0"
       points="33.5,34.8 28.3,34.8 28.3,29.6 33.5,29.6 "
       id="polygon5" />
    <polygon
       class="st0"
       points="42.8,40.4 37.6,40.4 37.6,29.6 42.8,29.6 "
       id="polygon6" />
  </g>
</svg>
