<?xml version="1.0" encoding="UTF-8" standalone="no"?>
<!-- Generator: Adobe Illustrator 29.4.0, SVG Export Plug-In . SVG Version: 9.03 Build 0)  -->

<svg
   version="1.1"
   id="Layer_1"
   x="0px"
   y="0px"
   viewBox="0 0 48 48"
   xml:space="preserve"
   sodipodi:docname="poi045_c.svg"
   width="48"
   height="48"
   inkscape:version="1.3.2 (091e20e, 2023-11-25, custom)"
   xmlns:inkscape="http://www.inkscape.org/namespaces/inkscape"
   xmlns:sodipodi="http://sodipodi.sourceforge.net/DTD/sodipodi-0.dtd"
   xmlns="http://www.w3.org/2000/svg"
   xmlns:svg="http://www.w3.org/2000/svg"><defs
   id="defs4" /><sodipodi:namedview
   id="namedview4"
   pagecolor="#ffffff"
   bordercolor="#000000"
   borderopacity="0.25"
   inkscape:showpageshadow="2"
   inkscape:pageopacity="0.0"
   inkscape:pagecheckerboard="0"
   inkscape:deskcolor="#d1d1d1"
   inkscape:zoom="37.895833"
   inkscape:cx="23.986806"
   inkscape:cy="24"
   inkscape:window-width="3840"
   inkscape:window-height="2054"
   inkscape:window-x="2869"
   inkscape:window-y="-11"
   inkscape:window-maximized="1"
   inkscape:current-layer="Layer_1" />
<path
   style="fill:#ffffff"
   d="M 24,0 C 10.8,0 0,10.7 0,24 0,37.3 10.8,48 24,48 37.2,48 48,37.3 48,24 48,10.7 37.2,0 24,0 Z"
   id="path1" />
<circle
   style="fill:#e4151c"
   cx="24"
   cy="24"
   id="ellipse1"
   r="22" />
<circle
   style="fill:#ffffff"
   cx="24"
   cy="24"
   id="ellipse2"
   r="17.1" />
<path
   d="m 37.4,23.6 v 0 l -2.1,-1.8 c 0,0 -0.2,-0.1 -0.3,-0.1 H 22.2 c -1.3,-2.9 -4.7,-4.2 -7.6,-2.9 -2.9,1.3 -4.2,4.7 -2.9,7.6 1.3,2.9 4.7,4.2 7.6,2.9 1.5,-0.7 2.6,-1.9 3.1,-3.5 h 0.7 l 0.4,1.4 h 0.6 l 0.7,-1 c 0,0 0,0 0.1,0 v 0 l 0.7,1 c 0,0 0,0 0.1,0 v 0 l 0.5,-1 c 0,0 0,0 0.1,0 v 0 l 0.6,1 c 0,0 0,0 0.1,0 v 0 l 0.6,-1 c 0,0 0,0 0.1,0 v 0 l 0.9,0.9 c 0,0 0,0 0.1,0 v 0 l 1.4,-1.5 h 1 l 0.9,1.1 c 0,0 0.1,0 0.2,0 v 0 L 33,26.2 c 0,0 0.1,0 0.2,0 l 0.9,0.9 c 0,0 0.2,0 0.3,0 v 0 l 2.8,-3 c 0.1,-0.1 0.1,-0.3 0,-0.4 z M 15,25.2 c -0.7,0 -1.2,-0.5 -1.2,-1.2 0,-0.7 0.5,-1.2 1.2,-1.2 0.7,0 1.2,0.5 1.2,1.2 0,0.7 -0.5,1.2 -1.2,1.2 z"
   id="path2" />
<circle
   style="fill:#e4151c"
   cx="24"
   cy="24"
   id="ellipse3"
   r="22" />
<circle
   style="fill:#ffffff"
   cx="24"
   cy="24"
   id="ellipse4"
   r="17.1" />
<path
   d="m 37.4,23.6 v 0 l -2.1,-1.8 c 0,0 -0.2,-0.1 -0.3,-0.1 H 22.2 c -1.3,-2.9 -4.7,-4.2 -7.6,-2.9 -2.9,1.3 -4.2,4.7 -2.9,7.6 1.3,2.9 4.7,4.2 7.6,2.9 1.5,-0.7 2.6,-1.9 3.1,-3.5 h 0.7 l 0.4,1.4 h 0.6 l 0.7,-1 c 0,0 0,0 0.1,0 v 0 l 0.7,1 c 0,0 0,0 0.1,0 v 0 l 0.5,-1 c 0,0 0,0 0.1,0 v 0 l 0.6,1 c 0,0 0,0 0.1,0 v 0 l 0.6,-1 c 0,0 0,0 0.1,0 v 0 l 0.9,0.9 c 0,0 0,0 0.1,0 v 0 l 1.4,-1.5 h 1 l 0.9,1.1 c 0,0 0.1,0 0.2,0 v 0 L 33,26.2 c 0,0 0.1,0 0.2,0 l 0.9,0.9 c 0,0 0.2,0 0.3,0 v 0 l 2.8,-3 c 0.1,-0.1 0.1,-0.3 0,-0.4 z M 15,25.2 c -0.7,0 -1.2,-0.5 -1.2,-1.2 0,-0.7 0.5,-1.2 1.2,-1.2 0.7,0 1.2,0.5 1.2,1.2 0,0.7 -0.5,1.2 -1.2,1.2 z"
   id="path4" />
</svg>
