<?xml version="1.0" encoding="UTF-8" standalone="no"?>
<svg
   id="Layer_1"
   version="1.1"
   viewBox="0 0 66.6 66.400002"
   sodipodi:docname="poi041_a.svg"
   width="66.599998"
   height="66.400002"
   inkscape:version="1.3.2 (091e20e, 2023-11-25, custom)"
   xmlns:inkscape="http://www.inkscape.org/namespaces/inkscape"
   xmlns:sodipodi="http://sodipodi.sourceforge.net/DTD/sodipodi-0.dtd"
   xmlns="http://www.w3.org/2000/svg"
   xmlns:svg="http://www.w3.org/2000/svg">
  <sodipodi:namedview
     id="namedview7"
     pagecolor="#ffffff"
     bordercolor="#000000"
     borderopacity="0.25"
     inkscape:showpageshadow="2"
     inkscape:pageopacity="0.0"
     inkscape:pagecheckerboard="0"
     inkscape:deskcolor="#d1d1d1"
     inkscape:zoom="27.353383"
     inkscape:cx="33.304838"
     inkscape:cy="33.25"
     inkscape:window-width="3840"
     inkscape:window-height="2054"
     inkscape:window-x="2869"
     inkscape:window-y="-11"
     inkscape:window-maximized="1"
     inkscape:current-layer="Layer_1" />
  <!-- Generator: Adobe Illustrator 29.3.1, SVG Export Plug-In . SVG Version: 2.1.0 Build 151)  -->
  <defs
     id="defs1">
    <style
       id="style1">
      .st0 {
        fill: #fff;
      }
    </style>
  </defs>
  <g
     id="g2">
    <polygon
       class="st0"
       points="52.5,3.5 62.6,40 33.3,62.1 4,39.9 14.1,3.5 "
       id="polygon1" />
    <path
       d="M 51.3,5 60.8,39.4 33.2,60.3 5.7,39.3 15.3,5 H 51.4 M 53.6,2 H 13 L 2.3,40.5 33.3,64 64.3,40.5 Z"
       id="path1" />
    <path
       class="st0"
       d="M 53.6,2 64.3,40.5 33.3,64 2.3,40.5 13,2 H 53.6 M 55.1,0 H 11.5 L 11.1,1.5 0.4,39.9 0,41.2 1.1,42 l 31,23.5 1.2,0.9 1.2,-0.9 L 65.5,42 66.6,41.2 66.2,39.9 55.5,1.5 Z"
       id="path2" />
  </g>
  <g
     id="g7">
    <circle
       cx="49.299999"
       cy="28.9"
       r="3.8"
       id="circle2" />
    <path
       d="m 42.9,28.9 c 0,0 -24.6,3 -26.3,3 -1.7,0 -3,-1.4 -3,-3 0,-1.6 1.4,-3 3,-3 1.6,0 26.3,3 26.3,3 z"
       id="path3" />
    <path
       d="m 43.3,26.8 c 0,0 -21.9,-5 -23.3,-5.5 -1.4,-0.5 -2.2,-2.1 -1.6,-3.5 0.6,-1.4 2.1,-2.2 3.5,-1.6 1.4,0.6 21.4,10.7 21.4,10.7 z"
       id="path4" />
    <path
       d="M 44.4,24.9 C 44.4,24.9 29.1,15 28.1,14.3 27.1,13.6 27,12.1 27.8,11.2 28.6,10.3 30,10.1 30.9,10.9 31.8,11.7 44.3,25 44.3,25 Z"
       id="path5" />
    <path
       d="m 43.3,31.1 c 0,0 -21.9,5 -23.3,5.5 -1.4,0.5 -2.2,2.1 -1.6,3.5 0.5,1.4 2.1,2.2 3.5,1.6 C 23.3,41.2 43.3,31 43.3,31 Z"
       id="path6" />
    <path
       d="m 44.4,33 c 0,0 -15.3,9.9 -16.3,10.6 -1,0.7 -1.1,2.2 -0.3,3.1 0.8,0.9 2.2,1.1 3.1,0.3 0.9,-0.8 13.4,-14.1 13.4,-14.1 z"
       id="path7" />
  </g>
</svg>
