<?xml version="1.0" encoding="UTF-8" standalone="no"?>
<svg
   id="Layer_1"
   version="1.1"
   viewBox="0 0 66.6 66.400002"
   sodipodi:docname="poi025_a.svg"
   width="66.599998"
   height="66.400002"
   inkscape:version="1.3.2 (091e20e, 2023-11-25, custom)"
   xmlns:inkscape="http://www.inkscape.org/namespaces/inkscape"
   xmlns:sodipodi="http://sodipodi.sourceforge.net/DTD/sodipodi-0.dtd"
   xmlns="http://www.w3.org/2000/svg"
   xmlns:svg="http://www.w3.org/2000/svg">
  <sodipodi:namedview
     id="namedview8"
     pagecolor="#ffffff"
     bordercolor="#000000"
     borderopacity="0.25"
     inkscape:showpageshadow="2"
     inkscape:pageopacity="0.0"
     inkscape:pagecheckerboard="0"
     inkscape:deskcolor="#d1d1d1"
     inkscape:zoom="27.353383"
     inkscape:cx="33.304838"
     inkscape:cy="33.25"
     inkscape:window-width="3840"
     inkscape:window-height="2054"
     inkscape:window-x="2869"
     inkscape:window-y="-11"
     inkscape:window-maximized="1"
     inkscape:current-layer="Layer_1" />
  <!-- Generator: Adobe Illustrator 29.3.1, SVG Export Plug-In . SVG Version: 2.1.0 Build 151)  -->
  <defs
     id="defs1">
    <style
       id="style1">
      .st0 {
        fill: none;
        stroke: #000;
        stroke-linecap: round;
        stroke-miterlimit: 10;
        stroke-width: 2px;
      }

      .st1 {
        fill: #fff;
      }

      .st2 {
        fill: #ff0;
      }
    </style>
  </defs>
  <g
     id="g2">
    <polygon
       class="st1"
       points="52.5,3.5 62.6,40 33.3,62.1 4,39.9 14.1,3.5 "
       id="polygon1" />
    <path
       d="M 15.3,5 H 51.4 L 60.9,39.4 33.3,60.3 5.7,39.3 15.3,5 M 13,2 2.3,40.5 33.3,64 64.3,40.5 53.6,2 Z"
       id="path1" />
    <path
       class="st1"
       d="M 53.6,2 64.3,40.5 33.3,64 2.3,40.5 13,2 H 53.6 M 55.1,0 H 11.5 L 11.1,1.5 0.4,39.9 0,41.2 1.1,42 l 31,23.5 1.2,0.9 1.2,-0.9 L 65.5,42 66.6,41.2 66.2,39.9 55.5,1.5 Z"
       id="path2" />
  </g>
  <g
     id="g4">
    <path
       class="st2"
       d="m 23.7,42 c -1.3,0 -2.4,-1.1 -2.4,-2.4 V 16.4 c 0,-1.3 1.1,-2.4 2.4,-2.4 h 19.2 c 1.3,0 2.4,1.1 2.4,2.4 v 23.2 c 0,1.3 -1.1,2.4 -2.4,2.4 z"
       id="path3" />
    <path
       d="m 42.9,15 c 0.8,0 1.4,0.6 1.4,1.4 v 23.2 c 0,0.8 -0.6,1.4 -1.4,1.4 H 23.7 c -0.8,0 -1.4,-0.6 -1.4,-1.4 V 16.4 c 0,-0.8 0.6,-1.4 1.4,-1.4 h 19.2 m 0,-2 H 23.7 c -1.9,0 -3.4,1.5 -3.4,3.4 v 23.2 c 0,1.9 1.5,3.4 3.4,3.4 h 19.2 c 1.9,0 3.4,-1.5 3.4,-3.4 V 16.4 C 46.3,14.5 44.8,13 42.9,13 Z"
       id="path4" />
  </g>
  <g
     id="g8">
    <g
       id="g5">
      <line
         class="st0"
         x1="45.299999"
         y1="21"
         x2="49.299999"
         y2="21"
         id="line4" />
      <line
         class="st0"
         x1="45.299999"
         y1="35"
         x2="49.299999"
         y2="35"
         id="line5" />
    </g>
    <g
       id="g7">
      <line
         class="st0"
         x1="17.299999"
         y1="21"
         x2="21.299999"
         y2="21"
         id="line6" />
      <line
         class="st0"
         x1="17.299999"
         y1="35"
         x2="21.299999"
         y2="35"
         id="line7" />
    </g>
  </g>
  <polygon
     points="33.8,16.3 37.9,16.3 34.4,22.4 37.2,22.4 28.6,34.3 32.8,24.6 30.2,24.6 "
     id="polygon8" />
  <path
     d="m 35.8,39.5 h -5 C 30,39.5 29.3,38.8 29.3,38 v 0 c 0,-0.8 0.7,-1.5 1.5,-1.5 h 5 c 0.8,0 1.5,0.7 1.5,1.5 v 0 c 0,0.8 -0.7,1.5 -1.5,1.5 z"
     id="path8" />
</svg>
