<?xml version="1.0" encoding="UTF-8" standalone="no"?>
<svg
   id="Layer_1"
   version="1.1"
   viewBox="0 0 66.6 66.400002"
   sodipodi:docname="poi001_a.svg"
   width="66.599998"
   height="66.400002"
   inkscape:version="1.3.2 (091e20e, 2023-11-25, custom)"
   xmlns:inkscape="http://www.inkscape.org/namespaces/inkscape"
   xmlns:sodipodi="http://sodipodi.sourceforge.net/DTD/sodipodi-0.dtd"
   xmlns="http://www.w3.org/2000/svg"
   xmlns:svg="http://www.w3.org/2000/svg">
  <sodipodi:namedview
     id="namedview9"
     pagecolor="#ffffff"
     bordercolor="#000000"
     borderopacity="0.25"
     inkscape:showpageshadow="2"
     inkscape:pageopacity="0.0"
     inkscape:pagecheckerboard="0"
     inkscape:deskcolor="#d1d1d1"
     inkscape:zoom="27.353383"
     inkscape:cx="33.304838"
     inkscape:cy="33.25"
     inkscape:window-width="3840"
     inkscape:window-height="2054"
     inkscape:window-x="2869"
     inkscape:window-y="-11"
     inkscape:window-maximized="1"
     inkscape:current-layer="Layer_1" />
  <!-- Generator: Adobe Illustrator 29.3.1, SVG Export Plug-In . SVG Version: 2.1.0 Build 151)  -->
  <defs
     id="defs1">
    <style
       id="style1">
      .st0 {
        fill: #e4151c;
      }

      .st1, .st2 {
        fill: #fff;
      }

      .st2 {
        stroke: #e4151c;
        stroke-miterlimit: 10;
        stroke-width: 2px;
      }
    </style>
  </defs>
  <g
     id="g2">
    <polygon
       class="st1"
       points="52.5,3.5 62.6,40 33.3,62.1 4,39.9 14.1,3.5 "
       id="polygon1" />
    <path
       d="M 51.3,5 60.8,39.4 33.2,60.3 5.7,39.3 15.3,5 H 51.4 M 53.6,2 H 13 L 2.3,40.5 33.3,64 64.3,40.5 Z"
       id="path1" />
    <path
       class="st1"
       d="M 53.6,2 64.3,40.5 33.3,64 2.3,40.5 13,2 H 53.6 M 55.1,0 H 11.5 L 11.1,1.5 0.4,39.9 0,41.2 1.1,42 l 31,23.5 1.2,0.9 1.2,-0.9 L 65.5,42 66.6,41.2 66.2,39.9 55.5,1.5 Z"
       id="path2" />
  </g>
  <g
     id="g9">
    <ellipse
       class="st2"
       cx="33.299999"
       cy="48.400002"
       rx="9.8000002"
       ry="2.7"
       id="ellipse2" />
    <g
       id="g8">
      <rect
         class="st1"
         x="29.200001"
         y="15.1"
         width="8.3000002"
         height="5.5"
         id="rect2" />
      <rect
         class="st0"
         x="29.200001"
         y="20.6"
         width="8.3000002"
         height="5.5"
         id="rect3" />
      <rect
         class="st0"
         x="29.200001"
         y="9.6999998"
         width="8.3000002"
         height="5.5"
         id="rect4" />
      <rect
         class="st1"
         x="29.200001"
         y="26.1"
         width="8.3000002"
         height="5.5"
         id="rect5" />
      <rect
         class="st0"
         x="29.200001"
         y="31.6"
         width="8.3000002"
         height="5.5"
         id="rect6" />
      <rect
         class="st1"
         x="29.200001"
         y="37"
         width="8.3000002"
         height="5.5"
         id="rect7" />
      <rect
         class="st0"
         x="29.200001"
         y="42.5"
         width="8.3000002"
         height="5.5"
         id="rect8" />
    </g>
    <ellipse
       class="st0"
       cx="33.299999"
       cy="9.6999998"
       rx="4.0999999"
       ry="1.4"
       id="ellipse8" />
    <ellipse
       class="st0"
       cx="33.299999"
       cy="48"
       rx="4.0999999"
       ry="1.4"
       id="ellipse9" />
  </g>
</svg>
