<?xml version="1.0" encoding="UTF-8" standalone="no"?>
<!-- Generator: Adobe Illustrator 29.4.0, SVG Export Plug-In . SVG Version: 9.03 Build 0)  -->

<svg
   version="1.1"
   id="Layer_1"
   x="0px"
   y="0px"
   viewBox="0 0 32.874851 31.1"
   xml:space="preserve"
   sodipodi:docname="poi017_c.svg"
   width="32.874851"
   height="31.1"
   inkscape:version="1.3.2 (091e20e, 2023-11-25, custom)"
   xmlns:inkscape="http://www.inkscape.org/namespaces/inkscape"
   xmlns:sodipodi="http://sodipodi.sourceforge.net/DTD/sodipodi-0.dtd"
   xmlns="http://www.w3.org/2000/svg"
   xmlns:svg="http://www.w3.org/2000/svg"><defs
   id="defs5" /><sodipodi:namedview
   id="namedview5"
   pagecolor="#ffffff"
   bordercolor="#000000"
   borderopacity="0.25"
   inkscape:showpageshadow="2"
   inkscape:pageopacity="0.0"
   inkscape:pagecheckerboard="0"
   inkscape:deskcolor="#d1d1d1"
   inkscape:zoom="58.488745"
   inkscape:cx="16.430511"
   inkscape:cy="15.55"
   inkscape:window-width="3840"
   inkscape:window-height="2054"
   inkscape:window-x="2869"
   inkscape:window-y="-11"
   inkscape:window-maximized="1"
   inkscape:current-layer="Layer_1" />
<path
   style="fill:#ffffff"
   d="m 32.7125,5.7 c 0,-0.7 -0.4,-1.3 -1.1,-1.6 l -0.3,-0.2 c -4.8,-2.6 -9.9,-3.9 -14.9,-3.9 -5,0 -10,1.3 -15,3.9 l -0.3,0.2 c -0.6,0.3 -1.1,1 -1.1,1.7 v 0.4 c -0.3,11.4 4.8,19.6 15.3,24.6 h 0.2 c 0.3,0.2 0.6,0.3 0.9,0.3 0.3,0 0.5,0 0.8,-0.2 h 0.3 c 10.8,-4.8 16,-13.4 15.3,-24.8 V 5.8 Z"
   id="path1" />
<g
   id="g5"
   transform="translate(-5e-4)">
	<path
   style="fill:#ff0000"
   d="M 30.812,6.2 V 5.9 l -0.3,-0.2 c -9.3,-4.9 -18.8,-4.9 -28.1,0 l -0.3,0.2 v 0.4 c -0.3,10.5 4.4,18.2 14.1,22.7 h 0.2 c 0,0.1 0.3,0 0.3,0 10.101,-4.4 14.801,-12.1 14.1,-22.8 z M 16.413,27.7 c -8.9,-4.3 -13.4,-11.4 -13.2,-21.1 8.8,-4.5 17.7,-4.5 26.4,0 0.5,9.8 -3.9,17 -13.2,21.1 z"
   id="path2" />
	<path
   style="fill:#ff0000"
   d="m 16.413,16.1 c -2.6,0 -4.7,2.1 -4.7,4.6 0,2.5 2.1,4.7 4.7,4.7 2.6,0 4.7,-2.1 4.7,-4.7 0,-2.6 -2.101,-4.6 -4.7,-4.6 z"
   id="path3" />
	<path
   style="fill:#ff0000"
   d="m 23.213,6.2 c -2.6,0 -4.6,2.1 -4.6,4.7 0,2.6 2.1,4.6 4.6,4.6 2.5,0 4.7,-2.1 4.7,-4.6 0,-2.6 -2.1,-4.7 -4.7,-4.7 z"
   id="path4" />
	<path
   style="fill:#ff0000"
   d="m 14.113,10.7 c 0,-2.6 -2.1,-4.7 -4.7,-4.7 -2.6,0 -4.6,2.1 -4.6,4.7 0,2.6 2.1,4.6 4.6,4.6 2.5,0 4.7,-2.1 4.7,-4.6 z"
   id="path5" />
</g>
</svg>
