<?xml version="1.0" encoding="UTF-8" standalone="no"?>
<!-- Generator: Adobe Illustrator 29.4.0, SVG Export Plug-In . SVG Version: 9.03 Build 0)  -->

<svg
   version="1.1"
   id="Layer_1"
   x="0px"
   y="0px"
   viewBox="0 0 25.6 37.5"
   xml:space="preserve"
   sodipodi:docname="poi029_c.svg"
   width="25.6"
   height="37.5"
   inkscape:version="1.3.2 (091e20e, 2023-11-25, custom)"
   xmlns:inkscape="http://www.inkscape.org/namespaces/inkscape"
   xmlns:sodipodi="http://sodipodi.sourceforge.net/DTD/sodipodi-0.dtd"
   xmlns="http://www.w3.org/2000/svg"
   xmlns:svg="http://www.w3.org/2000/svg"><defs
   id="defs3" /><sodipodi:namedview
   id="namedview3"
   pagecolor="#ffffff"
   bordercolor="#000000"
   borderopacity="0.25"
   inkscape:showpageshadow="2"
   inkscape:pageopacity="0.0"
   inkscape:pagecheckerboard="0"
   inkscape:deskcolor="#d1d1d1"
   inkscape:zoom="48.506667"
   inkscape:cx="12.802364"
   inkscape:cy="18.75"
   inkscape:window-width="3840"
   inkscape:window-height="2054"
   inkscape:window-x="2869"
   inkscape:window-y="-11"
   inkscape:window-maximized="1"
   inkscape:current-layer="Layer_1" />
<path
   style="fill:#ffffff"
   d="M 22.1,3.1 C 19.8,1.1 16.5,0 12.3,0 H 2 C 0.9,0 0,0.9 0,2 v 33.5 c 0,1.1 0.9,2 2,2 h 4.5 c 1.1,0 2,-0.9 2,-2 V 24 h 3.7 c 4.2,0 7.6,-1 9.8,-3 2.4,-2.1 3.6,-5.1 3.6,-9 0,-3.9 -1.2,-6.9 -3.6,-9 z"
   id="path1" />
<path
   style="fill:#0056a4"
   d="m 2,2 h 10.2 c 3.8,0 6.6,0.9 8.5,2.5 1.9,1.7 2.9,4.2 2.9,7.5 0,3.3 -1,5.8 -2.9,7.5 -1.9,1.7 -4.8,2.5 -8.5,2.5 H 6.5 V 35.5 H 2 Z m 4.5,3.7 v 12.6 h 5.7 c 2.1,0 3.7,-0.5 4.9,-1.6 1.2,-1.1 1.7,-2.6 1.7,-4.7 C 18.8,9.9 18.2,8.4 17.1,7.4 16,6.4 14.3,5.8 12.2,5.8 H 6.5 Z"
   id="path2" />
<path
   style="fill:#0056a4"
   d="m 2,2 h 10.2 c 3.8,0 6.6,0.9 8.5,2.5 1.9,1.7 2.9,4.2 2.9,7.5 0,3.3 -1,5.8 -2.9,7.5 -1.9,1.7 -4.8,2.5 -8.5,2.5 H 6.5 V 35.5 H 2 Z m 4.5,3.7 v 12.6 h 5.7 c 2.1,0 3.7,-0.5 4.9,-1.6 1.2,-1.1 1.7,-2.6 1.7,-4.7 C 18.8,9.9 18.2,8.4 17.1,7.4 16,6.4 14.3,5.8 12.2,5.8 H 6.5 Z"
   id="path3" />
</svg>
