<?xml version="1.0" encoding="UTF-8" standalone="no"?>
<!-- Generator: Adobe Illustrator 29.4.0, SVG Export Plug-In . SVG Version: 9.03 Build 0)  -->

<svg
   version="1.1"
   id="Layer_1"
   x="0px"
   y="0px"
   viewBox="0 0 25.6 47.9"
   xml:space="preserve"
   sodipodi:docname="poi001_c.svg"
   width="25.6"
   height="47.900002"
   inkscape:version="1.3.2 (091e20e, 2023-11-25, custom)"
   xmlns:inkscape="http://www.inkscape.org/namespaces/inkscape"
   xmlns:sodipodi="http://sodipodi.sourceforge.net/DTD/sodipodi-0.dtd"
   xmlns="http://www.w3.org/2000/svg"
   xmlns:svg="http://www.w3.org/2000/svg"><defs
   id="defs13" /><sodipodi:namedview
   id="namedview13"
   pagecolor="#ffffff"
   bordercolor="#000000"
   borderopacity="0.25"
   inkscape:showpageshadow="2"
   inkscape:pageopacity="0.0"
   inkscape:pagecheckerboard="0"
   inkscape:deskcolor="#d1d1d1"
   inkscape:zoom="37.974947"
   inkscape:cx="12.797911"
   inkscape:cy="23.950001"
   inkscape:window-width="3840"
   inkscape:window-height="2054"
   inkscape:window-x="2869"
   inkscape:window-y="-11"
   inkscape:window-maximized="1"
   inkscape:current-layer="Layer_1" />
<path
   style="fill:#ffffff"
   d="M 18.9,37 V 3.4 c 0,-0.2 0,-0.3 0,-0.5 C 18.5,1.1 16.3,0 12.8,0 9.3,0 7.1,1.1 6.7,2.9 c 0,0.2 0,0.3 0,0.5 V 37 C 3.3,37.7 0,39.1 0,42.2 c 0,5.2 9,5.7 12.8,5.7 3.8,0 12.8,-0.6 12.8,-5.7 0,-3.1 -3.3,-4.5 -6.7,-5.2 z"
   id="path1" />
<g
   id="g9">
	<g
   id="g2">
		<ellipse
   style="fill:#ffffff"
   cx="12.7"
   cy="42.200001"
   rx="9.8000002"
   ry="2.7"
   id="ellipse1" />
		<path
   style="fill:#e4151c"
   d="m 12.7,45.9 c -4,0 -10.8,-0.8 -10.8,-3.7 0,-2.9 6.8,-3.7 10.8,-3.7 4,0 10.8,0.8 10.8,3.7 0,2.9 -6.8,3.7 -10.8,3.7 z M 3.9,42.2 c 0.5,0.6 3.3,1.7 8.8,1.7 5.5,0 8.3,-1.2 8.8,-1.7 -0.5,-0.6 -3.3,-1.7 -8.8,-1.7 -5.5,0 -8.3,1.2 -8.8,1.7 z"
   id="path2" />
	</g>
	<g
   id="g8">
		<rect
   x="8.6000004"
   y="8.8999996"
   style="fill:#ffffff"
   width="8.3000002"
   height="5.5"
   id="rect2" />
		<rect
   x="8.6000004"
   y="14.4"
   style="fill:#e4151c"
   width="8.3000002"
   height="5.5"
   id="rect3" />
		<rect
   x="8.6000004"
   y="3.4000001"
   style="fill:#e4151c"
   width="8.3000002"
   height="5.5"
   id="rect4" />
		<rect
   x="8.6000004"
   y="19.799999"
   style="fill:#ffffff"
   width="8.3000002"
   height="5.5"
   id="rect5" />
		<rect
   x="8.6000004"
   y="25.299999"
   style="fill:#e4151c"
   width="8.3000002"
   height="5.5"
   id="rect6" />
		<rect
   x="8.6000004"
   y="30.799999"
   style="fill:#ffffff"
   width="8.3000002"
   height="5.5"
   id="rect7" />
		<rect
   x="8.6000004"
   y="36.200001"
   style="fill:#e4151c"
   width="8.3000002"
   height="5.5"
   id="rect8" />
	</g>
	<ellipse
   style="fill:#e4151c"
   cx="12.7"
   cy="3.4000001"
   rx="4.0999999"
   ry="1.4"
   id="ellipse8" />
	<ellipse
   style="fill:#e4151c"
   cx="12.7"
   cy="41.700001"
   rx="4.0999999"
   ry="1.4"
   id="ellipse9" />
</g>
<g
   id="g13">
	<path
   style="fill:#ffffff"
   d="m 16.9,39.7 v 2 0 c 0,0.8 -1.9,1.4 -4.1,1.4 -2.2,0 -4.1,-0.6 -4.1,-1.4 v 0 -2 C 5.3,40.1 3,41.1 3,42.2 c 0,1.1 4.4,2.7 9.8,2.7 5.4,0 9.8,-1.2 9.8,-2.7 0,-1.5 -2.3,-2 -5.7,-2.5 z"
   id="path9" />
	<rect
   x="8.6000004"
   y="8.8999996"
   style="fill:#ffffff"
   width="8.3000002"
   height="5.5"
   id="rect9" />
	<rect
   x="8.6000004"
   y="14.4"
   style="fill:#e4151c"
   width="8.3000002"
   height="5.5"
   id="rect10" />
	<path
   style="fill:#e4151c"
   d="M 16.9,3.4 C 16.9,2.6 15,2 12.8,2 10.6,2 8.7,2.6 8.7,3.4 V 8.9 H 17 v -5.5 0 z"
   id="path10" />
	<rect
   x="8.6000004"
   y="19.799999"
   style="fill:#ffffff"
   width="8.3000002"
   height="5.5"
   id="rect11" />
	<rect
   x="8.6000004"
   y="25.299999"
   style="fill:#e4151c"
   width="8.3000002"
   height="5.5"
   id="rect12" />
	<rect
   x="8.6000004"
   y="30.799999"
   style="fill:#ffffff"
   width="8.3000002"
   height="5.5"
   id="rect13" />
	<path
   style="fill:#e4151c"
   d="m 8.6,41.7 v 0 c 0,0.8 1.9,1.4 4.1,1.4 2.2,0 4.1,-0.6 4.1,-1.4 v 0 -5.5 H 8.5 v 5.5 0 z"
   id="path13" />
</g>
</svg>
