<?xml version="1.0" standalone="no"?>
<!DOCTYPE svg PUBLIC "-//W3C//DTD SVG 20010904//EN"
 "http://www.w3.org/TR/2001/REC-SVG-20010904/DTD/svg10.dtd">
<svg version="1.0" xmlns="http://www.w3.org/2000/svg"
 width="512.000000pt" height="512.000000pt" viewBox="0 0 512.000000 512.000000"
 preserveAspectRatio="xMidYMid meet">

<g transform="translate(0.000000,512.000000) scale(0.100000,-0.100000)"
fill="#000000" stroke="none">
<path d="M1247 5110 c-119 -20 -258 -76 -357 -143 -66 -45 -176 -153 -226
-223 -58 -81 -109 -190 -136 -294 l-23 -85 0 -1820 0 -1820 28 -90 c94 -300
321 -522 622 -607 l80 -23 1590 -3 c1729 -3 1632 -6 1708 52 90 69 118 212 62
315 -30 55 -89 106 -135 116 -23 5 -31 16 -48 68 -37 114 -46 180 -46 322 0
140 8 202 45 320 17 56 22 61 62 78 56 23 104 70 131 127 l21 45 0 1745 0
1745 -29 53 c-16 28 -44 63 -62 77 -76 58 20 55 -1678 54 -858 -1 -1583 -5
-1609 -9z m3195 -169 l33 -29 0 -1726 0 -1726 -28 -27 -27 -28 -1485 -3 -1485
-2 0 214 c0 118 -3 222 -6 231 -10 26 -63 45 -93 34 -48 -19 -50 -29 -51 -265
l0 -221 -42 -7 c-77 -12 -182 -71 -251 -140 -214 -214 -207 -549 17 -754 60
-54 174 -116 239 -127 l37 -7 0 -103 0 -102 -46 8 c-234 44 -428 189 -528 393
-77 159 -70 -17 -74 1956 -2 1201 1 1787 8 1834 24 159 91 289 209 407 112
112 255 188 386 206 l45 6 0 -1410 0 -1410 21 -27 c27 -34 79 -36 109 -4 20
22 20 27 20 1440 l0 1418 1480 0 1480 0 32 -29z m-178 -3713 c-4 -13 -13 -45
-19 -73 l-12 -50 -944 -5 c-519 -3 -945 -6 -946 -8 -1 -1 -10 -16 -19 -33 -19
-38 -6 -80 32 -98 18 -8 281 -11 939 -11 l915 0 0 -75 0 -75 -1430 0 -1431 0
-24 -25 c-30 -29 -32 -64 -6 -96 l19 -24 1448 -5 1447 -5 12 -50 c6 -27 15
-60 19 -72 l7 -23 -1469 0 c-1312 0 -1474 2 -1523 16 -109 32 -200 110 -247
213 -22 47 -27 70 -27 146 0 80 3 97 31 155 49 102 128 171 239 206 32 10 353
13 1518 13 l1478 1 -7 -22z m177 -906 c26 -24 32 -36 32 -72 0 -36 -6 -48 -32
-72 l-31 -28 -1480 0 -1480 0 0 100 0 100 1480 0 1480 0 31 -28z"/>
<path d="M2901 4459 c-181 -35 -297 -202 -268 -387 15 -104 88 -201 186 -249
49 -24 68 -28 146 -28 75 0 98 4 140 25 64 31 134 101 165 165 34 69 36 207 3
277 -64 140 -227 226 -372 197z m153 -167 c156 -90 109 -329 -69 -350 -83 -9
-168 42 -197 117 -5 14 -10 47 -9 74 0 138 155 227 275 159z"/>
<path d="M2450 3599 c-32 -13 -78 -56 -96 -91 -10 -20 -14 -70 -14 -200 0
-196 6 -218 73 -272 37 -29 44 -31 143 -34 l104 -4 0 -238 0 -238 -117 -4
c-138 -4 -180 -19 -221 -81 -26 -39 -27 -45 -30 -214 -3 -161 -2 -177 18 -219
16 -31 36 -52 68 -72 l47 -27 518 -3 c342 -2 531 1 557 8 51 14 98 54 121 105
27 59 27 331 0 390 -40 88 -98 115 -246 115 l-105 0 0 89 c0 108 -15 135 -75
135 -66 0 -75 -23 -75 -184 0 -124 2 -140 21 -164 l20 -26 153 0 c105 0 156
-4 164 -12 8 -8 12 -56 12 -150 0 -126 -2 -138 -19 -148 -30 -15 -1003 -14
-1019 2 -8 8 -12 56 -12 148 0 92 4 140 12 148 8 8 58 12 159 12 130 0 150 2
170 19 l24 19 3 324 c3 333 -2 388 -36 404 -9 5 -75 11 -147 14 l-130 5 0 150
0 150 313 3 312 2 0 -229 c0 -216 1 -230 21 -255 27 -34 77 -36 108 -2 22 23
22 27 19 279 -3 284 -3 284 -78 335 -33 22 -36 22 -374 21 -201 0 -351 -4
-366 -10z"/>
<path d="M1325 1075 c-14 -13 -25 -36 -25 -50 0 -14 11 -37 25 -50 l24 -25
354 0 c343 0 355 1 381 21 34 27 36 79 4 109 -21 19 -33 20 -380 20 l-359 0
-24 -25z"/>
</g>
</svg>
