<?xml version="1.0" encoding="UTF-8" standalone="no"?>
<!-- Generator: Adobe Illustrator 29.4.0, SVG Export Plug-In . SVG Version: 9.03 Build 0)  -->

<svg
   version="1.1"
   id="Layer_1"
   x="0px"
   y="0px"
   viewBox="0 0 66 66"
   xml:space="preserve"
   sodipodi:docname="wwn016_a.svg"
   width="66"
   height="66"
   inkscape:version="1.3.2 (091e20e, 2023-11-25, custom)"
   xmlns:inkscape="http://www.inkscape.org/namespaces/inkscape"
   xmlns:sodipodi="http://sodipodi.sourceforge.net/DTD/sodipodi-0.dtd"
   xmlns="http://www.w3.org/2000/svg"
   xmlns:svg="http://www.w3.org/2000/svg"><defs
   id="defs4" /><sodipodi:namedview
   id="namedview4"
   pagecolor="#ffffff"
   bordercolor="#000000"
   borderopacity="0.25"
   inkscape:showpageshadow="2"
   inkscape:pageopacity="0.0"
   inkscape:pagecheckerboard="0"
   inkscape:deskcolor="#d1d1d1"
   inkscape:zoom="27.560606"
   inkscape:cx="32.981858"
   inkscape:cy="33"
   inkscape:window-width="3840"
   inkscape:window-height="2054"
   inkscape:window-x="2869"
   inkscape:window-y="-11"
   inkscape:window-maximized="1"
   inkscape:current-layer="Layer_1" />
<path
   style="fill:#ffffff"
   d="M 33,0 C 14.8,0 0,14.8 0,33 0,51.2 14.8,66 33,66 51.2,66 66,51.2 66,33 66,14.8 51.2,0 33,0 Z"
   id="path1" />
<path
   d="M 33,5 C 48.4,5 61,17.6 61,33 61,48.4 48.4,61 33,61 17.6,61 5,48.4 5,33 5,17.6 17.6,5 33,5 M 33,2 C 15.9,2 2,15.9 2,33 2,50.1 15.9,64 33,64 50.1,64 64,50.1 64,33 64,15.9 50.1,2 33,2 Z"
   id="path2" />
<path
   style="fill:#00af6b"
   d="M 60.951,31.348 C 60.751,31.348 60.2,31.2 59.8,31.2 57.5,31.2 57.5,33 55.3,33 53.1,33 53,31.2 50.8,31.2 48.6,31.2 48.5,33 46.3,33 44.1,33 44,31.2 41.8,31.2 39.6,31.2 39.5,33 37.3,33 35.1,33 35,31.2 32.8,31.2 30.6,31.2 30.5,33 28.3,33 26.1,33 26,31.2 23.8,31.2 21.6,31.2 21.5,33 19.3,33 17.1,33 17,31.2 14.8,31.2 12.6,31.2 12.5,33 10.3,33 8.1,33 8,31.2 5.8,31.2 5.215,31.2 5,31.3 5,31.3 c 0,0.6 0,1.1 0,1.7 0,15.5 12.5,28 28,28 15.5,0 28,-12.5 28,-28 0,0 0.028,-1.023 -0.049,-1.652 z"
   id="path3" />
<path
   style="fill:#e4151c"
   d="m 50.6,54.8 c 1.6,-1.3 3,-2.7 4.2,-4.2 L 37.2,33 v 0 L 54.7,15.4 C 53.4,13.8 52,12.4 50.5,11.2 L 32.9,28.8 15.4,11.2 c -1.6,1.3 -3,2.7 -4.2,4.2 l 17.5,17.5 v 0 L 11.1,50.5 c 1.3,1.6 2.7,3 4.2,4.2 L 32.9,37.1 50.5,54.7 Z"
   id="path4" />
</svg>
