<?xml version="1.0" encoding="UTF-8" standalone="no"?>
<!-- Generator: Adobe Illustrator 29.4.0, SVG Export Plug-In . SVG Version: 9.03 Build 0)  -->

<svg
   version="1.1"
   id="Layer_1"
   x="0px"
   y="0px"
   viewBox="0 0 66 66"
   xml:space="preserve"
   sodipodi:docname="wwn008_a.svg"
   width="66"
   height="66"
   inkscape:version="1.3.2 (091e20e, 2023-11-25, custom)"
   xmlns:inkscape="http://www.inkscape.org/namespaces/inkscape"
   xmlns:sodipodi="http://sodipodi.sourceforge.net/DTD/sodipodi-0.dtd"
   xmlns="http://www.w3.org/2000/svg"
   xmlns:svg="http://www.w3.org/2000/svg"><defs
   id="defs4" /><sodipodi:namedview
   id="namedview4"
   pagecolor="#ffffff"
   bordercolor="#000000"
   borderopacity="0.25"
   inkscape:showpageshadow="2"
   inkscape:pageopacity="0.0"
   inkscape:pagecheckerboard="0"
   inkscape:deskcolor="#d1d1d1"
   inkscape:zoom="27.560606"
   inkscape:cx="32.981858"
   inkscape:cy="33"
   inkscape:window-width="3840"
   inkscape:window-height="2054"
   inkscape:window-x="2869"
   inkscape:window-y="-11"
   inkscape:window-maximized="1"
   inkscape:current-layer="Layer_1" />
<g
   id="g3">
	<path
   style="fill:#29abe2"
   d="M 33,62.5 C 16.7,62.5 3.5,49.3 3.5,33 3.5,16.7 16.7,3.5 33,3.5 49.3,3.5 62.5,16.7 62.5,33 62.5,49.3 49.3,62.5 33,62.5 Z"
   id="path1" />
	<path
   d="M 33,5 C 48.4,5 61,17.6 61,33 61,48.4 48.4,61 33,61 17.6,61 5,48.4 5,33 5,17.6 17.6,5 33,5 M 33,2 C 15.9,2 2,15.9 2,33 2,50.1 15.9,64 33,64 50.1,64 64,50.1 64,33 64,15.9 50.1,2 33,2 Z"
   id="path2" />
	<path
   style="fill:#ffffff"
   d="M 33,2 C 50.1,2 64,15.9 64,33 64,50.1 50.1,64 33,64 15.9,64 2,50.1 2,33 2,15.9 15.9,2 33,2 M 33,0 C 14.8,0 0,14.8 0,33 0,51.2 14.8,66 33,66 51.2,66 66,51.2 66,33 66,14.8 51.2,0 33,0 Z"
   id="path3" />
</g>
<g
   id="g4">
	<path
   style="fill:#ffffff"
   d="M 49,49.1 V 33 c 0,-8.8 -7.2,-16 -16,-16 -3.513,0 -5.6,0.8 -8,2.2 V 17 c 0.6,-0.2 1,-0.8 1,-1.4 0,-0.6 -0.7,-1.5 -1.5,-1.5 h -7 c -0.8,0 -1.5,0.7 -1.5,1.5 0,0.8 0.4,1.2 1,1.4 v 16.1 c 0,8.8 7.2,16 16,16 3.916,0 5.6,-0.8 8,-2.2 v 2.2 c -0.6,0.2 -1,0.8 -1,1.4 0,0.6 0.7,1.5 1.5,1.5 h 7 c 0.8,0 1.5,-0.7 1.5,-1.5 0,-0.8 -0.4,-1.2 -1,-1.4 z M 33,41 c -4.4,0 -8,-3.6 -8,-8 0,-4.4 3.6,-8 8,-8 4.4,0 8,3.6 8,8 0,4.4 -3.6,8 -8,8 z M 48,38.5 V 49 h -6 v -2.8 c 2.7,-1.9 4.8,-4.6 6,-7.7 z M 48.5,51 h -7 C 41.2,51 41,50.8 41,50.5 41,50.2 41.2,50 41.5,50 h 7 c 0.3,0 0.5,0.2 0.5,0.5 0,0.3 -0.2,0.5 -0.5,0.5 z"
   id="path4" />
	<polygon
   style="fill:#ffffff"
   points="33.5,31.8 33.5,28 32.5,28 32.5,31.8 29.8,29.1 29.1,29.8 31.8,32.5 28,32.5 28,33.5 31.8,33.5 29.1,36.2 29.8,36.9 32.5,34.2 32.5,38 33.5,38 33.5,34.2 36.2,36.9 36.9,36.2 34.2,33.5 38,33.5 38,32.5 34.2,32.5 36.9,29.8 36.2,29.1 "
   id="polygon4" />
</g>
</svg>
