<?xml version="1.0" encoding="UTF-8" standalone="no"?>
<svg
   id="Layer_1"
   version="1.1"
   viewBox="0 0 66 66"
   sodipodi:docname="wwn003_a.svg"
   width="66"
   height="66"
   inkscape:version="1.3.2 (091e20e, 2023-11-25, custom)"
   xmlns:inkscape="http://www.inkscape.org/namespaces/inkscape"
   xmlns:sodipodi="http://sodipodi.sourceforge.net/DTD/sodipodi-0.dtd"
   xmlns="http://www.w3.org/2000/svg"
   xmlns:svg="http://www.w3.org/2000/svg">
  <sodipodi:namedview
     id="namedview9"
     pagecolor="#ffffff"
     bordercolor="#000000"
     borderopacity="0.25"
     inkscape:showpageshadow="2"
     inkscape:pageopacity="0.0"
     inkscape:pagecheckerboard="0"
     inkscape:deskcolor="#d1d1d1"
     inkscape:zoom="27.560606"
     inkscape:cx="32.981858"
     inkscape:cy="33"
     inkscape:window-width="3840"
     inkscape:window-height="2054"
     inkscape:window-x="2869"
     inkscape:window-y="-11"
     inkscape:window-maximized="1"
     inkscape:current-layer="Layer_1" />
  <!-- Generator: Adobe Illustrator 29.3.1, SVG Export Plug-In . SVG Version: 2.1.0 Build 151)  -->
  <defs
     id="defs1">
    <style
       id="style1">
      .st0 {
        fill: #29abe2;
      }

      .st1 {
        fill: #fff;
      }
    </style>
  </defs>
  <g
     id="g3">
    <path
       class="st0"
       d="M 33,62.5 C 16.7,62.5 3.5,49.3 3.5,33 3.5,16.7 16.7,3.5 33,3.5 49.3,3.5 62.5,16.7 62.5,33 62.5,49.3 49.3,62.5 33,62.5 Z"
       id="path1" />
    <path
       d="M 33,5 C 48.4,5 61,17.6 61,33 61,48.4 48.4,61 33,61 17.6,61 5,48.4 5,33 5,17.6 17.6,5 33,5 M 33,2 C 15.9,2 2,15.9 2,33 2,50.1 15.9,64 33,64 50.1,64 64,50.1 64,33 64,15.9 50.1,2 33,2 Z"
       id="path2" />
    <path
       class="st1"
       d="M 33,2 C 50.1,2 64,15.9 64,33 64,50.1 50.1,64 33,64 15.9,64 2,50.1 2,33 2,15.9 15.9,2 33,2 M 33,0 C 14.8,0 0,14.8 0,33 0,51.2 14.8,66 33,66 51.2,66 66,51.2 66,33 66,14.8 51.2,0 33,0 Z"
       id="path3" />
  </g>
  <g
     id="g9">
    <rect
       class="st1"
       x="31"
       y="17.5"
       width="4"
       height="10"
       id="rect3" />
    <rect
       class="st1"
       x="26"
       y="15.4"
       width="14"
       height="4.0999999"
       transform="rotate(-0.1)"
       id="rect4" />
    <rect
       class="st1"
       x="39.299999"
       y="27.5"
       width="5.6999998"
       height="4"
       id="rect5" />
    <rect
       class="st1"
       x="42"
       y="24.5"
       width="6"
       height="3"
       id="rect6" />
    <rect
       class="st1"
       x="42"
       y="31.5"
       width="6"
       height="3"
       id="rect7" />
    <circle
       class="st1"
       cx="39"
       cy="17.5"
       r="3"
       id="circle7" />
    <circle
       class="st1"
       cx="27"
       cy="17.5"
       r="3"
       id="circle8" />
    <path
       class="st1"
       d="m 33,47.5 c -1,0.4 -2.8,1 -5,1 -2.2,0 -2.9,-0.1 -5,-1 v -12 c 0,-6.1 4.9,-11 11,-11 h 6 v 10 h -6 c -0.6,0 -1,0.4 -1,1 z"
       id="path8" />
    <path
       class="st1"
       d="m 33.4,48.4 c -1.7,0.7 -3.5,1.1 -5.4,1.1 -1.9,0 -3.7,-0.4 -5.4,-1.1 L 22,48.1 V 46 c -2.4,0.5 -4,1.4 -4,2.4 0,1.7 4.5,3 10,3 5.5,0 10,-1.3 10,-3 0,-1.7 -1.6,-1.8 -4,-2.4 v 2.1 z"
       id="path9" />
  </g>
</svg>
