<?xml version="1.0" encoding="UTF-8" standalone="no"?>
<svg
   id="Layer_1"
   version="1.1"
   viewBox="0 0 66 66"
   sodipodi:docname="wwn001_a.svg"
   width="66"
   height="66"
   inkscape:version="1.3.2 (091e20e, 2023-11-25, custom)"
   xmlns:inkscape="http://www.inkscape.org/namespaces/inkscape"
   xmlns:sodipodi="http://sodipodi.sourceforge.net/DTD/sodipodi-0.dtd"
   xmlns="http://www.w3.org/2000/svg"
   xmlns:svg="http://www.w3.org/2000/svg">
  <sodipodi:namedview
     id="namedview25"
     pagecolor="#ffffff"
     bordercolor="#000000"
     borderopacity="0.25"
     inkscape:showpageshadow="2"
     inkscape:pageopacity="0.0"
     inkscape:pagecheckerboard="0"
     inkscape:deskcolor="#d1d1d1"
     inkscape:zoom="27.560606"
     inkscape:cx="32.981858"
     inkscape:cy="33"
     inkscape:window-width="3840"
     inkscape:window-height="2054"
     inkscape:window-x="2869"
     inkscape:window-y="-11"
     inkscape:window-maximized="1"
     inkscape:current-layer="Layer_1" />
  <!-- Generator: Adobe Illustrator 29.3.1, SVG Export Plug-In . SVG Version: 2.1.0 Build 151)  -->
  <defs
     id="defs1">
    <style
       id="style1">
      .st0 {
        fill: #29abe2;
      }

      .st1 {
        fill: #fff;
      }

      .st2 {
        fill: #0071bb;
        stroke-width: 4px;
      }

      .st2, .st3 {
        stroke: #000;
        stroke-miterlimit: 10;
      }

      .st3 {
        fill: #404040;
        stroke-width: 2px;
      }
    </style>
  </defs>
  <g
     id="g3">
    <path
       class="st0"
       d="M 33,62.5 C 16.7,62.5 3.5,49.3 3.5,33 3.5,16.7 16.7,3.5 33,3.5 49.3,3.5 62.5,16.7 62.5,33 62.5,49.3 49.3,62.5 33,62.5 Z"
       id="path1" />
    <path
       d="M 33,5 C 48.4,5 61,17.6 61,33 61,48.4 48.4,61 33,61 17.6,61 5,48.4 5,33 5,17.6 17.6,5 33,5 M 33,2 C 15.9,2 2,15.9 2,33 2,50.1 15.9,64 33,64 50.1,64 64,50.1 64,33 64,15.9 50.1,2 33,2 Z"
       id="path2" />
    <path
       class="st1"
       d="M 33,2 C 50.1,2 64,15.9 64,33 64,50.1 50.1,64 33,64 15.9,64 2,50.1 2,33 2,15.9 15.9,2 33,2 M 33,0 C 14.8,0 0,14.8 0,33 0,51.2 14.8,66 33,66 51.2,66 66,51.2 66,33 66,14.8 51.2,0 33,0 Z"
       id="path3" />
  </g>
  <g
     id="g25">
    <path
       class="st2"
       d="M 38,40.9"
       id="path4" />
    <g
       id="g24">
      <ellipse
         class="st3"
         cx="36.700001"
         cy="40"
         rx="18.5"
         ry="9.6999998"
         id="ellipse4" />
      <g
         id="g23">
        <path
           class="st1"
           d="m 27.7,34.9 c -8.8,0 -16,-3.6 -16,-8 0,-4.4 7.2,-8 16,-8 8.8,0 16,3.6 16,8 0,4.4 -7.2,8 -16,8 z"
           id="path5" />
        <ellipse
           cx="27.700001"
           cy="26.9"
           rx="3.4000001"
           ry="1.7"
           id="ellipse5" />
        <path
           d="m 27.7,35.3 c -9.3,0 -16.9,-3.8 -16.9,-8.4 0,-4.6 7.6,-8.4 16.9,-8.4 9.3,0 16.9,3.8 16.9,8.4 0,4.6 -7.6,8.4 -16.9,8.4 z m 0,-15.6 c -7.9,0 -14.3,3.2 -14.3,7.2 0,4 6.4,7.2 14.3,7.2 7.9,0 14.3,-3.2 14.3,-7.2 0,-4 -6.4,-7.2 -14.3,-7.2 z"
           id="path6" />
        <g
           id="g22">
          <path
             d="m 37.7,27.5 c -0.2,0.9 -1,1.8 -2,2.5 l 1.8,0.9 C 39,30 40,28.8 40.3,27.5 Z"
             id="path7" />
          <path
             d="M 17.6,27.5 H 15 c 0.3,1.3 1.3,2.4 2.8,3.4 L 19.6,30 c -1.1,-0.7 -1.8,-1.5 -2,-2.5 z"
             id="path8" />
          <path
             d="m 21.5,30.9 -1.8,0.9 c 1.9,0.8 4.2,1.3 6.7,1.4 v -1.3 c -1.8,-0.1 -3.5,-0.5 -4.9,-1 z"
             id="path9" />
          <path
             d="m 37.7,26.2 h 2.6 C 40,24.9 39,23.8 37.5,22.8 l -1.8,0.9 c 1.1,0.7 1.8,1.5 2,2.5 z"
             id="path10" />
          <path
             d="m 28.9,31.9 v 1.3 c 2.5,-0.1 4.9,-0.6 6.7,-1.4 l -1.8,-0.9 c -1.4,0.5 -3.1,0.9 -4.9,1 z"
             id="path11" />
          <path
             d="m 26.4,21.8 v -1.3 c -2.5,0.1 -4.9,0.6 -6.7,1.4 l 1.8,0.9 c 1.4,-0.5 3.1,-0.9 4.9,-1 z"
             id="path12" />
          <path
             d="m 19.7,23.8 -1.8,-0.9 c -1.5,0.9 -2.5,2.1 -2.8,3.4 h 2.6 c 0.2,-0.9 1,-1.8 2,-2.5 z"
             id="path13" />
          <path
             d="M 33.9,22.9 35.7,22 C 33.8,21.2 31.5,20.7 29,20.6 v 1.3 c 1.8,0.1 3.5,0.5 4.9,1 z"
             id="path14" />
          <path
             d="M 24.8,29.2 23,30.1 c 1,0.4 2.2,0.6 3.4,0.7 v -1.3 c -0.6,0 -1.1,-0.2 -1.6,-0.3 z"
             id="path15" />
          <path
             d="m 30.5,24.5 1.8,-0.9 c -1,-0.4 -2.2,-0.6 -3.4,-0.7 v 1.3 c 0.6,0 1.1,0.2 1.6,0.3 z"
             id="path16" />
          <path
             d="M 26.4,24.2 V 22.9 C 25.1,23 24,23.2 23,23.6 l 1.8,0.9 c 0.5,-0.2 1,-0.3 1.6,-0.3 z"
             id="path17" />
          <path
             d="m 32.3,25.4 c 0.3,0.2 0.5,0.5 0.7,0.8 h 2.6 C 35.4,25.6 34.9,25 34.2,24.5 l -1.8,0.9 z"
             id="path18" />
          <path
             d="m 28.9,29.5 v 1.3 c 1.3,-0.1 2.4,-0.3 3.4,-0.7 l -1.8,-0.9 c -0.5,0.2 -1,0.3 -1.6,0.3 z"
             id="path19" />
          <path
             d="M 23,25.4 21.2,24.5 C 20.5,25 20,25.6 19.8,26.2 h 2.6 c 0.1,-0.3 0.4,-0.6 0.7,-0.8 z"
             id="path20" />
          <path
             d="m 32.3,28.3 1.8,0.9 c 0.7,-0.5 1.2,-1.1 1.4,-1.7 h -2.6 c -0.1,0.3 -0.4,0.6 -0.7,0.8 z"
             id="path21" />
          <path
             d="m 22.3,27.5 h -2.6 c 0.2,0.6 0.7,1.2 1.4,1.7 l 1.8,-0.9 c -0.3,-0.2 -0.5,-0.5 -0.7,-0.8 z"
             id="path22" />
        </g>
      </g>
    </g>
  </g>
</svg>
