<?xml version="1.0" encoding="UTF-8" standalone="no"?>
<!-- Generator: Adobe Illustrator 29.4.0, SVG Export Plug-In . SVG Version: 9.03 Build 0)  -->

<svg
   version="1.1"
   id="Layer_1"
   x="0px"
   y="0px"
   viewBox="0 0 60.005187 53.800179"
   xml:space="preserve"
   sodipodi:docname="wwn006_c.svg"
   width="60.005188"
   height="53.800179"
   inkscape:version="1.3.2 (091e20e, 2023-11-25, custom)"
   xmlns:inkscape="http://www.inkscape.org/namespaces/inkscape"
   xmlns:sodipodi="http://sodipodi.sourceforge.net/DTD/sodipodi-0.dtd"
   xmlns="http://www.w3.org/2000/svg"
   xmlns:svg="http://www.w3.org/2000/svg"><defs
   id="defs3" /><sodipodi:namedview
   id="namedview3"
   pagecolor="#ffffff"
   bordercolor="#000000"
   borderopacity="0.25"
   inkscape:showpageshadow="2"
   inkscape:pageopacity="0.0"
   inkscape:pagecheckerboard="0"
   inkscape:deskcolor="#d1d1d1"
   inkscape:zoom="33.810409"
   inkscape:cx="29.990764"
   inkscape:cy="26.9"
   inkscape:window-width="3840"
   inkscape:window-height="2054"
   inkscape:window-x="2869"
   inkscape:window-y="-11"
   inkscape:window-maximized="1"
   inkscape:current-layer="Layer_1" />
<g
   id="g3"
   transform="translate(0,1.7687558e-4)">
	<path
   style="fill:#ffffff"
   d="M 59.937,21.904 C 59.819,20.942 59.029,20.209 58.073,20.151 L 57.908,20.123 C 57.613,20.071 57.21,20 56.8,20 54.936,20 53.918,20.814 53.244,21.353 52.766,21.736 52.676,21.8 52.3,21.8 51.904,21.8 51.784,21.717 51.283,21.325 50.608,20.797 49.59,20 47.8,20 c -1.789,0 -2.808,0.797 -3.481,1.325 -0.503,0.392 -0.623,0.475 -1.019,0.475 -0.396,0 -0.516,-0.083 -1.017,-0.475 -0.398,-0.311 -0.921,-0.713 -1.646,-0.993 L 53.354,7.614 C 54.079,6.889 54.138,5.734 53.493,4.939 52.109,3.237 50.595,1.723 48.989,0.439 48.192,-0.198 47.044,-0.132 46.326,0.587 L 30.141,16.771 13.955,0.586 C 13.231,-0.139 12.075,-0.199 11.28,0.448 9.577,1.831 8.063,3.346 6.78,4.951 6.143,5.746 6.206,6.894 6.927,7.614 L 19.48,20.167 c -1.005,0.261 -1.676,0.778 -2.162,1.158 C 16.816,21.717 16.697,21.8 16.3,21.8 15.903,21.8 15.783,21.717 15.282,21.325 14.608,20.797 13.589,20 11.8,20 10.01,20 8.991,20.797 8.317,21.325 7.816,21.717 7.697,21.8 7.3,21.8 6.903,21.8 6.783,21.717 6.282,21.325 5.608,20.797 4.589,20 2.8,20 2.12,20 1.568,20.096 1.16,20.284 0.453,20.612 0,21.32 0,22.1 v 1.7 c 0,6.982 2.404,13.409 6.419,18.513 0.057,0.105 0.123,0.207 0.2,0.303 1.295,1.611 2.811,3.124 4.504,4.496 0.023,0.019 0.051,0.024 0.075,0.042 5.148,4.152 11.688,6.646 18.802,6.646 7.128,0 13.681,-2.504 18.833,-6.667 0.03,-0.022 0.062,-0.038 0.091,-0.061 1.692,-1.378 3.205,-2.893 4.495,-4.502 0.066,-0.082 0.12,-0.171 0.171,-0.26 4.009,-5.093 6.409,-11.502 6.408,-18.455 0.005,-0.12 0.031,-1.194 -0.061,-1.951 z"
   id="path1" />
	<path
   style="fill:#29abe2"
   d="M 57.951,22.148 C 57.751,22.148 57.2,22 56.8,22 54.5,22 54.5,23.8 52.3,23.8 50.1,23.8 50,22 47.8,22 45.6,22 45.5,23.8 43.3,23.8 41.1,23.8 41,22 38.8,22 36.6,22 36.5,23.8 34.3,23.8 32.1,23.8 32,22 29.8,22 27.6,22 27.5,23.8 25.3,23.8 23.1,23.8 23,22 20.8,22 18.6,22 18.5,23.8 16.3,23.8 14.1,23.8 14,22 11.8,22 9.6,22 9.5,23.8 7.3,23.8 5.1,23.8 5,22 2.8,22 2.215,22 2,22.1 2,22.1 c 0,0.6 0,1.1 0,1.7 0,15.5 12.5,28 28,28 15.5,0 28,-12.5 28,-28 0,0 0.028,-1.023 -0.049,-1.652 z"
   id="path2" />
	<path
   style="fill:#e4151c"
   d="M 12.383,45.558 30.041,27.9 47.662,45.521 c 1.54,-1.253 2.956,-2.653 4.197,-4.203 L 34.341,23.8 51.941,6.2 c -1.3,-1.6 -2.7,-3 -4.2,-4.2 L 30.141,19.6 12.541,2 c -1.6,1.3 -3,2.7 -4.2,4.2 l 17.5,17.5 -17.663,17.662 c 1.245,1.548 2.662,2.946 4.205,4.196 z"
   id="path3" />
</g>
</svg>
