<?xml version="1.0" encoding="UTF-8" standalone="no"?>
<!-- Generator: Adobe Illustrator 29.4.0, SVG Export Plug-In . SVG Version: 9.03 Build 0)  -->

<svg
   version="1.1"
   id="Layer_1"
   x="0px"
   y="0px"
   viewBox="0 0 62 62"
   xml:space="preserve"
   sodipodi:docname="wwn006_b.svg"
   width="62"
   height="62"
   inkscape:version="1.3.2 (091e20e, 2023-11-25, custom)"
   xmlns:inkscape="http://www.inkscape.org/namespaces/inkscape"
   xmlns:sodipodi="http://sodipodi.sourceforge.net/DTD/sodipodi-0.dtd"
   xmlns="http://www.w3.org/2000/svg"
   xmlns:svg="http://www.w3.org/2000/svg"><defs
   id="defs3" /><sodipodi:namedview
   id="namedview3"
   pagecolor="#ffffff"
   bordercolor="#000000"
   borderopacity="0.25"
   inkscape:showpageshadow="2"
   inkscape:pageopacity="0.0"
   inkscape:pagecheckerboard="0"
   inkscape:deskcolor="#d1d1d1"
   inkscape:zoom="29.33871"
   inkscape:cx="10.975261"
   inkscape:cy="31"
   inkscape:window-width="3840"
   inkscape:window-height="2054"
   inkscape:window-x="2869"
   inkscape:window-y="-11"
   inkscape:window-maximized="1"
   inkscape:current-layer="Layer_1" />
<path
   style="fill:#29abe2"
   d="m 58.949,29.514 c -0.2,0 -0.751,-0.148 -1.151,-0.148 -2.3,0 -2.3,1.8 -4.5,1.8 -2.2,0 -2.3,-1.8 -4.5,-1.8 -2.2,0 -2.3,1.8 -4.5,1.8 -2.2,0 -2.3,-1.8 -4.5,-1.8 -2.2,0 -2.3,1.8 -4.5,1.8 -2.2,0 -2.3,-1.8 -4.5,-1.8 -2.2,0 -2.3,1.8 -4.5,1.8 -2.2,0 -2.3,-1.8 -4.5,-1.8 -2.2,0 -2.3,1.8 -4.5,1.8 -2.2,0 -2.3,-1.8 -4.5,-1.8 -2.2,0 -2.3,1.8 -4.5,1.8 -2.2,0 -2.3,-1.8 -4.5,-1.8 -0.585,0 -0.8,0.1 -0.8,0.1 0,0.6 0,1.1 0,1.7 0,15.5 12.5,28 28,28 15.5,0 28,-12.5 28,-28 0,0 0.028,-1.023 -0.049,-1.652 z"
   id="path1" />
<path
   d="M 31,3 C 46.4,3 59,15.6 59,31 59,46.4 46.4,59 31,59 15.6,59 3,46.4 3,31 3,15.6 15.6,3 31,3 M 31,0 C 13.9,0 0,13.9 0,31 0,48.1 13.9,62 31,62 48.1,62 62,48.1 62,31 62,13.9 48.1,0 31,0 Z"
   id="path2" />
<path
   style="fill:#e4151c"
   d="m 48.6,52.8 c 1.6,-1.3 3,-2.7 4.2,-4.2 L 35.2,31 v 0 L 52.7,13.4 C 51.4,11.8 50,10.4 48.5,9.2 L 30.9,26.8 13.4,9.2 c -1.6,1.3 -3,2.7 -4.2,4.2 l 17.5,17.5 v 0 L 9.1,48.5 c 1.3,1.6 2.7,3 4.2,4.2 L 30.9,35.1 48.5,52.7 Z"
   id="path3" />
</svg>
