<?xml version="1.0" encoding="UTF-8" standalone="no"?>
<!-- Generator: Adobe Illustrator 29.4.0, SVG Export Plug-In . SVG Version: 9.03 Build 0)  -->

<svg
   version="1.1"
   id="Layer_1"
   x="0px"
   y="0px"
   viewBox="0 0 38 42"
   xml:space="preserve"
   sodipodi:docname="wwn008_c.svg"
   width="38"
   height="42"
   inkscape:version="1.3.2 (091e20e, 2023-11-25, custom)"
   xmlns:inkscape="http://www.inkscape.org/namespaces/inkscape"
   xmlns:sodipodi="http://sodipodi.sourceforge.net/DTD/sodipodi-0.dtd"
   xmlns="http://www.w3.org/2000/svg"
   xmlns:svg="http://www.w3.org/2000/svg"><defs
   id="defs2" /><sodipodi:namedview
   id="namedview2"
   pagecolor="#ffffff"
   bordercolor="#000000"
   borderopacity="0.25"
   inkscape:showpageshadow="2"
   inkscape:pageopacity="0.0"
   inkscape:pagecheckerboard="0"
   inkscape:deskcolor="#d1d1d1"
   inkscape:zoom="43.309524"
   inkscape:cx="19.002749"
   inkscape:cy="21"
   inkscape:window-width="3840"
   inkscape:window-height="2054"
   inkscape:window-x="2869"
   inkscape:window-y="-11"
   inkscape:window-maximized="1"
   inkscape:current-layer="Layer_1" />
<path
   style="fill:#ffffff"
   d="M 37,36.1 V 21 C 37,11.1 28.9,3 19,3 16.158,3 14.672,3.017 13.953,3.052 13.724,1.357 12.247,0 10.5,0 h -7 C 1.6,0 0,1.6 0,3.5 0,5.4 0.4,5.3 1,5.9 V 21 c 0,9.9 8.1,18 18,18 2.842,0 4.328,-0.017 5.047,-0.052 C 24.276,40.643 25.753,42 27.5,42 h 7 c 1.9,0 3.5,-1.6 3.5,-3.5 0,-1.9 -0.4,-1.8 -1,-2.4 z"
   id="path1" />
<g
   id="g2">
	<path
   style="fill:#29abe2"
   d="m 35,37.05 v -16.1 c 0,-8.8 -7.2,-16 -16,-16 -3.513,0 -5.6,0.8 -8,2.2 v -2.2 c 0.6,-0.2 1,-0.8 1,-1.4 0,-0.6 -0.7,-1.5 -1.5,-1.5 h -7 c -0.8,0 -1.5,0.7 -1.5,1.5 0,0.8 0.4,1.2 1,1.4 v 16.1 c 0,8.8 7.2,16 16,16 3.916,0 5.6,-0.8 8,-2.2 v 2.2 c -0.6,0.2 -1,0.8 -1,1.4 0,0.6 0.7,1.5 1.5,1.5 h 7 c 0.8,0 1.5,-0.7 1.5,-1.5 0,-0.8 -0.4,-1.2 -1,-1.4 z m -16,-8.1 c -4.4,0 -8,-3.6 -8,-8 0,-4.4 3.6,-8 8,-8 4.4,0 8,3.6 8,8 0,4.4 -3.6,8 -8,8 z m 15,-2.5 v 10.5 h -6 v -2.8 c 2.7,-1.9 4.8,-4.6 6,-7.7 z m 0.5,12.5 h -7 c -0.3,0 -0.5,-0.2 -0.5,-0.5 0,-0.3 0.2,-0.5 0.5,-0.5 h 7 c 0.3,0 0.5,0.2 0.5,0.5 0,0.3 -0.2,0.5 -0.5,0.5 z"
   id="path2" />
	<polygon
   style="fill:#29abe2"
   points="19.5,19.75 19.5,15.95 18.5,15.95 18.5,19.75 15.8,17.05 15.1,17.75 17.8,20.45 14,20.45 14,21.45 17.8,21.45 15.1,24.15 15.8,24.85 18.5,22.15 18.5,25.95 19.5,25.95 19.5,22.15 22.2,24.85 22.9,24.15 20.2,21.45 24,21.45 24,20.45 20.2,20.45 22.9,17.75 22.2,17.05 "
   id="polygon2" />
</g>
</svg>
