<?xml version="1.0" encoding="UTF-8" standalone="no"?>
<!-- Generator: Adobe Illustrator 29.4.0, SVG Export Plug-In . SVG Version: 9.03 Build 0)  -->

<svg
   version="1.1"
   id="Layer_1"
   x="0px"
   y="0px"
   viewBox="0 0 24.931002 39.567"
   xml:space="preserve"
   sodipodi:docname="drg034_c.svg"
   width="24.931002"
   height="39.567001"
   inkscape:version="1.3.2 (091e20e, 2023-11-25, custom)"
   xmlns:inkscape="http://www.inkscape.org/namespaces/inkscape"
   xmlns:sodipodi="http://sodipodi.sourceforge.net/DTD/sodipodi-0.dtd"
   xmlns="http://www.w3.org/2000/svg"
   xmlns:svg="http://www.w3.org/2000/svg"><defs
   id="defs4" /><sodipodi:namedview
   id="namedview4"
   pagecolor="#ffffff"
   bordercolor="#000000"
   borderopacity="0.25"
   inkscape:showpageshadow="2"
   inkscape:pageopacity="0.0"
   inkscape:pagecheckerboard="0"
   inkscape:deskcolor="#d1d1d1"
   inkscape:zoom="45.972652"
   inkscape:cx="12.463932"
   inkscape:cy="19.783501"
   inkscape:window-width="3840"
   inkscape:window-height="2054"
   inkscape:window-x="2869"
   inkscape:window-y="-11"
   inkscape:window-maximized="1"
   inkscape:current-layer="Layer_1" />
<path
   style="fill:#ffffff"
   d="M 24.926,30.027 C 24.925,29.383 24.614,28.779 24.091,28.404 L 21.958,26.876 16.929,13.528 c 0.339,-0.488 0.623,-1.114 0.693,-1.883 0.074,-0.799 -0.072,-2.022 -1.186,-3.31 -0.025,-0.03 -0.052,-0.059 -0.077,-0.087 0.46,-0.602 0.723,-1.349 0.723,-2.147 0,-0.766 -0.24,-1.483 -0.665,-2.071 0.109,-0.313 0.168,-0.646 0.168,-0.986 0,-1.236 -0.739,-2.339 -1.866,-2.804 C 14.345,0.081 13.949,0 13.542,0 c -0.287,0 -0.517,0.054 -0.621,0.083 -0.151,0.023 -0.338,0.063 -0.53,0.146 -1.149,0.47 -1.893,1.575 -1.893,2.814 0,0.339 0.059,0.672 0.17,0.986 -0.425,0.589 -0.667,1.308 -0.667,2.071 0,0.898 0.335,1.736 0.91,2.372 -0.068,0.053 -0.133,0.11 -0.195,0.171 l 0.001,10e-4 c -0.668,0.659 -1.32,2.011 -0.986,3.505 0.068,0.302 0.174,0.595 0.314,0.874 -1.521,2.703 -3.685,6.556 -4.632,8.243 L 1.316,22.752 C 0.527,23.04 0,23.791 0,24.633 v 5.582 c 0,0.731 0.399,1.405 1.042,1.756 l 1.678,0.916 c 0.163,0.24 0.377,0.444 0.63,0.596 l 0.517,0.31 c 0.078,0.047 0.165,0.071 0.248,0.106 0.136,0.157 0.291,0.299 0.474,0.409 l 0.517,0.311 c 0.363,0.218 0.786,0.316 1.202,0.277 l 3.198,1.777 c 0.213,0.438 0.584,0.793 1.056,0.981 l 0.517,0.207 c 0.039,0.016 0.081,0.022 0.121,0.036 0.266,0.246 0.618,0.479 1.097,0.678 0.312,0.129 0.607,0.166 0.859,0.166 10e-4,0 0.003,0 0.005,0 0.144,0.09 0.283,0.182 0.4,0.259 0.389,0.253 0.603,0.393 0.915,0.477 0.175,0.05 0.313,0.09 0.51,0.09 0.527,0 1.472,-0.287 4.656,-1.433 l 3.967,-1.428 c 0.794,-0.286 1.323,-1.04 1.322,-1.885 z"
   id="path1" />
<g
   id="g4">
	<path
   d="M 22.929,32.427 22.926,30.03 20.3,28.147 l -0.001,0.001 0.007,5.48 -7.839,2.65 c -0.037,0.121 0.29,0.322 0.596,0.449 0.137,0.057 0.48,-0.076 0.62,0 0.55,0.296 1.261,0.804 1.344,0.827 0.082,0.023 1.756,-0.517 3.938,-1.302 l 3.967,-1.428 z"
   id="path2" />
	<path
   d="m 19.679,27.838 -5.893,-4.135 v 5.892 c -2.774,0.862 -5.468,1.932 -8.167,2.998 l 0.517,0.31 0.517,-0.103 4.652,2.584 v 0.414 l 0.517,0.207 7.818,-2.678 z"
   id="path3" />
	<path
   d="m 14.614,13.054 c 0.157,-0.108 0.932,-0.666 1.017,-1.592 C 15.714,10.558 15.092,9.837 14.924,9.643 14.502,9.155 14.09,9.034 14.097,8.591 14.099,8.481 14.099,8.067 14.1,7.532 14.674,7.308 15.082,6.753 15.082,6.1 c 0,-0.654 -0.409,-1.209 -0.984,-1.432 0,-0.379 -0.001,-0.663 -0.001,-0.764 0.287,-0.186 0.488,-0.493 0.488,-0.861 0,-0.435 -0.267,-0.807 -0.646,-0.963 C 13.817,2.029 13.684,2 13.543,2 c 0,0 0,0 -10e-4,0 -10e-4,0 0,0 0,0 -0.077,0 -0.144,0.028 -0.216,0.044 -0.059,0.013 -0.123,0.013 -0.177,0.036 -0.38,0.156 -0.649,0.527 -0.649,0.964 0,0.355 0.188,0.653 0.459,0.841 v 0.792 c -0.561,0.23 -0.956,0.78 -0.956,1.424 0,0.644 0.395,1.194 0.956,1.424 v 1.293 c 0,0.9 1.179,1.245 0.93,2.068 -0.234,0.771 -1.345,0.516 -1.599,-0.372 -0.051,-0.07 -0.11,-0.461 -0.154,-0.458 0,0 -0.002,0 -0.004,0.002 -0.033,0.022 -0.653,0.732 -0.447,1.655 0.136,0.608 0.559,0.983 0.757,1.136 -1.689,2.997 -4.998,8.89 -5.646,10.046 L 2,24.633 v 5.582 l 2.274,1.241 0.103,0.31 0.517,0.31 8.09,-3.006 0.077,-5.987 -2.371,-1.602 -2.842,1.031 c 0.89,-1.649 5.052,-9.353 5.11,-9.353 0.065,0 0.103,9.924 0.103,9.924 l 0.724,0.619 0.104,-10.543 5.79,14.679 0.621,0.309 z"
   id="path4" />
</g>
</svg>
