<?xml version="1.0" encoding="UTF-8" standalone="no"?>
<svg
   id="Layer_1"
   version="1.1"
   viewBox="0 0 62 62"
   sodipodi:docname="poi017_b.svg"
   width="62"
   height="62"
   inkscape:version="1.3.2 (091e20e, 2023-11-25, custom)"
   xmlns:inkscape="http://www.inkscape.org/namespaces/inkscape"
   xmlns:sodipodi="http://sodipodi.sourceforge.net/DTD/sodipodi-0.dtd"
   xmlns="http://www.w3.org/2000/svg"
   xmlns:svg="http://www.w3.org/2000/svg">
  <sodipodi:namedview
     id="namedview5"
     pagecolor="#ffffff"
     bordercolor="#000000"
     borderopacity="0.25"
     inkscape:showpageshadow="2"
     inkscape:pageopacity="0.0"
     inkscape:pagecheckerboard="0"
     inkscape:deskcolor="#d1d1d1"
     inkscape:zoom="29.33871"
     inkscape:cx="30.982958"
     inkscape:cy="31"
     inkscape:window-width="3840"
     inkscape:window-height="2054"
     inkscape:window-x="2869"
     inkscape:window-y="-11"
     inkscape:window-maximized="1"
     inkscape:current-layer="Layer_1" />
  <!-- Generator: Adobe Illustrator 29.3.1, SVG Export Plug-In . SVG Version: 2.1.0 Build 151)  -->
  <defs
     id="defs1">
    <style
       id="style1">
      .st0 {
        fill: red;
      }
    </style>
  </defs>
  <path
     d="M 13,3 H 49.1 L 58.6,37.4 31,58.3 3.4,37.3 13,3 M 10.7,0 0,38.5 31,62 62,38.5 51.3,0 Z"
     id="path1" />
  <g
     id="g5">
    <path
       class="st0"
       d="m 45.2,19.7 v -0.3 c 0,0 -0.3,-0.2 -0.3,-0.2 -9.3,-4.9 -18.8,-4.9 -28.1,0 l -0.3,0.2 v 0.4 C 16.2,30.3 20.9,38 30.6,42.5 h 0.2 c 0,0.1 0.3,0 0.3,0 C 41.2,38.1 45.9,30.4 45.2,19.7 Z M 30.8,41.3 C 21.9,37 17.4,29.9 17.6,20.2 c 8.8,-4.5 17.7,-4.5 26.4,0 0.5,9.8 -3.9,17 -13.2,21.1 z"
       id="path2" />
    <path
       class="st0"
       d="m 30.8,29.6 c -2.6,0 -4.7,2.1 -4.7,4.6 0,2.5 2.1,4.7 4.7,4.7 2.6,0 4.7,-2.1 4.7,-4.7 0,-2.6 -2.1,-4.6 -4.7,-4.6 z"
       id="path3" />
    <path
       class="st0"
       d="m 37.7,19.7 c -2.6,0 -4.6,2.1 -4.6,4.7 0,2.6 2.1,4.6 4.6,4.6 2.5,0 4.7,-2.1 4.7,-4.6 0,-2.6 -2.1,-4.7 -4.7,-4.7 z"
       id="path4" />
    <path
       class="st0"
       d="m 28.5,24.3 c 0,-2.6 -2.1,-4.7 -4.7,-4.7 -2.6,0 -4.6,2.1 -4.6,4.7 0,2.6 2.1,4.6 4.6,4.6 2.6,0 4.7,-2.1 4.7,-4.6 z"
       id="path5" />
  </g>
</svg>
