<?xml version="1.0" encoding="UTF-8" standalone="no"?>
<svg
   id="Layer_1"
   version="1.1"
   viewBox="0 0 62 62"
   sodipodi:docname="poi031_b.svg"
   width="62"
   height="62"
   inkscape:version="1.3.2 (091e20e, 2023-11-25, custom)"
   xmlns:inkscape="http://www.inkscape.org/namespaces/inkscape"
   xmlns:sodipodi="http://sodipodi.sourceforge.net/DTD/sodipodi-0.dtd"
   xmlns="http://www.w3.org/2000/svg"
   xmlns:svg="http://www.w3.org/2000/svg">
  <sodipodi:namedview
     id="namedview2"
     pagecolor="#ffffff"
     bordercolor="#000000"
     borderopacity="0.25"
     inkscape:showpageshadow="2"
     inkscape:pageopacity="0.0"
     inkscape:pagecheckerboard="0"
     inkscape:deskcolor="#d1d1d1"
     inkscape:zoom="29.33871"
     inkscape:cx="30.982958"
     inkscape:cy="31"
     inkscape:window-width="3840"
     inkscape:window-height="2054"
     inkscape:window-x="2869"
     inkscape:window-y="-11"
     inkscape:window-maximized="1"
     inkscape:current-layer="Layer_1" />
  <!-- Generator: Adobe Illustrator 29.3.1, SVG Export Plug-In . SVG Version: 2.1.0 Build 151)  -->
  <defs
     id="defs1">
    <style
       id="style1">
      .st0 {
        fill: #004682;
      }
    </style>
  </defs>
  <path
     d="M 49,3 58.5,37.4 30.9,58.3 3.4,37.3 13,3 H 49.1 M 51.3,0 H 10.7 L 0,38.5 31,62 62,38.5 Z"
     id="path1" />
  <path
     class="st0"
     d="m 30.5,37 c -0.3,-0.9 -0.4,-1.2 -0.4,-2.3 0,-2.2 2.3,-3.9 2.3,-3.9 1.6,-1.4 2.6,-2.6 2.8,-3.9 0.2,-1.2 -0.3,-2.7 -0.3,-2.7 0.6,0.2 0.9,0.4 1.1,0.7 0.3,0.3 0.5,0.7 0.5,0.7 0.3,-1 0.3,-1.8 0,-2.6 -0.2,-0.8 -0.5,-1.5 -1.3,-2.2 -0.9,-0.8 -1.6,-1 -1.6,-1 0.2,0.4 0.3,1 0.3,2.2 -0.1,1.2 -0.4,1.9 -1.2,2.9 -0.7,1 -2.3,2.2 -3.1,3.5 -0.9,1.1 -1.2,2.2 -1.2,3.1 0,1.4 0.5,2.8 0.5,2.8 -0.5,-0.3 -1.2,-0.9 -1.6,-1.6 -0.5,-0.9 -0.7,-1.6 -0.7,-3.1 0,-1.2 0.5,-3.1 1.4,-4.3 0.7,-0.9 2.4,-2.6 3.1,-3.9 0.7,-1.3 0.5,-2 0.5,-2.6 0,-0.6 -0.3,-1.3 -0.3,-1.3 0.4,0 0.9,0.3 1,0.5 0.3,0.3 0.5,0.5 0.5,0.5 0,-0.4 0.1,-1.1 0,-2 C 32.5,15.1 31.9,14.3 31,13.7 30,12.9 29.2,13 29.2,13 c 0.4,0.5 0.7,1 0.8,1.8 0.1,0.8 0.1,1.6 -0.3,2.6 -0.5,1.1 -1.8,2.1 -2.7,3.1 -0.9,1 -1.8,2 -2.5,3.3 -0.8,1.6 -0.9,2.9 -0.6,4.5 0.3,1.9 1.4,3.1 1.4,3.1 -0.8,-0.3 -1.4,-0.8 -1.9,-1.2 -0.5,-0.5 -0.7,-1 -0.9,-1.5 l -5.1,3.5 v 5.2 L 31.1,49 44.9,37.4 V 35.6 L 31.2,47.1 V 45.3 L 44.9,33.8 v -1.6 l -7.5,-5 c 0.1,0.5 0.3,1.8 -0.5,3.3 -0.9,1.9 -3.1,3.5 -3.9,3.9 -0.9,0.5 -1.3,1 -1.4,1.6 0,0.3 -0.2,0.7 0,1.1 v 0 c 0.9,0.2 1.6,1 1.6,2 0,1 -0.9,2.1 -2.1,2.1 -1.2,0 -2.1,-0.9 -2.1,-2.1 0,-1.1 0.7,-2 1.6,-2.2 v 0 z"
     id="path2" />
</svg>
