<?xml version="1.0" encoding="UTF-8" standalone="no"?>
<svg
   id="Layer_1"
   version="1.1"
   viewBox="0 0 62 62"
   sodipodi:docname="poi007_b.svg"
   width="62"
   height="62"
   inkscape:version="1.3.2 (091e20e, 2023-11-25, custom)"
   xmlns:inkscape="http://www.inkscape.org/namespaces/inkscape"
   xmlns:sodipodi="http://sodipodi.sourceforge.net/DTD/sodipodi-0.dtd"
   xmlns="http://www.w3.org/2000/svg"
   xmlns:svg="http://www.w3.org/2000/svg">
  <sodipodi:namedview
     id="namedview2"
     pagecolor="#ffffff"
     bordercolor="#000000"
     borderopacity="0.25"
     inkscape:showpageshadow="2"
     inkscape:pageopacity="0.0"
     inkscape:pagecheckerboard="0"
     inkscape:deskcolor="#d1d1d1"
     inkscape:zoom="29.33871"
     inkscape:cx="30.982958"
     inkscape:cy="31"
     inkscape:window-width="3840"
     inkscape:window-height="2054"
     inkscape:window-x="2869"
     inkscape:window-y="-11"
     inkscape:window-maximized="1"
     inkscape:current-layer="Layer_1" />
  <!-- Generator: Adobe Illustrator 29.3.1, SVG Export Plug-In . SVG Version: 2.1.0 Build 151)  -->
  <defs
     id="defs1">
    <style
       id="style1">
      .st0 {
        fill: #00af6b;
      }
    </style>
  </defs>
  <path
     d="M 49,3 58.5,37.4 30.9,58.3 3.4,37.3 13,3 H 49.1 M 51.3,0 H 10.7 L 0,38.5 31,62 62,38.5 Z"
     id="path1" />
  <g
     id="g2">
    <path
       class="st0"
       d="m 56.3,37.3 -9,-14.7 h -5.7 v 10.2 c -0.7,0 -1,-0.2 -1.4,-0.4 -0.5,-0.3 -1.1,-0.6 -2.2,-0.6 -1.1,0 -1.7,0.3 -2.2,0.6 -0.4,0.2 -0.7,0.4 -1.4,0.4 -0.7,0 -1,-0.2 -1.4,-0.4 -0.5,-0.3 -1.1,-0.6 -2.2,-0.6 -1.1,0 -1.7,0.3 -2.2,0.6 -0.4,0.2 -0.7,0.4 -1.4,0.4 -0.7,0 -1,-0.2 -1.4,-0.4 -0.5,-0.3 -1.1,-0.6 -2.2,-0.6 -1.1,0 -1.7,0.3 -2.2,0.6 -0.4,0.2 -0.7,0.4 -1.4,0.4 V 22.6 h -5.7 l -9,14.7 H 20 c 1.1,0 1.7,-0.3 2.2,-0.6 0.4,-0.2 0.7,-0.4 1.4,-0.4 0.7,0 1,0.2 1.4,0.4 0.5,0.3 1.1,0.6 2.2,0.6 1.1,0 1.7,-0.3 2.2,-0.6 0.4,-0.2 0.7,-0.4 1.4,-0.4 0.7,0 1,0.2 1.4,0.4 0.5,0.3 1.1,0.6 2.2,0.6 1.1,0 1.7,-0.3 2.2,-0.6 0.4,-0.2 0.7,-0.4 1.4,-0.4 0.7,0 1,0.2 1.4,0.4 0.5,0.3 1.1,0.6 2.2,0.6 z m -16.1,-2 C 39.7,35 39.1,34.7 38,34.7 c -1.1,0 -1.7,0.3 -2.2,0.6 -0.4,0.2 -0.7,0.4 -1.4,0.4 -0.7,0 -1,-0.2 -1.4,-0.4 -0.5,-0.3 -1.1,-0.6 -2.2,-0.6 -1.1,0 -1.7,0.3 -2.2,0.6 -0.4,0.2 -0.7,0.4 -1.4,0.4 -0.7,0 -1,-0.2 -1.4,-0.4 -0.5,-0.3 -1.1,-0.6 -2.2,-0.6 -1.1,0 -1.7,0.3 -2.2,0.6 -0.4,0.2 -0.7,0.4 -1.4,0.4 v -1.4 c 1.1,0 1.7,-0.3 2.2,-0.6 0.4,-0.2 0.7,-0.4 1.4,-0.4 0.7,0 1,0.2 1.4,0.4 0.5,0.3 1.1,0.6 2.2,0.6 1.1,0 1.7,-0.3 2.2,-0.6 0.4,-0.2 0.7,-0.4 1.4,-0.4 0.7,0 1,0.2 1.4,0.4 0.5,0.3 1.1,0.6 2.2,0.6 1.1,0 1.7,-0.3 2.2,-0.6 0.4,-0.2 0.7,-0.4 1.4,-0.4 0.7,0 1,0.2 1.4,0.4 0.5,0.3 1.1,0.6 2.2,0.6 v 1.4 c -0.7,0 -1,-0.2 -1.4,-0.4 z"
       id="path2" />
    <rect
       class="st0"
       x="18.799999"
       y="14.5"
       width="21.200001"
       height="4.1999998"
       transform="rotate(-45.2,29.320142,16.573636)"
       id="rect2" />
  </g>
</svg>
