<?xml version="1.0" encoding="UTF-8" standalone="no"?>
<svg
   id="Layer_1"
   version="1.1"
   viewBox="0 0 62 62"
   sodipodi:docname="poi051_b.svg"
   width="62"
   height="62"
   inkscape:version="1.3.2 (091e20e, 2023-11-25, custom)"
   xmlns:inkscape="http://www.inkscape.org/namespaces/inkscape"
   xmlns:sodipodi="http://sodipodi.sourceforge.net/DTD/sodipodi-0.dtd"
   xmlns="http://www.w3.org/2000/svg"
   xmlns:svg="http://www.w3.org/2000/svg">
  <sodipodi:namedview
     id="namedview2"
     pagecolor="#ffffff"
     bordercolor="#000000"
     borderopacity="0.25"
     inkscape:showpageshadow="2"
     inkscape:pageopacity="0.0"
     inkscape:pagecheckerboard="0"
     inkscape:deskcolor="#d1d1d1"
     inkscape:zoom="29.33871"
     inkscape:cx="30.982958"
     inkscape:cy="31"
     inkscape:window-width="3840"
     inkscape:window-height="2054"
     inkscape:window-x="2869"
     inkscape:window-y="-11"
     inkscape:window-maximized="1"
     inkscape:current-layer="Layer_1" />
  <!-- Generator: Adobe Illustrator 29.3.1, SVG Export Plug-In . SVG Version: 2.1.0 Build 151)  -->
  <defs
     id="defs1">
    <style
       id="style1">
      .st0 {
        fill: red;
      }
    </style>
  </defs>
  <path
     d="M 13,3 H 49.1 L 58.6,37.4 31,58.3 3.4,37.3 13,3 M 10.7,0 0,38.5 31,62 62,38.5 51.3,0 Z"
     id="path1" />
  <g
     id="g2">
    <path
       class="st0"
       d="m 38.6,26 c -0.2,-0.1 -0.5,-0.2 -0.7,-0.1 l -4.7,1.4 V 7 h -4.3 v 20.3 l -4.7,-1.4 c -0.3,0 -0.5,0 -0.7,0.1 -0.4,0.3 -0.5,0.8 -0.2,1.2 l 7,10.3 c 0,0 0.1,0.2 0.2,0.2 0.2,0.1 0.4,0.2 0.6,0.2 0.2,0 0.4,0 0.6,-0.2 0,0 0.2,-0.1 0.2,-0.2 l 7,-10.3 c 0.3,-0.4 0.2,-1 -0.2,-1.2 z"
       id="path2" />
    <circle
       class="st0"
       cx="31"
       cy="47"
       r="6"
       id="circle2" />
  </g>
</svg>
