<?xml version="1.0" encoding="UTF-8" standalone="no"?>
<svg
   id="Layer_1"
   version="1.1"
   viewBox="0 0 62 62"
   sodipodi:docname="poi005_b.svg"
   width="62"
   height="62"
   inkscape:version="1.3.2 (091e20e, 2023-11-25, custom)"
   xmlns:inkscape="http://www.inkscape.org/namespaces/inkscape"
   xmlns:sodipodi="http://sodipodi.sourceforge.net/DTD/sodipodi-0.dtd"
   xmlns="http://www.w3.org/2000/svg"
   xmlns:svg="http://www.w3.org/2000/svg">
  <sodipodi:namedview
     id="namedview3"
     pagecolor="#ffffff"
     bordercolor="#000000"
     borderopacity="0.25"
     inkscape:showpageshadow="2"
     inkscape:pageopacity="0.0"
     inkscape:pagecheckerboard="0"
     inkscape:deskcolor="#d1d1d1"
     inkscape:zoom="29.33871"
     inkscape:cx="30.982958"
     inkscape:cy="31"
     inkscape:window-width="3840"
     inkscape:window-height="2054"
     inkscape:window-x="2869"
     inkscape:window-y="-11"
     inkscape:window-maximized="1"
     inkscape:current-layer="Layer_1" />
  <!-- Generator: Adobe Illustrator 29.3.1, SVG Export Plug-In . SVG Version: 2.1.0 Build 151)  -->
  <defs
     id="defs1">
    <style
       id="style1">
      .st0 {
        fill: #607c33;
      }
    </style>
  </defs>
  <path
     d="M 13,3 H 49.1 L 58.6,37.4 31,58.3 3.4,37.3 13,3 M 10.7,0 0,38.5 31,62 62,38.5 51.3,0 Z"
     id="path1" />
  <g
     id="g3">
    <path
       class="st0"
       d="M 31,42.3 C 19.3,42.3 9.5,36.6 9.5,29.8 9.5,23 19.3,17.3 31,17.3 c 11.7,0 21.5,5.7 21.5,12.5 0,6.8 -9.8,12.5 -21.5,12.5 z"
       id="path2" />
    <path
       d="m 31,18.8 c 10.8,0 20,5 20,11 0,6 -9.2,11 -20,11 -10.8,0 -20,-5 -20,-11 0,-6 9.2,-11 20,-11 m 0,-3 c -12.7,0 -23,6.3 -23,14 0,7.7 10.3,14 23,14 12.7,0 23,-6.3 23,-14 0,-7.7 -10.3,-14 -23,-14 z"
       id="path3" />
  </g>
</svg>
