<?xml version="1.0" encoding="UTF-8" standalone="no"?>
<!-- Generator: Adobe Illustrator 29.4.0, SVG Export Plug-In . SVG Version: 9.03 Build 0)  -->

<svg
   version="1.1"
   id="Layer_1"
   x="0px"
   y="0px"
   viewBox="0 0 32.175 44.3"
   xml:space="preserve"
   sodipodi:docname="poi043_c.svg"
   width="32.174999"
   height="44.299999"
   inkscape:version="1.3.2 (091e20e, 2023-11-25, custom)"
   xmlns:inkscape="http://www.inkscape.org/namespaces/inkscape"
   xmlns:sodipodi="http://sodipodi.sourceforge.net/DTD/sodipodi-0.dtd"
   xmlns="http://www.w3.org/2000/svg"
   xmlns:svg="http://www.w3.org/2000/svg"><defs
   id="defs32" /><sodipodi:namedview
   id="namedview32"
   pagecolor="#ffffff"
   bordercolor="#000000"
   borderopacity="0.25"
   inkscape:showpageshadow="2"
   inkscape:pageopacity="0.0"
   inkscape:pagecheckerboard="0"
   inkscape:deskcolor="#d1d1d1"
   inkscape:zoom="41.060949"
   inkscape:cx="16.098021"
   inkscape:cy="22.15"
   inkscape:window-width="3840"
   inkscape:window-height="2054"
   inkscape:window-x="2869"
   inkscape:window-y="-11"
   inkscape:window-maximized="1"
   inkscape:current-layer="Layer_1" />
<path
   style="fill:#ffffff"
   d="m 30.075,28.1 c 0.4,-0.5 0.6,-1.1 0.8,-1.7 0.3,-1.1 0.3,-2.1 0.2,-3 1.1,-1.7 1.2,-3.9 0.2,-5.8 -0.7,-1.2 -1.8,-2 -3,-2.5 -0.4,-0.9 -0.8,-1.8 -1.2,-2.7 -0.2,-0.4 -0.4,-0.8 -0.6,-1.2 l -0.4,-0.9 v -0.2 c 0,0 0.1,-0.2 0.2,-0.3 0.4,-0.3 0.9,-0.7 1.3,-1.3 1.1,-1.4 0.9,-3.6 -0.5,-4.8 0,-0.2 0.1,-0.5 0.1,-0.7 0,0 0,-0.2 0,-0.3 0,-1.1 -0.9,-2 -2,-2 v 0 c 0,0 0,0 -0.1,0 -0.4,0 -0.8,0.2 -1.1,0.4 -0.1,0 -0.2,0.2 -0.3,0.3 v 0 0 c 0,0.1 -0.1,0.2 -0.2,0.3 l -0.3,0.5 c -0.3,0.5 -0.7,0.9 -1,1.4 -1,1.5 -0.9,3.2 0.3,4.4 0,0.2 0,0.5 0,0.8 0,0.1 0,0.3 0,0.4 -0.1,0.1 -0.2,0.2 -0.3,0.4 -0.2,-0.4 -0.4,-0.8 -0.6,-1.2 -0.7,-1.2 -0.8,-2.5 -0.4,-3.9 0.2,-0.5 0.4,-0.9 0.8,-1.4 0.5,-0.7 0.5,-1.6 0,-2.3 v 0 0 0 c -0.4,-0.5 -1,-0.8 -1.6,-0.8 -0.6,0 -0.7,0.1 -1,0.3 v 0 0 c -0.1,0 -0.2,0.2 -0.3,0.3 -0.3,0.2 -0.6,0.4 -0.9,0.7 -0.6,0.4 -1.2,0.8 -1.7,1.3 -1.2,0.9 -2.6,2 -3.7,3.5 0,-0.9 -0.4,-1.8 -1.2,-2.4 -0.4,-0.3 -0.7,-0.5 -1.1,-0.8 -0.1,0 -0.3,-0.2 -0.5,-0.3 -0.3,-0.2 -0.7,-0.3 -1.1,-0.3 -0.4,0 -0.9,0.1 -1.2,0.4 -0.7,0.5 -0.9,1.4 -0.7,2.2 -0.6,0.6 -0.9,1.3 -1,2.1 0,1 0.4,1.9 1.1,2.5 0.4,0.3 0.8,0.6 1.1,0.8 0,0 0.1,0 0.2,0.1 -0.2,0.2 -0.3,0.5 -0.5,0.7 -0.4,0.6 -0.9,1.3 -1.3,1.9 -0.3,-0.3 -0.8,-0.5 -1.3,-0.5 v 0 0 0 c -0.5,0 -0.9,0.2 -1.3,0.5 -0.3,0.3 -0.6,0.6 -0.9,0.8 l -0.2,0.2 c -1.3,1.3 -2.1,2.7 -2.6,4.4 -0.4,1.6 -0.3,3.2 -0.1,4.4 0.3,1.9 1.2,3.7 2.5,5.1 -0.6,0.4 -1.2,1 -1.6,1.6 -1,1.6 -1.3,3.6 -0.5,5.4 0,0.2 0.2,0.3 0.3,0.5 1,1.7 2.8,2.8 4.8,2.8 2,0 1.9,-0.3 2.8,-0.7 l 2.1,-1.2 v 2.4 c 0,3.1 2.5,5.6 5.6,5.6 3.1,0 5.6,-2.5 5.6,-5.6 v -2.4 l 2.1,1.2 c 0.8,0.5 1.8,0.7 2.8,0.7 1,0 1.5,-0.2 2.1,-0.4 1.1,-0.5 2.1,-1.3 2.7,-2.3 0.5,-0.8 0.7,-1.7 0.7,-2.6 0,-0.5 0,-1.1 -0.2,-1.6 -0.3,-1.1 -0.9,-2 -1.8,-2.8 z"
   id="path1" />
<g
   id="g21">
	<g
   id="g6">
		<g
   id="g3">
			<path
   d="m 26.475,35.5 c -0.5,0 -1.1,-0.1 -1.5,-0.4 l -20.8,-12 c -1.5,-0.9 -2,-2.8 -1.1,-4.2 0.6,-1 1.6,-1.6 2.7,-1.6 1.1,0 1.1,0.1 1.5,0.4 l 20.8,12 c 1.5,0.9 2,2.8 1.1,4.2 -0.6,1 -1.6,1.6 -2.7,1.6 z"
   id="path2" />
			<path
   d="m 5.675,17.7 v 0 c 0.5,0 0.9,0.1 1.3,0.4 l 20.8,12 c 1.3,0.7 1.7,2.4 1,3.6 -0.5,0.8 -1.4,1.3 -2.3,1.3 -0.9,0 -0.9,-0.1 -1.3,-0.4 L 4.375,22.7 c -1.3,-0.7 -1.7,-2.4 -1,-3.6 0.5,-0.8 1.4,-1.3 2.3,-1.3 m 0,-1 c -1.2,0 -2.4,0.6 -3.1,1.8 v 0 c -1,1.7 -0.4,3.9 1.3,4.9 l 20.8,12 c 0.6,0.3 1.2,0.5 1.8,0.5 1.2,0 2.4,-0.6 3.1,-1.8 v 0 c 1,-1.7 0.4,-3.9 -1.3,-4.9 l -20.8,-12 c -0.6,-0.3 -1.2,-0.5 -1.8,-0.5 z"
   id="path3" />
		</g>
		<g
   id="g5">
			<path
   style="fill:#ffffff"
   d="m 26.475,35.5 c -0.5,0 -1.1,-0.1 -1.5,-0.4 -0.7,-0.4 -1.2,-1.1 -1.4,-1.9 -0.2,-0.8 -0.1,-1.6 0.3,-2.4 0.6,-1 1.6,-1.6 2.7,-1.6 1.1,0 1.1,0.1 1.5,0.4 1.5,0.9 2,2.8 1.1,4.2 -0.6,1 -1.6,1.6 -2.7,1.6 z"
   id="path4" />
			<path
   d="m 26.475,29.7 v 0 c 0.5,0 0.9,0.1 1.3,0.4 1.3,0.7 1.7,2.4 1,3.6 -0.5,0.8 -1.4,1.3 -2.3,1.3 -0.9,0 -0.9,-0.1 -1.3,-0.4 -1.3,-0.7 -1.7,-2.4 -1,-3.6 0.5,-0.8 1.4,-1.3 2.3,-1.3 m 0,-0.9 c -1.2,0 -2.4,0.6 -3.1,1.8 -1,1.7 -0.4,3.9 1.3,4.9 0.6,0.3 1.2,0.5 1.8,0.5 1.2,0 2.4,-0.6 3.1,-1.8 1,-1.7 0.4,-3.9 -1.3,-4.9 -0.6,-0.3 -1.2,-0.5 -1.8,-0.5 z"
   id="path5" />
		</g>
	</g>
	<g
   id="g10">
		<g
   id="g7">
			<path
   d="m 5.675,35.5 c -1.1,0 -2.1,-0.6 -2.7,-1.6 -0.9,-1.5 -0.3,-3.4 1.1,-4.2 l 20.8,-12 c 0.5,-0.3 1,-0.4 1.5,-0.4 1.1,0 2.1,0.6 2.7,1.6 0.9,1.5 0.3,3.4 -1.1,4.2 l -20.8,12 c -0.5,0.3 -1,0.4 -1.5,0.4 z"
   id="path6" />
			<path
   d="m 26.475,17.7 c 0.9,0 1.8,0.5 2.3,1.3 0.7,1.3 0.3,2.9 -1,3.6 l -20.8,12 c -0.4,0.2 -0.9,0.4 -1.3,0.4 -0.9,0 -1.8,-0.5 -2.3,-1.3 -0.7,-1.3 -0.3,-2.9 1,-3.6 l 20.8,-12 c 0.4,-0.2 0.9,-0.4 1.3,-0.4 m 0,-0.9 c -0.6,0 -1.2,0.2 -1.8,0.5 l -20.7,12 c -1.7,1 -2.3,3.2 -1.3,4.9 v 0 c 0.7,1.1 1.9,1.8 3.1,1.8 1.2,0 1.2,-0.2 1.8,-0.5 l 20.8,-12 c 1.7,-1 2.3,-3.2 1.3,-4.9 v 0 c -0.7,-1.1 -1.9,-1.8 -3.1,-1.8 v 0 z"
   id="path7" />
		</g>
		<g
   id="g9">
			<path
   style="fill:#ffffff"
   d="m 5.675,35.5 c -1.1,0 -2.1,-0.6 -2.7,-1.6 -0.9,-1.5 -0.3,-3.4 1.1,-4.2 0.5,-0.3 1,-0.4 1.5,-0.4 1.1,0 2.1,0.6 2.7,1.6 0.4,0.7 0.5,1.6 0.3,2.4 -0.2,0.8 -0.7,1.5 -1.4,1.9 -0.5,0.3 -1,0.4 -1.5,0.4 v 0 z"
   id="path8" />
			<path
   d="m 5.675,29.7 c 0.9,0 1.8,0.5 2.3,1.3 0.7,1.3 0.3,2.9 -1,3.6 -0.4,0.2 -0.9,0.4 -1.3,0.4 -0.9,0 -1.8,-0.5 -2.3,-1.3 -0.7,-1.3 -0.3,-2.9 1,-3.6 0.4,-0.2 0.9,-0.4 1.3,-0.4 m 0,-0.9 c -0.6,0 -1.2,0.2 -1.8,0.5 -1.7,1 -2.3,3.2 -1.3,4.9 0.7,1.1 1.9,1.8 3.1,1.8 1.2,0 1.2,-0.2 1.8,-0.5 1.7,-1 2.3,-3.2 1.3,-4.9 -0.7,-1.1 -1.9,-1.8 -3.1,-1.8 z"
   id="path9" />
		</g>
	</g>
	<g
   id="g14">
		<g
   id="g11">
			<path
   d="m 16.075,41.5 c -1.7,0 -3.1,-1.4 -3.1,-3.1 v -24 c 0,-1.7 1.4,-3.1 3.1,-3.1 1.7,0 3.1,1.4 3.1,3.1 v 24 c 0,1.7 -1.4,3.1 -3.1,3.1 z"
   id="path10" />
			<path
   d="m 16.075,11.7 c 1.5,0 2.7,1.2 2.7,2.7 v 24 c 0,1.5 -1.2,2.7 -2.7,2.7 -1.5,0 -2.7,-1.2 -2.7,-2.7 v -24 c 0,-1.5 1.2,-2.7 2.7,-2.7 m 0,-0.9 c -2,0 -3.6,1.6 -3.6,3.6 v 24 c 0,2 1.6,3.6 3.6,3.6 2,0 3.6,-1.6 3.6,-3.6 v -24 c 0,-2 -1.6,-3.6 -3.6,-3.6 z"
   id="path11" />
		</g>
		<g
   id="g13">
			<path
   style="fill:#ffffff"
   d="m 16.075,41.5 c -1.7,0 -3.1,-1.4 -3.1,-3.1 0,-1.7 1.4,-3.1 3.1,-3.1 1.7,0 3.1,1.4 3.1,3.1 0,1.7 -1.4,3.1 -3.1,3.1 z"
   id="path12" />
			<path
   d="m 16.075,35.7 c 1.5,0 2.7,1.2 2.7,2.7 0,1.5 -1.2,2.7 -2.7,2.7 -1.5,0 -2.7,-1.2 -2.7,-2.7 0,-1.5 1.2,-2.7 2.7,-2.7 m 0,-0.9 v 0 c -2,0 -3.6,1.6 -3.6,3.6 0,2 1.6,3.6 3.6,3.6 2,0 3.6,-1.6 3.6,-3.6 0,-2 -1.6,-3.6 -3.6,-3.6 z"
   id="path13" />
		</g>
	</g>
	<g
   id="g20">
		<g
   id="g15">
			<path
   style="fill:#ffff00"
   d="m 25.875,5.3 c -0.6,-0.5 -0.8,-1.1 -0.7,-1.8 0,-0.2 0.1,-0.4 0.2,-0.7 0,0 -0.1,0.1 -0.1,0.2 -0.4,0.6 -0.9,1.2 -1.3,1.8 -0.5,0.7 -0.4,1.4 0.2,2 0.4,0.4 0.6,0.8 0.5,1.3 0,0.2 -0.1,0.3 -0.1,0.6 0.5,-0.5 1.1,-0.8 1.5,-1.3 0.5,-0.6 0.4,-1.5 -0.2,-2 z"
   id="path14" />
			<path
   style="fill:#ffff00"
   d="m 10.275,5 c -0.4,-0.3 -0.9,-0.6 -1.4,-1 0,0.2 0,0.2 0.1,0.3 0.3,0.7 0,1.2 -0.5,1.7 -0.6,0.4 -0.6,1.3 0,1.7 0.4,0.3 0.9,0.6 1.3,0.9 0,0 0,0 0.1,0 0,0 0,0 0,-0.1 -0.3,-0.7 0,-1.3 0.6,-1.8 0.6,-0.4 0.5,-1.2 0,-1.7 z"
   id="path15" />
		</g>
		<path
   style="fill:#fbe943"
   d="M 20.475,1.9 Z"
   id="path16" />
		<path
   style="fill:#f6bd16"
   d="m 25.375,28.7 c 1.6,0 3.1,-1.3 3.6,-2.9 0.4,-1.3 0,-2.7 0.2,-4 -0.5,0.7 -1,1.3 -1.5,1.8 -0.6,0.6 -1.7,1.2 -2,1.2 0,0 0,-0.1 0.1,-0.2 1.8,-2.8 2,-5.7 0.8,-8.7 -0.6,-1.3 -1.2,-2.6 -1.8,-4 -0.2,-0.5 -0.4,-0.9 -0.6,-1.4 -0.1,0.7 -0.2,1.3 -0.2,2 -0.1,1.8 -0.9,3.2 -2.5,4.2 -0.5,0.3 -0.9,0.6 -1.5,0.6 0.1,-0.4 0.4,-0.8 0.6,-1.2 0.4,-0.8 0.7,-1.7 0.7,-2.6 0,-1.5 -0.4,-2.9 -1.1,-4.2 -1,-1.8 -1.2,-3.7 -0.5,-5.6 0.2,-0.7 0.6,-1.3 1,-1.9 v 0 c 0,0 -0.2,0.1 -0.3,0.2 -0.9,0.6 -1.8,1.3 -2.7,1.9 -1.3,0.9 -2.5,1.9 -3.4,3.2 -1.7,2.4 -2.4,5.1 -2,8.1 0,0.4 0.1,0.8 0.2,1.3 v 0 0 c 0,0 0,0 -0.1,0 -1.4,-0.5 -2.4,-2.1 -2.1,-3.6 0,-0.5 0.2,-0.9 0.2,-1.4 0,-0.3 0.1,-0.5 0.1,-0.9 l -0.1,0.1 c -0.8,1.3 -1.7,2.5 -2.5,3.8 -0.7,1.1 -1.1,2.3 -1.3,3.6 0,0.5 0,1 0,1.6 -1.1,-1.8 -1.4,-3.6 -1.1,-5.6 -0.3,0.3 -0.6,0.6 -1,0.9 -1,1 -1.7,2.1 -2.1,3.5 -0.3,1.2 -0.3,2.4 0,3.6 0.5,3.4 3.5,6.2 7,6.4 1.5,0 14.1,0 16.2,0 z"
   id="path17" />
		<path
   style="fill:#fefefe"
   d="M 12.275,16.6 Z"
   id="path18" />
		<path
   style="fill:#fefefe"
   d="M 19.875,17.5 Z"
   id="path19" />
		<path
   style="fill:#f7931e"
   d="m 22.675,24 c -0.7,-0.9 -0.7,-1.7 0,-2.7 0.1,-0.1 0.2,-0.3 0.3,-0.5 -0.9,0.1 -1.6,0.6 -2.1,1.3 -0.5,0.7 -0.7,1.5 -0.6,2.4 -0.7,-0.4 -1.3,-0.7 -1.7,-1.4 -0.3,-0.6 -0.3,-1.3 -0.2,-2 0.2,-1 -0.6,-2.2 -1.5,-2.5 -0.8,-0.3 -1.5,-0.3 -2.3,-0.5 0,0 -0.2,0 -0.3,0 0.3,0.4 0.5,0.9 0.7,1.3 0.3,1.3 0,2.4 -0.8,3.4 -0.3,0.4 -0.7,0.8 -1,1.3 0,0.2 -0.2,0 -0.2,0 -0.4,-0.5 -0.7,-1.1 -0.9,-1.7 0,-0.3 -0.1,-0.6 -0.2,-0.9 -0.2,0.1 -0.2,0.3 -0.3,0.5 -0.4,0.6 -0.8,1.2 -0.9,1.9 -0.3,1.3 0,2.5 0.8,3.5 0.6,0.7 1.4,1.2 2.3,1.4 1.8,0.1 3.5,0 5.3,0 2.1,-0.3 3.4,-1.8 3.7,-2.5 0.3,-0.7 0.4,-1.6 0,-2.3 z"
   id="path20" />
	</g>
</g>
<g
   id="g32">
	<path
   d="m 28.275,29.3 -1.5,-0.9 c -0.4,0.2 -0.9,0.3 -1.3,0.3 -1,0 -4.2,0 -7.5,0 -1.2,0 -2.4,0 -3.6,0 -2.5,0 -4.6,0 -5.1,0 -1,0 -2,-0.3 -2.9,-0.8 l -2.3,1.3 c -1.7,1 -2.3,3.2 -1.3,4.9 1,1.7 3.2,2.3 4.9,1.3 l 5.1,-2.9 v 5.8 c 0,2 1.6,3.6 3.6,3.6 2,0 3.6,-1.6 3.6,-3.6 v -5.8 l 5.1,2.9 c 1.7,1 3.9,0.4 4.9,-1.3 1,-1.7 0.4,-3.9 -1.3,-4.9 z m -21.6,4.8 c -1,0.6 -2.2,0.2 -2.7,-0.7 -0.5,-0.9 -0.2,-2.2 0.7,-2.7 1,-0.6 2.2,-0.2 2.7,0.7 0.6,1 0.2,2.2 -0.7,2.7 z m 9.4,6.2 c -1.1,0 -2,-0.9 -2,-2 0,-1.1 0.9,-2 2,-2 1.1,0 2,0.9 2,2 0,1.1 -0.9,2 -2,2 z m 12.1,-6.9 c -0.6,1 -1.8,1.3 -2.7,0.7 -1,-0.6 -1.3,-1.8 -0.7,-2.7 0.6,-1 1.8,-1.3 2.7,-0.7 1,0.6 1.3,1.8 0.7,2.7 z"
   id="path21" />
	<path
   d="m 6.475,18.3 c 0,-0.5 0.2,-0.9 0.3,-1.4 -0.5,-0.1 -1,-0.2 -1.5,-0.1 0.1,1 0.5,2.1 1.1,3.1 0,-0.6 0,-1.1 0,-1.6 z"
   id="path22" />
	<path
   style="fill:#ffffff"
   d="m 27.475,30.6 c -1,-0.6 -2.2,-0.2 -2.7,0.7 -0.6,1 -0.2,2.2 0.7,2.7 1,0.6 2.2,0.2 2.7,-0.7 0.5,-0.9 0.2,-2.2 -0.7,-2.7 z"
   id="path23" />
	<path
   d="m 25.675,24.7 c 0,0 0,0 -0.1,0.2 0.3,0 1.4,-0.6 2,-1.2 0.6,-0.5 1.1,-1.1 1.5,-1.8 0,0.3 0,0.6 0,0.9 1,-1.1 1.2,-2.8 0.5,-4.1 -0.6,-1.1 -1.7,-1.7 -2.8,-1.8 0.9,2.7 0.5,5.4 -1.1,7.9 z"
   id="path24" />
	<path
   style="fill:#ffffff"
   d="m 4.675,30.6 c -1,0.6 -1.3,1.8 -0.7,2.7 0.6,0.9 1.8,1.3 2.7,0.7 1,-0.6 1.3,-1.8 0.7,-2.7 -0.6,-1 -1.8,-1.3 -2.7,-0.7 z"
   id="path25" />
	<circle
   style="fill:#ffffff"
   cx="16.075001"
   cy="38.299999"
   r="2"
   id="circle25" />
	<path
   style="fill:#ffff00"
   d="m 24.675,8.1 c 0,0.2 -0.1,0.3 -0.1,0.6 0.5,-0.5 1.1,-0.8 1.5,-1.3 0.5,-0.6 0.4,-1.5 -0.2,-2 -0.6,-0.5 -0.8,-1.1 -0.7,-1.8 0,-0.2 0.1,-0.4 0.2,-0.7 0,0 -0.1,0.1 -0.1,0.2 -0.4,0.6 -0.9,1.2 -1.3,1.8 -0.5,0.7 -0.4,1.4 0.2,2 0.4,0.4 0.6,0.8 0.5,1.3 z"
   id="path26" />
	<path
   style="fill:#ffff00"
   d="m 9.575,8.6 c 0,0 0,0 0.1,0 0,0 0,0 0,-0.1 -0.3,-0.7 0,-1.3 0.6,-1.8 0.6,-0.4 0.5,-1.2 0,-1.7 -0.4,-0.3 -0.9,-0.6 -1.4,-1 0,0.2 0,0.2 0.1,0.3 0.3,0.7 0,1.2 -0.5,1.7 -0.6,0.4 -0.6,1.3 0,1.7 0.4,0.3 0.9,0.6 1.3,0.9 z"
   id="path27" />
	<path
   style="fill:#fbe943"
   d="M 20.575,1.9 Z"
   id="path28" />
	<path
   style="fill:#f6bd16"
   d="m 14.275,28.8 c -0.2,0 -0.4,0 -0.6,0 -0.9,-0.2 -1.7,-0.7 -2.3,-1.4 -0.8,-1 -1.1,-2.2 -0.8,-3.5 0.2,-0.7 0.6,-1.3 0.9,-1.9 0.1,-0.2 0.2,-0.4 0.3,-0.5 0,0.3 0,0.6 0.2,0.9 0.2,0.6 0.4,1.2 0.9,1.7 0,0 0.2,0.2 0.2,0 0.2,-0.5 0.6,-0.9 1,-1.3 0.8,-1 1.1,-2.1 0.8,-3.4 -0.1,-0.5 -0.4,-0.9 -0.7,-1.3 0.1,0 0.2,0 0.3,0 0.8,0.2 1.6,0.3 2.3,0.5 0.9,0.3 1.7,1.5 1.5,2.5 -0.1,0.7 -0.1,1.3 0.2,2 0.4,0.7 1,1 1.7,1.4 -0.1,-0.9 0,-1.7 0.6,-2.4 0.5,-0.7 1.2,-1.1 2.1,-1.3 0,0.2 -0.2,0.3 -0.3,0.5 -0.7,0.9 -0.7,1.8 0,2.7 0.5,0.6 0.4,1.6 0,2.3 -0.3,0.7 -1.6,2.2 -3.7,2.5 -0.4,0 -0.7,0 -1.1,0 3.3,0 6.5,0 7.5,0 0.5,0 0.9,-0.1 1.3,-0.3 1,-0.5 1.9,-1.4 2.2,-2.5 0.3,-1 0.2,-2.1 0.2,-3.1 0,-0.3 0,-0.6 0,-0.9 -0.5,0.7 -1,1.3 -1.5,1.8 -0.6,0.6 -1.7,1.2 -2,1.2 0,0 0,-0.1 0.1,-0.2 1.6,-2.5 2,-5.1 1.1,-7.9 0,-0.3 -0.2,-0.6 -0.3,-0.8 -0.6,-1.3 -1.2,-2.6 -1.8,-4 -0.2,-0.5 -0.4,-0.9 -0.6,-1.4 -0.1,0.7 -0.2,1.3 -0.2,2 -0.1,1.8 -0.9,3.2 -2.5,4.2 -0.5,0.3 -0.9,0.6 -1.5,0.6 0.1,-0.4 0.4,-0.8 0.6,-1.2 0.4,-0.8 0.7,-1.7 0.7,-2.6 0,-1.5 -0.4,-2.9 -1.1,-4.2 -1,-1.8 -1.2,-3.7 -0.5,-5.6 0.2,-0.7 0.6,-1.3 1,-1.9 v 0 c 0,0 -0.2,0.1 -0.3,0.2 -0.9,0.6 -1.8,1.3 -2.7,1.9 -1.3,0.9 -2.5,1.9 -3.4,3.2 -1.7,2.4 -2.4,5.1 -2,8.1 0,0.4 0.1,0.8 0.2,1.3 v 0 0 c 0,0 0,0 -0.1,0 -1.4,-0.5 -2.4,-2.1 -2.1,-3.6 0,-0.5 0.2,-0.9 0.2,-1.4 0,-0.3 0.1,-0.5 0.1,-0.9 l -0.1,0.1 c -0.8,1.3 -1.7,2.5 -2.5,3.8 -0.5,0.7 -0.8,1.5 -1,2.3 -0.1,0.4 -0.2,0.9 -0.3,1.4 0,0.5 0,1 0,1.6 -0.6,-1 -1,-2 -1.1,-3.1 -0.1,-0.8 -0.1,-1.6 0,-2.5 -0.3,0.3 -0.6,0.6 -1,0.9 -1,1 -1.7,2.1 -2.1,3.5 -0.3,1.2 -0.3,2.4 0,3.6 0.3,2.4 1.9,4.5 4,5.6 0.9,0.5 1.9,0.7 2.9,0.8 0.6,0 2.6,0 5.1,0 z m 5.6,-11.3 z"
   id="path29" />
	<path
   style="fill:#fefefe"
   d="M 12.275,16.6 Z"
   id="path30" />
	<path
   style="fill:#fefefe"
   d="M 19.875,17.5 Z"
   id="path31" />
	<path
   style="fill:#f7931e"
   d="m 22.775,26.3 c 0.3,-0.7 0.4,-1.6 0,-2.3 -0.7,-0.9 -0.7,-1.7 0,-2.7 0.1,-0.1 0.2,-0.3 0.3,-0.5 -0.9,0.1 -1.6,0.6 -2.1,1.3 -0.5,0.7 -0.7,1.5 -0.6,2.4 -0.7,-0.4 -1.4,-0.7 -1.7,-1.4 -0.3,-0.6 -0.3,-1.3 -0.2,-2 0.2,-1 -0.6,-2.2 -1.5,-2.5 -0.8,-0.3 -1.5,-0.3 -2.3,-0.5 0,0 -0.2,0 -0.3,0 0.3,0.4 0.5,0.9 0.7,1.3 0.3,1.3 0,2.4 -0.8,3.4 -0.3,0.4 -0.7,0.8 -1,1.3 0,0.2 -0.2,0 -0.2,0 -0.4,-0.5 -0.7,-1.1 -0.9,-1.7 0,-0.3 -0.1,-0.6 -0.2,-0.9 -0.2,0.1 -0.2,0.3 -0.3,0.5 -0.4,0.6 -0.8,1.2 -0.9,1.9 -0.3,1.3 0,2.5 0.8,3.5 0.6,0.7 1.4,1.2 2.3,1.4 0.2,0 0.4,0 0.6,0 1.2,0 2.4,0 3.6,0 0.4,0 0.7,0 1.1,0 2.1,-0.3 3.4,-1.8 3.7,-2.5 z"
   id="path32" />
</g>
</svg>
