<?xml version="1.0" encoding="UTF-8" standalone="no"?>
<!-- Generator: Adobe Illustrator 29.4.0, SVG Export Plug-In . SVG Version: 9.03 Build 0)  -->

<svg
   version="1.1"
   id="Layer_1"
   x="0px"
   y="0px"
   viewBox="0 0 36.965577 43"
   xml:space="preserve"
   sodipodi:docname="poi020_c.svg"
   width="36.965576"
   height="43"
   inkscape:version="1.3.2 (091e20e, 2023-11-25, custom)"
   xmlns:inkscape="http://www.inkscape.org/namespaces/inkscape"
   xmlns:sodipodi="http://sodipodi.sourceforge.net/DTD/sodipodi-0.dtd"
   xmlns="http://www.w3.org/2000/svg"
   xmlns:svg="http://www.w3.org/2000/svg"><defs
   id="defs6" /><sodipodi:namedview
   id="namedview6"
   pagecolor="#ffffff"
   bordercolor="#000000"
   borderopacity="0.25"
   inkscape:showpageshadow="2"
   inkscape:pageopacity="0.0"
   inkscape:pagecheckerboard="0"
   inkscape:deskcolor="#d1d1d1"
   inkscape:zoom="42.302326"
   inkscape:cx="18.485981"
   inkscape:cy="21.5"
   inkscape:window-width="3840"
   inkscape:window-height="2054"
   inkscape:window-x="2869"
   inkscape:window-y="-11"
   inkscape:window-maximized="1"
   inkscape:current-layer="Layer_1" />
<path
   style="fill:#ffffff"
   d="m 23.515102,7 v 0 c -0.5,0 -1,0.1 -1.5,0.3 0.6,-0.8 1,-1.8 1,-2.8 0,-2.5 -2,-4.5 -4.5,-4.5 -2.5,0 -4.5,2 -4.5,4.5 0,2.5 0.8,2.2 2,2.4 l -0.9,0.4 c -0.5,-0.2 -1,-0.4 -1.5,-0.4 C 6.6151015,7 0.81510153,12.2 0.01510153,19 c -0.1,1.3 0.3,2.6 1.09999997,3.5 0.8,0.9 2,1.5 3.3,1.5 v 14.5 c 0,2.5 2,4.5 4.5,4.5 H 28.015102 c 2.5,0 4.5,-2 4.5,-4.5 V 24 c 1.3,0 2.5,-0.6 3.3,-1.5 0.9,-1 1.3,-2.2 1.1,-3.5 -0.8,-6.8 -6.5,-12 -13.5,-12 z"
   id="path1" />
<g
   id="g4"
   transform="translate(1.0153147e-4)">
	<path
   style="fill:none"
   d="m 18.515,13.5 c 1.7,0 3.1,-1.2 3.4,-2.8 l -3.4,-1.6 -3.4,1.6 c 0.3,1.6 1.7,2.8 3.4,2.8 z"
   id="path2" />
	<path
   style="fill:none"
   d="m 24.715,12.1 c -0.9,2.6 -3.3,4.4 -6.2,4.4 -2.9,0 -5.3,-1.8 -6.2,-4.4 -3.7,0.5 -6.6,3.3 -7.3,6.9 h 1.9 c 1.4,0 2.5,1.1 2.5,2.5 V 38 h 18.1 V 21.5 c 0,-1.4 1.1,-2.5 2.5,-2.5 h 1.9 c -0.7,-3.7 -3.6,-6.4 -7.3,-6.9 z"
   id="path3" />
	<path
   style="fill:#0056a4"
   d="M 35.015,19.2 C 34.315,13.4 29.415,9 23.515,9 v 0 c -0.5,0 -1,0.3 -1.2,0.7 l -3.2,-1.5 V 7 c 1.1,-0.2 2,-1.2 2,-2.5 0,-1.3 -1.1,-2.5 -2.5,-2.5 -1.4,0 -2.5,1.1 -2.5,2.5 0,1.4 0.2,0.5 0.5,0.5 0.3,0 0.5,-0.2 0.5,-0.5 0,-0.8 0.7,-1.5 1.5,-1.5 0.8,0 1.5,0.7 1.5,1.5 0,0.8 -0.7,1.5 -1.5,1.5 -0.8,0 -0.5,0.2 -0.5,0.5 v 1.7 l -3.2,1.5 c -0.3,-0.4 -0.8,-0.7 -1.3,-0.7 -5.9,0 -10.8,4.4 -11.5,10.2 0,0.7 0.1,1.4 0.6,2 0.5,0.5 1.2,0.8 1.9,0.8 h 2 v 16.5 c 0,1.4 1.1,2.5 2.5,2.5 h 19.1 c 1.4,0 2.5,-1.1 2.5,-2.5 V 22 h 2 c 0.7,0 1.4,-0.3 1.9,-0.8 0.5,-0.5 0.7,-1.2 0.6,-2 z m -16.5,-10.1 3.4,1.6 c -0.3,1.6 -1.7,2.8 -3.4,2.8 -1.7,0 -3.1,-1.2 -3.4,-2.8 z m 11.5,9.9 c -1.4,0 -2.5,1.1 -2.5,2.5 V 38 h -18 V 21.5 c 0,-1.4 -1.1,-2.5 -2.5,-2.5 h -1.9 c 0.6,-3.6 3.6,-6.4 7.3,-6.9 0.9,2.6 3.3,4.4 6.2,4.4 2.9,0 5.3,-1.8 6.2,-4.4 3.7,0.5 6.6,3.3 7.3,6.9 h -1.9 z"
   id="path4" />
</g>
<g
   id="g6"
   transform="translate(1.0153147e-4)">
	<polyline
   style="fill:none"
   points="13.615,10.8 18.515,8.5 23.615,10.9  "
   id="polyline4" />
	<path
   style="fill:none"
   d="m 16.515,4.5 c 0,-1.1 0.9,-2 2,-2 1.1,0 2,0.9 2,2 0,1.1 -0.9,2 -2,2 v 2"
   id="path5" />
	<path
   style="fill:none"
   d="m 23.515,10.5 v 0 c -0.3,2.5 -2.4,4.5 -5,4.5 -2.6,0 -4.7,-2 -5,-4.5 v 0 c -5.2,0 -9.4,3.9 -10,8.9 0,0.6 0.4,1.1 1,1.1 h 2.4 c 0.6,0 1,0.4 1,1 v 17 c 0,0.6 0.4,1 1,1 h 19.1 c 0.6,0 1,-0.4 1,-1 v -17 c 0,-0.6 0.4,-1 1,-1 h 2.4 c 0.6,0 1.1,-0.5 1,-1.1 -0.6,-5 -4.8,-8.9 -10,-8.9 z"
   id="path6" />
</g>
</svg>
