<?xml version="1.0" encoding="UTF-8" standalone="no"?>
<!-- Generator: Adobe Illustrator 29.4.0, SVG Export Plug-In . SVG Version: 9.03 Build 0)  -->

<svg
   version="1.1"
   id="Layer_1"
   x="0px"
   y="0px"
   viewBox="0 0 44.018886 35.1"
   xml:space="preserve"
   sodipodi:docname="poi028_c.svg"
   width="44.018887"
   height="35.099998"
   inkscape:version="1.3.2 (091e20e, 2023-11-25, custom)"
   xmlns:inkscape="http://www.inkscape.org/namespaces/inkscape"
   xmlns:sodipodi="http://sodipodi.sourceforge.net/DTD/sodipodi-0.dtd"
   xmlns="http://www.w3.org/2000/svg"
   xmlns:svg="http://www.w3.org/2000/svg"><defs
   id="defs5" /><sodipodi:namedview
   id="namedview5"
   pagecolor="#ffffff"
   bordercolor="#000000"
   borderopacity="0.25"
   inkscape:showpageshadow="2"
   inkscape:pageopacity="0.0"
   inkscape:pagecheckerboard="0"
   inkscape:deskcolor="#d1d1d1"
   inkscape:zoom="51.823364"
   inkscape:cx="22.017096"
   inkscape:cy="17.549999"
   inkscape:window-width="3840"
   inkscape:window-height="2054"
   inkscape:window-x="2869"
   inkscape:window-y="-11"
   inkscape:window-maximized="1"
   inkscape:current-layer="Layer_1" />
<path
   style="fill:#ffffff"
   d="m 37.28166,2.7 v 0 c -0.4,-1 -1.4,-2 -2.8,-2.4 -0.4,-0.1 -0.8,-0.2 -1.2,-0.2 -0.9,0 -1.8,0.3 -2.7,0.9 -1.6,1 -2.2,2.3 -2.3,3.2 v 0.6 c -0.4,-0.3 -1,-0.5 -1.7,-0.7 -1.4,-0.3 -3,-0.4 -4,-0.4 -1,0 -2.9,0 -4.1,0.4 -1.3,0.5 -1.9,1.2 -2.7,2.2 -0.2,0 -0.4,0 -0.5,-0.1 0.2,-0.6 0.3,-1.3 0.1,-2.1 -0.2,-0.9 -0.7,-2.2 -2.3,-3.2 -0.9,-0.6 -1.8,-0.9 -2.7,-0.9 -0.8999998,0 -0.7999998,0 -1.0999998,0.2 -1.8,0.5 -2.6,1.9 -2.8,2.3 v 0 c -2.3,5.1 -5,10.7 -5.69999999,11.9 -1.7,3.2 -0.3,4.7 1.09999999,5.9 0,0 0.2,0.2 0.3,0.3 0.9,0.8 2.1,1.7 3.6,1.7 1.5,0 0.4,0 0.5,0 h 0.2 c -0.2,1.3 0,2.8 0.8,3.8 0.2,0.2 0.3,0.4 0.5,0.5 V 27 c 0.2,1.1 1,2.1 2.1,2.7 0.1999998,0 0.2999998,0.2 0.4999998,0.2 0.3,0.9 1,1.7 1.8,2.3 0.7,0.5 1.5,0.7 2.3,0.7 v 0 c 0.2,0.2 0.3,0.3 0.4,0.3 0.7,0.6 1.6,0.9 2.6,0.9 1,0 1.6,-0.2 2.4,-0.6 0.5,0.3 1,0.7 1.7,1 0.7,0.4 1.5,0.6 2.2,0.6 0.7,0 1.3,0 1.9,-0.4 1,-0.5 1.7,-1.3 2.2,-2.1 0.5,0 0.9,-0.2 1.4,-0.4 1,-0.5 1.7,-1.3 2.1,-2.3 0.5,-0.2 1,-0.4 1.4,-0.8 0.6,-0.5 1.1,-1.3 1.3,-2.2 0.6,-0.2 1.2,-0.6 1.6,-1.1 1,-1.2 1,-2.7 0.7,-4 v 0 c 0.5,0.3 1,0.5 1.4,0.5 h 0.5 c 1.5,0 2.7,-0.9 3.6,-1.7 0,0 0.2,-0.2 0.3,-0.3 1.4,-1.2 2.7,-2.7 1.1,-5.9 -0.8,-1.6 -4.9,-10.1 -5.7,-11.9 0,0 -0.3,0.2 -0.3,0.2 z"
   id="path1" />
<g
   id="g3"
   transform="translate(-3.3978591e-4)">
	<path
   style="fill:#ffffff"
   d="m 41.282,15.5 c -0.9,-1.7 -5.7,-11.9 -5.8,-12 0,-0.1 -0.5,-1 -1.5,-1.3 -0.7,-0.2 -1.5,0 -2.3,0.5 -0.8,0.5 -1.3,1.2 -1.4,1.9 -0.2,0.9 0.2,1.6 0.4,1.8 0,0.1 0.2,0.5 0.5,1.1 -0.8,0.2 -1.7,0.2 -2.5,0 -0.3,-0.1 -0.5,-0.3 -0.8,-0.5 -0.4,-0.3 -0.9,-0.7 -1.7,-0.8 -2.6,-0.6 -6.2,-0.3 -7,0 -0.9,0.3 -1.3,0.8 -2.3,2.2 0,0.1 -0.2,0.3 -0.3,0.4 -0.6,-0.2 -1.8,-0.5 -2.3,-0.6 -0.2,0 -0.9,-0.6 -1.5,-1.2 0.1,-0.3 0.2,-0.4 0.2,-0.5 0.1,-0.2 0.5,-0.9 0.4,-1.8 -0.1,-0.7 -0.6,-1.4 -1.4,-1.9 -0.8,-0.5 -1.6,-0.7 -2.3,-0.5 -1,0.3 -1.5,1.2 -1.5,1.3 0,0.1 -4.8,10.2 -5.8,12 -1,1.9 -0.5,2.5 0.6,3.4 0.1,0 0.2,0.2 0.3,0.3 0.6,0.6 1.4,1.2 2.3,1.2 0.9,0 0.2,0 0.2,0 0.5,0 0.9,-0.4 1.3,-0.9 0,0 0.2,-0.3 0.3,-0.6 0.1,0.3 0.2,0.5 0.3,0.8 0,0.8 0.6,1.3 1,1.7 -0.5,1.1 -0.7,2.7 0,3.5 0.3,0.3 0.7,0.6 1.1,0.7 -0.1,0.3 -0.2,0.7 -0.1,1.2 0,0.4 0.3,1 1.1,1.4 0.4,0.2 0.7,0.3 1.1,0.3 0.4,0 0,0 0.1,0 0,0.8 0.3,1.7 1.2,2.3 0.4,0.3 0.8,0.4 1.2,0.4 0.4,0 0.6,0 0.9,-0.2 0.2,0.5 0.6,0.9 0.8,1 0.3,0.3 0.8,0.4 1.3,0.4 0.8,0 1.7,-0.3 2.5,-1.1 0.5,0.4 1.3,1.1 2.5,1.7 0.5,0.2 0.9,0.3 1.3,0.3 0.4,0 0.7,0 1,-0.2 1,-0.5 1.5,-1.6 1.8,-2.3 h 0.5 c 0.6,0 1,0 1.3,-0.3 1.1,-0.5 1.3,-1.6 1.3,-2.3 h 0.5 c 0.5,0 0.9,0 1.2,-0.4 0.7,-0.6 0.8,-1.7 0.9,-2.4 v 0 c 0.7,0 1.3,-0.2 1.7,-0.6 0.8,-0.9 0.3,-2.5 -0.3,-3.5 0.7,-0.3 1.7,-1 2.6,-2.2 0,0.3 0.2,0.5 0.3,0.6 0.3,0.5 0.8,0.9 1.3,0.9 h 0.2 c 0.8,0 1.6,-0.6 2.3,-1.2 l 0.3,-0.3 c 1.1,-0.9 1.6,-1.5 0.6,-3.4 v -0.3 z"
   id="path2" />
	<path
   d="m 41.282,15.5 c -0.9,-1.7 -5.7,-11.9 -5.8,-12 0,-0.1 -0.5,-1 -1.5,-1.3 -0.7,-0.2 -1.5,0 -2.3,0.5 -0.8,0.5 -1.3,1.2 -1.4,1.9 -0.2,0.9 0.2,1.6 0.4,1.8 0,0.1 0.2,0.5 0.5,1.1 -0.8,0.2 -1.7,0.2 -2.5,0 -0.3,-0.1 -0.5,-0.3 -0.8,-0.5 -0.4,-0.3 -0.9,-0.7 -1.7,-0.8 -2.6,-0.6 -6.2,-0.3 -7,0 -0.9,0.3 -1.3,0.8 -2.3,2.2 0,0.1 -0.2,0.3 -0.3,0.4 -0.6,-0.2 -1.8,-0.5 -2.3,-0.6 -0.2,0 -0.9,-0.6 -1.5,-1.2 0.1,-0.3 0.2,-0.4 0.2,-0.5 0.1,-0.2 0.5,-0.9 0.4,-1.8 -0.1,-0.7 -0.6,-1.4 -1.4,-1.9 -0.8,-0.5 -1.6,-0.7 -2.3,-0.5 -1,0.3 -1.5,1.2 -1.5,1.3 0,0.1 -4.8,10.2 -5.8,12 -1,1.9 -0.5,2.5 0.6,3.4 0.1,0 0.2,0.2 0.3,0.3 0.6,0.6 1.4,1.2 2.3,1.2 0.9,0 0.2,0 0.2,0 0.5,0 0.9,-0.4 1.3,-0.9 0,0 0.2,-0.3 0.3,-0.6 0.1,0.3 0.2,0.5 0.3,0.8 0,0.8 0.6,1.3 1,1.7 -0.5,1.1 -0.7,2.7 0,3.5 0.3,0.3 0.7,0.6 1.1,0.7 -0.1,0.3 -0.2,0.7 -0.1,1.2 0,0.4 0.3,1 1.1,1.4 0.4,0.2 0.7,0.3 1.1,0.3 0.4,0 0,0 0.1,0 0,0.8 0.3,1.7 1.2,2.3 0.4,0.3 0.8,0.4 1.2,0.4 0.4,0 0.6,0 0.9,-0.2 0.2,0.5 0.6,0.9 0.8,1 0.3,0.3 0.8,0.4 1.3,0.4 0.8,0 1.7,-0.3 2.5,-1.1 0.5,0.4 1.3,1.1 2.5,1.7 0.5,0.2 0.9,0.3 1.3,0.3 0.4,0 0.7,0 1,-0.2 1,-0.5 1.5,-1.6 1.8,-2.3 h 0.5 c 0.6,0 1,0 1.3,-0.3 1.1,-0.5 1.3,-1.6 1.3,-2.3 h 0.5 c 0.5,0 0.9,0 1.2,-0.4 0.7,-0.6 0.8,-1.7 0.9,-2.4 v 0 c 0.7,0 1.3,-0.2 1.7,-0.6 0.8,-0.9 0.3,-2.5 -0.3,-3.5 0.7,-0.3 1.7,-1 2.6,-2.2 0,0.3 0.2,0.5 0.3,0.6 0.3,0.5 0.8,0.9 1.3,0.9 h 0.2 c 0.8,0 1.6,-0.6 2.3,-1.2 l 0.3,-0.3 c 1.1,-0.9 1.6,-1.5 0.6,-3.4 v -0.3 z m -35.3,3.3 c -0.2,0.4 -0.4,0.4 -0.5,0.4 -0.3,0 -0.9,-0.3 -1.6,-0.9 -0.1,0 -0.2,-0.2 -0.3,-0.3 -0.6,-0.533 -0.7,-1.2 -0.3,-2 0.9,-1.8 5.6,-11.6 5.8,-12 0,0 0.3,-0.5 0.8,-0.7 h 0.3 c 0.3,0 0.7,0.1 1,0.4 0.5,0.3 0.8,0.7 0.9,1.1 0,0.5 -0.2,0.9 -0.2,0.9 v 0 c -0.1,0.3 -0.2,0.6 -0.4,0.9 0,0 0,0.1 -0.1,0.2 -1.7,3.8 -4.9,11.1 -5.5,12 0,0 0.1,0 0.1,0 z m 3.8,2.6 c 0.8,-1.1 1.3,-1.1 1.9,-0.8 0.6,0.3 0.3,1.2 0.2,1.4 -0.6,0.8 -1.1,1.6 -1.5,2.1 h -0.1 c 0,0 -0.2,0 -0.3,0 -0.2,0 -0.4,0 -0.6,-0.3 -0.3,-0.3 -0.3,-1.7 0.4,-2.6 v 0 z m 1.5,5.6 c -0.3,-0.2 -0.5,-0.4 -0.5,-0.6 0,-0.4 0.2,-0.8 0.3,-0.9 v 0 c 0,0 2.2,-3.3 3.2,-4.4 0.3,-0.3 0.6,-0.5 0.9,-0.5 v 0 c 0.4,0 0.8,0.3 1,0.5 0.2,0.3 0.1,2 -1.4,3.5 -1.5,1.5 -0.6,0.7 -0.9,1 -1.3,1.4 -1.8,1.9 -2.6,1.5 v 0 z m 2.4,2.6 c -0.8,-0.5 -0.7,-1.3 -0.6,-1.7 0.6,-0.4 1.1,-1 1.6,-1.6 0.3,-0.3 0.6,-0.6 0.9,-0.9 0.7,-0.8 1.2,-1.6 1.5,-2.5 0.6,0.2 1.6,0.6 1.5,1.6 -0.2,1.3 -0.7,1.8 -1.3,2.4 -0.2,0.2 -0.4,0.4 -0.6,0.6 -0.2,0.2 -0.4,0.5 -0.6,0.8 -1,1.4 -1.6,1.9 -2.3,1.4 h -0.1 z m 3,1.2 c -0.6,-0.5 -0.6,-0.7 -0.4,-1.1 0.3,-0.3 0.5,-0.6 0.7,-0.9 0.2,-0.3 0.4,-0.5 0.5,-0.7 l 0.5,-0.5 c 0.2,-0.2 0.4,-0.4 0.6,-0.6 0.2,-0.2 0.5,-0.3 0.8,-0.3 0,0 0.2,0 0.4,0.3 0.8,1.1 0,2.4 -0.6,3 -1,1 -2.1,1.1 -2.5,0.8 z m 16.3,-7 c -0.4,0.4 -1.9,0.2 -2.2,0 -0.5,-0.4 -0.9,-0.7 -1.3,-1 -1.7,-1.3 -2.9,-2.3 -3.9,-3.5 -0.2,-0.2 -0.6,-0.3 -0.8,0 -0.2,0.2 -0.3,0.6 0,0.8 1.1,1.3 2.4,2.3 4.1,3.6 0.4,0.3 0.8,0.7 1.3,1 0.2,0.2 0.5,0.3 0.9,0.4 0,0.6 0,1.4 -0.5,1.7 -0.6,0.5 -2.2,-0.4 -3.4,-1.1 -1.7,-1 -3.3,-2.8 -3.3,-2.8 -0.2,-0.2 -0.6,-0.3 -0.8,0 -0.2,0.2 -0.2,0.6 0,0.8 0,0 1.7,1.9 3.5,3 0.6,0.4 1.3,0.7 1.9,1 0,0.5 0,1.3 -0.6,1.7 -0.6,0.3 -2.5,0.6 -5.2,-2.9 -0.2,-0.3 -0.6,-0.3 -0.8,0 -0.3,0.2 -0.3,0.6 0,0.8 1.4,1.8 2.6,2.8 3.7,3.2 -0.2,0.5 -0.6,1.3 -1.2,1.5 -0.4,0.2 -0.8,0 -1.3,0 -1.1,-0.5 -1.8,-1.2 -2.2,-1.5 0.9,-1.3 1,-2.7 0,-3.8 -0.3,-0.4 -0.7,-0.7 -1.2,-0.7 v 0 c 0,-0.3 0.2,-0.7 0.2,-1.1 0.2,-1.7 -1.3,-2.6 -2.4,-2.8 0,-0.6 0,-1.2 -0.4,-1.5 -0.5,-0.6 -1.2,-0.9 -1.9,-0.9 v 0 c -0.5,0 -1.1,0.2 -1.8,0.9 0,0 -0.1,0.2 -0.2,0.3 -0.1,-0.3 -0.4,-0.7 -0.8,-0.9 -1.1,-0.6 -2.1,-0.4 -3.1,0.7 -0.2,-0.2 -0.5,-0.5 -0.5,-0.8 0,-0.8 -0.5,-1.5 -0.8,-1.9 1.2,-2.6 3.2,-7.1 4.3,-9.6 0.5,0.5 1.2,1.2 1.8,1.2 0.6,0 1.2,0.3 1.8,0.4 -0.9,1.4 -1.7,2.9 -1.8,3.4 -0.1,0.7 -0.3,2 0.4,2.6 1.1,0.9 3.2,-0.4 3.8,-0.8 1,-0.7 1.5,-1.4 1.8,-1.9 0.3,-0.4 0.4,-0.6 0.7,-0.7 0.7,-0.3 1.7,0.5 5.7,3.4 3.2,2.4 4.2,3.6 5.3,5 0,0.2 0.3,0.4 0.5,0.5 0.6,0.7 1.1,2.2 0.7,2.6 z m -0.1,-3.7 -0.2,-0.2 c -1.1,-1.4 -2.2,-2.6 -5.5,-5.1 -4.4,-3.3 -5.5,-4.1 -6.8,-3.6 -0.7,0.3 -1,0.7 -1.3,1.2 -0.3,0.5 -0.7,1 -1.5,1.6 -1.2,0.8 -2.2,1.1 -2.4,0.9 -0.1,-0.1 -0.3,-0.6 0,-1.5 0,-0.4 1,-2.1 2.1,-3.7 v 0 c 0.2,-0.2 0.3,-0.5 0.5,-0.7 1,-1.4 1.2,-1.6 1.8,-1.8 0.5,-0.2 3.9,-0.5 6.3,0 0.5,0.1 0.8,0.4 1.2,0.6 0.3,0.2 0.6,0.5 1.1,0.6 1.1,0.4 2.4,0.4 3.4,0 1.1,2.6 3,6.8 4.1,9.2 -1,1.4 -2.2,2.1 -2.8,2.4 v 0 z m 7,-2.1 c 0,0 -0.2,0.2 -0.3,0.3 -0.7,0.6 -1.2,0.9 -1.6,0.9 0,0 -0.2,0 -0.5,-0.4 -0.6,-0.9 -4.5,-9.7 -5.9,-13 v 0 c 0,-0.1 -0.3,-0.5 -0.2,-1 0,-0.4 0.4,-0.8 0.9,-1.1 0.4,-0.2 0.7,-0.4 1,-0.4 h 0.3 c 0.5,0.1 0.8,0.7 0.8,0.7 v 0 c 0.2,0.4 4.8,10.3 5.8,12 0.4,0.8 0.3,1.467 -0.3,2 z"
   id="path3" />
</g>
<g
   id="g5"
   transform="translate(-3.3978591e-4)">
	<path
   style="fill:#ffff00"
   d="m 41.282,15.5 c -0.9,-1.7 -5.7,-11.9 -5.8,-12 0,-0.1 -0.5,-1 -1.5,-1.3 -0.7,-0.2 -1.5,0 -2.3,0.5 -0.8,0.5 -1.3,1.2 -1.4,1.9 -0.2,0.9 0.2,1.6 0.4,1.8 0,0.1 0.2,0.5 0.5,1.1 -0.8,0.2 -1.7,0.2 -2.5,0 -0.3,-0.1 -0.5,-0.3 -0.8,-0.5 -0.4,-0.3 -0.9,-0.7 -1.7,-0.8 -2.6,-0.6 -6.2,-0.3 -7,0 -0.9,0.3 -1.3,0.8 -2.3,2.2 0,0.1 -0.2,0.3 -0.3,0.4 -0.6,-0.2 -1.8,-0.5 -2.3,-0.6 -0.2,0 -0.9,-0.6 -1.5,-1.2 0.1,-0.3 0.2,-0.4 0.2,-0.5 0.1,-0.2 0.5,-0.9 0.4,-1.8 -0.1,-0.7 -0.6,-1.4 -1.4,-1.9 -0.8,-0.5 -1.6,-0.7 -2.3,-0.5 -1,0.3 -1.5,1.2 -1.5,1.3 0,0.1 -4.8,10.2 -5.8,12 -1,1.9 -0.5,2.5 0.6,3.4 0.1,0 0.2,0.2 0.3,0.3 0.6,0.6 1.4,1.2 2.3,1.2 0.9,0 0.2,0 0.2,0 0.5,0 0.9,-0.4 1.3,-0.9 0,0 0.2,-0.3 0.3,-0.6 0.1,0.3 0.2,0.5 0.3,0.8 0,0.8 0.6,1.3 1,1.7 -0.5,1.1 -0.7,2.7 0,3.5 0.3,0.3 0.7,0.6 1.1,0.7 -0.1,0.3 -0.2,0.7 -0.1,1.2 0,0.4 0.3,1 1.1,1.4 0.4,0.2 0.7,0.3 1.1,0.3 0.4,0 0,0 0.1,0 0,0.8 0.3,1.7 1.2,2.3 0.4,0.3 0.8,0.4 1.2,0.4 0.4,0 0.6,0 0.9,-0.2 0.2,0.5 0.6,0.9 0.8,1 0.3,0.3 0.8,0.4 1.3,0.4 0.8,0 1.7,-0.3 2.5,-1.1 0.5,0.4 1.3,1.1 2.5,1.7 0.5,0.2 0.9,0.3 1.3,0.3 0.4,0 0.7,0 1,-0.2 1,-0.5 1.5,-1.6 1.8,-2.3 h 0.5 c 0.6,0 1,0 1.3,-0.3 1.1,-0.5 1.3,-1.6 1.3,-2.3 h 0.5 c 0.5,0 0.9,0 1.2,-0.4 0.7,-0.6 0.8,-1.7 0.9,-2.4 v 0 c 0.7,0 1.3,-0.2 1.7,-0.6 0.8,-0.9 0.3,-2.5 -0.3,-3.5 0.7,-0.3 1.7,-1 2.6,-2.2 0,0.3 0.2,0.5 0.3,0.6 0.3,0.5 0.8,0.9 1.3,0.9 h 0.2 c 0.8,0 1.6,-0.6 2.3,-1.2 l 0.3,-0.3 c 1.1,-0.9 1.6,-1.5 0.6,-3.4 v -0.3 z"
   id="path4" />
	<path
   d="m 41.282,15.5 c -0.9,-1.7 -5.7,-11.9 -5.8,-12 0,-0.1 -0.5,-1 -1.5,-1.3 -0.7,-0.2 -1.5,0 -2.3,0.5 -0.8,0.5 -1.3,1.2 -1.4,1.9 -0.2,0.9 0.2,1.6 0.4,1.8 0,0.1 0.2,0.5 0.5,1.1 -0.8,0.2 -1.7,0.2 -2.5,0 -0.3,-0.1 -0.5,-0.3 -0.8,-0.5 -0.4,-0.3 -0.9,-0.7 -1.7,-0.8 -2.6,-0.6 -6.2,-0.3 -7,0 -0.9,0.3 -1.3,0.8 -2.3,2.2 0,0.1 -0.2,0.3 -0.3,0.4 -0.6,-0.2 -1.8,-0.5 -2.3,-0.6 -0.2,0 -0.9,-0.6 -1.5,-1.2 0.1,-0.3 0.2,-0.4 0.2,-0.5 0.1,-0.2 0.5,-0.9 0.4,-1.8 -0.1,-0.7 -0.6,-1.4 -1.4,-1.9 -0.8,-0.5 -1.6,-0.7 -2.3,-0.5 -1,0.3 -1.5,1.2 -1.5,1.3 0,0.1 -4.8,10.2 -5.8,12 -1,1.9 -0.5,2.5 0.6,3.4 0.1,0 0.2,0.2 0.3,0.3 0.6,0.6 1.4,1.2 2.3,1.2 0.9,0 0.2,0 0.2,0 0.5,0 0.9,-0.4 1.3,-0.9 0,0 0.2,-0.3 0.3,-0.6 0.1,0.3 0.2,0.5 0.3,0.8 0,0.8 0.6,1.3 1,1.7 -0.5,1.1 -0.7,2.7 0,3.5 0.3,0.3 0.7,0.6 1.1,0.7 -0.1,0.3 -0.2,0.7 -0.1,1.2 0,0.4 0.3,1 1.1,1.4 0.4,0.2 0.7,0.3 1.1,0.3 0.4,0 0,0 0.1,0 0,0.8 0.3,1.7 1.2,2.3 0.4,0.3 0.8,0.4 1.2,0.4 0.4,0 0.6,0 0.9,-0.2 0.2,0.5 0.6,0.9 0.8,1 0.3,0.3 0.8,0.4 1.3,0.4 0.8,0 1.7,-0.3 2.5,-1.1 0.5,0.4 1.3,1.1 2.5,1.7 0.5,0.2 0.9,0.3 1.3,0.3 0.4,0 0.7,0 1,-0.2 1,-0.5 1.5,-1.6 1.8,-2.3 h 0.5 c 0.6,0 1,0 1.3,-0.3 1.1,-0.5 1.3,-1.6 1.3,-2.3 h 0.5 c 0.5,0 0.9,0 1.2,-0.4 0.7,-0.6 0.8,-1.7 0.9,-2.4 v 0 c 0.7,0 1.3,-0.2 1.7,-0.6 0.8,-0.9 0.3,-2.5 -0.3,-3.5 0.7,-0.3 1.7,-1 2.6,-2.2 0,0.3 0.2,0.5 0.3,0.6 0.3,0.5 0.8,0.9 1.3,0.9 h 0.2 c 0.8,0 1.6,-0.6 2.3,-1.2 l 0.3,-0.3 c 1.1,-0.9 1.6,-1.5 0.6,-3.4 v -0.3 z m -35.3,3.3 c -0.2,0.4 -0.4,0.4 -0.5,0.4 -0.3,0 -0.9,-0.3 -1.6,-0.9 -0.1,0 -0.2,-0.2 -0.3,-0.3 -0.6,-0.533 -0.7,-1.2 -0.3,-2 0.9,-1.8 5.6,-11.6 5.8,-12 0,0 0.3,-0.5 0.8,-0.7 h 0.3 c 0.3,0 0.7,0.1 1,0.4 0.5,0.3 0.8,0.7 0.9,1.1 0,0.5 -0.2,0.9 -0.2,0.9 v 0 c -0.1,0.3 -0.2,0.6 -0.4,0.9 0,0 0,0.1 -0.1,0.2 -1.7,3.8 -4.9,11.1 -5.5,12 0,0 0.1,0 0.1,0 z m 3.8,2.6 c 0.8,-1.1 1.3,-1.1 1.9,-0.8 0.6,0.3 0.3,1.2 0.2,1.4 -0.6,0.8 -1.1,1.6 -1.5,2.1 h -0.1 c 0,0 -0.2,0 -0.3,0 -0.2,0 -0.4,0 -0.6,-0.3 -0.3,-0.3 -0.3,-1.7 0.4,-2.6 v 0 z m 1.5,5.6 c -0.3,-0.2 -0.5,-0.4 -0.5,-0.6 0,-0.4 0.2,-0.8 0.3,-0.9 v 0 c 0,0 2.2,-3.3 3.2,-4.4 0.3,-0.3 0.6,-0.5 0.9,-0.5 v 0 c 0.4,0 0.8,0.3 1,0.5 0.2,0.3 0.1,2 -1.4,3.5 -1.5,1.5 -0.6,0.7 -0.9,1 -1.3,1.4 -1.8,1.9 -2.6,1.5 v 0 z m 2.4,2.6 c -0.8,-0.5 -0.7,-1.3 -0.6,-1.7 0.6,-0.4 1.1,-1 1.6,-1.6 0.3,-0.3 0.6,-0.6 0.9,-0.9 0.7,-0.8 1.2,-1.6 1.5,-2.5 0.6,0.2 1.6,0.6 1.5,1.6 -0.2,1.3 -0.7,1.8 -1.3,2.4 -0.2,0.2 -0.4,0.4 -0.6,0.6 -0.2,0.2 -0.4,0.5 -0.6,0.8 -1,1.4 -1.6,1.9 -2.3,1.4 h -0.1 z m 3,1.2 c -0.6,-0.5 -0.6,-0.7 -0.4,-1.1 0.3,-0.3 0.5,-0.6 0.7,-0.9 0.2,-0.3 0.4,-0.5 0.5,-0.7 l 0.5,-0.5 c 0.2,-0.2 0.4,-0.4 0.6,-0.6 0.2,-0.2 0.5,-0.3 0.8,-0.3 0,0 0.2,0 0.4,0.3 0.8,1.1 0,2.4 -0.6,3 -1,1 -2.1,1.1 -2.5,0.8 z m 16.3,-7 c -0.4,0.4 -1.9,0.2 -2.2,0 -0.5,-0.4 -0.9,-0.7 -1.3,-1 -1.7,-1.3 -2.9,-2.3 -3.9,-3.5 -0.2,-0.2 -0.6,-0.3 -0.8,0 -0.2,0.2 -0.3,0.6 0,0.8 1.1,1.3 2.4,2.3 4.1,3.6 0.4,0.3 0.8,0.7 1.3,1 0.2,0.2 0.5,0.3 0.9,0.4 0,0.6 0,1.4 -0.5,1.7 -0.6,0.5 -2.2,-0.4 -3.4,-1.1 -1.7,-1 -3.3,-2.8 -3.3,-2.8 -0.2,-0.2 -0.6,-0.3 -0.8,0 -0.2,0.2 -0.2,0.6 0,0.8 0,0 1.7,1.9 3.5,3 0.6,0.4 1.3,0.7 1.9,1 0,0.5 0,1.3 -0.6,1.7 -0.6,0.3 -2.5,0.6 -5.2,-2.9 -0.2,-0.3 -0.6,-0.3 -0.8,0 -0.3,0.2 -0.3,0.6 0,0.8 1.4,1.8 2.6,2.8 3.7,3.2 -0.2,0.5 -0.6,1.3 -1.2,1.5 -0.4,0.2 -0.8,0 -1.3,0 -1.1,-0.5 -1.8,-1.2 -2.2,-1.5 0.9,-1.3 1,-2.7 0,-3.8 -0.3,-0.4 -0.7,-0.7 -1.2,-0.7 v 0 c 0,-0.3 0.2,-0.7 0.2,-1.1 0.2,-1.7 -1.3,-2.6 -2.4,-2.8 0,-0.6 0,-1.2 -0.4,-1.5 -0.5,-0.6 -1.2,-0.9 -1.9,-0.9 v 0 c -0.5,0 -1.1,0.2 -1.8,0.9 0,0 -0.1,0.2 -0.2,0.3 -0.1,-0.3 -0.4,-0.7 -0.8,-0.9 -1.1,-0.6 -2.1,-0.4 -3.1,0.7 -0.2,-0.2 -0.5,-0.5 -0.5,-0.8 0,-0.8 -0.5,-1.5 -0.8,-1.9 1.2,-2.6 3.2,-7.1 4.3,-9.6 0.5,0.5 1.2,1.2 1.8,1.2 0.6,0 1.2,0.3 1.8,0.4 -0.9,1.4 -1.7,2.9 -1.8,3.4 -0.1,0.7 -0.3,2 0.4,2.6 1.1,0.9 3.2,-0.4 3.8,-0.8 1,-0.7 1.5,-1.4 1.8,-1.9 0.3,-0.4 0.4,-0.6 0.7,-0.7 0.7,-0.3 1.7,0.5 5.7,3.4 3.2,2.4 4.2,3.6 5.3,5 0,0.2 0.3,0.4 0.5,0.5 0.6,0.7 1.1,2.2 0.7,2.6 z m -0.1,-3.7 -0.2,-0.2 c -1.1,-1.4 -2.2,-2.6 -5.5,-5.1 -4.4,-3.3 -5.5,-4.1 -6.8,-3.6 -0.7,0.3 -1,0.7 -1.3,1.2 -0.3,0.5 -0.7,1 -1.5,1.6 -1.2,0.8 -2.2,1.1 -2.4,0.9 -0.1,-0.1 -0.3,-0.6 0,-1.5 0,-0.4 1,-2.1 2.1,-3.7 v 0 c 0.2,-0.2 0.3,-0.5 0.5,-0.7 1,-1.4 1.2,-1.6 1.8,-1.8 0.5,-0.2 3.9,-0.5 6.3,0 0.5,0.1 0.8,0.4 1.2,0.6 0.3,0.2 0.6,0.5 1.1,0.6 1.1,0.4 2.4,0.4 3.4,0 1.1,2.6 3,6.8 4.1,9.2 -1,1.4 -2.2,2.1 -2.8,2.4 v 0 z m 7,-2.1 c 0,0 -0.2,0.2 -0.3,0.3 -0.7,0.6 -1.2,0.9 -1.6,0.9 0,0 -0.2,0 -0.5,-0.4 -0.6,-0.9 -4.5,-9.7 -5.9,-13 v 0 c 0,-0.1 -0.3,-0.5 -0.2,-1 0,-0.4 0.4,-0.8 0.9,-1.1 0.4,-0.2 0.7,-0.4 1,-0.4 h 0.3 c 0.5,0.1 0.8,0.7 0.8,0.7 v 0 c 0.2,0.4 4.8,10.3 5.8,12 0.4,0.8 0.3,1.467 -0.3,2 z"
   id="path5" />
</g>
</svg>
