<?xml version="1.0" encoding="UTF-8" standalone="no"?>
<!-- Generator: Adobe Illustrator 29.4.0, SVG Export Plug-In . SVG Version: 9.03 Build 0)  -->

<svg
   version="1.1"
   id="Layer_1"
   x="0px"
   y="0px"
   viewBox="0 0 33.923706 47.9"
   xml:space="preserve"
   sodipodi:docname="poi034_c.svg"
   width="33.923706"
   height="47.900002"
   inkscape:version="1.3.2 (091e20e, 2023-11-25, custom)"
   xmlns:inkscape="http://www.inkscape.org/namespaces/inkscape"
   xmlns:sodipodi="http://sodipodi.sourceforge.net/DTD/sodipodi-0.dtd"
   xmlns="http://www.w3.org/2000/svg"
   xmlns:svg="http://www.w3.org/2000/svg"><defs
   id="defs8" /><sodipodi:namedview
   id="namedview8"
   pagecolor="#ffffff"
   bordercolor="#000000"
   borderopacity="0.25"
   inkscape:showpageshadow="2"
   inkscape:pageopacity="0.0"
   inkscape:pagecheckerboard="0"
   inkscape:deskcolor="#d1d1d1"
   inkscape:zoom="37.974947"
   inkscape:cx="16.958549"
   inkscape:cy="23.950001"
   inkscape:window-width="3840"
   inkscape:window-height="2054"
   inkscape:window-x="2869"
   inkscape:window-y="-11"
   inkscape:window-maximized="1"
   inkscape:current-layer="Layer_1" />
<path
   style="fill:#ffffff"
   d="m 25.4,6.5 c -1.2,0 -2.4,0.3 -3.5,0.7 -1.2,0.5 -2.2,1.3 -3,2.3 V 3.4 c 0,-0.2 0,-0.3 0,-0.5 C 18.5,1.1 16.3,0 12.8,0 9.3,0 7.1,1.1 6.7,2.9 c 0,0.2 0,0.3 0,0.5 V 37 C 3.3,37.7 0,39.1 0,42.2 c 0,5.2 9,5.7 12.8,5.7 3.8,0 12.8,-0.6 12.8,-5.7 0,-5.1 -0.2,-1.3 -0.4,-1.8 0.1,0 0.3,0 0.4,0 0.6,0 1.1,-0.2 1.6,-0.6 0,0 0,0 0.1,-0.1 0,0 0,0 0.1,-0.1 l 2,-2.4 c 0.4,-0.5 0.7,-1.1 0.7,-1.7 V 22.1 c 3.4,-2.3 4.8,-6.7 3.1,-10.6 -1.4,-3.1 -4.4,-5 -7.8,-5 z"
   id="path1" />
<path
   d="m 25.9,38.3 v 0 l 2,-2.4 c 0,0 0.2,-0.2 0.2,-0.4 V 21 c 3.3,-1.5 4.7,-5.3 3.3,-8.6 C 30,9.1 26.1,7.6 22.8,9.1 c -3.3,1.5 -4.7,5.3 -3.3,8.6 0.8,1.7 2.2,3 4,3.6 v 0.8 l -1.6,0.4 v 0.7 L 23,24 c 0,0 0,0 0,0.1 v 0 l -1.1,0.7 c 0,0 0,0 0,0.1 v 0 l 1.1,0.6 c 0,0 0,0 0,0.1 v 0 l -1.1,0.7 c 0,0 0,0 0,0.1 v 0 l 1.1,0.7 c 0,0 0,0 0,0.1 v 0 l -1,1 c 0,0 0,0 0,0.1 v 0 l 1.7,1.6 V 31 l -1.2,1 v 0.2 0 l 0.5,0.9 c 0,0 0,0.1 0,0.2 l -1,1 c 0,0.1 0,0.3 0,0.4 v 0 l 3.4,3.2 c 0.1,0.1 0.4,0.2 0.5,0 z M 24,12.8 c 0,-0.8 0.6,-1.4 1.4,-1.4 0.8,0 1.4,0.6 1.4,1.4 0,0.8 -0.6,1.4 -1.4,1.4 -0.8,0 -1.4,-0.6 -1.4,-1.4 z"
   id="path2" />
<g
   id="g8">
	<path
   style="fill:#ffffff"
   d="m 17,40.7 v 1 0 c 0,0.8 -1.9,1.4 -4.1,1.4 -2.2,0 -4.1,-0.6 -4.1,-1.4 v 0 -1 c -2.8,0.4 -4.3,1.1 -4.7,1.5 0.5,0.6 3.3,1.7 8.8,1.7 5.5,0 8.3,-1.2 8.8,-1.7 -0.3,-0.4 -1.9,-1.1 -4.7,-1.5 z"
   id="path3" />
	<path
   style="fill:#e4151c"
   d="M 17,38.7 V 36.2 H 8.7 v 2.5 C 5.3,39.1 2,40.1 2,42.2 c 0,2.9 6.8,3.7 10.8,3.7 4,0 10.8,-0.8 10.8,-3.7 0,-2.1 -3.3,-3.1 -6.7,-3.5 z M 4,42.2 c 0.3,-0.4 1.9,-1.1 4.7,-1.5 v 1 0 c 0,0.8 1.9,1.4 4.1,1.4 2.2,0 4.1,-0.6 4.1,-1.4 v 0 -1 c 2.8,0.4 4.3,1.1 4.7,1.5 -0.5,0.6 -3.3,1.7 -8.8,1.7 -5.5,0 -8.3,-1.2 -8.8,-1.7 z"
   id="path4" />
	<rect
   x="8.6999998"
   y="8.8999996"
   style="fill:#ffffff"
   width="8.3000002"
   height="5.5"
   id="rect4" />
	<rect
   x="8.6999998"
   y="14.4"
   style="fill:#e4151c"
   width="8.3000002"
   height="5.5"
   id="rect5" />
	<path
   style="fill:#e4151c"
   d="M 17,3.4 C 17,2.6 15.1,2 12.9,2 10.7,2 8.8,2.6 8.8,3.4 v 5.5 h 8.3 v -5.5 0 z"
   id="path5" />
	<rect
   x="8.6999998"
   y="19.799999"
   style="fill:#ffffff"
   width="8.3000002"
   height="5.5"
   id="rect6" />
	<rect
   x="8.6999998"
   y="25.299999"
   style="fill:#e4151c"
   width="8.3000002"
   height="5.5"
   id="rect7" />
	<rect
   x="8.6999998"
   y="30.799999"
   style="fill:#ffffff"
   width="8.3000002"
   height="5.5"
   id="rect8" />
</g>
</svg>
