<?xml version="1.0" encoding="UTF-8" standalone="no"?>
<!-- Generator: Adobe Illustrator 29.4.0, SVG Export Plug-In . SVG Version: 9.03 Build 0)  -->

<svg
   version="1.1"
   id="Layer_1"
   x="0px"
   y="0px"
   viewBox="0 0 42 19"
   xml:space="preserve"
   sodipodi:docname="poi011_c.svg"
   width="42"
   height="19"
   inkscape:version="1.3.2 (091e20e, 2023-11-25, custom)"
   xmlns:inkscape="http://www.inkscape.org/namespaces/inkscape"
   xmlns:sodipodi="http://sodipodi.sourceforge.net/DTD/sodipodi-0.dtd"
   xmlns="http://www.w3.org/2000/svg"
   xmlns:svg="http://www.w3.org/2000/svg"><defs
   id="defs7" /><sodipodi:namedview
   id="namedview7"
   pagecolor="#ffffff"
   bordercolor="#000000"
   borderopacity="0.25"
   inkscape:showpageshadow="2"
   inkscape:pageopacity="0.0"
   inkscape:pagecheckerboard="0"
   inkscape:deskcolor="#d1d1d1"
   inkscape:zoom="76.809524"
   inkscape:cx="21"
   inkscape:cy="9.4975201"
   inkscape:window-width="3840"
   inkscape:window-height="2054"
   inkscape:window-x="2869"
   inkscape:window-y="-11"
   inkscape:window-maximized="1"
   inkscape:current-layer="Layer_1" />
<path
   style="fill:#ffffff"
   d="m 39.9,11.8 c -0.3,-0.7 -0.7,-1.2 -1,-1.7 0,-0.1 0.2,-0.2 0.3,-0.3 0.7,-0.9 1,-2.1 1,-3.4 0,-2.5 -1.1,-3.9 -1.9,-4.7 -1.2,-1 -2.9,-1.5 -5,-1.5 h -4.5 c -0.7,0 -1.4,0.4 -1.7,1 C 26.5,0.9 25.9,0.6 25.2,0.4 24.2,0.1 23.2,0 22.2,0 19.5,0 17.3,0.9 15.7,2.5 15.6,2.2 15.3,1.9 15,1.7 14.2,1.1 13.2,0.7 12.3,0.4 11.3,0.1 10.3,0 9.3,0 6.5,0 4.3,0.9 2.6,2.7 0.8,4.2 0,6.5 0,9.4 c 0,2.9 0.8,5.2 2.4,6.9 1.7,1.8 3.9,2.7 6.7,2.7 2.8,0 2.1,-0.1 3,-0.4 1,-0.3 1.9,-0.7 2.7,-1.3 0.3,-0.2 0.5,-0.5 0.7,-0.8 1.6,1.7 3.8,2.5 6.5,2.5 2.7,0 2.1,-0.1 3,-0.4 0.7,-0.2 1.3,-0.5 1.9,-0.9 0.3,0.6 1,1 1.7,1 h 2 c 1.1,0 2,-0.9 2,-2 v -4.2 h 0.1 c 0.4,0 0.6,0 0.7,0.1 0,0 0.3,0.2 0.8,1.2 l 1.9,3.7 c 0.3,0.7 1,1.1 1.8,1.1 H 40 c 0.7,0 1.3,-0.4 1.7,-1 0.4,-0.6 0.4,-1.3 0,-1.9 l -2,-4 z"
   id="path1" />
<g
   id="g4">
	<path
   style="fill:#e4151c"
   d="M 13.8,3.2 V 5.3 C 13.1,4.7 12.4,4.2 11.7,3.9 11,3.6 10.1,3.4 9.3,3.4 7.6,3.4 6.4,3.9 5.5,4.9 4.6,5.9 4.2,7.4 4.2,9.3 c 0,1.9 0.4,3.4 1.3,4.4 0.9,1 2.2,1.5 3.8,1.5 1.6,0 1.6,-0.2 2.4,-0.5 0.8,-0.3 1.5,-0.8 2.1,-1.4 v 2.1 c -0.7,0.5 -1.4,0.8 -2.2,1.1 C 10.8,16.8 10,16.9 9.2,16.9 7,16.9 5.3,16.2 4,14.9 2.7,13.6 2.1,11.7 2.1,9.4 2.1,7.1 2.7,5.2 4,3.9 c 1.3,-1.4 3,-2 5.2,-2 2.2,0 1.7,0.1 2.5,0.3 0.8,0.2 1.5,0.6 2.2,1 z"
   id="path2" />
	<path
   style="fill:#e4151c"
   d="M 26.7,3.2 V 5.3 C 26,4.7 25.3,4.2 24.6,3.9 23.9,3.6 23,3.4 22.2,3.4 c -1.7,0 -2.9,0.5 -3.8,1.5 -0.9,1 -1.3,2.5 -1.3,4.4 0,1.9 0.4,3.4 1.3,4.4 0.9,1 2.2,1.5 3.8,1.5 1.6,0 1.6,-0.2 2.4,-0.5 0.8,-0.3 1.5,-0.8 2.1,-1.4 v 2.1 c -0.7,0.5 -1.4,0.8 -2.2,1.1 -0.8,0.3 -1.6,0.4 -2.4,0.4 -2.2,0 -3.9,-0.7 -5.2,-2 C 15.6,13.6 15,11.7 15,9.4 c 0,-2.3 0.6,-4.2 1.9,-5.5 1.3,-1.3 3,-2 5.2,-2 2.2,0 1.7,0.1 2.5,0.3 0.8,0.2 1.5,0.6 2.2,1 z"
   id="path3" />
	<path
   style="fill:#e4151c"
   d="m 35.7,9.8 c 0.4,0.1 0.8,0.4 1.2,0.9 0.4,0.5 0.8,1.1 1.2,1.9 l 2,4 H 38 l -1.9,-3.7 c -0.5,-1 -0.9,-1.6 -1.4,-1.9 -0.5,-0.3 -1.1,-0.5 -1.9,-0.5 h -2.1 v 6.2 h -2 V 2.1 h 4.5 c 1.7,0 2.9,0.3 3.7,1 0.8,0.7 1.2,1.7 1.2,3.2 0,1.5 -0.2,1.7 -0.6,2.3 -0.4,0.6 -1,1 -1.9,1.3 z m -5,-6.1 v 5.2 h 2.5 c 1,0 1.7,-0.2 2.2,-0.7 C 35.9,7.7 36.1,7.1 36.1,6.3 36.1,5.5 35.9,4.8 35.4,4.4 34.9,4 34.2,3.8 33.2,3.8 h -2.5 z"
   id="path4" />
</g>
<g
   id="g7">
	<path
   style="fill:#e4151c"
   d="M 13.8,3.2 V 5.3 C 13.1,4.7 12.4,4.2 11.7,3.9 11,3.6 10.1,3.4 9.3,3.4 7.6,3.4 6.4,3.9 5.5,4.9 4.6,5.9 4.2,7.4 4.2,9.3 c 0,1.9 0.4,3.4 1.3,4.4 0.9,1 2.2,1.5 3.8,1.5 1.6,0 1.6,-0.2 2.4,-0.5 0.8,-0.3 1.5,-0.8 2.1,-1.4 v 2.1 c -0.7,0.5 -1.4,0.8 -2.2,1.1 C 10.8,16.8 10,16.9 9.2,16.9 7,16.9 5.3,16.2 4,14.9 2.7,13.6 2.1,11.7 2.1,9.4 2.1,7.1 2.7,5.2 4,3.9 c 1.3,-1.4 3,-2 5.2,-2 2.2,0 1.7,0.1 2.5,0.3 0.8,0.2 1.5,0.6 2.2,1 z"
   id="path5" />
	<path
   style="fill:#e4151c"
   d="M 26.7,3.2 V 5.3 C 26,4.7 25.3,4.2 24.6,3.9 23.9,3.6 23,3.4 22.2,3.4 c -1.7,0 -2.9,0.5 -3.8,1.5 -0.9,1 -1.3,2.5 -1.3,4.4 0,1.9 0.4,3.4 1.3,4.4 0.9,1 2.2,1.5 3.8,1.5 1.6,0 1.6,-0.2 2.4,-0.5 0.8,-0.3 1.5,-0.8 2.1,-1.4 v 2.1 c -0.7,0.5 -1.4,0.8 -2.2,1.1 -0.8,0.3 -1.6,0.4 -2.4,0.4 -2.2,0 -3.9,-0.7 -5.2,-2 C 15.6,13.6 15,11.7 15,9.4 c 0,-2.3 0.6,-4.2 1.9,-5.5 1.3,-1.3 3,-2 5.2,-2 2.2,0 1.7,0.1 2.5,0.3 0.8,0.2 1.5,0.6 2.2,1 z"
   id="path6" />
	<path
   style="fill:#e4151c"
   d="m 35.7,9.8 c 0.4,0.1 0.8,0.4 1.2,0.9 0.4,0.5 0.8,1.1 1.2,1.9 l 2,4 H 38 l -1.9,-3.7 c -0.5,-1 -0.9,-1.6 -1.4,-1.9 -0.5,-0.3 -1.1,-0.5 -1.9,-0.5 h -2.1 v 6.2 h -2 V 2.1 h 4.5 c 1.7,0 2.9,0.3 3.7,1 0.8,0.7 1.2,1.7 1.2,3.2 0,1.5 -0.2,1.7 -0.6,2.3 -0.4,0.6 -1,1 -1.9,1.3 z m -5,-6.1 v 5.2 h 2.5 c 1,0 1.7,-0.2 2.2,-0.7 C 35.9,7.7 36.1,7.1 36.1,6.3 36.1,5.5 35.9,4.8 35.4,4.4 34.9,4 34.2,3.8 33.2,3.8 h -2.5 z"
   id="path7" />
</g>
</svg>
