<?xml version="1.0" encoding="UTF-8" standalone="no"?>
<!-- Generator: Adobe Illustrator 29.4.0, SVG Export Plug-In . SVG Version: 9.03 Build 0)  -->

<svg
   version="1.1"
   id="Layer_1"
   x="0px"
   y="0px"
   viewBox="0 0 43 42.5"
   xml:space="preserve"
   sodipodi:docname="poi016_c.svg"
   width="43"
   height="42.5"
   inkscape:version="1.3.2 (091e20e, 2023-11-25, custom)"
   xmlns:inkscape="http://www.inkscape.org/namespaces/inkscape"
   xmlns:sodipodi="http://sodipodi.sourceforge.net/DTD/sodipodi-0.dtd"
   xmlns="http://www.w3.org/2000/svg"
   xmlns:svg="http://www.w3.org/2000/svg"><defs
   id="defs8" /><sodipodi:namedview
   id="namedview8"
   pagecolor="#ffffff"
   bordercolor="#000000"
   borderopacity="0.25"
   inkscape:showpageshadow="2"
   inkscape:pageopacity="0.0"
   inkscape:pagecheckerboard="0"
   inkscape:deskcolor="#d1d1d1"
   inkscape:zoom="42.8"
   inkscape:cx="21.495327"
   inkscape:cy="21.25"
   inkscape:window-width="3840"
   inkscape:window-height="2054"
   inkscape:window-x="2869"
   inkscape:window-y="-11"
   inkscape:window-maximized="1"
   inkscape:current-layer="Layer_1" />
<path
   style="fill:#ffffff"
   d="M 40.2,14.4 26.9,7 h 0.6 c 1.1,0 2,-0.9 2,-2 V 2 c 0,-1.1 -0.9,-2 -2,-2 H 20 C 18.9,0 18,0.9 18,2 V 5.9 L 2.8,14.4 C 1.1,15.4 0,17.2 0,19.2 V 37 c 0,3 2.5,5.5 5.5,5.5 h 32 C 40.5,42.5 43,40 43,37 V 19.2 c 0,-2 -1.1,-3.8 -2.8,-4.8 z"
   id="path1" />
<g
   id="g5">
	<path
   style="fill:none"
   d="m 25.5,28.5 h -8 C 17.2,28.5 17,28.7 17,29 v 8.5 h 9 V 29 c 0,-0.3 -0.2,-0.5 -0.5,-0.5 z"
   id="path2" />
	<path
   style="fill:none"
   d="m 9.6,19.2 c 0.4,0.2 0.6,0.3 1.1,0.3 0.5,0 0.7,0 1.1,-0.3 0.5,-0.3 1.2,-0.7 2.5,-0.7 1.3,0 2,0.4 2.5,0.7 0.4,0.2 0.6,0.3 1.1,0.3 0.5,0 0.7,0 1.1,-0.3 0.5,-0.3 1.2,-0.7 2.5,-0.7 1.3,0 2,0.4 2.5,0.7 0.4,0.2 0.6,0.3 1.1,0.3 0.5,0 0.7,0 1.1,-0.3 0.5,-0.3 1.2,-0.7 2.5,-0.7 1.3,0 2,0.4 2.5,0.7 0.4,0.2 0.6,0.3 1.1,0.3 0.5,0 0.7,0 1.1,-0.3 0.5,-0.3 1.2,-0.7 2.5,-0.7 1.3,0 1.6,0.2 2,0.4 0,0 -0.1,-0.1 -0.2,-0.2 l -16.2,-9 -16.2,9 c 0,0 -0.1,0.1 -0.2,0.2 0.5,-0.2 1.1,-0.4 2,-0.4 0.9,0 2,0.4 2.5,0.7 z"
   id="path3" />
	<path
   style="fill:none"
   d="m 37,21.8 c -0.4,-0.2 -0.6,-0.3 -1.1,-0.3 -0.5,0 -0.7,0 -1.1,0.3 -0.5,0.3 -1.2,0.7 -2.5,0.7 -1.3,0 -2,-0.4 -2.5,-0.7 -0.4,-0.2 -0.6,-0.3 -1.1,-0.3 -0.5,0 -0.7,0 -1.1,0.3 -0.5,0.3 -1.2,0.7 -2.5,0.7 -1.3,0 -2,-0.4 -2.5,-0.7 -0.4,-0.2 -0.6,-0.3 -1.1,-0.3 -0.5,0 -0.7,0 -1.1,0.3 -0.5,0.3 -1.2,0.7 -2.5,0.7 -1.3,0 -2,-0.4 -2.5,-0.7 -0.4,-0.2 -0.6,-0.3 -1.1,-0.3 -0.5,0 -0.7,0 -1.1,0.3 -0.5,0.3 -1.2,0.7 -2.5,0.7 -1.3,0 -2,-0.4 -2.5,-0.7 C 7.8,21.6 7.6,21.5 7.1,21.5 6.6,21.5 6.4,21.5 6,21.8 5.7,22 5.4,22.1 5,22.3 V 37 c 0,0.3 0.2,0.5 0.5,0.5 H 14 V 29 c 0,-1.9 1.6,-3.5 3.5,-3.5 h 8 c 1.9,0 3.5,1.6 3.5,3.5 v 8.5 h 8.5 C 37.8,37.5 38,37.3 38,37 V 22.3 C 37.6,22.2 37.2,22 37,21.8 Z"
   id="path4" />
	<path
   style="fill:#0056a4"
   d="M 39.2,16.1 23,7.1 V 5 h 4.5 V 2 H 20 v 5.1 l -16.2,9 C 2.7,16.7 2,17.9 2,19.2 V 37 c 0,1.9 1.6,3.5 3.5,3.5 h 32 C 39.4,40.5 41,38.9 41,37 V 19.2 c 0,-1.3 -0.7,-2.4 -1.8,-3.1 z m -33.9,2.6 16.2,-9 16.2,9 c 0,0 0.1,0.1 0.2,0.2 -0.5,-0.2 -1.1,-0.4 -2,-0.4 -0.9,0 -2,0.4 -2.5,0.7 -0.4,0.2 -0.6,0.3 -1.1,0.3 -0.5,0 -0.7,0 -1.1,-0.3 -0.5,-0.3 -1.2,-0.7 -2.5,-0.7 -1.3,0 -2,0.4 -2.5,0.7 -0.4,0.2 -0.6,0.3 -1.1,0.3 -0.5,0 -0.7,0 -1.1,-0.3 -0.5,-0.3 -1.2,-0.7 -2.5,-0.7 -1.3,0 -2,0.4 -2.5,0.7 -0.4,0.2 -0.6,0.3 -1.1,0.3 -0.5,0 -0.7,0 -1.1,-0.3 -0.5,-0.3 -1.2,-0.7 -2.5,-0.7 -1.3,0 -2,0.4 -2.5,0.7 -0.4,0.2 -0.6,0.3 -1.1,0.3 -0.5,0 -0.7,0 -1.1,-0.3 -0.5,-0.3 -1.2,-0.7 -2.5,-0.7 -1.3,0 -1.6,0.2 -2,0.4 0,0 0.1,-0.1 0.2,-0.2 z M 17,37.5 V 29 c 0,-0.3 0.2,-0.5 0.5,-0.5 h 8 c 0.3,0 0.5,0.2 0.5,0.5 v 8.5 z m 20.5,0 H 29 V 29 c 0,-1.9 -1.6,-3.5 -3.5,-3.5 h -8 C 15.6,25.5 14,27.1 14,29 v 8.5 H 5.5 C 5.2,37.5 5,37.3 5,37 V 22.3 c 0.4,-0.1 0.8,-0.3 1,-0.5 0.4,-0.2 0.6,-0.3 1.1,-0.3 0.5,0 0.7,0 1.1,0.3 0.5,0.3 1.2,0.7 2.5,0.7 1.3,0 2,-0.4 2.5,-0.7 0.4,-0.2 0.6,-0.3 1.1,-0.3 0.5,0 0.7,0 1.1,0.3 0.5,0.3 1.2,0.7 2.5,0.7 1.3,0 2,-0.4 2.5,-0.7 0.4,-0.2 0.6,-0.3 1.1,-0.3 0.5,0 0.7,0 1.1,0.3 0.5,0.3 1.2,0.7 2.5,0.7 1.3,0 2,-0.4 2.5,-0.7 0.4,-0.2 0.6,-0.3 1.1,-0.3 0.5,0 0.7,0 1.1,0.3 0.5,0.3 1.2,0.7 2.5,0.7 1.3,0 2,-0.4 2.5,-0.7 0.4,-0.2 0.6,-0.3 1.1,-0.3 0.5,0 0.7,0 1.1,0.3 0.3,0.2 0.6,0.3 1,0.5 V 37 c 0,0.3 -0.2,0.5 -0.5,0.5 z"
   id="path5" />
</g>
<g
   id="g8">
	<path
   style="fill:none"
   d="m 39.5,21 v 16 c 0,1.1 -0.9,2 -2,2 h -32 c -1.1,0 -2,-0.9 -2,-2 V 21"
   id="path6" />
	<path
   style="fill:none"
   d="m 39.5,21 c -1.8,0 -1.8,-1 -3.6,-1 -1.8,0 -1.8,1 -3.6,1 -1.8,0 -1.8,-1 -3.6,-1 -1.8,0 -1.8,1 -3.6,1 -1.8,0 -1.8,-1 -3.6,-1 -1.8,0 -1.8,1 -3.6,1 -1.8,0 -1.8,-1 -3.6,-1 -1.8,0 -1.8,1 -3.6,1 -1.8,0 -1.8,-1 -3.6,-1 -1.8,0 -1.8,1 -3.6,1 v -1.8 c 0,-0.7 0.4,-1.4 1,-1.7 l 17,-9.4 17,9.4 c 0.6,0.4 1,1 1,1.7 z"
   id="path7" />
	<path
   style="fill:none"
   d="m 27.5,39 h -12 V 29 c 0,-1.1 0.9,-2 2,-2 h 8 c 1.1,0 2,0.9 2,2 z"
   id="path8" />
	<line
   style="fill:none"
   x1="21.5"
   y1="8"
   x2="21.5"
   y2="2"
   id="line8" />
</g>
</svg>
