<?xml version="1.0" encoding="UTF-8" standalone="no"?>
<!-- Generator: Adobe Illustrator 29.4.0, SVG Export Plug-In . SVG Version: 9.03 Build 0)  -->

<svg
   version="1.1"
   id="Layer_1"
   x="0px"
   y="0px"
   viewBox="0 0 48.1 31.4"
   xml:space="preserve"
   sodipodi:docname="poi050_c.svg"
   width="48.099998"
   height="31.4"
   inkscape:version="1.3.2 (091e20e, 2023-11-25, custom)"
   xmlns:inkscape="http://www.inkscape.org/namespaces/inkscape"
   xmlns:sodipodi="http://sodipodi.sourceforge.net/DTD/sodipodi-0.dtd"
   xmlns="http://www.w3.org/2000/svg"
   xmlns:svg="http://www.w3.org/2000/svg"><defs
   id="defs3" /><sodipodi:namedview
   id="namedview3"
   pagecolor="#ffffff"
   bordercolor="#000000"
   borderopacity="0.25"
   inkscape:showpageshadow="2"
   inkscape:pageopacity="0.0"
   inkscape:pagecheckerboard="0"
   inkscape:deskcolor="#d1d1d1"
   inkscape:zoom="57.929937"
   inkscape:cx="24.046289"
   inkscape:cy="15.7"
   inkscape:window-width="3840"
   inkscape:window-height="2054"
   inkscape:window-x="2869"
   inkscape:window-y="-11"
   inkscape:window-maximized="1"
   inkscape:current-layer="Layer_1" />
<path
   style="fill:#ffffff"
   d="m 46,10.6 h -8.1 c -1.1,0 -2,0.9 -2,2 v 1.1 H 34.1 L 32.4,7 h 4.2 c 1.1,0 2,-0.9 2,-2 V 2 c 0,-1.1 -0.9,-2 -2,-2 H 12 c -1.1,0 -2,0.9 -2,2 v 3 c 0,1.1 0.9,2 2,2 h 3.6 l -1.7,6.7 h -1.8 v -1.1 c 0,-1.1 -0.9,-2 -2,-2 H 2 c -1.1,0 -2,0.9 -2,2 v 1.7 c 0,1.1 0.9,2 2,2 h 1.5 v 2.4 c 0,1.1 0.9,2 2,2 h 6.6 L 10,28.9 c -0.2,0.6 0,1.2 0.4,1.7 0.4,0.5 1,0.8 1.6,0.8 h 3 c 0.9,0 1.7,-0.6 1.9,-1.5 l 2.4,-9.2 h 9.5 l 2.4,9.2 c 0.2,0.9 1,1.5 1.9,1.5 h 3 c 0.6,0 1.2,-0.3 1.6,-0.8 0.4,-0.5 0.5,-1.1 0.4,-1.7 L 36,20.7 h 6.6 c 1.1,0 2,-0.9 2,-2 v -2.4 h 1.5 c 1.1,0 2,-0.9 2,-2 v -1.7 c 0,-1.1 -0.9,-2 -2,-2 z"
   id="path1" />
<path
   style="fill:#91562b"
   d="m 46,12.6 h -8.1 v 1.7 h 3.5 v 1.4 H 32.6 L 29.8,5 h 6.8 V 2 H 12 v 3 h 6.2 L 15.4,15.7 H 6.7 v -1.4 h 3.5 V 12.6 H 2 v 1.7 h 3.5 v 4.4 0 h 9.2 l -2.8,10.7 h 3 l 2.8,-10.7 h 12.6 l 2.8,10.7 h 3 L 33.3,18.7 h 9.2 V 14.3 H 46 Z M 18.4,15.7 21.2,5 h 5.5 l 2.8,10.7 z"
   id="path2" />
<path
   style="fill:#91562b"
   d="m 46,12.6 h -8.1 v 1.7 h 3.5 v 1.4 H 32.6 L 29.8,5 h 6.8 V 2 H 12 v 3 h 6.2 L 15.4,15.7 H 6.7 v -1.4 h 3.5 V 12.6 H 2 v 1.7 h 3.5 v 4.4 0 h 9.2 l -2.8,10.7 h 3 l 2.8,-10.7 h 12.6 l 2.8,10.7 h 3 L 33.3,18.7 h 9.2 V 14.3 H 46 Z M 18.4,15.7 21.2,5 h 5.5 l 2.8,10.7 z"
   id="path3" />
</svg>
