<?xml version="1.0" encoding="UTF-8" standalone="no"?>
<!-- Generator: Adobe Illustrator 29.4.0, SVG Export Plug-In . SVG Version: 9.03 Build 0)  -->

<svg
   version="1.1"
   id="Layer_1"
   x="0px"
   y="0px"
   viewBox="0 0 31.5 40"
   xml:space="preserve"
   sodipodi:docname="poi031_c.svg"
   width="31.5"
   height="40"
   inkscape:version="1.3.2 (091e20e, 2023-11-25, custom)"
   xmlns:inkscape="http://www.inkscape.org/namespaces/inkscape"
   xmlns:sodipodi="http://sodipodi.sourceforge.net/DTD/sodipodi-0.dtd"
   xmlns="http://www.w3.org/2000/svg"
   xmlns:svg="http://www.w3.org/2000/svg"><defs
   id="defs2" /><sodipodi:namedview
   id="namedview2"
   pagecolor="#ffffff"
   bordercolor="#000000"
   borderopacity="0.25"
   inkscape:showpageshadow="2"
   inkscape:pageopacity="0.0"
   inkscape:pagecheckerboard="0"
   inkscape:deskcolor="#d1d1d1"
   inkscape:zoom="45.475"
   inkscape:cx="15.744915"
   inkscape:cy="20"
   inkscape:window-width="3840"
   inkscape:window-height="2054"
   inkscape:window-x="2869"
   inkscape:window-y="-11"
   inkscape:window-maximized="1"
   inkscape:current-layer="Layer_1" />
<path
   style="fill:#ffffff"
   d="m 31.5,21.2 c 0,-0.7 -0.3,-1.3 -0.9,-1.7 l -7.3,-4.8 c 0.3,-1.1 0.3,-2.1 0,-3.2 -0.2,-0.8 -0.6,-2 -1.9,-3.2 v 0 C 20.7,7.7 20.1,7.4 19.7,7.2 19.7,6.6 19.7,5.9 19.5,5.1 19.1,2.9 17.8,1.8 16.9,1.1 15.6,0.1 14.4,0 13.9,0 V 0 H 13.7 C 13,0 12.3,0.5 12,1.2 c -0.3,0.7 -0.2,1.4 0.2,2 0.2,0.3 0.3,0.5 0.4,1 0,0.6 0,1 -0.1,1.5 C 12.3,6.1 11.6,6.8 11,7.3 10.7,7.6 10.4,7.8 10.2,8.1 9.2,9.1 8.1,10.3 7.3,12 6.6,13.4 6.4,14.6 6.4,15.8 6.3,15.8 6.1,15.9 6,16 L 0.9,19.5 C 0.4,19.9 0,20.5 0,21.2 v 5.2 c 0,0.6 0.3,1.1 0.7,1.5 l 13.7,11.6 c 0.4,0.3 0.8,0.5 1.3,0.5 0.5,0 0.9,-0.2 1.3,-0.5 L 30.8,27.9 c 0.5,-0.4 0.7,-0.9 0.7,-1.5 v -1.8 c 0,-0.3 0,-0.6 -0.2,-0.9 0.1,-0.3 0.2,-0.6 0.2,-0.9 z"
   id="path1" />
<path
   style="fill:#004682"
   d="m 15.2,25.9 c -0.3,-0.9 -0.4,-1.2 -0.4,-2.3 0,-2.2 2.3,-3.9 2.3,-3.9 1.6,-1.4 2.6,-2.6 2.8,-3.9 0.2,-1.2 -0.3,-2.7 -0.3,-2.7 0.6,0.2 0.9,0.4 1.1,0.7 0.3,0.3 0.5,0.7 0.5,0.7 0.3,-1 0.3,-1.8 0,-2.6 -0.2,-0.8 -0.5,-1.5 -1.3,-2.2 -0.9,-0.8 -1.6,-1 -1.6,-1 0.2,0.4 0.3,1 0.3,2.2 -0.1,1.2 -0.4,1.9 -1.2,2.9 -0.7,1 -2.3,2.2 -3.1,3.5 -0.9,1.1 -1.2,2.2 -1.2,3.1 0,1.4 0.5,2.8 0.5,2.8 -0.5,-0.3 -1.2,-0.9 -1.6,-1.6 -0.5,-0.9 -0.7,-1.6 -0.7,-3.1 0,-1.2 0.5,-3.1 1.4,-4.3 0.7,-0.9 2.4,-2.6 3.1,-3.9 0.7,-1.3 0.5,-2 0.5,-2.6 0,-0.6 -0.3,-1.3 -0.3,-1.3 0.4,0 0.9,0.3 1,0.5 0.3,0.3 0.5,0.5 0.5,0.5 0,-0.4 0.1,-1.1 0,-2 C 17.2,4 16.6,3.2 15.7,2.6 14.7,1.8 13.9,1.9 13.9,1.9 c 0.4,0.5 0.7,1 0.8,1.8 0.1,0.8 0.1,1.6 -0.3,2.6 -0.5,1.1 -1.8,2.1 -2.7,3.1 -0.9,1 -1.8,2 -2.5,3.3 -0.8,1.6 -0.9,2.9 -0.6,4.5 0.3,1.9 1.4,3.1 1.4,3.1 C 9.2,20 8.6,19.5 8.1,19.1 7.6,18.6 7.4,18.1 7.2,17.6 l -5.1,3.5 v 5.2 L 15.8,37.9 29.6,26.3 V 24.5 L 15.9,36 V 34.2 L 29.6,22.7 v -1.6 l -7.5,-5 c 0.1,0.5 0.3,1.8 -0.5,3.3 -0.9,1.9 -3.1,3.5 -3.9,3.9 -0.9,0.5 -1.3,1 -1.4,1.6 0,0.3 -0.2,0.7 0,1.1 v 0 c 0.9,0.2 1.6,1 1.6,2 0,1 -0.9,2.1 -2.1,2.1 -1.2,0 -2.1,-0.9 -2.1,-2.1 0,-1.1 0.7,-2 1.6,-2.2 v 0 z"
   id="path2" />
</svg>
