<?xml version="1.0" encoding="UTF-8" standalone="no"?>
<!-- Generator: Adobe Illustrator 29.4.0, SVG Export Plug-In . SVG Version: 9.03 Build 0)  -->

<svg
   version="1.1"
   id="Layer_1"
   x="0px"
   y="0px"
   viewBox="0 0 48 48"
   xml:space="preserve"
   sodipodi:docname="poi014_c.svg"
   width="48"
   height="48"
   inkscape:version="1.3.2 (091e20e, 2023-11-25, custom)"
   xmlns:inkscape="http://www.inkscape.org/namespaces/inkscape"
   xmlns:sodipodi="http://sodipodi.sourceforge.net/DTD/sodipodi-0.dtd"
   xmlns="http://www.w3.org/2000/svg"
   xmlns:svg="http://www.w3.org/2000/svg"><defs
   id="defs5" /><sodipodi:namedview
   id="namedview5"
   pagecolor="#ffffff"
   bordercolor="#000000"
   borderopacity="0.25"
   inkscape:showpageshadow="2"
   inkscape:pageopacity="0.0"
   inkscape:pagecheckerboard="0"
   inkscape:deskcolor="#d1d1d1"
   inkscape:zoom="37.895833"
   inkscape:cx="23.986806"
   inkscape:cy="24"
   inkscape:window-width="3840"
   inkscape:window-height="2054"
   inkscape:window-x="2869"
   inkscape:window-y="-11"
   inkscape:window-maximized="1"
   inkscape:current-layer="Layer_1" />
<path
   style="fill:#ffffff"
   d="M 24,0 C 10.8,0 0,10.8 0,24 0,37.2 10.8,48 24,48 37.2,48 48,37.2 48,24 48,10.8 37.2,0 24,0 Z"
   id="path1" />
<g
   id="g5">
	<path
   style="fill:none"
   d="M 29.4,7.8 24,14.3 18.6,7.8 C 11.8,10.1 6.9,16.5 6.9,24 c 0,7.5 4.9,14 11.7,16.2 l 5.4,-6.5 5.4,6.5 C 36.2,37.9 41.1,31.5 41.1,24 41.1,16.5 36.2,10 29.4,7.8 Z"
   id="path2" />
	<path
   d="M 29.4,7.8 C 27.7,7.2 25.9,6.9 24,6.9 c -1.9,0 -3.7,0.3 -5.4,0.9 l 5.4,6.5 z"
   id="path3" />
	<path
   d="m 18.6,40.2 c 1.7,0.6 3.5,0.9 5.4,0.9 1.9,0 3.7,-0.3 5.4,-0.9 L 24,33.7 Z"
   id="path4" />
	<path
   style="fill:#ff0000"
   d="M 24,2 C 11.9,2 2,11.9 2,24 2,36.1 11.9,46 24,46 36.1,46 46,36.1 46,24 46,11.9 36.2,2 24,2 Z m 5.4,38.2 c -1.7,0.6 -3.5,0.9 -5.4,0.9 -1.9,0 -3.7,-0.3 -5.4,-0.9 C 11.8,37.9 6.9,31.5 6.9,24 6.9,16.5 11.8,10 18.6,7.8 20.3,7.2 22.1,6.9 24,6.9 c 1.9,0 3.7,0.3 5.4,0.9 6.8,2.3 11.7,8.7 11.7,16.2 0,7.5 -4.9,14 -11.7,16.2 z"
   id="path5" />
</g>
</svg>
