<?xml version="1.0" encoding="UTF-8" standalone="no"?>
<!-- Generator: Adobe Illustrator 29.4.0, SVG Export Plug-In . SVG Version: 9.03 Build 0)  -->

<svg
   version="1.1"
   id="Layer_1"
   x="0px"
   y="0px"
   viewBox="0 0 43 41.6"
   xml:space="preserve"
   sodipodi:docname="poi044_c.svg"
   width="43"
   height="41.599998"
   inkscape:version="1.3.2 (091e20e, 2023-11-25, custom)"
   xmlns:inkscape="http://www.inkscape.org/namespaces/inkscape"
   xmlns:sodipodi="http://sodipodi.sourceforge.net/DTD/sodipodi-0.dtd"
   xmlns="http://www.w3.org/2000/svg"
   xmlns:svg="http://www.w3.org/2000/svg"><defs
   id="defs9" /><sodipodi:namedview
   id="namedview9"
   pagecolor="#ffffff"
   bordercolor="#000000"
   borderopacity="0.25"
   inkscape:showpageshadow="2"
   inkscape:pageopacity="0.0"
   inkscape:pagecheckerboard="0"
   inkscape:deskcolor="#d1d1d1"
   inkscape:zoom="43.725963"
   inkscape:cx="21.497525"
   inkscape:cy="20.799999"
   inkscape:window-width="3840"
   inkscape:window-height="2054"
   inkscape:window-x="2869"
   inkscape:window-y="-11"
   inkscape:window-maximized="1"
   inkscape:current-layer="Layer_1" />
<path
   style="fill:#ffffff"
   d="m 41.2,0 v 0 0 c 0,0 -0.2,0 -0.3,0 l -15,2.3 c -0.7,0.1 -1.4,0.6 -1.6,1.4 -0.2,0.8 0,1.5 0.5,2 l 0.7,0.7 -2.8,2.8 -1.4,1.4 v 0 l -4.9,4.9 v 0 l -2.1,2.1 v 0 l -2.8,2.8 v 0 l -0.4,0.4 h -0.5 l 0.3,-2.1 c 0.2,-1.1 -0.6,-2.1 -1.7,-2.3 l -2,-0.3 c -0.1,0 -0.2,0 -0.3,0 -0.4,0 -0.8,0.1 -1.2,0.4 -0.4,0.3 -0.7,0.8 -0.8,1.3 l -0.3,2 -2,-0.3 c -0.1,0 -0.2,0 -0.3,0 -1,0 -1.8,0.7 -2,1.7 l -0.3,2 c 0,0.5 0,1.1 0.4,1.5 0.3,0.4 0.8,0.7 1.3,0.8 l 2.4,0.4 c 0.3,1.9 1.1,3.7 2.5,5 1.4,1.3 3.7,2.5 5.9,2.6 l -3.3,3.3 c -0.8,0.8 -0.8,2 0,2.8 l 1.4,1.4 c 0.4,0.4 0.9,0.6 1.4,0.6 0.5,0 1,-0.2 1.4,-0.6 l 9.2,-9.2 v 0 L 25.4,29 v 0 l 2.1,-2.1 v 0 l 5.7,-5.7 1.3,-1.3 v 0 l 1.4,-1.4 v 0 l 0.4,-0.4 0.3,-0.3 0.7,0.7 c 0.4,0.4 0.9,0.6 1.4,0.6 0.5,0 0.4,0 0.6,0 0.7,-0.2 1.2,-0.9 1.4,-1.6 l 0.7,-4.3 0.2,-0.2 c 0.5,-0.5 0.7,-1.2 0.5,-1.8 0,-0.3 -0.2,-0.5 -0.3,-0.7 L 43,2.7 c 0,-0.1 0,-0.3 0,-0.4 0,-1.1 -0.9,-2 -2,-2 z"
   id="path1" />
<g
   id="g9">
	<polygon
   style="fill:none"
   points="24.7,12.9 23.3,14.3 31.3,17.6 32.7,16.2 "
   id="polygon1" />
	<polygon
   style="fill:none"
   points="35.4,13.5 33.4,11.5 28.2,9.3 26.8,10.7 34.8,14 "
   id="polygon2" />
	<polygon
   style="fill:none"
   points="16.2,21.3 24.2,24.6 25.6,23.2 17.6,19.9 "
   id="polygon3" />
	<polygon
   style="fill:none"
   points="29.2,19.7 21.2,16.4 19.7,17.8 27.8,21.1 "
   id="polygon4" />
	<polygon
   style="fill:none"
   points="21.3,27.6 22.1,26.8 19.3,25.6 "
   id="polygon5" />
	<path
   d="m 16.5,28.1 c -0.9,0.9 -2.2,1.5 -3.5,1.5 -1.3,0 -2.6,-0.5 -3.5,-1.5 -0.9,-1 -1.7,-2.9 -1.4,-4.5 l -2,-0.4 c -0.5,2.3 0.2,4.7 1.9,6.3 1.3,1.3 3.1,2 4.9,2 1.8,0 3.6,-0.7 5,-2 l 1.2,-1.2 -1.4,-1.4 z"
   id="path5" />
	<path
   style="fill:#e4151c"
   d="m 35.4,13.5 -0.6,0.6 -8,-3.3 1.4,-1.4 5.2,2.1 -5.1,-5.1 -15.6,15.6 1.7,1.7 v 0 l 3.3,3.3 1.4,1.4 2.1,2.1 15.6,-15.6 z m -2.7,2.7 -1.4,1.4 -8,-3.3 1.4,-1.4 z m -15.1,3.7 8,3.3 -1.4,1.4 -8,-3.3 z m 10.2,1.2 -8,-3.3 1.4,-1.4 8,3.3 z m -5.7,5.7 -0.8,0.8 -2,-2 z"
   id="path6" />
	<rect
   x="9.382"
   y="33.275002"
   transform="matrix(0.7071,-0.7071,0.7071,0.7071,-19.57,21.3047)"
   width="13.1"
   height="2"
   id="rect6" />
	<rect
   x="9.6280003"
   y="22.337"
   transform="matrix(0.1513,-0.9885,0.9885,0.1513,-14.5421,30.7376)"
   width="2"
   height="3"
   id="rect7" />
	<rect
   x="2.582"
   y="21.290001"
   transform="matrix(0.1513,-0.9885,0.9885,0.1513,-19.4876,22.8839)"
   width="2"
   height="3"
   id="rect8" />
	<rect
   x="6.1209998"
   y="18.898001"
   transform="matrix(0.1513,-0.9885,0.9885,0.1513,-13.2007,24.4208)"
   width="3"
   height="2"
   id="rect9" />
	<polygon
   points="28.3,6.4 33.4,11.5 35.4,13.5 36.8,14.9 38.9,17 41.2,2 26.2,4.3 "
   id="polygon9" />
</g>
</svg>
