<?xml version="1.0" encoding="UTF-8" standalone="no"?>
<!-- Generator: Adobe Illustrator 29.4.0, SVG Export Plug-In . SVG Version: 9.03 Build 0)  -->

<svg
   version="1.1"
   id="Layer_1"
   x="0px"
   y="0px"
   viewBox="0 0 40.076443 39.2"
   xml:space="preserve"
   sodipodi:docname="poi033_c.svg"
   width="40.076443"
   height="39.200001"
   inkscape:version="1.3.2 (091e20e, 2023-11-25, custom)"
   xmlns:inkscape="http://www.inkscape.org/namespaces/inkscape"
   xmlns:sodipodi="http://sodipodi.sourceforge.net/DTD/sodipodi-0.dtd"
   xmlns="http://www.w3.org/2000/svg"
   xmlns:svg="http://www.w3.org/2000/svg"><defs
   id="defs7" /><sodipodi:namedview
   id="namedview7"
   pagecolor="#ffffff"
   bordercolor="#000000"
   borderopacity="0.25"
   inkscape:showpageshadow="2"
   inkscape:pageopacity="0.0"
   inkscape:pagecheckerboard="0"
   inkscape:deskcolor="#d1d1d1"
   inkscape:zoom="46.40306"
   inkscape:cx="20.041782"
   inkscape:cy="19.6"
   inkscape:window-width="3840"
   inkscape:window-height="2054"
   inkscape:window-x="2869"
   inkscape:window-y="-11"
   inkscape:window-maximized="1"
   inkscape:current-layer="Layer_1" />
<path
   style="fill:#ffffff"
   d="m 37.576444,33.4 c -0.1,0 -0.3,0 -0.4,0 h -1.8 l -2,-3.8 c -0.4,-0.8 -1.2,-1.4 -2.1,-1.5 -0.1,0 -0.3,0 -0.4,0 -0.8,0 -1.5,0.3 -2,0.8 l -1.6,1.6 -1.7,-2.1 c -0.3,-0.4 -0.7,-0.7 -1.1,-0.9 0,-0.2 0,-0.5 0,-0.8 0,-2.3 -1.7,-4.1 -4,-4.3 1,-1.1 1.5,-2.5 1.4,-4.1 0,-0.6 -0.2,-1.1 -0.4,-1.7 1.4,-1.9 1.5,-4.5 0.1,-6.5 -0.3,-0.4 -0.6,-0.8 -1,-1.1 0.6,-2 0,-4.2 -1.5,-5.7 -1,-0.9 -2.4,-1.5 -3.7,-1.5 -1.3,0 -0.4,0 -0.5,0 -1,-1.1 -2.4,-1.8 -4,-1.8 -1.6000003,0 -1.3000003,0.1 -1.9000003,0.4 -0.9,0.4 -1.7,0.9 -2.3,1.7 0,0 -0.1,0 -0.2,0 -1.9,0 -3.6,1.1 -4.4,2.8 -0.6,1.3 -0.6,2.8 0,4 -1.39999997,1.3 -2.19999997,3.2 -1.99999997,5.1 0.1,0.8 0.4,1.6 0.8,2.3 -1.2,1.9 -1.2,4.4 0.19999997,6.3 0.8,1.1 1.9,1.9 3.2,2.2 0.8,1.1 2,1.8 3.3,2.1 l -0.4,9.9 c 0,0.6 0.2,1.2 0.6,1.6 0.4,0.5 1,0.7 1.6,0.8 0,0 0,0 0.1,0 h 3.4000003 c 0.9,0 1.6,-0.5 2,-1.2 0.2,0.3 0.5,0.6 0.9,0.8 0.4,0.2 0.9,0.4 1.4,0.4 h 3 c 0.8,0 1.6,-0.3 2.1,-0.9 0.5,0.6 1.2,0.9 1.9,0.9 0,0 0.2,0 0.3,0 h 12.7 c 1.6,0 2.9,-1.3 2.9,-2.9 0,-1.4 -1.1,-2.7 -2.5,-2.9 z"
   id="path1" />
<g
   id="g4"
   transform="translate(4.4373325e-4)">
	<path
   style="fill:#93572b"
   d="m 18.976,16.4 c 1.7,-1.1 2.1,-3.4 1,-5.1 -0.5,-0.7 -1.2,-1.2 -2,-1.5 1.3,-1.4 1.2,-3.6 -0.2,-4.9 -1,-1 -2.5,-1.2 -3.8,-0.6 -0.7,-1.7 -2.6,-2.5 -4.3,-1.9 -0.9,0.4 -1.7,1.1 -2,2.1 -1.4,-0.7 -3.2,0 -3.8,1.4 -0.7,1.4 0,3.2 1.4,3.8 -2,0.3 -3.4,2.1 -3.2,4.1 0.1,1 0.7,1.9 1.5,2.5 -1.7,1.2 -2,3.5 -0.9,5.1 0.6,0.9 1.7,1.5 2.8,1.5 0.6,1.3 1.9,2 3.3,2 0.3,0 0.6,0 0.9,-0.1 l -0.5,11.9 c 0,0.2 0.1,0.3 0.3,0.3 v 0 h 3.4 c 0.2,0 0.3,-0.1 0.3,-0.3 v 0 l -0.5,-12.4 c 0.4,0.2 0.8,0.2 1.2,0.2 1.5,0 2.7,-1 3,-2.5 1.9,-0.2 3.3,-1.8 3.1,-3.7 0,-0.8 -0.4,-1.5 -1,-2.1 v 0 z"
   id="path2" />
	<path
   style="fill:#93572b"
   d="m 22.476,26.7 c 0,1.3 -1,2.3 -2.3,2.3 -1.3,0 -2.3,-1 -2.3,-2.3 0,-1.3 1,-2.3 2.3,-2.3 1.3,0 2.3,1 2.3,2.3 z"
   id="path3" />
	<path
   style="fill:#93572b"
   d="m 37.176,35.4 h -3 l -2.5,-4.9 c -0.1,-0.3 -0.4,-0.4 -0.7,-0.5 -0.3,0 -0.6,0 -0.8,0.2 l -3.2,3.1 -3.1,-3.9 c -0.4,-0.5 -1,-0.7 -1.6,-0.4 0,0 -2.2,0.9 -2.3,0.9 -0.4,0.1 -0.7,0.4 -0.9,0.8 l -2.8,4.9 c -0.2,0.4 0,1 0.3,1.2 0.1,0 0.3,0.1 0.4,0.1 h 3 c 0.5,0 0.9,-0.4 0.9,-0.9 0,-0.5 -0.4,-0.9 -0.9,-0.9 h -1.5 l 1.7,-3 3.4,4.6 c 0.1,0.2 0.4,0.3 0.6,0.3 0,0 0.1,0 0.2,0 h 12.7 c 0.5,0 0.9,-0.4 0.9,-0.9 0,-0.5 -0.4,-0.9 -0.9,-0.9 v 0 z m -6.6,-3 1.5,2.9 h -4.5 z"
   id="path4" />
</g>
<g
   id="g7"
   transform="translate(4.4373325e-4)">
	<path
   style="fill:#93572b"
   d="m 18.976,16.4 c 1.7,-1.1 2.1,-3.4 1,-5.1 -0.5,-0.7 -1.2,-1.2 -2,-1.5 1.3,-1.4 1.2,-3.6 -0.2,-4.9 -1,-1 -2.5,-1.2 -3.8,-0.6 -0.7,-1.7 -2.6,-2.5 -4.3,-1.9 -0.9,0.4 -1.7,1.1 -2,2.1 -1.4,-0.7 -3.2,0 -3.8,1.4 -0.7,1.4 0,3.2 1.4,3.8 -2,0.3 -3.4,2.1 -3.2,4.1 0.1,1 0.7,1.9 1.5,2.5 -1.7,1.2 -2,3.5 -0.9,5.1 0.6,0.9 1.7,1.5 2.8,1.5 0.6,1.3 1.9,2 3.3,2 0.3,0 0.6,0 0.9,-0.1 l -0.5,11.9 c 0,0.2 0.1,0.3 0.3,0.3 v 0 h 3.4 c 0.2,0 0.3,-0.1 0.3,-0.3 v 0 l -0.5,-12.4 c 0.4,0.2 0.8,0.2 1.2,0.2 1.5,0 2.7,-1 3,-2.5 1.9,-0.2 3.3,-1.8 3.1,-3.7 0,-0.8 -0.4,-1.5 -1,-2.1 v 0 z"
   id="path5" />
	<path
   style="fill:#93572b"
   d="m 22.476,26.7 c 0,1.3 -1,2.3 -2.3,2.3 -1.3,0 -2.3,-1 -2.3,-2.3 0,-1.3 1,-2.3 2.3,-2.3 1.3,0 2.3,1 2.3,2.3 z"
   id="path6" />
	<path
   style="fill:#93572b"
   d="m 37.176,35.4 h -3 l -2.5,-4.9 c -0.1,-0.3 -0.4,-0.4 -0.7,-0.5 -0.3,0 -0.6,0 -0.8,0.2 l -3.2,3.1 -3.1,-3.9 c -0.4,-0.5 -1,-0.7 -1.6,-0.4 0,0 -2.2,0.9 -2.3,0.9 -0.4,0.1 -0.7,0.4 -0.9,0.8 l -2.8,4.9 c -0.2,0.4 0,1 0.3,1.2 0.1,0 0.3,0.1 0.4,0.1 h 3 c 0.5,0 0.9,-0.4 0.9,-0.9 0,-0.5 -0.4,-0.9 -0.9,-0.9 h -1.5 l 1.7,-3 3.4,4.6 c 0.1,0.2 0.4,0.3 0.6,0.3 0,0 0.1,0 0.2,0 h 12.7 c 0.5,0 0.9,-0.4 0.9,-0.9 0,-0.5 -0.4,-0.9 -0.9,-0.9 v 0 z m -6.6,-3 1.5,2.9 h -4.5 z"
   id="path7" />
</g>
</svg>
