<?xml version="1.0" encoding="UTF-8" standalone="no"?>
<!-- Generator: Adobe Illustrator 29.4.0, SVG Export Plug-In . SVG Version: 9.03 Build 0)  -->

<svg
   version="1.1"
   id="Layer_1"
   x="0px"
   y="0px"
   viewBox="0 0 35.927072 38.4"
   xml:space="preserve"
   sodipodi:docname="poi032_c.svg"
   width="35.927071"
   height="38.400002"
   inkscape:version="1.3.2 (091e20e, 2023-11-25, custom)"
   xmlns:inkscape="http://www.inkscape.org/namespaces/inkscape"
   xmlns:sodipodi="http://sodipodi.sourceforge.net/DTD/sodipodi-0.dtd"
   xmlns="http://www.w3.org/2000/svg"
   xmlns:svg="http://www.w3.org/2000/svg"><defs
   id="defs2" /><sodipodi:namedview
   id="namedview2"
   pagecolor="#ffffff"
   bordercolor="#000000"
   borderopacity="0.25"
   inkscape:showpageshadow="2"
   inkscape:pageopacity="0.0"
   inkscape:pagecheckerboard="0"
   inkscape:deskcolor="#d1d1d1"
   inkscape:zoom="47.36979"
   inkscape:cx="17.965036"
   inkscape:cy="19.200001"
   inkscape:window-width="3840"
   inkscape:window-height="2054"
   inkscape:window-x="2869"
   inkscape:window-y="-11"
   inkscape:window-maximized="1"
   inkscape:current-layer="Layer_1" />
<path
   style="fill:#ffffff"
   d="m 35.102206,4.8 -0.4,-0.3 c -0.4,-0.3 -0.8,-0.5 -1.2,-0.5 -0.1,-0.4 -0.4,-0.8 -0.7,-1.1 l -0.5,-0.4 c -0.3,-0.3 -0.8,-0.5 -1.2,-0.5 -0.1,-0.4 -0.4,-0.8 -0.7,-1.1 v 0 l -0.5,-0.4 c -0.4,-0.3 -1,-0.5 -1.5,-0.5 v 0 c -0.7,0 -1.4,0.3 -1.9,0.9 l -8.1,9.6 c 0,0 0,0.1 -0.1,0.2 -0.7,1.1 -0.8,2.5 -0.3,3.7 l 0.4,0.9 -0.4,0.4 -0.9,-1 c 1.2,-3 0.3,-6.9 -2.2,-9.9 -2.3,-2.6 -5.3000001,-4.2 -8.1000001,-4.2 -1.7,0 -3.2,0.5 -4.4,1.5 -3.30000002,2.8 -3.20000002,8.3 0.3,12.5 2.1,2.5 5.1,4.1 7.9000001,4.1 2.8,0 1,0 1.5,-0.2 l 1.3,1.7 -10.7000001,11.5 c -1.1,1.2 -1,3.1 0.2,4.2 v 0 l 1.9,1.7 c 0.5,0.5 1.2,0.7 1.9,0.7 0.7,0 1.7,-0.4 2.2,-1 0,0 0,0 0.1,-0.1 l 8.7000001,-11.3 8.7,11.3 c 0.6,0.7 1.4,1.2 2.3,1.2 0.9,0 1.3,-0.2 1.8,-0.6 0,0 0,0 0.1,-0.1 l 1.9,-1.7 c 1.2,-1 1.4,-2.9 0.3,-4.1 0,0 0,0 -0.1,-0.1 l -10.7,-11.5 0.9,-1.1 0.9,0.2 c 0.3,0 0.6,0.1 1,0.1 1.1,0 2.1,-0.4 2.7,-1.2 l 7.9,-10 c 0.8,-1 0.7,-2.6 -0.4,-3.4 v 0 z"
   id="path1" />
<path
   style="fill:#0056a4"
   d="m 24.402206,17.4 c 0.6,0.1 1.3,0 1.7,-0.4 l 7.8,-10 c 0.2,-0.2 0.1,-0.5 0,-0.6 v 0 l -0.4,-0.4 c -0.2,-0.2 -0.5,-0.1 -0.7,0 l -5.7,6.9 c -0.2,0.2 -0.6,0.3 -0.8,0 l -0.4,-0.3 c -0.2,-0.2 -0.3,-0.6 0,-0.8 v 0 l 5.7,-6.9 c 0.2,-0.2 0.1,-0.5 0,-0.7 v 0 l -0.4,-0.4 c -0.2,-0.2 -0.5,-0.1 -0.6,0 l -5.7,6.9 c -0.2,0.2 -0.6,0.3 -0.8,0 l -0.4,-0.3 c -0.2,-0.2 -0.3,-0.6 0,-0.8 v 0 l 5.7,-6.9 c 0.2,-0.2 0.1,-0.5 0,-0.7 v 0 l -0.6,-0.5 c -0.2,-0.2 -0.5,-0.1 -0.7,0 l -8.1,9.6 c -0.4,0.5 -0.4,1.2 -0.1,1.8 l 1,2.1 -2.7,3 -2.5,-2.7 c -0.5,-0.5 -0.6,-1.2 -0.3,-1.9 0.9,-2.2 0.3,-5.4 -1.8,-7.9 -3.2,-2.8 -7.4000001,-3.9 -9.9000001,-1.8 -2.5,2.1 -2.2,6.4 0.5,9.7 2.1,2.6 5.1,3.8 7.5000001,3.2 0.7,-0.2 1.4,0 1.8,0.6 l 2.4,3.2 -11.9000001,12.7 c -0.4,0.4 -0.3,1 0,1.4 v 0 l 1.9,1.7 c 0.4,0.3 1,0.3 1.3,0 v 0 l 10.3000001,-13.4 10.2,13.4 c 0.3,0.4 0.9,0.5 1.3,0.2 v 0 l 1.9,-1.7 c 0.4,-0.3 0.4,-0.9 0.1,-1.3 v 0 l -11.9,-12.7 2.7,-3.5 0.755,-0.922 z"
   id="path2" />
</svg>
