<?xml version="1.0" encoding="UTF-8" standalone="no"?>
<!-- Generator: Adobe Illustrator 29.4.0, SVG Export Plug-In . SVG Version: 9.03 Build 0)  -->

<svg
   version="1.1"
   id="Layer_1"
   x="0px"
   y="0px"
   viewBox="0 0 48 48"
   xml:space="preserve"
   sodipodi:docname="poi042_c.svg"
   width="48"
   height="48"
   inkscape:version="1.3.2 (091e20e, 2023-11-25, custom)"
   xmlns:inkscape="http://www.inkscape.org/namespaces/inkscape"
   xmlns:sodipodi="http://sodipodi.sourceforge.net/DTD/sodipodi-0.dtd"
   xmlns="http://www.w3.org/2000/svg"
   xmlns:svg="http://www.w3.org/2000/svg"><defs
   id="defs4" /><sodipodi:namedview
   id="namedview4"
   pagecolor="#ffffff"
   bordercolor="#000000"
   borderopacity="0.25"
   inkscape:showpageshadow="2"
   inkscape:pageopacity="0.0"
   inkscape:pagecheckerboard="0"
   inkscape:deskcolor="#d1d1d1"
   inkscape:zoom="37.895833"
   inkscape:cx="23.986806"
   inkscape:cy="24"
   inkscape:window-width="3840"
   inkscape:window-height="2054"
   inkscape:window-x="2869"
   inkscape:window-y="-11"
   inkscape:window-maximized="1"
   inkscape:current-layer="Layer_1" />
<path
   style="fill:#ffffff"
   d="M 24,0 C 10.8,0 0,10.8 0,24 0,37.2 10.8,48 24,48 37.2,48 48,37.2 48,24 48,10.8 37.2,0 24,0 Z"
   id="path1" />
<g
   id="g2">
	<circle
   style="fill:#e4151c"
   cx="24"
   cy="24"
   id="ellipse1"
   r="22" />
	<circle
   style="fill:#ffffff"
   cx="24.042"
   cy="24.042"
   id="ellipse2"
   r="17.1" />
	
		<rect
   x="21.441"
   y="3.5"
   transform="matrix(0.7071,-0.7071,0.7071,0.7071,-9.9584,23.9584)"
   style="fill:#e4151c"
   width="5"
   height="41"
   id="rect2" />
	<polygon
   points="18.6,21.2 18.6,12 13,12 13,21.2 13,26.8 13,36 18.6,36 18.6,26.8 29.4,26.8 29.4,36 35,36 35,12 29.4,12 29.4,21.2 "
   id="polygon2" />
</g>
<g
   id="g4">
	<circle
   style="fill:#e4151c"
   cx="24"
   cy="24"
   id="ellipse3"
   r="22" />
	<circle
   style="fill:#ffffff"
   cx="24.042"
   cy="24.042"
   id="ellipse4"
   r="17.1" />
	
		<rect
   x="21.441"
   y="3.5"
   transform="matrix(0.7071,-0.7071,0.7071,0.7071,-9.9584,23.9584)"
   style="fill:#e4151c"
   width="5"
   height="41"
   id="rect4" />
	<polygon
   points="18.6,21.2 18.6,12 13,12 13,21.2 13,26.8 13,36 18.6,36 18.6,26.8 29.4,26.8 29.4,36 35,36 35,12 29.4,12 29.4,21.2 "
   id="polygon4" />
</g>
</svg>
