<?xml version="1.0" encoding="UTF-8" standalone="no"?>
<!-- Generator: Adobe Illustrator 29.4.0, SVG Export Plug-In . SVG Version: 9.03 Build 0)  -->

<svg
   version="1.1"
   id="Layer_1"
   x="0px"
   y="0px"
   viewBox="0 0 45.3 40.6"
   xml:space="preserve"
   sodipodi:docname="poi036_c.svg"
   width="45.299999"
   height="40.599998"
   inkscape:version="1.3.2 (091e20e, 2023-11-25, custom)"
   xmlns:inkscape="http://www.inkscape.org/namespaces/inkscape"
   xmlns:sodipodi="http://sodipodi.sourceforge.net/DTD/sodipodi-0.dtd"
   xmlns="http://www.w3.org/2000/svg"
   xmlns:svg="http://www.w3.org/2000/svg"><defs
   id="defs2" /><sodipodi:namedview
   id="namedview2"
   pagecolor="#ffffff"
   bordercolor="#000000"
   borderopacity="0.25"
   inkscape:showpageshadow="2"
   inkscape:pageopacity="0.0"
   inkscape:pagecheckerboard="0"
   inkscape:deskcolor="#d1d1d1"
   inkscape:zoom="44.802957"
   inkscape:cx="22.654755"
   inkscape:cy="20.299999"
   inkscape:window-width="3840"
   inkscape:window-height="2054"
   inkscape:window-x="2869"
   inkscape:window-y="-11"
   inkscape:window-maximized="1"
   inkscape:current-layer="Layer_1" />
<path
   style="fill:#ffffff"
   d="M 44.05,9.4 23.45,0.2 C 23.15,0.1 22.95,0 22.65,0 c -0.3,0 -0.6,0 -0.8,0.2 L 1.25,9.4 c -0.5,0.2 -0.9,0.6 -1.1,1.1 -0.2,0.5 -0.2,1 0,1.5 l 0.9,1.9 c 0.3,0.7 1.1,1.2 1.8,1.2 0.7,0 0.5,0 0.8,-0.2 v 23.7 c 0,1.1 0.9,2 2,2 h 34 c 1.1,0 2,-0.9 2,-2 V 15 c 0.2,0.1 0.5,0.2 0.8,0.2 0.8,0 1.5,-0.4 1.8,-1.2 l 0.9,-1.9 c 0.2,-0.5 0.2,-1 0,-1.5 -0.2,-0.5 -0.6,-0.9 -1.1,-1.1 V 9.4 Z"
   id="path1" />
<g
   id="g2">
	<polygon
   style="fill:#00af6b"
   points="7.75,36.6 37.55,36.6 37.55,11 22.65,4.3 7.75,11 "
   id="polygon1" />
	<path
   d="M 43.25,11.2 22.65,2 l -20.6,9.2 0.9,1.9 2.8,-1.2 v 26.8 h 34 V 11.9 l 2.8,1.2 0.9,-1.9 z M 7.75,36.6 V 11 L 22.65,4.4 37.55,11 V 36.6 H 7.85 Z"
   id="path2" />
</g>
</svg>
