<?xml version="1.0" encoding="UTF-8" standalone="no"?>
<!-- Generator: Adobe Illustrator 29.4.0, SVG Export Plug-In . SVG Version: 9.03 Build 0)  -->

<svg
   version="1.1"
   id="Layer_1"
   x="0px"
   y="0px"
   viewBox="0 0 54.325 33.7"
   xml:space="preserve"
   sodipodi:docname="poi009_c.svg"
   width="54.325001"
   height="33.700001"
   inkscape:version="1.3.2 (091e20e, 2023-11-25, custom)"
   xmlns:inkscape="http://www.inkscape.org/namespaces/inkscape"
   xmlns:sodipodi="http://sodipodi.sourceforge.net/DTD/sodipodi-0.dtd"
   xmlns="http://www.w3.org/2000/svg"
   xmlns:svg="http://www.w3.org/2000/svg"><defs
   id="defs2" /><sodipodi:namedview
   id="namedview2"
   pagecolor="#ffffff"
   bordercolor="#000000"
   borderopacity="0.25"
   inkscape:showpageshadow="2"
   inkscape:pageopacity="0.0"
   inkscape:pagecheckerboard="0"
   inkscape:deskcolor="#d1d1d1"
   inkscape:zoom="53.97626"
   inkscape:cx="27.160089"
   inkscape:cy="16.85"
   inkscape:window-width="3840"
   inkscape:window-height="2054"
   inkscape:window-x="2869"
   inkscape:window-y="-11"
   inkscape:window-maximized="1"
   inkscape:current-layer="Layer_1" />
<path
   style="fill:#ffffff"
   d="m 45.3,16 c -0.4,-0.6 -1,-1 -1.7,-1 h -5.7 c -1.1,0 -2,0.9 -2,2 v 7.3 c -0.4,-0.1 -0.9,-0.2 -1.5,-0.2 -1.6,0 -2.6,0.6 -3.2,0.9 L 31,25.1 v 0 c 0,0 0,0 -0.1,0 -0.1,0 -0.1,0 -0.1,0 0,0 -0.1,0 -0.2,-0.1 -0.6,-0.3 -1.5,-0.9 -3.2,-0.9 -1.7,0 -2.6,0.6 -3.2,0.9 L 24,25.1 v 0 c 0,0 0,0 -0.1,0 -0.1,0 -0.1,0 -0.1,0 0,0 -0.1,0 -0.2,-0.1 -0.6,-0.3 -1.5,-0.9 -3.2,-0.9 -1.7,0 -1.1,0 -1.5,0.2 v -2.6 c 0.3,0.2 0.7,0.3 1,0.3 0.5,0 1,-0.2 1.4,-0.6 l 14.9,-15 c 0.8,-0.8 0.8,-2 0,-2.8 l -3,-3 C 32.8,0.2 32.3,0 31.8,0 v 0 c -0.5,0 -1,0.2 -1.4,0.6 L 16,15 h -4.9 c -0.7,0 -1.3,0.4 -1.7,1 L 0.3,30.7 c -0.4,0.6 -0.4,1.4 0,2 0.4,0.6 1,1 1.7,1 h 14.7 c 1.6,0 2.6,-0.6 3.2,-0.9 l 0.2,-0.1 v 0 c 0,0 0,0 0.1,0 0.1,0 0.1,0 0.1,0 0,0 0.1,0 0.2,0.1 0.6,0.3 1.5,0.9 3.2,0.9 1.7,0 2.6,-0.6 3.2,-0.9 l 0.2,-0.1 v 0 c 0,0 0,0 0.1,0 h 0.1 c 0,0 0.1,0 0.2,0.1 0.6,0.3 1.5,0.9 3.2,0.9 1.7,0 2.6,-0.6 3.2,-0.9 l 0.2,-0.1 v 0 c 0,0 0,0 0.1,0 0.1,0 0.1,0 0.1,0 0,0 0.1,0 0.2,0.1 0.6,0.3 1.5,0.9 3.2,0.9 h 14.7 c 0.7,0 1.4,-0.4 1.7,-1 0.3,-0.6 0.3,-1.4 0,-2 L 45.1,16 Z"
   id="path1" />
<g
   id="g2">
	<path
   style="fill:#e4151c"
   d="M 52.5,31.7 43.5,17 h -5.7 v 10.2 c -0.7,0 -1,-0.2 -1.4,-0.4 -0.5,-0.3 -1.1,-0.6 -2.2,-0.6 -1.1,0 -1.7,0.3 -2.2,0.6 -0.4,0.2 -0.7,0.4 -1.4,0.4 -0.7,0 -1,-0.2 -1.4,-0.4 -0.5,-0.3 -1.1,-0.6 -2.2,-0.6 -1.1,0 -1.7,0.3 -2.2,0.6 -0.4,0.2 -0.7,0.4 -1.4,0.4 -0.7,0 -1,-0.2 -1.4,-0.4 -0.5,-0.3 -1.1,-0.6 -2.2,-0.6 -1.1,0 -1.7,0.3 -2.2,0.6 -0.4,0.2 -0.7,0.4 -1.4,0.4 V 17 H 10.5 L 2,31.7 h 14.7 c 1.1,0 1.7,-0.3 2.2,-0.6 0.4,-0.2 0.7,-0.4 1.4,-0.4 0.7,0 1,0.2 1.4,0.4 0.5,0.3 1.1,0.6 2.2,0.6 1.1,0 1.7,-0.3 2.2,-0.6 0.4,-0.2 0.7,-0.4 1.4,-0.4 0.7,0 1,0.2 1.4,0.4 0.5,0.3 1.1,0.6 2.2,0.6 1.1,0 1.7,-0.3 2.2,-0.6 0.4,-0.2 0.7,-0.4 1.4,-0.4 0.7,0 1,0.2 1.4,0.4 0.5,0.3 1.1,0.6 2.2,0.6 H 39.1 53 Z M 34.3,29.1 c -1.1,0 -1.7,0.3 -2.2,0.6 -0.4,0.2 -0.7,0.4 -1.4,0.4 -0.7,0 -1,-0.2 -1.4,-0.4 -0.5,-0.3 -1.1,-0.6 -2.2,-0.6 -1.1,0 -1.7,0.3 -2.2,0.6 -0.4,0.2 -0.7,0.4 -1.4,0.4 -0.7,0 -1,-0.2 -1.4,-0.4 -0.5,-0.3 -1.1,-0.6 -2.2,-0.6 -1.1,0 -1.7,0.3 -2.2,0.6 -0.4,0.2 -0.7,0.4 -1.4,0.4 v -1.4 c 1.1,0 1.7,-0.3 2.2,-0.6 0.4,-0.2 0.7,-0.4 1.4,-0.4 0.7,0 1,0.2 1.4,0.4 0.5,0.3 1.1,0.6 2.2,0.6 1.1,0 1.7,-0.3 2.2,-0.6 0.4,-0.2 0.7,-0.4 1.4,-0.4 0.7,0 1,0.2 1.4,0.4 0.5,0.3 1.1,0.6 2.2,0.6 1.1,0 1.7,-0.3 2.2,-0.6 0.4,-0.2 0.7,-0.4 1.4,-0.4 0.7,0 1,0.2 1.4,0.4 0.5,0.3 1.1,0.6 2.2,0.6 v 1.4 c -0.7,0 -1,-0.2 -1.4,-0.4 -0.5,-0.3 -1.1,-0.6 -2.2,-0.6 z"
   id="path2" />
	
		<rect
   x="15.114"
   y="8.8149996"
   transform="matrix(0.7046,-0.7096,0.7096,0.7046,-0.1498,21.4701)"
   style="fill:#e4151c"
   width="21.200001"
   height="4.1999998"
   id="rect2" />
</g>
</svg>
