<?xml version="1.0" encoding="UTF-8" standalone="no"?>
<!-- Generator: Adobe Illustrator 29.4.0, SVG Export Plug-In . SVG Version: 9.03 Build 0)  -->

<svg
   version="1.1"
   id="Layer_1"
   x="0px"
   y="0px"
   viewBox="0 0 44.8 44.8"
   xml:space="preserve"
   sodipodi:docname="poi049_c.svg"
   width="44.799999"
   height="44.799999"
   inkscape:version="1.3.2 (091e20e, 2023-11-25, custom)"
   xmlns:inkscape="http://www.inkscape.org/namespaces/inkscape"
   xmlns:sodipodi="http://sodipodi.sourceforge.net/DTD/sodipodi-0.dtd"
   xmlns="http://www.w3.org/2000/svg"
   xmlns:svg="http://www.w3.org/2000/svg"><defs
   id="defs5" /><sodipodi:namedview
   id="namedview5"
   pagecolor="#ffffff"
   bordercolor="#000000"
   borderopacity="0.25"
   inkscape:showpageshadow="2"
   inkscape:pageopacity="0.0"
   inkscape:pagecheckerboard="0"
   inkscape:deskcolor="#d1d1d1"
   inkscape:zoom="40.602679"
   inkscape:cx="22.412314"
   inkscape:cy="22.4"
   inkscape:window-width="3840"
   inkscape:window-height="2054"
   inkscape:window-x="2869"
   inkscape:window-y="-11"
   inkscape:window-maximized="1"
   inkscape:current-layer="Layer_1" />
<path
   style="fill:#ffffff"
   d="M 22.4,0 C 10,0 0,10 0,22.4 0,34.8 10,44.8 22.4,44.8 34.8,44.8 44.8,34.8 44.8,22.4 44.8,10 34.8,0 22.4,0 Z"
   id="path1" />
<g
   id="g3">
	<circle
   cx="22.4"
   cy="22.4"
   r="3.5999999"
   id="circle1" />
	<path
   style="fill:#00af6b"
   d="m 22.4,34.4 c -6.6,0 -12,-5.4 -12,-12 0,-6.6 5.4,-12 12,-12 6.6,0 12,5.4 12,12 0,6.6 -5.4,12 -12,12 z m 0,-19.2 c -4,0 -7.2,3.2 -7.2,7.2 0,4 3.2,7.2 7.2,7.2 4,0 7.2,-3.2 7.2,-7.2 0,-4 -3.2,-7.2 -7.2,-7.2 z"
   id="path2" />
	<path
   style="fill:#00af6b"
   d="M 22.4,42.8 C 11.2,42.8 2,33.6 2,22.4 2,11.2 11.2,2 22.4,2 c 11.2,0 20.4,9.2 20.4,20.4 0,11.2 -9.2,20.4 -20.4,20.4 z m 0,-36 C 13.8,6.8 6.8,13.8 6.8,22.4 6.8,31 13.8,38 22.4,38 31,38 38,31 38,22.4 38,13.8 31,6.8 22.4,6.8 Z"
   id="path3" />
</g>
<g
   id="g5">
	<circle
   cx="22.4"
   cy="22.4"
   r="3.5999999"
   id="circle3" />
	<circle
   style="fill:none"
   cx="22.4"
   cy="22.4"
   r="9.6000004"
   id="circle4" />
	<circle
   style="fill:none"
   cx="22.4"
   cy="22.4"
   r="18"
   id="circle5" />
</g>
</svg>
