<?xml version="1.0" encoding="UTF-8" standalone="no"?>
<!-- Generator: Adobe Illustrator 29.4.0, SVG Export Plug-In . SVG Version: 9.03 Build 0)  -->

<svg
   version="1.1"
   id="Layer_1"
   x="0px"
   y="0px"
   viewBox="0 0 45.114465 37.5"
   xml:space="preserve"
   sodipodi:docname="poi010_c.svg"
   width="45.114464"
   height="37.5"
   inkscape:version="1.3.2 (091e20e, 2023-11-25, custom)"
   xmlns:inkscape="http://www.inkscape.org/namespaces/inkscape"
   xmlns:sodipodi="http://sodipodi.sourceforge.net/DTD/sodipodi-0.dtd"
   xmlns="http://www.w3.org/2000/svg"
   xmlns:svg="http://www.w3.org/2000/svg"><defs
   id="defs8" /><sodipodi:namedview
   id="namedview8"
   pagecolor="#ffffff"
   bordercolor="#000000"
   borderopacity="0.25"
   inkscape:showpageshadow="2"
   inkscape:pageopacity="0.0"
   inkscape:pagecheckerboard="0"
   inkscape:deskcolor="#d1d1d1"
   inkscape:zoom="48.506667"
   inkscape:cx="22.553601"
   inkscape:cy="18.75"
   inkscape:window-width="3840"
   inkscape:window-height="2054"
   inkscape:window-x="2869"
   inkscape:window-y="-11"
   inkscape:window-maximized="1"
   inkscape:current-layer="Layer_1" />
<path
   style="fill:#ffffff"
   d="m 44.076963,18.9 -3.4,-2.3 c 0,-0.1 0,-0.2 0,-0.3 v -4 c 0.3,-0.2 0.6,-0.4 0.9,-0.7 l 1.3,-2 c 0.6,-0.9 0.4,-2.2 -0.6,-2.8 l -9.8,-6.5 c -0.3,-0.2 -0.7,-0.3 -1.1,-0.3 -0.4,0 -0.4,0 -0.5,0 L 9.5769631,6.1 c -1.1,0.3 -1.7,1.4 -1.4,2.5 l 0.7,2.3 c 0,0.3 0.3,0.6 0.5,0.8 l -7.9,2.3 c -1.10000002,0.3 -1.70000002,1.4 -1.40000002,2.5 l 0.7,2.3 c 0.2,0.8 0.80000002,1.3 1.60000002,1.4 v 11.1 c 0,1.1 0.9,2 2,2 h 7.9999999 v 2.2 c 0,1.1 0.9,2 2,2 h 26.2 c 1.1,0 2,-0.9 2,-2 v -11 c 0.3,-0.2 0.6,-0.4 0.9,-0.7 l 1.3,-2 c 0.6,-0.9 0.4,-2.2 -0.6,-2.8 z"
   id="path1" />
<g
   id="g6"
   transform="translate(-3.6918233e-5)">
	<polygon
   style="fill:#93572b"
   points="16.677,33 38.077,33 38.077,19.5 40.477,20 40.477,35.4 14.277,35.4 14.277,20 16.677,20 "
   id="polygon1" />
	<polygon
   style="fill:#93572b"
   points="33.177,14.1 42.977,20.6 41.677,22.6 32.777,16.7 12.577,22.4 11.977,20.1 "
   id="polygon2" />
	<polygon
   style="fill:#93572b"
   points="10.777,10.3 12.477,9.9 12.477,11.5 14.877,10.8 14.877,9.2 30.977,4.6 36.277,8.2 36.277,14.8 38.677,16.3 38.677,9.7 39.877,10.5 41.177,8.5 31.377,2 10.177,8 "
   id="polygon3" />
	<polygon
   style="fill:#93572b"
   points="12.577,31.2 12.577,28.8 6.677,28.8 6.677,17 22.777,12.5 26.377,14.8 29.377,13.9 23.177,9.8 1.977,15.9 2.677,18.2 4.277,17.7 4.277,31.2 "
   id="polygon4" />
	<polygon
   style="fill:#93572b"
   points="24.977,28.2 19.777,28.2 19.777,23 24.977,23 "
   id="polygon5" />
	<polygon
   style="fill:#93572b"
   points="34.277,33.8 29.077,33.8 29.077,23 34.277,23 "
   id="polygon6" />
</g>
<g
   id="g8"
   transform="translate(-3.6918233e-5)">
	<path
   style="fill:#93572b"
   d="m 42.977,20.6 -9.8,-6.5 -21.2,6 0.7,2.3 1.6,-0.5 v 13.5 h 26.2 V 21.8 l 1.2,0.8 z m -4.9,12.4 h -3.8 V 23 h -5.2 v 10 h -12.4 V 21.2 l 16.1,-4.6 5.3,3.5 v 12.8 z"
   id="path6" />
	<polygon
   style="fill:#93572b"
   points="14.877,10.8 14.877,9.2 30.977,4.6 36.277,8.2 36.277,14.8 38.677,16.3 38.677,9.7 39.877,10.5 41.177,8.5 31.377,2 10.177,8 10.777,10.3 12.477,9.9 12.477,11.5 "
   id="polygon7" />
	<polygon
   style="fill:#93572b"
   points="26.377,14.8 29.377,13.9 23.177,9.8 1.977,15.9 2.677,18.2 4.277,17.7 4.277,31.2 12.577,31.2 12.577,28.8 6.677,28.8 6.677,17 22.777,12.5 "
   id="polygon8" />
	<rect
   x="19.777"
   y="23"
   style="fill:#93572b"
   width="5.1999998"
   height="5.1999998"
   id="rect8" />
</g>
</svg>
