<?xml version="1.0" encoding="UTF-8" standalone="no"?>
<svg
   id="Layer_1"
   version="1.1"
   viewBox="0 0 66.6 66.400002"
   sodipodi:docname="poi022_a.svg"
   width="66.599998"
   height="66.400002"
   inkscape:version="1.3.2 (091e20e, 2023-11-25, custom)"
   xmlns:inkscape="http://www.inkscape.org/namespaces/inkscape"
   xmlns:sodipodi="http://sodipodi.sourceforge.net/DTD/sodipodi-0.dtd"
   xmlns="http://www.w3.org/2000/svg"
   xmlns:svg="http://www.w3.org/2000/svg">
  <sodipodi:namedview
     id="namedview6"
     pagecolor="#ffffff"
     bordercolor="#000000"
     borderopacity="0.25"
     inkscape:showpageshadow="2"
     inkscape:pageopacity="0.0"
     inkscape:pagecheckerboard="0"
     inkscape:deskcolor="#d1d1d1"
     inkscape:zoom="27.353383"
     inkscape:cx="33.304838"
     inkscape:cy="33.25"
     inkscape:window-width="3840"
     inkscape:window-height="2054"
     inkscape:window-x="2869"
     inkscape:window-y="-11"
     inkscape:window-maximized="1"
     inkscape:current-layer="Layer_1" />
  <!-- Generator: Adobe Illustrator 29.3.1, SVG Export Plug-In . SVG Version: 2.1.0 Build 151)  -->
  <defs
     id="defs1">
    <style
       id="style1">
      .st0 {
        fill: #fff;
      }

      .st1 {
        fill: #f6bd16;
      }
    </style>
  </defs>
  <g
     id="g2">
    <polygon
       class="st0"
       points="52.5,3.5 62.6,40 33.3,62.1 4,39.9 14.1,3.5 "
       id="polygon1" />
    <path
       d="M 51.3,5 60.8,39.4 33.2,60.3 5.7,39.3 15.3,5 H 51.4 M 53.6,2 H 13 L 2.3,40.5 33.3,64 64.3,40.5 Z"
       id="path1" />
    <path
       class="st0"
       d="M 53.6,2 64.3,40.5 33.3,64 2.3,40.5 13,2 H 53.6 M 55.1,0 H 11.5 L 11.1,1.5 0.4,39.9 0,41.2 1.1,42 l 31,23.5 1.2,0.9 1.2,-0.9 L 65.5,42 66.6,41.2 66.2,39.9 55.5,1.5 Z"
       id="path2" />
  </g>
  <path
     d="m 18.4,35.3 c -0.2,0 -0.4,0 -0.5,0 -0.4,0 -0.5,-0.2 -0.6,-0.6 0,-0.6 0,-1.2 0,-1.8 0,-0.4 0.2,-0.6 0.6,-0.6 0.1,0 0.3,0 0.5,0 v -0.4 c 0,-3.4 0,-6.8 0,-10.2 0,-0.2 0,-0.4 -0.2,-0.5 -0.6,-0.5 -0.9,-1.2 -0.9,-2 0,-0.9 0,-1.7 0,-2.6 0,-0.2 0,-0.5 0.2,-0.6 0.8,-1.2 1.7,-2.3 2.5,-3.5 0.2,-0.3 0.4,-0.4 0.7,-0.4 8.1,0 16.7,0 24.9,0 0.3,0 0.6,0.1 0.8,0.4 0.8,1.1 1.5,2.1 2.3,3.2 0,0 0.1,0.2 0.2,0.2 0.5,0.2 0.4,0.6 0.4,1 0,0.7 0,1.5 0,2.2 0,0.7 -0.4,1.7 -1.1,2.3 0,0 -0.2,0.2 -0.2,0.3 0,3.5 0,6.9 0,10.4 0,3.5 0,0 0,0.2 0.1,0 0.3,0 0.4,0 0.4,0 0.6,0.2 0.6,0.6 0,0.6 0,1.1 0,1.7 0,0.5 -0.2,0.7 -0.7,0.7 -0.1,0 -0.2,0 -0.4,0 v 8 c 0,0.6 -0.2,0.8 -0.8,0.8 h -28 c -0.6,0 -0.8,-0.2 -0.8,-0.8 0,-2.5 0,-5 0,-7.5 0,-0.1 0,-0.3 0,-0.4 z M 39.6,20.9 c -1.4,1.4 -2.7,1.4 -4.4,0 -0.6,0.7 -1.3,1.1 -2.2,1.1 -0.9,0 -1.6,-0.4 -2.2,-1.1 -0.6,0.7 -1.3,1.1 -2.2,1.1 -0.9,0 -1.6,-0.4 -2.2,-1.1 -1.1,1.3 -2.9,1.6 -4.3,0 -0.4,0.3 -0.5,0.6 -0.5,1.1 0,3.3 0,6.6 0,9.9 v 0.4 h 23.1 v -0.4 c 0,-3.4 0,-6.9 0,-10.3 0,-0.3 -0.1,-0.5 -0.4,-0.7 -1.1,1.3 -3.5,1.5 -4.8,0 z m 7.3,14.4 c -0.1,0 -0.2,0 -0.3,0 -8.8,0 -18,0 -26.8,0 -0.3,0 -0.4,0 -0.4,0.4 0,2.3 0,4.7 0,7 0,0 0,0.2 0,0.3 h 27.4 v -7.7 z m 0.6,-19.4 c 0,0 0,-0.1 0,-0.1 -0.6,-0.8 -1.2,-1.7 -1.8,-2.5 0,0 -0.2,-0.1 -0.4,-0.1 -7.9,0 -16.3,0 -24.1,0 -0.1,0 -0.3,0 -0.4,0.2 -0.6,0.8 -1.1,1.5 -1.7,2.3 0,0 0,0.1 -0.1,0.2 9.4,0 19.2,0 28.6,0 z m -1.7,6 v 10.4 h 1.1 V 22 c -0.4,0 -0.7,0 -1.1,0 z m -26.3,0 v 10.4 h 1.1 V 21.9 Z M 35.8,17 c 0,0 0,0 0,0.1 0,0.7 0,1.4 0,2.2 0,0.8 0.7,1.5 1.5,1.6 0.8,0 1.6,-0.5 1.7,-1.3 0,-0.7 0,-1.4 0,-2.2 0,-0.1 0,-0.3 0,-0.4 -1.1,0 -2.2,0 -3.2,0 z m -8.7,0 c 0,0.8 0,1.6 0,2.3 0,0.8 0.7,1.4 1.5,1.5 0.8,0 1.6,-0.5 1.7,-1.2 0,-0.9 0,-1.8 0,-2.7 -1,0 -2.1,0 -3.2,0 z m 17.8,0 c 0,0.8 0,1.5 0,2.2 0,0.9 0.6,1.6 1.5,1.6 0.8,0 1.6,-0.5 1.7,-1.4 0,-0.8 0,-1.7 0,-2.5 h -3.2 z m -23.3,0 h -3.2 c 0,0.8 0,1.5 0,2.2 0,0.9 0.7,1.5 1.6,1.6 0.8,0 1.6,-0.5 1.7,-1.4 0,-0.8 0,-1.6 0,-2.5 z"
     id="path3" />
  <g
     id="g6">
    <polygon
       class="st0"
       points="28.6,42.2 26,35.9 33,26.5 36.3,27.2 39.8,32.2 42.2,37 38.9,42.3 36.1,43 33.3,43 "
       id="polygon3" />
    <g
       id="g5">
      <path
         class="st1"
         d="M 33.3,43.5 C 24.9,42.8 23.1,42.2 20.9,30.4 l -0.3,-1.6 1.1,1.2 c 1.6,1.6 2.3,2.3 3.4,2.7 -1.1,-2.5 -1.2,-4.9 -1.2,-6.7 0,-0.8 0,-1.4 -0.1,-1.9 l -0.2,-1.2 1,0.7 c 0.8,0.6 1.2,1.2 1.6,1.9 0.2,0.3 0.4,0.6 0.6,0.8 -0.3,-1.4 -0.1,-2.6 0.1,-3.9 0,-0.2 0,-0.5 0.1,-0.7 v -0.2 c 0.2,-0.4 0.3,-0.8 0,-1.9 L 26.8,19 h 0.7 c 2,0.1 2.5,2 2.8,3.6 0.1,0.6 0.3,1.1 0.5,1.5 1,-2.5 1,-4.2 1,-5.9 0,-1.7 0,-3.2 1,-5.2 l 0.8,-1.5 0.2,1.7 c 0.2,1.8 1.1,3.7 2.1,5.8 0.2,0.4 0.4,0.9 0.6,1.3 1,2.1 1.1,3.2 0.9,4.8 0.9,-0.5 1.1,-1.7 1.4,-4.1 l 0.3,-2.2 0.7,1 c 1.7,2.3 1.5,5.1 1.5,5.5 0,0.3 0,1.4 -0.2,2.6 0.6,-0.5 1,-1.2 1.3,-1.7 0.3,-0.4 0.5,-0.7 0.7,-0.9 l 0.5,-0.4 0.3,0.6 c 1.3,2.7 0.8,6 -0.6,8.2 1.2,-0.4 1.4,-1.1 1.5,-1.6 v -0.2 c 0,0 1,-2.9 1,-2.9 v 3 c 0.1,4.2 -0.9,7.3 -2.9,9.3 -1.6,1.6 -3.8,2.4 -6.4,2.4 h -3.1 z"
         id="path4" />
      <path
         d="m 33.3,13.2 c 0.2,2.3 1.6,4.8 2.7,7.2 1.1,2.3 1,3.4 0.7,5.3 2.2,-0.5 2.2,-2.3 2.6,-5.8 1.7,2.3 1.4,5.2 1.4,5.2 0,0 0.2,2.1 -0.7,3.7 1.9,-0.6 2.7,-2.9 3.3,-3.4 1.5,3 0.5,6.9 -1.4,8.7 3,-0.3 3.1,-1.7 3.3,-2.4 0.1,7.7 -3.4,11.3 -8.8,11.3 -5.4,0 -0.2,0 -0.3,0 h -2.8 c -8.1,-0.7 -9.8,-1 -11.9,-12.7 2,2.1 2.7,2.8 4.7,3 -2.2,-3.7 -1.4,-7.5 -1.7,-9.4 1.6,1.2 1.7,2.9 3.6,3.8 -1.3,-2.4 -0.7,-4.1 -0.3,-6 0.1,-0.5 0.3,-0.9 0,-2.3 2.7,0.1 1.9,4.4 3.4,5.6 2.6,-5.7 0.2,-7.9 2.3,-11.8 m 0.6,-3.5 -1.6,3 c -1.1,2.1 -1.1,3.8 -1,5.4 0,1.3 0,2.6 -0.4,4.2 0,0 0,0 0,0 -0.4,-1.5 -0.9,-3.8 -3.3,-3.9 h -1.3 c 0,0 0.3,1.2 0.3,1.2 0.2,1 0.1,1.3 0,1.6 0,0 0,0.1 0,0.2 v 0 c 0,0 0,0 0,0 0,0.2 0,0.5 -0.1,0.7 -0.1,0.7 -0.3,1.4 -0.3,2.1 C 26,23.8 25.6,23.3 25,22.9 l -2,-1.5 0.5,2.5 c 0,0.4 0,1.1 0,1.8 0,1.6 0,3.6 0.7,5.7 -0.5,-0.4 -1.1,-1 -2.1,-2 l -2.3,-2.3 0.6,3.2 c 2.3,12.1 4.3,12.7 12.8,13.5 v 0 c 0,0 0,0 0,0 H 36 c 0,0 0.2,0 0.3,0 2.8,0 5.1,-0.9 6.8,-2.6 2.1,-2.1 3.1,-5.4 3.1,-9.7 v -6 c 0,0 -1.2,3.5 -1.2,3.5 0,-1.4 -0.1,-2.9 -0.8,-4.2 l -0.6,-1.1 -1,0.8 c -0.3,0.2 -0.5,0.6 -0.8,1.1 0,0 -0.1,0.2 -0.2,0.3 0,-0.4 0,-0.7 0,-0.9 0,-0.6 0.2,-3.5 -1.6,-5.8 l -1.5,-2 -0.3,2.5 c 0,0.3 0,0.7 -0.1,1 -0.1,0.9 -0.2,1.6 -0.3,2.1 -0.1,-0.8 -0.4,-1.8 -1,-3 -0.2,-0.4 -0.4,-0.8 -0.6,-1.3 -1,-2 -1.9,-3.9 -2,-5.6 L 33.9,9.5 v 0 z"
         id="path5" />
    </g>
    <path
       class="st0"
       d="m 33.3,43 c -0.7,-0.1 -4.8,-0.8 -6.3,-5.6 0,-1.2 -0.1,1 3.9,1.2 -2.5,-4.1 -1.8,-3.3 -1.6,-5.6 1.1,1.5 0.2,1.7 3.1,2.9 -0.9,-3 1.5,-5 0.9,-8.5 0.7,1.5 3,1.3 2.8,8.5 1.9,-2.2 2,-0.7 3,-3 0.1,1.3 0.7,2.9 -1.9,5.7 0.7,0.2 1.8,0.3 3.5,-0.9 -1.7,2.1 -0.1,2.1 -4.5,5.3 h -2.8 z"
       id="path6" />
  </g>
</svg>
