<?xml version="1.0" encoding="UTF-8" standalone="no"?>
<svg
   id="Layer_1"
   version="1.1"
   viewBox="0 0 66.6 66.400002"
   sodipodi:docname="poi010_a.svg"
   width="66.599998"
   height="66.400002"
   inkscape:version="1.3.2 (091e20e, 2023-11-25, custom)"
   xmlns:inkscape="http://www.inkscape.org/namespaces/inkscape"
   xmlns:sodipodi="http://sodipodi.sourceforge.net/DTD/sodipodi-0.dtd"
   xmlns="http://www.w3.org/2000/svg"
   xmlns:svg="http://www.w3.org/2000/svg">
  <sodipodi:namedview
     id="namedview7"
     pagecolor="#ffffff"
     bordercolor="#000000"
     borderopacity="0.25"
     inkscape:showpageshadow="2"
     inkscape:pageopacity="0.0"
     inkscape:pagecheckerboard="0"
     inkscape:deskcolor="#d1d1d1"
     inkscape:zoom="27.353383"
     inkscape:cx="33.304838"
     inkscape:cy="33.25"
     inkscape:window-width="3840"
     inkscape:window-height="2054"
     inkscape:window-x="2869"
     inkscape:window-y="-11"
     inkscape:window-maximized="1"
     inkscape:current-layer="Layer_1" />
  <!-- Generator: Adobe Illustrator 29.3.1, SVG Export Plug-In . SVG Version: 2.1.0 Build 151)  -->
  <defs
     id="defs1">
    <style
       id="style1">
      .st0 {
        fill: #fff;
      }

      .st1 {
        fill: #93572b;
      }
    </style>
  </defs>
  <g
     id="g2">
    <polygon
       class="st0"
       points="52.5,3.5 62.6,40 33.3,62.1 4,39.9 14.1,3.5 "
       id="polygon1" />
    <path
       d="M 51.3,5 60.8,39.4 33.2,60.3 5.7,39.3 15.3,5 H 51.4 M 53.6,2 H 13 L 2.3,40.5 33.3,64 64.3,40.5 Z"
       id="path1" />
    <path
       class="st0"
       d="M 53.6,2 64.3,40.5 33.3,64 2.3,40.5 13,2 H 53.6 M 55.1,0 H 11.5 L 11.1,1.5 0.4,39.9 0,41.2 1.1,42 l 31,23.5 1.2,0.9 1.2,-0.9 L 65.5,42 66.6,41.2 66.2,39.9 55.5,1.5 Z"
       id="path2" />
  </g>
  <g
     id="g7">
    <polygon
       class="st1"
       points="27.5,41.6 48.9,41.6 48.9,28.1 51.3,28.6 51.3,44 25.1,44 25.1,28.6 27.5,28.6 "
       id="polygon2" />
    <polygon
       class="st1"
       points="43.9,22.7 53.8,29.2 52.5,31.2 43.5,25.3 23.4,31 22.8,28.7 "
       id="polygon3" />
    <polygon
       class="st1"
       points="21.6,18.9 23.3,18.5 23.3,20.1 25.7,19.4 25.7,17.8 41.8,13.2 47.1,16.7 47.1,23.4 49.5,24.9 49.5,18.3 50.7,19.1 52,17.1 42.2,10.6 21,16.6 "
       id="polygon4" />
    <polygon
       class="st1"
       points="23.4,39.8 23.4,37.4 17.5,37.4 17.5,25.6 33.6,21.1 37.1,23.4 40.2,22.5 34,18.4 12.8,24.5 13.4,26.8 15.1,26.3 15.1,39.8 "
       id="polygon5" />
    <polygon
       class="st1"
       points="35.8,36.8 30.6,36.8 30.6,31.6 35.8,31.6 "
       id="polygon6" />
    <polygon
       class="st1"
       points="45.1,42.4 39.9,42.4 39.9,31.6 45.1,31.6 "
       id="polygon7" />
  </g>
</svg>
