<?xml version="1.0" encoding="UTF-8" standalone="no"?>
<svg
   id="Layer_1"
   version="1.1"
   viewBox="0 0 66.6 66.400002"
   sodipodi:docname="poi020_a.svg"
   width="66.599998"
   height="66.400002"
   inkscape:version="1.3.2 (091e20e, 2023-11-25, custom)"
   xmlns:inkscape="http://www.inkscape.org/namespaces/inkscape"
   xmlns:sodipodi="http://sodipodi.sourceforge.net/DTD/sodipodi-0.dtd"
   xmlns="http://www.w3.org/2000/svg"
   xmlns:svg="http://www.w3.org/2000/svg">
  <sodipodi:namedview
     id="namedview5"
     pagecolor="#ffffff"
     bordercolor="#000000"
     borderopacity="0.25"
     inkscape:showpageshadow="2"
     inkscape:pageopacity="0.0"
     inkscape:pagecheckerboard="0"
     inkscape:deskcolor="#d1d1d1"
     inkscape:zoom="27.353383"
     inkscape:cx="33.304838"
     inkscape:cy="33.25"
     inkscape:window-width="3840"
     inkscape:window-height="2054"
     inkscape:window-x="2869"
     inkscape:window-y="-11"
     inkscape:window-maximized="1"
     inkscape:current-layer="Layer_1" />
  <!-- Generator: Adobe Illustrator 29.3.1, SVG Export Plug-In . SVG Version: 2.1.0 Build 151)  -->
  <defs
     id="defs1">
    <style
       id="style1">
      .st0 {
        stroke-miterlimit: 10;
      }

      .st0, .st1, .st2 {
        stroke: #0056a4;
      }

      .st0, .st2 {
        fill: none;
      }

      .st1 {
        stroke-width: 3px;
      }

      .st1, .st3 {
        fill: #fff;
      }

      .st1, .st2 {
        stroke-linecap: round;
        stroke-linejoin: round;
      }
    </style>
  </defs>
  <g
     id="g2">
    <polygon
       class="st3"
       points="52.5,3.5 62.6,40 33.3,62.1 4,39.9 14.1,3.5 "
       id="polygon1" />
    <path
       d="M 51.3,5 60.8,39.4 33.2,60.3 5.7,39.3 15.3,5 H 51.4 M 53.6,2 H 13 L 2.3,40.5 33.3,64 64.3,40.5 Z"
       id="path1" />
    <path
       class="st3"
       d="M 53.6,2 64.3,40.5 33.3,64 2.3,40.5 13,2 H 53.6 M 55.1,0 H 11.5 L 11.1,1.5 0.4,39.9 0,41.2 1.1,42 l 31,23.5 1.2,0.9 1.2,-0.9 L 65.5,42 66.6,41.2 66.2,39.9 55.5,1.5 Z"
       id="path2" />
  </g>
  <g
     id="g5">
    <path
       class="st0"
       d="M 41.8,22.5 H 24.7 c -1.6,0 -2.1,-2 -0.7,-2.7 l 9.2,-4.3 9.2,4.3 c 1.4,0.7 0.9,2.7 -0.7,2.7 z"
       id="path3" />
    <path
       class="st2"
       d="m 31.3,11.5 c 0,-1.1 0.9,-2 2,-2 1.1,0 2,0.9 2,2 0,1.1 -0.9,2 -2,2 v 2"
       id="path4" />
    <path
       class="st1"
       d="m 38.3,17.5 v 0 C 38,20 35.9,22 33.3,22 c -2.6,0 -4.7,-2 -5,-4.5 v 0 c -5.2,0 -9.4,3.9 -10,8.9 0,0.6 0.4,1.1 1,1.1 h 2.4 c 0.6,0 1,0.4 1,1 v 17 c 0,0.6 0.4,1 1,1 h 19.1 c 0.6,0 1,-0.4 1,-1 v -17 c 0,-0.6 0.4,-1 1,-1 h 2.4 c 0.6,0 1.1,-0.5 1,-1.1 -0.6,-5 -4.8,-8.9 -10,-8.9 z"
       id="path5" />
  </g>
</svg>
