<?xml version="1.0" encoding="UTF-8" standalone="no"?>
<svg
   id="Layer_1"
   version="1.1"
   viewBox="0 0 66.6 66.400002"
   sodipodi:docname="poi045_a.svg"
   width="66.599998"
   height="66.400002"
   inkscape:version="1.3.2 (091e20e, 2023-11-25, custom)"
   xmlns:inkscape="http://www.inkscape.org/namespaces/inkscape"
   xmlns:sodipodi="http://sodipodi.sourceforge.net/DTD/sodipodi-0.dtd"
   xmlns="http://www.w3.org/2000/svg"
   xmlns:svg="http://www.w3.org/2000/svg">
  <sodipodi:namedview
     id="namedview4"
     pagecolor="#ffffff"
     bordercolor="#000000"
     borderopacity="0.25"
     inkscape:showpageshadow="2"
     inkscape:pageopacity="0.0"
     inkscape:pagecheckerboard="0"
     inkscape:deskcolor="#d1d1d1"
     inkscape:zoom="27.353383"
     inkscape:cx="33.304838"
     inkscape:cy="33.25"
     inkscape:window-width="3840"
     inkscape:window-height="2054"
     inkscape:window-x="2869"
     inkscape:window-y="-11"
     inkscape:window-maximized="1"
     inkscape:current-layer="Layer_1" />
  <!-- Generator: Adobe Illustrator 29.3.1, SVG Export Plug-In . SVG Version: 2.1.0 Build 151)  -->
  <defs
     id="defs1">
    <style
       id="style1">
      .st0 {
        fill: #e4151c;
      }

      .st1 {
        fill: #fff;
      }
    </style>
  </defs>
  <g
     id="g2">
    <polygon
       class="st1"
       points="52.5,3.5 62.6,40 33.3,62.1 4,39.9 14.1,3.5 "
       id="polygon1" />
    <path
       d="M 51.3,5 60.8,39.4 33.2,60.3 5.7,39.3 15.3,5 H 51.4 M 53.6,2 H 13 L 2.3,40.5 33.3,64 64.3,40.5 Z"
       id="path1" />
    <path
       class="st1"
       d="M 53.6,2 64.3,40.5 33.3,64 2.3,40.5 13,2 H 53.6 M 55.1,0 H 11.5 L 11.1,1.5 0.4,39.9 0,41.2 1.1,42 l 31,23.5 1.2,0.9 1.2,-0.9 L 65.5,42 66.6,41.2 66.2,39.9 55.5,1.5 Z"
       id="path2" />
  </g>
  <g
     id="g4">
    <path
       class="st0"
       d="m 33.3,7 c -12.1,0 -22,9.8 -22,22 0,12.2 9.9,22 22,22 12.1,0 22,-9.8 22,-22 0,-12.2 -9.9,-22 -22,-22 z m 0,39.1 c -9.4,0 -17.1,-7.6 -17.1,-17.1 0,-9.5 7.7,-17.1 17.1,-17.1 9.4,0 17.1,7.6 17.1,17.1 0,9.5 -7.7,17.1 -17.1,17.1 z"
       id="path3" />
    <path
       d="m 46.7,28.4 c 0,0 0,0 0,0 l -2.1,-1.8 c 0,0 -0.2,-0.1 -0.3,-0.1 H 31.5 c -1.3,-2.9 -4.7,-4.2 -7.6,-2.9 -2.9,1.3 -4.2,4.7 -2.9,7.6 1.3,2.9 4.7,4.2 7.6,2.9 1.5,-0.7 2.6,-1.9 3.1,-3.5 h 0.7 c 0,0 0.4,1.4 0.4,1.4 h 0.6 l 0.7,-1 c 0,0 0,0 0.1,0 0,0 0,0 0,0 l 0.7,1 c 0,0 0,0 0.1,0 0,0 0,0 0,0 l 0.5,-1 c 0,0 0,0 0.1,0 0,0 0,0 0,0 l 0.6,1 c 0,0 0,0 0.1,0 0,0 0,0 0,0 l 0.6,-1 c 0,0 0,0 0.1,0 0,0 0,0 0,0 l 0.9,0.9 c 0,0 0,0 0.1,0 0,0 0,0 0,0 l 1.4,-1.5 h 1 l 0.9,1.1 c 0,0 0.1,0 0.2,0 0,0 0,0 0,0 L 42.3,31 c 0,0 0.1,0 0.2,0 l 0.9,0.9 c 0,0 0.2,0 0.3,0 v 0 c 0,0 2.8,-3 2.8,-3 0.1,-0.1 0.1,-0.3 0,-0.4 z m -22.4,1.7 c -0.7,0 -1.2,-0.5 -1.2,-1.2 0,-0.7 0.5,-1.2 1.2,-1.2 0.7,0 1.2,0.5 1.2,1.2 0,0.7 -0.5,1.2 -1.2,1.2 z"
       id="path4" />
  </g>
</svg>
