<?xml version="1.0" encoding="UTF-8" standalone="no"?>
<!-- Generator: Adobe Illustrator 29.4.0, SVG Export Plug-In . SVG Version: 9.03 Build 0)  -->

<svg
   version="1.1"
   id="Layer_1"
   x="0px"
   y="0px"
   viewBox="0 0 56 43.1"
   xml:space="preserve"
   sodipodi:docname="vvz013_c.svg"
   width="56"
   height="43.099998"
   inkscape:version="1.3.2 (091e20e, 2023-11-25, custom)"
   xmlns:inkscape="http://www.inkscape.org/namespaces/inkscape"
   xmlns:sodipodi="http://sodipodi.sourceforge.net/DTD/sodipodi-0.dtd"
   xmlns="http://www.w3.org/2000/svg"
   xmlns:svg="http://www.w3.org/2000/svg"><defs
   id="defs5" /><sodipodi:namedview
   id="namedview5"
   pagecolor="#ffffff"
   bordercolor="#000000"
   borderopacity="0.25"
   inkscape:showpageshadow="2"
   inkscape:pageopacity="0.0"
   inkscape:pagecheckerboard="0"
   inkscape:deskcolor="#d1d1d1"
   inkscape:zoom="42.204178"
   inkscape:cx="28.006706"
   inkscape:cy="21.549999"
   inkscape:window-width="3840"
   inkscape:window-height="2054"
   inkscape:window-x="2869"
   inkscape:window-y="-11"
   inkscape:window-maximized="1"
   inkscape:current-layer="Layer_1" />
<path
   style="fill:#ffffff"
   d="m 20.5,17.1 c 0.2,0.9 1,1.5 1.9,1.5 h 2.5 c 0.9,0 1.7,-0.6 1.9,-1.5 l 1.2,-4.7 1.1,4.7 c 0.2,0.9 1,1.5 1.9,1.5 h 2.5 c 0.9,0 1.7,-0.6 1.9,-1.5 L 39,2.6 C 39,2.4 39,2.2 39,2 39,0.9 38.1,0 37,0 H 35 C 34.1,0 33.3,0.6 33.1,1.5 L 32,6 30.9,1.5 C 30.8,0.6 30,0 29.1,0 H 26.9 C 26,0 25.2,0.6 25,1.5 L 23.9,6 22.8,1.5 C 22.5,0.6 21.7,0 20.8,0 h -2 c -0.6,0 -1.2,0.3 -1.6,0.8 -0.4,0.5 -0.5,1.1 -0.4,1.7 z"
   id="path1" />
<path
   style="fill:#ffffff"
   d="M 54,24.1 H 50.5 V 20 c 0,-1.8 -0.9,-3.4 -2.5,-4.3 -0.7,-0.4 -1.6,-0.6 -2.4,-0.6 -0.8,0 -1.8,0.3 -2.6,0.7 L 28,25 13,15.8 C 12.2,15.3 11.3,15.1 10.4,15.1 9.5,15.1 8.7,15.3 8,15.7 6.4,16.6 5.5,18.2 5.5,20 v 4.1 H 2 c -1.1,0 -2,0.9 -2,2 v 6 c 0,1.1 0.9,2 2,2 h 3.5 v 4.1 c 0,1.8 0.9,3.4 2.5,4.3 0.7,0.4 1.6,0.6 2.4,0.6 0.8,0 1.8,-0.3 2.6,-0.7 l 15,-9.2 15,9.2 c 0.8,0.5 1.7,0.7 2.6,0.7 0.9,0 1.7,-0.2 2.4,-0.6 1.6,-0.9 2.5,-2.5 2.5,-4.3 V 34.1 H 54 c 1.1,0 2,-0.9 2,-2 v -6 c 0,-1.1 -0.9,-2 -2,-2 z"
   id="path2" />
<path
   d="m 18.8,2 h 2 L 23.9,14.3 27,2 h 2.2 L 32.3,14.3 35.4,2 h 2 L 33.7,16.6 H 31.2 L 28.1,3.9 25,16.6 h -2.5 z"
   id="path3" />
<path
   style="clip-rule:evenodd;fill:#0056a4;fill-rule:evenodd;stroke:#000000;stroke-miterlimit:10"
   d="m 44.3,17.9 -15,9.2 c -0.8,0.5 -1.8,0.5 -2.5,0 l -15,-9.2 c -1.6,-1 -3.7,0.2 -3.7,2.1 v 18.1 c 0,1.9 2.1,3.1 3.7,2.1 l 15,-9.2 c 0.8,-0.5 1.8,-0.5 2.5,0 l 15,9.2 C 45.9,41.2 48,40 48,38.1 V 20 c 0,-1.9 -2.1,-3.1 -3.7,-2.1 z"
   id="path4" />
<line
   style="fill:none;stroke:#000000;stroke-width:6;stroke-miterlimit:10"
   x1="54"
   y1="29.1"
   x2="48"
   y2="29.1"
   id="line4" />
<line
   style="fill:none;stroke:#000000;stroke-width:6;stroke-miterlimit:10"
   x1="8"
   y1="29.1"
   x2="2"
   y2="29.1"
   id="line5" />
</svg>
