<?xml version="1.0" encoding="UTF-8" standalone="no"?>
<!-- Generator: Adobe Illustrator 29.4.0, SVG Export Plug-In . SVG Version: 9.03 Build 0)  -->

<svg
   version="1.1"
   id="Layer_1"
   x="0px"
   y="0px"
   viewBox="0 0 34.348722 48.6"
   xml:space="preserve"
   sodipodi:docname="wwn015_c.svg"
   width="34.348721"
   height="48.599998"
   inkscape:version="1.3.2 (091e20e, 2023-11-25, custom)"
   xmlns:inkscape="http://www.inkscape.org/namespaces/inkscape"
   xmlns:sodipodi="http://sodipodi.sourceforge.net/DTD/sodipodi-0.dtd"
   xmlns="http://www.w3.org/2000/svg"
   xmlns:svg="http://www.w3.org/2000/svg"><defs
   id="defs2" /><sodipodi:namedview
   id="namedview2"
   pagecolor="#ffffff"
   bordercolor="#000000"
   borderopacity="0.25"
   inkscape:showpageshadow="2"
   inkscape:pageopacity="0.0"
   inkscape:pagecheckerboard="0"
   inkscape:deskcolor="#d1d1d1"
   inkscape:zoom="37.427985"
   inkscape:cx="17.179659"
   inkscape:cy="24.299999"
   inkscape:window-width="3840"
   inkscape:window-height="2054"
   inkscape:window-x="2869"
   inkscape:window-y="-11"
   inkscape:window-maximized="1"
   inkscape:current-layer="Layer_1" />
<path
   style="fill:#ffffff"
   d="m 33.407852,13.6 -2.4,-1.4 -1,-0.6 c 0.4,-0.9 0,-2.1 -0.8,-2.6 l -0.6,-0.4 v 0 l 0.6,0.3 c 0.3,0.2 0.7,0.3 1,0.3 0.3,0 0.3,0 0.5,0 0.5,-0.1 1,-0.5 1.2,-0.9 l 0.7,-1.2 c 0.6,-1 0.2,-2.2 -0.7,-2.7 l -2.8,-1.6 -2,-1.1 -2.4,-1.4 c -0.3,-0.2 -0.7,-0.3 -1,-0.3 -0.3,0 -0.3,0 -0.5,0 -0.5,0.1 -1,0.5 -1.2,0.9 l -0.7,1.2 c -0.6,1 -0.2,2.2 0.7,2.7 l 0.6,0.4 v 0 l -0.6,-0.3 c -0.3,-0.2 -0.7,-0.3 -1,-0.3 -0.3,0 -0.3,0 -0.5,0 -0.5,0.1 -1,0.5 -1.2,0.9 l -2.1,3.6 -2.1,-3.6 c -0.3,-0.5 -0.7,-0.8 -1.2,-0.9 -0.2,0 -0.3,0 -0.5,0 -0.3,0 -0.7,0 -1,0.3 l -0.6,0.4 v 0 l 0.6,-0.5 c 1,-0.6 1.3,-1.8 0.7,-2.7 l -0.7,-1.2 c -0.3,-0.5 -0.7,-0.8 -1.2,-0.9 -0.2,0 -0.3,0 -0.5,0 -0.3,0 -0.7,0 -0.9999997,0.3 l -2.4,1.4 -1.2,0.7 -3.6,2.1 c -1,0.6 -1.3,1.8 -0.7,2.7 l 0.7,1.2 c 0.3,0.5 0.7,0.8 1.2,0.9 0.2,0 0.3,0 0.5,0 0.3,0 0.7,0 1,-0.3 l 0.6,-0.4 v 0 l -0.6,0.5 c -0.9,0.5 -1.2,1.6 -0.8,2.6 l -1,0.6 -2.4,1.4 c -0.99999997,0.6 -1.29999997,1.8 -0.69999997,2.7 l 1.39999997,2.4 c 0.3,0.4 0.7,0.8 1.2,0.9 -0.1,0.5 0,1 0.2,1.5 l 1.4,2.4 c 0.3,0.5 0.7,0.8 1.2,0.9 0.2,0 0.3,0 0.5,0 0.3,0 0.7,0 1,-0.3 l 3.3999997,-2 0.5,0.9 V 35 c -5.5999997,1 -8.6999997,3.4 -8.6999997,6.5 0,4.9 7.5,7.1 14.7999997,7.1 7.3,0 14.8,-2.2 14.8,-7.1 0,-4.9 -3.2,-5.5 -8.7,-6.5 V 23.1 l 0.5,-0.9 3.4,2 c 0.3,0.2 0.7,0.3 1,0.3 0.3,0 0.3,0 0.5,0 0.5,-0.1 1,-0.5 1.2,-0.9 l 1.4,-2.4 c 0.3,-0.5 0.3,-1 0.2,-1.5 0.5,-0.1 0.9,-0.5 1.2,-0.9 l 1.4,-2.4 c 0.5,-1 0.2,-2.2 -0.7,-2.7 z"
   id="path1" />
<path
   style="clip-rule:evenodd;fill:#00af6b;fill-rule:evenodd"
   d="m 31.107852,17.7 1.4,-2.4 -2.4,-1.4 -1.2,-0.7 -1.4,2.4 -1.5,-0.9 2.3,-4 -2.4,-1.4 2.1,-3.6 2.4,1.4 0.7,-1.2 -2.8,-1.6 -2,-1.1 v 0 l -2.4,-1.4 -0.7,1.2 2.4,1.4 -2.1,3.6 -2.4,-1.4 -3.8,6.6 -3.8,-6.6 -2.4,1.4 L 9.0078523,4.4 11.407852,3 l -0.7,-1.2 -2.3999997,1.4 -1.2,0.7 -3.6,2.1 0.7,1.2 2.4,-1.4 2.1,3.6 -2.4,1.4 2.3,4 -1.5,0.9 -1.4,-2.4 -1.2,0.7 -2.4,1.4 1.4,2.4 2.4,-1.4 1.4,2.4 -2.4,1.4 1.4,2.4 3.6,-2.1 -1.4,-2.4 1.4999997,-0.9 3.2,5.5 v 14.2 c -4.6999997,0.6 -8.6999997,2.3 -8.6999997,4.8 0,2.5 6.5999997,5.1 12.7999997,5.1 6.2,0 12.8,-1.8 12.8,-5.1 0,-3.3 -4,-4.2 -8.7,-4.8 V 22.7 l 3.2,-5.5 1.5,0.9 -1.4,2.4 3.6,2.1 1.4,-2.4 -2.4,-1.4 1.4,-2.4 2.4,1.4 z m -2.6,23.9 c 0,1.4 -4.3,3.4 -11.2,3.4 -6.9,0 -11.1999997,-2 -11.1999997,-3.4 0,-1.4 2.7,-2.6 6.9999997,-3.1 v 3.1 c 0,0.8 1.8,1.5 4.1,1.5 2.3,0 4.1,-0.7 4.1,-1.5 v -3.1 c 4.4,0.6 7,2.1 7,3.1 z"
   id="path2" />
</svg>
