<?xml version="1.0" encoding="UTF-8" standalone="no"?>
<svg
   id="Layer_1"
   version="1.1"
   viewBox="0 0 66.6 66.5"
   sodipodi:docname="poi029_a.svg"
   width="66.599998"
   height="66.5"
   inkscape:version="1.3.2 (091e20e, 2023-11-25, custom)"
   xmlns:inkscape="http://www.inkscape.org/namespaces/inkscape"
   xmlns:sodipodi="http://sodipodi.sourceforge.net/DTD/sodipodi-0.dtd"
   xmlns="http://www.w3.org/2000/svg"
   xmlns:svg="http://www.w3.org/2000/svg">
  <sodipodi:namedview
     id="namedview3"
     pagecolor="#ffffff"
     bordercolor="#000000"
     borderopacity="0.25"
     inkscape:showpageshadow="2"
     inkscape:pageopacity="0.0"
     inkscape:pagecheckerboard="0"
     inkscape:deskcolor="#d1d1d1"
     inkscape:zoom="27.353383"
     inkscape:cx="33.304838"
     inkscape:cy="33.25"
     inkscape:window-width="3840"
     inkscape:window-height="2054"
     inkscape:window-x="2869"
     inkscape:window-y="-11"
     inkscape:window-maximized="1"
     inkscape:current-layer="Layer_1" />
  <!-- Generator: Adobe Illustrator 29.3.1, SVG Export Plug-In . SVG Version: 2.1.0 Build 151)  -->
  <defs
     id="defs1">
    <style
       id="style1">
      .st0 {
        fill: #fff;
      }

      .st1 {
        isolation: isolate;
      }

      .st2 {
        fill: #0056a4;
      }
    </style>
  </defs>
  <g
     id="g2">
    <g
       id="g1">
      <polygon
         class="st2"
         points="53.8,1.8 64.6,40.6 33.3,64.3 2,40.6 12.8,1.8 "
         id="polygon1" />
      <path
         class="st0"
         d="M 52.5,3.5 62.6,40 33.3,62.2 4,39.9 14.1,3.5 H 52.4 M 55.1,0 H 11.5 L 10.8,2.6 0.6,39 0,41.3 1.9,42.7 31.2,64.9 33.3,66.5 35.4,64.9 64.7,42.7 66.6,41.3 66,39 55.8,2.6 Z"
         id="path1" />
    </g>
    <path
       d="M 51.3,5 60.8,39.4 33.2,60.3 5.7,39.3 15.3,5 H 51.4 M 53.6,2 H 13 L 2.3,40.5 33.3,64 64.3,40.5 Z"
       id="path2" />
  </g>
  <g
     class="st1"
     id="g3">
    <path
       class="st0"
       d="m 23.9,10.6 h 10.2 c 3.8,0 6.6,0.9 8.5,2.6 1.9,1.7 2.9,4.2 2.9,7.5 0,3.3 -1,5.8 -2.9,7.5 -1.9,1.7 -4.8,2.5 -8.5,2.5 h -5.7 v 13.5 h -4.5 c 0,0 0,-33.5 0,-33.5 z m 4.5,3.7 v 12.6 h 5.7 c 2.1,0 3.7,-0.5 4.9,-1.6 1.2,-1.1 1.7,-2.6 1.7,-4.7 0,-2.1 -0.6,-3.6 -1.7,-4.6 -1.2,-1.1 -2.8,-1.6 -4.9,-1.6 0,0 -5.7,0 -5.7,0 z"
       id="path3" />
  </g>
</svg>
