<?xml version="1.0" encoding="UTF-8" standalone="no"?>
<svg
   id="Layer_1"
   version="1.1"
   viewBox="0 0 66.6 66.400002"
   sodipodi:docname="poi027_a.svg"
   width="66.599998"
   height="66.400002"
   inkscape:version="1.3.2 (091e20e, 2023-11-25, custom)"
   xmlns:inkscape="http://www.inkscape.org/namespaces/inkscape"
   xmlns:sodipodi="http://sodipodi.sourceforge.net/DTD/sodipodi-0.dtd"
   xmlns="http://www.w3.org/2000/svg"
   xmlns:svg="http://www.w3.org/2000/svg">
  <sodipodi:namedview
     id="namedview7"
     pagecolor="#ffffff"
     bordercolor="#000000"
     borderopacity="0.25"
     inkscape:showpageshadow="2"
     inkscape:pageopacity="0.0"
     inkscape:pagecheckerboard="0"
     inkscape:deskcolor="#d1d1d1"
     inkscape:zoom="27.353383"
     inkscape:cx="33.304838"
     inkscape:cy="33.25"
     inkscape:window-width="3840"
     inkscape:window-height="2054"
     inkscape:window-x="2869"
     inkscape:window-y="-11"
     inkscape:window-maximized="1"
     inkscape:current-layer="Layer_1" />
  <!-- Generator: Adobe Illustrator 29.3.1, SVG Export Plug-In . SVG Version: 2.1.0 Build 151)  -->
  <defs
     id="defs1">
    <style
       id="style1">
      .st0 {
        fill: #fff;
      }

      .st1 {
        fill: none;
        stroke: #000;
        stroke-linecap: square;
        stroke-miterlimit: 10;
        stroke-width: 2.2px;
      }
    </style>
  </defs>
  <g
     id="g2">
    <polygon
       class="st0"
       points="52.5,3.5 62.6,40 33.3,62.1 4,39.9 14.1,3.5 "
       id="polygon1" />
    <path
       d="M 15.3,5 H 51.4 L 60.9,39.4 33.3,60.3 5.7,39.3 15.3,5 M 13,2 2.3,40.5 33.3,64 64.3,40.5 53.6,2 Z"
       id="path1" />
    <path
       class="st0"
       d="M 13,2 H 53.6 L 64.3,40.5 33.3,64 2.3,40.5 13,2 M 13,0 H 11.5 L 11.1,1.5 0.4,39.9 0,41.2 1.1,42 l 31,23.5 1.2,0.9 1.2,-0.9 L 65.5,42 66.6,41.2 66.2,39.9 55.5,1.5 55.1,0 Z"
       id="path2" />
  </g>
  <g
     id="g7">
    <rect
       x="42.900002"
       y="25.200001"
       width="11.3"
       height="16.6"
       id="rect2" />
    <g
       id="g4">
      <path
         class="st1"
         d="m 13.4,36.6 c 2.4,0 2.4,-1.4 4.9,-1.4 2.5,0 2.4,1.4 4.9,1.4 2.5,0 2.4,-1.4 4.9,-1.4 2.5,0 2.4,1.4 4.9,1.4 2.5,0 2.4,-1.4 4.9,-1.4 2.5,0 2.4,1.4 4.9,1.4"
         id="path3" />
      <path
         class="st1"
         d="m 13.4,40.7 c 2.4,0 2.4,-1.4 4.9,-1.4 2.5,0 2.4,1.4 4.9,1.4 2.5,0 2.4,-1.4 4.9,-1.4 2.5,0 2.4,1.4 4.9,1.4 2.5,0 2.4,-1.4 4.9,-1.4 2.5,0 2.4,1.4 4.9,1.4"
         id="path4" />
    </g>
    <rect
       x="19.700001"
       y="25.200001"
       width="23.5"
       height="4.0999999"
       id="rect4" />
    <rect
       x="23.200001"
       y="21"
       width="2.0999999"
       height="15.2"
       id="rect5" />
    <rect
       x="30.799999"
       y="21"
       width="2.0999999"
       height="15.2"
       id="rect6" />
    <rect
       x="38.400002"
       y="21"
       width="2.0999999"
       height="15.2"
       id="rect7" />
  </g>
</svg>
