<?xml version="1.0" encoding="UTF-8" standalone="no"?>
<svg
   id="Layer_1"
   version="1.1"
   viewBox="0 0 66.6 66.400002"
   sodipodi:docname="poi019_a.svg"
   width="66.599998"
   height="66.400002"
   inkscape:version="1.3.2 (091e20e, 2023-11-25, custom)"
   xmlns:inkscape="http://www.inkscape.org/namespaces/inkscape"
   xmlns:sodipodi="http://sodipodi.sourceforge.net/DTD/sodipodi-0.dtd"
   xmlns="http://www.w3.org/2000/svg"
   xmlns:svg="http://www.w3.org/2000/svg">
  <sodipodi:namedview
     id="namedview5"
     pagecolor="#ffffff"
     bordercolor="#000000"
     borderopacity="0.25"
     inkscape:showpageshadow="2"
     inkscape:pageopacity="0.0"
     inkscape:pagecheckerboard="0"
     inkscape:deskcolor="#d1d1d1"
     inkscape:zoom="27.353383"
     inkscape:cx="33.304838"
     inkscape:cy="33.25"
     inkscape:window-width="3840"
     inkscape:window-height="2054"
     inkscape:window-x="2869"
     inkscape:window-y="-11"
     inkscape:window-maximized="1"
     inkscape:current-layer="Layer_1" />
  <!-- Generator: Adobe Illustrator 29.3.1, SVG Export Plug-In . SVG Version: 2.1.0 Build 151)  -->
  <defs
     id="defs1">
    <style
       id="style1">
      .st0 {
        fill: #fff;
      }

      .st1 {
        fill: #0056a4;
      }
    </style>
  </defs>
  <g
     id="g2">
    <polygon
       class="st0"
       points="52.5,3.5 62.6,40 33.3,62.1 4,39.9 14.1,3.5 "
       id="polygon1" />
    <path
       d="M 15.3,5 H 51.4 L 60.9,39.4 33.3,60.3 5.7,39.3 15.3,5 M 13,2 2.3,40.5 33.3,64 64.3,40.5 53.6,2 Z"
       id="path1" />
    <path
       class="st0"
       d="M 13,2 H 53.6 L 64.3,40.5 33.3,64 2.3,40.5 13,2 M 13,0 H 11.5 L 11.1,1.5 0.4,39.9 0,41.2 1.1,42 l 31,23.5 1.2,0.9 1.2,-0.9 L 65.5,42 66.6,41.2 66.2,39.9 55.5,1.5 55.1,0 Z"
       id="path2" />
  </g>
  <g
     id="g5">
    <path
       class="st1"
       d="m 52.3,24.7 h -1.5 c -0.5,0 -1,0.4 -1,1 v 0 7.7 H 21.7 c -2.6,0 -4.8,-2.1 -4.9,-4.7 V 16.9 c 0,-0.5 -0.4,-1 -1,-1 h -1.6 c -0.5,0 -1,0.4 -1,1 v 0 25.2 h 3.5 v -3.7 h 33 v 3.7 h 3.5 V 25.7 c 0,-0.5 -0.4,-1 -0.9,-1 z"
       id="path3" />
    <path
       class="st1"
       d="m 23.4,26.9 c 2,1.8 2.8,4.2 1.8,5.3 -1,1.1 -3.4,0.4 -5.4,-1.4 -2,-1.8 -2.8,-4.2 -1.8,-5.3 1,-1.1 3.4,-0.4 5.4,1.4 z"
       id="path4" />
    <path
       class="st1"
       d="m 48.1,32.5 c 0.2,-0.3 0.3,-0.7 0.3,-1 0,-2.5 -5,-4.5 -11.1,-4.5 -6.1,0 -11.1,2 -11.1,4.5 0,0.4 0.1,0.7 0.3,1 z"
       id="path5" />
  </g>
</svg>
