<?xml version="1.0" encoding="UTF-8" standalone="no"?>
<svg
   id="Layer_1"
   version="1.1"
   viewBox="0 0 66.6 66.400002"
   sodipodi:docname="poi004_a.svg"
   width="66.599998"
   height="66.400002"
   inkscape:version="1.3.2 (091e20e, 2023-11-25, custom)"
   xmlns:inkscape="http://www.inkscape.org/namespaces/inkscape"
   xmlns:sodipodi="http://sodipodi.sourceforge.net/DTD/sodipodi-0.dtd"
   xmlns="http://www.w3.org/2000/svg"
   xmlns:svg="http://www.w3.org/2000/svg">
  <sodipodi:namedview
     id="namedview24"
     pagecolor="#ffffff"
     bordercolor="#000000"
     borderopacity="0.25"
     inkscape:showpageshadow="2"
     inkscape:pageopacity="0.0"
     inkscape:pagecheckerboard="0"
     inkscape:deskcolor="#d1d1d1"
     inkscape:zoom="27.353383"
     inkscape:cx="33.304838"
     inkscape:cy="33.25"
     inkscape:window-width="3840"
     inkscape:window-height="2054"
     inkscape:window-x="2869"
     inkscape:window-y="-11"
     inkscape:window-maximized="1"
     inkscape:current-layer="Layer_1" />
  <!-- Generator: Adobe Illustrator 29.3.1, SVG Export Plug-In . SVG Version: 2.1.0 Build 151)  -->
  <defs
     id="defs1">
    <style
       id="style1">
      .st0 {
        fill: #fff;
      }

      .st1 {
        fill: red;
      }
    </style>
  </defs>
  <g
     id="g22">
    <polygon
       class="st0"
       points="52.8,2.5 52.8,2 33.8,2 33.8,2.5 42.8,2.5 43.8,2.5 "
       id="polygon1" />
    <polygon
       class="st0"
       points="32.8,2.5 32.8,2 13.8,2 13.8,2.5 22.8,2.5 23.8,2.5 "
       id="polygon2" />
    <path
       d="m 13,2 -0.4,1.5 h 10.2 v 9 H 10.1 l -0.3,1 h 3 v 9 H 7.3 l -0.3,1 h 15.8 v 9 H 4.5 l -0.3,1 h 8.6 v 9 H 5 l 1.3,1 h 16.5 v 9 h -4.7 l 1.3,1 h 13.3 v 9 h -1.5 l 1.3,1 h 1.3 l 1.3,-1 h -1.5 v -9 H 47 l 1.3,-1 h -4.7 v -9 h 16.6 l 1.3,-1 h -7.9 v -9 h 8.5 l -0.3,-1 H 43.5 v -9 h 15.8 l -0.3,-1 h -5.5 v -9 h 3 l -0.3,-1 H 43.5 v -9 H 53.7 L 53.3,2 h -0.8 v 0.5 h -19 V 2 h -1 V 2.5 H 13.8 V 2 Z m 20.8,1.5 h 9 v 9 h -19 v -9 z m 19,19 h -19 v -9 h 19 z m 0,20 h -19 v -9 h 19 z m -10,10 h -19 v -9 h 19 z m -29,-19 h 19 v 9 h -19 z m 29,-1 h -19 v -9 h 19 z m -29,-19 h 19 v 9 h -19 z"
       id="path2" />
    <polygon
       class="st0"
       points="22.8,3.5 13.8,3.5 12.8,3.5 12.6,3.5 10.1,12.5 12.8,12.5 13.8,12.5 22.8,12.5 "
       id="polygon3" />
    <polygon
       class="st0"
       points="32.8,12.5 33.8,12.5 42.8,12.5 42.8,3.5 33.8,3.5 32.8,3.5 23.8,3.5 23.8,12.5 "
       id="polygon4" />
    <polygon
       class="st0"
       points="43.8,12.5 52.8,12.5 53.8,12.5 56.5,12.5 54,3.5 53.8,3.5 52.8,3.5 43.8,3.5 "
       id="polygon5" />
    <polygon
       class="st0"
       points="56.8,13.5 53.8,13.5 53.8,22.5 59.3,22.5 "
       id="polygon6" />
    <polygon
       class="st0"
       points="33.8,22.5 42.8,22.5 43.8,22.5 52.8,22.5 52.8,13.5 43.8,13.5 42.8,13.5 33.8,13.5 "
       id="polygon7" />
    <polygon
       class="st0"
       points="32.8,13.5 23.8,13.5 22.8,13.5 13.8,13.5 13.8,22.5 22.8,22.5 23.8,22.5 32.8,22.5 "
       id="polygon8" />
    <polygon
       class="st0"
       points="7.3,22.5 12.8,22.5 12.8,13.5 9.8,13.5 "
       id="polygon9" />
    <polygon
       class="st0"
       points="22.8,23.5 13.8,23.5 12.8,23.5 7,23.5 4.5,32.5 12.8,32.5 13.8,32.5 22.8,32.5 "
       id="polygon10" />
    <polygon
       class="st0"
       points="23.8,32.5 32.8,32.5 33.8,32.5 42.8,32.5 42.8,23.5 33.8,23.5 32.8,23.5 23.8,23.5 "
       id="polygon11" />
    <polygon
       class="st0"
       points="43.8,32.5 52.8,32.5 53.8,32.5 62.1,32.5 59.6,23.5 53.8,23.5 52.8,23.5 43.8,23.5 "
       id="polygon12" />
    <polygon
       class="st0"
       points="64.3,40.5 62.3,33.5 53.8,33.5 53.8,42.5 61.7,42.5 "
       id="polygon13" />
    <polygon
       class="st0"
       points="33.8,42.5 42.8,42.5 43.8,42.5 52.8,42.5 52.8,33.5 43.8,33.5 42.8,33.5 33.8,33.5 "
       id="polygon14" />
    <polygon
       class="st0"
       points="32.8,33.5 23.8,33.5 22.8,33.5 13.8,33.5 13.8,42.5 22.8,42.5 23.8,42.5 32.8,42.5 "
       id="polygon15" />
    <polygon
       class="st0"
       points="2.3,40.5 4.9,42.5 12.8,42.5 12.8,33.5 4.2,33.5 "
       id="polygon16" />
    <polygon
       class="st0"
       points="12.8,43.5 6.3,43.5 18.1,52.5 22.8,52.5 22.8,43.5 13.8,43.5 "
       id="polygon17" />
    <polygon
       class="st0"
       points="23.8,52.5 32.8,52.5 33.8,52.5 42.8,52.5 42.8,43.5 33.8,43.5 32.8,43.5 23.8,43.5 "
       id="polygon18" />
    <polygon
       class="st0"
       points="43.8,52.5 48.5,52.5 60.4,43.5 53.8,43.5 52.8,43.5 43.8,43.5 "
       id="polygon19" />
    <polygon
       class="st0"
       points="33.8,62.5 35.3,62.5 47.2,53.5 43.8,53.5 42.8,53.5 33.8,53.5 "
       id="polygon20" />
    <polygon
       class="st0"
       points="22.8,53.5 19.4,53.5 31.3,62.5 32.8,62.5 32.8,53.5 23.8,53.5 "
       id="polygon21" />
    <polygon
       class="st0"
       points="33.3,64 34,63.5 33.8,63.5 32.8,63.5 32.6,63.5 "
       id="polygon22" />
  </g>
  <g
     id="g23">
    <path
       d="M 15.3,5 H 51.4 L 60.9,39.4 33.3,60.3 5.7,39.3 15.3,5 M 13,2 2.3,40.5 33.3,64 64.3,40.5 53.6,2 Z"
       id="path22" />
    <path
       class="st0"
       d="M 53.6,2 64.3,40.5 33.3,64 2.3,40.5 13,2 H 53.6 M 55.1,0 H 11.5 L 11.1,1.5 0.4,39.9 0,41.2 1.1,42 l 31,23.5 1.2,0.9 1.2,-0.9 L 65.5,42 66.6,41.2 66.2,39.9 55.5,1.5 Z"
       id="path23" />
  </g>
  <g
     id="g24">
    <polygon
       class="st0"
       points="27.6,45 24.5,37.3 32.9,25.9 36.9,26.8 41.2,32.9 44.1,38.6 40.1,45 36.7,45.9 33.3,45.9 "
       id="polygon23" />
    <path
       class="st1"
       d="m 33.3,9.9 c -2.5,4.8 0.4,7.4 -2.7,14.3 -1.8,-1.4 -0.8,-6.6 -4.1,-6.7 0.4,1.7 0.1,2.2 0,2.8 -0.4,2.4 -1.1,4.3 0.4,7.3 -2.3,-1.1 -2.5,-3.2 -4.4,-4.6 0.4,2.2 -0.5,6.9 2.1,11.3 -2.3,-0.3 -3.2,-1.1 -5.6,-3.6 2.6,14 4.7,14.4 14.4,15.3 -0.8,-0.1 -5.8,-1 -7.5,-6.7 0,-1.4 -0.1,1.3 4.7,1.4 -3,-4.9 -2.2,-3.9 -1.9,-6.7 1.4,1.8 0.3,2.1 3.7,3.5 -1.1,-3.6 1.8,-6 1.1,-10.2 0.8,1.8 3.6,1.5 3.4,10.2 2.3,-2.7 2.5,-0.8 3.6,-3.6 0.1,1.5 0.8,3.5 -2.3,6.9 0.8,0.3 2.2,0.4 4.3,-1.1 -2.1,2.5 -0.1,2.5 -5.5,6.4 6.7,0.1 11.1,-4.2 11,-13.6 -0.3,0.8 -0.4,2.5 -4,2.9 2.2,-2.2 3.4,-6.9 1.6,-10.5 -0.7,0.6 -1.6,3.4 -4,4.1 1.1,-2 0.8,-4.5 0.8,-4.5 0,0 0.4,-3.5 -1.6,-6.3 -0.5,4.2 -0.5,6.4 -3.2,7 0.4,-2.4 0.5,-3.6 -0.8,-6.4 -1.4,-2.9 -3,-5.9 -3.3,-8.7 z"
       id="path24" />
  </g>
</svg>
