<?xml version="1.0" encoding="UTF-8" standalone="no"?>
<svg
   id="Layer_1"
   version="1.1"
   viewBox="0 0 66.6 66.400002"
   sodipodi:docname="poi023_a.svg"
   width="66.599998"
   height="66.400002"
   inkscape:version="1.3.2 (091e20e, 2023-11-25, custom)"
   xmlns:inkscape="http://www.inkscape.org/namespaces/inkscape"
   xmlns:sodipodi="http://sodipodi.sourceforge.net/DTD/sodipodi-0.dtd"
   xmlns="http://www.w3.org/2000/svg"
   xmlns:svg="http://www.w3.org/2000/svg">
  <sodipodi:namedview
     id="namedview5"
     pagecolor="#ffffff"
     bordercolor="#000000"
     borderopacity="0.25"
     inkscape:showpageshadow="2"
     inkscape:pageopacity="0.0"
     inkscape:pagecheckerboard="0"
     inkscape:deskcolor="#d1d1d1"
     inkscape:zoom="27.353383"
     inkscape:cx="33.304838"
     inkscape:cy="33.25"
     inkscape:window-width="3840"
     inkscape:window-height="2054"
     inkscape:window-x="2869"
     inkscape:window-y="-11"
     inkscape:window-maximized="1"
     inkscape:current-layer="Layer_1" />
  <!-- Generator: Adobe Illustrator 29.3.1, SVG Export Plug-In . SVG Version: 2.1.0 Build 151)  -->
  <defs
     id="defs1">
    <style
       id="style1">
      .st0 {
        fill: #fff;
      }

      .st1 {
        fill: #0056a4;
      }
    </style>
  </defs>
  <g
     id="g2">
    <polygon
       class="st0"
       points="52.5,3.5 62.6,40 33.3,62.1 4,39.9 14.1,3.5 "
       id="polygon1" />
    <path
       d="M 15.3,5 H 51.4 L 60.9,39.4 33.3,60.3 5.7,39.3 15.3,5 M 13,2 2.3,40.5 33.3,64 64.3,40.5 53.6,2 Z"
       id="path1" />
    <path
       class="st0"
       d="M 13,2 H 53.6 L 64.3,40.5 33.3,64 2.3,40.5 13,2 M 13,0 H 11.5 L 11.1,1.5 0.4,39.9 0,41.2 1.1,42 l 31,23.5 1.2,0.9 1.2,-0.9 L 65.5,42 66.6,41.2 66.2,39.9 55.5,1.5 55.1,0 Z"
       id="path2" />
  </g>
  <g
     id="g5">
    <path
       class="st1"
       d="m 25.7,18.6 c 0,3.2 -2.6,5.7 -5.7,5.7 -3.1,0 -5.7,-2.6 -5.7,-5.7 0,-3.1 2.6,-5.7 5.7,-5.7 3.1,0 5.7,2.6 5.7,5.7 z"
       id="path3" />
    <path
       class="st1"
       d="m 25.7,35.9 c 0,3.2 -2.6,5.7 -5.7,5.7 -3.1,0 -5.7,-2.6 -5.7,-5.7 0,-3.1 2.6,-5.7 5.7,-5.7 3.1,0 5.7,2.6 5.7,5.7 z"
       id="path4" />
    <path
       class="st1"
       d="m 29.6,11.4 v 35 c 0,0.3 0.2,0.5 0.5,0.6 0.1,0 0.3,0 0.4,-0.1 L 54.1,26.2 c 0.2,-0.2 0.3,-0.5 0,-0.8 0,0 0,0 -0.1,-0.1 L 30.4,10.9 c -0.3,-0.2 -0.6,0 -0.7,0.2 0,0 0,0.2 0,0.3 v 0 z"
       id="path5" />
  </g>
</svg>
