<?xml version="1.0" encoding="UTF-8" standalone="no"?>
<svg
   id="Layer_1"
   version="1.1"
   viewBox="0 0 66.6 66.400002"
   sodipodi:docname="poi003_a.svg"
   width="66.599998"
   height="66.400002"
   inkscape:version="1.3.2 (091e20e, 2023-11-25, custom)"
   xmlns:inkscape="http://www.inkscape.org/namespaces/inkscape"
   xmlns:sodipodi="http://sodipodi.sourceforge.net/DTD/sodipodi-0.dtd"
   xmlns="http://www.w3.org/2000/svg"
   xmlns:svg="http://www.w3.org/2000/svg">
  <sodipodi:namedview
     id="namedview10"
     pagecolor="#ffffff"
     bordercolor="#000000"
     borderopacity="0.25"
     inkscape:showpageshadow="2"
     inkscape:pageopacity="0.0"
     inkscape:pagecheckerboard="0"
     inkscape:deskcolor="#d1d1d1"
     inkscape:zoom="27.353383"
     inkscape:cx="33.304838"
     inkscape:cy="33.25"
     inkscape:window-width="3840"
     inkscape:window-height="2054"
     inkscape:window-x="2869"
     inkscape:window-y="-11"
     inkscape:window-maximized="1"
     inkscape:current-layer="Layer_1" />
  <!-- Generator: Adobe Illustrator 29.3.1, SVG Export Plug-In . SVG Version: 2.1.0 Build 151)  -->
  <defs
     id="defs1">
    <style
       id="style1">
      .st0 {
        stroke-width: 2px;
      }

      .st0, .st1 {
        fill: none;
        stroke: #0056a4;
        stroke-miterlimit: 10;
      }

      .st2 {
        fill: #fff;
      }

      .st3 {
        fill: #0056a4;
      }

      .st1 {
        stroke-width: 3px;
      }
    </style>
  </defs>
  <g
     id="g2">
    <polygon
       class="st2"
       points="52.5,3.5 62.6,40 33.3,62.1 4,39.9 14.1,3.5 "
       id="polygon1" />
    <path
       d="M 51.3,5 60.8,39.4 33.2,60.3 5.7,39.3 15.3,5 H 51.4 M 53.6,2 H 13 L 2.3,40.5 33.3,64 64.3,40.5 Z"
       id="path1" />
    <path
       class="st2"
       d="M 53.6,2 64.3,40.5 33.3,64 2.3,40.5 13,2 H 53.6 M 55.1,0 H 11.5 L 11.1,1.5 0.4,39.9 0,41.2 1.1,42 l 31,23.5 1.2,0.9 1.2,-0.9 L 65.5,42 66.6,41.2 66.2,39.9 55.5,1.5 Z"
       id="path2" />
  </g>
  <g
     id="g10">
    <circle
       class="st1"
       cx="33.299999"
       cy="24.1"
       r="13"
       id="circle2" />
    <line
       class="st1"
       x1="52.299999"
       y1="44.099998"
       x2="14.3"
       y2="44.099998"
       id="line2" />
    <g
       id="g5">
      <line
         class="st0"
         x1="21.299999"
         y1="24.1"
         x2="45.299999"
         y2="24.1"
         id="line3" />
      <line
         class="st1"
         x1="39.299999"
         y1="13.7"
         x2="27.299999"
         y2="34.5"
         id="line4" />
      <line
         class="st1"
         x1="27.299999"
         y1="13.7"
         x2="39.299999"
         y2="34.5"
         id="line5" />
    </g>
    <rect
       class="st3"
       x="14.3"
       y="22.1"
       width="4"
       height="4"
       id="rect5" />
    <rect
       class="st3"
       x="48.299999"
       y="22.1"
       width="4"
       height="4"
       id="rect6" />
    <rect
       class="st3"
       x="22.299999"
       y="7.0999999"
       width="4"
       height="4"
       id="rect7" />
    <rect
       class="st3"
       x="40.299999"
       y="37.099998"
       width="4"
       height="4"
       id="rect8" />
    <rect
       class="st3"
       x="40.299999"
       y="7.0999999"
       width="4"
       height="4"
       id="rect9" />
    <rect
       class="st3"
       x="22.299999"
       y="37.099998"
       width="4"
       height="4"
       id="rect10" />
    <polygon
       class="st1"
       points="33.3,24.1 21.7,44.1 44.8,44.1 "
       id="polygon10" />
  </g>
</svg>
