<?xml version="1.0" encoding="UTF-8" standalone="no"?>
<svg
   id="Layer_1"
   version="1.1"
   viewBox="0 0 66.6 66.400002"
   sodipodi:docname="poi026_a.svg"
   width="66.599998"
   height="66.400002"
   inkscape:version="1.3.2 (091e20e, 2023-11-25, custom)"
   xmlns:inkscape="http://www.inkscape.org/namespaces/inkscape"
   xmlns:sodipodi="http://sodipodi.sourceforge.net/DTD/sodipodi-0.dtd"
   xmlns="http://www.w3.org/2000/svg"
   xmlns:svg="http://www.w3.org/2000/svg">
  <sodipodi:namedview
     id="namedview6"
     pagecolor="#ffffff"
     bordercolor="#000000"
     borderopacity="0.25"
     inkscape:showpageshadow="2"
     inkscape:pageopacity="0.0"
     inkscape:pagecheckerboard="0"
     inkscape:deskcolor="#d1d1d1"
     inkscape:zoom="27.353383"
     inkscape:cx="33.304838"
     inkscape:cy="33.25"
     inkscape:window-width="3840"
     inkscape:window-height="2054"
     inkscape:window-x="2869"
     inkscape:window-y="-11"
     inkscape:window-maximized="1"
     inkscape:current-layer="Layer_1" />
  <!-- Generator: Adobe Illustrator 29.3.1, SVG Export Plug-In . SVG Version: 2.1.0 Build 151)  -->
  <defs
     id="defs1">
    <style
       id="style1">
      .st0 {
        fill: #fff;
      }

      .st1 {
        fill: red;
      }
    </style>
  </defs>
  <g
     id="g2">
    <polygon
       class="st0"
       points="52.5,3.5 62.6,40 33.3,62.1 4,39.9 14.1,3.5 "
       id="polygon1" />
    <path
       d="M 51.3,5 60.8,39.4 33.2,60.3 5.7,39.3 15.3,5 H 51.4 M 53.6,2 H 13 L 2.3,40.5 33.3,64 64.3,40.5 Z"
       id="path1" />
    <path
       class="st0"
       d="M 53.6,2 64.3,40.5 33.3,64 2.3,40.5 13,2 H 53.6 M 55.1,0 H 11.5 L 11.1,1.5 0.4,39.9 0,41.2 1.1,42 l 31,23.5 1.2,0.9 1.2,-0.9 L 65.5,42 66.6,41.2 66.2,39.9 55.5,1.5 Z"
       id="path2" />
  </g>
  <g
     id="g6">
    <path
       class="st1"
       d="m 47.5,21.7 v -0.3 c 0,0 -0.3,-0.2 -0.3,-0.2 -9.3,-4.9 -18.8,-4.9 -28.1,0 l -0.3,0.2 v 0.4 C 18.5,32.3 23.2,40 32.9,44.5 h 0.2 c 0,0.1 0.3,0 0.3,0 C 43.5,40.1 48.2,32.4 47.5,21.7 Z M 33.1,43.3 C 24.2,39 19.7,31.9 19.9,22.2 c 8.8,-4.5 17.7,-4.5 26.4,0 0.5,9.8 -3.9,17 -13.2,21.1 z"
       id="path3" />
    <path
       class="st1"
       d="m 33,16.6 c 2.6,0 4.7,-2.1 4.7,-4.7 0,-2.6 -2.1,-4.6 -4.7,-4.6 -2.6,0 -4.7,2.1 -4.7,4.6 0,2.6 2.1,4.7 4.7,4.7 z"
       id="path4" />
    <path
       class="st1"
       d="m 17.3,33.7 c -2.6,0 -4.7,2.1 -4.7,4.7 0,2.6 2.1,4.6 4.7,4.6 2.6,0 4.6,-2.1 4.6,-4.6 0,-2.6 -2.1,-4.7 -4.6,-4.7 z"
       id="path5" />
    <path
       class="st1"
       d="m 49.3,34 c -2.6,0 -4.6,2.1 -4.6,4.6 0,2.5 2.1,4.7 4.6,4.7 2.5,0 4.7,-2.1 4.7,-4.7 C 54,36 51.9,34 49.3,34 Z"
       id="path6" />
  </g>
</svg>
