<?xml version="1.0" encoding="UTF-8" standalone="no"?>
<svg
   id="Layer_1"
   version="1.1"
   viewBox="0 0 66.6 66.5"
   sodipodi:docname="poi028_a.svg"
   width="66.599998"
   height="66.5"
   inkscape:version="1.3.2 (091e20e, 2023-11-25, custom)"
   xmlns:inkscape="http://www.inkscape.org/namespaces/inkscape"
   xmlns:sodipodi="http://sodipodi.sourceforge.net/DTD/sodipodi-0.dtd"
   xmlns="http://www.w3.org/2000/svg"
   xmlns:svg="http://www.w3.org/2000/svg">
  <sodipodi:namedview
     id="namedview4"
     pagecolor="#ffffff"
     bordercolor="#000000"
     borderopacity="0.25"
     inkscape:showpageshadow="2"
     inkscape:pageopacity="0.0"
     inkscape:pagecheckerboard="0"
     inkscape:deskcolor="#d1d1d1"
     inkscape:zoom="27.353383"
     inkscape:cx="33.304838"
     inkscape:cy="33.25"
     inkscape:window-width="3840"
     inkscape:window-height="2054"
     inkscape:window-x="2869"
     inkscape:window-y="-11"
     inkscape:window-maximized="1"
     inkscape:current-layer="Layer_1" />
  <!-- Generator: Adobe Illustrator 29.3.1, SVG Export Plug-In . SVG Version: 2.1.0 Build 151)  -->
  <defs
     id="defs1">
    <style
       id="style1">
      .st0 {
        fill: #fff;
      }

      .st1 {
        fill: #ff0;
      }
    </style>
  </defs>
  <g
     id="g2">
    <g
       id="g1">
      <polygon
         class="st1"
         points="53.8,1.8 64.6,40.6 33.3,64.3 2,40.6 12.8,1.8 "
         id="polygon1" />
      <path
         class="st0"
         d="M 52.5,3.5 62.6,40 33.3,62.2 4,39.9 14.1,3.5 H 52.4 M 55.1,0 H 11.5 L 10.8,2.6 0.6,39 0,41.3 1.9,42.7 31.2,64.9 33.3,66.5 35.4,64.9 64.7,42.7 66.6,41.3 66,39 55.8,2.6 Z"
         id="path1" />
    </g>
    <path
       d="M 51.3,5 60.8,39.4 33.2,60.3 5.7,39.3 15.3,5 H 51.4 M 53.6,2 H 13 L 2.3,40.5 33.3,64 64.3,40.5 Z"
       id="path2" />
  </g>
  <g
     id="g4">
    <path
       class="st0"
       d="M 52.7,28 C 51.8,26.3 47,16.1 46.9,16 c 0,-0.1 -0.5,-1 -1.5,-1.3 -0.7,-0.2 -1.5,0 -2.3,0.5 -0.8,0.5 -1.3,1.2 -1.4,1.9 -0.2,0.9 0.2,1.6 0.4,1.8 0,0.1 0.2,0.5 0.5,1.1 -0.8,0.2 -1.7,0.2 -2.5,0 -0.3,-0.1 -0.5,-0.3 -0.8,-0.5 -0.4,-0.3 -0.9,-0.7 -1.7,-0.8 -2.6,-0.6 -6.2,-0.3 -7,0 -0.9,0.3 -1.3,0.8 -2.3,2.2 0,0.1 -0.2,0.3 -0.3,0.4 -0.6,-0.2 -1.8,-0.5 -2.3,-0.6 -0.2,0 -0.9,-0.6 -1.5,-1.2 0.1,-0.3 0.2,-0.4 0.2,-0.5 0.1,-0.2 0.5,-0.9 0.4,-1.8 -0.1,-0.7 -0.6,-1.4 -1.4,-1.9 -0.8,-0.5 -1.6,-0.7 -2.3,-0.5 -1,0.3 -1.5,1.2 -1.5,1.3 0,0.1 -4.8,10.2 -5.8,12 -1,1.9 -0.5,2.5 0.6,3.4 0.1,0 0.2,0.2 0.3,0.3 0.6,0.6 1.4,1.2 2.3,1.2 0.9,0 0.2,0 0.2,0 0.5,0 0.9,-0.4 1.3,-0.9 0,-0.1 0.2,-0.3 0.3,-0.6 0.1,0.3 0.2,0.5 0.3,0.8 0,0.8 0.6,1.3 1,1.7 -0.5,1.1 -0.7,2.7 0,3.5 0.3,0.3 0.7,0.6 1.1,0.7 -0.1,0.3 -0.2,0.7 -0.1,1.2 0,0.4 0.3,1 1.1,1.4 0.4,0.2 0.7,0.3 1.1,0.3 0.4,0 0,0 0.1,0 0,0.8 0.3,1.7 1.2,2.3 0.4,0.3 0.8,0.4 1.2,0.4 0.4,0 0.6,0 0.9,-0.2 0.2,0.5 0.6,0.9 0.8,1 0.3,0.3 0.8,0.4 1.3,0.4 0.8,0 1.7,-0.3 2.5,-1.1 0.5,0.4 1.3,1.1 2.5,1.7 0.5,0.2 0.9,0.3 1.3,0.3 0.4,0 0.7,0 1,-0.2 1,-0.5 1.5,-1.6 1.8,-2.3 0.2,0 0.3,0 0.5,0 0.6,0 1,-0.1 1.3,-0.3 1.1,-0.5 1.3,-1.6 1.3,-2.3 0.2,0 0.3,0 0.5,0 0.5,0 0.9,-0.1 1.2,-0.4 0.7,-0.6 0.8,-1.7 0.9,-2.4 0,0 0,0 0.1,0 0.7,0 1.3,-0.2 1.7,-0.6 0.8,-0.9 0.3,-2.5 -0.3,-3.5 0.7,-0.3 1.7,-1 2.6,-2.2 0.1,0.3 0.2,0.5 0.3,0.6 0.3,0.5 0.8,0.9 1.3,0.9 0,0 0.2,0 0.2,0 0.8,0 1.6,-0.6 2.3,-1.2 0.1,-0.1 0.2,-0.2 0.3,-0.3 1.1,-0.9 1.6,-1.5 0.6,-3.4 z"
       id="path3" />
    <path
       d="M 52.7,28 C 51.8,26.3 47,16.1 46.9,16 c 0,-0.1 -0.5,-1 -1.5,-1.3 -0.7,-0.2 -1.5,0 -2.3,0.5 -0.8,0.5 -1.3,1.2 -1.4,1.9 -0.2,0.9 0.2,1.6 0.4,1.8 0,0.1 0.2,0.5 0.5,1.1 -0.8,0.2 -1.7,0.2 -2.5,0 -0.3,-0.1 -0.5,-0.3 -0.8,-0.5 -0.4,-0.3 -0.9,-0.7 -1.7,-0.8 -2.6,-0.6 -6.2,-0.3 -7,0 -0.9,0.3 -1.3,0.8 -2.3,2.2 0,0.1 -0.2,0.3 -0.3,0.4 -0.6,-0.2 -1.8,-0.5 -2.3,-0.6 -0.2,0 -0.9,-0.6 -1.5,-1.2 0.1,-0.3 0.2,-0.4 0.2,-0.5 0.1,-0.2 0.5,-0.9 0.4,-1.8 -0.1,-0.7 -0.6,-1.4 -1.4,-1.9 -0.8,-0.5 -1.6,-0.7 -2.3,-0.5 -1,0.3 -1.5,1.2 -1.5,1.3 0,0.1 -4.8,10.2 -5.8,12 -1,1.9 -0.5,2.5 0.6,3.4 0.1,0 0.2,0.2 0.3,0.3 0.6,0.6 1.4,1.2 2.3,1.2 0.9,0 0.2,0 0.2,0 0.5,0 0.9,-0.4 1.3,-0.9 0,-0.1 0.2,-0.3 0.3,-0.6 0.1,0.3 0.2,0.5 0.3,0.8 0,0.8 0.6,1.3 1,1.7 -0.5,1.1 -0.7,2.7 0,3.5 0.3,0.3 0.7,0.6 1.1,0.7 -0.1,0.3 -0.2,0.7 -0.1,1.2 0,0.4 0.3,1 1.1,1.4 0.4,0.2 0.7,0.3 1.1,0.3 0.4,0 0,0 0.1,0 0,0.8 0.3,1.7 1.2,2.3 0.4,0.3 0.8,0.4 1.2,0.4 0.4,0 0.6,0 0.9,-0.2 0.2,0.5 0.6,0.9 0.8,1 0.3,0.3 0.8,0.4 1.3,0.4 0.8,0 1.7,-0.3 2.5,-1.1 0.5,0.4 1.3,1.1 2.5,1.7 0.5,0.2 0.9,0.3 1.3,0.3 0.4,0 0.7,0 1,-0.2 1,-0.5 1.5,-1.6 1.8,-2.3 0.2,0 0.3,0 0.5,0 0.6,0 1,-0.1 1.3,-0.3 1.1,-0.5 1.3,-1.6 1.3,-2.3 0.2,0 0.3,0 0.5,0 0.5,0 0.9,-0.1 1.2,-0.4 0.7,-0.6 0.8,-1.7 0.9,-2.4 0,0 0,0 0.1,0 0.7,0 1.3,-0.2 1.7,-0.6 0.8,-0.9 0.3,-2.5 -0.3,-3.5 0.7,-0.3 1.7,-1 2.6,-2.2 0.1,0.3 0.2,0.5 0.3,0.6 0.3,0.5 0.8,0.9 1.3,0.9 0,0 0.2,0 0.2,0 0.8,0 1.6,-0.6 2.3,-1.2 0.1,-0.1 0.2,-0.2 0.3,-0.3 1.1,-0.9 1.6,-1.5 0.6,-3.4 z m -35.2,3.3 c -0.2,0.4 -0.4,0.4 -0.5,0.4 -0.3,0 -0.9,-0.3 -1.6,-0.9 -0.1,-0.1 -0.2,-0.2 -0.3,-0.3 -0.9,-0.8 -0.9,-0.8 -0.3,-2 0.9,-1.8 5.6,-11.6 5.8,-12 0,0 0.3,-0.5 0.8,-0.7 0,0 0.2,0 0.3,0 0.3,0 0.7,0.1 1,0.4 0.5,0.3 0.8,0.7 0.9,1.1 0,0.5 -0.2,0.9 -0.2,0.9 v 0 c -0.1,0.3 -0.2,0.6 -0.4,0.9 0,0 0,0.1 -0.1,0.2 -1.7,3.8 -4.9,11.1 -5.5,12 z m 3.8,2.7 c 0.8,-1.1 1.3,-1.1 1.9,-0.8 0.6,0.3 0.3,1.2 0.2,1.4 -0.6,0.8 -1.1,1.6 -1.5,2.1 0,0 0,0 -0.1,0 0,0 -0.2,0.1 -0.3,0.1 -0.2,0 -0.4,-0.1 -0.6,-0.3 -0.3,-0.3 -0.3,-1.7 0.4,-2.6 z m 1.5,5.5 c -0.3,-0.2 -0.5,-0.4 -0.5,-0.6 0,-0.4 0.2,-0.8 0.3,-0.9 v 0 c 0,0 2.2,-3.3 3.2,-4.4 0.3,-0.3 0.6,-0.5 0.9,-0.5 v 0 c 0.4,0 0.8,0.3 1,0.5 0.2,0.3 0.1,2 -1.4,3.5 -0.3,0.3 -0.6,0.7 -0.9,1 -1.3,1.4 -1.8,1.9 -2.6,1.5 z m 2.4,2.6 c -0.8,-0.5 -0.7,-1.3 -0.6,-1.7 0.6,-0.4 1.1,-1 1.6,-1.6 0.3,-0.3 0.6,-0.6 0.9,-0.9 0.7,-0.8 1.2,-1.6 1.5,-2.5 0.6,0.2 1.6,0.6 1.5,1.6 -0.2,1.3 -0.7,1.8 -1.3,2.4 -0.2,0.2 -0.4,0.4 -0.6,0.6 -0.2,0.2 -0.4,0.5 -0.6,0.8 -1,1.4 -1.6,1.9 -2.3,1.4 z m 3,1.3 c -0.6,-0.5 -0.6,-0.7 -0.4,-1.1 0.3,-0.3 0.5,-0.6 0.7,-0.9 0.2,-0.3 0.4,-0.5 0.5,-0.7 0.2,-0.2 0.3,-0.3 0.5,-0.5 0.2,-0.2 0.4,-0.4 0.6,-0.6 0.1,-0.1 0.5,-0.3 0.8,-0.3 0,0 0.2,0 0.4,0.3 0.8,1.1 0,2.4 -0.6,3 -1,1 -2.1,1.1 -2.5,0.8 z m 16.3,-7 c -0.4,0.4 -1.9,0.2 -2.2,-0.1 -0.5,-0.4 -0.9,-0.7 -1.3,-1 -1.7,-1.3 -2.9,-2.3 -3.9,-3.5 -0.2,-0.2 -0.6,-0.3 -0.8,0 -0.2,0.3 -0.3,0.6 0,0.8 1.1,1.3 2.4,2.3 4.1,3.6 0.4,0.3 0.8,0.7 1.3,1 0.2,0.2 0.5,0.3 0.9,0.4 0,0.6 0,1.4 -0.5,1.7 -0.6,0.5 -2.2,-0.4 -3.4,-1.1 -1.7,-1 -3.3,-2.8 -3.3,-2.8 -0.2,-0.2 -0.6,-0.3 -0.8,0 -0.2,0.2 -0.2,0.6 0,0.8 0,0 1.7,1.9 3.5,3 0.6,0.4 1.3,0.7 1.9,1 0,0.5 0,1.3 -0.6,1.7 -0.6,0.3 -2.5,0.6 -5.2,-2.9 -0.2,-0.3 -0.6,-0.3 -0.8,-0.1 -0.3,0.2 -0.3,0.6 -0.1,0.8 1.4,1.8 2.6,2.8 3.7,3.2 -0.2,0.5 -0.6,1.3 -1.2,1.5 -0.4,0.2 -0.8,0.1 -1.3,-0.1 -1.1,-0.5 -1.8,-1.2 -2.2,-1.5 0.9,-1.3 1,-2.7 0.1,-3.8 -0.3,-0.4 -0.7,-0.7 -1.2,-0.7 0,0 0,0 0,0 0.1,-0.3 0.2,-0.7 0.2,-1.1 0.2,-1.7 -1.3,-2.6 -2.4,-2.8 0,-0.6 0,-1.2 -0.4,-1.5 C 28.1,32.3 27.4,32 26.7,32 v 0 c -0.5,0 -1.1,0.2 -1.8,0.9 0,0 -0.1,0.2 -0.2,0.3 -0.1,-0.3 -0.4,-0.7 -0.8,-0.9 -1.1,-0.6 -2.1,-0.4 -3.1,0.7 -0.2,-0.2 -0.5,-0.5 -0.5,-0.8 0,-0.8 -0.5,-1.5 -0.8,-1.9 1.2,-2.6 3.2,-7.1 4.3,-9.6 0.5,0.5 1.2,1.2 1.8,1.2 0.4,0 1.2,0.3 1.8,0.4 -0.9,1.4 -1.7,2.9 -1.8,3.4 -0.1,0.7 -0.3,2 0.4,2.6 1.1,0.9 3.2,-0.4 3.8,-0.8 1,-0.7 1.5,-1.4 1.8,-1.9 0.3,-0.4 0.4,-0.6 0.7,-0.7 0.7,-0.3 1.7,0.5 5.7,3.4 3.2,2.4 4.2,3.6 5.3,5 0.1,0.2 0.3,0.4 0.5,0.5 0.6,0.7 1.1,2.2 0.7,2.6 z m -0.1,-3.7 c 0,0 -0.1,-0.1 -0.2,-0.2 -1.1,-1.4 -2.2,-2.6 -5.5,-5.1 -4.4,-3.3 -5.5,-4.1 -6.8,-3.6 -0.7,0.3 -1,0.7 -1.3,1.2 -0.3,0.5 -0.7,1 -1.5,1.6 -1.2,0.8 -2.2,1.1 -2.4,0.9 -0.1,-0.1 -0.3,-0.6 0,-1.5 0,-0.4 1,-2.1 2.1,-3.7 0,0 0,0 0,0 0.2,-0.2 0.3,-0.5 0.5,-0.7 1,-1.4 1.2,-1.6 1.8,-1.8 0.5,-0.2 3.9,-0.5 6.3,0 0.5,0.1 0.8,0.4 1.2,0.6 0.3,0.2 0.6,0.5 1.1,0.6 1.1,0.4 2.4,0.4 3.4,0 1.1,2.6 3,6.8 4.1,9.2 -1,1.4 -2.2,2.1 -2.8,2.4 z m 7,-2.1 c -0.1,0 -0.2,0.2 -0.3,0.3 -0.7,0.6 -1.2,0.9 -1.6,0.9 0,0 -0.2,0 -0.5,-0.4 -0.6,-0.9 -4.5,-9.7 -5.9,-13 v 0 c 0,-0.1 -0.3,-0.5 -0.2,-1 0,-0.4 0.4,-0.8 0.9,-1.1 0.4,-0.2 0.7,-0.4 1,-0.4 0.3,0 0.2,0 0.3,0 0.5,0.1 0.8,0.7 0.8,0.7 v 0 c 0.2,0.4 4.8,10.3 5.8,12 0.6,1.2 0.6,1.2 -0.3,2 z"
       id="path4" />
  </g>
</svg>
