<?xml version="1.0" encoding="UTF-8" standalone="no"?>
<!-- Generator: Adobe Illustrator 29.4.0, SVG Export Plug-In . SVG Version: 9.03 Build 0)  -->

<svg
   version="1.1"
   id="Layer_1"
   x="0px"
   y="0px"
   viewBox="0 0 33.444042 41.213381"
   xml:space="preserve"
   sodipodi:docname="drg013_c.svg"
   width="33.444042"
   height="41.213383"
   inkscape:version="1.3.2 (091e20e, 2023-11-25, custom)"
   xmlns:inkscape="http://www.inkscape.org/namespaces/inkscape"
   xmlns:sodipodi="http://sodipodi.sourceforge.net/DTD/sodipodi-0.dtd"
   xmlns="http://www.w3.org/2000/svg"
   xmlns:svg="http://www.w3.org/2000/svg"><defs
   id="defs7" /><sodipodi:namedview
   id="namedview7"
   pagecolor="#ffffff"
   bordercolor="#000000"
   borderopacity="0.25"
   inkscape:showpageshadow="2"
   inkscape:pageopacity="0.0"
   inkscape:pagecheckerboard="0"
   inkscape:deskcolor="#d1d1d1"
   inkscape:zoom="44.136558"
   inkscape:cx="16.720833"
   inkscape:cy="20.606501"
   inkscape:window-width="3840"
   inkscape:window-height="2054"
   inkscape:window-x="2869"
   inkscape:window-y="-11"
   inkscape:window-maximized="1"
   inkscape:current-layer="Layer_1" />
<path
   style="fill:#ffffff"
   d="m 31.839429,23.927384 c -0.857,-0.655 -1.739,-1.336 -2.622,-2.016 -0.867,-0.669 -1.735,-1.338 -2.593,-1.995 -0.985,-0.739 -1.945,-1.502 -2.906,-2.266 -0.465,-0.37 -0.93,-0.739 -1.395,-1.104 0.042,-0.07 0.088,-0.138 0.122,-0.214 l 0.828,-1.859 c 0.046,-0.103 0.082,-0.207 0.109,-0.312 0.054,-0.082 0.103,-0.167 0.145,-0.257 0.039,-0.018 0.092,-0.04 0.16,-0.066 1.555,-0.599 2.453,-1.383 3.005,-2.622 0.864,-1.9360004 0.458,-4.4670004 -2.396,-5.7600004 -1.446,-0.654 -2.85,-0.619 -4.019,-0.009 0.008,-0.157 0.015,-0.315 0.011,-0.478 -0.059,-2.34 -1.566,-5.07899998 -5.569,-4.96599998 -3.303,0.062 -5.4619998,2.25099998 -5.5009998,5.57599998 -0.007,0.543 0.208,1.066 0.594,1.447 0.3869998,0.382 0.9109998,0.59 1.4549998,0.576 l 0.819,-0.021 c -0.35,0.706 -0.527,1.469 -0.504,2.403 l 0.006,0.2380004 c 0.004,0.154 0.025,0.305 0.062,0.448 -0.029,0.145 -0.043,0.295 -0.04,0.449 l 0.028,1.112 c -0.086,-0.055 -0.161,-0.123 -0.252,-0.172 -1.254,-0.714 -2.7289998,-0.508 -3.7759998,0.541 -0.052,0.052 -0.102,0.107 -0.148,0.165 -0.122,0.153 -0.457,0.622 -0.561,1.255 -0.395,-0.098 -0.806,-0.172 -1.244,-0.201 -0.044,-0.003 -0.089,-0.004 -0.133,-0.004 -0.436,0 -1.23,0 -2,0.467 -0.668,0.365 -1.925,1.349 -1.572,3.462 0.078,0.471 0.476,1.875 2.277,2.122 -0.243,0.496 -0.405,1.052 -0.405,1.549 0,1.049 0.554,1.638 0.884,1.896 0.483,0.377 1,0.483 1.446,0.483 0.401,0 0.745,-0.086 0.955,-0.139 0.586,-0.146 1.245,-0.292 1.941,-0.439 0.102,1.408 0.626,2.697 1.4479998,3.746 -0.5629998,0.175 -1.0809998,0.437 -1.5149998,0.784 -1.65,1.307 -3.381,2.588 -5.054,3.828 -0.74,0.549 -1.477,1.095 -2.181,1.623 -1.00199997,0.729 -1.57999997,1.615 -1.71799997,2.637 -0.132,0.979 0.163,1.974 0.933,3.029 0.17199997,0.215 0.32199997,0.431 0.47199997,0.646 0.2,0.285 0.4,0.569 0.629,0.854 0.379,0.474 0.954,0.75 1.561,0.75 h 4.3 c 0.346,0 1.688,0.1 2.0999998,0.1 h 11.7 c 1.104,0 2,-0.896 2,-2 l 0.001,-6.169 c 1.047,-0.365 2.081,-0.73 3.115,-1.095 1.257,-0.443 2.513,-0.888 3.794,-1.331 1.34,-0.404 2.326,-1.404 2.713,-2.754 0.028,-0.1 0.049,-0.201 0.062,-0.304 0.261,-2.108 -1.068,-3.216 -1.571,-3.633 z"
   id="path1" />
<g
   id="g5"
   transform="translate(4.2923465e-4,3.8362107e-4)">
	<circle
   cx="15.924"
   cy="22.716"
   r="4.9000001"
   id="circle1" />
	<path
   d="m 11.524,17.016 c 0.3,-1.1 -0.1,-2.7 -1.1,-3.2 -0.5,-0.3 -1,-0.2 -1.4,0.2 -0.4,0.5 0,0.7 0.3,1 0.7,0.7 1.4,1.3 2.1,2 z"
   id="path2" />
	<path
   d="m 10.024,39.216 h 11.7 c 0,-2.3 0,-4.6 0,-6.9 0,-0.5 0.1,-0.7 0.6,-0.9 2.6,-0.9 5.1,-1.8 7.7,-2.7 0.7,-0.2 1.2,-0.7 1.4,-1.4 0.1,-0.8 -0.2,-1.3 -0.8,-1.8 -1.7,-1.3 -3.5,-2.7 -5.2,-4 -2,-1.5 -3.9,-3.1 -5.9,-4.6 -0.9,-0.7 -1.9,-0.6 -2.6,0.4 2.7,0.8 4.2,2.4 4.4,5.2 0,0.2 0.2,0.4 0.3,0.5 0.9,0.7 1.9,1.5 2.8,2.2 0.5,0.4 1.1,0.8 1.7,1.3 -0.2,0 -0.4,0.2 -0.6,0.2 -1.8,0.6 -3.5,1.2 -5.3,1.8 -0.3,0.1 -0.6,0.2 -1,0.2 -2.4,0 -4.8,0 -7.1,0 -0.7,0 -1.4,0.2 -1.9,0.6 -2.4,1.9 -4.9,3.7 -7.3,5.5 -1.1,0.8 -1.2,1.7 -0.4,2.8 0.4,0.5 0.7,1 1.1,1.5 h 4.3 c -0.6,-0.8 -1.2,-1.6 -1.8,-2.4 1.3,-1 2.6,-2 4,-3 0,1.8 0,3.6 0,5.4 z"
   id="path3" />
	<path
   d="m 8.924,17.916 c -0.8,-1.4 -1.9,-2 -3.4,-2.1 -0.3,0 -0.7,0 -1,0.2 -0.6,0.3 -0.7,0.8 -0.6,1.4 0.1,0.6 0.6,0.5 1,0.5 1.3,0 2.5,0 3.9,0 z"
   id="path4" />
	<path
   d="m 6.624,21.716 c 0.8,-0.2 1.7,-0.4 2.7,-0.6 -0.3,-0.3 -0.6,-0.5 -0.8,-0.6 -0.7,-0.4 -1.5,-0.6 -2.3,-0.1 -0.2,0.2 -0.4,0.7 -0.4,1 0,0.5 0.4,0.4 0.8,0.3 z"
   id="path5" />
</g>
<g
   id="g6"
   transform="translate(4.2923465e-4,3.8362107e-4)">
	<path
   d="M 13.588,10.174 13.582,9.936 C 13.554,8.809 13.937,8.103 15.084,6.887 15.745,6.185 16.016,5.672 16.003,5.078 15.986,4.313 15.565,3.778 14.722,3.8 13.871,3.821 13.408,4.388 13.351,5.55 l -2.133,0.053 c 0.021,-1.822 0.904,-3.55 3.539,-3.6 2.67,-0.052 3.496,1.538 3.533,3.017 0.024,0.998 -0.248,1.808 -1.411,3.033 -0.673,0.709 -0.929,1.186 -0.911,1.881 l 0.005,0.182 z m 0.09,3.661 -0.068,-2.764 2.384,-0.06 0.069,2.765 z"
   id="path6" />
</g>
<g
   id="g7"
   transform="translate(4.2923465e-4,3.8362107e-4)">
	<path
   d="m 19.014,14.803 0.828,-1.858 1.604,0.715 -0.828,1.859 z m 1.098,-2.462 0.071,-0.16 c 0.338,-0.758 0.815,-1.106 1.963,-1.551 0.66,-0.258 1.003,-0.513 1.183,-0.912 C 23.559,9.204 23.448,8.716 22.882,8.464 22.31,8.209 21.822,8.439 21.417,9.193 L 19.982,8.554 c 0.591,-1.205 1.723,-2.074 3.49,-1.274 1.792,0.812 1.837,2.129 1.394,3.123 -0.299,0.671 -0.736,1.123 -1.897,1.57 -0.67,0.258 -0.99,0.494 -1.199,0.962 l -0.054,0.122 z"
   id="path7" />
</g>
</svg>
