<?xml version="1.0" encoding="UTF-8" standalone="no"?>
<svg
   id="Layer_1"
   version="1.1"
   viewBox="0 0 62 62"
   sodipodi:docname="poi038_b.svg"
   width="62"
   height="62"
   inkscape:version="1.3.2 (091e20e, 2023-11-25, custom)"
   xmlns:inkscape="http://www.inkscape.org/namespaces/inkscape"
   xmlns:sodipodi="http://sodipodi.sourceforge.net/DTD/sodipodi-0.dtd"
   xmlns="http://www.w3.org/2000/svg"
   xmlns:svg="http://www.w3.org/2000/svg">
  <sodipodi:namedview
     id="namedview10"
     pagecolor="#ffffff"
     bordercolor="#000000"
     borderopacity="0.25"
     inkscape:showpageshadow="2"
     inkscape:pageopacity="0.0"
     inkscape:pagecheckerboard="0"
     inkscape:deskcolor="#d1d1d1"
     inkscape:zoom="29.33871"
     inkscape:cx="30.982958"
     inkscape:cy="31"
     inkscape:window-width="3840"
     inkscape:window-height="2054"
     inkscape:window-x="2869"
     inkscape:window-y="-11"
     inkscape:window-maximized="1"
     inkscape:current-layer="Layer_1" />
  <!-- Generator: Adobe Illustrator 29.3.1, SVG Export Plug-In . SVG Version: 2.1.0 Build 151)  -->
  <defs
     id="defs1">
    <style
       id="style1">
      .st0 {
        fill: #0056a4;
      }

      .st1 {
        fill: none;
        stroke: #0056a4;
        stroke-miterlimit: 10;
        stroke-width: 3px;
      }
    </style>
  </defs>
  <path
     d="M 13,3 H 49.1 L 58.6,37.4 31,58.3 3.4,37.3 13,3 M 10.7,0 0,38.5 31,62 62,38.5 51.3,0 Z"
     id="path1" />
  <path
     class="st1"
     d="m 32.5,35.8 c 0.9,0.9 2,1.6 3.4,2 2.3,0.6 4.4,0 6.3,-1.4 2.4,-1.7 4.2,-4 5.5,-6.6 2,-3.8 3,-7.8 3.2,-12.1 0,-1.3 -0.6,-1.9 -1.9,-1.7 -5.5,0.9 -10.6,-0.2 -15.4,-3.1 -0.4,-0.2 -0.7,-0.5 -1.1,-0.7 -0.9,-0.6 -1.8,-0.3 -2.2,0.7 -0.4,1 -0.7,1.9 -0.9,2.9"
     id="path2" />
  <path
     class="st0"
     d="m 32.2,31 c 0.1,-0.3 0.2,-0.4 0.2,-0.5 1.2,-2 3.7,-3.1 5.9,-2.5 2.3,0.6 3.9,2.8 4,5.2 0,0.2 0,0.3 -0.1,0.5 -0.1,0 -0.3,-0.2 -0.4,-0.3 -2.2,-2.3 -4.9,-3.2 -8,-2.8 -0.5,0 -0.9,0.2 -1.5,0.3 z"
     id="path3" />
  <path
     class="st0"
     d="m 32.3,20.4 c 0,0 -0.2,0 -0.3,-0.1 -0.2,0 -0.5,-0.4 -0.7,0 -0.1,0.2 0,0.6 0.1,0.8 1.4,2.5 4.7,2.4 6.2,0 0.1,-0.2 0.2,-0.5 0.1,-0.6 -0.1,-0.3 -0.4,-0.1 -0.7,0 -1.6,0.7 -3.2,0.7 -4.8,0 z"
     id="path4" />
  <path
     class="st0"
     d="m 47.4,24.1 c 0,0 0,-0.3 0,-0.4 0,-0.1 -0.3,-0.2 -0.4,-0.2 -2,0 -3.6,-0.8 -4.9,-2.2 0,-0.1 -0.4,-0.2 -0.5,-0.2 -0.1,0 -0.2,0.3 -0.2,0.5 0,1.5 0.7,2.6 2,3.2 1.3,0.6 2.6,0.4 3.9,-0.5 0,0 0,0 0.2,-0.2 z"
     id="path5" />
  <path
     class="st0"
     d="m 46.3,26.6 c 0,0 0,0 -0.1,0 -0.4,0.3 -0.8,0.5 -1,0.8 -0.2,0.2 -0.2,0.6 -0.1,0.8 0,0.2 0.4,0.4 0.6,0.4 0.2,0 0.5,-0.3 0.6,-0.5 0.1,-0.4 0,-0.9 0.1,-1.3 z"
     id="path6" />
  <path
     class="st1"
     d="m 33.8,27.8 c 0,3.8 -0.5,6.8 -2,9.6 -1.1,2.1 -2.6,3.7 -4.8,4.3 -2.3,0.7 -4.4,0.1 -6.4,-1.1 -2.5,-1.5 -4.3,-3.8 -5.8,-6.4 -2.1,-3.7 -3.4,-7.7 -3.8,-11.9 -0.1,-1.3 0.5,-1.9 1.8,-1.7 5.5,0.6 10.6,-0.7 15.2,-3.8 0.4,-0.2 0.7,-0.5 1,-0.8 0.9,-0.7 1.8,-0.4 2.2,0.6 1,2.4 1.8,4.8 2.1,7.4 0.2,1.4 0.3,2.9 0.4,3.7 z"
     id="path7" />
  <path
     class="st0"
     d="m 19.5,34 c 0.1,0.3 0.1,0.4 0.2,0.5 1.2,2.1 3.6,3.1 5.9,2.5 2.3,-0.6 4,-2.7 4.1,-5.2 0,-0.2 0,-0.3 -0.1,-0.5 -0.1,0 -0.3,0.2 -0.4,0.3 -2.3,2.3 -5,3.1 -8.1,2.7 -0.5,0 -0.9,-0.2 -1.5,-0.3 z"
     id="path8" />
  <path
     class="st0"
     d="m 30.1,24.6 c 0,0 0.2,0 0.3,0 0.3,0 0.7,0.1 0.7,-0.3 0,-0.2 -0.2,-0.5 -0.4,-0.7 -2.3,-1.7 -5.3,-0.4 -5.7,2.5 0,0.2 0,0.5 0.2,0.6 0.3,0.2 0.4,0 0.6,-0.2 1.2,-1.2 2.7,-1.9 4.4,-1.9 z"
     id="path9" />
  <path
     class="st0"
     d="m 14.6,28.6 c 0,0 0,0.3 0.2,0.3 0.1,0 0.3,0 0.5,0 1.7,-1.1 3.5,-1.3 5.4,-0.8 0.1,0 0.4,0 0.5,-0.1 0,-0.1 0,-0.4 0,-0.5 -0.9,-1.2 -2,-1.8 -3.4,-1.6 -1.5,0.2 -2.4,1.1 -3,2.5 0,0 0,0.1 0,0.3 z"
     id="path10" />
</svg>
