<?xml version="1.0" encoding="UTF-8" standalone="no"?>
<!-- Generator: Adobe Illustrator 29.4.0, SVG Export Plug-In . SVG Version: 9.03 Build 0)  -->

<svg
   version="1.1"
   id="Layer_1"
   x="0px"
   y="0px"
   viewBox="0 0 36 37.1"
   xml:space="preserve"
   sodipodi:docname="poi022_c.svg"
   width="36"
   height="37.099998"
   inkscape:version="1.3.2 (091e20e, 2023-11-25, custom)"
   xmlns:inkscape="http://www.inkscape.org/namespaces/inkscape"
   xmlns:sodipodi="http://sodipodi.sourceforge.net/DTD/sodipodi-0.dtd"
   xmlns="http://www.w3.org/2000/svg"
   xmlns:svg="http://www.w3.org/2000/svg"><defs
   id="defs18" /><sodipodi:namedview
   id="namedview18"
   pagecolor="#ffffff"
   bordercolor="#000000"
   borderopacity="0.25"
   inkscape:showpageshadow="2"
   inkscape:pageopacity="0.0"
   inkscape:pagecheckerboard="0"
   inkscape:deskcolor="#d1d1d1"
   inkscape:zoom="49.029652"
   inkscape:cx="18.00951"
   inkscape:cy="18.549999"
   inkscape:window-width="3840"
   inkscape:window-height="2054"
   inkscape:window-x="2869"
   inkscape:window-y="-11"
   inkscape:window-maximized="1"
   inkscape:current-layer="Layer_1" />
<path
   style="fill:#ffffff"
   d="M 34.9,5.5 34.4,4.8 C 33.8,4 33.3,3.3 32.7,2.5 32.1,1.7 31.3,1.3 30.3,1.3 c -3.4,0 -7,0 -10.5,0 0,0 0,0 -0.1,0 V 0.9 C 19.7,0.5 19.3,0.1 18.9,0 18.5,0 18,0.1 17.8,0.5 l -0.2,0.3 c -0.3,0.1 -0.5,0.3 -0.7,0.5 -3.8,0 -7.6,0 -11.4,0 v 0 C 4.5,1.3 3.7,1.7 3.1,2.5 2.7,3 2.4,3.5 2,4.1 1.5,4.8 1.1,5.4 0.6,6.1 0.2,6.5 0,7.1 0,7.7 0,8.1 0,8.6 0,9 c 0,0.4 0,0.8 0,1.2 0,0.8 0.2,2 1.1,3.1 0,2.6 0,5.2 0,7.8 v 0.7 C 0.4,22.3 0,23.1 0,24 c 0,0.6 0,1.2 0,1.8 0,0.9 0.4,1.7 1.1,2.1 v 6.4 c 0,1.7 1,2.8 2.8,2.8 h 28 c 1.7,0 2.8,-1 2.8,-2.8 v -6.4 c 0.7,-0.5 1.1,-1.2 1.1,-2.2 0,-0.6 0,-1.2 0,-1.7 0,-1 -0.4,-1.7 -1.1,-2.2 0,-2.8 0,-5.5 0,-8.3 0.8,-0.9 1.3,-2 1.3,-3.3 V 9.6 C 36,9.1 36,8.5 36,8 V 8 C 36,6.8 35.7,6 34.9,5.4 Z"
   id="path1" />
<g
   id="g18">
	<path
   style="fill:none"
   d="m 22.4,13 c 0,0.3 0.2,0.6 0.2,0.9 0,-0.3 0.1,-0.6 0.2,-1 -0.1,0 -0.2,0 -0.4,0 z"
   id="path2" />
	<path
   style="fill:none"
   d="M 14.9,11.1 C 14.9,11 15,10.9 15,10.7 15,9.8 15,8.9 15,8 h -3.2 c 0,0.5 0,0.9 0,1.4 h 0.6 c 1.3,0 2,0.8 2.5,1.6 z"
   id="path3" />
	<path
   style="fill:none"
   d="m 21.6,11 c 0.2,0.3 0.3,0.7 0.4,1 0.3,0 0.6,0 0.9,-0.2 0,-0.3 0,-0.6 0.1,-0.9 l 0.3,-2.5 0.4,0.5 c 0,-0.1 0,-0.3 0,-0.4 0,-0.1 0,-0.3 0,-0.4 h -3.2 c 0,0 0,0 0,0.1 0,0.1 0,0.3 0,0.4 0.2,0.4 0.4,0.8 0.5,1.1 0.2,0.4 0.4,0.9 0.6,1.3 z"
   id="path4" />
	<path
   style="fill:none"
   d="M 4.2,23.4 H 5.3 V 22.7 C 5.3,22.4 5.2,22 5.1,21.6 L 4.5,18.4 5.3,19.2 V 13 H 4.2 Z"
   id="path5" />
	<path
   style="fill:none"
   d="m 15.3,12.2 c 0.1,0.4 0.2,0.9 0.3,1.2 v 0 c 0.1,-0.4 0.2,-0.8 0.3,-1.2 -0.1,-0.1 -0.2,-0.2 -0.3,-0.3 0,0.1 -0.2,0.2 -0.3,0.3 z"
   id="path6" />
	<path
   style="fill:none"
   d="m 6.8,20.8 c 0.9,1 1.5,1.6 2.1,2 -0.7,-2.1 -0.7,-4.1 -0.7,-5.7 0,-0.7 0,-1.4 0,-1.8 l -0.5,-2.5 2,1.5 c 0.6,0.4 1,0.9 1.3,1.3 0,-0.7 0.2,-1.5 0.3,-2.1 0,-0.2 0,-0.5 0.1,-0.7 v 0 0 c 0,0 0,-0.1 0,-0.2 v -0.2 c 0,0 -0.1,-0.1 -0.2,-0.2 -1.1,1.3 -2.9,1.6 -4.3,0 -0.4,0.3 -0.5,0.6 -0.5,1.1 0,2.4 0,4.9 0,7.3 L 6.8,21 Z"
   id="path7" />
	<path
   style="fill:none"
   d="M 19.8,7 H 32.2 V 6.9 C 31.6,6.1 31,5.2 30.4,4.4 c 0,0 -0.2,-0.1 -0.4,-0.1 -3.6,0 -7.3,0 -11,0 0,0.9 0.4,1.8 0.8,2.8 z"
   id="path8" />
	<path
   style="fill:none"
   d="m 26.1,13 c 0.4,1.5 0.4,2.9 0.3,3.2 0,0.2 0,0.5 0,0.9 0,0 0.1,-0.2 0.2,-0.3 0.3,-0.5 0.5,-0.8 0.8,-1.1 l 1,-0.8 0.6,1.1 c 0.2,0.5 0.4,1 0.5,1.5 0,-1.7 0,-3.3 0,-5 0,-0.3 -0.1,-0.5 -0.4,-0.7 -0.7,0.8 -1.9,1.2 -3,1 z"
   id="path9" />
	<path
   style="fill:none"
   d="m 30.7,26.4 c -0.4,2.6 -1.3,4.6 -2.8,6.1 -0.6,0.6 -1.3,1.2 -2.1,1.6 h 5.9 v -7.7 c -0.1,0 -0.2,0 -0.3,0 h -0.6 z"
   id="path10" />
	<path
   style="fill:none"
   d="m 6.1,26.4 c -0.5,0 -1.1,0 -1.6,0 -0.3,0 -0.4,0 -0.4,0.4 0,2.3 0,4.7 0,7 0,0 0,0.2 0,0.3 h 7.4 C 8.8,33.1 7.3,31.2 6,26.4 Z"
   id="path11" />
	<path
   style="fill:none"
   d="m 29.6,8.1 c 0,0.8 0,1.5 0,2.2 0,0.9 0.6,1.6 1.5,1.6 0.8,0 1.6,-0.5 1.7,-1.4 0,-0.8 0,-1.7 0,-2.5 -1.1,0 -2.1,0 -3.2,0 z"
   id="path12" />
	<path
   style="fill:none"
   d="M 31.6,23.4 V 13.1 c -0.4,0 -0.7,0 -1.1,0 v 4.8 l 0.3,-1 v 6 c 0,0.2 0,0.4 0,0.6 h 0.7 z"
   id="path13" />
	<path
   style="fill:none"
   d="m 6.3,10.6 c 0,-0.8 0,-1.6 0,-2.5 H 3.1 c 0,0.8 0,1.5 0,2.2 0,0.9 0.7,1.5 1.6,1.6 0.8,0 1.6,-0.5 1.7,-1.4 z"
   id="path14" />
	<path
   style="fill:none"
   d="m 16.9,4.3 c -3.7,0 -7.4,0 -11.1,0 -0.1,0 -0.3,0 -0.4,0.2 C 4.8,5.3 4.3,6 3.7,6.8 c 0,0 0,0.1 -0.1,0.2 h 12.5 c 0,-0.9 0.3,-1.8 0.8,-2.8 z"
   id="path15" />
	<path
   d="M 33.6,7 C 33.6,7 33.5,6.8 33.4,6.8 32.6,5.7 31.9,4.7 31.1,3.6 30.9,3.3 30.7,3.2 30.3,3.2 c -3.7,0 -7.6,0 -11.4,0 L 18.7,0.8 17.5,3.2 c -4,0 -8,0 -11.9,0 C 5.3,3.2 5,3.3 4.8,3.6 4,4.8 3.1,5.9 2.3,7.1 2.2,7.3 2.1,7.5 2.1,7.7 c 0,0.9 0,1.7 0,2.6 0,0.8 0.3,1.5 0.9,2 0.2,0.2 0.2,0.3 0.2,0.5 0,3.4 0,6.8 0,10.2 v 0.4 c -0.2,0 -0.3,0 -0.5,0 -0.4,0 -0.6,0.2 -0.6,0.6 0,0.6 0,1.2 0,1.8 0,0.4 0.2,0.5 0.6,0.6 0.2,0 0.3,0 0.5,0 v 8 c 0,0.6 0.2,0.8 0.8,0.8 h 28 c 0.6,0 0.8,-0.2 0.8,-0.8 v -8 c 0.2,0 0.3,0 0.4,0 0.5,0 0.7,-0.2 0.7,-0.7 0,-0.6 0,-1.1 0,-1.7 0,-0.4 -0.2,-0.6 -0.6,-0.6 -0.2,0 -0.3,0 -0.4,0 0,0 0,-0.1 0,-0.2 0,-3.5 0,-6.9 0,-10.4 0,-0.1 0,-0.3 0.2,-0.3 0.7,-0.6 1.1,-1.3 1.1,-2.3 0,-1 0,-1.5 0,-2.2 0,-0.4 0,-0.8 -0.4,-1 z M 30.3,4.4 c 0.6,0.8 1.2,1.7 1.8,2.5 0,0 0,0 0,0.1 H 19.7 C 19.3,6 19,5.1 18.9,4.2 c 3.7,0 7.4,0 11,0 0.1,0 0.3,0 0.4,0.1 V 4.4 Z M 6.4,13.1 c 0,-0.5 0.1,-0.8 0.5,-1.1 1.4,1.6 3.3,1.2 4.3,0 0,0 0.1,0.1 0.2,0.2 v 0.2 c 0,0 0,0.1 0,0.2 v 0 0 c 0,0.2 0,0.5 -0.1,0.7 C 11.2,14 11,14.7 11,15.4 10.7,15 10.3,14.5 9.7,14.1 l -2,-1.5 0.5,2.5 c 0,0.4 0,1.1 0,1.8 0,1.6 0,3.6 0.7,5.7 -0.5,-0.4 -1.1,-1 -2.1,-2 L 6.4,20.2 c 0,-2.4 0,-4.9 0,-7.3 z m 5.4,-5 H 15 c 0,0.9 0,1.8 0,2.7 0,0.1 0,0.2 -0.1,0.4 -0.5,-0.9 -1.2,-1.5 -2.5,-1.6 h -0.6 c 0,-0.5 0,-0.9 0,-1.4 z m 8.7,0.1 c 0,0 0,0 0,-0.1 h 3.2 c 0,0.1 0,0.3 0,0.4 0,0.1 0,0.3 0,0.4 L 23.3,8.4 23,10.9 c 0,0.3 0,0.6 -0.1,0.9 C 22.6,11.9 22.3,12 22,12 21.9,11.7 21.7,11.4 21.6,11 21.4,10.6 21.2,10.2 21,9.7 20.8,9.3 20.6,8.9 20.5,8.6 c 0,-0.1 0,-0.3 0,-0.4 z m 1.9,4.8 c 0.1,0 0.2,0 0.4,0 0,0.4 -0.1,0.7 -0.2,1 0,-0.3 -0.1,-0.6 -0.2,-0.9 z m -1.7,-1.5 c 1.1,2.3 1,3.4 0.7,5.3 2.2,-0.5 2.2,-2.3 2.6,-5.8 1.7,2.3 1.4,5.2 1.4,5.2 0,0 0.2,2.1 -0.7,3.7 1.9,-0.6 2.7,-2.9 3.3,-3.4 1.5,3 0.5,6.9 -1.4,8.7 3,-0.3 3.1,-1.7 3.3,-2.4 0.1,7.7 -3.4,11.3 -8.8,11.3 -5.4,0 -0.2,0 -0.3,0 H 18 C 9.9,33.4 8.2,33.1 6.1,21.4 c 2,2.1 2.7,2.8 4.7,3 C 8.6,20.7 9.4,16.9 9.1,15 c 1.6,1.2 1.7,2.9 3.6,3.8 -1.3,-2.4 -0.7,-4.1 -0.3,-6 0.1,-0.5 0.3,-0.9 0,-2.3 2.7,0.1 1.9,4.4 3.4,5.6 2.6,-5.7 0.2,-7.9 2.3,-11.8 0.2,2.3 1.6,4.8 2.7,7.2 z m -5.1,1.9 v 0 c 0,-0.4 -0.2,-0.8 -0.3,-1.2 0,0 0.2,-0.2 0.3,-0.3 0.1,0.1 0.2,0.2 0.3,0.3 0,0.4 -0.1,0.8 -0.3,1.2 z M 5.3,19.2 4.5,18.4 5.1,21.6 c 0,0.4 0.1,0.7 0.2,1.1 v 0.7 H 4.2 V 13 h 1.1 c 0,0 0,6.2 0,6.2 z m 25.6,-2.4 -0.3,1 V 13 c 0.4,0 0.7,0 1.1,0 V 23.3 H 31 c 0,-0.2 0,-0.4 0,-0.6 v -6 z m -1.5,0.9 c -0.1,-0.5 -0.3,-1 -0.5,-1.5 l -0.6,-1.1 -1,0.8 c -0.3,0.2 -0.5,0.6 -0.8,1.1 0,0 -0.1,0.2 -0.2,0.3 0,-0.4 0,-0.7 0,-0.9 0,-0.4 0,-1.7 -0.3,-3.2 1.1,0.2 2.3,-0.2 3,-1 0.2,0.2 0.4,0.4 0.4,0.7 0,1.7 0,3.3 0,5 z M 3.8,6.8 C 4.4,6 4.9,5.2 5.5,4.5 5.5,4.4 5.8,4.3 5.9,4.3 c 3.6,0 7.3,0 11.1,0 -0.5,1 -0.7,1.9 -0.8,2.8 H 3.6 c 0,0 0,-0.2 0.1,-0.2 z m -0.7,3.6 c 0,-0.7 0,-1.5 0,-2.2 h 3.2 c 0,0.8 0,1.7 0,2.5 0,0.8 -0.9,1.4 -1.7,1.4 -0.9,0 -1.5,-0.7 -1.6,-1.6 z m 1.1,23.4 c 0,-2.3 0,-4.7 0,-7 0,-0.3 0,-0.4 0.4,-0.4 0.5,0 1.1,0 1.6,0 1.3,4.7 2.8,6.7 5.5,7.7 H 4.3 c 0,0 0,-0.2 0,-0.3 z m 27.4,0.3 h -5.9 c 0.8,-0.4 1.5,-0.9 2.1,-1.6 1.5,-1.5 2.4,-3.5 2.8,-6.1 h 0.6 c 0,0 0.2,0 0.3,0 v 7.7 z m 1.3,-23.5 c 0,0.8 -0.9,1.4 -1.7,1.4 -0.9,0 -1.5,-0.8 -1.5,-1.6 0,-0.7 0,-1.5 0,-2.2 h 3.2 c 0,0.8 0,1.7 0,2.5 z"
   id="path16" />
	<path
   style="fill:#f6bd16"
   d="m 15.7,16.1 c -1.5,-1.2 -0.7,-5.5 -3.4,-5.6 0.3,1.4 0.1,1.9 0,2.3 -0.3,2 -0.9,3.6 0.3,6 C 10.7,17.9 10.6,16.1 9,15 9.3,16.9 8.5,20.7 10.7,24.4 8.8,24.2 8.1,23.5 6,21.4 8.2,33 9.9,33.4 17.9,34.1 17.2,34 13.1,33.3 11.6,28.5 c 0,-1.2 -0.1,1 3.9,1.2 -2.5,-4.1 -1.8,-3.3 -1.6,-5.6 1.1,1.5 0.2,1.7 3.1,2.9 -0.9,-3 1.5,-5 0.9,-8.5 0.7,1.5 3,1.3 2.8,8.5 1.9,-2.2 2,-0.7 3,-3 0.1,1.3 0.7,2.9 -1.9,5.7 0.7,0.2 1.8,0.3 3.5,-0.9 -1.7,2.1 -0.1,2.1 -4.5,5.3 v 0 c 0,0 0.2,0 0.3,0 5.4,0 9,-3.6 8.8,-11.3 -0.2,0.7 -0.3,2.1 -3.3,2.4 1.8,-1.9 2.8,-5.7 1.4,-8.7 -0.6,0.5 -1.4,2.8 -3.3,3.4 0.9,-1.6 0.7,-3.7 0.7,-3.7 0,0 0.3,-2.9 -1.4,-5.2 -0.5,3.5 -0.5,5.3 -2.6,5.8 0.3,-2 0.5,-3 -0.7,-5.3 C 19.6,9.1 18.2,6.6 18,4.3 c -2,3.9 0.3,6.2 -2.3,11.8 z"
   id="path17" />
	<path
   style="fill:#ffffff"
   d="m 25.4,28.8 c -1.7,1.3 -2.8,1.2 -3.5,0.9 2.6,-2.8 2,-4.4 1.9,-5.7 -0.9,2.3 -1,0.8 -3,3 C 20.9,19.8 18.6,20 18,18.5 18.6,22 16.2,24 17.1,27 14.3,25.8 15.2,25.6 14,24.1 c -0.2,2.3 -0.9,1.5 1.6,5.6 -4,-0.1 -3.9,-2.3 -3.9,-1.2 1.5,4.8 5.6,5.5 6.3,5.6 h 2.8 c 4.4,-3.3 2.8,-3.3 4.5,-5.3 z"
   id="path18" />
</g>
</svg>
