<?xml version="1.0" encoding="UTF-8" standalone="no"?>
<svg
   id="Layer_1"
   version="1.1"
   viewBox="0 0 62 62"
   sodipodi:docname="poi016_b.svg"
   width="62"
   height="62"
   inkscape:version="1.3.2 (091e20e, 2023-11-25, custom)"
   xmlns:inkscape="http://www.inkscape.org/namespaces/inkscape"
   xmlns:sodipodi="http://sodipodi.sourceforge.net/DTD/sodipodi-0.dtd"
   xmlns="http://www.w3.org/2000/svg"
   xmlns:svg="http://www.w3.org/2000/svg">
  <sodipodi:namedview
     id="namedview4"
     pagecolor="#ffffff"
     bordercolor="#000000"
     borderopacity="0.25"
     inkscape:showpageshadow="2"
     inkscape:pageopacity="0.0"
     inkscape:pagecheckerboard="0"
     inkscape:deskcolor="#d1d1d1"
     inkscape:zoom="29.33871"
     inkscape:cx="30.982958"
     inkscape:cy="31"
     inkscape:window-width="3840"
     inkscape:window-height="2054"
     inkscape:window-x="2869"
     inkscape:window-y="-11"
     inkscape:window-maximized="1"
     inkscape:current-layer="Layer_1" />
  <!-- Generator: Adobe Illustrator 29.3.1, SVG Export Plug-In . SVG Version: 2.1.0 Build 151)  -->
  <defs
     id="defs1">
    <style
       id="style1">
      .st0 {
        fill: #0056a4;
      }

      .st1 {
        fill: none;
        stroke: #0056a4;
        stroke-miterlimit: 10;
        stroke-width: 3px;
      }
    </style>
  </defs>
  <path
     d="M 13,3 H 49.1 L 58.6,37.4 31,58.3 3.4,37.3 13,3 M 10.7,0 0,38.5 31,62 62,38.5 51.3,0 Z"
     id="path1" />
  <g
     id="g4">
    <path
       class="st1"
       d="m 49,23.5 v 16 c 0,1.1 -0.9,2 -2,2 H 15 c -1.1,0 -2,-0.9 -2,-2 v -16"
       id="path2" />
    <path
       class="st1"
       d="m 49,23.5 c -1.8,0 -1.8,-1 -3.6,-1 -1.8,0 -1.8,1 -3.6,1 -1.8,0 -1.8,-1 -3.6,-1 -1.8,0 -1.8,1 -3.6,1 -1.8,0 -1.8,-1 -3.6,-1 -1.8,0 -1.8,1 -3.6,1 -1.8,0 -1.8,-1 -3.6,-1 -1.8,0 -1.8,1 -3.6,1 -1.8,0 -1.8,-1 -3.6,-1 -1.8,0 -1.8,1 -3.6,1 V 21.7 C 13,21 13.4,20.3 14,20 L 31,10.6 48,20 c 0.6,0.4 1,1 1,1.7 z"
       id="path3" />
    <path
       class="st1"
       d="M 37,41.5 H 25 v -10 c 0,-1.1 0.9,-2 2,-2 h 8 c 1.1,0 2,0.9 2,2 z"
       id="path4" />
    <line
       class="st1"
       x1="31"
       y1="10.5"
       x2="31"
       y2="4.5"
       id="line4" />
    <rect
       class="st0"
       x="31"
       y="4.5"
       width="6"
       height="3"
       id="rect4" />
  </g>
</svg>
