<?xml version="1.0" encoding="UTF-8" standalone="no"?>
<svg
   id="Layer_1"
   version="1.1"
   viewBox="0 0 62 62"
   sodipodi:docname="poi032_b.svg"
   width="62"
   height="62"
   inkscape:version="1.3.2 (091e20e, 2023-11-25, custom)"
   xmlns:inkscape="http://www.inkscape.org/namespaces/inkscape"
   xmlns:sodipodi="http://sodipodi.sourceforge.net/DTD/sodipodi-0.dtd"
   xmlns="http://www.w3.org/2000/svg"
   xmlns:svg="http://www.w3.org/2000/svg">
  <sodipodi:namedview
     id="namedview2"
     pagecolor="#ffffff"
     bordercolor="#000000"
     borderopacity="0.25"
     inkscape:showpageshadow="2"
     inkscape:pageopacity="0.0"
     inkscape:pagecheckerboard="0"
     inkscape:deskcolor="#d1d1d1"
     inkscape:zoom="29.33871"
     inkscape:cx="30.982958"
     inkscape:cy="31"
     inkscape:window-width="3840"
     inkscape:window-height="2054"
     inkscape:window-x="2869"
     inkscape:window-y="-11"
     inkscape:window-maximized="1"
     inkscape:current-layer="Layer_1" />
  <!-- Generator: Adobe Illustrator 29.3.1, SVG Export Plug-In . SVG Version: 2.1.0 Build 151)  -->
  <defs
     id="defs1">
    <style
       id="style1">
      .st0 {
        fill: #0056a4;
      }
    </style>
  </defs>
  <path
     d="M 13,3 H 49.1 L 58.6,37.4 31,58.3 3.4,37.3 13,3 M 10.7,0 0,38.5 31,62 62,38.5 51.3,0 Z"
     id="path1" />
  <path
     class="st0"
     d="m 37.3,23.6 c 0.6,0.1 1.3,0 1.7,-0.4 l 7.8,-10 c 0.2,-0.2 0.1,-0.5 0,-0.6 0,0 0,0 0,0 l -0.4,-0.4 c -0.2,-0.2 -0.5,-0.1 -0.7,0 L 40,19.1 c -0.2,0.2 -0.6,0.3 -0.8,0 l -0.4,-0.3 c -0.2,-0.2 -0.3,-0.6 0,-0.8 0,0 0,0 0,0 l 5.7,-6.9 c 0.2,-0.2 0.1,-0.5 0,-0.7 0,0 0,0 0,0 L 44.1,10 C 43.9,9.8 43.6,9.9 43.5,10 l -5.7,6.9 c -0.2,0.2 -0.6,0.3 -0.8,0 l -0.4,-0.3 c -0.2,-0.2 -0.3,-0.6 0,-0.8 0,0 0,0 0,0 l 5.7,-6.9 c 0.2,-0.2 0.1,-0.5 0,-0.7 0,0 0,0 0,0 L 41.7,7.8 C 41.5,7.6 41.2,7.7 41,7.8 l -8.1,9.6 c -0.4,0.5 -0.4,1.2 -0.1,1.8 l 1,2.1 -2.7,3 -2.5,-2.7 c -0.5,-0.5 -0.6,-1.2 -0.3,-1.9 0.9,-2.2 0.3,-5.4 -1.8,-7.9 -2.8,-3.3 -7,-4.3 -9.4,-2.3 -2.4,2 -2.2,6.4 0.5,9.7 2.1,2.6 5.1,3.8 7.5,3.2 0.7,-0.2 1.4,0 1.8,0.6 l 2.4,3.2 -11.9,12.7 c -0.4,0.4 -0.3,1 0,1.4 0,0 0,0 0,0 l 1.9,1.7 c 0.4,0.3 1,0.3 1.3,0 0,0 0,0 0,0 L 30.9,28.6 41.1,42 c 0.3,0.4 0.9,0.5 1.3,0.2 0,0 0,0 0,0 l 1.9,-1.7 c 0.4,-0.3 0.4,-0.9 0.1,-1.3 0,0 0,0 0,0 L 32.5,26.5 35.2,23 l 2.1,0.5 v 0 z"
     id="path2" />
</svg>
