<?xml version="1.0" encoding="UTF-8" standalone="no"?>
<!-- Generator: Adobe Illustrator 29.4.0, SVG Export Plug-In . SVG Version: 9.03 Build 0)  -->

<svg
   version="1.1"
   id="Layer_1"
   x="0px"
   y="0px"
   viewBox="0 0 46.1 24.6"
   xml:space="preserve"
   sodipodi:docname="poi027_c.svg"
   width="46.099998"
   height="24.6"
   inkscape:version="1.3.2 (091e20e, 2023-11-25, custom)"
   xmlns:inkscape="http://www.inkscape.org/namespaces/inkscape"
   xmlns:sodipodi="http://sodipodi.sourceforge.net/DTD/sodipodi-0.dtd"
   xmlns="http://www.w3.org/2000/svg"
   xmlns:svg="http://www.w3.org/2000/svg"><defs
   id="defs2" /><sodipodi:namedview
   id="namedview2"
   pagecolor="#ffffff"
   bordercolor="#000000"
   borderopacity="0.25"
   inkscape:showpageshadow="2"
   inkscape:pageopacity="0.0"
   inkscape:pagecheckerboard="0"
   inkscape:deskcolor="#d1d1d1"
   inkscape:zoom="69.97831"
   inkscape:cx="23.049999"
   inkscape:cy="12.296667"
   inkscape:window-width="3840"
   inkscape:window-height="2054"
   inkscape:window-x="2869"
   inkscape:window-y="-11"
   inkscape:window-maximized="1"
   inkscape:current-layer="Layer_1" />
<path
   style="fill:#ffffff"
   d="M 44,4.1 H 33 v 0 H 32.2 V 2 c 0,-1.1 -0.9,-2 -2,-2 h -2.1 c -1.1,0 -2,0.9 -2,2 V 4.1 H 24.6 V 2 c 0,-1.1 -0.9,-2 -2,-2 h -2.1 c -1.1,0 -2,0.9 -2,2 V 4.1 H 17 V 2 C 17,0.9 16.1,0 15,0 h -2.1 c -1.1,0 -2,0.9 -2,2 V 4.1 H 9.4 c -1.1,0 -2,0.9 -2,2 v 4.1 c 0,1.1 0.9,2 2,2 h 1.5 v 1.4 C 10.2,13.3 9.2,13 8,13 5.9,13 4.7,13.7 4,14.1 3.5,14.4 3.5,14.4 3.1,14.4 H 2 c -1.1,0 -2,0.9 -2,2 v 2.2 c 0,0.3 0,0.7 0.2,0.9 C 0,19.8 0,20.1 0,20.4 v 2.2 c 0,1.1 0.9,2 2,2 h 1.1 c 2.1,0 3.3,-0.7 4,-1.1 0.5,-0.3 0.5,-0.3 0.9,-0.3 0.4,0 0.4,0 0.9,0.3 0.7,0.4 1.9,1.1 4,1.1 2.1,0 3.3,-0.7 4,-1.1 0.5,-0.3 0.5,-0.3 0.9,-0.3 0.4,0 0.4,0 0.9,0.3 0.7,0.4 1.9,1.1 4,1.1 2.1,0 3.3,-0.7 4,-1.1 0.5,-0.3 0.5,-0.3 0.9,-0.3 0.4,0 0.4,0 0.9,0.3 0.7,0.4 1.9,1.1 4,1.1 h 11.6 c 0.5,0 1,-0.2 1.4,-0.6 0.4,-0.4 0.6,-0.9 0.6,-1.4 V 6.1 c 0,-1.1 -0.9,-2 -2,-2 z"
   id="path1" />
<path
   d="m 32.9,6.1 v 0 H 30.1 V 2 H 28 V 6.1 H 22.5 V 2 H 20.4 V 6.1 H 14.9 V 2 H 12.8 V 6.1 H 9.3 v 4.1 h 3.5 v 6.2 0 c -0.9,0 -1.3,-0.2 -1.9,-0.6 -0.7,-0.4 -1.5,-0.9 -3,-0.9 -1.5,0 -2.3,0.5 -3,0.9 -0.6,0.3 -1,0.6 -1.9,0.6 H 1.9 v 2.2 H 3 c 1.5,0 2.3,-0.5 3,-0.9 0.6,-0.3 1,-0.6 1.9,-0.6 0.9,0 1.3,0.2 1.9,0.6 0.7,0.4 1.5,0.9 3,0.9 1.5,0 2.3,-0.5 3,-0.9 0.6,-0.3 1,-0.6 1.9,-0.6 0.9,0 1.3,0.2 1.9,0.6 0.7,0.4 1.5,0.9 3,0.9 1.5,0 2.3,-0.5 3,-0.9 0.6,-0.3 1,-0.6 1.9,-0.6 0.9,0 1.3,0.2 1.9,0.6 0.7,0.4 1.5,0.9 3,0.9 h 0.3 v 1.9 h -0.3 c -0.9,0 -1.3,-0.2 -1.9,-0.6 -0.7,-0.4 -1.5,-0.9 -3,-0.9 -1.5,0 -2.3,0.5 -3,0.9 -0.6,0.3 -1,0.6 -1.9,0.6 -0.9,0 -1.3,-0.2 -1.9,-0.6 -0.7,-0.4 -1.5,-0.9 -3,-0.9 -1.5,0 -2.3,0.5 -3,0.9 -0.6,0.3 -1,0.6 -1.9,0.6 -0.9,0 -1.3,-0.2 -1.9,-0.6 C 10.2,19.5 9.4,19 7.9,19 6.4,19 5.6,19.5 4.9,19.9 4.3,20.2 3.9,20.5 3,20.5 H 1.9 v 2.2 H 3 c 1.5,0 2.3,-0.5 3,-0.9 0.6,-0.3 1,-0.6 1.9,-0.6 0.9,0 1.3,0.2 1.9,0.6 0.7,0.4 1.5,0.9 3,0.9 1.5,0 2.3,-0.5 3,-0.9 0.6,-0.3 1,-0.6 1.9,-0.6 0.9,0 1.3,0.2 1.9,0.6 0.7,0.4 1.5,0.9 3,0.9 1.5,0 2.3,-0.5 3,-0.9 0.6,-0.3 1,-0.6 1.9,-0.6 0.9,0 1.3,0.2 1.9,0.6 0.7,0.4 1.5,0.9 3,0.9 H 32.7 44 V 6.1 Z m -15.2,9 c -1.3,0 -2.1,0.4 -2.8,0.7 v -5.5 h 5.5 v 5.5 C 19.8,15.4 19,15.1 17.6,15.1 Z m 6.8,0.9 c -0.6,0.3 -1,0.6 -1.9,0.6 -0.9,0 0,0 0,0 v -6.2 h 5.5 v 4.8 c -0.2,0 -0.4,0 -0.6,0 -1.5,0 -2.3,0.5 -3,0.9 z m 7.9,0.5 c -0.9,0 -1.3,-0.2 -1.9,-0.6 0,0 -0.2,-0.1 -0.3,-0.2 v -5.5 h 2.5 v 6.2 h -0.3 z"
   id="path2" />
</svg>
