<?xml version="1.0" encoding="UTF-8" standalone="no"?>
<!-- Generator: Adobe Illustrator 29.4.0, SVG Export Plug-In . SVG Version: 9.03 Build 0)  -->

<svg
   version="1.1"
   id="Layer_1"
   x="0px"
   y="0px"
   viewBox="0 0 45.5 41.5"
   xml:space="preserve"
   sodipodi:docname="poi013_c.svg"
   width="45.5"
   height="41.5"
   inkscape:version="1.3.2 (091e20e, 2023-11-25, custom)"
   xmlns:inkscape="http://www.inkscape.org/namespaces/inkscape"
   xmlns:sodipodi="http://sodipodi.sourceforge.net/DTD/sodipodi-0.dtd"
   xmlns="http://www.w3.org/2000/svg"
   xmlns:svg="http://www.w3.org/2000/svg"><defs
   id="defs8" /><sodipodi:namedview
   id="namedview8"
   pagecolor="#ffffff"
   bordercolor="#000000"
   borderopacity="0.25"
   inkscape:showpageshadow="2"
   inkscape:pageopacity="0.0"
   inkscape:pagecheckerboard="0"
   inkscape:deskcolor="#d1d1d1"
   inkscape:zoom="43.831325"
   inkscape:cx="22.746289"
   inkscape:cy="20.75"
   inkscape:window-width="3840"
   inkscape:window-height="2054"
   inkscape:window-x="2869"
   inkscape:window-y="-11"
   inkscape:window-maximized="1"
   inkscape:current-layer="Layer_1" />
<path
   style="fill:#ffffff"
   d="m 38.7,26.7 c -0.4,0 -0.8,0 -1.1,0.1 1.1,-3.2 1.6,-6.7 1.3,-10.5 V 16 c 0,-0.7 -0.5,-1.3 -1.1,-1.6 L 37.5,14.2 C 34.2,12.5 30.9,11.3 27.6,10.7 28.5,9.6 29.1,8.1 29.1,6.6 29.1,3 26.1,0 22.4,0 c -3.7,0 -6.7,3 -6.7,6.6 0,3.6 0.6,3 1.5,4.2 -3.2,0.6 -6.4,1.7 -9.6,3.4 l -0.3,0.2 c -0.6,0.3 -1.1,1 -1.1,1.7 v 0.4 c -0.1,3.7 0.4,7.1 1.4,10.1 -0.3,0 -0.6,0 -0.9,0 -3.7,0 -6.7,3 -6.7,6.7 0,3.7 3,6.6 6.7,6.6 3.7,0 5.4,-1.9 6.3,-4.5 2.3,2.3 5.1,4.2 8.4,5.8 h 0.2 c 0.3,0.2 0.6,0.3 0.9,0.3 0.3,0 0.5,0 0.8,-0.2 h 0.3 c 3.5,-1.7 6.4,-3.6 8.8,-6 0.8,2.8 3.3,4.9 6.4,4.9 3.1,0 6.7,-3 6.7,-6.7 0,-3.6 -3,-6.6 -6.7,-6.6 z"
   id="path1" />
<g
   id="g8">
	<path
   style="fill:#ff0000"
   d="M 36.9,16.4 V 16.1 L 36.6,15.9 C 27.3,11 17.8,11 8.5,15.9 l -0.3,0.2 v 0.4 C 7.9,27 12.6,34.7 22.3,39.2 h 0.2 c 0,0.1 0.3,0 0.3,0 C 32.9,34.8 37.6,27.1 36.9,16.4 Z M 22.6,37.9 C 13.7,33.6 9.2,26.5 9.4,16.8 c 8.8,-4.5 17.7,-4.5 26.4,0 0.5,9.8 -3.9,17 -13.2,21.1 z"
   id="path2" />
	<path
   style="fill:#ff0000"
   d="m 22.5,26.3 c -2.6,0 -4.7,2.1 -4.7,4.6 0,2.5 2.1,4.7 4.7,4.7 2.6,0 4.7,-2.1 4.7,-4.7 0,-2.6 -2.1,-4.6 -4.7,-4.6 z"
   id="path3" />
	<path
   style="fill:#ff0000"
   d="m 29.4,16.3 c -2.6,0 -4.6,2.1 -4.6,4.7 0,2.6 2.1,4.6 4.6,4.6 2.5,0 4.7,-2.1 4.7,-4.6 0,-2.6 -2.1,-4.7 -4.7,-4.7 z"
   id="path4" />
	<path
   style="fill:#ff0000"
   d="m 20.2,20.9 c 0,-2.6 -2.1,-4.7 -4.7,-4.7 -2.6,0 -4.6,2.1 -4.6,4.7 0,2.6 2.1,4.6 4.6,4.6 2.5,0 4.7,-2.1 4.7,-4.6 z"
   id="path5" />
	<path
   style="fill:#ff0000"
   d="m 22.4,11.2 c 2.6,0 4.7,-2.1 4.7,-4.7 0,-2.6 -2.1,-4.6 -4.7,-4.6 -2.6,0 -4.7,2.1 -4.7,4.6 0,2.6 2.1,4.7 4.7,4.7 z"
   id="path6" />
	<path
   style="fill:#ff0000"
   d="m 6.7,28.4 c -2.6,0 -4.7,2.1 -4.7,4.7 0,2.6 2.1,4.6 4.7,4.6 2.6,0 4.6,-2.1 4.6,-4.6 0,-2.6 -2.1,-4.7 -4.6,-4.7 z"
   id="path7" />
	<path
   style="fill:#ff0000"
   d="m 38.7,28.7 c -2.6,0 -4.6,2.1 -4.6,4.6 0,2.5 2.1,4.7 4.6,4.7 2.5,0 4.7,-2.1 4.7,-4.7 0,-2.6 -2.1,-4.6 -4.7,-4.6 z"
   id="path8" />
</g>
</svg>
