<?xml version="1.0" encoding="UTF-8" standalone="no"?>
<svg
   id="Layer_1"
   version="1.1"
   viewBox="0 0 62 62"
   sodipodi:docname="poi020_b.svg"
   width="62"
   height="62"
   inkscape:version="1.3.2 (091e20e, 2023-11-25, custom)"
   xmlns:inkscape="http://www.inkscape.org/namespaces/inkscape"
   xmlns:sodipodi="http://sodipodi.sourceforge.net/DTD/sodipodi-0.dtd"
   xmlns="http://www.w3.org/2000/svg"
   xmlns:svg="http://www.w3.org/2000/svg">
  <sodipodi:namedview
     id="namedview3"
     pagecolor="#ffffff"
     bordercolor="#000000"
     borderopacity="0.25"
     inkscape:showpageshadow="2"
     inkscape:pageopacity="0.0"
     inkscape:pagecheckerboard="0"
     inkscape:deskcolor="#d1d1d1"
     inkscape:zoom="29.33871"
     inkscape:cx="30.982958"
     inkscape:cy="31"
     inkscape:window-width="3840"
     inkscape:window-height="2054"
     inkscape:window-x="2869"
     inkscape:window-y="-11"
     inkscape:window-maximized="1"
     inkscape:current-layer="Layer_1" />
  <!-- Generator: Adobe Illustrator 29.3.1, SVG Export Plug-In . SVG Version: 2.1.0 Build 151)  -->
  <defs
     id="defs1">
    <style
       id="style1">
      .st0 {
        stroke-miterlimit: 10;
      }

      .st0, .st1, .st2 {
        fill: none;
        stroke: #0056a4;
      }

      .st1, .st2 {
        stroke-linecap: round;
        stroke-linejoin: round;
      }

      .st2 {
        stroke-width: 3px;
      }
    </style>
  </defs>
  <path
     d="M 13,3 H 49.1 L 58.6,37.4 31,58.3 3.4,37.3 13,3 M 10.7,0 0,38.5 31,62 62,38.5 51.3,0 Z"
     id="path1" />
  <g
     id="g3">
    <polyline
       class="st0"
       points="26.1 15.8 31 13.5 36.1 15.9"
       id="polyline1" />
    <path
       class="st1"
       d="m 29,9.5 c 0,-1.1 0.9,-2 2,-2 1.1,0 2,0.9 2,2 0,1.1 -0.9,2 -2,2 v 2"
       id="path2" />
    <path
       class="st2"
       d="m 36,15.5 v 0 C 35.7,18 33.6,20 31,20 28.4,20 26.3,18 26,15.5 v 0 c -5.2,0 -9.4,3.9 -10,8.9 0,0.6 0.4,1.1 1,1.1 h 2.4 c 0.6,0 1,0.4 1,1 v 17 c 0,0.6 0.4,1 1,1 h 19.1 c 0.6,0 1,-0.4 1,-1 v -17 c 0,-0.6 0.4,-1 1,-1 h 2.4 c 0.6,0 1.1,-0.5 1,-1.1 -0.6,-5 -4.8,-8.9 -10,-8.9 z"
       id="path3" />
  </g>
</svg>
