<?xml version="1.0" encoding="UTF-8" standalone="no"?>
<svg
   id="Layer_1"
   version="1.1"
   viewBox="0 0 66.6 66.400002"
   sodipodi:docname="poi047_a.svg"
   width="66.599998"
   height="66.400002"
   inkscape:version="1.3.2 (091e20e, 2023-11-25, custom)"
   xmlns:inkscape="http://www.inkscape.org/namespaces/inkscape"
   xmlns:sodipodi="http://sodipodi.sourceforge.net/DTD/sodipodi-0.dtd"
   xmlns="http://www.w3.org/2000/svg"
   xmlns:svg="http://www.w3.org/2000/svg">
  <sodipodi:namedview
     id="namedview12"
     pagecolor="#ffffff"
     bordercolor="#000000"
     borderopacity="0.25"
     inkscape:showpageshadow="2"
     inkscape:pageopacity="0.0"
     inkscape:pagecheckerboard="0"
     inkscape:deskcolor="#d1d1d1"
     inkscape:zoom="27.353383"
     inkscape:cx="33.304838"
     inkscape:cy="33.25"
     inkscape:window-width="3840"
     inkscape:window-height="2054"
     inkscape:window-x="2869"
     inkscape:window-y="-11"
     inkscape:window-maximized="1"
     inkscape:current-layer="Layer_1" />
  <!-- Generator: Adobe Illustrator 29.3.1, SVG Export Plug-In . SVG Version: 2.1.0 Build 151)  -->
  <defs
     id="defs1">
    <style
       id="style1">
      .st0 {
        fill: #fff;
      }

      .st1 {
        fill: none;
        stroke: #000;
        stroke-linecap: round;
        stroke-miterlimit: 10;
        stroke-width: 1.5px;
      }
    </style>
  </defs>
  <g
     id="g2">
    <polygon
       class="st0"
       points="52.5,3.5 62.6,40 33.3,62.1 4,39.9 14.1,3.5 "
       id="polygon1" />
    <path
       d="M 15.3,5 H 51.4 L 60.9,39.4 33.3,60.3 5.7,39.3 15.3,5 M 13,2 2.3,40.5 33.3,64 64.3,40.5 53.6,2 Z"
       id="path1" />
    <path
       class="st0"
       d="M 13,2 H 53.6 L 64.3,40.5 33.3,64 2.3,40.5 13,2 M 13,0 H 11.5 L 11.1,1.5 0.4,39.9 0,41.2 1.1,42 l 31,23.5 1.2,0.9 1.2,-0.9 L 65.5,42 66.6,41.2 66.2,39.9 55.5,1.5 55.1,0 Z"
       id="path2" />
  </g>
  <g
     id="g12">
    <line
       class="st1"
       x1="15.3"
       y1="10"
       x2="51.299999"
       y2="10"
       id="line2" />
    <line
       class="st1"
       x1="15.3"
       y1="21.6"
       x2="51.299999"
       y2="21.6"
       id="line3" />
    <line
       class="st1"
       x1="15.3"
       y1="33.200001"
       x2="51.299999"
       y2="33.200001"
       id="line4" />
    <line
       class="st1"
       x1="15.3"
       y1="44.799999"
       x2="51.299999"
       y2="44.799999"
       id="line5" />
    <line
       class="st1"
       x1="18.200001"
       y1="10.1"
       x2="18.200001"
       y2="44.599998"
       id="line6" />
    <line
       class="st1"
       x1="23.200001"
       y1="10.1"
       x2="23.200001"
       y2="44.599998"
       id="line7" />
    <line
       class="st1"
       x1="28.200001"
       y1="10.1"
       x2="28.200001"
       y2="44.599998"
       id="line8" />
    <line
       class="st1"
       x1="33.299999"
       y1="10.1"
       x2="33.299999"
       y2="44.599998"
       id="line9" />
    <line
       class="st1"
       x1="38.299999"
       y1="10.1"
       x2="38.299999"
       y2="44.599998"
       id="line10" />
    <line
       class="st1"
       x1="43.400002"
       y1="10.1"
       x2="43.400002"
       y2="44.599998"
       id="line11" />
    <line
       class="st1"
       x1="48.400002"
       y1="10.1"
       x2="48.400002"
       y2="44.599998"
       id="line12" />
  </g>
</svg>
