<?xml version="1.0" encoding="UTF-8" standalone="no"?>
<svg
   id="Layer_1"
   version="1.1"
   viewBox="0 0 62 62"
   sodipodi:docname="poi030_b.svg"
   width="62"
   height="62"
   inkscape:version="1.3.2 (091e20e, 2023-11-25, custom)"
   xmlns:inkscape="http://www.inkscape.org/namespaces/inkscape"
   xmlns:sodipodi="http://sodipodi.sourceforge.net/DTD/sodipodi-0.dtd"
   xmlns="http://www.w3.org/2000/svg"
   xmlns:svg="http://www.w3.org/2000/svg">
  <sodipodi:namedview
     id="namedview3"
     pagecolor="#ffffff"
     bordercolor="#000000"
     borderopacity="0.25"
     inkscape:showpageshadow="2"
     inkscape:pageopacity="0.0"
     inkscape:pagecheckerboard="0"
     inkscape:deskcolor="#d1d1d1"
     inkscape:zoom="29.33871"
     inkscape:cx="30.982958"
     inkscape:cy="31"
     inkscape:window-width="3840"
     inkscape:window-height="2054"
     inkscape:window-x="2869"
     inkscape:window-y="-11"
     inkscape:window-maximized="1"
     inkscape:current-layer="Layer_1" />
  <!-- Generator: Adobe Illustrator 29.3.1, SVG Export Plug-In . SVG Version: 2.1.0 Build 151)  -->
  <defs
     id="defs1">
    <style
       id="style1">
      .st0 {
        fill: #0056a4;
      }
    </style>
  </defs>
  <path
     d="M 13,3 H 49.1 L 58.6,37.4 31,58.3 3.4,37.3 13,3 M 10.7,0 0,38.5 31,62 62,38.5 51.3,0 Z"
     id="path1" />
  <g
     id="g3">
    <path
       class="st0"
       d="m 29.7,29.7 4.4,-1.3 v 19.9 h 4 V 28.4 l 4.3,1.3 c 0.4,0.1 0.9,-0.1 1,-0.5 0,-0.2 0,-0.5 -0.1,-0.7 L 36.9,19 c -0.3,-0.4 -0.9,-0.5 -1.3,-0.2 0,0 -0.2,0.1 -0.2,0.2 l -6.5,9.5 c -0.3,0.4 -0.2,0.9 0.2,1.1 0.2,0.1 0.5,0.2 0.7,0.1 v 0 z"
       id="path2" />
    <path
       class="st0"
       d="m 33.4,5 v 4.1 c 0,0.9 -0.5,1.8 -1.4,2.2 l -8.5,4.1 c -3,1.5 -4.9,4.5 -4.9,7.8 V 35 c 0,1.8 1,3.4 2.6,4.1 l 1,0.5 v 0 L 19.3,43 c -0.3,0.3 -0.2,0.9 0,1.2 0.2,0.2 0.4,0.2 0.7,0.2 l 11.2,-2.1 c 0.5,0 0.8,-0.6 0.8,-1.1 0,-0.1 0,-0.2 -0.1,-0.3 l -6.1,-9.7 c -0.2,-0.4 -0.7,-0.5 -1.1,-0.3 -0.2,0.1 -0.3,0.4 -0.4,0.6 L 23.8,36 v 0 L 23,35.6 C 22.8,35.5 22.7,35.3 22.7,35 V 23.2 c 0,-1.8 1,-3.4 2.7,-4.2 l 8.5,-4.1 c 2.2,-1.1 3.6,-3.3 3.6,-5.8 V 5 h -4 z"
       id="path3" />
  </g>
</svg>
