<?xml version="1.0" encoding="UTF-8" standalone="no"?>
<svg
   id="Layer_1"
   version="1.1"
   viewBox="0 0 66.6 66.5"
   sodipodi:docname="poi011_a.svg"
   width="66.599998"
   height="66.5"
   inkscape:version="1.3.2 (091e20e, 2023-11-25, custom)"
   xmlns:inkscape="http://www.inkscape.org/namespaces/inkscape"
   xmlns:sodipodi="http://sodipodi.sourceforge.net/DTD/sodipodi-0.dtd"
   xmlns="http://www.w3.org/2000/svg"
   xmlns:svg="http://www.w3.org/2000/svg">
  <sodipodi:namedview
     id="namedview5"
     pagecolor="#ffffff"
     bordercolor="#000000"
     borderopacity="0.25"
     inkscape:showpageshadow="2"
     inkscape:pageopacity="0.0"
     inkscape:pagecheckerboard="0"
     inkscape:deskcolor="#d1d1d1"
     inkscape:zoom="27.353383"
     inkscape:cx="33.304838"
     inkscape:cy="33.25"
     inkscape:window-width="3840"
     inkscape:window-height="2054"
     inkscape:window-x="2869"
     inkscape:window-y="-11"
     inkscape:window-maximized="1"
     inkscape:current-layer="Layer_1" />
  <!-- Generator: Adobe Illustrator 29.3.1, SVG Export Plug-In . SVG Version: 2.1.0 Build 151)  -->
  <defs
     id="defs1">
    <style
       id="style1">
      .st0 {
        fill: #e4151c;
      }

      .st1 {
        fill: #fff;
      }

      .st2 {
        isolation: isolate;
      }
    </style>
  </defs>
  <g
     id="g2">
    <g
       id="g1">
      <polygon
         class="st0"
         points="53.8,1.8 64.6,40.6 33.3,64.3 2,40.6 12.8,1.8 "
         id="polygon1" />
      <path
         class="st1"
         d="M 52.5,3.5 62.6,40 33.3,62.2 4,39.9 14.1,3.5 H 52.4 M 55.1,0 H 11.5 L 10.8,2.6 0.6,39 0,41.3 1.9,42.7 31.2,64.9 33.3,66.5 35.4,64.9 64.7,42.7 66.6,41.3 66,39 55.8,2.6 Z"
         id="path1" />
    </g>
    <path
       d="M 51.3,5 60.8,39.4 33.2,60.3 5.7,39.3 15.3,5 H 51.4 M 53.6,2 H 13 L 2.3,40.5 33.3,64 64.3,40.5 Z"
       id="path2" />
  </g>
  <g
     class="st2"
     id="g5">
    <path
       class="st1"
       d="m 26.3,21.6 v 2.1 c -0.7,-0.6 -1.4,-1.1 -2.1,-1.4 -0.7,-0.3 -1.6,-0.5 -2.4,-0.5 -1.7,0 -2.9,0.5 -3.8,1.5 -0.9,1 -1.3,2.5 -1.3,4.4 0,1.9 0.4,3.4 1.3,4.4 0.9,1 2.2,1.5 3.8,1.5 1.6,0 1.6,-0.2 2.4,-0.5 0.8,-0.3 1.5,-0.8 2.1,-1.4 v 2.1 c -0.7,0.5 -1.4,0.8 -2.2,1.1 -0.8,0.3 -1.6,0.4 -2.4,0.4 -2.2,0 -3.9,-0.7 -5.2,-2 -1.3,-1.4 -1.9,-3.2 -1.9,-5.5 0,-2.3 0.6,-4.2 1.9,-5.5 1.3,-1.4 3,-2 5.2,-2 2.2,0 1.7,0.1 2.5,0.3 0.8,0.2 1.5,0.6 2.2,1 z"
       id="path3" />
    <path
       class="st1"
       d="m 40.2,21.6 v 2.1 c -0.7,-0.6 -1.4,-1.1 -2.1,-1.4 -0.7,-0.3 -1.6,-0.5 -2.4,-0.5 -1.7,0 -2.9,0.5 -3.8,1.5 -0.9,1 -1.3,2.5 -1.3,4.4 0,1.9 0.4,3.4 1.3,4.4 0.9,1 2.2,1.5 3.8,1.5 1.6,0 1.6,-0.2 2.4,-0.5 0.8,-0.3 1.5,-0.8 2.1,-1.4 v 2.1 c -0.7,0.5 -1.4,0.8 -2.2,1.1 -0.8,0.3 -1.6,0.4 -2.4,0.4 -2.2,0 -3.9,-0.7 -5.2,-2 -1.3,-1.4 -1.9,-3.2 -1.9,-5.5 0,-2.3 0.6,-4.2 1.9,-5.5 1.3,-1.4 3,-2 5.2,-2 2.2,0 1.7,0.1 2.5,0.3 0.8,0.2 1.5,0.6 2.2,1 z"
       id="path4" />
    <path
       class="st1"
       d="m 50.2,28.3 c 0.4,0.1 0.8,0.4 1.2,0.9 0.4,0.5 0.8,1.1 1.2,1.9 l 2,4 H 52.5 L 50.6,31.4 C 50.1,30.4 49.7,29.8 49.2,29.5 48.7,29.2 48.1,29 47.3,29 h -2.1 v 6.2 h -2 V 20.6 h 4.5 c 1.7,0 2.9,0.3 3.7,1 0.8,0.7 1.2,1.7 1.2,3.2 0,1.5 -0.2,1.7 -0.6,2.3 -0.4,0.6 -1,1 -1.9,1.3 z m -5,-6.2 v 5.2 h 2.5 c 1,0 1.7,-0.2 2.2,-0.7 0.5,-0.5 0.7,-1.1 0.7,-1.9 0,-0.8 -0.2,-1.5 -0.7,-1.9 -0.5,-0.4 -1.2,-0.6 -2.2,-0.6 h -2.5 z"
       id="path5" />
  </g>
</svg>
