<?xml version="1.0" encoding="UTF-8" standalone="no"?>
<!-- Generator: Adobe Illustrator 29.4.0, SVG Export Plug-In . SVG Version: 9.03 Build 0)  -->

<svg
   version="1.1"
   id="Layer_1"
   x="0px"
   y="0px"
   viewBox="0 0 47.012443 36.8"
   xml:space="preserve"
   sodipodi:docname="poi038_c.svg"
   width="47.012444"
   height="36.799999"
   inkscape:version="1.3.2 (091e20e, 2023-11-25, custom)"
   xmlns:inkscape="http://www.inkscape.org/namespaces/inkscape"
   xmlns:sodipodi="http://sodipodi.sourceforge.net/DTD/sodipodi-0.dtd"
   xmlns="http://www.w3.org/2000/svg"
   xmlns:svg="http://www.w3.org/2000/svg"><defs
   id="defs10" /><sodipodi:namedview
   id="namedview10"
   pagecolor="#ffffff"
   bordercolor="#000000"
   borderopacity="0.25"
   inkscape:showpageshadow="2"
   inkscape:pageopacity="0.0"
   inkscape:pagecheckerboard="0"
   inkscape:deskcolor="#d1d1d1"
   inkscape:zoom="49.429349"
   inkscape:cx="23.508301"
   inkscape:cy="18.4"
   inkscape:window-width="3840"
   inkscape:window-height="2054"
   inkscape:window-x="2869"
   inkscape:window-y="-11"
   inkscape:window-maximized="1"
   inkscape:current-layer="Layer_1" />
<path
   style="fill:#ffffff"
   d="m 45.412443,5.4 c -0.6,-0.6 -1.7,-1.2 -3.3,-1.2 -1.6,0 -0.7,0 -1,0 -1.1,0.2 -2.1,0.3 -3.1,0.3 -3.4,0 -6.6,-0.9 -9.9,-2.9 -0.2,-0.1 -0.4,-0.2 -0.5,-0.4 l -0.3,-0.2 c -0.9,-0.6 -1.9,-1 -2.9,-1 -1,0 -0.9,0 -1.4,0.2 -1.4,0.4 -2.6,1.6 -3.2,3.1 -0.1,0.4 -0.3,0.8 -0.4,1.2 h -0.2 c 0,0.1 0,0.1 0,0.1 v 0 c -0.2,0.2 -0.3,0.3 -0.5,0.4 -3.4,2.3 -6.9,3.4 -10.6000003,3.4 -3.7,0 -1.5,0 -2.3,-0.1 -0.3,0 -0.5,0 -0.7,0 -1.8,0 -2.9,0.7 -3.5,1.4 -1.19999998,1.1 -1.69999998,2.6 -1.59999998,4.3 0.5,4.8 1.89999998,9.3 4.19999998,13.3 2,3.4 4.3,5.9 7.0000003,7.6 2.1,1.3 4.2,1.9 6.3,1.9 2.1,0 2,-0.2 3,-0.4 2.2,-0.7 4.1,-2 5.6,-4 0.5,0.2 1,0.4 1.5,0.5 0.8,0.2 1.7,0.3 2.5,0.3 2.2,0 4.5,-0.7 6.6,-2.2 2.7,-1.8 4.9,-4.4 6.7,-7.9 2.1,-4.1 3.4,-8.7 3.6,-13.5 0,-1.7 -0.5,-3.2 -1.6,-4.2 z"
   id="path1" />
<path
   style="fill:#0056a4"
   d="m 24.712443,21.8 c 0.1,-0.3 0.2,-0.4 0.2,-0.5 1.2,-2 3.7,-3.1 5.9,-2.5 2.3,0.6 3.9,2.8 4,5.2 0,0.2 0,0.3 -0.1,0.5 -0.1,0 -0.3,-0.2 -0.4,-0.3 -2.2,-2.3 -4.9,-3.2 -8,-2.8 -0.5,0 -0.9,0.2 -1.5,0.3 z"
   id="path2" />
<path
   style="fill:#0056a4"
   d="m 25.512443,12.6 c 0,0 -0.2,0 -0.3,-0.1 -0.2,0 -0.5,-0.4 -0.7,0 -0.1,0.2 0,0.6 0.1,0.8 1.4,2.5 4.7,2.4 6.2,0 0.1,-0.2 0.2,-0.5 0.1,-0.6 -0.1,-0.3 -0.4,-0.1 -0.7,0 -1.6,0.7 -3.2,0.7 -4.8,0 z"
   id="path3" />
<path
   style="fill:#0056a4"
   d="m 39.912443,15.7 c 0,0 0,-0.3 0,-0.4 0,-0.1 -0.3,-0.2 -0.4,-0.2 -2,0 -3.6,-0.8 -4.9,-2.2 0,-0.1 -0.4,-0.2 -0.5,-0.2 -0.1,0 -0.2,0.3 -0.2,0.5 0,1.5 0.7,2.6 2,3.2 1.3,0.6 2.6,0.4 3.9,-0.5 0,0 0,0 0.2,-0.2 z"
   id="path4" />
<path
   style="fill:#0056a4"
   d="m 44.112443,6.9 c -0.5,-0.4 -1.3,-0.9 -2.7,-0.6 -5,0.8 -9.7,-0.1 -14.3,-2.9 -0.2,-0.1 -0.5,-0.3 -0.7,-0.5 l -0.3,-0.2 c -0.8,-0.6 -1.7,-0.7 -2.6,-0.5 -0.9,0.3 -1.5,0.9 -1.9,1.9 -0.2,0.6 -0.4,1.2 -0.6,1.8 -0.1,0 -0.3,0.1 -0.4,0.2 l -0.3,0.2 c -0.2,0.2 -0.4,0.3 -0.7,0.5 -4.5,3 -9.1,4.1 -14.2000003,3.5 -1.4,-0.2 -2.2,0.3 -2.6,0.8 -0.4,0.4 -0.9,1.2 -0.8,2.6 0.5,4.5 1.8,8.8 4,12.5 1.8,3.1 3.9,5.4 6.3000003,6.9 1.8,1.1 3.5,1.6 5.2,1.6 1.7,0 1.6,-0.1 2.4,-0.4 2.3,-0.7 4.1,-2.2 5.5,-4.7 0.8,0.5 1.7,0.9 2.6,1.2 0.7,0.2 1.4,0.3 2,0.3 1.8,0 3.7,-0.6 5.5,-1.9 2.4,-1.6 4.4,-4 6,-7.2 2,-3.9 3.2,-8.1 3.4,-12.7 0,-1.4 -0.5,-2.2 -0.9,-2.6 z m -21.1,21.1 c -1,2 -2.3,3.1 -3.9,3.6 -1.7,0.5 -3.3,0.2 -5.2,-0.9 -2,-1.3 -3.8,-3.2 -5.3000003,-5.8 -2,-3.4 -3.2,-7.2 -3.6,-11.3 0,0 0,0 0,-0.1 0,0 0,0 0.1,0 5.7000003,0.7 11.2000003,-0.7 16.2000003,-4 0.3,-0.2 0.6,-0.4 0.9,-0.6 l 0.2,-0.2 c 1,2.3 1.7,4.7 2,7 0.1,1 0.2,2 0.3,2.9 v 0.7 c 0,4 -0.5,6.6 -1.7,8.9 z m 19,-18.7 c -0.2,4.1 -1.3,8 -3.1,11.5 -1.4,2.7 -3.1,4.7 -5.1,6.1 -1.8,1.2 -3.4,1.6 -5.1,1.2 -0.8,-0.2 -1.5,-0.6 -2.1,-1.1 0.7,-2.2 1.1,-4.6 1.1,-7.9 v 0 -0.9 c 0,-0.8 -0.2,-1.9 -0.3,-3 -0.4,-2.6 -1.1,-5.2 -2.2,-7.8 -0.2,-0.6 -0.6,-1 -1,-1.3 0,-0.3 0.2,-0.6 0.3,-0.9 h 0.2 c 0.3,0.3 0.6,0.6 0.9,0.7 5.2,3.1 10.7,4.2 16.4,3.3 0,0 0,0 0.1,0 0,0 0,0 0,0.1 z"
   id="path5" />
<path
   style="fill:#0056a4"
   d="m 22.212443,17 c 0,0 0.2,0 0.3,0 0.3,0 0.7,0.1 0.7,-0.3 0,-0.2 -0.2,-0.5 -0.4,-0.7 -2.3,-1.7 -5.3,-0.4 -5.7,2.5 0,0.2 0,0.5 0.2,0.6 0.3,0.2 0.4,0 0.6,-0.2 1.2,-1.2 2.7,-1.9 4.4,-1.9 z"
   id="path6" />
<path
   style="fill:#0056a4"
   d="m 8.0124427,20.9 c 0,0 0,0.3 0.2,0.3 0.1,0 0.3,0 0.5,0 1.7000003,-1.1 3.5000003,-1.3 5.4000003,-0.8 0.1,0 0.4,0 0.5,-0.1 0,-0.1 0,-0.4 0,-0.5 -0.9,-1.2 -2,-1.8 -3.4,-1.6 -1.5000003,0.2 -2.4000003,1.1 -3.0000003,2.5 0,0 0,0.1 0,0.3 z"
   id="path7" />
<path
   style="fill:none"
   d="m 25.012443,31 c 0.9,0.9 2,1.6 3.4,2 2.3,0.6 4.4,0 6.3,-1.4 2.4,-1.7 4.2,-4 5.5,-6.6 2,-3.8 3,-7.8 3.2,-12.1 0,-1.3 -0.6,-1.9 -1.9,-1.7 -5.5,0.9 -10.6,-0.2 -15.4,-3.1 -0.4,-0.2 -0.7,-0.5 -1.1,-0.7 -0.9,-0.6 -1.8,-0.3 -2.2,0.7 -0.4,1 -0.7,1.9 -0.9,2.9"
   id="path8" />
<path
   style="fill:none"
   d="m 26.212443,19 c 0,3.8 -0.5,6.8 -2,9.6 -1.1,2.1 -2.6,3.7 -4.8,4.3 -2.3,0.7 -4.4,0.1 -6.4,-1.1 -2.5,-1.5 -4.3000003,-3.8 -5.8000003,-6.4 -2.1,-3.7 -3.4,-7.7 -3.8,-11.9 -0.1,-1.3 0.5,-1.9 1.8,-1.7 5.5000003,0.6 10.6000003,-0.7 15.2000003,-3.8 0.4,-0.2 0.7,-0.5 1,-0.8 0.9,-0.7 1.8,-0.4 2.2,0.6 1,2.4 1.8,4.8 2.1,7.4 0.2,1.4 0.3,2.9 0.4,3.7 z"
   id="path9" />
<path
   style="fill:#0056a4"
   d="m 12.012443,25 c 0.1,0.3 0.1,0.4 0.2,0.5 1.2,2.1 3.6,3.1 5.9,2.5 2.3,-0.6 4,-2.7 4.1,-5.2 0,-0.2 0,-0.3 -0.1,-0.5 -0.1,0 -0.3,0.2 -0.4,0.3 -2.3,2.3 -5,3.1 -8.1,2.7 -0.5,0 -0.9,-0.2 -1.5,-0.3 z"
   id="path10" />
</svg>
