<?xml version="1.0" encoding="UTF-8" standalone="no"?>
<svg
   id="Layer_1"
   version="1.1"
   viewBox="0 0 62 62"
   sodipodi:docname="poi011_b.svg"
   width="62"
   height="62"
   inkscape:version="1.3.2 (091e20e, 2023-11-25, custom)"
   xmlns:inkscape="http://www.inkscape.org/namespaces/inkscape"
   xmlns:sodipodi="http://sodipodi.sourceforge.net/DTD/sodipodi-0.dtd"
   xmlns="http://www.w3.org/2000/svg"
   xmlns:svg="http://www.w3.org/2000/svg">
  <sodipodi:namedview
     id="namedview4"
     pagecolor="#ffffff"
     bordercolor="#000000"
     borderopacity="0.25"
     inkscape:showpageshadow="2"
     inkscape:pageopacity="0.0"
     inkscape:pagecheckerboard="0"
     inkscape:deskcolor="#d1d1d1"
     inkscape:zoom="29.33871"
     inkscape:cx="30.982958"
     inkscape:cy="31"
     inkscape:window-width="3840"
     inkscape:window-height="2054"
     inkscape:window-x="2869"
     inkscape:window-y="-11"
     inkscape:window-maximized="1"
     inkscape:current-layer="Layer_1" />
  <!-- Generator: Adobe Illustrator 29.3.1, SVG Export Plug-In . SVG Version: 2.1.0 Build 151)  -->
  <defs
     id="defs1">
    <style
       id="style1">
      .st0 {
        fill: #e4151c;
      }
    </style>
  </defs>
  <path
     d="M 13,3 H 49.1 L 58.6,37.4 31,58.3 3.4,37.3 13,3 M 10.7,0 0,38.5 31,62 62,38.5 51.3,0 Z"
     id="path1" />
  <g
     id="g4">
    <path
       class="st0"
       d="m 24,19.6 v 2.1 c -0.7,-0.6 -1.4,-1.1 -2.1,-1.4 -0.7,-0.3 -1.6,-0.5 -2.4,-0.5 -1.7,0 -2.9,0.5 -3.8,1.5 -0.9,1 -1.3,2.5 -1.3,4.4 0,1.9 0.4,3.4 1.3,4.4 0.9,1 2.2,1.5 3.8,1.5 1.6,0 1.6,-0.2 2.4,-0.5 0.8,-0.3 1.5,-0.8 2.1,-1.4 v 2.1 c -0.7,0.5 -1.4,0.8 -2.2,1.1 -0.8,0.3 -1.6,0.4 -2.4,0.4 -2.2,0 -3.9,-0.7 -5.2,-2 -1.3,-1.3 -1.9,-3.2 -1.9,-5.5 0,-2.3 0.6,-4.2 1.9,-5.5 1.3,-1.4 3,-2 5.2,-2 2.2,0 1.7,0.1 2.5,0.3 0.8,0.2 1.5,0.6 2.2,1 z"
       id="path2" />
    <path
       class="st0"
       d="m 36.9,19.6 v 2.1 c -0.7,-0.6 -1.4,-1.1 -2.1,-1.4 -0.7,-0.3 -1.6,-0.5 -2.4,-0.5 -1.7,0 -2.9,0.5 -3.8,1.5 -0.9,1 -1.3,2.5 -1.3,4.4 0,1.9 0.4,3.4 1.3,4.4 0.9,1 2.2,1.5 3.8,1.5 1.6,0 1.6,-0.2 2.4,-0.5 0.8,-0.3 1.5,-0.8 2.1,-1.4 v 2.1 c -0.7,0.5 -1.4,0.8 -2.2,1.1 -0.8,0.3 -1.6,0.4 -2.4,0.4 -2.2,0 -3.9,-0.7 -5.2,-2 -1.3,-1.3 -1.9,-3.2 -1.9,-5.5 0,-2.3 0.6,-4.2 1.9,-5.5 1.3,-1.3 3,-2 5.2,-2 2.2,0 1.7,0.1 2.5,0.3 0.8,0.2 1.5,0.6 2.2,1 z"
       id="path3" />
    <path
       class="st0"
       d="m 45.9,26.3 c 0.4,0.1 0.8,0.4 1.2,0.9 0.4,0.5 0.8,1.1 1.2,1.9 l 2,4 H 48.2 L 46.3,29.4 C 45.8,28.4 45.4,27.8 44.9,27.5 44.4,27.2 43.8,27 43,27 h -2.1 v 6.2 h -2 V 18.6 h 4.5 c 1.7,0 2.9,0.3 3.7,1 0.8,0.7 1.2,1.7 1.2,3.2 0,1.5 -0.2,1.7 -0.6,2.3 -0.4,0.6 -1,1 -1.9,1.3 z M 41,20.1 v 5.2 h 2.5 c 1,0 1.7,-0.2 2.2,-0.7 0.5,-0.5 0.7,-1.1 0.7,-1.9 0,-0.8 -0.2,-1.5 -0.7,-1.9 -0.5,-0.4 -1.2,-0.6 -2.2,-0.6 H 41 Z"
       id="path4" />
  </g>
</svg>
