<?xml version="1.0" encoding="UTF-8" standalone="no"?>
<!-- Generator: Adobe Illustrator 29.4.0, SVG Export Plug-In . SVG Version: 9.03 Build 0)  -->

<svg
   version="1.1"
   id="Layer_1"
   x="0px"
   y="0px"
   viewBox="0 0 19.897036 50"
   xml:space="preserve"
   sodipodi:docname="poi051_c.svg"
   width="19.897036"
   height="50"
   inkscape:version="1.3.2 (091e20e, 2023-11-25, custom)"
   xmlns:inkscape="http://www.inkscape.org/namespaces/inkscape"
   xmlns:sodipodi="http://sodipodi.sourceforge.net/DTD/sodipodi-0.dtd"
   xmlns="http://www.w3.org/2000/svg"
   xmlns:svg="http://www.w3.org/2000/svg"><defs
   id="defs2" /><sodipodi:namedview
   id="namedview2"
   pagecolor="#ffffff"
   bordercolor="#000000"
   borderopacity="0.25"
   inkscape:showpageshadow="2"
   inkscape:pageopacity="0.0"
   inkscape:pagecheckerboard="0"
   inkscape:deskcolor="#d1d1d1"
   inkscape:zoom="36.38"
   inkscape:cx="9.9505223"
   inkscape:cy="25"
   inkscape:window-width="3840"
   inkscape:window-height="2054"
   inkscape:window-x="2869"
   inkscape:window-y="-11"
   inkscape:window-maximized="1"
   inkscape:current-layer="Layer_1" />
<path
   style="fill:#ffffff"
   d="m 18.685385,19.4 c -0.5,-0.3 -1,-0.5 -1.6,-0.5 -0.6,0 -0.5,0 -0.8,0.1 l -2.2,0.7 V 2 c 0,-1.1 -0.9,-2 -2,-2 H 7.7853853 c -1.1,0 -2,0.9 -2,2 v 17.6 l -2.1,-0.7 c -0.3,0 -0.6,-0.1 -0.8,-0.1 -0.6,0 -1.1,0.2 -1.6,0.5 -1.29999999,0.9 -1.69999999,2.7 -0.79999999,4 L 7.4853853,33.6 c 0.2,0.2 0.3,0.4 0.5,0.6 -3.5,0.9 -6.1,4 -6.1,7.8 0,3.8 3.6,8 8,8 4.3999997,0 7.9999997,-3.6 7.9999997,-8 0,-4.4 -2.6,-6.9 -6.1,-7.8 0.2,-0.2 0.3,-0.3 0.5,-0.5 l 7.1,-10.3 c 0.9,-1.3 0.6,-3.1 -0.8,-4 z"
   id="path1" />
<g
   id="g2"
   transform="translate(3.8531364e-4)">
	<path
   style="fill:#ff0000"
   d="m 17.585,21 c -0.2,-0.1 -0.5,-0.2 -0.7,-0.1 l -4.7,1.4 V 2 h -4.3 v 20.3 l -4.7,-1.4 c -0.3,0 -0.5,0 -0.7,0.1 -0.4,0.3 -0.5,0.8 -0.2,1.2 l 7,10.3 c 0,0 0.1,0.2 0.2,0.2 0.2,0.1 0.4,0.2 0.6,0.2 0.2,0 0.4,0 0.6,-0.2 0,0 0.2,-0.1 0.2,-0.2 l 7,-10.3 c 0.3,-0.4 0.2,-1 -0.2,-1.2 z"
   id="path2" />
	<circle
   style="fill:#ff0000"
   cx="9.9849997"
   cy="42"
   r="6"
   id="circle2" />
</g>
</svg>
