<?xml version="1.0" encoding="UTF-8" standalone="no"?>
<svg
   id="Layer_1"
   version="1.1"
   viewBox="0 0 66.6 66.4"
   sodipodi:docname="poi008_a.svg"
   width="66.599998"
   height="66.400002"
   inkscape:version="1.3.2 (091e20e, 2023-11-25, custom)"
   xmlns:inkscape="http://www.inkscape.org/namespaces/inkscape"
   xmlns:sodipodi="http://sodipodi.sourceforge.net/DTD/sodipodi-0.dtd"
   xmlns="http://www.w3.org/2000/svg"
   xmlns:svg="http://www.w3.org/2000/svg">
  <sodipodi:namedview
     id="namedview3"
     pagecolor="#ffffff"
     bordercolor="#000000"
     borderopacity="0.25"
     inkscape:showpageshadow="2"
     inkscape:pageopacity="0.0"
     inkscape:pagecheckerboard="0"
     inkscape:deskcolor="#d1d1d1"
     inkscape:zoom="27.394578"
     inkscape:cx="33.29126"
     inkscape:cy="33.200001"
     inkscape:window-width="3840"
     inkscape:window-height="2054"
     inkscape:window-x="2869"
     inkscape:window-y="-11"
     inkscape:window-maximized="1"
     inkscape:current-layer="Layer_1" />
  <!-- Generator: Adobe Illustrator 29.3.1, SVG Export Plug-In . SVG Version: 2.1.0 Build 151)  -->
  <defs
     id="defs1">
    <style
       id="style1">
      .st0 {
        fill: #fff;
      }

      .st1 {
        fill: #f6bd16;
      }
    </style>
  </defs>
  <g
     id="g2">
    <polygon
       class="st0"
       points="52.5,3.5 62.6,40 33.3,62.1 4,39.9 14.1,3.5 "
       id="polygon1" />
    <path
       d="M 51.3,5 60.8,39.4 33.2,60.3 5.7,39.3 15.3,5 H 51.4 M 53.6,2 H 13 L 2.3,40.5 33.3,64 64.3,40.5 Z"
       id="path1" />
    <path
       class="st0"
       d="M 53.6,2 64.3,40.5 33.3,64 2.3,40.5 13,2 H 53.6 M 55.1,0 H 11.5 L 11.1,1.5 0.4,39.9 0,41.2 1.1,42 l 31,23.5 1.2,0.9 1.2,-0.9 L 65.5,42 66.6,41.2 66.2,39.9 55.5,1.5 Z"
       id="path2" />
  </g>
  <g
     id="g3">
    <path
       class="st1"
       d="m 58.5,39 -9,-14.7 h -5.7 v 10.2 c -0.7,0 -1,-0.2 -1.4,-0.4 -0.5,-0.3 -1.1,-0.6 -2.2,-0.6 -1.1,0 -1.7,0.3 -2.2,0.6 -0.4,0.2 -0.7,0.4 -1.4,0.4 -0.7,0 -1,-0.2 -1.4,-0.4 -0.5,-0.3 -1.1,-0.6 -2.2,-0.6 -1.1,0 -1.7,0.3 -2.2,0.6 -0.4,0.2 -0.7,0.4 -1.4,0.4 -0.7,0 -1,-0.2 -1.4,-0.4 -0.5,-0.3 -1.1,-0.6 -2.2,-0.6 -1.1,0 -1.7,0.3 -2.2,0.6 -0.4,0.2 -0.7,0.4 -1.4,0.4 V 24.3 H 16.5 L 7.5,39 h 14.7 c 1.1,0 1.7,-0.3 2.2,-0.6 0.4,-0.2 0.7,-0.4 1.4,-0.4 0.7,0 1,0.2 1.4,0.4 0.5,0.3 1.1,0.6 2.2,0.6 1.1,0 1.7,-0.3 2.2,-0.6 C 32,38.2 32.3,38 33,38 c 0.7,0 1,0.2 1.4,0.4 0.5,0.3 1.1,0.6 2.2,0.6 1.1,0 1.7,-0.3 2.2,-0.6 0.4,-0.2 0.7,-0.4 1.4,-0.4 0.7,0 1,0.2 1.4,0.4 0.5,0.3 1.1,0.6 2.2,0.6 z m -16,-1.9 c -0.5,-0.3 -1.1,-0.6 -2.2,-0.6 -1.1,0 -1.7,0.3 -2.2,0.6 -0.4,0.2 -0.7,0.4 -1.4,0.4 -0.7,0 -1,-0.2 -1.4,-0.4 -0.5,-0.3 -1.1,-0.6 -2.2,-0.6 -1.1,0 -1.7,0.3 -2.2,0.6 -0.4,0.2 -0.7,0.4 -1.4,0.4 -0.7,0 -1,-0.2 -1.4,-0.4 -0.5,-0.3 -1.1,-0.6 -2.2,-0.6 -1.1,0 -1.7,0.3 -2.2,0.6 -0.4,0.2 -0.7,0.4 -1.4,0.4 v -1.4 c 1.1,0 1.7,-0.3 2.2,-0.6 0.4,-0.2 0.7,-0.4 1.4,-0.4 0.7,0 1,0.2 1.4,0.4 0.5,0.3 1.1,0.6 2.2,0.6 1.1,0 1.7,-0.3 2.2,-0.6 0.4,-0.2 0.7,-0.4 1.4,-0.4 0.7,0 1,0.2 1.4,0.4 0.5,0.3 1.1,0.6 2.2,0.6 1.1,0 1.7,-0.3 2.2,-0.6 0.4,-0.2 0.7,-0.4 1.4,-0.4 0.7,0 1,0.2 1.4,0.4 0.5,0.3 1.1,0.6 2.2,0.6 v 1.4 c -0.7,0 -1,-0.2 -1.4,-0.4 z"
       id="path3" />
    <rect
       class="st1"
       x="21"
       y="16.1"
       width="21.200001"
       height="4.1999998"
       transform="rotate(-45.2,31.592605,18.224222)"
       id="rect3" />
  </g>
</svg>
