<?xml version="1.0" encoding="UTF-8" standalone="no"?>
<svg
   id="Layer_1"
   version="1.1"
   viewBox="0 0 62 62"
   sodipodi:docname="poi033_b.svg"
   width="62"
   height="62"
   inkscape:version="1.3.2 (091e20e, 2023-11-25, custom)"
   xmlns:inkscape="http://www.inkscape.org/namespaces/inkscape"
   xmlns:sodipodi="http://sodipodi.sourceforge.net/DTD/sodipodi-0.dtd"
   xmlns="http://www.w3.org/2000/svg"
   xmlns:svg="http://www.w3.org/2000/svg">
  <sodipodi:namedview
     id="namedview4"
     pagecolor="#ffffff"
     bordercolor="#000000"
     borderopacity="0.25"
     inkscape:showpageshadow="2"
     inkscape:pageopacity="0.0"
     inkscape:pagecheckerboard="0"
     inkscape:deskcolor="#d1d1d1"
     inkscape:zoom="29.33871"
     inkscape:cx="30.982958"
     inkscape:cy="31"
     inkscape:window-width="3840"
     inkscape:window-height="2054"
     inkscape:window-x="2869"
     inkscape:window-y="-11"
     inkscape:window-maximized="1"
     inkscape:current-layer="Layer_1" />
  <!-- Generator: Adobe Illustrator 29.3.1, SVG Export Plug-In . SVG Version: 2.1.0 Build 151)  -->
  <defs
     id="defs1">
    <style
       id="style1">
      .st0 {
        fill: #93572b;
      }
    </style>
  </defs>
  <path
     d="M 13,3 H 49.1 L 58.6,37.4 31,58.3 3.4,37.3 13,3 M 10.7,0 0,38.5 31,62 62,38.5 51.3,0 Z"
     id="path1" />
  <g
     id="g4">
    <path
       class="st0"
       d="m 29.9,20.7 c 1.7,-1.1 2.1,-3.4 1,-5.1 -0.5,-0.7 -1.2,-1.2 -2,-1.5 1.3,-1.4 1.2,-3.6 -0.2,-4.9 -1,-1 -2.5,-1.2 -3.8,-0.6 -0.7,-1.7 -2.6,-2.5 -4.3,-1.9 -0.9,0.4 -1.7,1.1 -2,2.1 -1.4,-0.7 -3.2,0 -3.8,1.4 -0.7,1.4 0,3.2 1.4,3.8 -2,0.3 -3.4,2.1 -3.2,4.1 0.1,1 0.7,1.9 1.5,2.5 -1.7,1.2 -2,3.5 -0.9,5.1 0.6,0.9 1.7,1.5 2.8,1.5 0.6,1.3 1.9,2 3.3,2 0.3,0 0.6,0 0.9,-0.1 L 20.1,41 c 0,0.2 0.1,0.3 0.3,0.3 0,0 0,0 0,0 h 3.4 c 0.2,0 0.3,-0.1 0.3,-0.3 0,0 0,0 0,0 L 23.6,28.6 c 0.4,0.2 0.8,0.2 1.2,0.2 1.5,0 2.7,-1 3,-2.5 1.9,-0.2 3.3,-1.8 3.1,-3.7 0,-0.8 -0.4,-1.5 -1,-2.1 v 0 z"
       id="path2" />
    <path
       class="st0"
       d="m 33.4,31 c 0,1.3 -1,2.3 -2.3,2.3 -1.3,0 -2.3,-1 -2.3,-2.3 0,-1.3 1,-2.3 2.3,-2.3 1.3,0 2.3,1 2.3,2.3 z"
       id="path3" />
    <path
       class="st0"
       d="m 48.1,39.7 h -3 l -2.5,-4.9 c -0.1,-0.3 -0.4,-0.4 -0.7,-0.5 -0.3,0 -0.6,0 -0.8,0.2 l -3.2,3.1 -3.1,-3.9 c -0.4,-0.5 -1,-0.7 -1.6,-0.4 0,0 -2.2,0.9 -2.3,0.9 -0.4,0.1 -0.7,0.4 -0.9,0.8 l -2.8,4.9 c -0.2,0.4 0,1 0.3,1.2 0.1,0 0.3,0.1 0.4,0.1 h 3 c 0.5,0 0.9,-0.4 0.9,-0.9 0,-0.5 -0.4,-0.9 -0.9,-0.9 h -1.5 c 0,0 1.7,-3 1.7,-3 l 3.4,4.6 c 0.1,0.2 0.4,0.3 0.6,0.3 0,0 0.1,0 0.2,0 H 48 c 0.5,0 0.9,-0.4 0.9,-0.9 0,-0.5 -0.4,-0.9 -0.9,-0.9 v 0 z m -6.6,-2.9 1.5,2.9 h -4.5 z"
       id="path4" />
  </g>
</svg>
