<?xml version="1.0" encoding="UTF-8" standalone="no"?>
<svg
   id="Layer_1"
   version="1.1"
   viewBox="0 0 62 62"
   sodipodi:docname="poi025_b.svg"
   width="62"
   height="62"
   inkscape:version="1.3.2 (091e20e, 2023-11-25, custom)"
   xmlns:inkscape="http://www.inkscape.org/namespaces/inkscape"
   xmlns:sodipodi="http://sodipodi.sourceforge.net/DTD/sodipodi-0.dtd"
   xmlns="http://www.w3.org/2000/svg"
   xmlns:svg="http://www.w3.org/2000/svg">
  <sodipodi:namedview
     id="namedview7"
     pagecolor="#ffffff"
     bordercolor="#000000"
     borderopacity="0.25"
     inkscape:showpageshadow="2"
     inkscape:pageopacity="0.0"
     inkscape:pagecheckerboard="0"
     inkscape:deskcolor="#d1d1d1"
     inkscape:zoom="29.33871"
     inkscape:cx="30.982958"
     inkscape:cy="31"
     inkscape:window-width="3840"
     inkscape:window-height="2054"
     inkscape:window-x="2869"
     inkscape:window-y="-11"
     inkscape:window-maximized="1"
     inkscape:current-layer="Layer_1" />
  <!-- Generator: Adobe Illustrator 29.3.1, SVG Export Plug-In . SVG Version: 2.1.0 Build 151)  -->
  <defs
     id="defs1">
    <style
       id="style1">
      .st0 {
        fill: none;
        stroke: #000;
        stroke-linecap: round;
        stroke-miterlimit: 10;
        stroke-width: 2px;
      }

      .st1 {
        fill: #ff0;
      }
    </style>
  </defs>
  <path
     d="M 49,3 58.5,37.4 30.9,58.3 3.4,37.3 13,3 H 49.1 M 51.3,0 H 10.7 L 0,38.5 31,62 62,38.5 Z"
     id="path1" />
  <g
     id="g3">
    <path
       class="st1"
       d="M 21.4,40 C 20.1,40 19,38.9 19,37.6 V 14.4 C 19,13.1 20.1,12 21.4,12 h 19.2 c 1.3,0 2.4,1.1 2.4,2.4 v 23.2 c 0,1.3 -1.1,2.4 -2.4,2.4 z"
       id="path2" />
    <path
       d="m 40.6,13 c 0.8,0 1.4,0.6 1.4,1.4 V 37.6 C 42,38.4 41.4,39 40.6,39 H 21.4 C 20.6,39 20,38.4 20,37.6 V 14.4 C 20,13.6 20.6,13 21.4,13 h 19.2 m 0,-2 H 21.4 C 19.5,11 18,12.5 18,14.4 v 23.2 c 0,1.9 1.5,3.4 3.4,3.4 H 40.6 C 42.5,41 44,39.5 44,37.6 V 14.4 C 44,12.5 42.5,11 40.6,11 Z"
       id="path3" />
  </g>
  <g
     id="g7">
    <g
       id="g4">
      <line
         class="st0"
         x1="43"
         y1="19"
         x2="47"
         y2="19"
         id="line3" />
      <line
         class="st0"
         x1="43"
         y1="33"
         x2="47"
         y2="33"
         id="line4" />
    </g>
    <g
       id="g6">
      <line
         class="st0"
         x1="15"
         y1="19"
         x2="19"
         y2="19"
         id="line5" />
      <line
         class="st0"
         x1="15"
         y1="33"
         x2="19"
         y2="33"
         id="line6" />
    </g>
  </g>
  <polygon
     points="31.5,14.3 35.7,14.3 32.1,20.4 34.9,20.4 26.3,32.3 30.5,22.6 28,22.6 "
     id="polygon7" />
  <path
     d="m 33.5,37.5 h -5 C 27.7,37.5 27,36.8 27,36 v 0 c 0,-0.8 0.7,-1.5 1.5,-1.5 h 5 c 0.8,0 1.5,0.7 1.5,1.5 v 0 c 0,0.8 -0.7,1.5 -1.5,1.5 z"
     id="path7" />
</svg>
