<?xml version="1.0" encoding="UTF-8" standalone="no"?>
<!-- Generator: Adobe Illustrator 29.4.0, SVG Export Plug-In . SVG Version: 9.03 Build 0)  -->

<svg
   version="1.1"
   id="Layer_1"
   x="0px"
   y="0px"
   viewBox="0 0 44 32.4"
   xml:space="preserve"
   sodipodi:docname="poi012_c.svg"
   width="44"
   height="32.400002"
   inkscape:version="1.3.2 (091e20e, 2023-11-25, custom)"
   xmlns:inkscape="http://www.inkscape.org/namespaces/inkscape"
   xmlns:sodipodi="http://sodipodi.sourceforge.net/DTD/sodipodi-0.dtd"
   xmlns="http://www.w3.org/2000/svg"
   xmlns:svg="http://www.w3.org/2000/svg"><defs
   id="defs2" /><sodipodi:namedview
   id="namedview2"
   pagecolor="#ffffff"
   bordercolor="#000000"
   borderopacity="0.25"
   inkscape:showpageshadow="2"
   inkscape:pageopacity="0.0"
   inkscape:pagecheckerboard="0"
   inkscape:deskcolor="#d1d1d1"
   inkscape:zoom="56.141973"
   inkscape:cx="21.997802"
   inkscape:cy="16.200001"
   inkscape:window-width="3840"
   inkscape:window-height="2054"
   inkscape:window-x="2869"
   inkscape:window-y="-11"
   inkscape:window-maximized="1"
   inkscape:current-layer="Layer_1" />
<path
   style="fill:#ffffff"
   d="M 42,24.4 H 39.1 L 26,7.9 28.6,4.7 C 29.3,3.8 29.1,2.6 28.3,1.9 L 26.5,0.5 C 26.1,0.2 25.7,0 25.2,0 24.7,0 25,0 25,0 24.5,0 24,0.3 23.7,0.7 L 22,2.8 20.3,0.7 C 20,0.3 19.5,0 19,0 h -0.2 c -0.5,0 -0.9,0.2 -1.2,0.4 l -1.8,1.4 c -0.9,0.7 -1,1.9 -0.3,2.8 L 18.1,7.8 4.9,24.4 H 2 c -1.1,0 -2,0.9 -2,2 v 4 c 0,1.1 0.9,2 2,2 h 40 c 1.1,0 2,-0.9 2,-2 v -4 c 0,-1.1 -0.9,-2 -2,-2 z"
   id="path1" />
<g
   id="g1">
	<rect
   x="2"
   y="26.4"
   style="fill:#93572b"
   width="40"
   height="4"
   id="rect1" />
	<polygon
   style="fill:#93572b"
   points="38.6,27.6 38.9,27.4 23.4,7.9 27,3.4 25.2,2 22,6.1 22,6.1 22,6.1 18.8,2 17,3.4 20.6,7.9 5.1,27.4 5.4,27.6 13.6,27.6 22,17 30.4,27.6 "
   id="polygon1" />
</g>
<path
   style="fill:#93572b"
   d="M 38.2,26.4 23.4,7.9 27,3.4 25.2,2 22,6.1 v 0 0 L 18.8,2 17,3.4 20.6,7.9 5.8,26.4 H 2 v 4 h 40 v -4 z M 22,17 29.5,26.4 H 14.6 L 22.1,17 Z"
   id="path2" />
</svg>
