<?xml version="1.0" encoding="UTF-8" standalone="no"?>
<!-- Generator: Adobe Illustrator 29.4.0, SVG Export Plug-In . SVG Version: 9.03 Build 0)  -->

<svg
   version="1.1"
   id="Layer_1"
   x="0px"
   y="0px"
   viewBox="0 0 42 42.5"
   xml:space="preserve"
   sodipodi:docname="poi003_c.svg"
   width="42"
   height="42.5"
   inkscape:version="1.3.2 (091e20e, 2023-11-25, custom)"
   xmlns:inkscape="http://www.inkscape.org/namespaces/inkscape"
   xmlns:sodipodi="http://sodipodi.sourceforge.net/DTD/sodipodi-0.dtd"
   xmlns="http://www.w3.org/2000/svg"
   xmlns:svg="http://www.w3.org/2000/svg"><defs
   id="defs19" /><sodipodi:namedview
   id="namedview19"
   pagecolor="#ffffff"
   bordercolor="#000000"
   borderopacity="0.25"
   inkscape:showpageshadow="2"
   inkscape:pageopacity="0.0"
   inkscape:pagecheckerboard="0"
   inkscape:deskcolor="#d1d1d1"
   inkscape:zoom="42.8"
   inkscape:cx="21.004673"
   inkscape:cy="21.25"
   inkscape:window-width="3840"
   inkscape:window-height="2054"
   inkscape:window-x="2869"
   inkscape:window-y="-11"
   inkscape:window-maximized="1"
   inkscape:current-layer="Layer_1" />
<path
   style="fill:#ffffff"
   d="M 40,15 H 37 C 36.3,12.2 34.9,9.7 33,7.7 33.6,7.4 34,6.7 34,6 V 2 C 34,0.9 33.1,0 32,0 H 28 C 26.9,0 26,0.9 26,2 V 3.3 C 24.4,2.8 22.7,2.5 21,2.5 19.3,2.5 17.6,2.8 16,3.3 V 2 C 16,0.9 15.1,0 14,0 H 10 C 8.9,0 8,0.9 8,2 V 6 C 8,6.7 8.4,7.4 9,7.7 7.1,9.7 5.7,12.2 5,15 H 2 c -1.1,0 -2,0.9 -2,2 v 4 c 0,1.1 0.9,2 2,2 h 3 c 0.7,2.8 2.1,5.3 4,7.3 -0.6,0.3 -1,1 -1,1.7 v 2.5 l -0.6,1 H 2 c -1.1,0 -2,0.9 -2,2 v 3 c 0,1.1 0.9,2 2,2 h 38 c 1.1,0 2,-0.9 2,-2 v -3 c 0,-1.1 -0.9,-2 -2,-2 H 34.6 L 34,34.5 V 32 c 0,-0.7 -0.4,-1.4 -1,-1.7 1.9,-2 3.3,-4.5 4,-7.3 h 3 c 1.1,0 2,-0.9 2,-2 v -4 c 0,-1.1 -0.9,-2 -2,-2 z"
   id="path1" />
<g
   id="g11">
	<path
   style="fill:#0056a4"
   d="M 21,33.5 C 13,33.5 6.5,27 6.5,19 6.5,11 13,4.5 21,4.5 29,4.5 35.5,11 35.5,19 35.5,27 29,33.5 21,33.5 Z m 0,-26 C 14.7,7.5 9.5,12.7 9.5,19 9.5,25.3 14.7,30.5 21,30.5 27.3,30.5 32.5,25.3 32.5,19 32.5,12.7 27.3,7.5 21,7.5 Z"
   id="path2" />
	<rect
   x="2"
   y="37.5"
   style="fill:#0056a4"
   width="38"
   height="3"
   id="rect2" />
	<g
   id="g5">
		<rect
   x="9"
   y="18"
   style="fill:#0056a4"
   width="24"
   height="2"
   id="rect3" />
		
			<rect
   x="8.9540005"
   y="17.513"
   transform="matrix(0.5,-0.866,0.866,0.5,-5.9889,27.6539)"
   style="fill:#0056a4"
   width="24"
   height="3"
   id="rect4" />
		
			<rect
   x="19.487"
   y="6.954"
   transform="matrix(0.866,-0.5,0.5,0.866,-6.6656,13.0327)"
   style="fill:#0056a4"
   width="3"
   height="24"
   id="rect5" />
	</g>
	<rect
   x="2"
   y="17"
   style="fill:#0056a4"
   width="4"
   height="4"
   id="rect6" />
	<rect
   x="36"
   y="17"
   style="fill:#0056a4"
   width="4"
   height="4"
   id="rect7" />
	<rect
   x="10"
   y="2"
   style="fill:#0056a4"
   width="4"
   height="4"
   id="rect8" />
	<rect
   x="28"
   y="32"
   style="fill:#0056a4"
   width="4"
   height="4"
   id="rect9" />
	<rect
   x="28"
   y="2"
   style="fill:#0056a4"
   width="4"
   height="4"
   id="rect10" />
	<rect
   x="10"
   y="32"
   style="fill:#0056a4"
   width="4"
   height="4"
   id="rect11" />
	<path
   style="fill:#0056a4"
   d="M 35.1,40.5 H 6.9 L 21,16 Z m -23,-3 H 30 L 21.1,22 12.2,37.5 Z"
   id="path11" />
</g>
<g
   id="g19">
	<circle
   style="fill:none"
   cx="21"
   cy="19"
   r="13"
   id="circle11" />
	<line
   style="fill:none"
   x1="40"
   y1="39"
   x2="2"
   y2="39"
   id="line11" />
	<g
   id="g14">
		<line
   style="fill:none"
   x1="9"
   y1="19"
   x2="33"
   y2="19"
   id="line12" />
		<line
   style="fill:none"
   x1="27"
   y1="8.6000004"
   x2="15"
   y2="29.4"
   id="line13" />
		<line
   style="fill:none"
   x1="15"
   y1="8.6000004"
   x2="27"
   y2="29.4"
   id="line14" />
	</g>
	<rect
   x="2"
   y="17"
   style="fill:#0056a4"
   width="4"
   height="4"
   id="rect14" />
	<rect
   x="36"
   y="17"
   style="fill:#0056a4"
   width="4"
   height="4"
   id="rect15" />
	<rect
   x="10"
   y="2"
   style="fill:#0056a4"
   width="4"
   height="4"
   id="rect16" />
	<rect
   x="28"
   y="32"
   style="fill:#0056a4"
   width="4"
   height="4"
   id="rect17" />
	<rect
   x="28"
   y="2"
   style="fill:#0056a4"
   width="4"
   height="4"
   id="rect18" />
	<rect
   x="10"
   y="32"
   style="fill:#0056a4"
   width="4"
   height="4"
   id="rect19" />
	<polygon
   style="fill:none"
   points="21,19 9.5,39 32.5,39 "
   id="polygon19" />
</g>
</svg>
