<?xml version="1.0" encoding="UTF-8" standalone="no"?>
<!-- Generator: Adobe Illustrator 29.4.0, SVG Export Plug-In . SVG Version: 9.03 Build 0)  -->

<svg
   version="1.1"
   id="Layer_1"
   x="0px"
   y="0px"
   viewBox="0 0 24.4 51.3"
   xml:space="preserve"
   sodipodi:docname="poi040_c.svg"
   width="24.4"
   height="51.299999"
   inkscape:version="1.3.2 (091e20e, 2023-11-25, custom)"
   xmlns:inkscape="http://www.inkscape.org/namespaces/inkscape"
   xmlns:sodipodi="http://sodipodi.sourceforge.net/DTD/sodipodi-0.dtd"
   xmlns="http://www.w3.org/2000/svg"
   xmlns:svg="http://www.w3.org/2000/svg"><defs
   id="defs5" /><sodipodi:namedview
   id="namedview5"
   pagecolor="#ffffff"
   bordercolor="#000000"
   borderopacity="0.25"
   inkscape:showpageshadow="2"
   inkscape:pageopacity="0.0"
   inkscape:pagecheckerboard="0"
   inkscape:deskcolor="#d1d1d1"
   inkscape:zoom="35.45809"
   inkscape:cx="12.2116"
   inkscape:cy="25.65"
   inkscape:window-width="3840"
   inkscape:window-height="2054"
   inkscape:window-x="2869"
   inkscape:window-y="-11"
   inkscape:window-maximized="1"
   inkscape:current-layer="Layer_1" />
<path
   style="fill:#ffffff"
   d="m 20.4,26.5 c -0.5,-0.7 -4,-2 -7.5,-1.6 -1.9,0.2 -4,1 -5.5,2 2.2,1 4.7,1.1 5.2,1.1 3.9,0.1 7.3,-0.9 7.9,-1.6 z"
   id="path1" />
<path
   style="fill:#ffffff"
   d="m 12.7,37 c 2.4,0 4.8,-0.9 5.4,-1.4 -0.6,-0.5 -2.9,-1.3 -5.4,-1.1 -1.7,0.1 -3.4,0.7 -4.8,1.4 1.3,0.8 3,1.2 4.8,1.2 v 0 z"
   id="path2" />
<path
   style="fill:#ffffff"
   d="m 24.4,26.6 c 0,-0.8 -0.2,-2 -1.5,-3.1 -1.8,-1.6 -5.4,-2.7 -8.8,-2.7 -3.4,0 -1.2,0 -1.8,0.1 -2.2,0.3 -4.5,1 -6.4,2.1 0,-0.2 0,-0.5 0,-0.7 0,-0.6 0.8,-1.1 3.6,-2.1 v 0 c 0.4,-0.2 0.8,-0.3 1.2,-0.5 3.9,-1.5 4.5,-5.4 4.6,-8.5 l -2,-0.8 c 0,2.8 -0.2,6.3 -3.3,7.5 -0.4,0.2 -0.8,0.3 -1.2,0.4 -3,1.1 -4.9,1.9 -4.9,4 0,2.1 0.6,2.7 1.6,3.5 1.9,-1.5 4.6,-2.6 7.1,-2.9 3.7,-0.4 7.5,0.7 9,2.1 0.6,0.5 0.8,1 0.8,1.6 0,0.3 -0.1,0.9 -0.7,1.4 -1.5,1.5 -5.9,2.2 -9.3,2.1 -0.6,0 -4,-0.2 -6.8,-1.7 -0.6,0.7 -1,1.6 -1.1,2.4 0,1.5 0.9,2.7 1.5,3.4 0,0 0.2,0.2 0.2,0.3 1.8,-1.1 4.1,-1.9 6.3,-2.1 2.7,-0.2 5.7,0.6 7,1.7 0.6,0.5 0.7,1 0.7,1.4 0,0.3 0,0.8 -0.6,1.4 -1.2,1.2 -4.2,2.1 -6.9,2.1 v 0 c -2.5,0 -4.8,-0.7 -6.6,-1.9 -0.5,0.5 -0.8,1 -0.8,1.5 0,1.1 2.1,2.5 3.5,3.5 0.3,0.2 0.7,0.5 1,0.6 0.9,0.6 1.7,1.1 2.4,2.2 0.6,1 0.9,2.2 0.9,3.6 0,0.5 -0.5,1 -1,1 v 0 c -0.6,0 -1,-0.5 -1,-1 0,-1 -0.2,-1.8 -0.6,-2.5 C 10.1,45.3 9.6,45 8.7,44.4 8.4,44.2 8,44 7.7,43.7 c -2,-1.4 -4.3,-3 -4.4,-5 0,-1 0.5,-2 1.3,-2.9 0,0 -0.1,-0.2 -0.2,-0.3 C 3.7,34.7 2.4,33 2.5,30.8 2.5,29.5 3.1,28.3 4,27.3 2.8,26.2 1.9,24.6 1.9,22.4 c 0,-3.6 3.3,-4.8 6.2,-5.9 0.4,-0.1 0.8,-0.3 1.2,-0.4 1.8,-0.7 2,-3 2,-5.7 l -2,0.8 c 0,1.3 -0.1,2.8 -0.7,3 -0.4,0.1 -0.7,0.3 -1.1,0.4 -3,1.1 -7.5,2.7 -7.5,7.7 0,5 0.5,3.6 1.6,5.1 -0.6,1 -0.9,2.1 -0.9,3.2 -0.1,2.2 0.8,4 1.6,5.1 -0.6,1 -0.9,2 -0.8,3 0.2,3 3,5 5.2,6.6 0.4,0.3 0.8,0.5 1.1,0.7 0.8,0.5 1,0.6 1.1,0.9 0.2,0.4 0.3,0.8 0.3,1.4 0,0.8 0.3,1.6 0.8,2.1 0.6,0.6 1.3,0.9 2.1,0.9 1.7,0 3,-1.3 3,-3 0,-1.7 -0.4,-3.3 -1.2,-4.6 -0.9,-1.5 -2,-2.2 -3,-2.9 0,0 -0.1,0 -0.2,-0.1 0.7,0 1.3,0.1 2,0.1 2.8,0 6.6,-0.9 8.3,-2.7 0.8,-0.8 1.2,-1.8 1.2,-2.8 0,-1 -0.5,-2 -1.3,-2.8 -0.5,-0.4 -1,-0.8 -1.7,-1.1 0,0 0,-0.2 0,-0.3 1.5,-0.4 3,-1 3.9,-1.9 0.8,-0.8 1.3,-1.8 1.3,-2.8 z"
   id="path3" />
<path
   style="fill:#ffffff"
   d="m 11.2,9.2 c 0,-0.3 0,-0.7 0,-1 L 7.8,9.6 c 0,0 -0.1,0 -0.2,0 -0.1,0 -0.2,0 -0.3,0 C 7,9.4 7,9.1 7.2,8.8 l 4.5,-6.5 c 0,0 0,-0.1 0.2,-0.2 0.1,0 0.3,-0.1 0.4,-0.1 0.2,0 0.4,0 0.5,0.3 l 4.4,6.5 c 0,0.1 0.1,0.3 0,0.5 0,0.2 -0.3,0.4 -0.5,0.4 -0.2,0 -0.1,0 -0.2,0 L 13.2,8.3 c 0,0.3 0,0.6 0,0.9 0,0.4 0,0.8 0,1.3 l 2,0.8 0.5,0.2 c 0,0 0.1,0 0.2,0 0.2,0 0.5,0.1 0.8,0.1 1.1,0 2.1,-0.7 2.4,-1.8 C 19.3,9 19.2,8.2 18.8,7.6 L 14.4,1.1 v 0 C 13.9,0.4 13.1,0 12.2,0 V 0 C 11.6,0 11.1,0.2 10.7,0.5 10.5,0.7 10.3,0.9 10.1,1.1 L 5.6,7.7 c -0.8,1.2 -0.5,2.8 0.7,3.6 0.4,0.3 0.9,0.4 1.4,0.4 0.5,0 0.5,0 0.7,0 0,0 0.1,0 0.2,0 l 0.7,-0.3 2,-0.8 c 0,-0.4 0,-0.8 0,-1.1 z"
   id="path4" />
<path
   d="m 13.2,9.1 c 0,-0.3 0,-0.6 0,-0.9 l 3.3,1.4 c 0,0 0.1,0 0.2,0 0.2,0 0.5,-0.2 0.5,-0.4 0,-0.2 0,-0.3 0,-0.5 L 12.8,2.2 C 12.7,2 12.5,1.9 12.3,1.9 c -0.2,0 -0.3,0 -0.4,0.1 0,0 -0.1,0 -0.2,0.2 L 7.2,8.7 C 7,9 7.1,9.3 7.3,9.5 c 0,0 0.2,0 0.3,0 0.1,0 0.1,0 0.2,0 l 3.4,-1.4 c 0,0.3 0,0.6 0,1 0,0.4 0,0.8 0,1.1 0,2.7 -0.2,5 -2,5.7 -0.4,0.1 -0.8,0.3 -1.2,0.4 -2.9,1.1 -6.2,2.3 -6.2,5.9 0,3.6 0.9,3.8 2.1,4.9 -0.9,1 -1.4,2.2 -1.5,3.5 -0.1,2.3 1.3,3.9 1.9,4.7 0,0 0.1,0.2 0.2,0.3 -0.9,0.9 -1.4,1.9 -1.3,2.9 0.1,2 2.4,3.6 4.4,5 0.4,0.3 0.7,0.5 1,0.7 0.8,0.5 1.3,0.9 1.8,1.6 0.4,0.7 0.6,1.5 0.6,2.5 0,0.6 0.4,1 1,1 v 0 c 0.5,0 1,-0.4 1,-1 0,-1.3 -0.3,-2.5 -0.9,-3.6 -0.7,-1.1 -1.5,-1.6 -2.4,-2.2 -0.3,-0.2 -0.6,-0.4 -1,-0.6 -1.5,-1 -3.5,-2.4 -3.5,-3.5 0,-0.5 0.3,-1 0.8,-1.5 1.8,1.3 4,1.9 6.6,1.9 v 0 c 2.7,0 5.8,-0.9 6.9,-2.1 0.5,-0.5 0.6,-1 0.6,-1.4 0,-0.3 -0.1,-0.8 -0.7,-1.4 -1.2,-1.1 -4.3,-1.9 -7,-1.7 -2.2,0.1 -4.5,0.9 -6.3,2.1 0,0 -0.2,-0.2 -0.2,-0.3 -0.5,-0.7 -1.6,-1.9 -1.5,-3.4 0,-0.9 0.4,-1.7 1.1,-2.4 2.8,1.5 6.2,1.7 6.8,1.7 3.4,0.1 7.8,-0.6 9.3,-2.1 0.5,-0.5 0.7,-1 0.7,-1.4 0,-0.6 -0.3,-1.1 -0.8,-1.6 C 20,23.5 16.2,22.3 12.5,22.7 10,23 7.3,24 5.4,25.6 4.5,24.8 3.8,23.6 3.8,22.1 c 0,-1.5 1.8,-2.9 4.9,-4 0.4,-0.1 0.8,-0.3 1.2,-0.4 3.1,-1.2 3.3,-4.7 3.3,-7.5 0,-0.5 0,-0.9 0,-1.3 z m -0.5,25.3 c 2.5,-0.2 4.8,0.7 5.4,1.1 -0.6,0.6 -3,1.4 -5.4,1.4 v 0 C 10.9,36.9 9.2,36.5 7.9,35.7 9.2,35 11,34.4 12.7,34.3 Z m 0.1,-9.5 c 3.6,-0.4 7.1,1 7.5,1.6 -0.6,0.7 -4,1.7 -7.9,1.6 -0.5,0 -3,-0.1 -5.2,-1.1 1.6,-1.1 3.6,-1.8 5.5,-2 z"
   id="path5" />
</svg>
