<?xml version="1.0" encoding="UTF-8" standalone="no"?>
<svg
   id="Layer_1"
   version="1.1"
   viewBox="0 0 62 62"
   sodipodi:docname="poi004_b.svg"
   width="62"
   height="62"
   inkscape:version="1.3.2 (091e20e, 2023-11-25, custom)"
   xmlns:inkscape="http://www.inkscape.org/namespaces/inkscape"
   xmlns:sodipodi="http://sodipodi.sourceforge.net/DTD/sodipodi-0.dtd"
   xmlns="http://www.w3.org/2000/svg"
   xmlns:svg="http://www.w3.org/2000/svg">
  <sodipodi:namedview
     id="namedview9"
     pagecolor="#ffffff"
     bordercolor="#000000"
     borderopacity="0.25"
     inkscape:showpageshadow="2"
     inkscape:pageopacity="0.0"
     inkscape:pagecheckerboard="0"
     inkscape:deskcolor="#d1d1d1"
     inkscape:zoom="29.33871"
     inkscape:cx="30.982958"
     inkscape:cy="31"
     inkscape:window-width="3840"
     inkscape:window-height="2054"
     inkscape:window-x="2869"
     inkscape:window-y="-11"
     inkscape:window-maximized="1"
     inkscape:current-layer="Layer_1" />
  <!-- Generator: Adobe Illustrator 29.3.1, SVG Export Plug-In . SVG Version: 2.1.0 Build 151)  -->
  <defs
     id="defs1">
    <style
       id="style1">
      .st0 {
        fill: #fff;
      }

      .st1 {
        fill: none;
      }

      .st2 {
        fill: red;
      }
    </style>
  </defs>
  <g
     id="g7">
    <polygon
       class="st1"
       points="21.5,31.5 20.5,31.5 11.5,31.5 11.5,40.5 20.5,40.5 21.5,40.5 30.5,40.5 30.5,31.5 "
       id="polygon1" />
    <polygon
       class="st1"
       points="21.5,11.5 20.5,11.5 11.5,11.5 11.5,20.5 20.5,20.5 21.5,20.5 30.5,20.5 30.5,11.5 "
       id="polygon2" />
    <polygon
       class="st1"
       points="40.5,40.5 41.5,40.5 50.5,40.5 50.5,31.5 41.5,31.5 40.5,31.5 31.5,31.5 31.5,40.5 "
       id="polygon3" />
    <polygon
       class="st1"
       points="40.5,10.5 40.5,1.5 31.5,1.5 30.5,1.5 21.5,1.5 21.5,10.5 30.5,10.5 31.5,10.5 "
       id="polygon4" />
    <polygon
       class="st1"
       points="21.5,30.5 30.5,30.5 31.5,30.5 40.5,30.5 40.5,21.5 31.5,21.5 30.5,21.5 21.5,21.5 "
       id="polygon5" />
    <polygon
       class="st1"
       points="21.5,50.5 30.5,50.5 31.5,50.5 40.5,50.5 40.5,41.5 31.5,41.5 30.5,41.5 21.5,41.5 "
       id="polygon6" />
    <polygon
       class="st1"
       points="40.5,20.5 41.5,20.5 50.5,20.5 50.5,11.5 41.5,11.5 40.5,11.5 31.5,11.5 31.5,20.5 "
       id="polygon7" />
    <path
       d="m 10.3,1.5 h 10.2 v 9 H 7.8 l -0.3,1 h 3 v 9 H 5 l -0.3,1 h 15.8 v 9 H 2.2 l -0.3,1 h 8.6 v 9 H 2.7 l 1.3,1 h 16.5 v 9 h -4.7 l 1.3,1 h 13.3 v 9 h -1.5 l 1.3,1 h 1.3 l 1.3,-1 h -1.5 v -9 h 13.4 l 1.3,-1 h -4.7 v -9 h 16.6 l 1.3,-1 h -7.9 v -9 h 8.5 l -0.3,-1 H 41.2 v -9 H 57 l -0.3,-1 h -5.5 v -9 h 3 l -0.3,-1 H 41.2 v -9 H 51.4 L 51,0 h -0.8 v 0.5 h -19 V 0 h -1 V 0.5 H 11.5 V 0 h -0.8 z m 1.2,19 v -9 h 19 v 9 z m 0,20 v -9 h 19 v 9 z m 29,10 h -19 v -9 h 19 z m 10,-19 v 9 h -19 v -9 z m -10,-1 h -19 v -9 h 19 z m 10,-19 v 9 h -19 v -9 z m -20,-10 h 10 v 9 h -19 v -9 z"
       id="path7" />
  </g>
  <path
     d="M 49,3 58.5,37.4 30.9,58.3 3.4,37.3 13,3 H 49.1 M 51.3,0 H 10.7 L 0,38.5 31,62 62,38.5 Z"
     id="path8" />
  <g
     id="g9">
    <polygon
       class="st0"
       points="25.3,43 22.2,35.3 30.6,23.9 34.6,24.8 38.9,30.9 41.8,36.6 37.8,43 34.4,43.9 31,43.9 "
       id="polygon8" />
    <path
       class="st2"
       d="m 31,7.9 c -2.5,4.8 0.4,7.4 -2.7,14.3 -1.8,-1.4 -0.8,-6.6 -4.1,-6.7 0.4,1.7 0.1,2.2 0,2.8 -0.4,2.4 -1.1,4.3 0.4,7.3 -2.3,-1.1 -2.5,-3.2 -4.4,-4.6 0.4,2.2 -0.5,6.9 2.1,11.3 -2.3,-0.3 -3.2,-1.1 -5.6,-3.6 2.6,14 4.7,14.4 14.4,15.3 -0.8,-0.1 -5.8,-1 -7.5,-6.7 0,-1.4 -0.1,1.3 4.7,1.4 -3,-4.9 -2.2,-3.9 -1.9,-6.7 1.4,1.8 0.3,2.1 3.7,3.5 -1.1,-3.6 1.8,-6 1.1,-10.2 0.8,1.8 3.6,1.5 3.4,10.2 2.3,-2.7 2.5,-0.8 3.6,-3.6 0.1,1.5 0.8,3.5 -2.3,6.9 0.8,0.3 2.2,0.4 4.3,-1.1 -2.1,2.5 -0.1,2.5 -5.5,6.4 6.7,0.1 11.1,-4.2 11,-13.6 -0.3,0.8 -0.4,2.5 -4,2.9 2.2,-2.2 3.4,-6.9 1.6,-10.5 -0.7,0.6 -1.6,3.4 -4,4.1 1.1,-2 0.8,-4.5 0.8,-4.5 0,0 0.4,-3.5 -1.6,-6.3 -0.5,4.2 -0.5,6.4 -3.2,7 0.4,-2.4 0.5,-3.6 -0.8,-6.4 -1.4,-2.9 -3,-5.9 -3.3,-8.7 z"
       id="path9" />
  </g>
</svg>
