<?xml version="1.0" encoding="UTF-8" standalone="no"?>
<!-- Generator: Adobe Illustrator 29.4.0, SVG Export Plug-In . SVG Version: 9.03 Build 0)  -->

<svg
   version="1.1"
   id="Layer_1"
   x="0px"
   y="0px"
   viewBox="0 0 43.991512 40.1"
   xml:space="preserve"
   sodipodi:docname="poi023_c.svg"
   width="43.991512"
   height="40.099998"
   inkscape:version="1.3.2 (091e20e, 2023-11-25, custom)"
   xmlns:inkscape="http://www.inkscape.org/namespaces/inkscape"
   xmlns:sodipodi="http://sodipodi.sourceforge.net/DTD/sodipodi-0.dtd"
   xmlns="http://www.w3.org/2000/svg"
   xmlns:svg="http://www.w3.org/2000/svg"><defs
   id="defs7" /><sodipodi:namedview
   id="namedview7"
   pagecolor="#ffffff"
   bordercolor="#000000"
   borderopacity="0.25"
   inkscape:showpageshadow="2"
   inkscape:pageopacity="0.0"
   inkscape:pagecheckerboard="0"
   inkscape:deskcolor="#d1d1d1"
   inkscape:zoom="45.361598"
   inkscape:cx="22.000989"
   inkscape:cy="20.049999"
   inkscape:window-width="3840"
   inkscape:window-height="2054"
   inkscape:window-x="2869"
   inkscape:window-y="-11"
   inkscape:window-maximized="1"
   inkscape:current-layer="Layer_1" />
<path
   style="fill:#ffffff"
   d="M 42.8,14.7 19.1,0.4 C 18.7,0.2 18.2,0 17.8,0 16.9,0 16.1,0.5 15.6,1.2 15.4,1.6 15.2,2 15.2,2.5 V 8.3 C 14.5,4.7 11.4,2 7.6,2 3.8,2 0,5.5 0,9.7 c 0,4.2 3.5,7.7 7.7,7.7 4.2,0 6.9,-2.7 7.6,-6.3 V 25.6 C 14.6,22 11.5,19.3 7.7,19.3 3.9,19.3 0,22.8 0,27 c 0,4.2 3.5,7.7 7.7,7.7 4.2,0 6.9,-2.7 7.6,-6.3 v 9.1 c 0,0.7 0.3,1.3 0.7,1.8 0.5,0.5 1.1,0.8 1.8,0.8 v 0 c 0.7,0 1.3,-0.2 1.7,-0.7 L 43.1,18.8 c 1.1,-0.9 1.2,-2.5 0.2,-3.6 -0.2,-0.2 -0.4,-0.4 -0.6,-0.5 z"
   id="path1" />
<g
   id="g4">
	<path
   style="fill:#0056a4"
   d="m 13.4,9.7 c 0,3.2 -2.6,5.7 -5.7,5.7 C 4.6,15.4 2,12.9 2,9.7 2,6.5 4.6,4 7.7,4 c 3.1,0 5.7,2.6 5.7,5.7 z"
   id="path2" />
	<path
   style="fill:#0056a4"
   d="m 13.4,27 c 0,3.2 -2.6,5.7 -5.7,5.7 C 4.6,32.7 2,30.1 2,27 c 0,-3.1 2.6,-5.7 5.7,-5.7 3.1,0 5.7,2.6 5.7,5.7 z"
   id="path3" />
	<path
   style="fill:#0056a4"
   d="m 17.3,2.5 v 35 c 0,0.3 0.2,0.5 0.5,0.6 0.1,0 0.3,0 0.4,-0.1 L 41.8,17.3 c 0.2,-0.2 0.3,-0.5 0,-0.8 0,0 0,0 -0.1,-0.1 L 18.1,2.1 c -0.3,-0.2 -0.6,0 -0.7,0.2 0,0 0,0.2 0,0.3 v 0 z"
   id="path4" />
</g>
<g
   id="g7">
	<path
   style="fill:#0056a4"
   d="m 13.4,9.7 c 0,3.2 -2.6,5.7 -5.7,5.7 C 4.6,15.4 2,12.9 2,9.7 2,6.5 4.6,4 7.7,4 c 3.1,0 5.7,2.6 5.7,5.7 z"
   id="path5" />
	<path
   style="fill:#0056a4"
   d="m 13.4,27 c 0,3.2 -2.6,5.7 -5.7,5.7 C 4.6,32.7 2,30.1 2,27 c 0,-3.1 2.6,-5.7 5.7,-5.7 3.1,0 5.7,2.6 5.7,5.7 z"
   id="path6" />
	<path
   style="fill:#0056a4"
   d="m 17.3,2.5 v 35 c 0,0.3 0.2,0.5 0.5,0.6 0.1,0 0.3,0 0.4,-0.1 L 41.8,17.3 c 0.2,-0.2 0.3,-0.5 0,-0.8 0,0 0,0 -0.1,-0.1 L 18.1,2.1 c -0.3,-0.2 -0.6,0 -0.7,0.2 0,0 0,0.2 0,0.3 v 0 z"
   id="path7" />
</g>
</svg>
