<?xml version="1.0" encoding="UTF-8" standalone="no"?>
<!-- Generator: Adobe Illustrator 29.4.0, SVG Export Plug-In . SVG Version: 9.03 Build 0)  -->

<svg
   version="1.1"
   id="Layer_1"
   x="0px"
   y="0px"
   viewBox="0 0 21.6 51.4"
   xml:space="preserve"
   sodipodi:docname="wwn002_c.svg"
   width="21.6"
   height="51.400002"
   inkscape:version="1.3.2 (091e20e, 2023-11-25, custom)"
   xmlns:inkscape="http://www.inkscape.org/namespaces/inkscape"
   xmlns:sodipodi="http://sodipodi.sourceforge.net/DTD/sodipodi-0.dtd"
   xmlns="http://www.w3.org/2000/svg"
   xmlns:svg="http://www.w3.org/2000/svg"><defs
   id="defs2" /><sodipodi:namedview
   id="namedview2"
   pagecolor="#ffffff"
   bordercolor="#000000"
   borderopacity="0.25"
   inkscape:showpageshadow="2"
   inkscape:pageopacity="0.0"
   inkscape:pagecheckerboard="0"
   inkscape:deskcolor="#d1d1d1"
   inkscape:zoom="35.389104"
   inkscape:cx="10.794283"
   inkscape:cy="25.700001"
   inkscape:window-width="3840"
   inkscape:window-height="2054"
   inkscape:window-x="2869"
   inkscape:window-y="-11"
   inkscape:window-maximized="1"
   inkscape:current-layer="Layer_1" />
<path
   style="fill:#ffffff"
   d="m 13,6.2 c 1.1,0 2,-0.9 2,-2 V 2 C 15,0.9 14.1,0 13,0 H 2 C 1.5,0 1,0.2 0.6,0.6 0.2,1 0,1.5 0,2 v 2.2 c 0,1.1 0.9,2 2,2 v 0.4 c -1.1,0 -2,0.9 -2,2 v 11 0 l 1.2,28.3 c 0,0.8 0.4,2.1 2.6,2.9 1,0.4 2.3,0.6 3.7,0.6 3.8,0 6.3,-1.4 6.3,-3.5 l 0.9,-22 c 0.1,0 0.3,0 0.5,0 h 4.4 c 1.1,0 2,-0.9 2,-2 v -2.2 c 0,-1.1 -0.9,-2 -2,-2 h -0.2 v -0.4 h 0.2 c 1.1,0 2,-0.9 2,-2 v -2.2 c 0,-1.1 -0.9,-2 -2,-2 h -4.4 c 0,0 -0.1,0 -0.2,0 V 8.5 C 15,8 14.8,7.5 14.4,7.1 14,6.7 13.5,6.5 13,6.5 V 6.1 Z"
   id="path1" />
<g
   id="g2">
	<path
   style="clip-rule:evenodd;fill:#29abe2;fill-rule:evenodd"
   d="M 17.4,17.4 H 13 V 8.6 H 8.6 V 4.2 H 13 V 2 H 2 V 4.2 H 6 V 8.6 H 2 v 11 l 1.2,28.3 v 0 c 0,0.8 1.9,1.5 4.3,1.5 2.4,0 4.3,-0.7 4.3,-1.5 l 1.1,-26.1 h 2.3 V 24 h 4.4 v -2.2 h -2.2 c 0,0 0,-4.4 0,-4.4 z"
   id="path2" />
	<rect
   x="15.2"
   y="15.2"
   style="fill:#29abe2"
   width="4.4000001"
   height="2.2"
   id="rect2" />
</g>
</svg>
