<?xml version="1.0" encoding="UTF-8" standalone="no"?>
<!-- Generator: Adobe Illustrator 29.4.0, SVG Export Plug-In . SVG Version: 9.03 Build 0)  -->

<svg
   version="1.1"
   id="Layer_1"
   x="0px"
   y="0px"
   viewBox="0 0 49.4 36.2"
   xml:space="preserve"
   sodipodi:docname="wwn011_c.svg"
   width="49.400002"
   height="36.200001"
   inkscape:version="1.3.2 (091e20e, 2023-11-25, custom)"
   xmlns:inkscape="http://www.inkscape.org/namespaces/inkscape"
   xmlns:sodipodi="http://sodipodi.sourceforge.net/DTD/sodipodi-0.dtd"
   xmlns="http://www.w3.org/2000/svg"
   xmlns:svg="http://www.w3.org/2000/svg"><defs
   id="defs22" /><sodipodi:namedview
   id="namedview22"
   pagecolor="#ffffff"
   bordercolor="#000000"
   borderopacity="0.25"
   inkscape:showpageshadow="2"
   inkscape:pageopacity="0.0"
   inkscape:pagecheckerboard="0"
   inkscape:deskcolor="#d1d1d1"
   inkscape:zoom="50.248618"
   inkscape:cx="24.697197"
   inkscape:cy="18.1"
   inkscape:window-width="3840"
   inkscape:window-height="2054"
   inkscape:window-x="2869"
   inkscape:window-y="-11"
   inkscape:window-maximized="1"
   inkscape:current-layer="Layer_1" />
<path
   style="fill:#ffffff"
   d="M 27.9,36.2 C 15.6,36.2 6.4,30.7 6.4,23.5 6.4,16.3 6.9,20.3 7.8,18.9 2.9,17 0,13.9 0,10.4 0,4.6 8.3,0 18.9,0 c 10.6,0 18.9,4.6 18.9,10.4 0,5.8 0,1.1 -0.2,1.7 7.3,2.1 11.8,6.4 11.8,11.4 0,7.2 -9.2,12.7 -21.5,12.7 z"
   id="path1" />
<path
   style="fill:#0071bb;stroke:#000000;stroke-width:4;stroke-miterlimit:10"
   d="M 29.2,24.5"
   id="path2" />
<g
   id="g22">
	<ellipse
   style="fill:#404040;stroke:#000000;stroke-width:2;stroke-miterlimit:10"
   cx="27.9"
   cy="23.5"
   rx="18.5"
   ry="9.6999998"
   id="ellipse2" />
	<g
   id="g21">
		<path
   style="fill:#ffffff"
   d="m 18.9,18.4 c -8.8,0 -16,-3.6 -16,-8 0,-4.4 7.2,-8 16,-8 8.8,0 16,3.6 16,8 0,4.4 -7.2,8 -16,8 z"
   id="path3" />
		<ellipse
   style="fill:#00af6b"
   cx="18.9"
   cy="10.4"
   rx="3.4000001"
   ry="1.7"
   id="ellipse3" />
		<path
   style="fill:#00af6b"
   d="M 18.9,18.8 C 9.6,18.8 2,15 2,10.4 2,5.8 9.6,2 18.9,2 c 9.3,0 16.9,3.8 16.9,8.4 0,4.6 -7.6,8.4 -16.9,8.4 z m 0,-15.6 C 11,3.2 4.6,6.4 4.6,10.4 c 0,4 6.4,7.2 14.3,7.2 7.9,0 14.3,-3.2 14.3,-7.2 0,-4 -6.4,-7.2 -14.3,-7.2 z"
   id="path4" />
		<g
   id="g20">
			<path
   style="fill:#00af6b"
   d="m 28.9,11 c -0.2,0.9 -1,1.8 -2,2.5 l 1.8,0.9 c 1.5,-0.9 2.5,-2.1 2.8,-3.4 z"
   id="path5" />
			<path
   style="fill:#00af6b"
   d="M 8.9,11 H 6.3 c 0.3,1.3 1.3,2.4 2.8,3.4 l 1.8,-0.9 C 9.8,12.8 9.1,12 8.9,11 Z"
   id="path6" />
			<path
   style="fill:#00af6b"
   d="m 12.7,14.4 -1.8,0.9 c 1.9,0.8 4.2,1.3 6.7,1.4 v -1.3 c -1.8,0 -3.5,-0.5 -4.9,-1 z"
   id="path7" />
			<path
   style="fill:#00af6b"
   d="m 28.9,9.8 h 2.6 C 31.2,8.5 30.2,7.4 28.7,6.4 l -1.8,0.9 c 1.1,0.7 1.8,1.5 2,2.5 z"
   id="path8" />
			<path
   style="fill:#00af6b"
   d="m 20.2,15.4 v 1.3 c 2.5,0 4.9,-0.6 6.7,-1.4 l -1.8,-0.9 c -1.4,0.5 -3.1,0.9 -4.9,1 z"
   id="path9" />
			<path
   style="fill:#00af6b"
   d="M 17.6,5.4 V 4.1 c -2.5,0.1 -4.9,0.6 -6.7,1.4 l 1.8,0.9 c 1.4,-0.5 3.1,-0.9 4.9,-1 z"
   id="path10" />
			<path
   style="fill:#00af6b"
   d="M 10.9,7.3 9.1,6.4 C 7.6,7.3 6.6,8.5 6.3,9.8 h 2.6 c 0.2,-0.9 1,-1.8 2,-2.5 z"
   id="path11" />
			<path
   style="fill:#00af6b"
   d="M 25.1,6.4 26.9,5.5 C 25,4.7 22.7,4.2 20.2,4.1 v 1.3 c 1.8,0.1 3.5,0.5 4.9,1 z"
   id="path12" />
			<path
   style="fill:#00af6b"
   d="m 16,12.7 -1.8,0.9 c 1,0.4 2.2,0.6 3.4,0.7 V 13 C 17,13 16.5,12.8 16,12.7 Z"
   id="path13" />
			<path
   style="fill:#00af6b"
   d="M 21.8,8.1 23.6,7.2 C 22.6,6.8 21.4,6.6 20.2,6.5 v 1.3 c 0.6,0 1.1,0.2 1.6,0.3 z"
   id="path14" />
			<path
   style="fill:#00af6b"
   d="M 17.6,7.7 V 6.4 C 16.3,6.5 15.2,6.7 14.2,7.1 L 16,8 c 0.5,-0.2 1,-0.3 1.6,-0.3 z"
   id="path15" />
			<path
   style="fill:#00af6b"
   d="m 23.5,9 c 0.3,0.2 0.5,0.5 0.7,0.8 h 2.6 C 26.6,9.2 26.1,8.6 25.4,8.1 L 23.6,9 v 0 z"
   id="path16" />
			<path
   style="fill:#00af6b"
   d="m 20.2,13.1 v 1.3 c 1.3,0 2.4,-0.3 3.4,-0.7 l -1.8,-0.9 c -0.5,0.2 -1,0.3 -1.6,0.3 z"
   id="path17" />
			<path
   style="fill:#00af6b"
   d="M 14.2,9 12.4,8.1 C 11.7,8.6 11.2,9.2 11,9.8 h 2.6 C 13.7,9.5 14,9.2 14.3,9 Z"
   id="path18" />
			<path
   style="fill:#00af6b"
   d="m 23.5,11.8 1.8,0.9 C 26,12.2 26.5,11.6 26.7,11 h -2.6 c 0,0.3 -0.4,0.6 -0.7,0.8 v 0 z"
   id="path19" />
			<path
   style="fill:#00af6b"
   d="M 13.6,11 H 11 c 0.2,0.6 0.7,1.2 1.4,1.7 l 1.8,-0.9 C 13.9,11.6 13.7,11.3 13.5,11 Z"
   id="path20" />
		</g>
	</g>
</g>
</svg>
