<?xml version="1.0" encoding="UTF-8" standalone="no"?>
<svg
   id="Layer_1"
   version="1.1"
   viewBox="0 0 62 62"
   sodipodi:docname="wwn012_b.svg"
   width="62"
   height="62"
   inkscape:version="1.3.2 (091e20e, 2023-11-25, custom)"
   xmlns:inkscape="http://www.inkscape.org/namespaces/inkscape"
   xmlns:sodipodi="http://sodipodi.sourceforge.net/DTD/sodipodi-0.dtd"
   xmlns="http://www.w3.org/2000/svg"
   xmlns:svg="http://www.w3.org/2000/svg">
  <sodipodi:namedview
     id="namedview2"
     pagecolor="#ffffff"
     bordercolor="#000000"
     borderopacity="0.25"
     inkscape:showpageshadow="2"
     inkscape:pageopacity="0.0"
     inkscape:pagecheckerboard="0"
     inkscape:deskcolor="#d1d1d1"
     inkscape:zoom="29.33871"
     inkscape:cx="30.982958"
     inkscape:cy="31"
     inkscape:window-width="3840"
     inkscape:window-height="2054"
     inkscape:window-x="2869"
     inkscape:window-y="-11"
     inkscape:window-maximized="1"
     inkscape:current-layer="Layer_1" />
  <!-- Generator: Adobe Illustrator 29.3.1, SVG Export Plug-In . SVG Version: 2.1.0 Build 151)  -->
  <defs
     id="defs1">
    <style
       id="style1">
      .st0, .st1 {
        fill: #00af6b;
      }

      .st1 {
        fill-rule: evenodd;
      }
    </style>
  </defs>
  <path
     d="M 31,3 C 46.4,3 59,15.6 59,31 59,46.4 46.4,59 31,59 15.6,59 3,46.4 3,31 3,15.6 15.6,3 31,3 M 31,0 C 13.9,0 0,13.9 0,31 0,48.1 13.9,62 31,62 48.1,62 62,48.1 62,31 62,13.9 48.1,0 31,0 Z"
     id="path1" />
  <g
     id="g2">
    <path
       class="st1"
       d="m 41,23.4 h -4.4 v -8.8 h -4.4 v -4.4 h 4.4 V 8 h -11 v 2.2 h 4 v 4.4 h -4 v 11 l 1.2,28.3 v 0 c 0,0.8 1.9,1.5 4.3,1.5 2.4,0 4.3,-0.7 4.3,-1.5 l 1.1,-26.1 h 2.3 V 30 h 4.4 V 27.8 H 41 Z"
       id="path2" />
    <rect
       class="st0"
       x="38.799999"
       y="21.200001"
       width="4.4000001"
       height="2.2"
       id="rect2" />
  </g>
</svg>
