<?xml version="1.0" encoding="UTF-8" standalone="no"?>
<!-- Generator: Adobe Illustrator 29.4.0, SVG Export Plug-In . SVG Version: 9.03 Build 0)  -->

<svg
   version="1.1"
   id="Layer_1"
   x="0px"
   y="0px"
   viewBox="0 0 66 66"
   xml:space="preserve"
   sodipodi:docname="wwn009_a.svg"
   width="66"
   height="66"
   inkscape:version="1.3.2 (091e20e, 2023-11-25, custom)"
   xmlns:inkscape="http://www.inkscape.org/namespaces/inkscape"
   xmlns:sodipodi="http://sodipodi.sourceforge.net/DTD/sodipodi-0.dtd"
   xmlns="http://www.w3.org/2000/svg"
   xmlns:svg="http://www.w3.org/2000/svg"><defs
   id="defs4" /><sodipodi:namedview
   id="namedview4"
   pagecolor="#ffffff"
   bordercolor="#000000"
   borderopacity="0.25"
   inkscape:showpageshadow="2"
   inkscape:pageopacity="0.0"
   inkscape:pagecheckerboard="0"
   inkscape:deskcolor="#d1d1d1"
   inkscape:zoom="27.560606"
   inkscape:cx="32.981858"
   inkscape:cy="33"
   inkscape:window-width="3840"
   inkscape:window-height="2054"
   inkscape:window-x="2869"
   inkscape:window-y="-11"
   inkscape:window-maximized="1"
   inkscape:current-layer="Layer_1" />
<g
   id="g4">
	<path
   style="fill:#ffffff"
   d="M 33,0 C 14.8,0 0,14.8 0,33 0,51.2 14.8,66 33,66 51.2,66 66,51.2 66,33 66,14.8 51.2,0 33,0 Z"
   id="path1" />
	<g
   id="g3">
		<path
   style="fill:#29abe2"
   d="M 19.385,47.391 C 19.783,47.349 19.9,47.3 20.4,46.8 c 0.7,-0.5 1.7,-1.3 3.5,-1.3 1.8,0 2.8,0.8 3.5,1.3 0.5,0.4 0.6,0.5 1,0.5 0.4,0 0.5,0 1,-0.5 0.7,-0.5 1.7,-1.3 3.5,-1.3 1.8,0 2.8,0.8 3.5,1.3 0.5,0.4 0.6,0.5 1,0.5 0.4,0 0,0 0,0 v -7 c 0,-1 0.8,-1.7 1.7,-1.7 h 21.911 c 0.4,-1.8 0.5,-3.6 0.5,-5.5 0,-5.3 -1.5,-10.3 -4.1,-14.5 H 39 c -12,0 -21.7,9.8 -21.7,21.7 v 6 c 0.3,0.2 0.6,0.4 0.9,0.6 0.5,0.4 0.807,0.531 1.185,0.491 z M 24.6,40.2 c 0,-7.6 5.8,-13.9 13.2,-14.7 V 24 c 0,-0.4 0.4,-0.7 0.8,-0.5 l 7.7,4.4 c 0.4,0.2 0.4,0.7 0,0.9 l -7.7,4.5 c -0.4,0.2 -0.8,0 -0.8,-0.5 v -1.4 c -4.1,0.7 -7.2,4.3 -7.2,8.6 v 4.5 h -6 V 40 Z"
   id="path2" />
		<path
   style="fill:#29abe2"
   d="m 50.9,47.5 c -2.3,0 -2.3,1.8 -4.5,1.8 -2.2,0 -2.3,-1.8 -4.5,-1.8 -2.2,0 -2.3,1.8 -4.5,1.8 -2.2,0 -2.3,-1.8 -4.5,-1.8 -2.2,0 -2.3,1.8 -4.5,1.8 -2.2,0 -2.3,-1.8 -4.5,-1.8 -2.2,0 -2.3,1.8 -4.5,1.8 -2.2,0 -2.3,-1.8 -4.5,-1.8 -2.2,0 -2.3,1.8 -4.5,1.8 -0.125,0 -0.1,0 -0.2,0 5.1,7.1 13.4,11.8 22.8,11.8 9.4,0 17.7,-4.6 22.8,-11.8 0,0 -0.1,0 -0.2,0 -2.3,0 -2.3,-1.8 -4.5,-1.8 z"
   id="path3" />
	</g>
	<path
   d="M 33,5 C 48.4,5 61,17.6 61,33 61,48.4 48.4,61 33,61 17.6,61 5,48.4 5,33 5,17.6 17.6,5 33,5 M 33,2 C 15.9,2 2,15.9 2,33 2,50.1 15.9,64 33,64 50.1,64 64,50.1 64,33 64,15.9 50.1,2 33,2 Z"
   id="path4" />
</g>
</svg>
