<?xml version="1.0" encoding="UTF-8" standalone="no"?>
<!-- Generator: Adobe Illustrator 29.4.0, SVG Export Plug-In . SVG Version: 9.03 Build 0)  -->

<svg
   version="1.1"
   id="Layer_1"
   x="0px"
   y="0px"
   viewBox="0 0 60.005645 33.8"
   xml:space="preserve"
   sodipodi:docname="wwn017_c.svg"
   width="60.005646"
   height="33.799999"
   inkscape:version="1.3.2 (091e20e, 2023-11-25, custom)"
   xmlns:inkscape="http://www.inkscape.org/namespaces/inkscape"
   xmlns:sodipodi="http://sodipodi.sourceforge.net/DTD/sodipodi-0.dtd"
   xmlns="http://www.w3.org/2000/svg"
   xmlns:svg="http://www.w3.org/2000/svg"><defs
   id="defs2" /><sodipodi:namedview
   id="namedview2"
   pagecolor="#ffffff"
   bordercolor="#000000"
   borderopacity="0.25"
   inkscape:showpageshadow="2"
   inkscape:pageopacity="0.0"
   inkscape:pagecheckerboard="0"
   inkscape:deskcolor="#d1d1d1"
   inkscape:zoom="53.76129"
   inkscape:cx="30.003"
   inkscape:cy="16.898776"
   inkscape:window-width="3840"
   inkscape:window-height="2054"
   inkscape:window-x="2869"
   inkscape:window-y="-11"
   inkscape:window-maximized="1"
   inkscape:current-layer="Layer_1" />
<path
   style="fill:#ffffff"
   d="M 59.937,1.908 C 59.842,1.126 59.297,0.472 58.545,0.239 58.108,0.103 57.358,0 56.8,0 54.936,0 53.918,0.814 53.244,1.353 52.766,1.736 52.676,1.8 52.3,1.8 51.904,1.8 51.783,1.717 51.282,1.325 50.609,0.797 49.59,0 47.8,0 46.01,0 44.991,0.797 44.318,1.325 43.817,1.717 43.697,1.8 43.3,1.8 42.903,1.8 42.783,1.717 42.282,1.325 41.609,0.797 40.59,0 38.8,0 37.01,0 35.991,0.797 35.318,1.325 34.817,1.717 34.697,1.8 34.3,1.8 33.903,1.8 33.783,1.717 33.282,1.325 32.609,0.797 31.589,0 29.8,0 28.011,0 26.992,0.797 26.318,1.325 25.816,1.717 25.697,1.8 25.3,1.8 24.904,1.8 24.784,1.717 24.283,1.325 23.608,0.797 22.589,0 20.8,0 19.011,0 17.992,0.797 17.318,1.325 16.816,1.717 16.697,1.8 16.3,1.8 15.904,1.8 15.784,1.717 15.283,1.325 14.608,0.797 13.589,0 11.8,0 10.011,0 8.992,0.797 8.318,1.325 7.816,1.717 7.697,1.8 7.3,1.8 6.904,1.8 6.784,1.717 6.283,1.325 5.608,0.797 4.589,0 2.8,0 2.119,0 1.567,0.096 1.159,0.285 0.452,0.613 0,1.321 0,2.1 v 1.7 c 0,16.542 13.458,30 30,30 16.542,0 30,-13.458 30,-29.947 0.003,-0.12 0.029,-1.192 -0.063,-1.945 z"
   id="path1" />
<path
   style="fill:#00af6b"
   d="M 57.951,2.148 C 57.751,2.148 57.2,2 56.8,2 54.5,2 54.5,3.8 52.3,3.8 50.1,3.8 50,2 47.8,2 45.6,2 45.5,3.8 43.3,3.8 41.1,3.8 41,2 38.8,2 36.6,2 36.5,3.8 34.3,3.8 32.1,3.8 32,2 29.8,2 27.6,2 27.5,3.8 25.3,3.8 23.1,3.8 23,2 20.8,2 18.6,2 18.5,3.8 16.3,3.8 14.1,3.8 14,2 11.8,2 9.6,2 9.5,3.8 7.3,3.8 5.1,3.8 5,2 2.8,2 2.215,2 2,2.1 2,2.1 c 0,0.6 0,1.1 0,1.7 0,15.5 12.5,28 28,28 15.5,0 28,-12.5 28,-28 0,0 0.028,-1.023 -0.049,-1.652 z"
   id="path2" />
</svg>
