<?xml version="1.0" encoding="UTF-8" standalone="no"?>
<!-- Generator: Adobe Illustrator 29.4.0, SVG Export Plug-In . SVG Version: 9.03 Build 0)  -->

<svg
   version="1.1"
   id="Layer_1"
   x="0px"
   y="0px"
   viewBox="0 0 34 41"
   xml:space="preserve"
   sodipodi:docname="wwn003_c.svg"
   width="34"
   height="41"
   inkscape:version="1.3.2 (091e20e, 2023-11-25, custom)"
   xmlns:inkscape="http://www.inkscape.org/namespaces/inkscape"
   xmlns:sodipodi="http://sodipodi.sourceforge.net/DTD/sodipodi-0.dtd"
   xmlns="http://www.w3.org/2000/svg"
   xmlns:svg="http://www.w3.org/2000/svg"><defs
   id="defs3" /><sodipodi:namedview
   id="namedview3"
   pagecolor="#ffffff"
   bordercolor="#000000"
   borderopacity="0.25"
   inkscape:showpageshadow="2"
   inkscape:pageopacity="0.0"
   inkscape:pagecheckerboard="0"
   inkscape:deskcolor="#d1d1d1"
   inkscape:zoom="44.365854"
   inkscape:cx="16.995052"
   inkscape:cy="20.5"
   inkscape:window-width="3840"
   inkscape:window-height="2054"
   inkscape:window-x="2869"
   inkscape:window-y="-11"
   inkscape:window-maximized="1"
   inkscape:current-layer="Layer_1" />
<path
   style="fill:#ffffff"
   d="m 34,12 c 0,-1.1 -0.9,-2 -2,-2 H 24 C 26.3,9.4 28,7.4 28,5 28,2.6 25.8,0 23,0 20.2,0 21,0.3 20.1,0.9 H 13.9 C 13.1,0.3 12.1,0 11,0 8.2,0 6,2.2 6,5 c 0,2.8 2.2,5 5,5 2.8,0 1.4,-0.1 2,-0.4 V 11 C 8.2,13 5,17.7 5,23 v 8.8 c -3.3,0.9 -5,2.3 -5,4.2 0,4.8 10,5 12,5 2,0 12,-0.2 12,-5 0,-4.8 -1.7,-3.3 -5,-4.2 V 24 h 13 c 1.1,0 2,-0.9 2,-2 z"
   id="path1" />
<g
   id="g3">
	<path
   style="fill:#29abe2"
   d="M 29,19 V 15 H 24 V 12 H 19 V 7 h 1.8 C 21.3,7.6 22.1,8 23,8 24.7,8 26,6.7 26,5 26,3.3 24.7,2 23,2 21.3,2 21.4,2.4 20.8,2.9 H 13.1 C 12.6,2.3 11.8,2 10.9,2 c -1.7,0 -3,1.3 -3,3 0,1.7 1.3,3 3,3 1.7,0 1.7,-0.4 2.2,-1 h 1.8 v 5.4 c -4.6,1.3 -8,5.5 -8,10.6 v 12 c 2.1,0.9 3.9,1 5,1 2.2,0 4,-0.6 5,-1 V 23 c 0,-0.6 0.4,-1 1,-1 h 6 v -3 h 5 z"
   id="path2" />
	<rect
   x="26"
   y="12"
   style="fill:#29abe2"
   width="6"
   height="3"
   id="rect2" />
	<rect
   x="26"
   y="19"
   style="fill:#29abe2"
   width="6"
   height="3"
   id="rect3" />
	<path
   style="fill:#29abe2"
   d="m 18,33.6 v 2.1 L 17.4,36 C 15.7,36.7 13.9,37.1 12,37.1 10.1,37.1 8.3,36.7 6.6,36 L 6,35.7 V 33.6 C 3.6,34.1 2,35 2,36 c 0,1.7 4.5,3 10,3 5.5,0 10,-1.3 10,-3 0,-1.7 -1.6,-1.8 -4,-2.4 z"
   id="path3" />
</g>
</svg>
