<?xml version="1.0" encoding="UTF-8" standalone="no"?>
<svg
   id="Layer_1"
   version="1.1"
   viewBox="0 0 66 66"
   sodipodi:docname="wwn002_a.svg"
   width="66"
   height="66"
   inkscape:version="1.3.2 (091e20e, 2023-11-25, custom)"
   xmlns:inkscape="http://www.inkscape.org/namespaces/inkscape"
   xmlns:sodipodi="http://sodipodi.sourceforge.net/DTD/sodipodi-0.dtd"
   xmlns="http://www.w3.org/2000/svg"
   xmlns:svg="http://www.w3.org/2000/svg">
  <sodipodi:namedview
     id="namedview8"
     pagecolor="#ffffff"
     bordercolor="#000000"
     borderopacity="0.25"
     inkscape:showpageshadow="2"
     inkscape:pageopacity="0.0"
     inkscape:pagecheckerboard="0"
     inkscape:deskcolor="#d1d1d1"
     inkscape:zoom="27.560606"
     inkscape:cx="32.981858"
     inkscape:cy="33"
     inkscape:window-width="3840"
     inkscape:window-height="2054"
     inkscape:window-x="2869"
     inkscape:window-y="-11"
     inkscape:window-maximized="1"
     inkscape:current-layer="Layer_1" />
  <!-- Generator: Adobe Illustrator 29.3.1, SVG Export Plug-In . SVG Version: 2.1.0 Build 151)  -->
  <defs
     id="defs1">
    <style
       id="style1">
      .st0 {
        fill: #29abe2;
      }

      .st1, .st2 {
        fill: #fff;
      }

      .st2 {
        fill-rule: evenodd;
      }
    </style>
  </defs>
  <g
     id="g3">
    <path
       class="st0"
       d="M 33,62.5 C 16.7,62.5 3.5,49.3 3.5,33 3.5,16.7 16.7,3.5 33,3.5 49.3,3.5 62.5,16.7 62.5,33 62.5,49.3 49.3,62.5 33,62.5 Z"
       id="path1" />
    <path
       d="M 33,5 C 48.4,5 61,17.6 61,33 61,48.4 48.4,61 33,61 17.6,61 5,48.4 5,33 5,17.6 17.6,5 33,5 M 33,2 C 15.9,2 2,15.9 2,33 2,50.1 15.9,64 33,64 50.1,64 64,50.1 64,33 64,15.9 50.1,2 33,2 Z"
       id="path2" />
    <path
       class="st1"
       d="M 33,2 C 50.1,2 64,15.9 64,33 64,50.1 50.1,64 33,64 15.9,64 2,50.1 2,33 2,15.9 15.9,2 33,2 M 33,0 C 14.8,0 0,14.8 0,33 0,51.2 14.8,66 33,66 51.2,66 66,51.2 66,33 66,14.8 51.2,0 33,0 Z"
       id="path3" />
  </g>
  <g
     id="g8">
    <rect
       class="st1"
       x="31.6"
       y="10.1"
       width="2.5999999"
       height="8.8000002"
       id="rect3" />
    <rect
       class="st1"
       x="27.6"
       y="10.1"
       width="11"
       height="2.2"
       id="rect4" />
    <rect
       class="st1"
       x="36.400002"
       y="25.4"
       width="6.5999999"
       height="4.4000001"
       id="rect5" />
    <rect
       class="st1"
       x="40.799999"
       y="23.200001"
       width="4.4000001"
       height="2.2"
       id="rect6" />
    <rect
       class="st1"
       x="40.799999"
       y="29.799999"
       width="4.4000001"
       height="2.2"
       id="rect7" />
    <polygon
       class="st2"
       points="28.8,55.9 37.4,55.9 38.6,27.6 27.6,27.6 "
       id="polygon7" />
    <rect
       class="st1"
       x="27.6"
       y="16.700001"
       width="11"
       height="11"
       id="rect8" />
    <ellipse
       class="st1"
       cx="33.099998"
       cy="55.900002"
       rx="4.3000002"
       ry="1.5"
       id="ellipse8" />
  </g>
</svg>
