<?xml version="1.0" encoding="UTF-8" standalone="no"?>
<!-- Generator: Adobe Illustrator 29.4.0, SVG Export Plug-In . SVG Version: 9.03 Build 0)  -->

<svg
   version="1.1"
   id="Layer_1"
   x="0px"
   y="0px"
   viewBox="0 0 49.3 36.3"
   xml:space="preserve"
   sodipodi:docname="wwn001_c.svg"
   width="49.299999"
   height="36.299999"
   inkscape:version="1.3.2 (091e20e, 2023-11-25, custom)"
   xmlns:inkscape="http://www.inkscape.org/namespaces/inkscape"
   xmlns:sodipodi="http://sodipodi.sourceforge.net/DTD/sodipodi-0.dtd"
   xmlns="http://www.w3.org/2000/svg"
   xmlns:svg="http://www.w3.org/2000/svg"><defs
   id="defs23" /><sodipodi:namedview
   id="namedview23"
   pagecolor="#ffffff"
   bordercolor="#000000"
   borderopacity="0.25"
   inkscape:showpageshadow="2"
   inkscape:pageopacity="0.0"
   inkscape:pagecheckerboard="0"
   inkscape:deskcolor="#d1d1d1"
   inkscape:zoom="50.110194"
   inkscape:cx="24.645684"
   inkscape:cy="18.15"
   inkscape:window-width="3840"
   inkscape:window-height="2054"
   inkscape:window-x="2869"
   inkscape:window-y="-11"
   inkscape:window-maximized="1"
   inkscape:current-layer="Layer_1" />
<path
   style="fill:#ffffff"
   d="M 37.6,12.1 C 37.8,11.5 37.8,11 37.8,10.4 37.8,4.6 29.5,0 18.9,0 8.3,0 0,4.6 0,10.4 c 0,5.8 2.9,6.6 7.7,8.5 -0.9,1.5 -1.4,3 -1.4,4.7 0,7.2 9.3,12.7 21.5,12.7 12.2,0 21.5,-5.5 21.5,-12.7 0,-7.2 -4.6,-9.4 -11.9,-11.4 h 0.2 z"
   id="path1" />
<g
   id="g23">
	<path
   style="fill:#0071bb;stroke:#000000;stroke-width:4;stroke-miterlimit:10"
   d="M 28.9,24.3"
   id="path2" />
	<g
   id="g22">
		<ellipse
   style="fill:#404040;stroke:#000000;stroke-width:2;stroke-miterlimit:10"
   cx="27.6"
   cy="23.299999"
   rx="18.5"
   ry="9.6999998"
   id="ellipse2" />
		<g
   id="g21">
			<path
   style="fill:#ffffff"
   d="m 18.6,18.2 c -8.8,0 -16,-3.6 -16,-8 0,-4.4 7.2,-8 16,-8 8.8,0 16,3.6 16,8 0,4.4 -7.2,8 -16,8 z"
   id="path3" />
			<ellipse
   style="fill:#29abe2"
   cx="18.6"
   cy="10.2"
   rx="3.4000001"
   ry="1.7"
   id="ellipse3" />
			<path
   style="fill:#29abe2"
   d="M 18.6,18.6 C 9.3,18.6 1.7,14.8 1.7,10.2 1.7,5.6 9.3,1.8 18.6,1.8 c 9.3,0 16.9,3.8 16.9,8.4 0,4.6 -7.6,8.4 -16.9,8.4 z M 18.6,3 C 10.7,3 4.3,6.2 4.3,10.2 c 0,4 6.4,7.2 14.3,7.2 7.9,0 14.3,-3.2 14.3,-7.2 C 32.9,6.2 26.5,3 18.6,3 Z"
   id="path4" />
			<g
   id="g20">
				<path
   style="fill:#29abe2"
   d="m 28.6,10.8 c -0.2,0.9 -1,1.8 -2,2.5 l 1.8,0.9 c 1.5,-0.9 2.5,-2.1 2.8,-3.4 z"
   id="path5" />
				<path
   style="fill:#29abe2"
   d="M 8.5,10.8 H 5.9 c 0.3,1.3 1.3,2.4 2.8,3.4 l 1.8,-0.9 C 9.4,12.6 8.7,11.8 8.5,10.8 Z"
   id="path6" />
				<path
   style="fill:#29abe2"
   d="m 12.4,14.2 -1.8,0.9 c 1.9,0.8 4.2,1.3 6.7,1.4 v -1.3 c -1.8,-0.1 -3.5,-0.5 -4.9,-1 z"
   id="path7" />
				<path
   style="fill:#29abe2"
   d="m 28.6,9.6 h 2.6 C 30.9,8.3 29.9,7.2 28.4,6.2 l -1.8,0.9 c 1.1,0.7 1.8,1.5 2,2.5 z"
   id="path8" />
				<path
   style="fill:#29abe2"
   d="m 19.8,15.2 v 1.3 c 2.5,0 4.9,-0.6 6.7,-1.4 l -1.8,-0.9 c -1.4,0.5 -3.1,0.9 -4.9,1 z"
   id="path9" />
				<path
   style="fill:#29abe2"
   d="M 17.3,5.2 V 3.9 C 14.8,4 12.4,4.5 10.6,5.3 l 1.8,0.9 c 1.4,-0.5 3.1,-0.9 4.9,-1 z"
   id="path10" />
				<path
   style="fill:#29abe2"
   d="M 10.6,7.1 8.8,6.2 C 7.3,7.1 6.3,8.3 6,9.6 h 2.6 c 0.2,-0.9 1,-1.8 2,-2.5 z"
   id="path11" />
				<path
   style="fill:#29abe2"
   d="M 24.8,6.2 26.6,5.3 C 24.7,4.5 22.4,4 19.9,3.9 v 1.3 c 1.8,0.1 3.5,0.5 4.9,1 z"
   id="path12" />
				<path
   style="fill:#29abe2"
   d="m 15.7,12.5 -1.8,0.9 c 1,0.4 2.2,0.6 3.4,0.7 v -1.3 c -0.6,0 -1.1,-0.2 -1.6,-0.3 z"
   id="path13" />
				<path
   style="fill:#29abe2"
   d="M 21.4,7.9 23.2,7 C 22.2,6.6 21,6.4 19.8,6.3 v 1.3 c 0.6,0 1.1,0.2 1.6,0.3 z"
   id="path14" />
				<path
   style="fill:#29abe2"
   d="M 17.3,7.5 V 6.2 C 16,6.3 14.9,6.5 13.9,6.9 l 1.8,0.9 c 0.5,-0.2 1,-0.3 1.6,-0.3 z"
   id="path15" />
				<path
   style="fill:#29abe2"
   d="m 23.2,8.8 c 0.3,0.2 0.5,0.5 0.7,0.8 h 2.6 C 26.3,9 25.8,8.4 25.1,7.9 l -1.8,0.9 v 0 z"
   id="path16" />
				<path
   style="fill:#29abe2"
   d="m 19.8,12.9 v 1.3 c 1.3,-0.1 2.4,-0.3 3.4,-0.7 l -1.8,-0.9 c -0.5,0.2 -1,0.3 -1.6,0.3 z"
   id="path17" />
				<path
   style="fill:#29abe2"
   d="M 13.9,8.8 12.1,7.9 C 11.4,8.4 10.9,9 10.7,9.6 h 2.6 C 13.4,9.3 13.7,9 14,8.8 Z"
   id="path18" />
				<path
   style="fill:#29abe2"
   d="m 23.2,11.6 1.8,0.9 c 0.7,-0.5 1.2,-1.1 1.4,-1.7 h -2.6 c 0,0.3 -0.4,0.6 -0.7,0.8 v 0 z"
   id="path19" />
				<path
   style="fill:#29abe2"
   d="m 13.2,10.8 h -2.6 c 0.2,0.6 0.7,1.2 1.4,1.7 l 1.8,-0.9 c -0.3,-0.2 -0.5,-0.5 -0.7,-0.8 0,0 0.1,0 0.1,0 z"
   id="path20" />
			</g>
		</g>
	</g>
</g>
</svg>
