<?xml version="1.0" encoding="UTF-8" standalone="no"?>
<!-- Generator: Adobe Illustrator 29.4.0, SVG Export Plug-In . SVG Version: 9.03 Build 0)  -->

<svg
   version="1.1"
   id="Layer_1"
   x="0px"
   y="0px"
   viewBox="0 0 60 49.9"
   xml:space="preserve"
   sodipodi:docname="wwn020_c.svg"
   width="60"
   height="49.900002"
   inkscape:version="1.3.2 (091e20e, 2023-11-25, custom)"
   xmlns:inkscape="http://www.inkscape.org/namespaces/inkscape"
   xmlns:sodipodi="http://sodipodi.sourceforge.net/DTD/sodipodi-0.dtd"
   xmlns="http://www.w3.org/2000/svg"
   xmlns:svg="http://www.w3.org/2000/svg"><defs
   id="defs137" /><sodipodi:namedview
   id="namedview137"
   pagecolor="#ffffff"
   bordercolor="#000000"
   borderopacity="0.25"
   inkscape:showpageshadow="2"
   inkscape:pageopacity="0.0"
   inkscape:pagecheckerboard="0"
   inkscape:deskcolor="#d1d1d1"
   inkscape:zoom="36.452905"
   inkscape:cx="30.011326"
   inkscape:cy="24.950001"
   inkscape:window-width="3840"
   inkscape:window-height="2054"
   inkscape:window-x="2869"
   inkscape:window-y="-11"
   inkscape:window-maximized="1"
   inkscape:current-layer="Layer_1" />
<g
   id="g137">
	<g
   id="g2">
		<g
   id="g1">
			<path
   style="fill:#ffffff"
   d="M 30,49.9 C 13.458,49.9 0,36.442 0,19.9 0,12.919 2.479,6.106 6.98,0.718 L 7.58,0 h 44.84 l 0.6,0.718 C 57.521,6.106 60,12.918 60,19.9 c 0,16.542 -13.458,30 -30,30 z"
   id="path1" />
		</g>
	</g>
	<g
   id="g136">
		<path
   style="fill:none"
   d="m 19.384,7.6 c -3.1,0 -5.6,2.5 -5.6,5.6 v 0.8 0.01 c 1.885,0.058 1.84,1.59 3.9,1.59 2.1,0 2,-1.6 4.1,-1.6 2.1,0 2,1.6 4.1,1.6 2.1,0 2,-1.6 4.1,-1.6 2.1,0 2,1.6 4.1,1.6 2.1,0 2,-1.6 4.1,-1.6 2.061,0 2.11,1.533 4.002,1.59 C 44.173,15.533 44.22,14 46.184,14 v -0.8 c 0,-3.1 -2.5,-5.6 -5.6,-5.6 z"
   id="path2" />
		<path
   d="m 56.384,28.1 c -0.331,0 -0.6,0.269 -0.6,0.6 0,0.331 0.269,0.6 0.6,0.6 0.043,0 0.08,-0.016 0.121,-0.024 0.114,-0.319 0.225,-0.64 0.328,-0.964 C 56.723,28.185 56.566,28.1 56.384,28.1 Z"
   id="path3" />
		<path
   d="m 57.084,26.2 c 0,0.183 0.087,0.342 0.217,0.452 0.085,-0.339 0.165,-0.679 0.237,-1.022 -0.258,0.066 -0.454,0.29 -0.454,0.57 z"
   id="path4" />
		<path
   d="m 57.684,20.6 c -0.331,0 -0.6,0.269 -0.6,0.6 0,0.331 0.269,0.6 0.6,0.6 0.151,0 0.284,-0.061 0.389,-0.152 0.018,-0.288 0.029,-0.577 0.038,-0.867 C 58.003,20.67 57.852,20.6 57.684,20.6 Z"
   id="path5" />
		<path
   d="m 57.084,16.2 c 0,0.331 0.269,0.6 0.6,0.6 0.096,0 0.184,-0.028 0.264,-0.068 -0.042,-0.371 -0.086,-0.741 -0.143,-1.108 -0.04,-0.009 -0.078,-0.024 -0.121,-0.024 -0.331,0 -0.6,0.269 -0.6,0.6 z"
   id="path6" />
		<path
   d="m 52.684,35.6 c -0.331,0 -0.6,0.269 -0.6,0.6 0,0.249 0.152,0.462 0.368,0.553 0.234,-0.308 0.459,-0.623 0.68,-0.942 C 53.023,35.685 52.865,35.6 52.684,35.6 Z"
   id="path7" />
		<path
   d="m 53.884,33.1 c -0.331,0 -0.6,0.269 -0.6,0.6 0,0.331 0.269,0.6 0.6,0.6 0.102,0 0.194,-0.032 0.278,-0.077 0.109,-0.181 0.212,-0.365 0.316,-0.549 C 54.465,33.355 54.206,33.1 53.884,33.1 Z"
   id="path8" />
		<path
   d="m 55.184,30.6 c -0.331,0 -0.6,0.269 -0.6,0.6 0,0.331 0.269,0.6 0.6,0.6 0.122,0 0.228,-0.045 0.323,-0.107 0.089,-0.19 0.176,-0.382 0.261,-0.575 C 55.726,30.827 55.487,30.6 55.184,30.6 Z"
   id="path9" />
		<path
   d="m 52.684,30.6 c -0.331,0 -0.6,0.269 -0.6,0.6 0,0.331 0.269,0.6 0.6,0.6 0.331,0 0.6,-0.269 0.6,-0.6 0,-0.331 -0.268,-0.6 -0.6,-0.6 z"
   id="path10" />
		<path
   d="m 53.884,29.3 c 0.331,0 0.6,-0.269 0.6,-0.6 0,-0.331 -0.269,-0.6 -0.6,-0.6 -0.331,0 -0.6,0.269 -0.6,0.6 0,0.331 0.269,0.6 0.6,0.6 z"
   id="path11" />
		<path
   d="m 55.184,25.6 c -0.331,0 -0.6,0.269 -0.6,0.6 0,0.331 0.269,0.6 0.6,0.6 0.331,0 0.6,-0.269 0.6,-0.6 0,-0.331 -0.268,-0.6 -0.6,-0.6 z"
   id="path12" />
		<path
   d="m 52.684,25.6 c -0.331,0 -0.6,0.269 -0.6,0.6 0,0.331 0.269,0.6 0.6,0.6 0.331,0 0.6,-0.269 0.6,-0.6 0,-0.331 -0.268,-0.6 -0.6,-0.6 z"
   id="path13" />
		<path
   d="m 56.384,24.3 c 0.331,0 0.6,-0.269 0.6,-0.6 0,-0.331 -0.269,-0.6 -0.6,-0.6 -0.331,0 -0.6,0.269 -0.6,0.6 0,0.331 0.269,0.6 0.6,0.6 z"
   id="path14" />
		<path
   d="m 53.884,23.1 c -0.331,0 -0.6,0.269 -0.6,0.6 0,0.331 0.269,0.6 0.6,0.6 0.331,0 0.6,-0.269 0.6,-0.6 0,-0.331 -0.268,-0.6 -0.6,-0.6 z"
   id="path15" />
		<path
   d="m 55.184,20.6 c -0.331,0 -0.6,0.269 -0.6,0.6 0,0.331 0.269,0.6 0.6,0.6 0.331,0 0.6,-0.269 0.6,-0.6 0,-0.331 -0.268,-0.6 -0.6,-0.6 z"
   id="path16" />
		<path
   d="m 52.684,21.8 c 0.331,0 0.6,-0.269 0.6,-0.6 0,-0.331 -0.269,-0.6 -0.6,-0.6 -0.331,0 -0.6,0.269 -0.6,0.6 0,0.331 0.269,0.6 0.6,0.6 z"
   id="path17" />
		<path
   d="m 56.384,18.1 c -0.331,0 -0.6,0.269 -0.6,0.6 0,0.331 0.269,0.6 0.6,0.6 0.331,0 0.6,-0.269 0.6,-0.6 0,-0.331 -0.268,-0.6 -0.6,-0.6 z"
   id="path18" />
		<path
   d="m 53.884,18.1 c -0.331,0 -0.6,0.269 -0.6,0.6 0,0.331 0.269,0.6 0.6,0.6 0.331,0 0.6,-0.269 0.6,-0.6 0,-0.331 -0.268,-0.6 -0.6,-0.6 z"
   id="path19" />
		<path
   d="m 55.184,16.8 c 0.331,0 0.6,-0.269 0.6,-0.6 0,-0.331 -0.269,-0.6 -0.6,-0.6 -0.331,0 -0.6,0.269 -0.6,0.6 0,0.331 0.269,0.6 0.6,0.6 z"
   id="path20" />
		<path
   d="m 52.684,16.8 c 0.331,0 0.6,-0.269 0.6,-0.6 0,-0.331 -0.269,-0.6 -0.6,-0.6 -0.331,0 -0.6,0.269 -0.6,0.6 0,0.331 0.269,0.6 0.6,0.6 z"
   id="path21" />
		<path
   d="m 56.384,13.1 c -0.331,0 -0.6,0.269 -0.6,0.6 0,0.331 0.269,0.6 0.6,0.6 0.331,0 0.6,-0.269 0.6,-0.6 0,-0.331 -0.268,-0.6 -0.6,-0.6 z"
   id="path22" />
		<path
   d="m 53.884,13.1 c -0.331,0 -0.6,0.269 -0.6,0.6 0,0.331 0.269,0.6 0.6,0.6 0.331,0 0.6,-0.269 0.6,-0.6 0,-0.331 -0.268,-0.6 -0.6,-0.6 z"
   id="path23" />
		<path
   d="m 54.584,11.2 c 0,0.331 0.269,0.6 0.6,0.6 0.331,0 0.6,-0.269 0.6,-0.6 0,-0.331 -0.269,-0.6 -0.6,-0.6 -0.331,0 -0.6,0.269 -0.6,0.6 z"
   id="path24" />
		<path
   d="m 52.684,11.8 c 0.331,0 0.6,-0.269 0.6,-0.6 0,-0.331 -0.269,-0.6 -0.6,-0.6 -0.331,0 -0.6,0.269 -0.6,0.6 0,0.331 0.269,0.6 0.6,0.6 z"
   id="path25" />
		<path
   d="m 53.884,8.1 c -0.331,0 -0.6,0.269 -0.6,0.6 0,0.331 0.269,0.6 0.6,0.6 0.331,0 0.6,-0.269 0.6,-0.6 0,-0.331 -0.268,-0.6 -0.6,-0.6 z"
   id="path26" />
		<path
   d="m 51.384,8.1 c -0.331,0 -0.6,0.269 -0.6,0.6 0,0.331 0.269,0.6 0.6,0.6 0.331,0 0.6,-0.269 0.6,-0.6 0,-0.331 -0.268,-0.6 -0.6,-0.6 z"
   id="path27" />
		<path
   d="m 52.684,6.8 c 0.331,0 0.6,-0.269 0.6,-0.6 0,-0.331 -0.269,-0.6 -0.6,-0.6 -0.331,0 -0.6,0.269 -0.6,0.6 0,0.331 0.269,0.6 0.6,0.6 z"
   id="path28" />
		<path
   d="m 47.684,40.6 c -0.331,0 -0.6,0.269 -0.6,0.6 0,0.285 0.202,0.512 0.468,0.573 0.246,-0.196 0.488,-0.396 0.726,-0.6 C 48.264,40.855 48.006,40.6 47.684,40.6 Z"
   id="path29" />
		<path
   d="m 50.784,38.7 c 0,0.017 0.008,0.031 0.01,0.047 0.191,-0.21 0.375,-0.426 0.56,-0.641 -0.317,0.017 -0.57,0.273 -0.57,0.594 z"
   id="path30" />
		<path
   d="m 48.884,38.1 c -0.331,0 -0.6,0.269 -0.6,0.6 0,0.331 0.269,0.6 0.6,0.6 0.331,0 0.6,-0.269 0.6,-0.6 0,-0.331 -0.268,-0.6 -0.6,-0.6 z"
   id="path31" />
		<path
   d="m 50.184,35.6 c -0.331,0 -0.6,0.269 -0.6,0.6 0,0.331 0.269,0.6 0.6,0.6 0.331,0 0.6,-0.269 0.6,-0.6 0,-0.331 -0.268,-0.6 -0.6,-0.6 z"
   id="path32" />
		<path
   d="m 51.384,34.3 c 0.331,0 0.6,-0.269 0.6,-0.6 0,-0.331 -0.269,-0.6 -0.6,-0.6 -0.331,0 -0.6,0.269 -0.6,0.6 0,0.331 0.269,0.6 0.6,0.6 z"
   id="path33" />
		<path
   d="m 48.884,33.1 c -0.331,0 -0.6,0.269 -0.6,0.6 0,0.331 0.269,0.6 0.6,0.6 0.331,0 0.6,-0.269 0.6,-0.6 0,-0.331 -0.268,-0.6 -0.6,-0.6 z"
   id="path34" />
		<path
   d="m 50.184,30.6 c -0.331,0 -0.6,0.269 -0.6,0.6 0,0.331 0.269,0.6 0.6,0.6 0.331,0 0.6,-0.269 0.6,-0.6 0,-0.331 -0.268,-0.6 -0.6,-0.6 z"
   id="path35" />
		<path
   d="m 51.384,28.1 c -0.331,0 -0.6,0.269 -0.6,0.6 0,0.331 0.269,0.6 0.6,0.6 0.331,0 0.6,-0.269 0.6,-0.6 0,-0.331 -0.268,-0.6 -0.6,-0.6 z"
   id="path36" />
		<path
   d="m 48.884,28.1 c -0.331,0 -0.6,0.269 -0.6,0.6 0,0.331 0.269,0.6 0.6,0.6 0.331,0 0.6,-0.269 0.6,-0.6 0,-0.331 -0.268,-0.6 -0.6,-0.6 z"
   id="path37" />
		<path
   d="m 50.184,26.8 c 0.331,0 0.6,-0.269 0.6,-0.6 0,-0.331 -0.269,-0.6 -0.6,-0.6 -0.331,0 -0.6,0.269 -0.6,0.6 0,0.331 0.269,0.6 0.6,0.6 z"
   id="path38" />
		<path
   d="m 51.384,23.1 c -0.331,0 -0.6,0.269 -0.6,0.6 0,0.331 0.269,0.6 0.6,0.6 0.331,0 0.6,-0.269 0.6,-0.6 0,-0.331 -0.268,-0.6 -0.6,-0.6 z"
   id="path39" />
		<path
   d="m 48.884,23.1 c -0.331,0 -0.6,0.269 -0.6,0.6 0,0.331 0.269,0.6 0.6,0.6 0.331,0 0.6,-0.269 0.6,-0.6 0,-0.331 -0.268,-0.6 -0.6,-0.6 z"
   id="path40" />
		<path
   d="m 50.184,21.8 c 0.331,0 0.6,-0.269 0.6,-0.6 0,-0.331 -0.269,-0.6 -0.6,-0.6 -0.331,0 -0.6,0.269 -0.6,0.6 0,0.331 0.269,0.6 0.6,0.6 z"
   id="path41" />
		<path
   d="m 51.384,18.1 c -0.331,0 -0.6,0.269 -0.6,0.6 0,0.331 0.269,0.6 0.6,0.6 0.331,0 0.6,-0.269 0.6,-0.6 0,-0.331 -0.268,-0.6 -0.6,-0.6 z"
   id="path42" />
		<path
   d="m 48.884,18.1 c -0.331,0 -0.6,0.269 -0.6,0.6 0,0.331 0.269,0.6 0.6,0.6 0.331,0 0.6,-0.269 0.6,-0.6 0,-0.331 -0.268,-0.6 -0.6,-0.6 z"
   id="path43" />
		<path
   d="m 50.184,16.8 c 0.331,0 0.6,-0.269 0.6,-0.6 0,-0.331 -0.269,-0.6 -0.6,-0.6 -0.331,0 -0.6,0.269 -0.6,0.6 0,0.331 0.269,0.6 0.6,0.6 z"
   id="path44" />
		<path
   d="m 51.384,13.1 c -0.331,0 -0.6,0.269 -0.6,0.6 0,0.331 0.269,0.6 0.6,0.6 0.331,0 0.6,-0.269 0.6,-0.6 0,-0.331 -0.268,-0.6 -0.6,-0.6 z"
   id="path45" />
		<path
   d="m 48.884,13.1 c -0.331,0 -0.6,0.269 -0.6,0.6 0,0.331 0.269,0.6 0.6,0.6 0.331,0 0.6,-0.269 0.6,-0.6 0,-0.331 -0.268,-0.6 -0.6,-0.6 z"
   id="path46" />
		<path
   d="m 50.184,11.8 c 0.331,0 0.6,-0.269 0.6,-0.6 0,-0.331 -0.269,-0.6 -0.6,-0.6 -0.331,0 -0.6,0.269 -0.6,0.6 0,0.331 0.269,0.6 0.6,0.6 z"
   id="path47" />
		<path
   d="m 48.884,8.1 c -0.331,0 -0.6,0.269 -0.6,0.6 0,0.331 0.269,0.6 0.6,0.6 0.331,0 0.6,-0.269 0.6,-0.6 0,-0.331 -0.268,-0.6 -0.6,-0.6 z"
   id="path48" />
		<path
   d="m 50.184,6.8 c 0.331,0 0.6,-0.269 0.6,-0.6 0,-0.331 -0.269,-0.6 -0.6,-0.6 -0.331,0 -0.6,0.269 -0.6,0.6 0,0.331 0.269,0.6 0.6,0.6 z"
   id="path49" />
		<path
   d="m 47.684,5.6 c -0.331,0 -0.6,0.269 -0.6,0.6 0,0.331 0.269,0.6 0.6,0.6 0.331,0 0.6,-0.269 0.6,-0.6 0,-0.331 -0.268,-0.6 -0.6,-0.6 z"
   id="path50" />
		<path
   d="m 44.484,43.7 c 0,-0.331 -0.269,-0.6 -0.6,-0.6 -0.331,0 -0.6,0.269 -0.6,0.6 0,0.313 0.242,0.561 0.547,0.589 0.201,-0.114 0.402,-0.227 0.599,-0.346 0.034,-0.074 0.054,-0.156 0.054,-0.243 z"
   id="path51" />
		<path
   d="m 45.184,40.6 c -0.331,0 -0.6,0.269 -0.6,0.6 0,0.331 0.269,0.6 0.6,0.6 0.331,0 0.6,-0.269 0.6,-0.6 0,-0.331 -0.268,-0.6 -0.6,-0.6 z"
   id="path52" />
		<path
   d="m 42.684,40.6 c -0.331,0 -0.6,0.269 -0.6,0.6 0,0.331 0.269,0.6 0.6,0.6 0.331,0 0.6,-0.269 0.6,-0.6 0,-0.331 -0.268,-0.6 -0.6,-0.6 z"
   id="path53" />
		<path
   d="m 44.584,6.2 c 0,0.331 0.269,0.6 0.6,0.6 0.331,0 0.6,-0.269 0.6,-0.6 0,-0.331 -0.269,-0.6 -0.6,-0.6 -0.331,0 -0.6,0.269 -0.6,0.6 z"
   id="path54" />
		<path
   d="m 40.184,45.6 c -0.331,0 -0.6,0.269 -0.6,0.6 0,0.015 0.008,0.028 0.009,0.043 0.355,-0.129 0.706,-0.267 1.054,-0.41 C 40.537,45.694 40.375,45.6 40.184,45.6 Z"
   id="path55" />
		<path
   d="m 37.684,45.6 c -0.331,0 -0.6,0.269 -0.6,0.6 0,0.331 0.269,0.6 0.6,0.6 0.331,0 0.6,-0.269 0.6,-0.6 0,-0.331 -0.268,-0.6 -0.6,-0.6 z"
   id="path56" />
		<path
   d="m 41.384,44.3 c 0.331,0 0.6,-0.269 0.6,-0.6 0,-0.331 -0.269,-0.6 -0.6,-0.6 -0.331,0 -0.6,0.269 -0.6,0.6 0,0.331 0.269,0.6 0.6,0.6 z"
   id="path57" />
		<path
   d="m 38.884,44.3 c 0.331,0 0.6,-0.269 0.6,-0.6 0,-0.331 -0.269,-0.6 -0.6,-0.6 -0.331,0 -0.6,0.269 -0.6,0.6 0,0.331 0.269,0.6 0.6,0.6 z"
   id="path58" />
		<path
   d="m 36.384,44.3 c 0.331,0 0.6,-0.269 0.6,-0.6 0,-0.331 -0.269,-0.6 -0.6,-0.6 -0.331,0 -0.6,0.269 -0.6,0.6 0,0.331 0.269,0.6 0.6,0.6 z"
   id="path59" />
		<path
   d="m 40.184,40.6 c -0.331,0 -0.6,0.269 -0.6,0.6 0,0.331 0.269,0.6 0.6,0.6 0.331,0 0.6,-0.269 0.6,-0.6 0,-0.331 -0.268,-0.6 -0.6,-0.6 z"
   id="path60" />
		<path
   d="m 37.684,40.6 c -0.331,0 -0.6,0.269 -0.6,0.6 0,0.331 0.269,0.6 0.6,0.6 0.331,0 0.6,-0.269 0.6,-0.6 0,-0.331 -0.268,-0.6 -0.6,-0.6 z"
   id="path61" />
		<path
   d="m 35.184,45.6 c -0.331,0 -0.6,0.269 -0.6,0.6 0,0.331 0.269,0.6 0.6,0.6 0.331,0 0.6,-0.269 0.6,-0.6 0,-0.331 -0.268,-0.6 -0.6,-0.6 z"
   id="path62" />
		<path
   d="m 32.684,45.6 c -0.331,0 -0.6,0.269 -0.6,0.6 0,0.331 0.269,0.6 0.6,0.6 0.331,0 0.6,-0.269 0.6,-0.6 0,-0.331 -0.268,-0.6 -0.6,-0.6 z"
   id="path63" />
		<path
   d="m 33.884,44.3 c 0.331,0 0.6,-0.269 0.6,-0.6 0,-0.331 -0.269,-0.6 -0.6,-0.6 -0.331,0 -0.6,0.269 -0.6,0.6 0,0.331 0.269,0.6 0.6,0.6 z"
   id="path64" />
		<path
   d="m 31.384,44.3 c 0.331,0 0.6,-0.269 0.6,-0.6 0,-0.331 -0.269,-0.6 -0.6,-0.6 -0.331,0 -0.6,0.269 -0.6,0.6 0,0.331 0.269,0.6 0.6,0.6 z"
   id="path65" />
		<path
   d="m 35.184,40.6 c -0.331,0 -0.6,0.269 -0.6,0.6 0,0.331 0.269,0.6 0.6,0.6 0.331,0 0.6,-0.269 0.6,-0.6 0,-0.331 -0.268,-0.6 -0.6,-0.6 z"
   id="path66" />
		<path
   d="m 32.684,40.6 c -0.331,0 -0.6,0.269 -0.6,0.6 0,0.331 0.269,0.6 0.6,0.6 0.331,0 0.6,-0.269 0.6,-0.6 0,-0.331 -0.268,-0.6 -0.6,-0.6 z"
   id="path67" />
		<path
   d="m 30.784,46.2 c 0,-0.331 -0.269,-0.6 -0.6,-0.6 -0.331,0 -0.6,0.269 -0.6,0.6 0,0.331 0.269,0.6 0.6,0.6 0.331,0 0.6,-0.269 0.6,-0.6 z"
   id="path68" />
		<path
   d="m 27.684,45.6 c -0.331,0 -0.6,0.269 -0.6,0.6 0,0.331 0.269,0.6 0.6,0.6 0.331,0 0.6,-0.269 0.6,-0.6 0,-0.331 -0.268,-0.6 -0.6,-0.6 z"
   id="path69" />
		<path
   d="m 28.884,44.3 c 0.331,0 0.6,-0.269 0.6,-0.6 0,-0.331 -0.269,-0.6 -0.6,-0.6 -0.331,0 -0.6,0.269 -0.6,0.6 0,0.331 0.269,0.6 0.6,0.6 z"
   id="path70" />
		<path
   d="m 26.384,44.3 c 0.331,0 0.6,-0.269 0.6,-0.6 0,-0.331 -0.269,-0.6 -0.6,-0.6 -0.331,0 -0.6,0.269 -0.6,0.6 0,0.331 0.269,0.6 0.6,0.6 z"
   id="path71" />
		<path
   d="m 30.184,40.6 c -0.331,0 -0.6,0.269 -0.6,0.6 0,0.331 0.269,0.6 0.6,0.6 0.331,0 0.6,-0.269 0.6,-0.6 0,-0.331 -0.268,-0.6 -0.6,-0.6 z"
   id="path72" />
		<path
   d="m 27.684,40.6 c -0.331,0 -0.6,0.269 -0.6,0.6 0,0.331 0.269,0.6 0.6,0.6 0.331,0 0.6,-0.269 0.6,-0.6 0,-0.331 -0.268,-0.6 -0.6,-0.6 z"
   id="path73" />
		<path
   d="m 25.184,45.6 c -0.331,0 -0.6,0.269 -0.6,0.6 0,0.331 0.269,0.6 0.6,0.6 0.331,0 0.6,-0.269 0.6,-0.6 0,-0.331 -0.268,-0.6 -0.6,-0.6 z"
   id="path74" />
		<path
   d="m 22.684,45.6 c -0.331,0 -0.6,0.269 -0.6,0.6 0,0.331 0.269,0.6 0.6,0.6 0.331,0 0.6,-0.269 0.6,-0.6 0,-0.331 -0.268,-0.6 -0.6,-0.6 z"
   id="path75" />
		<path
   d="m 23.884,44.3 c 0.331,0 0.6,-0.269 0.6,-0.6 0,-0.331 -0.269,-0.6 -0.6,-0.6 -0.331,0 -0.6,0.269 -0.6,0.6 0,0.331 0.269,0.6 0.6,0.6 z"
   id="path76" />
		<path
   d="m 21.384,44.3 c 0.331,0 0.6,-0.269 0.6,-0.6 0,-0.331 -0.269,-0.6 -0.6,-0.6 -0.331,0 -0.6,0.269 -0.6,0.6 0,0.331 0.269,0.6 0.6,0.6 z"
   id="path77" />
		<path
   d="m 25.184,40.6 c -0.331,0 -0.6,0.269 -0.6,0.6 0,0.331 0.269,0.6 0.6,0.6 0.331,0 0.6,-0.269 0.6,-0.6 0,-0.331 -0.268,-0.6 -0.6,-0.6 z"
   id="path78" />
		<path
   d="m 22.684,40.6 c -0.331,0 -0.6,0.269 -0.6,0.6 0,0.331 0.269,0.6 0.6,0.6 0.331,0 0.6,-0.269 0.6,-0.6 0,-0.331 -0.268,-0.6 -0.6,-0.6 z"
   id="path79" />
		<path
   d="m 20.784,46.2 c 0,-0.331 -0.269,-0.6 -0.6,-0.6 -0.204,0 -0.375,0.109 -0.484,0.264 0.353,0.143 0.709,0.281 1.069,0.41 0.004,-0.025 0.015,-0.048 0.015,-0.074 z"
   id="path80" />
		<path
   d="m 18.884,44.3 c 0.331,0 0.6,-0.269 0.6,-0.6 0,-0.331 -0.269,-0.6 -0.6,-0.6 -0.331,0 -0.6,0.269 -0.6,0.6 0,0.331 0.269,0.6 0.6,0.6 z"
   id="path81" />
		<path
   d="m 20.184,40.6 c -0.331,0 -0.6,0.269 -0.6,0.6 0,0.331 0.269,0.6 0.6,0.6 0.331,0 0.6,-0.269 0.6,-0.6 0,-0.331 -0.268,-0.6 -0.6,-0.6 z"
   id="path82" />
		<path
   d="m 17.684,40.6 c -0.331,0 -0.6,0.269 -0.6,0.6 0,0.331 0.269,0.6 0.6,0.6 0.331,0 0.6,-0.269 0.6,-0.6 0,-0.331 -0.268,-0.6 -0.6,-0.6 z"
   id="path83" />
		<path
   d="m 16.984,43.7 c 0,-0.331 -0.269,-0.6 -0.6,-0.6 -0.331,0 -0.6,0.269 -0.6,0.6 0,0.087 0.02,0.169 0.054,0.244 0.198,0.118 0.398,0.232 0.599,0.346 0.306,-0.029 0.547,-0.277 0.547,-0.59 z"
   id="path84" />
		<path
   d="m 13.284,41.2 c 0,-0.331 -0.269,-0.6 -0.6,-0.6 -0.331,0 -0.6,0.269 -0.6,0.6 0,0.024 0.011,0.044 0.013,0.067 0.21,0.178 0.424,0.351 0.639,0.523 0.306,-0.028 0.548,-0.277 0.548,-0.59 z"
   id="path85" />
		<path
   d="m 14.584,41.2 c 0,0.331 0.269,0.6 0.6,0.6 0.331,0 0.6,-0.269 0.6,-0.6 0,-0.331 -0.269,-0.6 -0.6,-0.6 -0.331,0 -0.6,0.269 -0.6,0.6 z"
   id="path86" />
		<path
   d="m 11.384,39.3 c 0.331,0 0.6,-0.269 0.6,-0.6 0,-0.331 -0.269,-0.6 -0.6,-0.6 -0.331,0 -0.6,0.269 -0.6,0.6 0,0.331 0.269,0.6 0.6,0.6 z"
   id="path87" />
		<path
   d="m 11.384,33.1 c -0.331,0 -0.6,0.269 -0.6,0.6 0,0.331 0.269,0.6 0.6,0.6 0.331,0 0.6,-0.269 0.6,-0.6 0,-0.331 -0.268,-0.6 -0.6,-0.6 z"
   id="path88" />
		<path
   d="m 11.384,28.1 c -0.331,0 -0.6,0.269 -0.6,0.6 0,0.331 0.269,0.6 0.6,0.6 0.331,0 0.6,-0.269 0.6,-0.6 0,-0.331 -0.268,-0.6 -0.6,-0.6 z"
   id="path89" />
		<path
   d="m 11.384,23.1 c -0.331,0 -0.6,0.269 -0.6,0.6 0,0.331 0.269,0.6 0.6,0.6 0.331,0 0.6,-0.269 0.6,-0.6 0,-0.331 -0.268,-0.6 -0.6,-0.6 z"
   id="path90" />
		<path
   d="m 11.384,18.1 c -0.331,0 -0.6,0.269 -0.6,0.6 0,0.331 0.269,0.6 0.6,0.6 0.331,0 0.6,-0.269 0.6,-0.6 0,-0.331 -0.268,-0.6 -0.6,-0.6 z"
   id="path91" />
		<path
   d="m 11.384,13.1 c -0.331,0 -0.6,0.269 -0.6,0.6 0,0.331 0.269,0.6 0.6,0.6 0.331,0 0.6,-0.269 0.6,-0.6 0,-0.331 -0.268,-0.6 -0.6,-0.6 z"
   id="path92" />
		<path
   d="m 11.384,8.1 c -0.331,0 -0.6,0.269 -0.6,0.6 0,0.331 0.269,0.6 0.6,0.6 0.331,0 0.6,-0.269 0.6,-0.6 0,-0.331 -0.268,-0.6 -0.6,-0.6 z"
   id="path93" />
		<path
   d="m 15.784,6.2 c 0,-0.331 -0.269,-0.6 -0.6,-0.6 -0.331,0 -0.6,0.269 -0.6,0.6 0,0.331 0.269,0.6 0.6,0.6 0.331,0 0.6,-0.269 0.6,-0.6 z"
   id="path94" />
		<path
   d="m 13.284,6.2 c 0,-0.331 -0.269,-0.6 -0.6,-0.6 -0.331,0 -0.6,0.269 -0.6,0.6 0,0.331 0.269,0.6 0.6,0.6 0.331,0 0.6,-0.269 0.6,-0.6 z"
   id="path95" />
		<path
   d="m 9.484,38.7 c 0,-0.321 -0.253,-0.577 -0.57,-0.594 0.185,0.215 0.369,0.432 0.56,0.641 0.002,-0.016 0.01,-0.03 0.01,-0.047 z"
   id="path96" />
		<path
   d="m 10.184,36.8 c 0.331,0 0.6,-0.269 0.6,-0.6 0,-0.331 -0.269,-0.6 -0.6,-0.6 -0.331,0 -0.6,0.269 -0.6,0.6 0,0.331 0.269,0.6 0.6,0.6 z"
   id="path97" />
		<path
   d="m 8.284,36.2 c 0,-0.331 -0.269,-0.6 -0.6,-0.6 -0.213,0 -0.39,0.117 -0.497,0.284 0.21,0.299 0.422,0.596 0.643,0.887 C 8.089,36.704 8.284,36.48 8.284,36.2 Z"
   id="path98" />
		<path
   d="m 8.884,34.3 c 0.331,0 0.6,-0.269 0.6,-0.6 0,-0.331 -0.269,-0.6 -0.6,-0.6 -0.331,0 -0.6,0.269 -0.6,0.6 0,0.331 0.269,0.6 0.6,0.6 z"
   id="path99" />
		<path
   d="m 6.384,34.3 c 0.331,0 0.6,-0.269 0.6,-0.6 0,-0.331 -0.269,-0.6 -0.6,-0.6 -0.322,0 -0.58,0.255 -0.595,0.574 0.105,0.184 0.208,0.368 0.316,0.549 0.085,0.045 0.177,0.077 0.279,0.077 z"
   id="path100" />
		<path
   d="m 10.184,31.8 c 0.331,0 0.6,-0.269 0.6,-0.6 0,-0.331 -0.269,-0.6 -0.6,-0.6 -0.331,0 -0.6,0.269 -0.6,0.6 0,0.331 0.269,0.6 0.6,0.6 z"
   id="path101" />
		<path
   d="m 7.684,31.8 c 0.331,0 0.6,-0.269 0.6,-0.6 0,-0.331 -0.269,-0.6 -0.6,-0.6 -0.331,0 -0.6,0.269 -0.6,0.6 0,0.331 0.269,0.6 0.6,0.6 z"
   id="path102" />
		<path
   d="m 8.884,28.1 c -0.331,0 -0.6,0.269 -0.6,0.6 0,0.331 0.269,0.6 0.6,0.6 0.331,0 0.6,-0.269 0.6,-0.6 0,-0.331 -0.268,-0.6 -0.6,-0.6 z"
   id="path103" />
		<path
   d="m 6.384,29.3 c 0.331,0 0.6,-0.269 0.6,-0.6 0,-0.331 -0.269,-0.6 -0.6,-0.6 -0.331,0 -0.6,0.269 -0.6,0.6 0,0.331 0.269,0.6 0.6,0.6 z"
   id="path104" />
		<path
   d="m 10.184,26.8 c 0.331,0 0.6,-0.269 0.6,-0.6 0,-0.331 -0.269,-0.6 -0.6,-0.6 -0.331,0 -0.6,0.269 -0.6,0.6 0,0.331 0.269,0.6 0.6,0.6 z"
   id="path105" />
		<path
   d="m 7.684,26.8 c 0.331,0 0.6,-0.269 0.6,-0.6 0,-0.331 -0.269,-0.6 -0.6,-0.6 -0.331,0 -0.6,0.269 -0.6,0.6 0,0.331 0.269,0.6 0.6,0.6 z"
   id="path106" />
		<path
   d="m 8.884,23.1 c -0.331,0 -0.6,0.269 -0.6,0.6 0,0.331 0.269,0.6 0.6,0.6 0.331,0 0.6,-0.269 0.6,-0.6 0,-0.331 -0.268,-0.6 -0.6,-0.6 z"
   id="path107" />
		<path
   d="m 10.184,21.8 c 0.331,0 0.6,-0.269 0.6,-0.6 0,-0.331 -0.269,-0.6 -0.6,-0.6 -0.331,0 -0.6,0.269 -0.6,0.6 0,0.331 0.269,0.6 0.6,0.6 z"
   id="path108" />
		<path
   d="m 7.684,21.8 c 0.331,0 0.6,-0.269 0.6,-0.6 0,-0.331 -0.269,-0.6 -0.6,-0.6 -0.331,0 -0.6,0.269 -0.6,0.6 0,0.331 0.269,0.6 0.6,0.6 z"
   id="path109" />
		<path
   d="m 8.884,18.1 c -0.331,0 -0.6,0.269 -0.6,0.6 0,0.331 0.269,0.6 0.6,0.6 0.331,0 0.6,-0.269 0.6,-0.6 0,-0.331 -0.268,-0.6 -0.6,-0.6 z"
   id="path110" />
		<path
   d="m 10.184,16.8 c 0.331,0 0.6,-0.269 0.6,-0.6 0,-0.331 -0.269,-0.6 -0.6,-0.6 -0.331,0 -0.6,0.269 -0.6,0.6 0,0.331 0.269,0.6 0.6,0.6 z"
   id="path111" />
		<path
   d="m 7.684,16.8 c 0.331,0 0.6,-0.269 0.6,-0.6 0,-0.331 -0.269,-0.6 -0.6,-0.6 -0.331,0 -0.6,0.269 -0.6,0.6 0,0.331 0.269,0.6 0.6,0.6 z"
   id="path112" />
		<path
   d="m 8.884,13.1 c -0.331,0 -0.6,0.269 -0.6,0.6 0,0.331 0.269,0.6 0.6,0.6 0.331,0 0.6,-0.269 0.6,-0.6 0,-0.331 -0.268,-0.6 -0.6,-0.6 z"
   id="path113" />
		<path
   d="m 10.184,11.8 c 0.331,0 0.6,-0.269 0.6,-0.6 0,-0.331 -0.269,-0.6 -0.6,-0.6 -0.331,0 -0.6,0.269 -0.6,0.6 0,0.331 0.269,0.6 0.6,0.6 z"
   id="path114" />
		<path
   d="m 7.684,11.8 c 0.331,0 0.6,-0.269 0.6,-0.6 0,-0.331 -0.269,-0.6 -0.6,-0.6 -0.331,0 -0.6,0.269 -0.6,0.6 0,0.331 0.269,0.6 0.6,0.6 z"
   id="path115" />
		<path
   d="m 8.884,8.1 c -0.331,0 -0.6,0.269 -0.6,0.6 0,0.331 0.269,0.6 0.6,0.6 0.331,0 0.6,-0.269 0.6,-0.6 0,-0.331 -0.268,-0.6 -0.6,-0.6 z"
   id="path116" />
		<path
   d="m 6.384,8.1 c -0.331,0 -0.6,0.269 -0.6,0.6 0,0.331 0.269,0.6 0.6,0.6 0.331,0 0.6,-0.269 0.6,-0.6 0,-0.331 -0.268,-0.6 -0.6,-0.6 z"
   id="path117" />
		<path
   d="m 10.184,6.8 c 0.331,0 0.6,-0.269 0.6,-0.6 0,-0.331 -0.269,-0.6 -0.6,-0.6 -0.331,0 -0.6,0.269 -0.6,0.6 0,0.331 0.269,0.6 0.6,0.6 z"
   id="path118" />
		<path
   d="m 7.684,6.8 c 0.331,0 0.6,-0.269 0.6,-0.6 0,-0.331 -0.269,-0.6 -0.6,-0.6 -0.331,0 -0.6,0.269 -0.6,0.6 0,0.331 0.269,0.6 0.6,0.6 z"
   id="path119" />
		<path
   d="m 5.184,31.8 c 0.331,0 0.6,-0.269 0.6,-0.6 0,-0.331 -0.269,-0.6 -0.6,-0.6 -0.331,0 -0.6,0.269 -0.6,0.6 0,0.065 0.018,0.125 0.037,0.184 0.016,0.036 0.032,0.072 0.049,0.107 0.103,0.181 0.291,0.309 0.514,0.309 z"
   id="path120" />
		<path
   d="m 3.884,29.3 c 0.331,0 0.6,-0.269 0.6,-0.6 0,-0.331 -0.269,-0.6 -0.6,-0.6 -0.181,0 -0.339,0.085 -0.449,0.212 0.103,0.324 0.214,0.645 0.328,0.964 0.041,0.008 0.078,0.024 0.121,0.024 z"
   id="path121" />
		<path
   d="m 5.184,26.8 c 0.331,0 0.6,-0.269 0.6,-0.6 0,-0.331 -0.269,-0.6 -0.6,-0.6 -0.331,0 -0.6,0.269 -0.6,0.6 0,0.331 0.269,0.6 0.6,0.6 z"
   id="path122" />
		<path
   d="m 3.284,26.2 c 0,-0.317 -0.248,-0.57 -0.559,-0.592 0.077,0.37 0.164,0.737 0.256,1.102 0.178,-0.104 0.303,-0.289 0.303,-0.51 z"
   id="path123" />
		<path
   d="m 6.384,23.1 c -0.331,0 -0.6,0.269 -0.6,0.6 0,0.331 0.269,0.6 0.6,0.6 0.331,0 0.6,-0.269 0.6,-0.6 0,-0.331 -0.268,-0.6 -0.6,-0.6 z"
   id="path124" />
		<path
   d="m 3.884,23.1 c -0.331,0 -0.6,0.269 -0.6,0.6 0,0.331 0.269,0.6 0.6,0.6 0.331,0 0.6,-0.269 0.6,-0.6 0,-0.331 -0.268,-0.6 -0.6,-0.6 z"
   id="path125" />
		<path
   d="m 5.184,21.8 c 0.331,0 0.6,-0.269 0.6,-0.6 0,-0.331 -0.269,-0.6 -0.6,-0.6 -0.331,0 -0.6,0.269 -0.6,0.6 0,0.331 0.269,0.6 0.6,0.6 z"
   id="path126" />
		<path
   d="m 2.684,21.8 c 0.331,0 0.6,-0.269 0.6,-0.6 0,-0.331 -0.269,-0.6 -0.6,-0.6 -0.23,0 -0.423,0.134 -0.524,0.323 0.007,0.197 0.013,0.393 0.024,0.589 0.107,0.169 0.286,0.288 0.5,0.288 z"
   id="path127" />
		<path
   d="m 6.384,18.1 c -0.331,0 -0.6,0.269 -0.6,0.6 0,0.331 0.269,0.6 0.6,0.6 0.331,0 0.6,-0.269 0.6,-0.6 0,-0.331 -0.268,-0.6 -0.6,-0.6 z"
   id="path128" />
		<path
   d="m 3.884,18.1 c -0.331,0 -0.6,0.269 -0.6,0.6 0,0.331 0.269,0.6 0.6,0.6 0.331,0 0.6,-0.269 0.6,-0.6 0,-0.331 -0.268,-0.6 -0.6,-0.6 z"
   id="path129" />
		<path
   d="m 5.184,16.8 c 0.331,0 0.6,-0.269 0.6,-0.6 0,-0.331 -0.269,-0.6 -0.6,-0.6 -0.331,0 -0.6,0.269 -0.6,0.6 0,0.331 0.269,0.6 0.6,0.6 z"
   id="path130" />
		<path
   d="m 2.684,16.8 c 0.331,0 0.6,-0.269 0.6,-0.6 0,-0.331 -0.269,-0.6 -0.6,-0.6 -0.08,0 -0.155,0.017 -0.225,0.045 -0.052,0.339 -0.092,0.682 -0.132,1.025 0.102,0.077 0.221,0.13 0.357,0.13 z"
   id="path131" />
		<path
   d="m 6.384,13.1 c -0.331,0 -0.6,0.269 -0.6,0.6 0,0.331 0.269,0.6 0.6,0.6 0.331,0 0.6,-0.269 0.6,-0.6 0,-0.331 -0.268,-0.6 -0.6,-0.6 z"
   id="path132" />
		<path
   d="m 3.884,13.1 c -0.331,0 -0.6,0.269 -0.6,0.6 0,0.331 0.269,0.6 0.6,0.6 0.331,0 0.6,-0.269 0.6,-0.6 0,-0.331 -0.268,-0.6 -0.6,-0.6 z"
   id="path133" />
		<path
   d="m 5.184,11.8 c 0.331,0 0.6,-0.269 0.6,-0.6 0,-0.331 -0.269,-0.6 -0.6,-0.6 -0.331,0 -0.6,0.269 -0.6,0.6 0,0.331 0.269,0.6 0.6,0.6 z"
   id="path134" />
		<path
   style="fill:#00af6b"
   d="m 38.184,14 c -2.1,0 -2,1.6 -4.1,1.6 -2.1,0 -2,-1.6 -4.1,-1.6 -2.1,0 -2,1.6 -4.1,1.6 -2.1,0 -2,-1.6 -4.1,-1.6 -2.1,0 -2,1.6 -4.1,1.6 -2.06,0 -2.014,-1.531 -3.9,-1.59 C 13.748,14.009 13.722,14 13.684,14 v 23.6 h 0.1 32.4 V 14 c -1.963,0 -2.01,1.533 -3.998,1.59 C 40.294,15.533 40.246,14 38.184,14 Z"
   id="path135" />
		<path
   d="M 8.649,2 C 7.983,2.797 7.363,3.632 6.787,4.5 h 11.897 v 1.8 c -0.2,0 -0.4,0 -0.6,0 0,0 0,-0.1 0,-0.2 0,-0.3 -0.3,-0.6 -0.6,-0.6 l 0.2,0.1 c -0.3,0 -0.6,0.3 -0.6,0.6 0,0.3 0,0.3 0.2,0.5 -1.1,0.4 -2,1 -2.8,1.8 -0.1,-0.2 -0.3,-0.4 -0.6,-0.4 -0.3,0 -0.6,0.3 -0.6,0.6 0,0.3 0.2,0.5 0.5,0.6 -0.3,0.4 -0.5,0.9 -0.7,1.4 -0.1,0 -0.2,-0.1 -0.4,-0.1 -0.3,0 -0.6,0.3 -0.6,0.6 0,0.3 0.3,0.6 0.6,0.6 0,0.4 -0.1,0.9 -0.1,1.3 v 2.4 c -0.3,0 -0.5,0.3 -0.5,0.6 0,0.3 0.2,0.6 0.5,0.6 v 3.8 c -0.3,0 -0.5,0.3 -0.5,0.6 0,0.3 0.2,0.6 0.5,0.6 v 3.8 c -0.3,0 -0.5,0.3 -0.5,0.6 0,0.3 0.2,0.6 0.5,0.6 v 3.8 c -0.3,0 -0.5,0.3 -0.5,0.6 0,0.3 0.2,0.6 0.5,0.6 v 3.8 c -0.3,0 -0.5,0.3 -0.5,0.6 0,0.3 0.2,0.6 0.5,0.6 v 1.9 h 0.7 c 0,0.3 0.3,0.6 0.6,0.6 0.3,0 0.6,-0.3 0.6,-0.6 h 1.3 c 0,0.3 0.3,0.6 0.6,0.6 0.3,0 0.6,-0.3 0.6,-0.6 h 1.3 c 0,0.3 0.3,0.6 0.6,0.6 0.3,0 0.6,-0.3 0.6,-0.6 h 1.3 c 0,0.3 0.3,0.6 0.6,0.6 0.3,0 0.6,-0.3 0.6,-0.6 h 1.3 c 0,0.3 0.3,0.6 0.6,0.6 0.3,0 0.6,-0.3 0.6,-0.6 h 1.3 c 0,0.3 0.3,0.6 0.6,0.6 0.3,0 0.6,-0.3 0.6,-0.6 h 1.3 c 0,0.3 0.3,0.6 0.6,0.6 0.3,0 0.6,-0.3 0.6,-0.6 h 1.3 c 0,0.3 0.3,0.6 0.6,0.6 0.3,0 0.6,-0.3 0.6,-0.6 h 1.3 c 0,0.3 0.3,0.6 0.6,0.6 0.3,0 0.6,-0.3 0.6,-0.6 h 1.3 c 0,0.3 0.3,0.6 0.6,0.6 0.3,0 0.6,-0.3 0.6,-0.6 h 1.3 c 0,0.3 0.3,0.6 0.6,0.6 0.3,0 0.6,-0.3 0.6,-0.6 h 1.3 c 0,0.3 0.3,0.6 0.6,0.6 0.3,0 0.6,-0.3 0.6,-0.6 h 1.3 c 0,0.3 0.3,0.6 0.6,0.6 0.3,0 0.6,-0.3 0.6,-0.6 h 1.3 c 0,0.3 0.3,0.6 0.6,0.6 0.3,0 0.6,-0.3 0.6,-0.6 h 0.5 v -1.9 c 0.3,0 0.6,-0.3 0.6,-0.6 0,-0.3 -0.3,-0.6 -0.6,-0.6 v -3.8 c 0.3,0 0.6,-0.3 0.6,-0.6 0,-0.3 -0.3,-0.6 -0.6,-0.6 v -3.8 c 0.3,0 0.6,-0.3 0.6,-0.6 0,-0.3 -0.3,-0.6 -0.6,-0.6 v -3.8 c 0.3,0 0.6,-0.3 0.6,-0.6 0,-0.3 -0.3,-0.6 -0.6,-0.6 v -3.8 c 0.3,0 0.6,-0.3 0.6,-0.6 0,-0.3 -0.3,-0.6 -0.6,-0.6 v -2.4 c 0,-0.5 0,-0.9 -0.1,-1.4 0,0 0.1,0 0.2,0 0.3,0 0.6,-0.3 0.6,-0.6 0,-0.3 -0.3,-0.6 -0.6,-0.6 -0.3,0 -0.4,0.1 -0.5,0.3 -0.2,-0.5 -0.4,-1.1 -0.8,-1.5 0.3,0 0.6,-0.3 0.6,-0.6 0,-0.3 -0.3,-0.6 -0.6,-0.6 -0.3,0 -0.5,0.2 -0.6,0.5 -0.8,-0.8 -1.7,-1.5 -2.8,-1.9 0.2,-0.1 0.3,-0.3 0.3,-0.5 0,-0.3 -0.3,-0.6 -0.6,-0.6 -0.3,0 -0.6,0.3 -0.6,0.6 0,0.133 0,0.181 0,0.2 -0.2,0 -0.5,0 -0.8,-0.1 V 4.5 H 53.481 C 52.905,3.632 52.285,2.797 51.619,2 Z M 46.184,13.2 V 14 37.6 h -32.4 -0.1 V 14 c 0.038,0 0.064,0.009 0.1,0.01 V 14 13.2 c 0,-3.1 2.5,-5.6 5.6,-5.6 h 21.2 c 3.1,0 5.6,2.5 5.6,5.6 z"
   id="path136" />
	</g>
</g>
</svg>
