<?xml version="1.0" encoding="UTF-8" standalone="no"?>
<svg
   id="Layer_1"
   version="1.1"
   viewBox="0 0 66 66"
   sodipodi:docname="wwn005_a.svg"
   width="66"
   height="66"
   inkscape:version="1.3.2 (091e20e, 2023-11-25, custom)"
   xmlns:inkscape="http://www.inkscape.org/namespaces/inkscape"
   xmlns:sodipodi="http://sodipodi.sourceforge.net/DTD/sodipodi-0.dtd"
   xmlns="http://www.w3.org/2000/svg"
   xmlns:svg="http://www.w3.org/2000/svg">
  <sodipodi:namedview
     id="namedview18"
     pagecolor="#ffffff"
     bordercolor="#000000"
     borderopacity="0.25"
     inkscape:showpageshadow="2"
     inkscape:pageopacity="0.0"
     inkscape:pagecheckerboard="0"
     inkscape:deskcolor="#d1d1d1"
     inkscape:zoom="27.560606"
     inkscape:cx="32.981858"
     inkscape:cy="33"
     inkscape:window-width="3840"
     inkscape:window-height="2054"
     inkscape:window-x="2869"
     inkscape:window-y="-11"
     inkscape:window-maximized="1"
     inkscape:current-layer="Layer_1" />
  <!-- Generator: Adobe Illustrator 29.3.1, SVG Export Plug-In . SVG Version: 2.1.0 Build 151)  -->
  <defs
     id="defs1">
    <style
       id="style1">
      .st0 {
        fill: #29abe2;
      }

      .st1, .st2 {
        fill: #fff;
      }

      .st2 {
        fill-rule: evenodd;
      }

      .st3 {
        fill: none;
        stroke: #fff;
        stroke-miterlimit: 10;
        stroke-width: 1.7px;
      }
    </style>
  </defs>
  <g
     id="g3">
    <path
       class="st0"
       d="M 33,62.5 C 16.7,62.5 3.5,49.3 3.5,33 3.5,16.7 16.7,3.5 33,3.5 49.3,3.5 62.5,16.7 62.5,33 62.5,49.3 49.3,62.5 33,62.5 Z"
       id="path1" />
    <path
       d="M 33,5 C 48.4,5 61,17.6 61,33 61,48.4 48.4,61 33,61 17.6,61 5,48.4 5,33 5,17.6 17.6,5 33,5 M 33,2 C 15.9,2 2,15.9 2,33 2,50.1 15.9,64 33,64 50.1,64 64,50.1 64,33 64,15.9 50.1,2 33,2 Z"
       id="path2" />
    <path
       class="st1"
       d="M 33,2 C 50.1,2 64,15.9 64,33 64,50.1 50.1,64 33,64 15.9,64 2,50.1 2,33 2,15.9 15.9,2 33,2 M 33,0 C 14.8,0 0,14.8 0,33 0,51.2 14.8,66 33,66 51.2,66 66,51.2 66,33 66,14.8 51.2,0 33,0 Z"
       id="path3" />
  </g>
  <ellipse
     class="st3"
     cx="33"
     cy="52.099998"
     rx="12"
     ry="4.3000002"
     id="ellipse3" />
  <g
     id="g18">
    <rect
       class="st1"
       x="28.9"
       y="24.799999"
       width="8.1999998"
       height="27.299999"
       id="rect3" />
    <g
       id="g17">
      <g
         id="g9">
        <g
           id="g4">
          <polygon
             class="st2"
             points="38.5,19.8 40.9,21.1 44.3,15.2 41.9,13.8 "
             id="polygon3" />
          <polygon
             class="st2"
             points="38.9,13.6 46,17.8 46.7,16.6 39.5,12.5 "
             id="polygon4" />
        </g>
        <g
           id="g8">
          <polygon
             class="st2"
             points="38.4,23.4 37.1,25.8 43,29.2 44.4,26.9 "
             id="polygon5" />
          <polygon
             class="st2"
             points="44.6,23.8 43.2,26.2 46.7,28.2 48.1,25.9 "
             id="polygon6" />
          <polygon
             class="st2"
             points="41.8,28.5 40.4,30.9 44,33 45.4,30.6 "
             id="polygon7" />
          <polygon
             class="st2"
             points="44.6,23.8 40.4,30.9 41.6,31.6 45.7,24.5 "
             id="polygon8" />
        </g>
        <polygon
           class="st2"
           points="29.3,30.3 36.4,34.4 43.9,21.3 36.8,17.2 "
           id="polygon9" />
      </g>
      <g
         id="g16">
        <g
           id="g11">
          <polygon
             class="st2"
             points="27.5,19.8 25.1,21.1 21.7,15.2 24.1,13.8 "
             id="polygon10" />
          <polygon
             class="st2"
             points="27.1,13.6 20,17.8 19.3,16.6 26.5,12.5 "
             id="polygon11" />
        </g>
        <g
           id="g15">
          <polygon
             class="st2"
             points="27.6,23.4 28.9,25.8 23,29.2 21.6,26.9 "
             id="polygon12" />
          <polygon
             class="st2"
             points="21.4,23.8 22.8,26.2 19.3,28.2 17.9,25.9 "
             id="polygon13" />
          <polygon
             class="st2"
             points="24.2,28.5 25.6,30.9 22,33 20.6,30.6 "
             id="polygon14" />
          <polygon
             class="st2"
             points="21.4,23.8 25.6,30.9 24.4,31.6 20.3,24.5 "
             id="polygon15" />
        </g>
        <polygon
           class="st2"
           points="36.7,30.3 29.6,34.4 22.1,21.3 29.2,17.2 "
           id="polygon16" />
      </g>
    </g>
    <ellipse
       class="st1"
       cx="33"
       cy="52.099998"
       rx="4.0999999"
       ry="1.5"
       id="ellipse17" />
  </g>
</svg>
