<?xml version="1.0" encoding="UTF-8" standalone="no"?>
<!-- Generator: Adobe Illustrator 29.4.0, SVG Export Plug-In . SVG Version: 9.03 Build 0)  -->

<svg
   version="1.1"
   id="Layer_1"
   x="0px"
   y="0px"
   viewBox="0 0 29.6 34"
   xml:space="preserve"
   sodipodi:docname="wwn004_c.svg"
   width="29.6"
   height="34"
   inkscape:version="1.3.2 (091e20e, 2023-11-25, custom)"
   xmlns:inkscape="http://www.inkscape.org/namespaces/inkscape"
   xmlns:sodipodi="http://sodipodi.sourceforge.net/DTD/sodipodi-0.dtd"
   xmlns="http://www.w3.org/2000/svg"
   xmlns:svg="http://www.w3.org/2000/svg"><defs
   id="defs2" /><sodipodi:namedview
   id="namedview2"
   pagecolor="#ffffff"
   bordercolor="#000000"
   borderopacity="0.25"
   inkscape:showpageshadow="2"
   inkscape:pageopacity="0.0"
   inkscape:pagecheckerboard="0"
   inkscape:deskcolor="#d1d1d1"
   inkscape:zoom="53.5"
   inkscape:cx="14.803738"
   inkscape:cy="17"
   inkscape:window-width="3840"
   inkscape:window-height="2054"
   inkscape:window-x="2869"
   inkscape:window-y="-11"
   inkscape:window-maximized="1"
   inkscape:current-layer="Layer_1" />
<path
   style="fill:#ffffff"
   d="M 14.8,0 C 7.5,0 0,2.2 0,7.1 v 19.8 c 0,4.9 7.5,7.1 14.8,7.1 7.3,0 14.8,-2.2 14.8,-7.1 V 7.1 C 29.6,2.2 22.1,0 14.8,0 Z"
   id="path1" />
<path
   style="fill:#29abe2"
   d="M 14.8,2 C 8.6,2 2,3.8 2,7.1 V 26.9 C 2,30.2 8.6,32 14.8,32 21,32 27.6,30.2 27.6,26.9 V 7.1 C 27.6,3.8 21,2 14.8,2 Z m 0,1.7 c 6.8,0 11.2,2 11.2,3.4 0,1.4 -4.3,3.4 -11.2,3.4 C 7.9,10.5 3.7,8.5 3.7,7.1 3.7,5.7 8,3.7 14.9,3.7 Z"
   id="path2" />
</svg>
