<?xml version="1.0" encoding="UTF-8" standalone="no"?>
<!-- Generator: Adobe Illustrator 29.4.0, SVG Export Plug-In . SVG Version: 9.03 Build 0)  -->

<svg
   version="1.1"
   id="Layer_1"
   x="0px"
   y="0px"
   viewBox="0 0 54.721622 46.4"
   xml:space="preserve"
   sodipodi:docname="wwn009_c.svg"
   width="54.721622"
   height="46.400002"
   inkscape:version="1.3.2 (091e20e, 2023-11-25, custom)"
   xmlns:inkscape="http://www.inkscape.org/namespaces/inkscape"
   xmlns:sodipodi="http://sodipodi.sourceforge.net/DTD/sodipodi-0.dtd"
   xmlns="http://www.w3.org/2000/svg"
   xmlns:svg="http://www.w3.org/2000/svg"><defs
   id="defs4" /><sodipodi:namedview
   id="namedview4"
   pagecolor="#ffffff"
   bordercolor="#000000"
   borderopacity="0.25"
   inkscape:showpageshadow="2"
   inkscape:pageopacity="0.0"
   inkscape:pagecheckerboard="0"
   inkscape:deskcolor="#d1d1d1"
   inkscape:zoom="39.202585"
   inkscape:cx="27.370644"
   inkscape:cy="23.200001"
   inkscape:window-width="3840"
   inkscape:window-height="2054"
   inkscape:window-x="2869"
   inkscape:window-y="-11"
   inkscape:window-maximized="1"
   inkscape:current-layer="Layer_1" />
<g
   id="g4"
   transform="translate(-3.7642155e-4)">
	<path
   style="fill:#ffffff"
   d="M 50.417,0.965 C 50.055,0.366 49.405,0 48.705,0 H 30.722 C 17.654,0 7.022,10.632 7.022,23.7 v 5.222 C 6.89,28.913 6.762,28.9 6.622,28.9 4.833,28.9 3.814,29.697 3.14,30.225 2.638,30.617 2.519,30.7 2.122,30.7 H 2 c -0.75,0 -1.438,0.42 -1.78,1.089 -0.342,0.668 -0.281,1.472 0.158,2.08 5.654,7.847 14.755,12.531 24.344,12.531 9.589,0 18.689,-4.685 24.344,-12.531 0.439,-0.608 0.5,-1.412 0.158,-2.08 C 48.882,31.12 48.195,30.7 47.444,30.7 h -0.122 c -0.461,0 -0.587,-0.101 -1.057,-0.477 C 45.607,29.696 44.612,28.9 42.822,28.9 h -0.199 c -1.865,0 -2.883,0.814 -3.557,1.354 -0.479,0.383 -0.568,0.446 -0.943,0.446 -0.396,0 -0.517,-0.083 -1.019,-0.476 C 36.43,29.697 35.412,28.9 33.623,28.9 c -1.087,0 -1.886,0.295 -2.5,0.644 V 24 h 21.032 c 0.949,0 1.768,-0.667 1.959,-1.598 0.403,-1.964 0.608,-3.984 0.608,-6.002 0,-5.437 -1.488,-10.775 -4.305,-15.435 z"
   id="path1" />
	<g
   id="g3">
		<path
   style="fill:#29abe2"
   d="m 30.722,2 c -12,0 -21.7,9.8 -21.7,21.7 v 6 c 0.3,0.2 0.6,0.4 0.9,0.6 0.5,0.4 0.807,0.531 1.185,0.491 0.398,-0.042 0.515,-0.091 1.015,-0.591 0.7,-0.5 1.7,-1.3 3.5,-1.3 1.8,0 2.8,0.8 3.5,1.3 0.5,0.4 0.6,0.5 1,0.5 0.4,0 0.5,0 1,-0.5 0.7,-0.5 1.7,-1.3 3.5,-1.3 1.8,0 2.8,0.8 3.5,1.3 0.5,0.4 0.6,0.5 1,0.5 v -7 c 0,-1 0.8,-1.7 1.7,-1.7 h 21.333 c 0.371,-1.811 0.567,-3.684 0.567,-5.6 0,-5.257 -1.47,-10.186 -4.016,-14.4 z m 7.3,10.2 -7.7,4.5 c -0.4,0.2 -0.8,0 -0.8,-0.5 v -1.4 c -4.1,0.7 -7.2,4.3 -7.2,8.6 v 4.5 h -6 v -4.3 c 0,-7.6 5.8,-13.9 13.2,-14.7 V 7.4 c 0,-0.4 0.4,-0.7 0.8,-0.5 l 7.7,4.4 c 0.4,0.2 0.4,0.7 0,0.9 z"
   id="path2" />
		<path
   style="fill:#29abe2"
   d="m 42.622,30.9 c -2.3,0 -2.3,1.8 -4.5,1.8 -2.2,0 -2.3,-1.8 -4.5,-1.8 -2.2,0 -2.3,1.8 -4.5,1.8 -2.2,0 -2.3,-1.8 -4.5,-1.8 -2.2,0 -2.3,1.8 -4.5,1.8 -2.2,0 -2.3,-1.8 -4.5,-1.8 -2.2,0 -2.3,1.8 -4.5,1.8 -2.2,0 -2.3,-1.8 -4.5,-1.8 -2.2,0 -2.3,1.8 -4.5,1.8 -0.071,0 -0.097,0 -0.122,0 5.095,7.07 13.391,11.7 22.722,11.7 9.33,0 17.626,-4.63 22.722,-11.7 -0.036,0 -0.077,0 -0.122,0 -2.3,0 -2.3,-1.8 -4.5,-1.8 0,0 -0.2,0 -0.2,0 z"
   id="path3" />
	</g>
</g>
</svg>
