<?xml version="1.0" encoding="UTF-8" standalone="no"?>
<svg
   id="Layer_1"
   version="1.1"
   viewBox="0 0 62 62"
   sodipodi:docname="wwn005_b.svg"
   width="62"
   height="62"
   inkscape:version="1.3.2 (091e20e, 2023-11-25, custom)"
   xmlns:inkscape="http://www.inkscape.org/namespaces/inkscape"
   xmlns:sodipodi="http://sodipodi.sourceforge.net/DTD/sodipodi-0.dtd"
   xmlns="http://www.w3.org/2000/svg"
   xmlns:svg="http://www.w3.org/2000/svg">
  <sodipodi:namedview
     id="namedview2"
     pagecolor="#ffffff"
     bordercolor="#000000"
     borderopacity="0.25"
     inkscape:showpageshadow="2"
     inkscape:pageopacity="0.0"
     inkscape:pagecheckerboard="0"
     inkscape:deskcolor="#d1d1d1"
     inkscape:zoom="29.33871"
     inkscape:cx="30.982958"
     inkscape:cy="31"
     inkscape:window-width="3840"
     inkscape:window-height="2054"
     inkscape:window-x="2869"
     inkscape:window-y="-11"
     inkscape:window-maximized="1"
     inkscape:current-layer="Layer_1" />
  <!-- Generator: Adobe Illustrator 29.3.1, SVG Export Plug-In . SVG Version: 2.1.0 Build 151)  -->
  <defs
     id="defs1">
    <style
       id="style1">
      .st0 {
        fill: #29abe2;
        fill-rule: evenodd;
      }
    </style>
  </defs>
  <path
     d="M 31,3 C 46.4,3 59,15.6 59,31 59,46.4 46.4,59 31,59 15.6,59 3,46.4 3,31 3,15.6 15.6,3 31,3 M 31,0 C 13.9,0 0,13.9 0,31 0,48.1 13.9,62 31,62 48.1,62 62,48.1 62,31 62,13.9 48.1,0 31,0 Z"
     id="path1" />
  <path
     class="st0"
     d="m 44.7,26.2 1.4,-2.4 -2.6,-1.5 -1,-0.6 v 0 l -1.4,2.4 -1.5,-0.9 2.3,-4 -2.4,-1.4 2.1,-3.6 2.4,1.4 0.7,-1.2 -3.6,-2.1 -1.2,-0.7 v 0 l -2.4,-1.4 -0.7,1.2 2.4,1.4 -2.1,3.6 -2.4,-1.4 -3.8,6.6 -3.8,-6.6 -2.4,1.4 -2.1,-3.6 2.4,-1.4 -0.7,-1.2 -2.4,1.4 v 0 l -1.2,0.7 -3.6,2.1 0.7,1.2 2.4,-1.4 2.1,3.6 -2.4,1.4 2.3,4 -1.5,0.9 v 0 l -1.4,-2.4 -1.2,0.7 v 0 l -2.4,1.4 1.4,2.4 2.4,-1.4 1.4,2.4 -2.4,1.4 1.4,2.4 2.4,-1.4 v 0 l 1.2,-0.7 -1.4,-2.4 1.5,-0.9 3.2,5.5 v 14.2 c -4.7,0.6 -8.7,2.3 -8.7,4.8 0,2.5 6.6,5.1 12.8,5.1 6.2,0 12.8,-1.8 12.8,-5.1 0,-3.3 -4,-4.2 -8.7,-4.8 V 31.1 l 3.2,-5.5 1.5,0.9 -1.4,2.4 3.6,2.1 1.4,-2.4 -2.4,-1.4 1.4,-2.4 z m -2.5,23.9 c 0,1.4 -4.3,3.4 -11.2,3.4 -6.9,0 -11.2,-2 -11.2,-3.4 0,-1.4 2.7,-2.6 7,-3.1 v 3.1 c 0,0.8 1.8,1.5 4.1,1.5 2.3,0 4.1,-0.7 4.1,-1.5 V 47 c 4.4,0.6 7,2.1 7,3.1 z"
     id="path2" />
</svg>
