<?xml version="1.0" encoding="UTF-8" standalone="no"?>
<!-- Generator: Adobe Illustrator 29.4.0, SVG Export Plug-In . SVG Version: 9.03 Build 0)  -->

<svg
   version="1.1"
   id="Layer_1"
   x="0px"
   y="0px"
   viewBox="0 0 62 62"
   xml:space="preserve"
   sodipodi:docname="wwn009_b.svg"
   width="62"
   height="62"
   inkscape:version="1.3.2 (091e20e, 2023-11-25, custom)"
   xmlns:inkscape="http://www.inkscape.org/namespaces/inkscape"
   xmlns:sodipodi="http://sodipodi.sourceforge.net/DTD/sodipodi-0.dtd"
   xmlns="http://www.w3.org/2000/svg"
   xmlns:svg="http://www.w3.org/2000/svg"><defs
   id="defs3" /><sodipodi:namedview
   id="namedview3"
   pagecolor="#ffffff"
   bordercolor="#000000"
   borderopacity="0.25"
   inkscape:showpageshadow="2"
   inkscape:pageopacity="0.0"
   inkscape:pagecheckerboard="0"
   inkscape:deskcolor="#d1d1d1"
   inkscape:zoom="29.33871"
   inkscape:cx="30.982958"
   inkscape:cy="31"
   inkscape:window-width="3840"
   inkscape:window-height="2054"
   inkscape:window-x="2869"
   inkscape:window-y="-11"
   inkscape:window-maximized="1"
   inkscape:current-layer="Layer_1" />
<g
   id="g3">
	<g
   id="g2">
		<path
   style="fill:#29abe2"
   d="M 17.385,45.391 C 17.783,45.349 17.9,45.3 18.4,44.8 c 0.7,-0.5 1.7,-1.3 3.5,-1.3 1.8,0 2.8,0.8 3.5,1.3 0.5,0.4 0.6,0.5 1,0.5 0.4,0 0.5,0 1,-0.5 0.7,-0.5 1.7,-1.3 3.5,-1.3 1.8,0 2.8,0.8 3.5,1.3 0.5,0.4 0.6,0.5 1,0.5 0.4,0 0,0 0,0 v -7 c 0,-1 0.8,-1.7 1.7,-1.7 h 21.911 c 0.4,-1.8 0.5,-3.6 0.5,-5.5 0,-5.3 -1.5,-10.3 -4.1,-14.5 H 37 c -12,0 -21.7,9.8 -21.7,21.7 v 6 c 0.3,0.2 0.6,0.4 0.9,0.6 0.5,0.4 0.807,0.531 1.185,0.491 z M 22.6,38.2 c 0,-7.6 5.8,-13.9 13.2,-14.7 V 22 c 0,-0.4 0.4,-0.7 0.8,-0.5 l 7.7,4.4 c 0.4,0.2 0.4,0.7 0,0.9 l -7.7,4.5 c -0.4,0.2 -0.8,0 -0.8,-0.5 v -1.4 c -4.1,0.7 -7.2,4.3 -7.2,8.6 v 4.5 h -6 V 38 Z"
   id="path1" />
		<path
   style="fill:#29abe2"
   d="m 48.9,45.5 c -2.3,0 -2.3,1.8 -4.5,1.8 -2.2,0 -2.3,-1.8 -4.5,-1.8 -2.2,0 -2.3,1.8 -4.5,1.8 -2.2,0 -2.3,-1.8 -4.5,-1.8 -2.2,0 -2.3,1.8 -4.5,1.8 -2.2,0 -2.3,-1.8 -4.5,-1.8 -2.2,0 -2.3,1.8 -4.5,1.8 -2.2,0 -2.3,-1.8 -4.5,-1.8 -2.2,0 -2.3,1.8 -4.5,1.8 -0.125,0 -0.1,0 -0.2,0 5.1,7.1 13.4,11.8 22.8,11.8 9.4,0 17.7,-4.6 22.8,-11.8 0,0 -0.1,0 -0.2,0 -2.3,0 -2.3,-1.8 -4.5,-1.8 z"
   id="path2" />
	</g>
	<path
   d="M 31,3 C 46.4,3 59,15.6 59,31 59,46.4 46.4,59 31,59 15.6,59 3,46.4 3,31 3,15.6 15.6,3 31,3 M 31,0 C 13.9,0 0,13.9 0,31 0,48.1 13.9,62 31,62 48.1,62 62,48.1 62,31 62,13.9 48.1,0 31,0 Z"
   id="path3" />
</g>
</svg>
