<?xml version="1.0" encoding="UTF-8" standalone="no"?>
<svg
   id="Layer_1"
   version="1.1"
   viewBox="0 0 62 62"
   sodipodi:docname="wwn011_b.svg"
   width="62"
   height="62"
   inkscape:version="1.3.2 (091e20e, 2023-11-25, custom)"
   xmlns:inkscape="http://www.inkscape.org/namespaces/inkscape"
   xmlns:sodipodi="http://sodipodi.sourceforge.net/DTD/sodipodi-0.dtd"
   xmlns="http://www.w3.org/2000/svg"
   xmlns:svg="http://www.w3.org/2000/svg">
  <sodipodi:namedview
     id="namedview23"
     pagecolor="#ffffff"
     bordercolor="#000000"
     borderopacity="0.25"
     inkscape:showpageshadow="2"
     inkscape:pageopacity="0.0"
     inkscape:pagecheckerboard="0"
     inkscape:deskcolor="#d1d1d1"
     inkscape:zoom="29.33871"
     inkscape:cx="30.982958"
     inkscape:cy="31"
     inkscape:window-width="3840"
     inkscape:window-height="2054"
     inkscape:window-x="2869"
     inkscape:window-y="-11"
     inkscape:window-maximized="1"
     inkscape:current-layer="Layer_1" />
  <!-- Generator: Adobe Illustrator 29.3.1, SVG Export Plug-In . SVG Version: 2.1.0 Build 151)  -->
  <defs
     id="defs1">
    <style
       id="style1">
      .st0 {
        fill: #00af6b;
      }

      .st1 {
        fill: #fff;
      }

      .st2 {
        fill: #0071bb;
        stroke-width: 4px;
      }

      .st2, .st3 {
        stroke: #000;
        stroke-miterlimit: 10;
      }

      .st3 {
        fill: #404040;
        stroke-width: 2px;
      }
    </style>
  </defs>
  <path
     d="M 31,3 C 46.4,3 59,15.6 59,31 59,46.4 46.4,59 31,59 15.6,59 3,46.4 3,31 3,15.6 15.6,3 31,3 M 31,0 C 13.9,0 0,13.9 0,31 0,48.1 13.9,62 31,62 48.1,62 62,48.1 62,31 62,13.9 48.1,0 31,0 Z"
     id="path1" />
  <g
     id="g23">
    <path
       class="st2"
       d="M 36,38.9"
       id="path2" />
    <g
       id="g22">
      <ellipse
         class="st3"
         cx="34.700001"
         cy="38"
         rx="18.5"
         ry="9.6999998"
         id="ellipse2" />
      <g
         id="g21">
        <path
           class="st1"
           d="m 25.7,32.9 c -8.8,0 -16,-3.6 -16,-8 0,-4.4 7.2,-8 16,-8 8.8,0 16,3.6 16,8 0,4.4 -7.2,8 -16,8 z"
           id="path3" />
        <ellipse
           class="st0"
           cx="25.700001"
           cy="24.9"
           rx="3.4000001"
           ry="1.7"
           id="ellipse3" />
        <path
           class="st0"
           d="m 25.7,33.3 c -9.3,0 -16.9,-3.8 -16.9,-8.4 0,-4.6 7.6,-8.4 16.9,-8.4 9.3,0 16.9,3.8 16.9,8.4 0,4.6 -7.6,8.4 -16.9,8.4 z m 0,-15.6 c -7.9,0 -14.3,3.2 -14.3,7.2 0,4 6.4,7.2 14.3,7.2 7.9,0 14.3,-3.2 14.3,-7.2 0,-4 -6.4,-7.2 -14.3,-7.2 z"
           id="path4" />
        <g
           id="g20">
          <path
             class="st0"
             d="m 35.7,25.5 c -0.2,0.9 -1,1.8 -2,2.5 l 1.8,0.9 C 37,28 38,26.8 38.3,25.5 Z"
             id="path5" />
          <path
             class="st0"
             d="M 15.6,25.5 H 13 c 0.3,1.3 1.3,2.4 2.8,3.4 L 17.6,28 c -1.1,-0.7 -1.8,-1.5 -2,-2.5 z"
             id="path6" />
          <path
             class="st0"
             d="m 19.5,28.9 -1.8,0.9 c 1.9,0.8 4.2,1.3 6.7,1.4 v -1.3 c -1.8,0 -3.5,-0.5 -4.9,-1 z"
             id="path7" />
          <path
             class="st0"
             d="m 35.7,24.2 h 2.6 C 38,22.9 37,21.8 35.5,20.8 l -1.8,0.9 c 1.1,0.7 1.8,1.5 2,2.5 z"
             id="path8" />
          <path
             class="st0"
             d="m 26.9,29.9 v 1.3 c 2.5,0 4.9,-0.6 6.7,-1.4 l -1.8,-0.9 c -1.4,0.5 -3.1,0.9 -4.9,1 z"
             id="path9" />
          <path
             class="st0"
             d="m 24.4,19.8 v -1.3 c -2.5,0.1 -4.9,0.6 -6.7,1.4 l 1.8,0.9 c 1.4,-0.5 3.1,-0.9 4.9,-1 z"
             id="path10" />
          <path
             class="st0"
             d="m 17.7,21.8 -1.8,-0.9 c -1.5,0.9 -2.5,2.1 -2.8,3.4 h 2.6 c 0.2,-0.9 1,-1.8 2,-2.5 z"
             id="path11" />
          <path
             class="st0"
             d="M 31.9,20.9 33.7,20 C 31.8,19.2 29.5,18.7 27,18.6 v 1.3 c 1.8,0.1 3.5,0.5 4.9,1 z"
             id="path12" />
          <path
             class="st0"
             d="M 22.8,27.2 21,28.1 c 1,0.4 2.2,0.6 3.4,0.7 v -1.3 c -0.6,0 -1.1,-0.2 -1.6,-0.3 z"
             id="path13" />
          <path
             class="st0"
             d="m 28.5,22.5 1.8,-0.9 c -1,-0.4 -2.2,-0.6 -3.4,-0.7 v 1.3 c 0.6,0 1.1,0.2 1.6,0.3 z"
             id="path14" />
          <path
             class="st0"
             d="M 24.4,22.2 V 20.9 C 23.1,21 22,21.2 21,21.6 l 1.8,0.9 c 0.5,-0.2 1,-0.3 1.6,-0.3 z"
             id="path15" />
          <path
             class="st0"
             d="m 30.3,23.4 c 0.3,0.2 0.5,0.5 0.7,0.8 h 2.6 C 33.4,23.6 32.9,23 32.2,22.5 l -1.8,0.9 v 0 z"
             id="path16" />
          <path
             class="st0"
             d="m 26.9,27.5 v 1.3 c 1.3,-0.1 2.4,-0.3 3.4,-0.7 l -1.8,-0.9 c -0.5,0.2 -1,0.3 -1.6,0.3 z"
             id="path17" />
          <path
             class="st0"
             d="M 21,23.4 19.2,22.5 C 18.5,23 18,23.6 17.8,24.2 h 2.6 c 0.1,-0.3 0.4,-0.6 0.7,-0.8 z"
             id="path18" />
          <path
             class="st0"
             d="m 30.3,26.3 1.8,0.9 c 0.7,-0.5 1.2,-1.1 1.4,-1.7 h -2.6 c 0,0.3 -0.4,0.6 -0.7,0.8 v 0 z"
             id="path19" />
          <path
             class="st0"
             d="m 20.3,25.5 h -2.6 c 0.2,0.6 0.7,1.2 1.4,1.7 l 1.8,-0.9 c -0.3,-0.2 -0.5,-0.5 -0.7,-0.8 z"
             id="path20" />
        </g>
      </g>
    </g>
  </g>
</svg>
