<?xml version="1.0" encoding="UTF-8" standalone="no"?>
<!-- Generator: Adobe Illustrator 29.4.0, SVG Export Plug-In . SVG Version: 9.03 Build 0)  -->

<svg
   version="1.1"
   id="Layer_1"
   x="0px"
   y="0px"
   viewBox="0 0 62 62"
   xml:space="preserve"
   sodipodi:docname="wwn018_b.svg"
   width="62"
   height="62"
   inkscape:version="1.3.2 (091e20e, 2023-11-25, custom)"
   xmlns:inkscape="http://www.inkscape.org/namespaces/inkscape"
   xmlns:sodipodi="http://sodipodi.sourceforge.net/DTD/sodipodi-0.dtd"
   xmlns="http://www.w3.org/2000/svg"
   xmlns:svg="http://www.w3.org/2000/svg"><defs
   id="defs2" /><sodipodi:namedview
   id="namedview2"
   pagecolor="#ffffff"
   bordercolor="#000000"
   borderopacity="0.25"
   inkscape:showpageshadow="2"
   inkscape:pageopacity="0.0"
   inkscape:pagecheckerboard="0"
   inkscape:deskcolor="#d1d1d1"
   inkscape:zoom="29.33871"
   inkscape:cx="30.982958"
   inkscape:cy="31"
   inkscape:window-width="3840"
   inkscape:window-height="2054"
   inkscape:window-x="2869"
   inkscape:window-y="-11"
   inkscape:window-maximized="1"
   inkscape:current-layer="Layer_1" />
<path
   d="M 31,3 C 46.4,3 59,15.6 59,31 59,46.4 46.4,59 31,59 15.6,59 3,46.4 3,31 3,15.6 15.6,3 31,3 M 31,0 C 13.9,0 0,13.9 0,31 0,48.1 13.9,62 31,62 48.1,62 62,48.1 62,31 62,13.9 48.1,0 31,0 Z"
   id="path1" />
<g
   id="g2">
	<path
   style="fill:#00af6b"
   d="m 47,47.05 v -16.1 c 0,-8.8 -7.2,-16 -16,-16 -3.101,0 -5.6,0.8 -8,2.2 v -2.2 c 0.6,-0.2 1,-0.8 1,-1.4 0,-0.6 -0.7,-1.5 -1.5,-1.5 h -7 c -0.8,0 -1.5,0.7 -1.5,1.5 0,0.8 0.4,1.2 1,1.4 v 16.1 c 0,8.8 7.2,16 16,16 3.344,0 5.6,-0.8 8,-2.2 v 2.2 c -0.6,0.2 -1,0.8 -1,1.4 0,0.6 0.7,1.5 1.5,1.5 h 7 c 0.8,0 1.5,-0.7 1.5,-1.5 0,-0.8 -0.4,-1.2 -1,-1.4 z m -16,-8.1 c -4.4,0 -8,-3.6 -8,-8 0,-4.4 3.6,-8 8,-8 4.4,0 8,3.6 8,8 0,4.4 -3.6,8 -8,8 z m 15,-2.5 v 10.5 h -6 v -2.8 c 2.7,-1.9 4.8,-4.6 6,-7.7 z m 0.5,12.5 h -7 c -0.3,0 -0.5,-0.2 -0.5,-0.5 0,-0.3 0.2,-0.5 0.5,-0.5 h 7 c 0.3,0 0.5,0.2 0.5,0.5 0,0.3 -0.2,0.5 -0.5,0.5 z"
   id="path2" />
	<polygon
   style="fill:#00af6b"
   points="31.5,29.75 31.5,25.95 30.5,25.95 30.5,29.75 27.8,27.05 27.1,27.75 29.8,30.45 26,30.45 26,31.45 29.8,31.45 27.1,34.15 27.8,34.85 30.5,32.15 30.5,35.95 31.5,35.95 31.5,32.15 34.2,34.85 34.9,34.15 32.2,31.45 36,31.45 36,30.45 32.2,30.45 34.9,27.75 34.2,27.05 "
   id="polygon2" />
</g>
</svg>
