<?xml version="1.0" encoding="UTF-8" standalone="no"?>
<!-- Generator: Adobe Illustrator 29.4.0, SVG Export Plug-In . SVG Version: 9.03 Build 0)  -->

<svg
   version="1.1"
   id="Layer_1"
   x="0px"
   y="0px"
   viewBox="0 0 62 62"
   xml:space="preserve"
   sodipodi:docname="wwn017_b.svg"
   width="62"
   height="62"
   inkscape:version="1.3.2 (091e20e, 2023-11-25, custom)"
   xmlns:inkscape="http://www.inkscape.org/namespaces/inkscape"
   xmlns:sodipodi="http://sodipodi.sourceforge.net/DTD/sodipodi-0.dtd"
   xmlns="http://www.w3.org/2000/svg"
   xmlns:svg="http://www.w3.org/2000/svg"><defs
   id="defs2" /><sodipodi:namedview
   id="namedview2"
   pagecolor="#ffffff"
   bordercolor="#000000"
   borderopacity="0.25"
   inkscape:showpageshadow="2"
   inkscape:pageopacity="0.0"
   inkscape:pagecheckerboard="0"
   inkscape:deskcolor="#d1d1d1"
   inkscape:zoom="29.33871"
   inkscape:cx="30.982958"
   inkscape:cy="31"
   inkscape:window-width="3840"
   inkscape:window-height="2054"
   inkscape:window-x="2869"
   inkscape:window-y="-11"
   inkscape:window-maximized="1"
   inkscape:current-layer="Layer_1" />
<g
   id="g2">
	<path
   style="fill:#00af6b"
   d="M 58.951,29.348 C 58.751,29.348 58.2,29.2 57.8,29.2 55.5,29.2 55.5,31 53.3,31 51.1,31 51,29.2 48.8,29.2 46.6,29.2 46.5,31 44.3,31 42.1,31 42,29.2 39.8,29.2 37.6,29.2 37.5,31 35.3,31 33.1,31 33,29.2 30.8,29.2 28.6,29.2 28.5,31 26.3,31 24.1,31 24,29.2 21.8,29.2 19.6,29.2 19.5,31 17.3,31 15.1,31 15,29.2 12.8,29.2 10.6,29.2 10.5,31 8.3,31 6.1,31 6,29.2 3.8,29.2 3.215,29.2 3,29.3 3,29.3 c 0,0.6 0,1.1 0,1.7 0,15.5 12.5,28 28,28 15.5,0 28,-12.5 28,-28 0,0 0.028,-1.023 -0.049,-1.652 z"
   id="path1" />
	<path
   d="M 31,3 C 46.4,3 59,15.6 59,31 59,46.4 46.4,59 31,59 15.6,59 3,46.4 3,31 3,15.6 15.6,3 31,3 M 31,0 C 13.9,0 0,13.9 0,31 0,48.1 13.9,62 31,62 48.1,62 62,48.1 62,31 62,13.9 48.1,0 31,0 Z"
   id="path2" />
</g>
</svg>
