<?xml version="1.0" encoding="UTF-8" standalone="no"?>
<!-- Generator: Adobe Illustrator 29.4.0, SVG Export Plug-In . SVG Version: 9.03 Build 0)  -->

<svg
   version="1.1"
   id="Layer_1"
   x="0px"
   y="0px"
   viewBox="0 0 50 32"
   xml:space="preserve"
   sodipodi:docname="poi005_c.svg"
   width="50"
   height="32"
   inkscape:version="1.3.2 (091e20e, 2023-11-25, custom)"
   xmlns:inkscape="http://www.inkscape.org/namespaces/inkscape"
   xmlns:sodipodi="http://sodipodi.sourceforge.net/DTD/sodipodi-0.dtd"
   xmlns="http://www.w3.org/2000/svg"
   xmlns:svg="http://www.w3.org/2000/svg"><defs
   id="defs3" /><sodipodi:namedview
   id="namedview3"
   pagecolor="#ffffff"
   bordercolor="#000000"
   borderopacity="0.25"
   inkscape:showpageshadow="2"
   inkscape:pageopacity="0.0"
   inkscape:pagecheckerboard="0"
   inkscape:deskcolor="#d1d1d1"
   inkscape:zoom="56.84375"
   inkscape:cx="24.998351"
   inkscape:cy="16"
   inkscape:window-width="3840"
   inkscape:window-height="2054"
   inkscape:window-x="2869"
   inkscape:window-y="-11"
   inkscape:window-maximized="1"
   inkscape:current-layer="Layer_1" />
<path
   style="fill:#ffffff"
   d="M 25,0 C 11,0 0,7 0,16 0,25 11,32 25,32 39,32 50,25 50,16 50,7 39,0 25,0 Z"
   id="path1" />
<g
   id="g3">
	<path
   style="fill:#607c33"
   d="M 25,5 C 14.2,5 5,10 5,16 5,22 14.2,27 25,27 35.8,27 45,22 45,16 45,10 35.8,5 25,5 Z"
   id="path2" />
	<path
   d="M 25,2 C 12.3,2 2,8.3 2,16 2,23.7 12.3,30 25,30 37.7,30 48,23.7 48,16 48,8.3 37.7,2 25,2 Z m 0,25 C 14.2,27 5,22 5,16 5,10 14.2,5 25,5 c 10.8,0 20,5 20,11 0,6 -9.2,11 -20,11 z"
   id="path3" />
</g>
</svg>
