<?xml version="1.0" encoding="UTF-8" standalone="no"?>
<!-- Generator: Adobe Illustrator 29.4.0, SVG Export Plug-In . SVG Version: 9.03 Build 0)  -->

<svg
   version="1.1"
   id="Layer_1"
   x="0px"
   y="0px"
   viewBox="0 0 46.071141 28.9"
   xml:space="preserve"
   sodipodi:docname="poi048_c.svg"
   width="46.07114"
   height="28.9"
   inkscape:version="1.3.2 (091e20e, 2023-11-25, custom)"
   xmlns:inkscape="http://www.inkscape.org/namespaces/inkscape"
   xmlns:sodipodi="http://sodipodi.sourceforge.net/DTD/sodipodi-0.dtd"
   xmlns="http://www.w3.org/2000/svg"
   xmlns:svg="http://www.w3.org/2000/svg"><defs
   id="defs9">
	
	
	
	
	
	
	
	
</defs><sodipodi:namedview
   id="namedview9"
   pagecolor="#ffffff"
   bordercolor="#000000"
   borderopacity="0.25"
   inkscape:showpageshadow="2"
   inkscape:pageopacity="0.0"
   inkscape:pagecheckerboard="0"
   inkscape:deskcolor="#d1d1d1"
   inkscape:zoom="62.941177"
   inkscape:cx="23.037383"
   inkscape:cy="14.45"
   inkscape:window-width="3840"
   inkscape:window-height="2054"
   inkscape:window-x="2869"
   inkscape:window-y="-11"
   inkscape:window-maximized="1"
   inkscape:current-layer="Layer_1" />
<path
   style="fill:#ffffff"
   d="M 40.9,10.8 21.6,0.7 c 0,0 0,0 -0.1,0 h -0.1 c 0,0 0,0 -0.1,-0.1 C 20.2,0.2 19.1,0 17.9,0 V 0 C 17.3,0 16.8,0 16.3,0.1 L 2.1,1.7 c 0,0 0,0 -0.1,0 0,0 0,0 -0.1,0 0,0 -0.1,0 -0.2,0 0,0 -0.2,0 -0.3,0 0,0 0,0 -0.1,0 -0.1,0 0,0 -0.1,0 0,0 -0.2,0 -0.3,0.1 0,0 0,0 -0.1,0 0,0 0,0 -0.1,0 0,0 -0.2,0.1 -0.2,0.2 v 0 0 c 0,0 0,0 -0.1,0.1 0,0 0,0 -0.1,0.1 0,0 0,0 0,0.1 0,0 -0.1,0.2 -0.2,0.2 0,0 -0.1,0.2 -0.1,0.3 0,0 0,0 0,0.1 v 0 0 c 0,0.1 0,0.2 0,0.3 0,0 0,0.2 0,0.3 0,0.1 0,0.2 0,0.3 0,0 0,0 0,0.1 0,0.1 0,0 0,0 v 22 c 0,1.7 1.3,3 3,3 1.7,0 3,-1.3 3,-3 V 11.3 l 4.5,4.6 c 1.2,1.5 2.7,2.6 4.6,3.2 0,0 0.2,0 0.3,0 l 21.5,4.2 c 0.7,0.2 1.4,0.3 2.1,0.3 3,0 5.7,-1.9 6.7,-4.7 1.2,-3.6 -0.6,-7.5 -4.1,-8.9 z"
   id="path1" />
<path
   style="fill:none"
   d="m 10.1,7.5 c 0.4,-1.1 1,-2 1.7,-2.9 l -7.2,0.8 5.1,5.2 c 0,-1 0,-2.1 0.4,-3.1 z"
   id="path2" /><path
   style="fill:#ff0000;stroke-width:1.03278"
   d="M 15.673175,9.4850477 C 16.611363,6.9269804 18.904709,5.2898174 21.406542,4.9828493 L 19.842897,4.1642678 C 18.279251,3.6526543 16.50712,3.754977 14.943474,4.4712358 13.379829,5.1874947 12.233155,6.5176896 11.607697,8.05253 c -1.146673,3.274326 0.625458,6.85562 3.856992,8.083493 l 1.772132,0.306968 C 15.360446,14.703505 14.630745,11.940792 15.568932,9.382725 Z"
   id="path3" /><path
   style="fill:#ffffff"
   d="m 20.4,11.1 c 0.8,-2.2 2.7,-3.6 4.8,-3.9 l -4,-2.1 c -2.5,0.2 -4.7,1.9 -5.5,4.4 -0.9,2.5 -0.1,5.1 1.6,6.9 l 4.4,0.9 c -1.5,-1.6 -2.1,-3.9 -1.4,-6.1 z"
   id="path4" /><path
   style="fill:#ff0000;stroke-width:1.02115"
   d="m 25.110454,12.702186 c 0.719442,-1.927694 2.363879,-3.2466428 4.316649,-3.5510156 L 25.316009,7.0205607 c -2.261102,0.3043729 -4.213872,1.7247793 -4.933313,3.9568463 -0.822219,2.232067 -0.205555,4.565592 1.438883,6.188914 l 4.522203,0.913118 c -1.336105,-1.420406 -1.747215,-3.449558 -1.130551,-5.377253 z"
   id="path5" /><path
   style="fill:#ffffff"
   d="m 29.8,14.4 c 0.6,-1.6 1.9,-2.7 3.5,-3 l -4,-2.1 c -1.9,0.3 -3.5,1.6 -4.2,3.5 -0.7,1.9 -0.2,3.9 1.1,5.3 l 4.5,0.9 c -1,-1.2 -1.4,-2.9 -0.9,-4.6 z"
   id="path6" /><path
   style="fill:#ff0000;stroke-width:1.02175"
   d="m 34.53115,16.006729 c 0.514297,-1.319439 1.542892,-2.334393 2.880065,-2.638879 l -4.114379,-2.131401 c -1.645752,0.304486 -2.982925,1.420934 -3.600082,3.044859 -0.617156,1.623926 -0.205718,3.349346 0.925736,4.668785 l 4.525817,0.913458 C 34.325431,18.848598 34.016852,17.326168 34.53115,16.006729 Z"
   id="path7" /><path
   style="fill:#ffffff"
   d="m 39.4,14.5 h -0.1 l -1.9,-1 c -1.3,0.3 -2.3,1.3 -2.8,2.6 -0.5,1.3 -0.2,2.7 0.6,3.8 l 2.2,0.4 C 39,20.9 40.7,20 41.3,18.4 41.9,16.8 41,15.1 39.4,14.5 Z"
   id="path8" /><path
   d="M 40.1,12.6 20.6,2.5 H 20.5 C 19.1,2 17.7,1.9 16.3,2.1 l -14,1.6 c 0,0 0,0 -0.1,0 H 2.1 v 0 c 0,0 -0.1,0 -0.2,0.1 v 0 0 0 0 c 0,0 0,0.1 -0.1,0.2 0,0 0,0 0,0.1 v 0 c 0,0 0,0.1 0,0.2 0,0 0,0 0,0.1 v 0 22 c 0,0.6 0.4,1 1,1 0.6,0 1,-0.4 1,-1 V 7.1 l 8,8.2 c 0.9,1.2 2.2,2.1 3.7,2.7 l 21.6,4.2 c 0.5,0.2 1.1,0.3 1.6,0.3 2.1,0 4,-1.3 4.8,-3.4 0.9,-2.6 -0.4,-5.5 -3,-6.4 z M 37.3,20.2 35.1,19.8 30.7,18.9 26.2,18 21.8,17.1 17.4,16.2 15.7,15.9 C 12.5,14.8 10.8,11.2 12,8 12.5,6.4 13.7,5.2 15.2,4.5 16.7,3.8 18.3,3.7 19.9,4.2 l 1.5,0.8 4,2.1 4,2.1 4,2.1 4,2.1 1.9,1 h 0.1 c 1.6,0.6 2.4,2.4 1.9,3.9 -0.6,1.6 -2.3,2.4 -3.9,1.9 H 37.3 Z M 4.6,5.4 11.8,4.6 C 11,5.4 10.5,6.4 10.1,7.5 9.7,8.5 9.6,9.6 9.7,10.6 Z"
   id="path9" />
</svg>
