<?xml version="1.0" encoding="UTF-8" standalone="no"?>
<!-- Generator: Adobe Illustrator 29.4.0, SVG Export Plug-In . SVG Version: 9.03 Build 0)  -->

<svg
   version="1.1"
   id="Layer_1"
   x="0px"
   y="0px"
   viewBox="0 0 46 23.2"
   xml:space="preserve"
   sodipodi:docname="poi015_c.svg"
   width="46"
   height="23.200001"
   inkscape:version="1.3.2 (091e20e, 2023-11-25, custom)"
   xmlns:inkscape="http://www.inkscape.org/namespaces/inkscape"
   xmlns:sodipodi="http://sodipodi.sourceforge.net/DTD/sodipodi-0.dtd"
   xmlns="http://www.w3.org/2000/svg"
   xmlns:svg="http://www.w3.org/2000/svg"><defs
   id="defs3" /><sodipodi:namedview
   id="namedview3"
   pagecolor="#ffffff"
   bordercolor="#000000"
   borderopacity="0.25"
   inkscape:showpageshadow="2"
   inkscape:pageopacity="0.0"
   inkscape:pagecheckerboard="0"
   inkscape:deskcolor="#d1d1d1"
   inkscape:zoom="70.130435"
   inkscape:cx="23"
   inkscape:cy="11.599814"
   inkscape:window-width="3840"
   inkscape:window-height="2054"
   inkscape:window-x="2869"
   inkscape:window-y="-11"
   inkscape:window-maximized="1"
   inkscape:current-layer="Layer_1" />
<path
   style="fill:#ffffff"
   d="M 36.2,1.3 C 31.4,0 26,0 23,0 20,0 14.6,0 9.8,1.3 1.7,3.5 0,8.3 0,11.9 v 9.3 c 0,1.1 0.9,2 2,2 h 4.4 c 1.1,0 2,-0.9 2,-2 v -9.3 c 0,-0.3 0,-1.2 2.6,-2 2.6,-0.9 6.5,-1.3 12,-1.3 5.5,0 9.4,0.4 12,1.3 2.3,0.7 2.6,1.5 2.6,2 v 9.3 c 0,1.1 0.9,2 2,2 H 44 c 0.5,0 1,-0.2 1.4,-0.6 0.4,-0.4 0.6,-0.9 0.6,-1.4 V 11.9 C 46,8.3 44.3,3.6 36.2,1.3 Z"
   id="path1" />
<path
   style="fill:#e2710d"
   d="M 44,21.2 H 39.6 V 11.9 C 39.6,9.3 36.8,8.4 35.6,8 32.8,7 28.6,6.6 22.9,6.6 17.2,6.6 13.1,7.1 10.2,8 c -4,1.3 -4,3.1 -4,3.9 v 9.3 H 2 V 11.9 C 2,2 17.3,2 23,2 c 5.7,0 21,0 21,9.9 z"
   id="path2" />
<path
   style="fill:#e2710d"
   d="M 44,21.2 H 39.6 V 11.9 C 39.6,9.3 36.8,8.4 35.6,8 32.8,7 28.6,6.6 22.9,6.6 17.2,6.6 13.1,7.1 10.2,8 c -4,1.3 -4,3.1 -4,3.9 v 9.3 H 2 V 11.9 C 2,2 17.3,2 23,2 c 5.7,0 21,0 21,9.9 z"
   id="path3" />
</svg>
