<?xml version="1.0" encoding="UTF-8" standalone="no"?>
<!-- Generator: Adobe Illustrator 29.4.0, SVG Export Plug-In . SVG Version: 9.03 Build 0)  -->

<svg
   version="1.1"
   id="Layer_1"
   x="0px"
   y="0px"
   viewBox="0 0 44 30.1"
   xml:space="preserve"
   sodipodi:docname="poi019_c.svg"
   width="44"
   height="30.1"
   inkscape:version="1.3.2 (091e20e, 2023-11-25, custom)"
   xmlns:inkscape="http://www.inkscape.org/namespaces/inkscape"
   xmlns:sodipodi="http://sodipodi.sourceforge.net/DTD/sodipodi-0.dtd"
   xmlns="http://www.w3.org/2000/svg"
   xmlns:svg="http://www.w3.org/2000/svg"><defs
   id="defs7" /><sodipodi:namedview
   id="namedview7"
   pagecolor="#ffffff"
   bordercolor="#000000"
   borderopacity="0.25"
   inkscape:showpageshadow="2"
   inkscape:pageopacity="0.0"
   inkscape:pagecheckerboard="0"
   inkscape:deskcolor="#d1d1d1"
   inkscape:zoom="60.431893"
   inkscape:cx="22.008247"
   inkscape:cy="15.05"
   inkscape:window-width="3840"
   inkscape:window-height="2054"
   inkscape:window-x="2869"
   inkscape:window-y="-11"
   inkscape:window-maximized="1"
   inkscape:current-layer="Layer_1" />
<path
   style="fill:#ffffff"
   d="m 41.1,8.7 v 0 h -1.5 c -0.8,0 -1.5,0.3 -2.1,0.9 -0.6,0.6 -0.9,1.3 -0.9,2.1 v 0 1.8 C 34.1,11.8 30.1,11 26,11 21.9,11 17.8,11.9 15.3,13.6 14.8,12.9 14.3,12.1 13.5,11.4 11.8,9.8 9.8,8.9 8.1,8.9 v 0 c -0.2,0 -0.4,0 -0.6,0 V 3 C 7.5,1.4 6.2,0 4.5,0 H 2.9 V 1 1 0 C 1.4,0 0,1.3 0,2.9 v 25.2 c 0,1.1 0.9,2 2,2 h 3.5 c 1.1,0 2,-0.9 2,-2 v -1.7 h 29 v 1.7 c 0,1.1 0.9,2 2,2 H 42 c 1.1,0 2,-0.9 2,-2 V 11.8 C 44,11 43.7,10.3 43.2,9.7 42.7,9.1 41.9,8.8 41.1,8.8 Z"
   id="path1" />
<g
   id="g4">
	<path
   style="fill:#0056a4"
   d="m 41,10.7 h -1.5 c -0.5,0 -1,0.4 -1,1 v 0 7.7 H 10.4 C 7.8,19.4 5.6,17.3 5.5,14.7 V 3 C 5.5,2.5 5.1,2 4.5,2 H 2.9 c -0.5,0 -1,0.4 -1,1 v 0 25.2 h 3.5 v -3.7 h 33 v 3.7 h 3.5 V 11.7 c 0,-0.5 -0.4,-1 -0.9,-1 z"
   id="path2" />
	<path
   style="fill:#0056a4"
   d="m 12.1,12.9 c 2,1.8 2.8,4.2 1.8,5.3 -1,1.1 -3.4,0.4 -5.4,-1.4 -2,-1.8 -2.8,-4.2 -1.8,-5.3 1,-1.1 3.4,-0.4 5.4,1.4 z"
   id="path3" />
	<path
   style="fill:#0056a4"
   d="m 36.8,18.5 c 0.2,-0.3 0.3,-0.7 0.3,-1 0,-2.5 -5,-4.5 -11.1,-4.5 -6.1,0 -11.1,2 -11.1,4.5 0,0.4 0.1,0.7 0.3,1 z"
   id="path4" />
</g>
<g
   id="g7">
	<path
   style="fill:#0056a4"
   d="m 41,10.7 h -1.5 c -0.5,0 -1,0.4 -1,1 v 0 7.7 H 10.4 C 7.8,19.4 5.6,17.3 5.5,14.7 V 3 C 5.5,2.5 5.1,2 4.5,2 H 2.9 c -0.5,0 -1,0.4 -1,1 v 0 25.2 h 3.5 v -3.7 h 33 v 3.7 h 3.5 V 11.7 c 0,-0.5 -0.4,-1 -0.9,-1 z"
   id="path5" />
	<path
   style="fill:#0056a4"
   d="m 12.1,12.9 c 2,1.8 2.8,4.2 1.8,5.3 -1,1.1 -3.4,0.4 -5.4,-1.4 -2,-1.8 -2.8,-4.2 -1.8,-5.3 1,-1.1 3.4,-0.4 5.4,1.4 z"
   id="path6" />
	<path
   style="fill:#0056a4"
   d="m 36.8,18.5 c 0.2,-0.3 0.3,-0.7 0.3,-1 0,-2.5 -5,-4.5 -11.1,-4.5 -6.1,0 -11.1,2 -11.1,4.5 0,0.4 0.1,0.7 0.3,1 z"
   id="path7" />
</g>
</svg>
