<?xml version="1.0" encoding="UTF-8" standalone="no"?>
<!-- Generator: Adobe Illustrator 29.4.0, SVG Export Plug-In . SVG Version: 9.03 Build 0)  -->

<svg
   version="1.1"
   id="Layer_1"
   x="0px"
   y="0px"
   viewBox="0 0 28.740954 47.3"
   xml:space="preserve"
   sodipodi:docname="poi030_c.svg"
   width="28.740953"
   height="47.299999"
   inkscape:version="1.3.2 (091e20e, 2023-11-25, custom)"
   xmlns:inkscape="http://www.inkscape.org/namespaces/inkscape"
   xmlns:sodipodi="http://sodipodi.sourceforge.net/DTD/sodipodi-0.dtd"
   xmlns="http://www.w3.org/2000/svg"
   xmlns:svg="http://www.w3.org/2000/svg"><defs
   id="defs5" /><sodipodi:namedview
   id="namedview5"
   pagecolor="#ffffff"
   bordercolor="#000000"
   borderopacity="0.25"
   inkscape:showpageshadow="2"
   inkscape:pageopacity="0.0"
   inkscape:pagecheckerboard="0"
   inkscape:deskcolor="#d1d1d1"
   inkscape:zoom="38.45666"
   inkscape:cx="14.379824"
   inkscape:cy="23.65"
   inkscape:window-width="3840"
   inkscape:window-height="2054"
   inkscape:window-x="2869"
   inkscape:window-y="-11"
   inkscape:window-maximized="1"
   inkscape:current-layer="Layer_1" />
<path
   style="fill:#ffffff"
   d="m 21.8,14.8 v 0 c -0.6,-0.8 -1.5,-1.2 -2.4,-1.2 -0.9,0 -1.2,0.2 -1.7,0.6 -0.3,0.2 -0.5,0.4 -0.7,0.7 l -6.5,9.5 C 10.1,25 10,25.7 10,26.4 9.5,26.1 9,25.9 8.5,25.9 c -0.5,0 -0.3,0 -0.5,0 v -5.6 c 0,-1 0.6,-2 1.5,-2.4 L 18,13.8 c 2.9,-1.4 4.7,-4.4 4.7,-7.6 V 2 c 0,-1.1 -0.9,-2 -2,-2 h -4 c -1.1,0 -2,0.9 -2,2 v 4.1 c 0,0.2 0,0.3 -0.2,0.4 L 6,10.6 c -3.7,1.8 -6,5.5 -6,9.7 v 11.8 c 0,2 0.9,3.9 2.5,5.1 l -1.3,1.5 c -1,1.2 -0.9,3 0.3,4 0.5,0.4 1.2,0.7 1.8,0.7 0.6,0 0.3,0 0.5,0 L 15,41.3 c 0.1,0 0.2,0 0.4,-0.1 v 4.1 c 0,1.1 0.9,2 2,2 h 4 c 1.1,0 2,-0.9 2,-2 V 28.1 l 1.7,0.5 c 0.3,0 0.5,0.1 0.8,0.1 1.2,0 2.3,-0.8 2.7,-2 0.3,-0.8 0.1,-1.7 -0.4,-2.4 0,0 -6.4,-9.5 -6.4,-9.5 z"
   id="path1" />
<g
   id="g3">
	<path
   style="fill:#0056a4"
   d="m 13,26.7 4.4,-1.3 v 19.9 h 4 V 25.4 l 4.3,1.3 c 0.4,0.1 0.9,-0.1 1,-0.5 0,-0.2 0,-0.5 -0.1,-0.7 L 20.2,16 c -0.3,-0.4 -0.9,-0.5 -1.3,-0.2 0,0 -0.2,0.1 -0.2,0.2 l -6.5,9.5 c -0.3,0.4 -0.2,0.9 0.2,1.1 0.2,0.1 0.5,0.2 0.7,0.1 v 0 z"
   id="path2" />
	<path
   style="fill:#0056a4"
   d="m 16.8,2 v 4.1 c 0,0.9 -0.5,1.8 -1.4,2.2 L 6.9,12.4 C 3.9,13.9 2,16.9 2,20.2 V 32 c 0,1.8 1,3.4 2.6,4.1 l 1,0.5 v 0 L 2.7,40 c -0.3,0.3 -0.2,0.9 0,1.2 0.2,0.2 0.4,0.2 0.7,0.2 l 11.2,-2.1 c 0.5,0 0.8,-0.6 0.8,-1.1 0,-0.1 0,-0.2 -0.1,-0.3 L 9.2,28.2 C 9,27.8 8.5,27.7 8.1,27.9 7.9,28 7.8,28.3 7.7,28.5 L 7.2,33 v 0 L 6.4,32.6 C 6.2,32.5 6.1,32.3 6.1,32 V 20.2 c 0,-1.8 1,-3.4 2.7,-4.2 l 8.5,-4.1 c 2.2,-1.1 3.6,-3.3 3.6,-5.8 V 2 h -4 z"
   id="path3" />
</g>
<g
   id="g5">
	<path
   style="fill:#0056a4"
   d="m 13,26.7 4.4,-1.3 v 19.9 h 4 V 25.4 l 4.3,1.3 c 0.4,0.1 0.9,-0.1 1,-0.5 0,-0.2 0,-0.5 -0.1,-0.7 L 20.2,16 c -0.3,-0.4 -0.9,-0.5 -1.3,-0.2 0,0 -0.2,0.1 -0.2,0.2 l -6.5,9.5 c -0.3,0.4 -0.2,0.9 0.2,1.1 0.2,0.1 0.5,0.2 0.7,0.1 v 0 z"
   id="path4" />
	<path
   style="fill:#0056a4"
   d="m 16.8,2 v 4.1 c 0,0.9 -0.5,1.8 -1.4,2.2 L 6.9,12.4 C 3.9,13.9 2,16.9 2,20.2 V 32 c 0,1.8 1,3.4 2.6,4.1 l 1,0.5 v 0 L 2.7,40 c -0.3,0.3 -0.2,0.9 0,1.2 0.2,0.2 0.4,0.2 0.7,0.2 l 11.2,-2.1 c 0.5,0 0.8,-0.6 0.8,-1.1 0,-0.1 0,-0.2 -0.1,-0.3 L 9.2,28.2 C 9,27.8 8.5,27.7 8.1,27.9 7.9,28 7.8,28.3 7.7,28.5 L 7.2,33 v 0 L 6.4,32.6 C 6.2,32.5 6.1,32.3 6.1,32 V 20.2 c 0,-1.8 1,-3.4 2.7,-4.2 l 8.5,-4.1 c 2.2,-1.1 3.6,-3.3 3.6,-5.8 V 2 h -4 z"
   id="path5" />
</g>
</svg>
