<?xml version="1.0" encoding="UTF-8" standalone="no"?>
<!-- Generator: Adobe Illustrator 29.4.0, SVG Export Plug-In . SVG Version: 9.03 Build 0)  -->

<svg
   version="1.1"
   id="Layer_1"
   x="0px"
   y="0px"
   viewBox="0 0 37 37"
   xml:space="preserve"
   sodipodi:docname="poi002_c.svg"
   width="37"
   height="37"
   inkscape:version="1.3.2 (091e20e, 2023-11-25, custom)"
   xmlns:inkscape="http://www.inkscape.org/namespaces/inkscape"
   xmlns:sodipodi="http://sodipodi.sourceforge.net/DTD/sodipodi-0.dtd"
   xmlns="http://www.w3.org/2000/svg"
   xmlns:svg="http://www.w3.org/2000/svg"><defs
   id="defs3" /><sodipodi:namedview
   id="namedview3"
   pagecolor="#ffffff"
   bordercolor="#000000"
   borderopacity="0.25"
   inkscape:showpageshadow="2"
   inkscape:pageopacity="0.0"
   inkscape:pagecheckerboard="0"
   inkscape:deskcolor="#d1d1d1"
   inkscape:zoom="49.162162"
   inkscape:cx="18.48983"
   inkscape:cy="18.5"
   inkscape:window-width="3840"
   inkscape:window-height="2054"
   inkscape:window-x="2869"
   inkscape:window-y="-11"
   inkscape:window-maximized="1"
   inkscape:current-layer="Layer_1" />
<path
   style="fill:#ffffff"
   d="M 35,0 H 2 C 0.9,0 0,0.9 0,2 v 33 c 0,1.1 0.9,2 2,2 h 33 c 1.1,0 2,-0.9 2,-2 V 2 C 37,0.9 36.1,0 35,0 Z"
   id="path1" />
<path
   style="fill:#bd5639"
   d="M 28.9,8.1 V 28.9 H 8.1 V 8.1 H 28.9 M 35,2 H 2 v 33 h 33 z"
   id="path2" />
<rect
   x="14.2"
   y="14.2"
   style="fill:#bd5639"
   width="8.6999998"
   height="8.6999998"
   id="rect2" />
<path
   style="fill:#bd5639"
   d="M 28.9,8.1 V 28.9 H 8.1 V 8.1 H 28.9 M 35,2 H 2 v 33 h 33 z"
   id="path3" />
<rect
   x="14.2"
   y="14.2"
   style="fill:#bd5639"
   width="8.6999998"
   height="8.6999998"
   id="rect3" />
</svg>
