<?xml version="1.0" encoding="UTF-8" standalone="no"?>
<!-- Generator: Adobe Illustrator 29.4.0, SVG Export Plug-In . SVG Version: 9.03 Build 0)  -->

<svg
   version="1.1"
   id="Layer_1"
   x="0px"
   y="0px"
   viewBox="0 0 36.2 42.4"
   xml:space="preserve"
   sodipodi:docname="poi021_c.svg"
   width="36.200001"
   height="42.400002"
   inkscape:version="1.3.2 (091e20e, 2023-11-25, custom)"
   xmlns:inkscape="http://www.inkscape.org/namespaces/inkscape"
   xmlns:sodipodi="http://sodipodi.sourceforge.net/DTD/sodipodi-0.dtd"
   xmlns="http://www.w3.org/2000/svg"
   xmlns:svg="http://www.w3.org/2000/svg"><defs
   id="defs14" /><sodipodi:namedview
   id="namedview14"
   pagecolor="#ffffff"
   bordercolor="#000000"
   borderopacity="0.25"
   inkscape:showpageshadow="2"
   inkscape:pageopacity="0.0"
   inkscape:pagecheckerboard="0"
   inkscape:deskcolor="#d1d1d1"
   inkscape:zoom="42.900942"
   inkscape:cx="18.11149"
   inkscape:cy="21.200001"
   inkscape:window-width="3840"
   inkscape:window-height="2054"
   inkscape:window-x="2869"
   inkscape:window-y="-11"
   inkscape:window-maximized="1"
   inkscape:current-layer="Layer_1" />
<path
   style="fill:#ffffff"
   d="M 34.9,4.2 34.4,3.5 C 33.8,2.7 33.3,2 32.7,1.2 32.1,0.4 31.3,0 30.3,0 c -1,0 -2,0 -2.9,0 -0.1,0 -0.3,0 -0.5,0 H 18.5 C 18.4,0 18.2,0 18.1,0 H 17.9 C 13.7,0 9.5,0 5.5,0 V 0 C 4.5,0 3.7,0.4 3.1,1.2 2.7,1.7 2.4,2.2 2,2.8 1.5,3.5 1.1,4.1 0.6,4.8 0.2,5.1 0,5.8 0,6.4 c 0,0.4 0,0.9 0,1.3 0,0.4 0,0.8 0,1.2 0,0.8 0.2,2 1.1,3.1 0,2.6 0,5.2 0,7.8 v 0.7 C 0.4,21 0,21.7 0,22.7 c 0,0.6 0,1.2 0,1.8 0,0.9 0.4,1.7 1.1,2.1 V 33 c 0,1.7 1,2.8 2.8,2.8 h 2.3 l -0.3,0.8 c -0.2,0.5 -0.2,1 0,1.4 l -1.3,3 c -0.2,0.5 0,1 0.4,1.3 0.2,0 0.3,0.1 0.5,0.1 0.3,0 0.6,-0.1 0.8,-0.4 L 8.2,39.4 C 8.7,39.3 9.1,39 9.4,38.6 l 2,-2.7 h 20.7 c 1.7,0 2.8,-1 2.8,-2.8 v -6.4 c 0.7,-0.5 1.1,-1.2 1.1,-2.2 0,-0.6 0,-1.2 0,-1.7 0,-1 -0.4,-1.7 -1.1,-2.2 0,-2.8 0,-5.5 0,-8.3 0.8,-0.9 1.3,-2 1.3,-3.3 V 8.4 c 0,-0.5 0,-1.1 0,-1.6 v 0 c 0,-1.2 -0.3,-2 -1.1,-2.6 z"
   id="path1" />
<g
   id="g14">
	<path
   style="fill:none"
   d="m 23.7,9.3 c 0,-0.4 0,-0.8 0,-1.1 l -1.4,2.4 c 0.7,0 1.3,-0.6 1.4,-1.3 z"
   id="path2" />
	<path
   style="fill:none"
   d="m 17.5,2.9 c -3.9,0 -7.9,0 -11.7,0 -0.1,0 -0.3,0 -0.4,0.2 -0.6,0.8 -1.1,1.5 -1.7,2.3 0,0 0,0.1 -0.1,0.2 h 12.7 l 1.2,-2.8 z"
   id="path3" />
	<path
   style="fill:none"
   d="m 11.8,6.8 c 0,0.8 0,1.6 0,2.3 0,0.8 0.7,1.4 1.5,1.5 0.4,0 0.7,0 1.1,-0.3 l 0.7,-1.6 c 0,-0.7 0,-1.3 0,-2 -1,0 -2.1,0 -3.2,0 z"
   id="path4" />
	<path
   style="fill:none"
   d="m 6.4,22 h 7.4 l 1.9,-4.4 h -4.4 l 0.6,-1.4 2,-4.6 c -0.1,0 -0.2,0 -0.4,0 -0.9,0 -1.6,-0.4 -2.2,-1.1 -1.1,1.3 -2.9,1.6 -4.3,0 -0.4,0.3 -0.5,0.6 -0.5,1.1 0,3.3 0,6.6 0,9.9 0,0.1 0,0.3 0,0.4 z"
   id="path5" />
	<path
   style="fill:none"
   d="m 6.3,9.3 c 0,-0.8 0,-1.6 0,-2.5 H 3.1 c 0,0.8 0,1.5 0,2.2 0,0.9 0.7,1.5 1.6,1.6 0.8,0 1.6,-0.5 1.7,-1.4 z"
   id="path6" />
	<path
   style="fill:none"
   d="m 25.2,5.7 h 7 V 5.6 C 31.6,4.8 31,3.9 30.4,3.1 30.4,3.1 30.2,3 30,3 29,3 27.9,3 26.9,3 l -1.6,2.8 z"
   id="path7" />
	<path
   style="fill:none"
   d="m 29.4,21.7 c 0,-3.4 0,-6.9 0,-10.3 0,-0.3 -0.1,-0.5 -0.4,-0.7 -1.1,1.3 -3.5,1.5 -4.8,0 -0.9,0.9 -1.7,1.2 -2.6,1 v 0.2 c -0.1,0 3,0 3,0 h 2 l -1.1,1.6 -6.2,8.6 h 10.1 c 0,-0.1 0,-0.3 0,-0.4 z"
   id="path8" />
	<path
   style="fill:none"
   d="m 31.6,11.7 c -0.4,0 -0.7,0 -1.1,0 v 10.4 h 1.1 V 11.8 Z"
   id="path9" />
	<path
   style="fill:none"
   d="M 4.2,22.1 H 5.3 V 11.7 H 4.2 Z"
   id="path10" />
	<path
   style="fill:none"
   d="m 17.2,25.1 -5.5,7.7 h 20 v -7.7 c -0.1,0 -0.2,0 -0.3,0 -4.6,0 -9.4,0 -14.1,0 z"
   id="path11" />
	<path
   style="fill:none"
   d="m 29.6,6.8 c 0,0.8 0,1.5 0,2.2 0,0.9 0.6,1.6 1.5,1.6 0.8,0 1.6,-0.5 1.7,-1.4 0,-0.8 0,-1.7 0,-2.5 -1.1,0 -2.1,0 -3.2,0 z"
   id="path12" />
	<path
   style="fill:none"
   d="m 12.4,25.1 c -2.7,0 -5.3,0 -7.9,0 -0.3,0 -0.4,0 -0.4,0.4 0,2.3 0,4.7 0,7 0,0 0,0.2 0,0.3 H 9 l 3.3,-7.7 z"
   id="path13" />
	<path
   d="m 33.6,5.7 c 0,0 -0.1,-0.2 -0.2,-0.2 C 32.6,4.4 31.9,3.4 31.1,2.3 30.9,2 30.7,1.9 30.3,1.9 c -0.9,0 -1.9,0 -2.9,0 l 0.3,-0.6 h -9.6 l -0.2,0.6 c -4.2,0 -8.4,0 -12.5,0 C 5.1,1.9 4.8,2 4.6,2.3 3.8,3.5 2.9,4.6 2.1,5.8 2,6 1.9,6.2 1.9,6.4 c 0,0.9 0,1.7 0,2.6 0,0.8 0.3,1.5 0.9,2 0.2,0.2 0.2,0.3 0.2,0.5 0,3.4 0,6.8 0,10.2 v 0.4 c -0.2,0 -0.3,0 -0.5,0 -0.4,0 -0.6,0.2 -0.6,0.6 0,0.6 0,1.2 0,1.8 0,0.4 0.2,0.5 0.6,0.6 0.2,0 0.3,0 0.5,0 v 8 c 0,0.6 0.2,0.8 0.8,0.8 h 4.8 l -3.3,7.6 5.3,-7.4 h 0.1 C 17.7,34 24.9,34 31.8,34 c 6.9,0 0.8,-0.2 0.8,-0.8 v -8 c 0.2,0 0.3,0 0.4,0 0.5,0 0.7,-0.2 0.7,-0.7 0,-0.6 0,-1.1 0,-1.7 0,-0.4 -0.2,-0.6 -0.6,-0.6 -0.2,0 -0.3,0 -0.4,0 0,0 0,-0.1 0,-0.2 0,-3.5 0,-6.9 0,-10.4 0,-0.1 0,-0.3 0.2,-0.3 C 33.6,10.7 34,10 34,9 34,8 34,7.5 34,6.8 34,6.4 34,6 33.6,5.8 Z M 30.4,3.1 c 0.6,0.8 1.2,1.7 1.8,2.5 0,0 0,0 0,0.1 h -7 l 1.6,-2.8 c 1,0 2.1,0 3.1,0 0.1,0 0.3,0 0.4,0.1 z m -24,8.6 c 0,-0.5 0.1,-0.8 0.5,-1.1 1.4,1.6 3.3,1.2 4.3,0 0.6,0.7 1.3,1.1 2.2,1.1 0.1,0 0.3,0 0.4,0 l -2,4.6 -0.6,1.4 h 4.4 l -1.9,4.4 H 6.3 v -0.4 c 0,-3.3 0,-6.6 0,-9.9 z M 15,8.8 14.3,10.4 c -0.3,0.2 -0.7,0.3 -1.1,0.3 -0.8,0 -1.5,-0.7 -1.5,-1.5 0,-0.8 0,-1.5 0,-2.3 h 3.2 c 0,0.7 0,1.3 0,2 z m 2.2,7.9 H 12.8 L 18.9,2.3 h 7.2 l -6.2,10.6 h 4.9 L 10,33.5 17.2,16.8 Z m 6.6,-8.5 c 0,0.4 0,0.8 0,1.1 0,0.7 -0.7,1.2 -1.4,1.3 z m 1.8,5.2 1.1,-1.6 h -5.1 v -0.2 c 1,0.2 1.8,-0.1 2.7,-1 1.3,1.5 3.7,1.3 4.8,0 0.2,0.2 0.4,0.4 0.4,0.7 0,3.4 0,6.9 0,10.3 V 22 H 19.4 Z M 3.8,5.5 C 4.4,4.7 4.9,3.9 5.5,3.2 5.5,3.1 5.8,3 5.9,3 9.7,3 13.6,3 17.6,3 L 16.4,5.8 H 3.6 c 0,0 0,-0.2 0.1,-0.2 z M 3.1,9 c 0,-0.7 0,-1.5 0,-2.2 h 3.2 c 0,0.8 0,1.7 0,2.5 0,0.8 -0.9,1.4 -1.7,1.4 C 3.7,10.7 3.1,10 3,9.1 Z m 2.2,2.7 V 22.1 H 4.2 V 11.7 c 0.4,0 0.7,0 1.1,0 z M 4.2,32.5 c 0,-2.3 0,-4.7 0,-7 0,-0.3 0,-0.4 0.4,-0.4 2.6,0 5.2,0 7.9,0 L 9.2,32.8 H 4.3 c 0,0 0,-0.2 0,-0.3 z m 27.4,0.3 h -20 l 5.5,-7.7 c 4.7,0 9.5,0 14.1,0 4.6,0 0.2,0 0.3,0 v 7.7 z M 30.5,22.1 V 11.7 c 0.4,0 0.7,0 1.1,0 V 22 H 30.5 Z M 32.9,9.3 c 0,0.8 -0.9,1.4 -1.7,1.4 -0.9,0 -1.5,-0.8 -1.5,-1.6 0,-0.7 0,-1.5 0,-2.2 h 3.2 c 0,0.8 0,1.7 0,2.5 z"
   id="path14" />
	<polygon
   style="fill:#ffff00"
   points="26.1,2.3 18.9,2.3 12.7,16.7 17.2,16.7 9.9,33.4 24.8,12.9 19.9,12.9 "
   id="polygon14" />
</g>
</svg>
